<svg id="Layer_1" data-name="Layer 1" xmlns="http://www.w3.org/2000/svg" viewBox="0 0 1000 300"><defs><style>.cls-1{font-size:50px;}.cls-1,.cls-2{fill:#1a0;}.cls-1,.cls-2,.cls-30{font-family:Futura-Bold, Futura;font-weight:700;}.cls-11,.cls-2{font-size:21px;}.cls-3{letter-spacing:-0.01em;}.cls-4{letter-spacing:0em;}.cls-5{letter-spacing:0.01em;}.cls-6{letter-spacing:-0.03em;}.cls-7{letter-spacing:-0.02em;}.cls-8{letter-spacing:0em;}.cls-9{letter-spacing:0.03em;}.cls-10{letter-spacing:0em;}.cls-11{fill:#60606d;font-family:Futura-Medium, Futura;font-weight:500;}.cls-12{letter-spacing:-0.01em;}.cls-13{letter-spacing:0.01em;}.cls-14{letter-spacing:0.01em;}.cls-15{letter-spacing:0.01em;}.cls-16{letter-spacing:-0.02em;}.cls-17{letter-spacing:0.01em;}.cls-18{letter-spacing:0.02em;}.cls-19{letter-spacing:-0.01em;}.cls-20{letter-spacing:0em;}.cls-21{letter-spacing:0.02em;}.cls-22{letter-spacing:0.01em;}.cls-23{letter-spacing:-0.04em;}.cls-24{letter-spacing:0.02em;}.cls-25{letter-spacing:0.03em;}.cls-26{letter-spacing:-0.02em;}.cls-27{letter-spacing:-0.02em;}.cls-28{letter-spacing:0.01em;}.cls-29{letter-spacing:-0.01em;}.cls-30{font-size:24px;fill:#003;}.cls-31{letter-spacing:-0.04em;}.cls-32{letter-spacing:-0.03em;}.cls-33{letter-spacing:-0.03em;}.cls-34{letter-spacing:0.01em;}.cls-35{letter-spacing:0em;}</style></defs><text class="cls-1" transform="translate(292.5 138.76)">+25%</text><text class="cls-2" transform="translate(266.82 183.76)"><tspan class="cls-3">P</tspan><tspan class="cls-4" x="13.92" y="0">odca</tspan><tspan class="cls-5" x="68.35" y="0">s</tspan><tspan x="79.34" y="0">t Disc</tspan><tspan class="cls-6" x="138.2" y="0">o</tspan><tspan class="cls-7" x="152.35" y="0">v</tspan><tspan class="cls-8" x="165.54" y="0">e</tspan><tspan class="cls-9" x="179.13" y="0">r</tspan><tspan class="cls-10" x="189.56" y="0">y</tspan></text><text class="cls-11" transform="translate(264.28 217.76)">Users mo<tspan class="cls-12" x="87.74" y="0">r</tspan><tspan x="95.45" y="0">e f</tspan><tspan class="cls-12" x="119.79" y="0">r</tspan><tspan x="127.5" y="0">e</tspan><tspan class="cls-13" x="139.11" y="0">q</tspan><tspan x="151.94" y="0">uent</tspan><tspan class="cls-14" x="192.26" y="0">l</tspan><tspan class="cls-10" x="197.67" y="0">y</tspan><tspan class="cls-15" x="9.6" y="25.2">f</tspan><tspan x="16.09" y="25.2">ound n</tspan><tspan class="cls-16" x="82.26" y="25.2">e</tspan><tspan x="93.56" y="25.2">w podcasts</tspan><tspan x="-1.49" y="50.4">sui</tspan><tspan class="cls-14" x="23.71" y="50.4">t</tspan><tspan x="29.63" y="50.4">ed </tspan><tspan class="cls-17" x="60.32" y="50.4">t</tspan><tspan x="66.21" y="50.4">o </tspan><tspan class="cls-18" x="85.31" y="50.4">t</tspan><tspan x="91.48" y="50.4">heir in</tspan><tspan class="cls-14" x="150.92" y="50.4">t</tspan><tspan x="156.84" y="50.4">e</tspan><tspan class="cls-19" x="168.46" y="50.4">r</tspan><tspan x="176.17" y="50.4">ests</tspan></text><text class="cls-11" transform="translate(26.1 217.76)">Users successful<tspan class="cls-14" x="150.06" y="0">l</tspan><tspan class="cls-20" x="155.47" y="0">y</tspan><tspan x="19.05" y="25.2">co</tspan><tspan class="cls-15" x="41.68" y="25.2">m</tspan><tspan x="58.54" y="25.2">pl</tspan><tspan class="cls-14" x="76.37" y="25.2">et</tspan><tspan x="94.1" y="25.2">ed all</tspan><tspan class="cls-12" x="10.25" y="50.4">r</tspan><tspan x="17.96" y="50.4">e</tspan><tspan class="cls-13" x="29.58" y="50.4">q</tspan><tspan x="42.41" y="50.4">ues</tspan><tspan class="cls-14" x="73.99" y="50.4">t</tspan><tspan x="79.92" y="50.4">ed </tspan><tspan class="cls-14" x="110.61" y="50.4">t</tspan><tspan x="116.54" y="50.4">asks</tspan></text><text class="cls-2" transform="translate(45.56 183.76)">Co<tspan class="cls-21" x="28.71" y="0">m</tspan><tspan x="49.92" y="0">pl</tspan><tspan class="cls-22" x="71.04" y="0">e</tspan><tspan class="cls-5" x="84.78" y="0">t</tspan><tspan x="92.9" y="0">ion</tspan></text><text class="cls-1" transform="translate(34.22 139.76)"><tspan class="cls-23">1</tspan><tspan x="32" y="0">00%</tspan></text><text class="cls-11" transform="translate(530.09 217.76)">Mo<tspan class="cls-12" x="32.81" y="0">r</tspan><tspan x="40.52" y="0">e users </tspan><tspan class="cls-15" x="113.06" y="0">f</tspan><tspan x="119.55" y="0">ound &amp; </tspan><tspan x="-11.55" y="25.2">used </tspan><tspan class="cls-18" x="39.1" y="25.2">t</tspan><tspan x="45.27" y="25.2">he </tspan><tspan class="cls-13" x="74.88" y="25.2">q</tspan><tspan x="87.71" y="25.2">ueue </tspan><tspan class="cls-24" x="140.31" y="25.2">f</tspan><tspan x="146.86" y="25.2">eatu</tspan><tspan class="cls-12" x="188.26" y="25.2">r</tspan><tspan x="195.97" y="25.2">e</tspan><tspan x="32.61" y="50.4">in n</tspan><tspan class="cls-16" x="67.35" y="50.4">e</tspan><tspan x="78.65" y="50.4">w design</tspan></text><text class="cls-2" transform="translate(532.34 184.26)">Queue Disc<tspan class="cls-6" x="125.73" y="0">o</tspan><tspan class="cls-7" x="139.88" y="0">v</tspan><tspan x="153.07" y="0">e</tspan><tspan class="cls-25" x="166.65" y="0">r</tspan><tspan class="cls-20" x="177.09" y="0">y</tspan></text><text class="cls-1" transform="translate(552.79 138.76)">+<tspan class="cls-23" x="34" y="0">1</tspan><tspan x="66" y="0">0%</tspan></text><text class="cls-11" transform="translate(799.22 217.76)"><tspan class="cls-26">R</tspan><tspan class="cls-27" x="12.3" y="0">ev</tspan><tspan x="33.76" y="0">a</tspan><tspan class="cls-15" x="46.35" y="0">m</tspan><tspan x="63.22" y="0">ped icons &amp;</tspan><tspan x="-10.6" y="25.2">typog</tspan><tspan class="cls-12" x="44.34" y="25.2">r</tspan><tspan x="52.05" y="25.2">ap</tspan><tspan class="cls-26" x="77.23" y="25.2">h</tspan><tspan x="88.41" y="25.2">y </tspan><tspan class="cls-17" x="106.3" y="25.2">t</tspan><tspan x="112.19" y="25.2">o b</tspan><tspan class="cls-28" x="143.88" y="25.2">e</tspan><tspan x="155.69" y="25.2">t</tspan><tspan class="cls-14" x="161.43" y="25.2">t</tspan><tspan x="167.35" y="25.2">er</tspan><tspan x="-7.73" y="50.4">adhe</tspan><tspan class="cls-12" x="40.59" y="50.4">r</tspan><tspan x="48.3" y="50.4">e </tspan><tspan class="cls-17" x="66.4" y="50.4">t</tspan><tspan x="72.29" y="50.4">o s</tspan><tspan class="cls-14" x="99.91" y="50.4">t</tspan><tspan x="105.84" y="50.4">anda</tspan><tspan class="cls-12" x="155.13" y="50.4">r</tspan><tspan x="162.84" y="50.4">ds</tspan></text><text class="cls-2" transform="translate(819.95 184.26)"><tspan class="cls-29">A</tspan><tspan x="16.72" y="0">ccessibility</tspan></text><text class="cls-1" transform="translate(827.25 138.76)">AAA</text><text class="cls-30" transform="translate(16.36 46.82)"><tspan class="cls-31">K</tspan><tspan class="cls-32" x="18.12" y="0">e</tspan><tspan x="33" y="0">y Success </tspan><tspan class="cls-33" x="160.87" y="0">M</tspan><tspan class="cls-34" x="185.06" y="0">e</tspan><tspan x="200.76" y="0">t</tspan><tspan class="cls-35" x="209.71" y="0">r</tspan><tspan x="220.89" y="0">ics</tspan></text></svg>