<svg width="24" height="24" viewBox="0 0 24 24" fill="none" xmlns="http://www.w3.org/2000/svg">
<path d="M14.25 18.5H12.75V14.9375C14.7812 14.5625 16.2188 12.7188 15.9688 10.6562L15.125 4.875C15.0312 4.375 14.625 4 14.125 4H9.84375C9.34375 4 8.9375 4.375 8.875 4.875L8.03125 10.6562C7.75 12.7188 9.21875 14.5625 11.25 14.9375V18.5H9.75C9.03125 18.5 8.5 19.0625 8.5 19.75C8.5 19.9062 8.59375 20 8.75 20H15.25C15.375 20 15.5 19.9062 15.5 19.75C15.5 19.0625 14.9375 18.5 14.25 18.5ZM10.2812 5.5H13.6875L14.0625 8H9.90625L10.2812 5.5ZM10.0625 12.6562C9.625 12.1562 9.40625 11.5 9.5 10.875L9.6875 9.5H14.2812L14.4688 10.8438C14.5625 11.5 14.3438 12.1562 13.9062 12.6562C13.4375 13.1875 12.7188 13.5 12 13.5C11.25 13.5 10.5312 13.1875 10.0625 12.6562Z" fill="#333333"/>
</svg>
