<svg width="24" height="24" viewBox="0 0 24 24" fill="none" xmlns="http://www.w3.org/2000/svg">
<path d="M12 4C11.9375 4 11.875 4.03125 11.8125 4.03125C8.53125 4.125 6 6.96875 6 10.2812V18.5C6 18.8125 6.21875 19 6.5 19C6.625 19 6.75 18.9688 6.84375 18.875L7.625 18.2812C7.71875 18.2188 7.8125 18.1875 7.90625 18.1875C8.0625 18.1875 8.1875 18.25 8.28125 18.3438L9.625 19.875C9.71875 19.9688 9.84375 20.0312 10 20.0312C10.125 20.0312 10.25 19.9688 10.3438 19.875L11.625 18.4375C11.7188 18.3125 11.8438 18.2812 12 18.2812C12.125 18.2812 12.25 18.3125 12.3438 18.4375L13.625 19.875C13.7188 19.9688 13.8438 20.0312 13.9688 20.0312C14.125 20.0312 14.25 19.9688 14.3438 19.875L15.6875 18.3438C15.7812 18.25 15.9062 18.1875 16.0625 18.1875C16.1562 18.1875 16.2812 18.2188 16.3438 18.2812L17.125 18.875C17.2188 18.9688 17.3438 19 17.4688 19C17.75 19 18 18.8125 18 18.5V10C18 6.6875 15.3125 4 12 4ZM16.5 16.75C16.3438 16.7188 16.1875 16.6875 16.0625 16.6875C15.4688 16.6875 14.9375 16.9375 14.5625 17.375L14 18L13.4688 17.4375C13.0938 17 12.5625 16.7812 12 16.7812C11.4062 16.7812 10.875 17 10.5 17.4375L10 18L9.40625 17.375C9.03125 16.9375 8.5 16.6875 7.90625 16.6875C7.78125 16.6875 7.625 16.7188 7.46875 16.75V10.2812C7.46875 7.71875 9.4375 5.59375 11.8438 5.53125L12 5.5C14.4688 5.5 16.5 7.53125 16.5 10V16.75ZM10 9C9.4375 9 9 9.46875 9 10C9 10.5625 9.4375 11 10 11C10.5312 11 11 10.5625 11 10C11 9.46875 10.5312 9 10 9ZM14 9C13.4375 9 13 9.46875 13 10C13 10.5625 13.4375 11 14 11C14.5312 11 15 10.5625 15 10C15 9.46875 14.5312 9 14 9Z" fill="#333333"/>
</svg>
