<svg width="24" height="24" viewBox="0 0 24 24" fill="none" xmlns="http://www.w3.org/2000/svg">
<path d="M6.3125 12.9688C7.21875 12.75 7.71875 11.7188 7.375 10.625C7.09375 9.65625 6.28125 9 5.46875 9C5.375 9 5.25 9.03125 5.15625 9.0625C4.25 9.28125 3.75 10.3125 4.09375 11.4062C4.375 12.3438 5.1875 13 6 13C6.09375 13 6.21875 13 6.3125 12.9688ZM5.28125 11.0625C5.1875 10.75 5.25 10.5 5.3125 10.375C5.375 10.2812 5.40625 10.2812 5.4375 10.2812L5.46875 10.25C5.6875 10.25 6.03125 10.5 6.1875 10.9688C6.28125 11.2812 6.21875 11.5312 6.15625 11.6562C6.09375 11.75 6.0625 11.75 6 11.75C5.78125 11.75 5.4375 11.5312 5.28125 11.0625ZM13.9375 9.96875C14.0625 10 14.1562 10 14.2812 10C15.1562 10 16.0312 9.1875 16.375 7.96875C16.7188 6.625 16.25 5.3125 15.2812 5.0625C15.1875 5.03125 15.0625 5 14.9375 5C14.0625 5 13.1875 5.84375 12.8438 7.0625C12.5 8.40625 12.9688 9.71875 13.9375 9.96875ZM14.0625 7.375C14.25 6.65625 14.75 6.25 14.9375 6.25L14.9688 6.28125C15 6.28125 15.0312 6.3125 15.0938 6.40625C15.2188 6.625 15.3125 7.09375 15.1562 7.65625C14.9688 8.375 14.4688 8.75 14.25 8.75C14.2188 8.75 14.1875 8.71875 14.125 8.625C14 8.40625 13.9062 7.9375 14.0625 7.375ZM18.8125 9.0625C18.7188 9.03125 18.5938 9 18.5 9C17.6875 9 16.875 9.65625 16.5938 10.625C16.25 11.7188 16.75 12.75 17.6562 12.9688C17.75 13 17.875 13 17.9688 13C18.7812 13 19.5938 12.3438 19.875 11.4062C20.2188 10.3125 19.7188 9.28125 18.8125 9.0625ZM18.6875 11.0625C18.5312 11.5 18.1875 11.75 17.9375 11.75C17.9062 11.75 17.875 11.75 17.8125 11.6562C17.75 11.5312 17.6875 11.2812 17.7812 10.9688C17.9375 10.5 18.2812 10.25 18.5 10.25L18.5312 10.2812C18.5625 10.2812 18.5938 10.2812 18.6562 10.375C18.7188 10.5 18.7812 10.75 18.6875 11.0625ZM9.6875 10C9.8125 10 9.90625 10 10.0312 9.96875C11 9.71875 11.4688 8.40625 11.125 7.0625C10.7812 5.84375 9.90625 5 9.03125 5C8.90625 5 8.8125 5.03125 8.6875 5.0625C7.71875 5.3125 7.25 6.625 7.59375 7.96875C7.9375 9.1875 8.8125 10 9.6875 10ZM8.875 6.40625C8.9375 6.3125 8.96875 6.28125 9 6.28125L9.03125 6.25C9.21875 6.25 9.71875 6.65625 9.90625 7.375C10.0625 7.9375 9.96875 8.40625 9.84375 8.625C9.78125 8.71875 9.75 8.75 9.6875 8.75C9.5 8.75 9 8.375 8.8125 7.65625C8.65625 7.09375 8.75 6.625 8.875 6.40625ZM12 11C9.5 11 6 14.8438 6 17.2812C6 18.375 6.8125 19 8.21875 19C9.75 19 10.75 18.2188 12 18.2188C13.2188 18.2188 14.2188 19 15.75 19C17.1562 19 18 18.375 18 17.2812C18 14.8438 14.4688 11 12 11ZM16.4688 17.375C16.4375 17.4062 16.25 17.5 15.75 17.5C15.1875 17.5 14.6875 17.3438 14.125 17.1562C13.5312 16.9688 12.8125 16.7188 12 16.7188C11.1562 16.7188 10.4688 16.9688 9.84375 17.1562C9.28125 17.3438 8.78125 17.5 8.21875 17.5C7.71875 17.5 7.53125 17.4062 7.5 17.375C7.5 17.375 7.5 17.3438 7.5 17.2812C7.5 15.5938 10.375 12.5 12 12.5C13.5938 12.5 16.5 15.5938 16.5 17.2812C16.5 17.3438 16.4688 17.375 16.4688 17.375Z" fill="#333333"/>
</svg>
