<svg width="24" height="24" viewBox="0 0 24 24" fill="none" xmlns="http://www.w3.org/2000/svg">
<path d="M17.0312 7.75C17.5 7.78125 17.875 7.46875 18 7L16.1562 6.53125C15.9688 7.375 16.6562 7.75 17.0312 7.75ZM19.5938 12.0312L16.6562 10.6562C16.5938 10.625 16.5312 10.5938 16.5 10.5H17.0938C17.25 10.625 17.375 10.6875 17.4688 10.75C18 11.0938 18.25 11.25 18.8125 11.25H19.6875C20.4062 11.25 21.0625 10.875 21.375 10.25L21.7812 9.46875C22.0938 8.8125 22.0312 8.03125 21.5938 7.46875L19.5 4.75C19.1562 4.28125 18.5625 4 18 4H11.3125C10.1562 4 9.65625 5.46875 10.5312 6.1875L10.9062 6.46875C10.7812 6.53125 10.8125 6.53125 10.7812 6.53125C9.84375 7 9.84375 8.28125 10.7812 8.75L12 9.21875V9.59375L6.75 8.3125C6.0625 8.125 5.3125 8.40625 4.90625 8.96875L2.15625 12.9375C1.6875 13.625 2.28125 14.5625 3.1875 14.4375L6.03125 13.9062C5.5625 14.625 6.1875 15.5312 7.03125 15.4062L12.6875 14.6562C12.8438 14.9688 13 15.2812 13.2188 15.5625C8.625 15.875 5.5 16.5625 3.15625 17.0625C2.46875 17.2188 2 17.8438 2 18.5312C2 19.3438 2.65625 20 3.46875 20H17.5312C19.9062 20.0312 21.8438 18.2812 21.9688 16.0312C22.0625 14.375 21.125 12.7812 19.5938 12.0312ZM4.125 12.7188L6.15625 9.84375C6.1875 9.78125 6.28125 9.71875 6.375 9.75L8.5625 10.3125L7.28125 12.125L4.125 12.7188ZM7.96875 13.7812L10.125 10.6875L12 11.1562C12 11.8125 12 12.3125 12.1875 13.1875L7.96875 13.7812ZM17.5312 18.5L3.46875 18.5312C6.34375 17.9375 9.625 17.1875 15.4688 16.9375C15.9688 16.9375 16.1875 16.2812 15.75 15.9688C13.4688 14.3438 13.5 12.0938 13.5 11.5V8.15625L12.0625 7.625L13.875 6.90625L12.125 5.5H18C18.125 5.5 18.25 5.5625 18.3125 5.65625L20.4062 8.375C20.5 8.5 20.5 8.65625 20.4375 8.78125L20.0312 9.5625C19.9688 9.6875 19.8438 9.75 19.6875 9.75H18.8125C18.6875 9.75 18.6875 9.75 18.2812 9.5C18.125 9.40625 17.5312 9 17.5312 9H15V10.4062C15 11.0938 15.375 11.7188 16.0312 12.0312L18.9375 13.4062C19.9375 13.875 20.5312 14.875 20.4688 15.9688C20.4062 17.375 19.0625 18.5312 17.5312 18.5Z" fill="#333333"/>
</svg>
