<svg width="24" height="24" viewBox="0 0 24 24" fill="none" xmlns="http://www.w3.org/2000/svg">
<path d="M19.25 6H19V6.625C19 6.84375 18.8125 7 18.625 7H17.375C17.1562 7 17 6.84375 17 6.625V6H7V6.625C7 6.84375 6.8125 7 6.625 7H5.375C5.15625 7 5 6.84375 5 6.625V6H4.75C4.3125 6 4 6.34375 4 6.75V17.25C4 17.6875 4.3125 18 4.75 18H5V17.375C5 17.1875 5.15625 17 5.375 17H6.625C6.8125 17 7 17.1875 7 17.375V18H17V17.375C17 17.1875 17.1562 17 17.375 17H18.625C18.8125 17 19 17.1875 19 17.375V18H19.25C19.6562 18 20 17.6875 20 17.25V6.75C20 6.34375 19.6562 6 19.25 6ZM7 15.625C7 15.8438 6.8125 16 6.625 16H5.375C5.15625 16 5 15.8438 5 15.625V14.375C5 14.1875 5.15625 14 5.375 14H6.625C6.8125 14 7 14.1875 7 14.375V15.625ZM7 12.625C7 12.8438 6.8125 13 6.625 13H5.375C5.15625 13 5 12.8438 5 12.625V11.375C5 11.1875 5.15625 11 5.375 11H6.625C6.8125 11 7 11.1875 7 11.375V12.625ZM7 9.625C7 9.84375 6.8125 10 6.625 10H5.375C5.15625 10 5 9.84375 5 9.625V8.375C5 8.1875 5.15625 8 5.375 8H6.625C6.8125 8 7 8.1875 7 8.375V9.625ZM15.75 16.125C15.75 16.3438 15.5625 16.5 15.375 16.5H8.625C8.40625 16.5 8.25 16.3438 8.25 16.125V7.875C8.25 7.6875 8.40625 7.5 8.625 7.5H15.375C15.5625 7.5 15.75 7.6875 15.75 7.875V16.125ZM19 15.625C19 15.8438 18.8125 16 18.625 16H17.375C17.1562 16 17 15.8438 17 15.625V14.375C17 14.1875 17.1562 14 17.375 14H18.625C18.8125 14 19 14.1875 19 14.375V15.625ZM19 12.625C19 12.8438 18.8125 13 18.625 13H17.375C17.1562 13 17 12.8438 17 12.625V11.375C17 11.1875 17.1562 11 17.375 11H18.625C18.8125 11 19 11.1875 19 11.375V12.625ZM19 9.625C19 9.84375 18.8125 10 18.625 10H17.375C17.1562 10 17 9.84375 17 9.625V8.375C17 8.1875 17.1562 8 17.375 8H18.625C18.8125 8 19 8.1875 19 8.375V9.625Z" fill="#333333"/>
</svg>
