<svg id="Layer_1" data-name="Layer 1" xmlns="http://www.w3.org/2000/svg" viewBox="0 0 24 24"><defs><style>.cls-1{fill:#003;}</style></defs><path class="cls-1" d="M12,0A12.14,12.14,0,0,0,0,12.29,12.27,12.27,0,0,0,8.32,24a3.13,3.13,0,0,0,.16-1V21.37a4,4,0,0,1-4.17-1.88c-.32-.41-.59-.76-.87-.83a.82.82,0,0,1-.58-1,.8.8,0,0,1,1-.61,3.31,3.31,0,0,1,1.73,1.42c.68.87,1.23,1.59,2.91,1.23v-.08a3.64,3.64,0,0,1,.24-1.53c-2.27-.53-4.68-2-4.68-6.4A5.38,5.38,0,0,1,5.16,8.38a5.14,5.14,0,0,1,.23-3.26.83.83,0,0,1,.51-.46c.3-.09,1.4-.26,3.53,1.12a11.6,11.6,0,0,1,5.37,0C16.93,4.4,18,4.57,18.33,4.66a.83.83,0,0,1,.51.46,5.21,5.21,0,0,1,.24,3.26,5.35,5.35,0,0,1,1.11,3.29c0,4.69-2.79,6-4.68,6.41a3.63,3.63,0,0,1,.24,1.6v3.11a.88.88,0,0,1,0,.17,3.33,3.33,0,0,0,.13,1A12.29,12.29,0,0,0,24,12.29,12.14,12.14,0,0,0,12,0Z"/></svg>