<svg xmlns="http://www.w3.org/2000/svg" viewBox="0 0 24 24"><defs><style>.cls-1{fill:#4608BF;}</style></defs><title>icon</title><g id="Layer_1" data-name="Layer 1"><path class="cls-1" d="M11.94,10.91A1.14,1.14,0,0,0,13,12a1,1,0,0,0,1-1A1.15,1.15,0,0,0,13,9.87,1,1,0,0,0,11.94,10.91Z"/><path class="cls-1" d="M.43,17.37a1.45,1.45,0,0,0,0,2.06l4.14,4.14a1.45,1.45,0,0,0,2.06,0l2.49-2.48L2.91,14.88Z"/><path class="cls-1" d="M23.26,3.12a1,1,0,0,0-1.05.22L15.86,9.65A3.15,3.15,0,0,1,16.22,11a3,3,0,0,1-3.13,3.11,3.43,3.43,0,0,1-3.29-3.3,3,3,0,0,1,3.13-3.12,3.26,3.26,0,0,1,1.38.37l6.37-6.33a1,1,0,0,0,.2-1A1.1,1.1,0,0,0,19.54.05l-12.91,4A1,1,0,0,0,6,4.85L4.61,12.63a.71.71,0,0,0,0,.14l6.63,6.63h.14L19.15,18a1,1,0,0,0,.76-.67L24,4.46A1.1,1.1,0,0,0,23.26,3.12Z"/></g></svg>