<svg xmlns="http://www.w3.org/2000/svg" viewBox="0 0 24 24"><defs><style>.cls-1{fill:#03e2b7;}</style></defs><title>icon</title><g id="Layer_1" data-name="Layer 1"><path class="cls-1" d="M21.12,7.06l-.21-.22L14.74.43l-.05,0a1.24,1.24,0,0,0-.9-.39H6.71A3.35,3.35,0,0,0,3.5,3.47V20.53A3.35,3.35,0,0,0,6.71,24H18.29a3.35,3.35,0,0,0,3.21-3.47V8A1.37,1.37,0,0,0,21.12,7.06ZM8.64,12H12.5a1.34,1.34,0,0,1,0,2.67H8.64a1.34,1.34,0,0,1,0-2.67Zm7.72,8H8.64a1.34,1.34,0,0,1,0-2.67h7.72a1.34,1.34,0,0,1,0,2.67ZM14.91,8a1.14,1.14,0,0,1-1.12-1.17V2.64L19,8Z"/></g></svg>