<svg xmlns="http://www.w3.org/2000/svg" viewBox="0 0 24 24"><defs><style>.cls-1{fill:#03e2b7;}</style></defs><title>icon</title><g id="Layer_1" data-name="Layer 1"><path class="cls-1" d="M21,13.81a12.32,12.32,0,0,1-2.72-.68,3.51,3.51,0,0,0-3.67.79l-.62.62A15.87,15.87,0,0,1,9.43,10l.62-.62a3.47,3.47,0,0,0,.79-3.66A12.13,12.13,0,0,1,10.16,3,3.48,3.48,0,0,0,6.73,0H3.16A3.48,3.48,0,0,0,.81,1.25,3.41,3.41,0,0,0,0,3.81a22.52,22.52,0,0,0,3.49,9.85,22.36,22.36,0,0,0,6.83,6.83A22.7,22.7,0,0,0,20.2,24h.33A3.48,3.48,0,0,0,24,20.52v-3.2A3.48,3.48,0,0,0,21,13.81Z"/></g></svg>