<svg id="Layer_1" data-name="Layer 1" xmlns="http://www.w3.org/2000/svg" viewBox="0 0 24 24"><defs><style>.cls-1{fill:#000033;}</style></defs><path class="cls-1" d="M21,13.81a12.1,12.1,0,0,1-2.71-.68,3.53,3.53,0,0,0-3.68.79l-.62.62A15.87,15.87,0,0,1,9.43,10l.62-.62a3.45,3.45,0,0,0,.79-3.66A12.13,12.13,0,0,1,10.16,3,3.48,3.48,0,0,0,6.73,0H3.17A3.48,3.48,0,0,0,.81,1.25,3.41,3.41,0,0,0,0,3.81a22.52,22.52,0,0,0,3.49,9.85,22.29,22.29,0,0,0,6.84,6.83A22.62,22.62,0,0,0,20.2,24h.33A3.48,3.48,0,0,0,24,20.52v-3.2A3.48,3.48,0,0,0,21,13.81Z"/></svg>