<?xml version="1.0" encoding="utf-8"?>
<!-- Generator: Adobe Illustrator 24.3.0, SVG Export Plug-In . SVG Version: 6.00 Build 0)  -->
<svg version="1.1" id="Layer_1" xmlns="http://www.w3.org/2000/svg" xmlns:xlink="http://www.w3.org/1999/xlink" x="0px" y="0px"
	 viewBox="0 0 24 24" style="enable-background:new 0 0 24 24;" xml:space="preserve">
<style type="text/css">
	.st0{fill:#000033;}
</style>
<path class="st0" d="M19.5,13.5c-0.8-0.1-1.5-0.3-2.3-0.6c-1.1-0.4-2.3-0.1-3.1,0.7l-0.5,0.5c-1.5-1-2.8-2.3-3.8-3.8l0.5-0.5
	c0.8-0.8,1.1-2,0.7-3c-0.3-0.7-0.5-1.5-0.6-2.3C10.3,3.1,9.1,2,7.6,2h-3c-0.8,0.1-1.5,0.4-2,1C2.2,3.6,1.9,4.4,2,5.2
	c0.3,2.9,1.3,5.7,2.9,8.2c1.5,2.3,3.4,4.2,5.7,5.7c2.5,1.6,5.3,2.6,8.2,2.9h0.3c1.6,0,2.9-1.3,2.9-2.9v-2.7C22,15,21,13.7,19.5,13.5
	z"/>
</svg>
