<svg width="24" height="24" viewBox="0 0 24 24" fill="none" xmlns="http://www.w3.org/2000/svg">
<path d="M13.2188 12L18.9062 6.3125C19 6.21875 19 6.0625 18.9062 5.96875C18.3125 5.375 17.375 5.375 16.7812 5.96875L11.9688 10.7812L10.625 9.4375C10.8438 9 11 8.53125 11 8C11 6.34375 9.65625 5 8 5C6.3125 5 5 6.34375 5 8C5 9.6875 6.3125 11 8 11C8.5 11 8.96875 10.875 9.40625 10.6562L10.75 12L9.40625 13.375C8.96875 13.1562 8.5 13 8 13C6.3125 13 5 14.3438 5 16C5 17.6875 6.3125 19 8 19C9.65625 19 11 17.6875 11 16C11 15.5 10.8438 15.0312 10.625 14.5938L11.9688 13.25L16.7812 18.0625C17.375 18.6562 18.3125 18.6562 18.9062 18.0625C19 17.9688 19 17.8125 18.9062 17.7188L13.2188 12ZM8 9.5C7.15625 9.5 6.5 8.84375 6.5 8C6.5 7.1875 7.15625 6.5 8 6.5C8.8125 6.5 9.5 7.1875 9.5 8C9.5 8.84375 8.8125 9.5 8 9.5ZM8 17.5C7.15625 17.5 6.5 16.8438 6.5 16C6.5 15.1875 7.15625 14.5 8 14.5C8.8125 14.5 9.5 15.1875 9.5 16C9.5 16.8438 8.8125 17.5 8 17.5Z" fill="#333333"/>
</svg>
