<svg width="24" height="24" viewBox="0 0 24 24" fill="none" xmlns="http://www.w3.org/2000/svg">
<path d="M13.75 14.25C13.75 14.9688 14.2812 15.5 15 15.5C15.6875 15.5 16.25 14.9688 16.25 14.25C16.25 13.5625 15.6875 13 15 13C14.2812 13 13.75 13.5625 13.75 14.25ZM9 15.5C9.6875 15.5 10.25 14.9688 10.25 14.25C10.25 13.5625 9.6875 13 9 13C8.28125 13 7.75 13.5625 7.75 14.25C7.75 14.9688 8.28125 15.5 9 15.5ZM19 7.4375C19 5.4375 16.7812 4 14.6562 4H9.3125C7.21875 4 5 5.4375 5 7.4375V14.5938C5 16.125 6.34375 17.4062 8.09375 17.8438L6.25 19.6875C6.125 19.8125 6.21875 20 6.375 20H7.875C8 20 8.09375 19.9688 8.15625 19.9062L10.0312 18H13.9375L15.8125 19.9062C15.875 19.9688 15.9688 20 16.0938 20H17.5938C17.75 20 17.8438 19.8125 17.7188 19.6875L15.875 17.8438C17.625 17.4062 19 16.125 19 14.5938V7.4375ZM6.5625 7C6.90625 6.1875 8.09375 5.5 9.3125 5.5H14.6562C15.9062 5.5 17.0938 6.1875 17.4062 7H6.5625ZM6.5 11V8.5H11.25V11H6.5ZM17.5 12.5V14.5938C17.5 15.7188 15.8438 16.5 14.6562 16.5H9.3125C8.09375 16.5 6.5 15.7188 6.5 14.5938V12.5H17.5ZM17.5 8.5V11H12.75V8.5H17.5Z" fill="#333333"/>
</svg>
