<svg width="24" height="24" viewBox="0 0 24 24" fill="none" xmlns="http://www.w3.org/2000/svg">
<path d="M14.5 11C13.9375 11 13.5 11.4688 13.5 12C13.5 12.5625 13.9375 13 14.5 13C15.0312 13 15.5 12.5625 15.5 12C15.5 11.4688 15.0312 11 14.5 11ZM21.9375 14.5938L21.0938 8.9375C20.8438 7.3125 19.6562 6.03125 18.0938 5.6875C16.125 5.25 14.0625 5.03125 11.9688 5.03125C9.875 5.03125 7.84375 5.25 5.875 5.6875C4.3125 6.03125 3.125 7.3125 2.875 8.9375L2.03125 14.5938C1.6875 16.9062 3.4375 19 5.78125 19C7.28125 19 8.5625 18.1562 9.15625 16.9062L9.59375 16H14.375L14.8125 16.9062C15.4062 18.1562 16.6875 19 18.1875 19C20.5312 19 22.2812 16.9062 21.9375 14.5938ZM19.9062 16.7188C19.5 17.2188 18.875 17.5312 18.1875 17.5312C18.1875 17.5312 18.1875 17.5312 18.1875 17.5C17.3125 17.5 16.5312 17.0312 16.1562 16.2188L15.7188 15.3438L15.3125 14.5H8.65625L8.25 15.3438L7.8125 16.2188C7.4375 17.0312 6.65625 17.5 5.78125 17.5H5.75C5.09375 17.5 4.46875 17.2188 4.0625 16.7188C3.6875 16.3125 3.5 15.7812 3.5 15.1875C3.5 15.0625 3.5 14.9375 3.5 14.8125L4.375 9.15625C4.53125 8.15625 5.25 7.375 6.1875 7.15625C8.0625 6.75 10 6.53125 12 6.53125C14 6.53125 15.9062 6.75 17.7812 7.15625C18.7188 7.375 19.4375 8.15625 19.5938 9.15625L20.4688 14.8125C20.4688 14.9375 20.4688 15.0625 20.4688 15.1875C20.4688 15.7812 20.2812 16.3125 19.9062 16.7188ZM17.5 9C16.9375 9 16.5 9.46875 16.5 10C16.5 10.5625 16.9375 11 17.5 11C18.0312 11 18.5 10.5625 18.5 10C18.5 9.46875 18.0312 9 17.5 9ZM10.25 10.25H8.75V8.75C8.75 8.625 8.625 8.5 8.5 8.5H7.5C7.34375 8.5 7.25 8.625 7.25 8.75V10.25H5.75C5.59375 10.25 5.5 10.375 5.5 10.5V11.5C5.5 11.6562 5.59375 11.75 5.75 11.75H7.25V13.25C7.25 13.4062 7.34375 13.5 7.5 13.5H8.5C8.625 13.5 8.75 13.4062 8.75 13.25V11.75H10.25C10.375 11.75 10.5 11.6562 10.5 11.5V10.5C10.5 10.375 10.375 10.25 10.25 10.25Z" fill="#333333"/>
</svg>
