<svg id="Layer_1" data-name="Layer 1" xmlns="http://www.w3.org/2000/svg" viewBox="0 0 1000 300">
  <defs>
    <style>
      .cls-1 {
        fill: #1a0;
      }

      .cls-2 {
        fill: #60606d;
      }

      .cls-3 {
        fill: #003;
      }
    </style>
  </defs>
  <g>
    <path class="cls-1" d="M302.33,121.61h14.35v7.55H302.33Z"/>
    <path class="cls-1" d="M348.42,138.76H318.08l9.34-9.7a86.94,86.94,0,0,0,5.8-6.52,35,35,0,0,0,3.13-4.53,11.62,11.62,0,0,0,1.27-3,9.2,9.2,0,0,0,.26-2,5.2,5.2,0,0,0-.28-1.65,4.29,4.29,0,0,0-.82-1.42,4,4,0,0,0-3.16-1.38,3.93,3.93,0,0,0-3.12,1.3,4.79,4.79,0,0,0-1.12,3.25,10.68,10.68,0,0,0,.15,1.6h-10.7a16,16,0,0,1,1.07-6,13.65,13.65,0,0,1,3-4.65,13.41,13.41,0,0,1,4.63-3,15.92,15.92,0,0,1,5.87-1,16.63,16.63,0,0,1,5.83,1,14,14,0,0,1,4.63,2.8,13.06,13.06,0,0,1,4.15,9.65,12.58,12.58,0,0,1-1.33,5.73,19.91,19.91,0,0,1-4.23,5.37l-6.25,5.85h12.2Z"/>
    <path class="cls-1" d="M378.67,109.36H365.62l-.65,4.15,1.65-.17c.5,0,1-.08,1.55-.08a14,14,0,0,1,5.3,1,12.29,12.29,0,0,1,6.95,6.95,14,14,0,0,1,1,5.35,13,13,0,0,1-1.12,5.5,11.79,11.79,0,0,1-3.18,4.18,14.28,14.28,0,0,1-5,2.65,22,22,0,0,1-6.55.92,24.89,24.89,0,0,1-6.47-.82,20.83,20.83,0,0,1-5.78-2.53l1.45-9.2a20,20,0,0,0,5.11,3.28,12.43,12.43,0,0,0,4.94,1.12,6.71,6.71,0,0,0,4.75-1.62,5.27,5.27,0,0,0,1.75-4,5.35,5.35,0,0,0-2.35-4.52,10.12,10.12,0,0,0-6.15-1.73,17.18,17.18,0,0,0-3.5.38,17,17,0,0,0-3.55,1.17l3.15-20.25h19.75Z"/>
    <path class="cls-1" d="M386.57,109.71a9,9,0,0,1,.78-3.8,8,8,0,0,1,2.17-2.85,10.39,10.39,0,0,1,3.33-1.77,13.67,13.67,0,0,1,4.27-.63,11.54,11.54,0,0,1,4,.68,9.75,9.75,0,0,1,3.2,1.87,8.37,8.37,0,0,1,2.1,2.88,8.89,8.89,0,0,1,.75,3.67,9.3,9.3,0,0,1-.77,3.88,8.68,8.68,0,0,1-2.15,3,9.37,9.37,0,0,1-3.3,1.87,12.94,12.94,0,0,1-4.23.65,10.54,10.54,0,0,1-7.4-2.52A8.89,8.89,0,0,1,386.57,109.71Zm6.05.1a4.27,4.27,0,0,0,1.2,3,4,4,0,0,0,3.05,1.3,3.83,3.83,0,0,0,1.63-.35,4.39,4.39,0,0,0,2.27-2.27,3.83,3.83,0,0,0,.35-1.63,3.91,3.91,0,0,0-.35-1.67,4.18,4.18,0,0,0-.95-1.35,4.52,4.52,0,0,0-1.37-.9,4,4,0,0,0-1.58-.33,4.14,4.14,0,0,0-3,1.23A4,4,0,0,0,392.62,109.81Zm25.85-8.75h4.85l-21.85,37.7h-4.9Zm-5.7,28.75a8.83,8.83,0,0,1,.78-3.77,8.2,8.2,0,0,1,2.15-2.85,9.47,9.47,0,0,1,3.32-1.8,14,14,0,0,1,4.3-.63,11.87,11.87,0,0,1,4.1.68,9.2,9.2,0,0,1,3.18,1.9,8.8,8.8,0,0,1,2.82,6.52,9.52,9.52,0,0,1-.75,3.83,8.34,8.34,0,0,1-2.12,2.95,9.75,9.75,0,0,1-3.3,1.9,12.86,12.86,0,0,1-4.28.67,12.5,12.5,0,0,1-4.17-.65,9.15,9.15,0,0,1-3.23-1.87,8.16,8.16,0,0,1-2.07-3A10.11,10.11,0,0,1,412.77,129.81Zm6.1.1A4.18,4.18,0,0,0,420.1,133a4.26,4.26,0,0,0,7.27-3,3.88,3.88,0,0,0-.35-1.67,4.18,4.18,0,0,0-.95-1.35,4.35,4.35,0,0,0-1.37-.9,4,4,0,0,0-1.58-.33,4.24,4.24,0,0,0-2.95,1.2A3.94,3.94,0,0,0,418.87,129.91Z"/>
  </g>
  <g>
    <path class="cls-1" d="M294.22,167.93h6.09a7.28,7.28,0,0,1,3,.65,8.32,8.32,0,0,1,2.48,1.73,8.21,8.21,0,0,1,1.67,2.52,7.79,7.79,0,0,1,.6,3,7.89,7.89,0,0,1-.59,3,8.05,8.05,0,0,1-4.14,4.27,7.15,7.15,0,0,1-3.06.65h-6.09Zm4.12,12.35h1a5,5,0,0,0,1.91-.34,4,4,0,0,0,1.41-.92,4.08,4.08,0,0,0,.89-1.4,5.06,5.06,0,0,0,.3-1.77,4.92,4.92,0,0,0-.32-1.77,4,4,0,0,0-.89-1.4,3.9,3.9,0,0,0-1.42-.93,5.12,5.12,0,0,0-1.88-.33h-1Z"/>
    <path class="cls-1" d="M310.37,173h3.8v1.76a4.57,4.57,0,0,1,1.49-1.48,4.06,4.06,0,0,1,2.06-.51h.33a2.17,2.17,0,0,1,.41,0v3.63a3.65,3.65,0,0,0-1.64-.37,2.48,2.48,0,0,0-2,.78,3.5,3.5,0,0,0-.66,2.3v4.62h-3.8Z"/>
    <path class="cls-1" d="M328.6,173h3.82v10.77H328.6v-1.19a4,4,0,0,1-3.3,1.53,5.31,5.31,0,0,1-2.16-.43,5.21,5.21,0,0,1-1.72-1.21,5.74,5.74,0,0,1-1.15-1.83,6.28,6.28,0,0,1-.41-2.28,6.22,6.22,0,0,1,.4-2.2,5.73,5.73,0,0,1,1.12-1.82,5.24,5.24,0,0,1,1.7-1.22,5,5,0,0,1,2.18-.46,4.37,4.37,0,0,1,3.34,1.41Zm-4.79,5.36a2.58,2.58,0,0,0,.19,1,2.64,2.64,0,0,0,.52.79,2.18,2.18,0,0,0,.77.52,2.45,2.45,0,0,0,1,.19,2.34,2.34,0,0,0,1-.19,2.22,2.22,0,0,0,.78-.52,2.83,2.83,0,0,0,.53-.78,2.3,2.3,0,0,0,.2-.94,2.39,2.39,0,0,0-.2-1,2.88,2.88,0,0,0-.53-.79,2.37,2.37,0,0,0-.78-.52,2.34,2.34,0,0,0-1-.19,2.45,2.45,0,0,0-1,.19,2.33,2.33,0,0,0-.77.52,2.68,2.68,0,0,0-.52.77A2.43,2.43,0,0,0,323.81,178.35Z"/>
    <path class="cls-1" d="M339.12,176.16v7.6h-3.8v-7.6H334V173h1.36v-1.62a7.29,7.29,0,0,1,.25-2.14,4,4,0,0,1,.67-1.25,5,5,0,0,1,1.09-1,5.3,5.3,0,0,1,1.33-.65,4.62,4.62,0,0,1,1.41-.23,3.56,3.56,0,0,1,.89.11,5.87,5.87,0,0,1,.83.29v3.32a3.59,3.59,0,0,0-.71-.28,2.15,2.15,0,0,0-.68-.1,2,2,0,0,0-.47.07,1.08,1.08,0,0,0-.45.31,1.26,1.26,0,0,0-.29.66,7.3,7.3,0,0,0-.07,1.17V173h2.67v3.17Z"/>
    <path class="cls-1" d="M348,176.16v7.6h-3.8v-7.6H343V173h1.26v-3.23H348V173h2.17v3.17Z"/>
    <path class="cls-1" d="M351.66,168.85a2.12,2.12,0,0,1,.16-.83,2.3,2.3,0,0,1,.47-.68,2.15,2.15,0,0,1,.68-.46,2.09,2.09,0,0,1,.83-.17,2.12,2.12,0,0,1,.83.17,2.15,2.15,0,0,1,.68.46,2.1,2.1,0,0,1,.46.68,2.12,2.12,0,0,1,.17.83,2.09,2.09,0,0,1-.17.83,2.14,2.14,0,0,1-.46.69,2.33,2.33,0,0,1-.68.46,2.12,2.12,0,0,1-.83.17,2.09,2.09,0,0,1-.83-.17,2.2,2.2,0,0,1-1.15-1.15A2.08,2.08,0,0,1,351.66,168.85Zm4,4.14v10.77h-3.8V173Z"/>
    <path class="cls-1" d="M358.31,173h3.81v1.37a4.07,4.07,0,0,1,1.57-1.28,5,5,0,0,1,1.87-.32,4.6,4.6,0,0,1,1.94.37,3.82,3.82,0,0,1,1.38,1,3.19,3.19,0,0,1,.63,1.21,6.51,6.51,0,0,1,.16,1.54v6.84h-3.8v-5.44a6.38,6.38,0,0,0-.11-1.29,1.62,1.62,0,0,0-.41-.78,1.45,1.45,0,0,0-.57-.36,2.09,2.09,0,0,0-.67-.11,1.9,1.9,0,0,0-1.48.58,2.41,2.41,0,0,0-.51,1.65v5.75h-3.81Z"/>
    <path class="cls-1" d="M384.31,173v10a11.11,11.11,0,0,1-.1,1.61,6.78,6.78,0,0,1-.3,1.27,4,4,0,0,1-.79,1.29,5.16,5.16,0,0,1-1.29,1,7,7,0,0,1-1.71.69,8.73,8.73,0,0,1-4.38-.06,6,6,0,0,1-1.83-.88,4.83,4.83,0,0,1-1.29-1.3,4.19,4.19,0,0,1-.68-1.63h4.29a1.69,1.69,0,0,0,1.8,1.08,2.42,2.42,0,0,0,1.84-.68,2.56,2.56,0,0,0,.64-1.86v-1a7.36,7.36,0,0,1-.81.66,4.7,4.7,0,0,1-.79.43,3.72,3.72,0,0,1-.84.24,5.69,5.69,0,0,1-1,.07,5.41,5.41,0,0,1-2.12-.4,4.87,4.87,0,0,1-2.76-2.82,6.05,6.05,0,0,1-.39-2.22,6.23,6.23,0,0,1,.42-2.3,6,6,0,0,1,1.14-1.84,5.19,5.19,0,0,1,1.72-1.24,5.25,5.25,0,0,1,2.18-.45,4.18,4.18,0,0,1,3.21,1.42V173Zm-8.52,5.33a2.44,2.44,0,0,0,.7,1.77,2.22,2.22,0,0,0,.78.52,2.55,2.55,0,0,0,1.93,0,2.18,2.18,0,0,0,.77-.52,2.67,2.67,0,0,0,.53-.79,2.4,2.4,0,0,0,0-1.92,2.48,2.48,0,0,0-.54-.78,2.32,2.32,0,0,0-.78-.52,2.36,2.36,0,0,0-.94-.19,2.3,2.3,0,0,0-.94.2,2.54,2.54,0,0,0-1.32,1.29A2.29,2.29,0,0,0,375.79,178.32Z"/>
    <path class="cls-1" d="M400.4,171.42v12.34h-4.12V171.42H392.9v-3.49h10.88v3.49Z"/>
    <path class="cls-1" d="M405.31,168.85a2.12,2.12,0,0,1,.17-.83,2.27,2.27,0,0,1,.46-.68,2.4,2.4,0,0,1,.68-.46,2.12,2.12,0,0,1,.83-.17,2.09,2.09,0,0,1,.83.17,2.15,2.15,0,0,1,.68.46,2.3,2.3,0,0,1,.47.68,2.12,2.12,0,0,1,.17.83,2.09,2.09,0,0,1-.17.83,2.2,2.2,0,0,1-1.15,1.15,2.09,2.09,0,0,1-.83.17,2.12,2.12,0,0,1-.83-.17,2.63,2.63,0,0,1-.68-.46,2.31,2.31,0,0,1-.46-.69A2.09,2.09,0,0,1,405.31,168.85Zm4.05,4.14v10.77h-3.8V173Z"/>
    <path class="cls-1" d="M412,173h3.8v1.32a4.92,4.92,0,0,1,3.48-1.49,4.05,4.05,0,0,1,3.66,2,4.07,4.07,0,0,1,3.65-2A4.76,4.76,0,0,1,428,173a3.09,3.09,0,0,1,1.16.69,3.43,3.43,0,0,1,.76,1.23,5.24,5.24,0,0,1,.29,1.83v7h-3.81v-5.31a6.22,6.22,0,0,0-.11-1.34,2.09,2.09,0,0,0-.34-.82,1.07,1.07,0,0,0-.51-.4,1.9,1.9,0,0,0-.63-.11q-1.83,0-1.83,2.67v5.31h-3.8v-5.31a7.15,7.15,0,0,0-.1-1.35,2.53,2.53,0,0,0-.31-.85,1,1,0,0,0-.51-.44,2.35,2.35,0,0,0-.74-.11,2.09,2.09,0,0,0-.67.1,1.29,1.29,0,0,0-.56.41,2.34,2.34,0,0,0-.37.84,5.44,5.44,0,0,0-.14,1.4v5.31H412Z"/>
    <path class="cls-1" d="M436.22,179c0,1.64.77,2.45,2.31,2.45a2.06,2.06,0,0,0,1.87-1h3.68c-.75,2.46-2.6,3.69-5.57,3.69a7.17,7.17,0,0,1-2.5-.41,5.64,5.64,0,0,1-1.94-1.16,5.34,5.34,0,0,1-1.25-1.81,6.08,6.08,0,0,1-.44-2.35,6.66,6.66,0,0,1,.42-2.43,5,5,0,0,1,1.2-1.83,5.08,5.08,0,0,1,1.88-1.17,7.14,7.14,0,0,1,2.49-.41,7,7,0,0,1,2.45.41,4.88,4.88,0,0,1,1.85,1.19,5.13,5.13,0,0,1,1.15,1.9,7.42,7.42,0,0,1,.4,2.53v.4Zm4.45-2.21a2.25,2.25,0,0,0-.77-1.28,2.19,2.19,0,0,0-1.43-.48,2.16,2.16,0,0,0-1.44.46,2.1,2.1,0,0,0-.7,1.3Z"/>
  </g>
  <g>
    <path class="cls-2" d="M284.86,201.93v15.83h-2.39V201.93Z"/>
    <path class="cls-2" d="M288.22,207.78h2.32v.92a3.8,3.8,0,0,1,2.73-1.2,3.46,3.46,0,0,1,2.72,1.1,4.47,4.47,0,0,1,.84,3v6.12h-2.32v-5.57a3.72,3.72,0,0,0-.41-2.05,1.67,1.67,0,0,0-1.46-.57,1.78,1.78,0,0,0-1.63.76,5.27,5.27,0,0,0-.47,2.61v4.82h-2.32Z"/>
    <path class="cls-2" d="M307.51,208.21v3.06A5.67,5.67,0,0,0,306.1,210a2.74,2.74,0,0,0-1.45-.37,2.83,2.83,0,0,0-2.16.91,3.18,3.18,0,0,0-.86,2.29,3.24,3.24,0,0,0,.83,2.31,2.79,2.79,0,0,0,2.14.9,3,3,0,0,0,1.47-.36,5.67,5.67,0,0,0,1.44-1.35v3a6,6,0,0,1-2.81.73,5.37,5.37,0,0,1-3.87-1.5,5.28,5.28,0,0,1,0-7.51,5.31,5.31,0,0,1,3.87-1.54A5.68,5.68,0,0,1,307.51,208.21Z"/>
    <path class="cls-2" d="M309.75,207.78h2.3v.89a4.26,4.26,0,0,1,1.13-.91,2.49,2.49,0,0,1,1.19-.26,3.78,3.78,0,0,1,1.91.59l-1.06,2.12a2.15,2.15,0,0,0-1.28-.48q-1.89,0-1.89,2.85v5.18h-2.3Z"/>
    <path class="cls-2" d="M326.55,213.31H319.4a3,3,0,0,0,.8,2,2.66,2.66,0,0,0,3.24.31,5.92,5.92,0,0,0,1.26-1.52l1.95,1.09a8.33,8.33,0,0,1-1,1.32,5.28,5.28,0,0,1-1.07.9,4.59,4.59,0,0,1-1.25.52,5.94,5.94,0,0,1-1.44.16,4.72,4.72,0,0,1-3.59-1.43,5.42,5.42,0,0,1-1.35-3.84A5.48,5.48,0,0,1,318.3,209a5,5,0,0,1,7,0,5.52,5.52,0,0,1,1.27,3.87Zm-2.37-1.88a2.21,2.21,0,0,0-2.32-1.85,2.26,2.26,0,0,0-.79.13,2.09,2.09,0,0,0-.67.37,2.06,2.06,0,0,0-.52.58,2.33,2.33,0,0,0-.33.77Z"/>
    <path class="cls-2" d="M336.44,207.78h2.31v10h-2.31v-1a4.43,4.43,0,0,1-6.49-.17,5.53,5.53,0,0,1-1.35-3.81A5.35,5.35,0,0,1,330,209a4.33,4.33,0,0,1,6.49-.07Zm-5.48,5a3.51,3.51,0,0,0,.77,2.34,2.52,2.52,0,0,0,2,.91,2.62,2.62,0,0,0,2.07-.88,3.8,3.8,0,0,0,0-4.64,2.61,2.61,0,0,0-2.05-.89,2.57,2.57,0,0,0-2,.9A3.36,3.36,0,0,0,331,212.74Z"/>
    <path class="cls-2" d="M347.47,209.48l-1.91,1c-.3-.61-.67-.92-1.11-.92a.77.77,0,0,0-.55.21.7.7,0,0,0-.22.54c0,.38.44.76,1.33,1.14a7.91,7.91,0,0,1,2.47,1.45,2.49,2.49,0,0,1,.64,1.8,3.16,3.16,0,0,1-1.07,2.42A3.83,3.83,0,0,1,341,215.6l2-.91a4.25,4.25,0,0,0,.62.91,1.45,1.45,0,0,0,1,.39c.78,0,1.17-.36,1.17-1.07,0-.41-.3-.79-.9-1.15l-.7-.33-.71-.34a4.26,4.26,0,0,1-1.41-1,2.4,2.4,0,0,1-.53-1.61,2.83,2.83,0,0,1,.9-2.15,3.09,3.09,0,0,1,2.21-.85A3,3,0,0,1,347.47,209.48Z"/>
    <path class="cls-2" d="M359.28,213.31h-7.15a3,3,0,0,0,.8,2,2.66,2.66,0,0,0,3.24.31,5.72,5.72,0,0,0,1.26-1.52l1.95,1.09a7.75,7.75,0,0,1-1,1.32,5.28,5.28,0,0,1-1.07.9,4.59,4.59,0,0,1-1.25.52,5.94,5.94,0,0,1-1.44.16,4.72,4.72,0,0,1-3.59-1.43,5.42,5.42,0,0,1-1.35-3.84A5.48,5.48,0,0,1,351,209a5,5,0,0,1,7,0,5.52,5.52,0,0,1,1.27,3.87Zm-2.36-1.88a2.22,2.22,0,0,0-2.33-1.85,2.26,2.26,0,0,0-.79.13,2.09,2.09,0,0,0-.67.37,2.06,2.06,0,0,0-.52.58,2.56,2.56,0,0,0-.33.77Z"/>
    <path class="cls-2" d="M377.38,213.31h-7.16a3.08,3.08,0,0,0,.8,2,2.46,2.46,0,0,0,1.82.72,2.36,2.36,0,0,0,1.42-.41,5.91,5.91,0,0,0,1.27-1.52l1.94,1.09a7.73,7.73,0,0,1-1,1.32,5.07,5.07,0,0,1-1.08.9,4.4,4.4,0,0,1-1.24.52,5.94,5.94,0,0,1-1.44.16,4.72,4.72,0,0,1-3.59-1.43,5.43,5.43,0,0,1-1.36-3.84,5.49,5.49,0,0,1,1.32-3.83,5,5,0,0,1,7,0,5.52,5.52,0,0,1,1.27,3.87ZM375,211.43a2.21,2.21,0,0,0-2.32-1.85,2.36,2.36,0,0,0-1.47.5,2.2,2.2,0,0,0-.51.58,2.33,2.33,0,0,0-.33.77Z"/>
    <path class="cls-2" d="M382.29,209.93v7.83H380v-7.83h-.82v-2.15H380v-3.86a4.18,4.18,0,0,1,.65-2.67,3.23,3.23,0,0,1,2.63-1.08,4.55,4.55,0,0,1,1.55.36v2.35l-.24-.12a3,3,0,0,0-1.23-.38.84.84,0,0,0-.83.44,4.3,4.3,0,0,0-.22,1.66v3.3h2.52v2.15Z"/>
    <path class="cls-2" d="M389.22,209.93v7.83h-2.31v-7.83h-.82v-2.15h.82v-3.86a4.24,4.24,0,0,1,.65-2.67,3.25,3.25,0,0,1,2.63-1.08,4.5,4.5,0,0,1,1.55.36v2.35l-.24-.12a3,3,0,0,0-1.23-.38.84.84,0,0,0-.83.44,4.3,4.3,0,0,0-.22,1.66v3.3h2.52v2.15Z"/>
    <path class="cls-2" d="M393.16,203.62a1.51,1.51,0,0,1,3,0,1.46,1.46,0,0,1-.44,1.07,1.44,1.44,0,0,1-1.06.44,1.5,1.5,0,0,1-1.51-1.52Zm2.66,4.16v10h-2.31v-10Z"/>
    <path class="cls-2" d="M406.51,208.21v3.06A5.67,5.67,0,0,0,405.1,210a2.72,2.72,0,0,0-1.45-.37,2.83,2.83,0,0,0-2.16.91,3.18,3.18,0,0,0-.86,2.29,3.24,3.24,0,0,0,.83,2.31,2.79,2.79,0,0,0,2.14.9,3,3,0,0,0,1.47-.36,5.67,5.67,0,0,0,1.44-1.35v3a6,6,0,0,1-2.81.73,5.37,5.37,0,0,1-3.87-1.5,5.28,5.28,0,0,1,0-7.51,5.31,5.31,0,0,1,3.87-1.54A5.68,5.68,0,0,1,406.51,208.21Z"/>
    <path class="cls-2" d="M408.4,203.62a1.5,1.5,0,0,1,2.56-1,1.38,1.38,0,0,1,.44,1,1.5,1.5,0,0,1-1.49,1.51,1.5,1.5,0,0,1-1.51-1.52Zm2.66,4.16v10h-2.31v-10Z"/>
    <path class="cls-2" d="M423.07,213.31h-7.15a3,3,0,0,0,.8,2,2.66,2.66,0,0,0,3.24.31,5.72,5.72,0,0,0,1.26-1.52l1.95,1.09a8.33,8.33,0,0,1-1,1.32,5.07,5.07,0,0,1-1.08.9,4.4,4.4,0,0,1-1.24.52,5.94,5.94,0,0,1-1.44.16,4.72,4.72,0,0,1-3.59-1.43,5.42,5.42,0,0,1-1.35-3.84,5.48,5.48,0,0,1,1.31-3.83,5,5,0,0,1,7,0,5.52,5.52,0,0,1,1.27,3.87Zm-2.37-1.88a2.21,2.21,0,0,0-2.32-1.85,2.26,2.26,0,0,0-.79.13,2.09,2.09,0,0,0-.67.37,2.06,2.06,0,0,0-.52.58,2.33,2.33,0,0,0-.33.77Z"/>
    <path class="cls-2" d="M425.6,207.78h2.31v.92a3.8,3.8,0,0,1,2.73-1.2,3.46,3.46,0,0,1,2.72,1.1,4.47,4.47,0,0,1,.84,3v6.12h-2.32v-5.57a3.72,3.72,0,0,0-.41-2.05,1.67,1.67,0,0,0-1.46-.57,1.79,1.79,0,0,0-1.63.76,5.27,5.27,0,0,0-.47,2.61v4.82H425.6Z"/>
    <path class="cls-2" d="M444.88,208.21v3.06a5.67,5.67,0,0,0-1.41-1.32,2.72,2.72,0,0,0-1.45-.37,2.83,2.83,0,0,0-2.16.91,3.18,3.18,0,0,0-.86,2.29,3.24,3.24,0,0,0,.83,2.31,2.79,2.79,0,0,0,2.14.9,3,3,0,0,0,1.47-.36,5.67,5.67,0,0,0,1.44-1.35v3a6,6,0,0,1-2.81.73,5.37,5.37,0,0,1-3.87-1.5,5,5,0,0,1-1.56-3.74,5.06,5.06,0,0,1,1.58-3.77,5.31,5.31,0,0,1,3.87-1.54A5.68,5.68,0,0,1,444.88,208.21Z"/>
    <path class="cls-2" d="M450.27,215.91l-4.49-8.13h2.67l3.06,5.74,2.85-5.74H457l-8,15.42h-2.63Z"/>
    <path class="cls-2" d="M291.45,235.13V243h-2.32v-7.83h-.82V233h.82v-3.86a4.12,4.12,0,0,1,.66-2.66,3.19,3.19,0,0,1,2.62-1.09,4.5,4.5,0,0,1,1.55.36v2.35l-.24-.12a2.87,2.87,0,0,0-1.23-.38.85.85,0,0,0-.83.44,4.35,4.35,0,0,0-.21,1.66V233H294v2.15Z"/>
    <path class="cls-2" d="M295.29,233h2.31v.89a4.1,4.1,0,0,1,1.13-.91,2.58,2.58,0,0,1,1.19-.26,3.8,3.8,0,0,1,1.91.59l-1.06,2.12a2.2,2.2,0,0,0-1.28-.48c-1.26,0-1.89.95-1.89,2.86V243h-2.31Z"/>
    <path class="cls-2" d="M302.49,237.9a5,5,0,0,1,1.55-3.68,5.46,5.46,0,0,1,7.57,0,5.11,5.11,0,0,1,1.54,3.75,5.05,5.05,0,0,1-1.55,3.76,5.29,5.29,0,0,1-3.83,1.51,5.06,5.06,0,0,1-3.76-1.54A5.17,5.17,0,0,1,302.49,237.9Zm2.36,0a3.38,3.38,0,0,0,.8,2.37,3.12,3.12,0,0,0,4.33,0,3.76,3.76,0,0,0,0-4.66,2.82,2.82,0,0,0-2.17-.88,2.78,2.78,0,0,0-2.14.88A3.21,3.21,0,0,0,304.85,237.94Z"/>
    <path class="cls-2" d="M315.59,233h2.3v.92A4.76,4.76,0,0,1,319,233a2.8,2.8,0,0,1,1.26-.26,3.06,3.06,0,0,1,2.68,1.48,3.44,3.44,0,0,1,2.94-1.48q3.38,0,3.38,4.09V243H327v-5.54a4.28,4.28,0,0,0-.35-2,1.25,1.25,0,0,0-1.18-.61,1.5,1.5,0,0,0-1.39.72,4.65,4.65,0,0,0-.43,2.31V243H321.3v-5.51c0-1.78-.51-2.67-1.54-2.67a1.54,1.54,0,0,0-1.42.73,4.5,4.5,0,0,0-.45,2.3V243h-2.3Z"/>
    <path class="cls-2" d="M346.45,233.41v3.06a5.85,5.85,0,0,0-1.41-1.32,2.77,2.77,0,0,0-1.45-.37,2.83,2.83,0,0,0-2.16.91,3.19,3.19,0,0,0-.87,2.29,3.25,3.25,0,0,0,.84,2.31,2.79,2.79,0,0,0,2.14.9,2.9,2.9,0,0,0,1.46-.36,5.52,5.52,0,0,0,1.45-1.35v3a6,6,0,0,1-2.81.73,5.39,5.39,0,0,1-3.88-1.5,5.29,5.29,0,0,1,0-7.51,5.31,5.31,0,0,1,3.87-1.54A5.79,5.79,0,0,1,346.45,233.41Z"/>
    <path class="cls-2" d="M351,225.64V243h-2.3V225.64Z"/>
    <path class="cls-2" d="M353.57,228.82a1.5,1.5,0,0,1,1.49-1.48,1.5,1.5,0,0,1,1.51,1.49,1.46,1.46,0,0,1-.44,1.07,1.44,1.44,0,0,1-1.06.44,1.46,1.46,0,0,1-1.06-.44A1.43,1.43,0,0,1,353.57,228.82Zm2.65,4.16v10h-2.3V233Z"/>
    <path class="cls-2" d="M368.24,238.51h-7.16a3,3,0,0,0,.8,2,2.44,2.44,0,0,0,1.82.72,2.36,2.36,0,0,0,1.42-.41,5.72,5.72,0,0,0,1.26-1.52l1.95,1.09a8.31,8.31,0,0,1-.95,1.32,5.61,5.61,0,0,1-1.08.9,4.4,4.4,0,0,1-1.24.52,6,6,0,0,1-1.44.16,4.68,4.68,0,0,1-3.59-1.44,5.34,5.34,0,0,1-1.36-3.83,5.53,5.53,0,0,1,1.32-3.84,5,5,0,0,1,7,0,5.52,5.52,0,0,1,1.27,3.87Zm-2.37-1.88a2.22,2.22,0,0,0-2.33-1.85,2.3,2.3,0,0,0-.79.13,2.2,2.2,0,0,0-.67.37,2.42,2.42,0,0,0-.52.58,2.55,2.55,0,0,0-.32.77Z"/>
    <path class="cls-2" d="M370.76,233h2.32v.92a3.8,3.8,0,0,1,2.73-1.2,3.39,3.39,0,0,1,2.71,1.1,4.47,4.47,0,0,1,.85,3V243h-2.32v-5.58a3.71,3.71,0,0,0-.41-2,1.67,1.67,0,0,0-1.46-.57,1.78,1.78,0,0,0-1.63.76,5.27,5.27,0,0,0-.47,2.61V243h-2.32Z"/>
    <path class="cls-2" d="M384.66,235.13V243h-2.31v-7.83h-1V233h1v-3.66h2.31V233h1.79v2.15Z"/>
    <path class="cls-2" d="M394.15,228.82a1.5,1.5,0,0,1,1.5-1.48,1.52,1.52,0,0,1,1.51,1.49,1.44,1.44,0,0,1-.45,1.07,1.4,1.4,0,0,1-1,.44,1.5,1.5,0,0,1-1.51-1.52Zm2.66,4.16v10H394.5V233Z"/>
    <path class="cls-2" d="M399.73,233h2.32v.92a3.76,3.76,0,0,1,2.72-1.2,3.41,3.41,0,0,1,2.72,1.1,4.47,4.47,0,0,1,.84,3V243H406v-5.58a3.71,3.71,0,0,0-.41-2,1.68,1.68,0,0,0-1.46-.57,1.77,1.77,0,0,0-1.63.76,5.16,5.16,0,0,0-.47,2.61V243h-2.32Z"/>
    <path class="cls-2" d="M413.62,235.13V243h-2.3v-7.83h-1V233h1v-3.66h2.3V233h1.8v2.15Z"/>
    <path class="cls-2" d="M424.53,233h2.32v10h-2.32v-1a4.43,4.43,0,0,1-6.49-.17,5.59,5.59,0,0,1-1.34-3.81A5.39,5.39,0,0,1,418,234.2a4.34,4.34,0,0,1,3.37-1.5,4.25,4.25,0,0,1,3.12,1.43Zm-5.47,5a3.44,3.44,0,0,0,.77,2.34,2.53,2.53,0,0,0,2,.91,2.65,2.65,0,0,0,2.07-.88,3.8,3.8,0,0,0,0-4.64,2.63,2.63,0,0,0-2.05-.89,2.54,2.54,0,0,0-2,.9A3.31,3.31,0,0,0,419.06,237.94Z"/>
    <path class="cls-2" d="M432.07,225.64v10.57l3.25-3.23h3.1l-4.34,4.19,4.65,5.79h-3l-3.3-4.21-.37.37V243h-2.31V225.64Z"/>
    <path class="cls-2" d="M449,238.51h-7.16a3,3,0,0,0,.8,2,2.44,2.44,0,0,0,1.82.72,2.36,2.36,0,0,0,1.42-.41,5.72,5.72,0,0,0,1.26-1.52l1.95,1.09a8.31,8.31,0,0,1-.95,1.32,5.61,5.61,0,0,1-1.08.9,4.53,4.53,0,0,1-1.24.52,6,6,0,0,1-1.45.16,4.67,4.67,0,0,1-3.58-1.44,5.34,5.34,0,0,1-1.36-3.83,5.57,5.57,0,0,1,1.31-3.84,5,5,0,0,1,7,0A5.52,5.52,0,0,1,449,238Zm-2.37-1.88a2.22,2.22,0,0,0-2.33-1.85,2.3,2.3,0,0,0-.79.13,2.2,2.2,0,0,0-.67.37,2.42,2.42,0,0,0-.52.58,2.55,2.55,0,0,0-.32.77Z"/>
    <path class="cls-2" d="M290.8,260.33v7.83h-2.3v-7.83h-1v-2.15h1v-3.66h2.3v3.66h1.8v2.15Z"/>
    <path class="cls-2" d="M293.84,263.1a4.93,4.93,0,0,1,1.55-3.68,5.45,5.45,0,0,1,7.56,0,5.07,5.07,0,0,1,1.54,3.75,5,5,0,0,1-1.55,3.76,5.27,5.27,0,0,1-3.82,1.51,5,5,0,0,1-3.76-1.54A5.13,5.13,0,0,1,293.84,263.1Zm2.36,0a3.34,3.34,0,0,0,.8,2.37,3.1,3.1,0,0,0,4.32,0,3.76,3.76,0,0,0,0-4.66,2.83,2.83,0,0,0-2.16-.88,2.8,2.8,0,0,0-2.14.88A3.21,3.21,0,0,0,296.2,263.14Z"/>
    <path class="cls-2" d="M319.22,259.88l-1.91,1c-.3-.61-.67-.92-1.12-.92a.76.76,0,0,0-.54.21.71.71,0,0,0-.23.54c0,.38.45.76,1.33,1.14a8,8,0,0,1,2.48,1.45,2.53,2.53,0,0,1,.63,1.8,3.15,3.15,0,0,1-1.06,2.42,3.67,3.67,0,0,1-2.51.92,3.62,3.62,0,0,1-3.55-2.45l2-.91a4.57,4.57,0,0,0,.63.91,1.43,1.43,0,0,0,1,.39c.78,0,1.17-.35,1.17-1.07q0-.61-.9-1.14l-.7-.34-.7-.34a4.32,4.32,0,0,1-1.42-1,2.4,2.4,0,0,1-.52-1.61,2.87,2.87,0,0,1,.89-2.15,3.13,3.13,0,0,1,2.22-.85A3,3,0,0,1,319.22,259.88Z"/>
    <path class="cls-2" d="M324.24,258.18v5.73c0,1.65.65,2.48,2,2.48s2-.83,2-2.48v-5.73h2.3V264a6.38,6.38,0,0,1-.29,2.07,3.53,3.53,0,0,1-1,1.41,4.4,4.4,0,0,1-3,1,4.35,4.35,0,0,1-3-1,3.59,3.59,0,0,1-1-1.41,5.69,5.69,0,0,1-.29-2.07v-5.78Z"/>
    <path class="cls-2" d="M333.38,258.18h2.3v.89a4.26,4.26,0,0,1,1.13-.91,2.49,2.49,0,0,1,1.19-.26,3.78,3.78,0,0,1,1.91.59l-1.06,2.12a2.15,2.15,0,0,0-1.28-.48c-1.26,0-1.89,1-1.89,2.86v5.17h-2.3Z"/>
    <path class="cls-2" d="M343.37,258.18l2.59,5.61,2.57-5.61h2.6l-5.19,10.67-5.15-10.67Z"/>
    <path class="cls-2" d="M361.42,263.71h-7.16a3.08,3.08,0,0,0,.8,2,2.46,2.46,0,0,0,1.82.72,2.36,2.36,0,0,0,1.42-.41,5.91,5.91,0,0,0,1.27-1.52l1.94,1.09a8.31,8.31,0,0,1-.95,1.32,5.33,5.33,0,0,1-1.08.9,4.4,4.4,0,0,1-1.24.52,5.94,5.94,0,0,1-1.44.16,4.72,4.72,0,0,1-3.59-1.43,5.43,5.43,0,0,1-1.36-3.84,5.49,5.49,0,0,1,1.32-3.83,5,5,0,0,1,7-.05,5.52,5.52,0,0,1,1.27,3.87Zm-2.37-1.88a2.39,2.39,0,0,0-3.11-1.72,2.36,2.36,0,0,0-.68.37,2.2,2.2,0,0,0-.51.58,2.33,2.33,0,0,0-.33.77Z"/>
    <path class="cls-2" d="M366.73,266.31l-4.49-8.13h2.68l3.05,5.74,2.85-5.74h2.61l-8,15.42h-2.63Z"/>
    <path class="cls-2" d="M383.87,260.33v7.83h-2.32v-7.83h-.82v-2.15h.82v-3.86a4.17,4.17,0,0,1,.66-2.67,3.21,3.21,0,0,1,2.62-1.08,4.5,4.5,0,0,1,1.55.36v2.36l-.24-.13a3,3,0,0,0-1.23-.38.85.85,0,0,0-.83.44,4.35,4.35,0,0,0-.21,1.66v3.3h2.51v2.15Z"/>
    <path class="cls-2" d="M387.8,254a1.52,1.52,0,0,1,1.5-1.48,1.5,1.5,0,0,1,1.51,1.49,1.46,1.46,0,0,1-.44,1.07A1.51,1.51,0,0,1,387.8,254Zm2.66,4.16v10h-2.31v-10Z"/>
    <path class="cls-2" d="M402.48,263.71h-7.16a3,3,0,0,0,.8,2,2.44,2.44,0,0,0,1.82.72,2.38,2.38,0,0,0,1.42-.41,5.72,5.72,0,0,0,1.26-1.52l1.95,1.09a8.31,8.31,0,0,1-.95,1.32,5.61,5.61,0,0,1-1.08.9,4.53,4.53,0,0,1-1.24.52,6.08,6.08,0,0,1-1.45.16,4.74,4.74,0,0,1-3.59-1.43,5.42,5.42,0,0,1-1.35-3.84,5.53,5.53,0,0,1,1.31-3.83,5,5,0,0,1,7-.05,5.57,5.57,0,0,1,1.27,3.87Zm-2.37-1.88a2.22,2.22,0,0,0-2.33-1.85,2.3,2.3,0,0,0-.79.13,2.31,2.31,0,0,0-1.19.95,2.84,2.84,0,0,0-.33.77Z"/>
    <path class="cls-2" d="M407.31,250.85v17.31H405V250.85Z"/>
    <path class="cls-2" d="M417.59,250.85h2.32v17.31h-2.32v-1a4.3,4.3,0,0,1-3.08,1.33,4.39,4.39,0,0,1-3.41-1.5,5.57,5.57,0,0,1-1.34-3.81,5.39,5.39,0,0,1,1.34-3.73,4.31,4.31,0,0,1,6.49-.07Zm-5.47,12.29a3.44,3.44,0,0,0,.77,2.34,2.5,2.5,0,0,0,2,.91,2.65,2.65,0,0,0,2.07-.88,3.8,3.8,0,0,0,0-4.64,2.63,2.63,0,0,0-2.05-.89,2.54,2.54,0,0,0-2,.9A3.31,3.31,0,0,0,412.12,263.14Z"/>
    <path class="cls-2" d="M422.47,254a1.51,1.51,0,0,1,3,0,1.46,1.46,0,0,1-.44,1.07,1.44,1.44,0,0,1-1.06.44,1.5,1.5,0,0,1-1.51-1.52Zm2.66,4.16v10h-2.31v-10Z"/>
    <path class="cls-2" d="M428.05,258.18h2.32v.92a3.76,3.76,0,0,1,2.73-1.2,3.44,3.44,0,0,1,2.71,1.1,4.47,4.47,0,0,1,.84,3v6.12h-2.31v-5.57a3.72,3.72,0,0,0-.41-2,1.68,1.68,0,0,0-1.46-.57,1.78,1.78,0,0,0-1.63.76,5.27,5.27,0,0,0-.47,2.61v4.82h-2.32Z"/>
    <path class="cls-2" d="M449.22,267.93c0,.47,0,.88,0,1.24a9.53,9.53,0,0,1-.13.95,4.28,4.28,0,0,1-1,1.94,4.7,4.7,0,0,1-3.73,1.56,5,5,0,0,1-3.29-1.08,4.36,4.36,0,0,1-1.53-3.06h2.31a2.74,2.74,0,0,0,.44,1.14,2.49,2.49,0,0,0,2.09.93c1.69,0,2.54-1,2.54-3.11v-1.39a4.33,4.33,0,0,1-3.17,1.4,4.22,4.22,0,0,1-3.34-1.48,5.43,5.43,0,0,1-1.32-3.74,5.79,5.79,0,0,1,1.22-3.71,4.25,4.25,0,0,1,3.47-1.62,4.05,4.05,0,0,1,3.14,1.4v-1.12h2.3ZM447,263.19a3.37,3.37,0,0,0-.78-2.33,2.6,2.6,0,0,0-2-.89,2.44,2.44,0,0,0-2.07,1,4,4,0,0,0,0,4.49,2.5,2.5,0,0,0,2.07.95,2.53,2.53,0,0,0,2.09-1A3.45,3.45,0,0,0,447,263.19Z"/>
  </g>
  <g>
    <path class="cls-2" d="M55.52,202.78v2.83a6.65,6.65,0,0,0-4.29-1.73,5.44,5.44,0,0,0-4.11,1.75,5.92,5.92,0,0,0-1.68,4.27,5.76,5.76,0,0,0,1.68,4.2,5.55,5.55,0,0,0,4.12,1.71,4.92,4.92,0,0,0,2.14-.41,5.71,5.71,0,0,0,1-.55,10.53,10.53,0,0,0,1.12-.84v2.88a8.69,8.69,0,0,1-4.31,1.16,7.94,7.94,0,0,1-5.79-2.37A7.81,7.81,0,0,1,43,209.92a8.06,8.06,0,0,1,2-5.39,7.94,7.94,0,0,1,6.36-2.91A8.12,8.12,0,0,1,55.52,202.78Z"/>
    <path class="cls-2" d="M60.4,200.44v17.32H58.09V200.44Z"/>
    <path class="cls-2" d="M63,203.62a1.5,1.5,0,0,1,2.56-1,1.39,1.39,0,0,1,.45,1,1.44,1.44,0,0,1-.45,1.07,1.4,1.4,0,0,1-1,.44A1.5,1.5,0,0,1,63,203.62Zm2.66,4.16v10H63.32v-10Z"/>
    <path class="cls-2" d="M77.64,213.31H70.49a3,3,0,0,0,.8,2,2.66,2.66,0,0,0,3.24.31,5.72,5.72,0,0,0,1.26-1.52l1.95,1.09a7.75,7.75,0,0,1-1,1.32,5.28,5.28,0,0,1-1.07.9,4.66,4.66,0,0,1-1.24.52,6.08,6.08,0,0,1-1.45.16,4.72,4.72,0,0,1-3.59-1.43,5.42,5.42,0,0,1-1.35-3.84A5.48,5.48,0,0,1,69.39,209a5,5,0,0,1,7,0,5.52,5.52,0,0,1,1.27,3.87Zm-2.36-1.88A2.22,2.22,0,0,0,73,209.58a2.26,2.26,0,0,0-.79.13,2.09,2.09,0,0,0-.67.37,2.23,2.23,0,0,0-.52.58,2.84,2.84,0,0,0-.33.77Z"/>
    <path class="cls-2" d="M80.17,207.78h2.31v.92a3.8,3.8,0,0,1,2.73-1.2,3.46,3.46,0,0,1,2.72,1.1,4.47,4.47,0,0,1,.84,3v6.12H86.45v-5.57a3.64,3.64,0,0,0-.41-2.05,1.65,1.65,0,0,0-1.45-.57,1.77,1.77,0,0,0-1.63.76,5.14,5.14,0,0,0-.48,2.61v4.82H80.17Z"/>
    <path class="cls-2" d="M94.06,209.93v7.83H91.75v-7.83h-1v-2.15h1v-3.66h2.31v3.66h1.8v2.15Z"/>
    <path class="cls-2" d="M106.28,209.93v7.83H104v-7.83h-1v-2.15h1v-3.66h2.3v3.66h1.8v2.15Z"/>
    <path class="cls-2" d="M109.65,207.78H112v.89a4.26,4.26,0,0,1,1.13-.91,2.49,2.49,0,0,1,1.19-.26,3.78,3.78,0,0,1,1.91.59l-1.06,2.12a2.17,2.17,0,0,0-1.28-.48q-1.89,0-1.89,2.85v5.18h-2.3Z"/>
    <path class="cls-2" d="M124.72,207.78H127v10h-2.32v-1a4.43,4.43,0,0,1-6.49-.17,5.53,5.53,0,0,1-1.34-3.81,5.35,5.35,0,0,1,1.34-3.74,4.32,4.32,0,0,1,3.36-1.5,4.27,4.27,0,0,1,3.13,1.43Zm-5.48,5a3.51,3.51,0,0,0,.77,2.34,2.52,2.52,0,0,0,2,.91,2.62,2.62,0,0,0,2.07-.88,3.8,3.8,0,0,0,0-4.64,2.61,2.61,0,0,0-2-.89,2.57,2.57,0,0,0-2,.9A3.36,3.36,0,0,0,119.24,212.74Z"/>
    <path class="cls-2" d="M137.72,208.21v3.06a5.67,5.67,0,0,0-1.41-1.32,2.72,2.72,0,0,0-1.45-.37,2.83,2.83,0,0,0-2.16.91,3.18,3.18,0,0,0-.86,2.29,3.24,3.24,0,0,0,.83,2.31,2.79,2.79,0,0,0,2.14.9,3,3,0,0,0,1.47-.36,5.67,5.67,0,0,0,1.44-1.35v3a6,6,0,0,1-2.81.73,5.37,5.37,0,0,1-3.87-1.5,5.28,5.28,0,0,1,0-7.51,5.31,5.31,0,0,1,3.87-1.54A5.68,5.68,0,0,1,137.72,208.21Z"/>
    <path class="cls-2" d="M142.81,200.44V211l3.25-3.23h3.1L144.82,212l4.65,5.79h-3l-3.3-4.21-.37.37v3.84H140.5V200.44Z"/>
    <path class="cls-2" d="M159.72,213.31h-7.16a3,3,0,0,0,.8,2,2.43,2.43,0,0,0,1.81.72,2.4,2.4,0,0,0,1.43-.41,5.72,5.72,0,0,0,1.26-1.52l1.95,1.09a8.31,8.31,0,0,1-.95,1.32,5.61,5.61,0,0,1-1.08.9,4.53,4.53,0,0,1-1.24.52,6.08,6.08,0,0,1-1.45.16,4.74,4.74,0,0,1-3.59-1.43,5.42,5.42,0,0,1-1.35-3.84,5.53,5.53,0,0,1,1.31-3.83,5,5,0,0,1,7,0,5.57,5.57,0,0,1,1.27,3.87Zm-2.37-1.88a2.22,2.22,0,0,0-2.33-1.85,2.3,2.3,0,0,0-.79.13,2.09,2.09,0,0,0-.67.37,2.23,2.23,0,0,0-.52.58,2.84,2.84,0,0,0-.33.77Z"/>
    <path class="cls-2" d="M162.24,207.78h2.31v.89a4.24,4.24,0,0,1,1.12-.91,2.51,2.51,0,0,1,1.19-.26,3.78,3.78,0,0,1,1.91.59l-1.06,2.12a2.15,2.15,0,0,0-1.28-.48c-1.26,0-1.88,1-1.88,2.85v5.18h-2.31Z"/>
    <path class="cls-2" d="M175.9,209.48l-1.91,1c-.3-.61-.67-.92-1.12-.92a.76.76,0,0,0-.54.21.71.71,0,0,0-.23.54c0,.38.45.76,1.34,1.14a8,8,0,0,1,2.47,1.45,2.53,2.53,0,0,1,.63,1.8,3.15,3.15,0,0,1-1.06,2.42,3.67,3.67,0,0,1-2.51.92,3.62,3.62,0,0,1-3.55-2.45l2-.91a4.25,4.25,0,0,0,.62.91,1.44,1.44,0,0,0,1,.39c.77,0,1.16-.36,1.16-1.07,0-.41-.3-.79-.9-1.15-.23-.11-.46-.23-.7-.33l-.7-.34a4.44,4.44,0,0,1-1.42-1,2.4,2.4,0,0,1-.52-1.61,2.86,2.86,0,0,1,.89-2.15,3.13,3.13,0,0,1,2.22-.85A3,3,0,0,1,175.9,209.48Z"/>
    <path class="cls-2" d="M45.56,235.13V243h-2.3v-7.83h-1V233h1v-3.66h2.3V233h1.8v2.15Z"/>
    <path class="cls-2" d="M48.93,233h2.31v.89a4.24,4.24,0,0,1,1.12-.91,2.61,2.61,0,0,1,1.19-.26,3.78,3.78,0,0,1,1.91.59l-1.06,2.12a2.15,2.15,0,0,0-1.28-.48c-1.26,0-1.88.95-1.88,2.86V243H48.93Z"/>
    <path class="cls-2" d="M64,233h2.32v10H64v-1a4.43,4.43,0,0,1-6.49-.17,5.59,5.59,0,0,1-1.34-3.81,5.39,5.39,0,0,1,1.34-3.74,4.34,4.34,0,0,1,3.36-1.5A4.25,4.25,0,0,1,64,234.13Zm-5.47,5a3.49,3.49,0,0,0,.76,2.34,2.55,2.55,0,0,0,2,.91,2.65,2.65,0,0,0,2.08-.88,3.84,3.84,0,0,0,0-4.64,2.64,2.64,0,0,0-2.06-.89,2.53,2.53,0,0,0-2,.9A3.31,3.31,0,0,0,58.53,237.94Z"/>
    <path class="cls-2" d="M69.23,233h2.32v.92a3.76,3.76,0,0,1,2.73-1.2A3.41,3.41,0,0,1,77,233.8a4.47,4.47,0,0,1,.84,3V243H75.52v-5.58a3.71,3.71,0,0,0-.41-2,1.68,1.68,0,0,0-1.46-.57,1.77,1.77,0,0,0-1.63.76,5.27,5.27,0,0,0-.47,2.61V243H69.23Z"/>
    <path class="cls-2" d="M86.55,234.68l-1.91,1c-.3-.61-.67-.92-1.12-.92A.76.76,0,0,0,83,235a.7.7,0,0,0-.22.54c0,.38.44.76,1.33,1.14a7.91,7.91,0,0,1,2.47,1.45,2.54,2.54,0,0,1,.64,1.8,3.16,3.16,0,0,1-1.07,2.42,3.83,3.83,0,0,1-6.06-1.53l2-.91a4.25,4.25,0,0,0,.62.91,1.44,1.44,0,0,0,1,.39c.78,0,1.17-.36,1.17-1.07,0-.41-.3-.79-.91-1.15l-.69-.33-.71-.34a4.26,4.26,0,0,1-1.41-1,2.4,2.4,0,0,1-.53-1.61,2.87,2.87,0,0,1,.89-2.15,3.13,3.13,0,0,1,2.22-.85A3,3,0,0,1,86.55,234.68Z"/>
    <path class="cls-2" d="M88.92,228.82a1.43,1.43,0,0,1,.44-1,1.4,1.4,0,0,1,1.06-.44,1.42,1.42,0,0,1,1.06.44,1.38,1.38,0,0,1,.44,1.05,1.5,1.5,0,0,1-1.49,1.51,1.5,1.5,0,0,1-1.51-1.52ZM91.57,233v10h-2.3V233Z"/>
    <path class="cls-2" d="M96.88,235.13V243H94.57v-7.83h-1V233h1v-3.66h2.31V233h1.79v2.15Z"/>
    <path class="cls-2" d="M99.89,228.82a1.5,1.5,0,0,1,2.56-1,1.38,1.38,0,0,1,.44,1.05,1.5,1.5,0,0,1-1.49,1.51,1.5,1.5,0,0,1-1.51-1.52Zm2.66,4.16v10h-2.31V233Z"/>
    <path class="cls-2" d="M105,237.9a5,5,0,0,1,1.54-3.68,5.46,5.46,0,0,1,7.57,0,5.34,5.34,0,0,1,0,7.51,5.27,5.27,0,0,1-3.82,1.51,5.08,5.08,0,0,1-3.77-1.54A5.16,5.16,0,0,1,105,237.9Zm2.35,0a3.38,3.38,0,0,0,.8,2.37,3.12,3.12,0,0,0,4.33,0,3.76,3.76,0,0,0,0-4.66,3.08,3.08,0,0,0-4.31,0A3.25,3.25,0,0,0,107.35,237.94Z"/>
    <path class="cls-2" d="M118.09,233h2.32v.92a3.76,3.76,0,0,1,2.73-1.2,3.41,3.41,0,0,1,2.71,1.1,4.47,4.47,0,0,1,.84,3V243h-2.31v-5.58a3.71,3.71,0,0,0-.41-2,1.68,1.68,0,0,0-1.46-.57,1.77,1.77,0,0,0-1.63.76,5.27,5.27,0,0,0-.47,2.61V243h-2.32Z"/>
    <path class="cls-2" d="M138.7,238.51h-7.16a3.08,3.08,0,0,0,.8,2,2.46,2.46,0,0,0,1.82.72,2.36,2.36,0,0,0,1.42-.41,5.72,5.72,0,0,0,1.26-1.52l1.95,1.09a8.31,8.31,0,0,1-.95,1.32,5.33,5.33,0,0,1-1.08.9,4.4,4.4,0,0,1-1.24.52,5.94,5.94,0,0,1-1.44.16,4.69,4.69,0,0,1-3.59-1.44,5.34,5.34,0,0,1-1.36-3.83,5.53,5.53,0,0,1,1.32-3.84,5,5,0,0,1,7,0,5.52,5.52,0,0,1,1.27,3.87Zm-2.37-1.88a2.21,2.21,0,0,0-2.33-1.85,2.3,2.3,0,0,0-.79.13,2.33,2.33,0,0,0-.67.37,2.2,2.2,0,0,0-.51.58,2.33,2.33,0,0,0-.33.77Z"/>
    <path class="cls-2" d="M148.59,225.64h2.31V243h-2.31v-1a4.3,4.3,0,0,1-3.09,1.33,4.41,4.41,0,0,1-3.41-1.5,5.59,5.59,0,0,1-1.34-3.81,5.4,5.4,0,0,1,1.34-3.73,4.33,4.33,0,0,1,6.5-.08Zm-5.48,12.3a3.49,3.49,0,0,0,.77,2.34,2.55,2.55,0,0,0,2,.91,2.65,2.65,0,0,0,2.07-.88,3.8,3.8,0,0,0,0-4.64,2.63,2.63,0,0,0-2.05-.89,2.55,2.55,0,0,0-2,.9A3.31,3.31,0,0,0,143.11,237.94Z"/>
    <path class="cls-2" d="M162.67,235.13V243h-2.3v-7.83h-1V233h1v-3.66h2.3V233h1.8v2.15Z"/>
    <path class="cls-2" d="M165.71,237.9a5,5,0,0,1,1.55-3.68,5.46,5.46,0,0,1,7.57,0,5.1,5.1,0,0,1,1.53,3.75,5,5,0,0,1-1.54,3.76,5.29,5.29,0,0,1-3.83,1.51,5,5,0,0,1-3.76-1.54A5.17,5.17,0,0,1,165.71,237.9Zm2.36,0a3.34,3.34,0,0,0,.8,2.37,3.12,3.12,0,0,0,4.33,0,3.79,3.79,0,0,0,0-4.66,2.82,2.82,0,0,0-2.17-.88,2.78,2.78,0,0,0-2.14.88A3.21,3.21,0,0,0,168.07,237.94Z"/>
    <path class="cls-2" d="M34.94,254.58H28.59v3.8h6.16v2.25H28.59v5.29h6.35v2.24H26.2V252.33h8.74Z"/>
    <path class="cls-2" d="M45,258.18h2.31v10H45v-1a4.44,4.44,0,0,1-6.5-.17,5.57,5.57,0,0,1-1.34-3.81,5.39,5.39,0,0,1,1.34-3.74,4.34,4.34,0,0,1,3.37-1.5A4.26,4.26,0,0,1,45,259.34Zm-5.48,5a3.49,3.49,0,0,0,.77,2.34,2.52,2.52,0,0,0,2,.91,2.65,2.65,0,0,0,2.07-.88,3.8,3.8,0,0,0,0-4.64A2.63,2.63,0,0,0,42.3,260a2.55,2.55,0,0,0-2,.9A3.31,3.31,0,0,0,39.52,263.14Z"/>
    <path class="cls-2" d="M56,259.88l-1.91,1c-.3-.61-.67-.92-1.12-.92a.76.76,0,0,0-.54.21.7.7,0,0,0-.22.54c0,.38.44.76,1.33,1.14A7.91,7.91,0,0,1,56,263.31a2.53,2.53,0,0,1,.63,1.8,3.15,3.15,0,0,1-1.06,2.42A3.83,3.83,0,0,1,49.55,266l2-.91a4.25,4.25,0,0,0,.62.91,1.44,1.44,0,0,0,1,.39c.78,0,1.17-.35,1.17-1.07,0-.41-.3-.79-.91-1.14l-.69-.34L52,263.5a4.44,4.44,0,0,1-1.42-1,2.45,2.45,0,0,1-.52-1.61,2.87,2.87,0,0,1,.89-2.15,3.13,3.13,0,0,1,2.22-.85A3,3,0,0,1,56,259.88Z"/>
    <path class="cls-2" d="M61.89,266.31l-4.49-8.13h2.68l3.05,5.74L66,258.18h2.6l-8,15.42H58Z"/>
    <path class="cls-2" d="M72.47,250.85v8.49a4.23,4.23,0,0,1,3.13-1.44A4.32,4.32,0,0,1,79,259.41a5.39,5.39,0,0,1,1.34,3.73A5.48,5.48,0,0,1,79,267a4.37,4.37,0,0,1-3.4,1.5,4.3,4.3,0,0,1-3.09-1.33v1H70.16V250.85ZM78,263.24a3.48,3.48,0,0,0-.78-2.34,2.49,2.49,0,0,0-2-.92,2.69,2.69,0,0,0-2.07.89,3.81,3.81,0,0,0,0,4.63,2.61,2.61,0,0,0,2,.89,2.55,2.55,0,0,0,2-.89A3.26,3.26,0,0,0,78,263.24Z"/>
    <path class="cls-2" d="M90.11,258.18h2.32v10H90.11v-1a4.43,4.43,0,0,1-6.49-.17,5.57,5.57,0,0,1-1.34-3.81,5.39,5.39,0,0,1,1.34-3.74A4.34,4.34,0,0,1,87,257.9a4.22,4.22,0,0,1,3.12,1.44Zm-5.47,5a3.44,3.44,0,0,0,.77,2.34,2.5,2.5,0,0,0,2,.91,2.65,2.65,0,0,0,2.07-.88,3.8,3.8,0,0,0,0-4.64,2.63,2.63,0,0,0-2-.89,2.54,2.54,0,0,0-2,.9A3.31,3.31,0,0,0,84.64,263.14Z"/>
    <path class="cls-2" d="M97.65,250.85v10.56l3.25-3.23H104l-4.34,4.19,4.65,5.79h-3L98,264l-.37.37v3.84H95.34V250.85Z"/>
    <path class="cls-2" d="M114.56,263.71H107.4a3,3,0,0,0,.8,2,2.44,2.44,0,0,0,1.82.72,2.36,2.36,0,0,0,1.42-.41,5.72,5.72,0,0,0,1.26-1.52l2,1.09a8.31,8.31,0,0,1-1,1.32,5.61,5.61,0,0,1-1.08.9,4.53,4.53,0,0,1-1.24.52,6,6,0,0,1-1.45.16,4.74,4.74,0,0,1-3.59-1.43,5.42,5.42,0,0,1-1.35-3.84,5.53,5.53,0,0,1,1.31-3.83,5,5,0,0,1,7-.05,5.57,5.57,0,0,1,1.27,3.87Zm-2.37-1.88a2.22,2.22,0,0,0-2.33-1.85,2.3,2.3,0,0,0-.79.13,2.31,2.31,0,0,0-1.19.95,2.84,2.84,0,0,0-.33.77Z"/>
    <path class="cls-2" d="M125.87,273.6h-2.31V258.18h2.31v1.08A4.26,4.26,0,0,1,129,257.9a4.33,4.33,0,0,1,3.4,1.52,5.47,5.47,0,0,1,1.35,3.8,5.39,5.39,0,0,1-1.34,3.74,4.38,4.38,0,0,1-6.5.09Zm5.48-10.37a3.53,3.53,0,0,0-.77-2.34,2.55,2.55,0,0,0-2-.91,2.68,2.68,0,0,0-2.07.88,3.37,3.37,0,0,0-.78,2.32,3.44,3.44,0,0,0,.78,2.32,2.62,2.62,0,0,0,2.06.89,2.47,2.47,0,0,0,2-.9A3.26,3.26,0,0,0,131.35,263.23Z"/>
    <path class="cls-2" d="M136.15,258.18h2.31v.89a4.1,4.1,0,0,1,1.13-.91,2.46,2.46,0,0,1,1.19-.26,3.74,3.74,0,0,1,1.9.59l-1.05,2.12a2.2,2.2,0,0,0-1.28-.48c-1.26,0-1.89,1-1.89,2.86v5.17h-2.31Z"/>
    <path class="cls-2" d="M143.35,263.1a5,5,0,0,1,1.55-3.68,5.46,5.46,0,0,1,7.57,0,5.1,5.1,0,0,1,1.53,3.75,5,5,0,0,1-1.54,3.76,5.29,5.29,0,0,1-3.83,1.51,5,5,0,0,1-3.76-1.54A5.17,5.17,0,0,1,143.35,263.1Zm2.36,0a3.38,3.38,0,0,0,.8,2.37,3.12,3.12,0,0,0,4.33,0,3.76,3.76,0,0,0,0-4.66,2.85,2.85,0,0,0-2.17-.88,2.82,2.82,0,0,0-2.14.88A3.21,3.21,0,0,0,145.71,263.14Z"/>
    <path class="cls-2" d="M163.81,250.85h2.31v17.31h-2.31v-1a4.3,4.3,0,0,1-3.09,1.33,4.37,4.37,0,0,1-3.4-1.5,5.53,5.53,0,0,1-1.35-3.81,5.35,5.35,0,0,1,1.35-3.73,4.31,4.31,0,0,1,6.49-.07Zm-5.48,12.29a3.49,3.49,0,0,0,.77,2.34,2.52,2.52,0,0,0,2,.91,2.62,2.62,0,0,0,2.07-.88,3.8,3.8,0,0,0,0-4.64,2.61,2.61,0,0,0-2-.89,2.57,2.57,0,0,0-2,.9A3.36,3.36,0,0,0,158.33,263.14Z"/>
    <path class="cls-2" d="M171.34,258.18v5.73c0,1.65.66,2.48,2,2.48s2-.83,2-2.48v-5.73h2.31V264a6.37,6.37,0,0,1-.3,2.07,3.5,3.5,0,0,1-1,1.41,4.87,4.87,0,0,1-5.94,0,3.59,3.59,0,0,1-1-1.41A5.73,5.73,0,0,1,169,264v-5.78Z"/>
    <path class="cls-2" d="M188.25,258.61v3.06a5.5,5.5,0,0,0-1.41-1.32,2.72,2.72,0,0,0-1.45-.37,2.86,2.86,0,0,0-2.16.91,3.55,3.55,0,0,0,0,4.6,2.79,2.79,0,0,0,2.14.9,2.94,2.94,0,0,0,1.47-.36,5.67,5.67,0,0,0,1.44-1.35v3a6,6,0,0,1-2.81.73,5.37,5.37,0,0,1-3.87-1.5,5,5,0,0,1-1.56-3.74,5.06,5.06,0,0,1,1.58-3.77,5.31,5.31,0,0,1,3.87-1.54A5.68,5.68,0,0,1,188.25,258.61Z"/>
    <path class="cls-2" d="M192.87,260.33v7.83h-2.31v-7.83h-1v-2.15h1v-3.66h2.31v3.66h1.79v2.15Z"/>
  </g>
  <g>
    <path class="cls-1" d="M45.26,175.85a8.33,8.33,0,0,1,.65-3.29,8.15,8.15,0,0,1,1.81-2.66,8.39,8.39,0,0,1,2.76-1.77,10.06,10.06,0,0,1,7.06,0,8.52,8.52,0,0,1,2.79,1.77,8.36,8.36,0,0,1,0,11.89,8.36,8.36,0,0,1-2.79,1.77,10.06,10.06,0,0,1-7.06,0,8.18,8.18,0,0,1-5.22-7.71Zm4.3,0a4.17,4.17,0,0,0,.36,1.74,4.36,4.36,0,0,0,1,1.38,4.3,4.3,0,0,0,1.41.92,4.57,4.57,0,0,0,4.86-.92,4.36,4.36,0,0,0,1-1.38,4.17,4.17,0,0,0,.36-1.74,4.22,4.22,0,0,0-.36-1.75,4.36,4.36,0,0,0-1-1.38,4.66,4.66,0,0,0-4.86-.92,4.47,4.47,0,0,0-1.41.92,4.36,4.36,0,0,0-1,1.38A4.22,4.22,0,0,0,49.56,175.85Z"/>
    <path class="cls-1" d="M65,173h3.8v1.37a4.1,4.1,0,0,1,1.58-1.28,5,5,0,0,1,1.87-.32,4.6,4.6,0,0,1,1.94.37,3.7,3.7,0,0,1,1.37,1,2.93,2.93,0,0,1,.63,1.21,6,6,0,0,1,.17,1.54v6.84H72.6v-5.44a6.38,6.38,0,0,0-.11-1.29,1.62,1.62,0,0,0-.41-.78,1.45,1.45,0,0,0-.57-.36,2.09,2.09,0,0,0-.67-.11,1.88,1.88,0,0,0-1.48.58,2.37,2.37,0,0,0-.52,1.65v5.75H65Z"/>
    <path class="cls-1" d="M82.79,166.33v7.73a4.43,4.43,0,0,1,3.36-1.41,5.15,5.15,0,0,1,2.19.46,5.21,5.21,0,0,1,1.7,1.21,5.53,5.53,0,0,1,1.1,1.81,6.34,6.34,0,0,1,0,4.46A5.55,5.55,0,0,1,90,182.42a5.46,5.46,0,0,1-1.73,1.23,5.22,5.22,0,0,1-2.16.45,4,4,0,0,1-3.31-1.53v1.19H79V166.33Zm4.78,12.08a2.38,2.38,0,0,0-.19-1,2.32,2.32,0,0,0-.52-.78,2.37,2.37,0,0,0-.78-.54,2.44,2.44,0,0,0-1.91,0,2.39,2.39,0,0,0-.76.52,2.67,2.67,0,0,0-.53.79,2.39,2.39,0,0,0-.2,1,2.29,2.29,0,0,0,.19.94,2.43,2.43,0,0,0,.52.77,2.64,2.64,0,0,0,.79.52,2.23,2.23,0,0,0,1,.2,2.41,2.41,0,0,0,1.71-.71,2.6,2.6,0,0,0,.52-.78A2.09,2.09,0,0,0,87.57,178.41Z"/>
    <path class="cls-1" d="M93.29,178.28a5.22,5.22,0,0,1,.48-2.23,5.44,5.44,0,0,1,1.34-1.81,6.62,6.62,0,0,1,2-1.21,7.9,7.9,0,0,1,5.17,0,6.41,6.41,0,0,1,2,1.2,5.34,5.34,0,0,1,1.36,1.83,5.56,5.56,0,0,1,.48,2.34,5.48,5.48,0,0,1-.49,2.34,5.58,5.58,0,0,1-1.36,1.83,6,6,0,0,1-2.07,1.18,7.85,7.85,0,0,1-2.61.42,7.55,7.55,0,0,1-2.56-.42,5.88,5.88,0,0,1-2-1.2,5.51,5.51,0,0,1-1.33-1.85A5.89,5.89,0,0,1,93.29,178.28Zm4,0a2.32,2.32,0,0,0,.2,1,2.64,2.64,0,0,0,.52.79,2.32,2.32,0,0,0,.78.52,2.5,2.5,0,0,0,1.91,0,2.32,2.32,0,0,0,.78-.52,2.85,2.85,0,0,0,.52-.79,2.43,2.43,0,0,0,0-1.93,2.85,2.85,0,0,0-.52-.79,2.32,2.32,0,0,0-.78-.52,2.5,2.5,0,0,0-1.91,0,2.32,2.32,0,0,0-.78.52,2.6,2.6,0,0,0-.52.78A2.15,2.15,0,0,0,97.3,178.32Z"/>
    <path class="cls-1" d="M116.72,173h3.82v10.77h-3.82v-1.19a4,4,0,0,1-3.3,1.53,5.31,5.31,0,0,1-2.16-.43,5.21,5.21,0,0,1-1.72-1.21,5.74,5.74,0,0,1-1.15-1.83,6.28,6.28,0,0,1-.4-2.28,6.21,6.21,0,0,1,.39-2.2,5.73,5.73,0,0,1,1.12-1.82,5.24,5.24,0,0,1,1.7-1.22,5,5,0,0,1,2.18-.46,4.37,4.37,0,0,1,3.34,1.41Zm-4.79,5.36a2.58,2.58,0,0,0,.19,1,2.64,2.64,0,0,0,.52.79,2.18,2.18,0,0,0,.77.52,2.45,2.45,0,0,0,1,.19,2.42,2.42,0,0,0,1-.19,2.18,2.18,0,0,0,.77-.52,2.83,2.83,0,0,0,.53-.78,2.3,2.3,0,0,0,.2-.94,2.39,2.39,0,0,0-.2-1,2.88,2.88,0,0,0-.53-.79,2.33,2.33,0,0,0-.77-.52,2.42,2.42,0,0,0-1-.19,2.45,2.45,0,0,0-1,.19,2.33,2.33,0,0,0-.77.52,2.68,2.68,0,0,0-.52.77A2.43,2.43,0,0,0,111.93,178.35Z"/>
    <path class="cls-1" d="M123.13,173h3.8v1.76a4.39,4.39,0,0,1,1.49-1.48,4,4,0,0,1,2.06-.51h.32a2.1,2.1,0,0,1,.41,0v3.63a3.62,3.62,0,0,0-1.64-.37,2.45,2.45,0,0,0-2,.78,3.5,3.5,0,0,0-.66,2.3v4.62h-3.8Z"/>
    <path class="cls-1" d="M141.35,166.33h3.83v17.43h-3.83v-1.19a4,4,0,0,1-3.29,1.53,5.33,5.33,0,0,1-2.17-.44,5.41,5.41,0,0,1-2.86-3,6,6,0,0,1-.41-2.26,6.21,6.21,0,0,1,.39-2.2,5.35,5.35,0,0,1,1.1-1.82,5.28,5.28,0,0,1,1.71-1.22,5.15,5.15,0,0,1,2.19-.46,4.37,4.37,0,0,1,3.34,1.41Zm-4.78,12a2.58,2.58,0,0,0,.18,1,2.64,2.64,0,0,0,.52.79,2.32,2.32,0,0,0,.78.52,2.55,2.55,0,0,0,1.93,0,2.18,2.18,0,0,0,.77-.52,2.63,2.63,0,0,0,.53-.78,2.3,2.3,0,0,0,.2-.94,2.39,2.39,0,0,0-.2-1,2.67,2.67,0,0,0-.53-.79,2.33,2.33,0,0,0-.77-.52,2.5,2.5,0,0,0-1.91,0,2.48,2.48,0,0,0-.78.52,2.93,2.93,0,0,0-.53.77A2.26,2.26,0,0,0,136.57,178.35Z"/>
    <path class="cls-1" d="M151.18,179c0,1.64.77,2.45,2.31,2.45a2.06,2.06,0,0,0,1.87-1H159c-.75,2.46-2.6,3.69-5.57,3.69a7.17,7.17,0,0,1-2.5-.41,5.64,5.64,0,0,1-1.94-1.16,5.2,5.2,0,0,1-1.25-1.81,6.08,6.08,0,0,1-.44-2.35,6.66,6.66,0,0,1,.42-2.43,5,5,0,0,1,1.2-1.83,5.12,5.12,0,0,1,1.87-1.17,7.22,7.22,0,0,1,2.49-.41,7.05,7.05,0,0,1,2.46.41,5,5,0,0,1,1.85,1.19,5.13,5.13,0,0,1,1.15,1.9,7.42,7.42,0,0,1,.4,2.53v.4Zm4.45-2.21a2.25,2.25,0,0,0-.77-1.28,2.21,2.21,0,0,0-1.43-.48,2.16,2.16,0,0,0-1.44.46,2.06,2.06,0,0,0-.7,1.3Z"/>
    <path class="cls-1" d="M169.66,166.33h3.82v17.43h-3.82v-1.19a4,4,0,0,1-3.3,1.53,5.31,5.31,0,0,1-2.16-.44,5.39,5.39,0,0,1-1.72-1.22,5.74,5.74,0,0,1-1.15-1.83,6.42,6.42,0,0,1,0-4.46,5.53,5.53,0,0,1,1.11-1.82,5.18,5.18,0,0,1,1.71-1.22,5.08,5.08,0,0,1,2.19-.46,4.37,4.37,0,0,1,3.34,1.41Zm-4.79,12a2.58,2.58,0,0,0,.19,1,2.64,2.64,0,0,0,.52.79,2.18,2.18,0,0,0,.77.52,2.45,2.45,0,0,0,1,.19,2.42,2.42,0,0,0,1-.19,2.18,2.18,0,0,0,.77-.52,2.83,2.83,0,0,0,.53-.78,2.3,2.3,0,0,0,.2-.94,2.39,2.39,0,0,0-.2-1,2.88,2.88,0,0,0-.53-.79,2.33,2.33,0,0,0-.77-.52,2.42,2.42,0,0,0-1-.19,2.34,2.34,0,0,0-1,.19,2.27,2.27,0,0,0-.78.52,2.93,2.93,0,0,0-.53.77A2.26,2.26,0,0,0,164.87,178.35Z"/>
  </g>
  <path class="cls-1" d="M120.54,110.36H107.49l-.65,4.15,1.65-.17c.5,0,1-.08,1.55-.08a14,14,0,0,1,5.3,1,12.81,12.81,0,0,1,4.2,2.75,12.66,12.66,0,0,1,2.75,4.2,14,14,0,0,1,1,5.35,13,13,0,0,1-1.13,5.5,11.76,11.76,0,0,1-3.17,4.18,14.37,14.37,0,0,1-5,2.65,22.06,22.06,0,0,1-6.55.92A24.91,24.91,0,0,1,101,140a20.77,20.77,0,0,1-5.77-2.53l1.45-9.2a20.08,20.08,0,0,0,5.1,3.28,12.44,12.44,0,0,0,5,1.12,6.72,6.72,0,0,0,4.75-1.62,5.27,5.27,0,0,0,1.75-4,5.35,5.35,0,0,0-2.35-4.52,10.16,10.16,0,0,0-6.15-1.73,17.18,17.18,0,0,0-3.5.38,17,17,0,0,0-3.55,1.17l3.15-20.25h19.75Z"/>
  <g>
    <path class="cls-2" d="M555,204.18h-6.35V208h6.17v2.25h-6.17v5.29H555v2.24h-8.74V201.93H555Z"/>
    <path class="cls-2" d="M557.73,207.78H560v.92a3.8,3.8,0,0,1,2.73-1.2,3.46,3.46,0,0,1,2.72,1.1,4.47,4.47,0,0,1,.84,3v6.12H564v-5.57a3.64,3.64,0,0,0-.41-2.05,1.65,1.65,0,0,0-1.45-.57,1.77,1.77,0,0,0-1.63.76,5.14,5.14,0,0,0-.48,2.61v4.82h-2.31Z"/>
    <path class="cls-2" d="M576.6,200.44h2.32v17.32H576.6v-1a4.26,4.26,0,0,1-3.08,1.33,4.41,4.41,0,0,1-3.41-1.5,5.57,5.57,0,0,1-1.34-3.81,5.39,5.39,0,0,1,1.34-3.73,4.32,4.32,0,0,1,6.49-.08Zm-5.47,12.3a3.46,3.46,0,0,0,.77,2.34,2.5,2.5,0,0,0,2,.91,2.65,2.65,0,0,0,2.07-.88,3.8,3.8,0,0,0,0-4.64,2.63,2.63,0,0,0-2.05-.89,2.54,2.54,0,0,0-2,.9A3.31,3.31,0,0,0,571.13,212.74Z"/>
    <path class="cls-2" d="M580.38,211.68H585v2h-4.57Z"/>
    <path class="cls-2" d="M588.79,209.93v7.83h-2.31v-7.83h-1v-2.15h1v-3.66h2.31v3.66h1.79v2.15Z"/>
    <path class="cls-2" d="M591.82,212.7a5,5,0,0,1,1.55-3.68,5.15,5.15,0,0,1,3.77-1.52,5.23,5.23,0,0,1,3.8,1.53,5.36,5.36,0,0,1,0,7.51,5.29,5.29,0,0,1-3.83,1.51,5,5,0,0,1-3.76-1.54A5.17,5.17,0,0,1,591.82,212.7Zm2.36,0a3.38,3.38,0,0,0,.8,2.37,3.12,3.12,0,0,0,4.33,0,3.76,3.76,0,0,0,0-4.66,2.85,2.85,0,0,0-2.17-.88,2.82,2.82,0,0,0-2.14.88A3.21,3.21,0,0,0,594.18,212.74Z"/>
    <path class="cls-2" d="M603.46,211.68H608v2h-4.57Z"/>
    <path class="cls-2" d="M618.58,213.31h-7.15a3,3,0,0,0,.8,2,2.66,2.66,0,0,0,3.24.31,5.72,5.72,0,0,0,1.26-1.52l1.95,1.09a7.75,7.75,0,0,1-1,1.32,5.28,5.28,0,0,1-1.07.9,4.66,4.66,0,0,1-1.24.52,6.08,6.08,0,0,1-1.45.16,4.72,4.72,0,0,1-3.59-1.43,5.42,5.42,0,0,1-1.35-3.84,5.48,5.48,0,0,1,1.31-3.83,5,5,0,0,1,7,0,5.52,5.52,0,0,1,1.27,3.87Zm-2.37-1.88a2.21,2.21,0,0,0-2.32-1.85,2.26,2.26,0,0,0-.79.13,2.09,2.09,0,0,0-.67.37,2.06,2.06,0,0,0-.52.58,2.56,2.56,0,0,0-.33.77Z"/>
    <path class="cls-2" d="M621.11,207.78h2.31v.92a3.8,3.8,0,0,1,2.73-1.2,3.46,3.46,0,0,1,2.72,1.1,4.47,4.47,0,0,1,.84,3v6.12h-2.32v-5.57a3.72,3.72,0,0,0-.41-2.05,1.66,1.66,0,0,0-1.45-.57,1.77,1.77,0,0,0-1.63.76,5.14,5.14,0,0,0-.48,2.61v4.82h-2.31Z"/>
    <path class="cls-2" d="M640,200.44h2.32v17.32H640v-1a4.28,4.28,0,0,1-3.08,1.33,4.41,4.41,0,0,1-3.41-1.5,5.57,5.57,0,0,1-1.34-3.81,5.39,5.39,0,0,1,1.34-3.73,4.32,4.32,0,0,1,6.49-.08Zm-5.47,12.3a3.46,3.46,0,0,0,.77,2.34,2.5,2.5,0,0,0,2,.91,2.65,2.65,0,0,0,2.07-.88,3.8,3.8,0,0,0,0-4.64,2.63,2.63,0,0,0-2.05-.89,2.54,2.54,0,0,0-2,.9A3.31,3.31,0,0,0,634.51,212.74Z"/>
    <path class="cls-2" d="M657.5,209.48l-1.91,1c-.3-.61-.67-.92-1.12-.92a.76.76,0,0,0-.54.21.71.71,0,0,0-.23.54c0,.38.45.76,1.34,1.14a8,8,0,0,1,2.47,1.45,2.53,2.53,0,0,1,.63,1.8,3.15,3.15,0,0,1-1.06,2.42A3.83,3.83,0,0,1,651,215.6l2-.91a4.25,4.25,0,0,0,.62.91,1.44,1.44,0,0,0,1,.39c.78,0,1.17-.36,1.17-1.07,0-.41-.31-.79-.91-1.15l-.69-.33-.71-.34a4.44,4.44,0,0,1-1.42-1,2.4,2.4,0,0,1-.52-1.61,2.86,2.86,0,0,1,.89-2.15,3.13,3.13,0,0,1,2.22-.85A3,3,0,0,1,657.5,209.48Z"/>
    <path class="cls-2" d="M662.52,207.78v5.73c0,1.65.65,2.48,2,2.48s2-.83,2-2.48v-5.73h2.31v5.78a6.37,6.37,0,0,1-.3,2.07,3.43,3.43,0,0,1-1,1.41,4.86,4.86,0,0,1-5.93,0,3.59,3.59,0,0,1-1-1.41,5.73,5.73,0,0,1-.29-2.07v-5.78Z"/>
    <path class="cls-2" d="M671.66,207.78H674v.89a4.26,4.26,0,0,1,1.13-.91,2.49,2.49,0,0,1,1.19-.26,3.78,3.78,0,0,1,1.91.59l-1.06,2.12a2.15,2.15,0,0,0-1.28-.48q-1.89,0-1.89,2.85v5.18h-2.3Z"/>
    <path class="cls-2" d="M681.66,207.78l2.58,5.6,2.57-5.6h2.6l-5.19,10.67-5.15-10.67Z"/>
    <path class="cls-2" d="M699.7,213.31h-7.16a3.08,3.08,0,0,0,.8,2,2.46,2.46,0,0,0,1.82.72,2.36,2.36,0,0,0,1.42-.41,5.72,5.72,0,0,0,1.27-1.52l1.94,1.09a7.73,7.73,0,0,1-.95,1.32,5.07,5.07,0,0,1-1.08.9,4.4,4.4,0,0,1-1.24.52,5.94,5.94,0,0,1-1.44.16,4.72,4.72,0,0,1-3.59-1.43,5.42,5.42,0,0,1-1.35-3.84,5.48,5.48,0,0,1,1.31-3.83,5,5,0,0,1,7,0,5.52,5.52,0,0,1,1.27,3.87Zm-2.37-1.88a2.39,2.39,0,0,0-3.11-1.72,2.25,2.25,0,0,0-.68.37,2.2,2.2,0,0,0-.51.58,2.33,2.33,0,0,0-.33.77Z"/>
    <path class="cls-2" d="M705,215.91l-4.49-8.13h2.68l3,5.74,2.86-5.74h2.6l-8,15.42h-2.63Z"/>
    <path class="cls-2" d="M563.68,235.13V243h-2.31v-7.83h-1V233h1v-3.66h2.31V233h1.79v2.15Z"/>
    <path class="cls-2" d="M576.32,238.51h-7.15a3,3,0,0,0,.79,2,2.46,2.46,0,0,0,1.82.72,2.42,2.42,0,0,0,1.43-.41,6.13,6.13,0,0,0,1.26-1.52l1.94,1.09a7.73,7.73,0,0,1-.95,1.32,5.07,5.07,0,0,1-1.08.9,4.4,4.4,0,0,1-1.24.52,5.94,5.94,0,0,1-1.44.16,4.69,4.69,0,0,1-3.59-1.44,5.38,5.38,0,0,1-1.36-3.83,5.53,5.53,0,0,1,1.32-3.84,5,5,0,0,1,7,0,5.52,5.52,0,0,1,1.27,3.87ZM574,236.63a2.21,2.21,0,0,0-2.32-1.85,2.36,2.36,0,0,0-1.47.5,2.2,2.2,0,0,0-.51.58,2.33,2.33,0,0,0-.33.77Z"/>
    <path class="cls-2" d="M578.84,233h2.31v.92a4.76,4.76,0,0,1,1.14-.94,2.74,2.74,0,0,1,1.26-.26,3.06,3.06,0,0,1,2.68,1.48,3.44,3.44,0,0,1,2.94-1.48q3.38,0,3.37,4.09V243h-2.31v-5.54a4.28,4.28,0,0,0-.35-2,1.25,1.25,0,0,0-1.18-.61,1.5,1.5,0,0,0-1.39.72,4.64,4.64,0,0,0-.44,2.31V243h-2.31v-5.51c0-1.78-.52-2.67-1.54-2.67a1.54,1.54,0,0,0-1.42.73,4.5,4.5,0,0,0-.45,2.3V243h-2.31Z"/>
    <path class="cls-2" d="M598,248.4h-2.31V233H598v1.08a4.26,4.26,0,0,1,3.1-1.36,4.32,4.32,0,0,1,3.39,1.52,5.47,5.47,0,0,1,1.35,3.8,5.35,5.35,0,0,1-1.34,3.74,4.38,4.38,0,0,1-6.5.09ZM603.5,238a3.44,3.44,0,0,0-.77-2.34,2.52,2.52,0,0,0-2-.91,2.61,2.61,0,0,0-2.06.88,3.33,3.33,0,0,0-.79,2.32,3.4,3.4,0,0,0,.79,2.32,2.6,2.6,0,0,0,2.05.89,2.51,2.51,0,0,0,2-.9A3.3,3.3,0,0,0,603.5,238Z"/>
    <path class="cls-2" d="M610.61,225.64V243H608.3V225.64Z"/>
    <path class="cls-2" d="M620.9,233h2.31v10H620.9v-1a4.43,4.43,0,0,1-6.49-.17,5.55,5.55,0,0,1-1.35-3.81,5.35,5.35,0,0,1,1.35-3.74,4.33,4.33,0,0,1,6.49-.07Zm-5.48,5a3.49,3.49,0,0,0,.77,2.34,2.55,2.55,0,0,0,2,.91,2.65,2.65,0,0,0,2.07-.88,3.8,3.8,0,0,0,0-4.64,2.63,2.63,0,0,0-2-.89,2.55,2.55,0,0,0-2,.9A3.31,3.31,0,0,0,615.42,237.94Z"/>
    <path class="cls-2" d="M628.5,235.13V243h-2.3v-7.83h-1V233h1v-3.66h2.3V233h1.8v2.15Z"/>
    <path class="cls-2" d="M641.15,238.51H634a3,3,0,0,0,.8,2,2.43,2.43,0,0,0,1.81.72,2.4,2.4,0,0,0,1.43-.41,5.72,5.72,0,0,0,1.26-1.52l2,1.09a8.31,8.31,0,0,1-1,1.32,5.61,5.61,0,0,1-1.08.9,4.53,4.53,0,0,1-1.24.52,6.08,6.08,0,0,1-1.45.16,4.71,4.71,0,0,1-3.59-1.44,5.38,5.38,0,0,1-1.35-3.83,5.57,5.57,0,0,1,1.31-3.84,5,5,0,0,1,7,0,5.57,5.57,0,0,1,1.27,3.87Zm-2.37-1.88a2.22,2.22,0,0,0-2.33-1.85,2.3,2.3,0,0,0-.79.13,2.2,2.2,0,0,0-.67.37,2.42,2.42,0,0,0-.52.58,2.84,2.84,0,0,0-.33.77Z"/>
    <path class="cls-2" d="M649.47,234.68l-1.9,1c-.3-.61-.68-.92-1.12-.92a.76.76,0,0,0-.54.21.68.68,0,0,0-.23.54c0,.38.44.76,1.33,1.14a7.79,7.79,0,0,1,2.47,1.45,2.49,2.49,0,0,1,.64,1.8,3.16,3.16,0,0,1-1.07,2.42A3.83,3.83,0,0,1,643,240.8l2-.91a4.18,4.18,0,0,0,.63.91,1.41,1.41,0,0,0,1,.39c.78,0,1.17-.36,1.17-1.07,0-.41-.3-.79-.9-1.15l-.7-.33-.71-.34a4.26,4.26,0,0,1-1.41-1,2.4,2.4,0,0,1-.52-1.61,2.84,2.84,0,0,1,.89-2.15,3.11,3.11,0,0,1,2.21-.85A3,3,0,0,1,649.47,234.68Z"/>
    <path class="cls-2" d="M659.92,233l2.62,5.7,2.82-6.62,2.84,6.62,2.58-5.7h2.59l-5.23,10.73-2.78-6.43-2.81,6.43L657.33,233Z"/>
    <path class="cls-2" d="M674.58,228.82a1.5,1.5,0,0,1,1.49-1.48,1.44,1.44,0,0,1,1.07.44,1.42,1.42,0,0,1,.44,1.05,1.46,1.46,0,0,1-.44,1.07,1.44,1.44,0,0,1-1.06.44,1.46,1.46,0,0,1-1.06-.44A1.43,1.43,0,0,1,674.58,228.82Zm2.65,4.16v10h-2.31V233Z"/>
    <path class="cls-2" d="M682.53,235.13V243h-2.31v-7.83h-1V233h1v-3.66h2.31V233h1.8v2.15Z"/>
    <path class="cls-2" d="M686.32,225.64h2.3v8.17a4,4,0,0,1,2.72-1.11,3.49,3.49,0,0,1,2.71,1.1,4.47,4.47,0,0,1,.86,3V243H692.6v-5.9a2.85,2.85,0,0,0-.42-1.74,1.65,1.65,0,0,0-1.37-.54,1.89,1.89,0,0,0-1.71.75,5.14,5.14,0,0,0-.48,2.6V243h-2.3Z"/>
    <path class="cls-2" d="M525.38,258.18h2.31v10h-2.31v-1a4.44,4.44,0,0,1-6.5-.17,5.57,5.57,0,0,1-1.34-3.81,5.39,5.39,0,0,1,1.34-3.74,4.34,4.34,0,0,1,3.37-1.5,4.26,4.26,0,0,1,3.13,1.44Zm-5.48,5a3.49,3.49,0,0,0,.77,2.34,2.52,2.52,0,0,0,2,.91,2.65,2.65,0,0,0,2.07-.88,3.8,3.8,0,0,0,0-4.64,2.63,2.63,0,0,0-2.05-.89,2.55,2.55,0,0,0-2,.9A3.31,3.31,0,0,0,519.9,263.14Z"/>
    <path class="cls-2" d="M532.91,258.18v5.73c0,1.65.66,2.48,2,2.48s2-.83,2-2.48v-5.73h2.31V264a6.37,6.37,0,0,1-.3,2.07,3.43,3.43,0,0,1-1,1.41,4.86,4.86,0,0,1-5.93,0,3.59,3.59,0,0,1-1-1.41,5.73,5.73,0,0,1-.28-2.07v-5.78Z"/>
    <path class="cls-2" d="M544.43,260.33v7.83h-2.31v-7.83h-1v-2.15h1v-3.66h2.31v3.66h1.79v2.15Z"/>
    <path class="cls-2" d="M547.46,263.1a5,5,0,0,1,1.55-3.68,5.46,5.46,0,0,1,7.57,0,5.11,5.11,0,0,1,1.54,3.75,5.05,5.05,0,0,1-1.55,3.76,5.29,5.29,0,0,1-3.83,1.51,5.06,5.06,0,0,1-3.76-1.54A5.17,5.17,0,0,1,547.46,263.1Zm2.36,0a3.38,3.38,0,0,0,.8,2.37,3.12,3.12,0,0,0,4.33,0,3.76,3.76,0,0,0,0-4.66,2.85,2.85,0,0,0-2.17-.88,2.82,2.82,0,0,0-2.14.88A3.21,3.21,0,0,0,549.82,263.14Z"/>
    <path class="cls-2" d="M560.56,258.18h2.3v.92a4.76,4.76,0,0,1,1.14-.94,2.67,2.67,0,0,1,1.26-.26,3.06,3.06,0,0,1,2.68,1.48,3.45,3.45,0,0,1,2.94-1.48q3.38,0,3.38,4.09v6.17h-2.32v-5.54a4.28,4.28,0,0,0-.35-2,1.25,1.25,0,0,0-1.18-.61,1.51,1.51,0,0,0-1.39.72,4.65,4.65,0,0,0-.43,2.31v5.15h-2.32v-5.51c0-1.78-.51-2.67-1.54-2.67a1.54,1.54,0,0,0-1.42.73,4.52,4.52,0,0,0-.45,2.3v5.15h-2.3Z"/>
    <path class="cls-2" d="M584.53,258.18h2.32v10h-2.32v-1A4.43,4.43,0,0,1,578,267a5.53,5.53,0,0,1-1.34-3.81A5.35,5.35,0,0,1,578,259.4a4.34,4.34,0,0,1,3.36-1.5,4.23,4.23,0,0,1,3.13,1.44Zm-5.48,5a3.49,3.49,0,0,0,.77,2.34,2.52,2.52,0,0,0,2,.91,2.62,2.62,0,0,0,2.07-.88,3.8,3.8,0,0,0,0-4.64,2.61,2.61,0,0,0-2-.89,2.57,2.57,0,0,0-2,.9A3.36,3.36,0,0,0,579.05,263.14Z"/>
    <path class="cls-2" d="M592.14,260.33v7.83h-2.31v-7.83h-1v-2.15h1v-3.66h2.31v3.66h1.79v2.15Z"/>
    <path class="cls-2" d="M604.78,263.71h-7.16a3.08,3.08,0,0,0,.8,2,2.46,2.46,0,0,0,1.82.72,2.42,2.42,0,0,0,1.43-.41,6.13,6.13,0,0,0,1.26-1.52l1.94,1.09a7.73,7.73,0,0,1-1,1.32,5.07,5.07,0,0,1-1.08.9,4.4,4.4,0,0,1-1.24.52,5.94,5.94,0,0,1-1.44.16,4.72,4.72,0,0,1-3.59-1.43,5.43,5.43,0,0,1-1.36-3.84,5.49,5.49,0,0,1,1.32-3.83,5,5,0,0,1,7-.05,5.52,5.52,0,0,1,1.27,3.87Zm-2.37-1.88a2.21,2.21,0,0,0-2.32-1.85,2.26,2.26,0,0,0-.79.13,2.49,2.49,0,0,0-.68.37,2.2,2.2,0,0,0-.51.58,2.33,2.33,0,0,0-.33.77Z"/>
    <path class="cls-2" d="M614.67,250.85H617v17.31h-2.31v-1a4.3,4.3,0,0,1-3.09,1.33,4.37,4.37,0,0,1-3.4-1.5,5.53,5.53,0,0,1-1.35-3.81,5.35,5.35,0,0,1,1.35-3.73,4.31,4.31,0,0,1,6.49-.07Zm-5.48,12.29a3.49,3.49,0,0,0,.77,2.34,2.52,2.52,0,0,0,2,.91,2.65,2.65,0,0,0,2.07-.88,3.8,3.8,0,0,0,0-4.64,2.63,2.63,0,0,0-2-.89,2.55,2.55,0,0,0-2,.9A3.31,3.31,0,0,0,609.19,263.14Z"/>
    <path class="cls-2" d="M633.74,250.85h2.32v17.31h-2.32v-1a4.3,4.3,0,0,1-3.09,1.33,4.39,4.39,0,0,1-3.4-1.5,5.53,5.53,0,0,1-1.34-3.81,5.34,5.34,0,0,1,1.34-3.73,4.31,4.31,0,0,1,6.49-.07Zm-5.48,12.29a3.49,3.49,0,0,0,.77,2.34,2.52,2.52,0,0,0,2,.91,2.62,2.62,0,0,0,2.07-.88,3.8,3.8,0,0,0,0-4.64A2.61,2.61,0,0,0,631,260a2.57,2.57,0,0,0-2,.9A3.36,3.36,0,0,0,628.26,263.14Z"/>
    <path class="cls-2" d="M648.06,263.71h-7.15a3,3,0,0,0,.8,2A2.66,2.66,0,0,0,645,266a5.72,5.72,0,0,0,1.26-1.52l1.95,1.09a7.75,7.75,0,0,1-1,1.32,5.28,5.28,0,0,1-1.07.9,4.59,4.59,0,0,1-1.25.52,5.94,5.94,0,0,1-1.44.16,4.72,4.72,0,0,1-3.59-1.43,5.42,5.42,0,0,1-1.35-3.84,5.48,5.48,0,0,1,1.31-3.83,5,5,0,0,1,7-.05,5.52,5.52,0,0,1,1.27,3.87Zm-2.36-1.88a2.22,2.22,0,0,0-2.33-1.85,2.26,2.26,0,0,0-.79.13,2.3,2.3,0,0,0-.67.37,2.06,2.06,0,0,0-.52.58,2.84,2.84,0,0,0-.33.77Z"/>
    <path class="cls-2" d="M652.89,250.85v17.31h-2.3V250.85Z"/>
    <path class="cls-2" d="M655.47,254a1.5,1.5,0,0,1,1.49-1.48,1.5,1.5,0,0,1,1.51,1.49,1.46,1.46,0,0,1-.44,1.07,1.44,1.44,0,0,1-1.06.44,1.46,1.46,0,0,1-1.06-.44A1.43,1.43,0,0,1,655.47,254Zm2.65,4.16v10h-2.3v-10Z"/>
    <path class="cls-2" d="M662.29,258.18l2.58,5.61,2.57-5.61H670l-5.19,10.67-5.15-10.67Z"/>
    <path class="cls-2" d="M680.33,263.71h-7.15a3,3,0,0,0,.8,2,2.66,2.66,0,0,0,3.24.31,6.13,6.13,0,0,0,1.26-1.52l1.94,1.09a7.73,7.73,0,0,1-.95,1.32,5.07,5.07,0,0,1-1.08.9,4.4,4.4,0,0,1-1.24.52,5.94,5.94,0,0,1-1.44.16,4.72,4.72,0,0,1-3.59-1.43,5.42,5.42,0,0,1-1.35-3.84,5.48,5.48,0,0,1,1.31-3.83,5,5,0,0,1,7-.05,5.52,5.52,0,0,1,1.27,3.87ZM678,261.83a2.21,2.21,0,0,0-2.32-1.85,2.26,2.26,0,0,0-.79.13,2.49,2.49,0,0,0-.68.37,2.2,2.2,0,0,0-.51.58,2.33,2.33,0,0,0-.33.77Z"/>
    <path class="cls-2" d="M682.86,258.18h2.3v.89a4.26,4.26,0,0,1,1.13-.91,2.46,2.46,0,0,1,1.19-.26,3.8,3.8,0,0,1,1.91.59l-1.06,2.12a2.17,2.17,0,0,0-1.28-.48c-1.26,0-1.89,1-1.89,2.86v5.17h-2.3Z"/>
    <path class="cls-2" d="M697.93,258.18h2.32v10h-2.32v-1a4.43,4.43,0,0,1-6.49-.17,5.53,5.53,0,0,1-1.35-3.81,5.35,5.35,0,0,1,1.35-3.74,4.31,4.31,0,0,1,3.36-1.5,4.25,4.25,0,0,1,3.13,1.44Zm-5.48,5a3.49,3.49,0,0,0,.77,2.34,2.52,2.52,0,0,0,2,.91,2.63,2.63,0,0,0,2.07-.88,3.8,3.8,0,0,0,0-4.64,2.61,2.61,0,0,0-2-.89,2.57,2.57,0,0,0-2,.9A3.36,3.36,0,0,0,692.45,263.14Z"/>
    <path class="cls-2" d="M705.46,250.85v8.49a4.32,4.32,0,0,1,6.5.07,5.35,5.35,0,0,1,1.35,3.73A5.48,5.48,0,0,1,712,267a4.37,4.37,0,0,1-3.4,1.5,4.32,4.32,0,0,1-3.1-1.33v1h-2.3V250.85ZM711,263.24a3.48,3.48,0,0,0-.78-2.34,2.52,2.52,0,0,0-2-.92,2.66,2.66,0,0,0-2.07.89,3.31,3.31,0,0,0-.79,2.3,3.37,3.37,0,0,0,.78,2.33,2.6,2.6,0,0,0,2,.89,2.56,2.56,0,0,0,2-.89A3.3,3.3,0,0,0,711,263.24Z"/>
    <path class="cls-2" d="M718.06,250.85v17.31h-2.31V250.85Z"/>
    <path class="cls-2" d="M730.07,263.71h-7.15a3,3,0,0,0,.8,2A2.66,2.66,0,0,0,727,266a5.72,5.72,0,0,0,1.26-1.52l1.95,1.09a7.75,7.75,0,0,1-1,1.32,5.28,5.28,0,0,1-1.07.9,4.66,4.66,0,0,1-1.24.52,6.08,6.08,0,0,1-1.45.16,4.72,4.72,0,0,1-3.59-1.43,5.42,5.42,0,0,1-1.35-3.84,5.53,5.53,0,0,1,1.31-3.83,5,5,0,0,1,7-.05,5.52,5.52,0,0,1,1.27,3.87Zm-2.36-1.88a2.22,2.22,0,0,0-2.33-1.85,2.26,2.26,0,0,0-.79.13,2.3,2.3,0,0,0-.67.37,2.23,2.23,0,0,0-.52.58,2.84,2.84,0,0,0-.33.77Z"/>
    <path class="cls-2" d="M738.4,259.88l-1.91,1c-.3-.61-.67-.92-1.11-.92a.77.77,0,0,0-.55.21.7.7,0,0,0-.22.54c0,.38.44.76,1.33,1.14a7.91,7.91,0,0,1,2.47,1.45,2.54,2.54,0,0,1,.64,1.8,3.16,3.16,0,0,1-1.07,2.42,3.83,3.83,0,0,1-6.06-1.53l2-.91a4.25,4.25,0,0,0,.62.91,1.44,1.44,0,0,0,1,.39c.78,0,1.17-.35,1.17-1.07q0-.61-.9-1.14l-.7-.34-.71-.34a4.26,4.26,0,0,1-1.41-1,2.4,2.4,0,0,1-.53-1.61,2.87,2.87,0,0,1,.89-2.15,3.13,3.13,0,0,1,2.22-.85A3,3,0,0,1,738.4,259.88Z"/>
  </g>
  <g>
    <path class="cls-1" d="M526.16,184.26l2.68-15.83h4.08l3.17,8.44,3.15-8.44h4.07L546,184.26h-4.09l-1.37-9.11-3.74,9.11h-1.64l-3.54-9.11-1.37,9.11Z"/>
    <path class="cls-1" d="M547.83,178.78a5.22,5.22,0,0,1,.48-2.23,5.44,5.44,0,0,1,1.34-1.81,6.62,6.62,0,0,1,2.05-1.21,7.9,7.9,0,0,1,5.17,0,6.57,6.57,0,0,1,2.06,1.2,5.32,5.32,0,0,1,1.35,1.83,5.56,5.56,0,0,1,.48,2.34,5.48,5.48,0,0,1-.49,2.34,5.69,5.69,0,0,1-1.35,1.83,6.18,6.18,0,0,1-2.07,1.18,8,8,0,0,1-2.62.42,7.55,7.55,0,0,1-2.56-.42,6,6,0,0,1-2-1.2,5.51,5.51,0,0,1-1.33-1.85A5.89,5.89,0,0,1,547.83,178.78Zm4,0a2.32,2.32,0,0,0,.2,1,2.85,2.85,0,0,0,.52.79,2.32,2.32,0,0,0,.78.52,2.5,2.5,0,0,0,1.91,0,2.32,2.32,0,0,0,.78-.52,2.85,2.85,0,0,0,.52-.79,2.43,2.43,0,0,0,0-1.93,2.85,2.85,0,0,0-.52-.79,2.32,2.32,0,0,0-.78-.52,2.5,2.5,0,0,0-1.91,0,2.32,2.32,0,0,0-.78.52,2.8,2.8,0,0,0-.52.78A2.15,2.15,0,0,0,551.84,178.82Z"/>
    <path class="cls-1" d="M571.26,166.83h3.82v17.43h-3.82v-1.19A4,4,0,0,1,568,184.6a5.33,5.33,0,0,1-2.17-.44,5.39,5.39,0,0,1-1.72-1.22,5.55,5.55,0,0,1-1.14-1.83,6,6,0,0,1-.41-2.26,6.21,6.21,0,0,1,.39-2.2,5.35,5.35,0,0,1,1.1-1.82,5.18,5.18,0,0,1,1.71-1.22,5.12,5.12,0,0,1,2.19-.46,4.37,4.37,0,0,1,3.34,1.41Zm-4.79,12a2.58,2.58,0,0,0,.19,1,2.64,2.64,0,0,0,.52.79,2.22,2.22,0,0,0,.78.52,2.55,2.55,0,0,0,1.93,0,2.18,2.18,0,0,0,.77-.52,2.63,2.63,0,0,0,.53-.78,2.3,2.3,0,0,0,.2-.94,2.39,2.39,0,0,0-.2-1,2.67,2.67,0,0,0-.53-.79,2.33,2.33,0,0,0-.77-.52,2.5,2.5,0,0,0-1.91,0,2.48,2.48,0,0,0-.78.52,2.93,2.93,0,0,0-.53.77A2.26,2.26,0,0,0,566.47,178.85Z"/>
    <path class="cls-1" d="M581.47,173.49v6.07a1.93,1.93,0,1,0,3.86,0v-6.07h3.8v6.8a3.88,3.88,0,0,1-1.43,3.28,9,9,0,0,1-8.59,0,3.86,3.86,0,0,1-1.44-3.28v-6.8Z"/>
    <path class="cls-1" d="M595.52,166.83v17.43h-3.8V166.83Z"/>
    <path class="cls-1" d="M601.54,179.52c0,1.64.77,2.45,2.31,2.45a2.06,2.06,0,0,0,1.87-1h3.68q-1.11,3.69-5.57,3.69a7.17,7.17,0,0,1-2.5-.41,5.64,5.64,0,0,1-1.94-1.16,5.34,5.34,0,0,1-1.25-1.81,6.08,6.08,0,0,1-.44-2.35,6.66,6.66,0,0,1,.42-2.43,5,5,0,0,1,1.2-1.83,5.17,5.17,0,0,1,1.88-1.17,7.14,7.14,0,0,1,2.49-.41,7,7,0,0,1,2.45.41,4.88,4.88,0,0,1,1.85,1.19,5.15,5.15,0,0,1,1.16,1.9,7.68,7.68,0,0,1,.39,2.53v.4Zm4.46-2.21a2.32,2.32,0,0,0-.78-1.28,2.19,2.19,0,0,0-1.43-.48,2.16,2.16,0,0,0-1.44.46,2.1,2.1,0,0,0-.7,1.3Z"/>
    <path class="cls-1" d="M625.21,171.92v12.34H621.1V171.92h-3.39v-3.49h10.88v3.49Z"/>
    <path class="cls-1" d="M632.77,179.52c0,1.64.77,2.45,2.31,2.45a2.06,2.06,0,0,0,1.87-1h3.67q-1.11,3.69-5.56,3.69a7.17,7.17,0,0,1-2.5-.41,5.54,5.54,0,0,1-1.94-1.16,5.2,5.2,0,0,1-1.25-1.81,6.08,6.08,0,0,1-.44-2.35,6.66,6.66,0,0,1,.42-2.43,5.14,5.14,0,0,1,1.19-1.83,5.25,5.25,0,0,1,1.88-1.17,7.22,7.22,0,0,1,2.49-.41,7.05,7.05,0,0,1,2.46.41,5,5,0,0,1,1.85,1.19,5.13,5.13,0,0,1,1.15,1.9,7.42,7.42,0,0,1,.4,2.53v.4Zm4.45-2.21a2.25,2.25,0,0,0-.77-1.28,2.21,2.21,0,0,0-1.43-.48,2.16,2.16,0,0,0-1.44.46,2.06,2.06,0,0,0-.7,1.3Z"/>
    <path class="cls-1" d="M642.93,173.49h3.81v1.32a4.9,4.9,0,0,1,3.48-1.49,4.05,4.05,0,0,1,3.66,2,4.07,4.07,0,0,1,3.65-2,4.81,4.81,0,0,1,1.43.22,3,3,0,0,1,1.15.69,3.44,3.44,0,0,1,.77,1.23,5.26,5.26,0,0,1,.28,1.83v7h-3.8V179a6.93,6.93,0,0,0-.11-1.34,2.09,2.09,0,0,0-.34-.82,1.12,1.12,0,0,0-.51-.4,1.9,1.9,0,0,0-.63-.11q-1.83,0-1.83,2.67v5.31h-3.8V179a7,7,0,0,0-.11-1.35,2.54,2.54,0,0,0-.3-.85,1.05,1.05,0,0,0-.52-.44,2.29,2.29,0,0,0-.73-.11,2.09,2.09,0,0,0-.67.1,1.29,1.29,0,0,0-.56.41,2.34,2.34,0,0,0-.38.84,6,6,0,0,0-.13,1.4v5.31h-3.81Z"/>
    <path class="cls-1" d="M668,189.64h-3.81V173.49H668v1.2a4,4,0,0,1,3.31-1.54,5.08,5.08,0,0,1,2.16.46,5.38,5.38,0,0,1,2.87,3,6,6,0,0,1,.41,2.25,5.77,5.77,0,0,1-.41,2.22,5.71,5.71,0,0,1-1.13,1.81,5.18,5.18,0,0,1-3.85,1.66,4.45,4.45,0,0,1-3.36-1.39Zm4.78-10.73a2.56,2.56,0,0,0-.18-1,2.16,2.16,0,0,0-.51-.78,2.47,2.47,0,0,0-1.76-.74,2.34,2.34,0,0,0-.95.19,2.39,2.39,0,0,0-.76.52,2.67,2.67,0,0,0-.53.79,2.39,2.39,0,0,0-.2,1,2.29,2.29,0,0,0,.19.94,2.43,2.43,0,0,0,.52.77,2.64,2.64,0,0,0,.79.52,2.23,2.23,0,0,0,1,.2,2.41,2.41,0,0,0,1.71-.71,2.6,2.6,0,0,0,.52-.78A2.09,2.09,0,0,0,672.73,178.91Z"/>
    <path class="cls-1" d="M682.67,166.83v17.43h-3.8V166.83Z"/>
    <path class="cls-1" d="M693.59,173.49h3.82v10.77h-3.82v-1.19a4,4,0,0,1-3.3,1.53A5.25,5.25,0,0,1,686.4,183a5.55,5.55,0,0,1-1.14-1.83,6.28,6.28,0,0,1-.41-2.28,6,6,0,0,1,.4-2.2,5.89,5.89,0,0,1,1.11-1.82,5.46,5.46,0,0,1,1.7-1.22,5.08,5.08,0,0,1,2.19-.46,4.4,4.4,0,0,1,3.34,1.41Zm-4.79,5.36a2.4,2.4,0,0,0,.19,1,2.62,2.62,0,0,0,.51.79,2.32,2.32,0,0,0,.78.52,2.45,2.45,0,0,0,1,.19,2.37,2.37,0,0,0,1-.19,2.32,2.32,0,0,0,.78-.52,2.6,2.6,0,0,0,.52-.78,2.15,2.15,0,0,0,.2-.94,2.23,2.23,0,0,0-.2-1,2.64,2.64,0,0,0-.52-.79,2.48,2.48,0,0,0-.78-.52,2.37,2.37,0,0,0-1-.19,2.45,2.45,0,0,0-1,.19,2.48,2.48,0,0,0-.78.52,2.65,2.65,0,0,0-.51.77A2.26,2.26,0,0,0,688.8,178.85Z"/>
    <path class="cls-1" d="M704.23,176.66v7.6h-3.8v-7.6h-1.26v-3.17h1.26v-3.23h3.8v3.23h2.17v3.17Z"/>
    <path class="cls-1" d="M711.46,179.52c0,1.64.77,2.45,2.31,2.45a2.07,2.07,0,0,0,1.87-1h3.67c-.74,2.46-2.6,3.69-5.56,3.69a7.13,7.13,0,0,1-2.5-.41,5.59,5.59,0,0,1-2-1.16,5.48,5.48,0,0,1-1.25-1.81,6.08,6.08,0,0,1-.44-2.35,6.66,6.66,0,0,1,.42-2.43,5,5,0,0,1,1.2-1.83,5.25,5.25,0,0,1,1.88-1.17,7.22,7.22,0,0,1,2.49-.41,7.05,7.05,0,0,1,2.46.41,4.92,4.92,0,0,1,1.84,1.19,5.15,5.15,0,0,1,1.16,1.9,7.67,7.67,0,0,1,.4,2.53v.4Zm4.45-2.21a2.32,2.32,0,0,0-.78-1.28,2.19,2.19,0,0,0-1.43-.48,2.15,2.15,0,0,0-1.43.46,2.07,2.07,0,0,0-.71,1.3Z"/>
    <path class="cls-1" d="M728.76,176.26a4.49,4.49,0,0,0-2.06-.54,1.55,1.55,0,0,0-.85.21.63.63,0,0,0-.32.56.69.69,0,0,0,.05.31.49.49,0,0,0,.23.22,2.14,2.14,0,0,0,.52.19l.92.21a4.36,4.36,0,0,1,2.35,1.12,2.86,2.86,0,0,1,.78,2.07,3.76,3.76,0,0,1-.38,1.7,3.58,3.58,0,0,1-1,1.27,5.11,5.11,0,0,1-1.62.8,7.17,7.17,0,0,1-2.08.28,8.4,8.4,0,0,1-4.3-1.24l1.38-2.68a5.51,5.51,0,0,0,3,1.09,1.53,1.53,0,0,0,.86-.23.7.7,0,0,0,.33-.59.89.89,0,0,0,0-.35.56.56,0,0,0-.22-.25,1.52,1.52,0,0,0-.49-.21c-.22-.06-.5-.13-.85-.2a4.88,4.88,0,0,1-2.47-1.06,2.62,2.62,0,0,1-.7-1.94,3.89,3.89,0,0,1,.33-1.63,3.51,3.51,0,0,1,1-1.23,4.64,4.64,0,0,1,1.52-.78,6.89,6.89,0,0,1,2-.27,9,9,0,0,1,3.46.69Z"/>
  </g>
  <path class="cls-1" d="M642.86,138.76H612.51l9.35-9.7q3.71-3.84,5.8-6.52a34.76,34.76,0,0,0,3.12-4.53,11.72,11.72,0,0,0,1.28-3,9.11,9.11,0,0,0,.25-2,4.93,4.93,0,0,0-.28-1.65,4.08,4.08,0,0,0-4-2.8,4,4,0,0,0-3.13,1.3,4.79,4.79,0,0,0-1.12,3.25,12.22,12.22,0,0,0,.15,1.6h-10.7a16.22,16.22,0,0,1,1.07-6,13.67,13.67,0,0,1,3-4.65,13.37,13.37,0,0,1,4.62-3,16,16,0,0,1,5.88-1,16.62,16.62,0,0,1,5.82,1,13.93,13.93,0,0,1,4.63,2.8,12.83,12.83,0,0,1,3.05,4.28,13.13,13.13,0,0,1,1.1,5.37,12.45,12.45,0,0,1-1.33,5.73,20.06,20.06,0,0,1-4.22,5.37l-6.25,5.85h12.2Z"/>
  <g>
    <path class="cls-2" d="M816.82,204.18h-6.35V208h6.16v2.25h-6.16v5.29h6.35v2.24h-8.74V201.93h8.74Z"/>
    <path class="cls-2" d="M821.82,200.44v17.32h-2.31V200.44Z"/>
    <path class="cls-2" d="M824.39,203.62a1.51,1.51,0,0,1,3,0,1.46,1.46,0,0,1-.44,1.07,1.44,1.44,0,0,1-1.06.44,1.5,1.5,0,0,1-1.51-1.52Zm2.66,4.16v10h-2.31v-10Z"/>
    <path class="cls-2" d="M830,207.78h2.31v.92a4.4,4.4,0,0,1,1.14-.94,2.62,2.62,0,0,1,1.26-.26,3.06,3.06,0,0,1,2.68,1.48,3.44,3.44,0,0,1,2.94-1.48q3.38,0,3.37,4.09v6.17h-2.32v-5.54a4.3,4.3,0,0,0-.34-2,1.26,1.26,0,0,0-1.18-.61,1.5,1.5,0,0,0-1.39.72,4.64,4.64,0,0,0-.44,2.31v5.15h-2.32v-5.51q0-2.67-1.53-2.67a1.53,1.53,0,0,0-1.42.73,4.5,4.5,0,0,0-.45,2.3v5.15H830Z"/>
    <path class="cls-2" d="M846.24,203.62a1.5,1.5,0,0,1,1.49-1.48,1.44,1.44,0,0,1,1.07.44,1.42,1.42,0,0,1,.44,1,1.46,1.46,0,0,1-.44,1.07,1.44,1.44,0,0,1-1.06.44,1.46,1.46,0,0,1-1.06-.44A1.43,1.43,0,0,1,846.24,203.62Zm2.65,4.16v10h-2.31v-10Z"/>
    <path class="cls-2" d="M851.81,207.78h2.32v.92a3.8,3.8,0,0,1,2.73-1.2,3.46,3.46,0,0,1,2.72,1.1,4.47,4.47,0,0,1,.84,3v6.12H858.1v-5.57a3.72,3.72,0,0,0-.41-2.05,1.67,1.67,0,0,0-1.46-.57,1.78,1.78,0,0,0-1.63.76,5.27,5.27,0,0,0-.47,2.61v4.82h-2.32Z"/>
    <path class="cls-2" d="M870.69,207.78H873v10h-2.32v-1a4.43,4.43,0,0,1-6.49-.17,5.53,5.53,0,0,1-1.34-3.81A5.35,5.35,0,0,1,864.2,209a4.34,4.34,0,0,1,3.36-1.5,4.25,4.25,0,0,1,3.13,1.43Zm-5.48,5a3.51,3.51,0,0,0,.77,2.34,2.52,2.52,0,0,0,2,.91,2.62,2.62,0,0,0,2.07-.88,3.8,3.8,0,0,0,0-4.64,2.61,2.61,0,0,0-2-.89,2.57,2.57,0,0,0-2,.9A3.36,3.36,0,0,0,865.21,212.74Z"/>
    <path class="cls-2" d="M878.3,209.93v7.83H876v-7.83h-1v-2.15h1v-3.66h2.31v3.66h1.79v2.15Z"/>
    <path class="cls-2" d="M890.94,213.31h-7.15a3,3,0,0,0,.79,2,2.46,2.46,0,0,0,1.82.72,2.42,2.42,0,0,0,1.43-.41,6.13,6.13,0,0,0,1.26-1.52l1.94,1.09a7.73,7.73,0,0,1-.95,1.32,5.07,5.07,0,0,1-1.08.9,4.4,4.4,0,0,1-1.24.52,5.94,5.94,0,0,1-1.44.16,4.72,4.72,0,0,1-3.59-1.43,5.42,5.42,0,0,1-1.35-3.84,5.48,5.48,0,0,1,1.31-3.83,5,5,0,0,1,7,0,5.52,5.52,0,0,1,1.27,3.87Zm-2.37-1.88a2.21,2.21,0,0,0-2.32-1.85,2.36,2.36,0,0,0-1.47.5,2.2,2.2,0,0,0-.51.58,2.33,2.33,0,0,0-.33.77Z"/>
    <path class="cls-2" d="M900,207.78h2.3v.92a4.76,4.76,0,0,1,1.14-.94,2.67,2.67,0,0,1,1.26-.26,3.06,3.06,0,0,1,2.68,1.48,3.44,3.44,0,0,1,2.94-1.48q3.38,0,3.37,4.09v6.17h-2.31v-5.54a4.28,4.28,0,0,0-.35-2,1.25,1.25,0,0,0-1.18-.61,1.5,1.5,0,0,0-1.39.72,4.64,4.64,0,0,0-.44,2.31v5.15h-2.31v-5.51c0-1.78-.52-2.67-1.54-2.67a1.54,1.54,0,0,0-1.42.73,4.5,4.5,0,0,0-.45,2.3v5.15H900Z"/>
    <path class="cls-2" d="M923.92,207.78h2.32v10h-2.32v-1a4.43,4.43,0,0,1-6.49-.17,5.53,5.53,0,0,1-1.35-3.81,5.35,5.35,0,0,1,1.35-3.74,4.33,4.33,0,0,1,6.49-.07Zm-5.48,5a3.51,3.51,0,0,0,.77,2.34,2.52,2.52,0,0,0,2,.91,2.62,2.62,0,0,0,2.07-.88,3.8,3.8,0,0,0,0-4.64,2.61,2.61,0,0,0-2-.89,2.57,2.57,0,0,0-2,.9A3.36,3.36,0,0,0,918.44,212.74Z"/>
    <path class="cls-2" d="M929.15,207.78h2.32v.92a3.76,3.76,0,0,1,2.72-1.2,3.45,3.45,0,0,1,2.72,1.1,4.47,4.47,0,0,1,.84,3v6.12h-2.32v-5.57a3.64,3.64,0,0,0-.41-2.05,1.65,1.65,0,0,0-1.45-.57,1.77,1.77,0,0,0-1.63.76,5.16,5.16,0,0,0-.47,2.61v4.82h-2.32Z"/>
    <path class="cls-2" d="M943,207.78v5.73c0,1.65.65,2.48,2,2.48s2-.83,2-2.48v-5.73h2.3v5.78a6.38,6.38,0,0,1-.29,2.07,3.53,3.53,0,0,1-1,1.41,4.86,4.86,0,0,1-5.93,0,3.59,3.59,0,0,1-1-1.41,5.73,5.73,0,0,1-.29-2.07v-5.78Z"/>
    <path class="cls-2" d="M959.47,207.78h2.32v10h-2.32v-1a4.43,4.43,0,0,1-6.49-.17,5.53,5.53,0,0,1-1.35-3.81A5.35,5.35,0,0,1,953,209a4.33,4.33,0,0,1,6.49-.07Zm-5.48,5a3.51,3.51,0,0,0,.77,2.34,2.52,2.52,0,0,0,2,.91,2.62,2.62,0,0,0,2.07-.88,3.8,3.8,0,0,0,0-4.64,2.61,2.61,0,0,0-2.05-.89,2.57,2.57,0,0,0-2,.9A3.36,3.36,0,0,0,954,212.74Z"/>
    <path class="cls-2" d="M967,200.44v17.32H964.7V200.44Z"/>
    <path class="cls-2" d="M815.33,248.4H813V233h2.31v1.08a4.26,4.26,0,0,1,3.1-1.36,4.32,4.32,0,0,1,3.39,1.52,5.47,5.47,0,0,1,1.35,3.8,5.35,5.35,0,0,1-1.34,3.74,4.38,4.38,0,0,1-6.5.09ZM820.82,238a3.44,3.44,0,0,0-.78-2.34,2.52,2.52,0,0,0-2-.91,2.61,2.61,0,0,0-2.06.88,3.33,3.33,0,0,0-.79,2.32,3.4,3.4,0,0,0,.79,2.32,2.6,2.6,0,0,0,2,.89,2.51,2.51,0,0,0,2-.9A3.3,3.3,0,0,0,820.82,238Z"/>
    <path class="cls-2" d="M825.62,233h2.3v.89a4.26,4.26,0,0,1,1.13-.91,2.58,2.58,0,0,1,1.19-.26,3.8,3.8,0,0,1,1.91.59l-1.06,2.12a2.17,2.17,0,0,0-1.28-.48c-1.26,0-1.89.95-1.89,2.86V243h-2.3Z"/>
    <path class="cls-2" d="M832.81,237.9a5,5,0,0,1,1.55-3.68,5.46,5.46,0,0,1,7.57,0,5.11,5.11,0,0,1,1.54,3.75,5.05,5.05,0,0,1-1.55,3.76,5.29,5.29,0,0,1-3.83,1.51,5.06,5.06,0,0,1-3.76-1.54A5.17,5.17,0,0,1,832.81,237.9Zm2.36,0a3.38,3.38,0,0,0,.8,2.37,3.12,3.12,0,0,0,4.33,0,3.76,3.76,0,0,0,0-4.66,2.82,2.82,0,0,0-2.17-.88,2.78,2.78,0,0,0-2.14.88A3.25,3.25,0,0,0,835.17,237.94Z"/>
    <path class="cls-2" d="M855.57,242.73c0,.47,0,.89-.05,1.24a7.29,7.29,0,0,1-.13.95,4.18,4.18,0,0,1-1,1.94,4.66,4.66,0,0,1-3.72,1.56,4.94,4.94,0,0,1-3.29-1.08,4.37,4.37,0,0,1-1.54-3.06h2.31a2.64,2.64,0,0,0,.44,1.13,2.47,2.47,0,0,0,2.1.94c1.69,0,2.53-1,2.53-3.11v-1.39a4.33,4.33,0,0,1-3.17,1.4,4.24,4.24,0,0,1-3.34-1.48,5.42,5.42,0,0,1-1.31-3.74,5.73,5.73,0,0,1,1.22-3.71,4.23,4.23,0,0,1,3.46-1.62,4,4,0,0,1,3.14,1.4V233h2.31ZM853.35,238a3.37,3.37,0,0,0-.78-2.33,2.58,2.58,0,0,0-2-.89,2.52,2.52,0,0,0-2.07,1,3.56,3.56,0,0,0-.69,2.26,3.52,3.52,0,0,0,.69,2.24,2.5,2.5,0,0,0,2.07.95,2.53,2.53,0,0,0,2.09-1A3.42,3.42,0,0,0,853.35,238Z"/>
    <path class="cls-2" d="M858.48,233h2.31v.89a4.24,4.24,0,0,1,1.12-.91,2.64,2.64,0,0,1,1.19-.26,3.78,3.78,0,0,1,1.91.59L864,235.41a2.15,2.15,0,0,0-1.28-.48c-1.25,0-1.88.95-1.88,2.86V243h-2.31Z"/>
    <path class="cls-2" d="M873.55,233h2.32v10h-2.32v-1a4.43,4.43,0,0,1-6.49-.17,5.59,5.59,0,0,1-1.34-3.81,5.39,5.39,0,0,1,1.34-3.74,4.34,4.34,0,0,1,3.36-1.5,4.25,4.25,0,0,1,3.13,1.43Zm-5.47,5a3.44,3.44,0,0,0,.77,2.34,2.53,2.53,0,0,0,2,.91,2.65,2.65,0,0,0,2.08-.88,3.8,3.8,0,0,0,0-4.64,2.63,2.63,0,0,0-2-.89,2.54,2.54,0,0,0-2,.9A3.31,3.31,0,0,0,868.08,237.94Z"/>
    <path class="cls-2" d="M878.78,233h2.31v.92a4.4,4.4,0,0,1,1.14-.94,2.74,2.74,0,0,1,1.26-.26,3,3,0,0,1,2.67,1.48,3.47,3.47,0,0,1,3-1.48q3.38,0,3.37,4.09V243h-2.32v-5.54a4.16,4.16,0,0,0-.35-2,1.24,1.24,0,0,0-1.17-.61,1.5,1.5,0,0,0-1.39.72,4.64,4.64,0,0,0-.44,2.31V243h-2.32v-5.51q0-2.67-1.53-2.67a1.55,1.55,0,0,0-1.43.73,4.62,4.62,0,0,0-.44,2.3V243h-2.31Z"/>
    <path class="cls-2" d="M895.39,233h2.31v.92a4.4,4.4,0,0,1,1.14-.94,2.74,2.74,0,0,1,1.26-.26,3.06,3.06,0,0,1,2.68,1.48,3.44,3.44,0,0,1,2.94-1.48q3.38,0,3.37,4.09V243h-2.32v-5.54a4.3,4.3,0,0,0-.34-2,1.26,1.26,0,0,0-1.18-.61,1.5,1.5,0,0,0-1.39.72,4.64,4.64,0,0,0-.44,2.31V243H901.1v-5.51q0-2.67-1.53-2.67a1.53,1.53,0,0,0-1.42.73,4.5,4.5,0,0,0-.45,2.3V243h-2.31Z"/>
    <path class="cls-2" d="M911.66,228.82a1.5,1.5,0,0,1,1.49-1.48,1.44,1.44,0,0,1,1.07.44,1.42,1.42,0,0,1,.44,1.05,1.46,1.46,0,0,1-.44,1.07,1.44,1.44,0,0,1-1.06.44,1.46,1.46,0,0,1-1.06-.44A1.43,1.43,0,0,1,911.66,228.82Zm2.65,4.16v10H912V233Z"/>
    <path class="cls-2" d="M917.23,233h2.32v.92a3.8,3.8,0,0,1,2.73-1.2,3.43,3.43,0,0,1,2.72,1.1,4.47,4.47,0,0,1,.84,3V243h-2.32v-5.58a3.71,3.71,0,0,0-.41-2,1.67,1.67,0,0,0-1.46-.57,1.78,1.78,0,0,0-1.63.76,5.27,5.27,0,0,0-.47,2.61V243h-2.32Z"/>
    <path class="cls-2" d="M938.41,242.73c0,.47,0,.89,0,1.24a7.29,7.29,0,0,1-.13.95,4.18,4.18,0,0,1-1,1.94,4.66,4.66,0,0,1-3.72,1.56,4.94,4.94,0,0,1-3.29-1.08,4.37,4.37,0,0,1-1.54-3.06H931a2.41,2.41,0,0,0,.44,1.13,2.46,2.46,0,0,0,2.09.94c1.69,0,2.53-1,2.53-3.11v-1.39a4.33,4.33,0,0,1-3.17,1.4,4.24,4.24,0,0,1-3.34-1.48,5.42,5.42,0,0,1-1.31-3.74,5.73,5.73,0,0,1,1.22-3.71A4.23,4.23,0,0,1,933,232.7a4,4,0,0,1,3.14,1.4V233h2.31ZM936.19,238a3.37,3.37,0,0,0-.78-2.33,2.58,2.58,0,0,0-2-.89,2.52,2.52,0,0,0-2.07,1,3.56,3.56,0,0,0-.68,2.26,3.52,3.52,0,0,0,.68,2.24,2.5,2.5,0,0,0,2.07.95,2.55,2.55,0,0,0,2.1-1A3.47,3.47,0,0,0,936.19,238Z"/>
    <path class="cls-2" d="M947.45,228.82a1.51,1.51,0,0,1,3,0,1.46,1.46,0,0,1-.44,1.07,1.44,1.44,0,0,1-1.06.44,1.5,1.5,0,0,1-1.51-1.52Zm2.66,4.16v10H947.8V233Z"/>
    <path class="cls-2" d="M953,233h2.32v.92a3.76,3.76,0,0,1,2.73-1.2,3.41,3.41,0,0,1,2.71,1.1,4.47,4.47,0,0,1,.84,3V243h-2.31v-5.58a3.71,3.71,0,0,0-.41-2,1.68,1.68,0,0,0-1.46-.57,1.77,1.77,0,0,0-1.63.76,5.16,5.16,0,0,0-.47,2.61V243H953Z"/>
    <path class="cls-2" d="M862.48,268.45h-3l-1.24-1.27a8,8,0,0,1-4.41,1.27,8.26,8.26,0,0,1-5.59-2.13,7.67,7.67,0,0,1-2.66-6,7.89,7.89,0,0,1,2.52-6,8.28,8.28,0,0,1,11.16-.29,8,8,0,0,1,2.87,6.37,7.74,7.74,0,0,1-2.26,5.47Zm-6.57-6.55,2.3,2.29a5.44,5.44,0,0,0,1.51-3.91A5.87,5.87,0,0,0,858,256a5.65,5.65,0,0,0-4.2-1.72,5.53,5.53,0,0,0-4.19,1.72,6,6,0,0,0-1.65,4.34,5.52,5.52,0,0,0,1.71,4.19,5.72,5.72,0,0,0,4,1.68,5.62,5.62,0,0,0,2.8-.7l-3.73-3.61Z"/>
    <path class="cls-2" d="M867,258.18v5.73c0,1.65.66,2.48,2,2.48s2-.83,2-2.48v-5.73h2.31V264a6.37,6.37,0,0,1-.3,2.07,3.5,3.5,0,0,1-1,1.41,4.87,4.87,0,0,1-5.94,0,3.59,3.59,0,0,1-1-1.41,5.73,5.73,0,0,1-.28-2.07v-5.78Z"/>
    <path class="cls-2" d="M883.5,258.18h2.32v10H883.5v-1A4.43,4.43,0,0,1,877,267a5.57,5.57,0,0,1-1.34-3.81A5.39,5.39,0,0,1,877,259.4a4.34,4.34,0,0,1,3.37-1.5,4.22,4.22,0,0,1,3.12,1.44Zm-5.47,5a3.44,3.44,0,0,0,.77,2.34,2.5,2.5,0,0,0,2,.91,2.65,2.65,0,0,0,2.07-.88,3.8,3.8,0,0,0,0-4.64,2.63,2.63,0,0,0-2.05-.89,2.54,2.54,0,0,0-2,.9A3.31,3.31,0,0,0,878,263.14Z"/>
    <path class="cls-2" d="M891,250.85v17.31h-2.31V250.85Z"/>
    <path class="cls-2" d="M896.34,260.33v7.83H894v-7.83h-1v-2.15h1v-3.66h2.31v3.66h1.8v2.15Z"/>
    <path class="cls-2" d="M899.7,258.18H902v.89a4.26,4.26,0,0,1,1.13-.91,2.46,2.46,0,0,1,1.19-.26,3.8,3.8,0,0,1,1.91.59l-1.06,2.12a2.17,2.17,0,0,0-1.28-.48c-1.26,0-1.89,1-1.89,2.86v5.17H899.7Z"/>
    <path class="cls-2" d="M907.53,254a1.39,1.39,0,0,1,.44-1,1.5,1.5,0,0,1,2.12,0,1.4,1.4,0,0,1,.44,1.05,1.5,1.5,0,0,1-1.49,1.51,1.46,1.46,0,0,1-1.07-.44A1.43,1.43,0,0,1,907.53,254Zm2.65,4.16v10h-2.3v-10Z"/>
    <path class="cls-2" d="M920.88,258.61v3.06a5.68,5.68,0,0,0-1.42-1.32A2.71,2.71,0,0,0,918,260a2.9,2.9,0,0,0-2.17.91,3.22,3.22,0,0,0-.86,2.29,3.29,3.29,0,0,0,.83,2.31,2.82,2.82,0,0,0,2.15.9,2.9,2.9,0,0,0,1.46-.36,5.68,5.68,0,0,0,1.45-1.35v3a6,6,0,0,1-2.81.73,5.37,5.37,0,0,1-3.88-1.5,5,5,0,0,1-1.56-3.74,5.06,5.06,0,0,1,1.58-3.77,5.35,5.35,0,0,1,3.88-1.54A5.73,5.73,0,0,1,920.88,258.61Z"/>
    <path class="cls-2" d="M928.92,259.88l-1.91,1c-.3-.61-.67-.92-1.12-.92a.76.76,0,0,0-.54.21.71.71,0,0,0-.23.54c0,.38.45.76,1.34,1.14a8,8,0,0,1,2.47,1.45,2.53,2.53,0,0,1,.63,1.8,3.15,3.15,0,0,1-1.06,2.42,3.83,3.83,0,0,1-6.06-1.53l2-.91a4.25,4.25,0,0,0,.62.91,1.44,1.44,0,0,0,1,.39c.78,0,1.17-.35,1.17-1.07,0-.41-.31-.79-.91-1.14l-.69-.34-.71-.34a4.44,4.44,0,0,1-1.42-1,2.4,2.4,0,0,1-.52-1.61,2.87,2.87,0,0,1,.89-2.15,3.13,3.13,0,0,1,2.22-.85A3,3,0,0,1,928.92,259.88Z"/>
  </g>
  <g>
    <path class="cls-1" d="M824.5,168.43v15.83h-4.12V168.43Z"/>
    <path class="cls-1" d="M827.46,173.49h3.8v1.37a4.17,4.17,0,0,1,1.58-1.28,5,5,0,0,1,1.87-.32,4.6,4.6,0,0,1,1.94.37,3.82,3.82,0,0,1,1.38,1,3,3,0,0,1,.62,1.21,6,6,0,0,1,.17,1.54v6.84H835v-5.44a6.38,6.38,0,0,0-.11-1.29,1.62,1.62,0,0,0-.41-.78,1.45,1.45,0,0,0-.57-.36,2.09,2.09,0,0,0-.67-.11,1.88,1.88,0,0,0-1.48.58,2.37,2.37,0,0,0-.52,1.65v5.75h-3.8Z"/>
    <path class="cls-1" d="M845.65,176.66v7.6h-3.8v-7.6h-1.26v-3.17h1.26v-3.23h3.8v3.23h2.16v3.17Z"/>
    <path class="cls-1" d="M852.87,179.52c0,1.64.77,2.45,2.31,2.45a2.06,2.06,0,0,0,1.87-1h3.67q-1.11,3.69-5.56,3.69a7.17,7.17,0,0,1-2.5-.41,5.54,5.54,0,0,1-1.94-1.16,5.2,5.2,0,0,1-1.25-1.81,5.9,5.9,0,0,1-.44-2.35,6.66,6.66,0,0,1,.42-2.43,5.14,5.14,0,0,1,1.19-1.83,5.25,5.25,0,0,1,1.88-1.17,7.22,7.22,0,0,1,2.49-.41,7.05,7.05,0,0,1,2.46.41,5,5,0,0,1,1.85,1.19,5.13,5.13,0,0,1,1.15,1.9,7.42,7.42,0,0,1,.4,2.53v.4Zm4.45-2.21a2.25,2.25,0,0,0-.77-1.28,2.21,2.21,0,0,0-1.43-.48,2.16,2.16,0,0,0-1.44.46,2.06,2.06,0,0,0-.7,1.3Z"/>
    <path class="cls-1" d="M863,173.49h3.8v1.76a4.39,4.39,0,0,1,1.49-1.48,4,4,0,0,1,2-.51h.33a2.1,2.1,0,0,1,.41,0v3.63a3.62,3.62,0,0,0-1.64-.37,2.45,2.45,0,0,0-2,.78,3.5,3.5,0,0,0-.66,2.3v4.62H863Z"/>
    <path class="cls-1" d="M876.45,173.49,879,179l2.6-5.52h4.24l-5.61,10.77h-2.54l-5.54-10.77Z"/>
    <path class="cls-1" d="M890.08,179.52c0,1.64.77,2.45,2.31,2.45a2.06,2.06,0,0,0,1.87-1h3.68q-1.11,3.69-5.57,3.69a7.17,7.17,0,0,1-2.5-.41,5.64,5.64,0,0,1-1.94-1.16,5.2,5.2,0,0,1-1.25-1.81,6.08,6.08,0,0,1-.44-2.35,6.66,6.66,0,0,1,.42-2.43,5,5,0,0,1,1.2-1.83,5.17,5.17,0,0,1,1.88-1.17,7.13,7.13,0,0,1,2.48-.41,7.05,7.05,0,0,1,2.46.41,4.88,4.88,0,0,1,1.85,1.19,5.28,5.28,0,0,1,1.16,1.9,7.68,7.68,0,0,1,.39,2.53v.4Zm4.46-2.21a2.32,2.32,0,0,0-.78-1.28,2.19,2.19,0,0,0-1.43-.48,2.16,2.16,0,0,0-1.44.46,2.1,2.1,0,0,0-.7,1.3Z"/>
    <path class="cls-1" d="M900.25,173.49h3.8v1.37a4.15,4.15,0,0,1,1.57-1.28,5.08,5.08,0,0,1,1.87-.32,4.57,4.57,0,0,1,1.94.37,3.82,3.82,0,0,1,1.38,1,2.93,2.93,0,0,1,.63,1.21,6.48,6.48,0,0,1,.17,1.54v6.84h-3.8v-5.44a5.65,5.65,0,0,0-.12-1.29,1.54,1.54,0,0,0-.41-.78,1.45,1.45,0,0,0-.57-.36,2.09,2.09,0,0,0-.67-.11,1.91,1.91,0,0,0-1.48.58,2.41,2.41,0,0,0-.51,1.65v5.75h-3.8Z"/>
    <path class="cls-1" d="M918.43,176.66v7.6h-3.8v-7.6h-1.26v-3.17h1.26v-3.23h3.8v3.23h2.17v3.17Z"/>
    <path class="cls-1" d="M922.06,169.35a2.09,2.09,0,0,1,.64-1.51,2.15,2.15,0,0,1,.68-.46,2.09,2.09,0,0,1,.83-.17,2.12,2.12,0,0,1,.83.17,2.4,2.4,0,0,1,.68.46,2.27,2.27,0,0,1,.46.68,2.12,2.12,0,0,1,.17.83,2.09,2.09,0,0,1-.17.83,2.31,2.31,0,0,1-.46.69,2.63,2.63,0,0,1-.68.46,2.12,2.12,0,0,1-.83.17,2.09,2.09,0,0,1-.83-.17,2.33,2.33,0,0,1-.68-.46,2.17,2.17,0,0,1-.47-.69A2.09,2.09,0,0,1,922.06,169.35Zm4.06,4.14v10.77h-3.8V173.49Z"/>
    <path class="cls-1" d="M928.3,178.78a5.09,5.09,0,0,1,.49-2.23,5.31,5.31,0,0,1,1.34-1.81,6.39,6.39,0,0,1,2-1.21,7.87,7.87,0,0,1,5.16,0,6.46,6.46,0,0,1,2.06,1.2,5.32,5.32,0,0,1,1.35,1.83,5.42,5.42,0,0,1,.49,2.34,5.49,5.49,0,0,1-.5,2.34,5.55,5.55,0,0,1-1.35,1.83,6,6,0,0,1-2.07,1.18,7.89,7.89,0,0,1-2.61.42,7.61,7.61,0,0,1-2.57-.42,5.92,5.92,0,0,1-2-1.2,5.38,5.38,0,0,1-1.33-1.85A5.74,5.74,0,0,1,928.3,178.78Zm4,0a2.48,2.48,0,0,0,.2,1,2.88,2.88,0,0,0,.53.79,2.18,2.18,0,0,0,.77.52,2.52,2.52,0,0,0,1.92,0,2.18,2.18,0,0,0,.77-.52,2.88,2.88,0,0,0,.53-.79,2.43,2.43,0,0,0,0-1.93,2.88,2.88,0,0,0-.53-.79,2.18,2.18,0,0,0-.77-.52,2.52,2.52,0,0,0-1.92,0,2.18,2.18,0,0,0-.77.52,2.83,2.83,0,0,0-.53.78A2.3,2.3,0,0,0,932.31,178.82Z"/>
    <path class="cls-1" d="M943.42,173.49h3.8v1.37a4.17,4.17,0,0,1,1.58-1.28,5,5,0,0,1,1.87-.32,4.6,4.6,0,0,1,1.94.37,3.7,3.7,0,0,1,1.37,1,3.08,3.08,0,0,1,.64,1.21,6.51,6.51,0,0,1,.16,1.54v6.84H951v-5.44a6.38,6.38,0,0,0-.11-1.29,1.62,1.62,0,0,0-.41-.78,1.45,1.45,0,0,0-.57-.36,2.09,2.09,0,0,0-.67-.11,1.88,1.88,0,0,0-1.48.58,2.37,2.37,0,0,0-.52,1.65v5.75h-3.8Z"/>
  </g>
  <g>
    <path class="cls-1" d="M820.9,121.61h14.35v7.55H820.9Z"/>
    <path class="cls-1" d="M842.3,138.76l10.7-12.3h-.2a7.68,7.68,0,0,1-2.3,1,8.23,8.23,0,0,1-1.6.17,12.17,12.17,0,0,1-9.08-3.92,13.29,13.29,0,0,1-2.62-4.28,14.23,14.23,0,0,1-1-5.25,13.91,13.91,0,0,1,1.1-5.57,13,13,0,0,1,3.17-4.5,15.12,15.12,0,0,1,5-3,19,19,0,0,1,6.65-1.1,19.17,19.17,0,0,1,6.7,1.1,15.45,15.45,0,0,1,5,3,13.1,13.1,0,0,1,4.28,9.8,19.47,19.47,0,0,1-1.43,6.93,26.8,26.8,0,0,1-4.37,7.32l-8.75,10.6ZM858.5,114a6,6,0,0,0-.5-2.42,6.45,6.45,0,0,0-3.33-3.33,6.13,6.13,0,0,0-4.85,0,6.63,6.63,0,0,0-2,1.35,6.44,6.44,0,0,0-1.35,2,6.13,6.13,0,0,0,0,4.85,6.5,6.5,0,0,0,3.32,3.32,6.13,6.13,0,0,0,4.85,0,6.44,6.44,0,0,0,2-1.35,6.63,6.63,0,0,0,1.35-2A6,6,0,0,0,858.5,114Z"/>
    <path class="cls-1" d="M870.25,119.86a26.83,26.83,0,0,1,1.17-8.17,18.85,18.85,0,0,1,3.3-6.28,14.94,14.94,0,0,1,5-4,14.79,14.79,0,0,1,18,4,19.18,19.18,0,0,1,3.27,6.28A28.91,28.91,0,0,1,901,128a19.38,19.38,0,0,1-3.27,6.3,15,15,0,0,1-18,4,14.79,14.79,0,0,1-5-4,19.05,19.05,0,0,1-3.3-6.3A26.89,26.89,0,0,1,870.25,119.86Zm9.7,0a21.19,21.19,0,0,0,.45,4.55,13.19,13.19,0,0,0,1.27,3.55,6.86,6.86,0,0,0,2,2.33,4.48,4.48,0,0,0,5.17,0,6.52,6.52,0,0,0,2-2.33,13.19,13.19,0,0,0,1.25-3.55,22.58,22.58,0,0,0,0-9.07,12.83,12.83,0,0,0-1.25-3.55,6.5,6.5,0,0,0-2-2.3,4.44,4.44,0,0,0-5.17,0,6.84,6.84,0,0,0-2,2.3,12.83,12.83,0,0,0-1.27,3.55A21.31,21.31,0,0,0,880,119.86Z"/>
    <path class="cls-1" d="M905.14,109.71a9,9,0,0,1,.78-3.8,7.87,7.87,0,0,1,2.18-2.85,10.23,10.23,0,0,1,3.32-1.77,13.69,13.69,0,0,1,4.28-.63,11.63,11.63,0,0,1,4,.68,9.7,9.7,0,0,1,3.19,1.87,8.4,8.4,0,0,1,2.11,2.88,8.89,8.89,0,0,1,.75,3.67,9.3,9.3,0,0,1-.78,3.88,8.68,8.68,0,0,1-2.15,3,9.37,9.37,0,0,1-3.3,1.87,12.94,12.94,0,0,1-4.23.65,10.56,10.56,0,0,1-7.4-2.52A8.89,8.89,0,0,1,905.14,109.71Zm6.06.1a4.3,4.3,0,0,0,1.19,3,4,4,0,0,0,3.06,1.3,3.81,3.81,0,0,0,1.62-.35,4.42,4.42,0,0,0,1.35-.92,4.64,4.64,0,0,0,.93-1.35,4,4,0,0,0,.35-1.63,4.06,4.06,0,0,0-.35-1.67,4.46,4.46,0,0,0-2.33-2.25,4,4,0,0,0-1.57-.33,4.15,4.15,0,0,0-3,1.23A4,4,0,0,0,911.2,109.81ZM937,101.06h4.85L920,138.76h-4.9Zm-5.69,28.75a8.82,8.82,0,0,1,.77-3.77,8.2,8.2,0,0,1,2.15-2.85,9.43,9.43,0,0,1,3.33-1.8,13.85,13.85,0,0,1,4.29-.63,12,12,0,0,1,4.11.68,9.24,9.24,0,0,1,3.17,1.9,8.87,8.87,0,0,1,2.08,2.9,8.76,8.76,0,0,1,.75,3.62,9.52,9.52,0,0,1-.75,3.83,8.37,8.37,0,0,1-2.13,2.95,9.75,9.75,0,0,1-3.3,1.9,12.86,12.86,0,0,1-4.28.67,12.5,12.5,0,0,1-4.17-.65,9.15,9.15,0,0,1-3.23-1.87,8.28,8.28,0,0,1-2.07-3A10.11,10.11,0,0,1,931.35,129.81Zm6.1.1a4.17,4.17,0,0,0,1.22,3.05,4.25,4.25,0,0,0,6.93-4.67,4.36,4.36,0,0,0-1-1.35,4.24,4.24,0,0,0-1.37-.9,4,4,0,0,0-1.57-.33,4.22,4.22,0,0,0-3,1.2A3.9,3.9,0,0,0,937.45,129.91Z"/>
  </g>
  <g>
    <path class="cls-3" d="M23,36.19l5.74-7.46h5.81L27.33,37.3l7.85,9.52h-6.1L23,39v7.84h-4.7V28.73H23Z"/>
    <path class="cls-3" d="M39.88,41.4c0,1.87.88,2.81,2.64,2.81a2.37,2.37,0,0,0,2.14-1.15h4.2q-1.28,4.21-6.36,4.22a8.45,8.45,0,0,1-2.86-.47,6.35,6.35,0,0,1-2.22-1.33A6.1,6.1,0,0,1,36,43.42a7,7,0,0,1-.5-2.69A7.56,7.56,0,0,1,36,38a5.76,5.76,0,0,1,1.37-2.1,6.13,6.13,0,0,1,2.15-1.34,8.14,8.14,0,0,1,2.84-.46,8,8,0,0,1,2.81.46,5.64,5.64,0,0,1,3.43,3.53A8.72,8.72,0,0,1,49,40.94v.46ZM45,38.88a2.54,2.54,0,0,0-.89-1.46,2.73,2.73,0,0,0-3.27,0A2.36,2.36,0,0,0,40,38.88Z"/>
    <path class="cls-3" d="M55.31,45.14l-6-10.63h5l3.29,6.31,3.19-6.31h5L56,53H51.11Z"/>
    <path class="cls-3" d="M85.87,33.36a5.86,5.86,0,0,0-1.54-.92,4.08,4.08,0,0,0-1.49-.3,2.42,2.42,0,0,0-1.49.43,1.35,1.35,0,0,0-.57,1.13,1.09,1.09,0,0,0,.29.79,2.41,2.41,0,0,0,.75.54,6.53,6.53,0,0,0,1.06.39l1.16.36a7.26,7.26,0,0,1,3.37,2.06,5,5,0,0,1,1.07,3.34A6.36,6.36,0,0,1,88,43.7a5.21,5.21,0,0,1-1.36,1.94,6.33,6.33,0,0,1-2.21,1.24,9.09,9.09,0,0,1-3,.45,10.94,10.94,0,0,1-6.36-2l2-3.79a8.34,8.34,0,0,0,2.09,1.39,5.09,5.09,0,0,0,2,.45A2.41,2.41,0,0,0,83,42.82a1.63,1.63,0,0,0,.57-1.2,1.55,1.55,0,0,0-.15-.71,1.37,1.37,0,0,0-.48-.55,3.5,3.5,0,0,0-.87-.47c-.36-.15-.8-.31-1.31-.48s-1.2-.41-1.79-.64a5.78,5.78,0,0,1-1.56-.92,4.46,4.46,0,0,1-1.1-1.45,5.17,5.17,0,0,1-.42-2.22,6.54,6.54,0,0,1,.44-2.44,5.39,5.39,0,0,1,1.25-1.87,5.46,5.46,0,0,1,2-1.21,7.35,7.35,0,0,1,2.6-.44,11.34,11.34,0,0,1,2.81.38,12,12,0,0,1,2.81,1.09Z"/>
    <path class="cls-3" d="M95.37,34.51v6.94a2.21,2.21,0,1,0,4.42,0V34.51h4.34v7.78A4.41,4.41,0,0,1,102.49,46a8.09,8.09,0,0,1-4.91,1.25A8.07,8.07,0,0,1,92.67,46,4.39,4.39,0,0,1,91,42.29V34.51Z"/>
    <path class="cls-3" d="M116.37,38.5a4,4,0,0,0-2.28-.77,3.15,3.15,0,0,0-1.16.21,2.89,2.89,0,0,0-1,.62,2.76,2.76,0,0,0-.64.93,3.14,3.14,0,0,0-.23,1.21,3,3,0,0,0,.23,1.19,2.88,2.88,0,0,0,.63.94,2.64,2.64,0,0,0,.94.61,3.3,3.3,0,0,0,1.18.22,3.58,3.58,0,0,0,2.28-.84v3.69a7.59,7.59,0,0,1-3.05.7,7,7,0,0,1-2.55-.46,6.43,6.43,0,0,1-2.14-1.31,6.23,6.23,0,0,1-1.48-2,6.31,6.31,0,0,1-.55-2.65,6.63,6.63,0,0,1,.53-2.67A6.29,6.29,0,0,1,108.57,36a6.47,6.47,0,0,1,2.17-1.37,7.31,7.31,0,0,1,2.7-.49,6.44,6.44,0,0,1,2.93.67Z"/>
    <path class="cls-3" d="M128.13,38.5a4,4,0,0,0-2.28-.77,3.11,3.11,0,0,0-1.16.21,2.89,2.89,0,0,0-1,.62,2.62,2.62,0,0,0-.64.93,3.14,3.14,0,0,0-.23,1.21,3,3,0,0,0,.23,1.19,2.88,2.88,0,0,0,.63.94,2.64,2.64,0,0,0,.94.61,3.3,3.3,0,0,0,1.18.22,3.6,3.6,0,0,0,2.28-.84v3.69a7.59,7.59,0,0,1-3,.7,7,7,0,0,1-2.55-.46,6.33,6.33,0,0,1-2.14-1.31,6.23,6.23,0,0,1-1.48-2,6.16,6.16,0,0,1-.55-2.65,6.63,6.63,0,0,1,.53-2.67A6.29,6.29,0,0,1,120.33,36a6.47,6.47,0,0,1,2.17-1.37,7.31,7.31,0,0,1,2.7-.49,6.44,6.44,0,0,1,2.93.67Z"/>
    <path class="cls-3" d="M134.51,41.4c0,1.87.88,2.81,2.64,2.81a2.37,2.37,0,0,0,2.14-1.15h4.2q-1.28,4.21-6.36,4.22a8.45,8.45,0,0,1-2.86-.47,6.35,6.35,0,0,1-2.22-1.33,6.1,6.1,0,0,1-1.43-2.06,7,7,0,0,1-.5-2.69A7.56,7.56,0,0,1,130.6,38a5.76,5.76,0,0,1,1.37-2.1,6.13,6.13,0,0,1,2.15-1.34,8.17,8.17,0,0,1,2.84-.46,8,8,0,0,1,2.81.46,5.64,5.64,0,0,1,3.43,3.53,8.72,8.72,0,0,1,.46,2.89v.46Zm5.09-2.52a2.54,2.54,0,0,0-.89-1.46,2.73,2.73,0,0,0-3.27,0,2.41,2.41,0,0,0-.81,1.49Z"/>
    <path class="cls-3" d="M154.29,37.68a5,5,0,0,0-2.35-.62,1.8,1.8,0,0,0-1,.24.74.74,0,0,0-.37.64.85.85,0,0,0,.06.35.6.6,0,0,0,.27.25,2,2,0,0,0,.6.22l1,.24a5,5,0,0,1,2.69,1.28,3.3,3.3,0,0,1,.89,2.37,4.23,4.23,0,0,1-.44,1.94A3.92,3.92,0,0,1,154.5,46a5.57,5.57,0,0,1-1.84.92,8.51,8.51,0,0,1-2.38.32,9.62,9.62,0,0,1-4.92-1.42l1.58-3.07A6.22,6.22,0,0,0,150.4,44a1.72,1.72,0,0,0,1-.26.79.79,0,0,0,.39-.68,1.07,1.07,0,0,0-.06-.39.67.67,0,0,0-.25-.29,1.94,1.94,0,0,0-.57-.24c-.25-.07-.57-.15-1-.23a5.55,5.55,0,0,1-2.82-1.21,3,3,0,0,1-.8-2.22,4.3,4.3,0,0,1,.38-1.86,3.85,3.85,0,0,1,1.1-1.4,5.11,5.11,0,0,1,1.74-.89,7.69,7.69,0,0,1,2.27-.31,10.25,10.25,0,0,1,4,.79Z"/>
    <path class="cls-3" d="M166.5,37.68a5,5,0,0,0-2.35-.62,1.76,1.76,0,0,0-1,.24.72.72,0,0,0-.37.64.85.85,0,0,0,.06.35.63.63,0,0,0,.26.25,2.24,2.24,0,0,0,.6.22l1.05.24a5,5,0,0,1,2.68,1.28,3.26,3.26,0,0,1,.89,2.37,4.23,4.23,0,0,1-.43,1.94,4.12,4.12,0,0,1-1.2,1.45,5.63,5.63,0,0,1-1.85.92,8.44,8.44,0,0,1-2.37.32,9.57,9.57,0,0,1-4.92-1.42l1.58-3.07A6.22,6.22,0,0,0,162.62,44a1.74,1.74,0,0,0,1-.26.78.78,0,0,0,.38-.68,1.07,1.07,0,0,0-.06-.39.61.61,0,0,0-.25-.29,1.87,1.87,0,0,0-.56-.24c-.25-.07-.57-.15-1-.23a5.47,5.47,0,0,1-2.82-1.21,3,3,0,0,1-.81-2.22,4.3,4.3,0,0,1,.39-1.86,3.75,3.75,0,0,1,1.1-1.4,5.11,5.11,0,0,1,1.74-.89,7.69,7.69,0,0,1,2.27-.31,10.25,10.25,0,0,1,4,.79Z"/>
    <path class="cls-3" d="M178.31,46.82l3.07-18.09H186l3.62,9.65,3.6-9.65h4.66L201,46.82h-4.68l-1.56-10.41-4.27,10.41h-1.87l-4.06-10.41L183,46.82Z"/>
    <path class="cls-3" d="M206.82,41.4c0,1.87.88,2.81,2.64,2.81a2.37,2.37,0,0,0,2.14-1.15h4.2q-1.28,4.21-6.36,4.22a8.45,8.45,0,0,1-2.86-.47,6.35,6.35,0,0,1-2.22-1.33,5.94,5.94,0,0,1-1.42-2.06,6.83,6.83,0,0,1-.51-2.69,7.56,7.56,0,0,1,.48-2.77,5.76,5.76,0,0,1,1.37-2.1,6.13,6.13,0,0,1,2.15-1.34,8.17,8.17,0,0,1,2.84-.46,8,8,0,0,1,2.81.46,5.64,5.64,0,0,1,3.43,3.53,8.47,8.47,0,0,1,.46,2.89v.46Zm5.09-2.52a2.54,2.54,0,0,0-.89-1.46,2.73,2.73,0,0,0-3.27,0,2.41,2.41,0,0,0-.81,1.49Z"/>
    <path class="cls-3" d="M223.46,38.14v8.68h-4.35V38.14h-1.44V34.51h1.44V30.82h4.35v3.69h2.47v3.63Z"/>
    <path class="cls-3" d="M227.56,34.51h4.34v2a5,5,0,0,1,1.71-1.69,4.48,4.48,0,0,1,2.35-.59h.37a2.09,2.09,0,0,1,.47,0v4.15a4.11,4.11,0,0,0-1.87-.43,2.79,2.79,0,0,0-2.27.9,4,4,0,0,0-.76,2.62v5.28h-4.34Z"/>
    <path class="cls-3" d="M238.46,29.78a2.29,2.29,0,0,1,.19-.94,2.32,2.32,0,0,1,.52-.78,2.49,2.49,0,0,1,.79-.53,2.29,2.29,0,0,1,.94-.19,2.41,2.41,0,0,1,1.73.72,2.5,2.5,0,0,1,.53.78,2.45,2.45,0,0,1,0,1.89,2.5,2.5,0,0,1-.53.78,2.41,2.41,0,0,1-1.73.72A2.29,2.29,0,0,1,240,32a2.49,2.49,0,0,1-.79-.53,2.46,2.46,0,0,1-.71-1.73Zm4.63,4.73V46.82h-4.35V34.51Z"/>
    <path class="cls-3" d="M255.35,38.5a4,4,0,0,0-2.28-.77,3.19,3.19,0,0,0-1.16.21,2.89,2.89,0,0,0-.95.62,2.76,2.76,0,0,0-.64.93,3.14,3.14,0,0,0-.23,1.21,3,3,0,0,0,.23,1.19,2.88,2.88,0,0,0,.63.94,2.68,2.68,0,0,0,1,.61,3.24,3.24,0,0,0,1.17.22,3.58,3.58,0,0,0,2.28-.84v3.69a7.59,7.59,0,0,1-3,.7,7,7,0,0,1-2.55-.46,6.43,6.43,0,0,1-3.62-3.35,6.31,6.31,0,0,1-.55-2.65,6.63,6.63,0,0,1,.53-2.67A6.29,6.29,0,0,1,247.55,36a6.47,6.47,0,0,1,2.17-1.37,7.31,7.31,0,0,1,2.7-.49,6.41,6.41,0,0,1,2.93.67Z"/>
    <path class="cls-3" d="M266,37.68a5,5,0,0,0-2.35-.62,1.76,1.76,0,0,0-1,.24.72.72,0,0,0-.37.64.85.85,0,0,0,.06.35.57.57,0,0,0,.26.25,2.24,2.24,0,0,0,.6.22l1,.24a5,5,0,0,1,2.69,1.28,3.26,3.26,0,0,1,.89,2.37,4.23,4.23,0,0,1-.43,1.94A4.12,4.12,0,0,1,266.2,46a5.63,5.63,0,0,1-1.85.92,8.46,8.46,0,0,1-2.38.32,9.62,9.62,0,0,1-4.92-1.42l1.59-3.07A6.2,6.2,0,0,0,262.09,44a1.75,1.75,0,0,0,1-.26.81.81,0,0,0,.38-.68,1.07,1.07,0,0,0-.06-.39.61.61,0,0,0-.25-.29,2,2,0,0,0-.56-.24c-.25-.07-.58-.15-1-.23a5.55,5.55,0,0,1-2.83-1.21,3,3,0,0,1-.8-2.22,4.3,4.3,0,0,1,.39-1.86,3.75,3.75,0,0,1,1.1-1.4,5.11,5.11,0,0,1,1.74-.89,7.69,7.69,0,0,1,2.27-.31,10.25,10.25,0,0,1,4,.79Z"/>
  </g>
</svg>
