<svg id="Layer_1" data-name="Layer 1" xmlns="http://www.w3.org/2000/svg" viewBox="0 0 1000 300"><defs><style>.cls-1{font-size:50px;}.cls-1,.cls-3{fill:#06f;}.cls-1,.cls-3,.cls-33{font-family:Futura-Bold, Futura;font-weight:700;}.cls-2{letter-spacing:-0.05em;}.cls-11,.cls-3{font-size:21px;}.cls-4{letter-spacing:-0.02em;}.cls-5{letter-spacing:-0.02em;}.cls-6{letter-spacing:0em;}.cls-7{letter-spacing:0em;}.cls-8{letter-spacing:-0.01em;}.cls-9{letter-spacing:0em;}.cls-10{letter-spacing:0.01em;}.cls-11{fill:#60606d;font-family:Futura-Medium, Futura;font-weight:500;}.cls-12{letter-spacing:0.01em;}.cls-13{letter-spacing:-0.01em;}.cls-14{letter-spacing:-0.02em;}.cls-15{letter-spacing:-0.02em;}.cls-16{letter-spacing:0.02em;}.cls-17{letter-spacing:0.04em;}.cls-18{letter-spacing:0.01em;}.cls-19{letter-spacing:-0.01em;}.cls-20{letter-spacing:0.01em;}.cls-21{letter-spacing:0.02em;}.cls-22{letter-spacing:0em;}.cls-23{letter-spacing:0.01em;}.cls-24{letter-spacing:0em;}.cls-25{letter-spacing:0.01em;}.cls-26{letter-spacing:-0.03em;}.cls-27{letter-spacing:-0.02em;}.cls-28{letter-spacing:0.03em;}.cls-29{letter-spacing:-0.04em;}.cls-30{letter-spacing:0.03em;}.cls-31{letter-spacing:-0.02em;}.cls-32{letter-spacing:-0.01em;}.cls-33{font-size:24px;fill:#003;}.cls-34{letter-spacing:-0.04em;}.cls-35{letter-spacing:-0.03em;}.cls-36{letter-spacing:-0.03em;}.cls-37{letter-spacing:0.01em;}.cls-38{letter-spacing:0em;}</style></defs><text class="cls-1" transform="translate(293.88 138.76)">+<tspan class="cls-2" x="34" y="0">1</tspan><tspan x="65.25" y="0">4%</tspan></text><text class="cls-3" transform="translate(277.51 183.76)">Co<tspan class="cls-4" x="28.71" y="0">n</tspan><tspan class="cls-5" x="42.27" y="0">v</tspan><tspan class="cls-6" x="55.46" y="0">e</tspan><tspan class="cls-7" x="69.05" y="0">r</tspan><tspan x="78.77" y="0">sion </tspan><tspan class="cls-8" x="131.65" y="0">R</tspan><tspan class="cls-9" x="146.28" y="0">a</tspan><tspan class="cls-10" x="161.01" y="0">t</tspan><tspan x="169.05" y="0">e</tspan></text><text class="cls-11" transform="translate(280.77 217.76)">I<tspan class="cls-12" x="6.19" y="0">m</tspan><tspan x="23.06" y="0">p</tspan><tspan class="cls-13" x="35.65" y="0">r</tspan><tspan class="cls-14" x="43.32" y="0">o</tspan><tspan class="cls-15" x="55.52" y="0">v</tspan><tspan x="65.72" y="0">ed </tspan><tspan class="cls-12" x="96.41" y="0">f</tspan><tspan x="102.9" y="0">ocus on</tspan><tspan x="-18.26" y="25.2">p</tspan><tspan class="cls-16" x="-5.67" y="25.2">r</tspan><tspan x="2.51" y="25.2">ima</tspan><tspan class="cls-17" x="36.94" y="25.2">r</tspan><tspan x="45.72" y="25.2">y calls </tspan><tspan class="cls-18" x="111.67" y="25.2">t</tspan><tspan x="117.56" y="25.2">o action</tspan><tspan x="-25.1" y="50.4">inc</tspan><tspan class="cls-19" x="1.66" y="50.4">r</tspan><tspan x="9.37" y="50.4">eased user at</tspan><tspan class="cls-20" x="137.04" y="50.4">t</tspan><tspan x="142.97" y="50.4">ention</tspan></text><text class="cls-11" transform="translate(535.14 218.01)">Mo<tspan class="cls-19" x="32.81" y="0">r</tspan><tspan x="40.52" y="0">e users </tspan><tspan class="cls-12" x="113.06" y="0">f</tspan><tspan x="119.55" y="0">ound a</tspan><tspan x="3.29" y="25.2">list of p</tspan><tspan class="cls-13" x="72.42" y="25.2">r</tspan><tspan x="80.09" y="25.2">oducts </tspan><tspan class="cls-21" x="147.5" y="25.2">t</tspan><tspan class="cls-9" x="153.66" y="25.2">hat</tspan><tspan x="10.65" y="50.4">me</tspan><tspan class="cls-20" x="38.88" y="50.4">e</tspan><tspan x="50.68" y="50.4">ts </tspan><tspan class="cls-21" x="71.42" y="50.4">t</tspan><tspan x="77.59" y="50.4">heir needs</tspan></text><text class="cls-3" transform="translate(576.42 184.01)"><tspan class="cls-22">F</tspan><tspan x="11.51" y="0">il</tspan><tspan class="cls-23" x="24.32" y="0">t</tspan><tspan x="32.36" y="0">er Use</tspan></text><text class="cls-1" transform="translate(569.22 140.01)">+4%</text><text class="cls-11" transform="translate(25.67 218.51)">Users successful<tspan class="cls-20" x="150.06" y="0">l</tspan><tspan class="cls-24" x="155.47" y="0">y</tspan><tspan x="19.05" y="25.2">co</tspan><tspan class="cls-12" x="41.68" y="25.2">m</tspan><tspan x="58.54" y="25.2">pl</tspan><tspan class="cls-20" x="76.37" y="25.2">et</tspan><tspan x="94.1" y="25.2">ed all</tspan><tspan class="cls-19" x="10.25" y="50.4">r</tspan><tspan x="17.96" y="50.4">e</tspan><tspan class="cls-25" x="29.58" y="50.4">q</tspan><tspan x="42.41" y="50.4">ues</tspan><tspan class="cls-20" x="73.99" y="50.4">t</tspan><tspan x="79.92" y="50.4">ed </tspan><tspan class="cls-20" x="110.61" y="50.4">t</tspan><tspan x="116.54" y="50.4">asks</tspan></text><text class="cls-3" transform="translate(54.26 185.01)">Disc<tspan class="cls-26" x="43.89" y="0">o</tspan><tspan class="cls-27" x="58.04" y="0">v</tspan><tspan x="71.23" y="0">e</tspan><tspan class="cls-28" x="84.82" y="0">r</tspan><tspan x="95.26" y="0">y</tspan></text><text class="cls-1" transform="translate(33.79 139.51)"><tspan class="cls-29">1</tspan><tspan x="32" y="0">00%</tspan></text><text class="cls-11" transform="translate(813.68 217.76)">Business i<tspan class="cls-12" x="89.5" y="0">m</tspan><tspan x="106.36" y="0">pact</tspan><tspan x="-14.68" y="25.2">mat</tspan><tspan class="cls-30" x="20.26" y="25.2">c</tspan><tspan x="30.81" y="25.2">hed i</tspan><tspan class="cls-12" x="78.25" y="25.2">m</tspan><tspan x="95.12" y="25.2">p</tspan><tspan class="cls-13" x="107.71" y="25.2">r</tspan><tspan class="cls-14" x="115.38" y="25.2">o</tspan><tspan class="cls-15" x="127.58" y="25.2">v</tspan><tspan x="137.77" y="25.2">ed</tspan><tspan x="-1.96" y="50.4">user </tspan><tspan class="cls-31" x="43.95" y="50.4">e</tspan><tspan x="55.17" y="50.4">xpe</tspan><tspan class="cls-16" x="91.1" y="50.4">r</tspan><tspan x="99.27" y="50.4">ience</tspan></text><text class="cls-3" transform="translate(839.35 184.26)"><tspan class="cls-32">R</tspan><tspan class="cls-27" x="14.66" y="0">ev</tspan><tspan x="40.93" y="0">enue</tspan></text><text class="cls-1" transform="translate(828.07 138.76)">+8%</text><text class="cls-33" transform="translate(16.36 46.82)"><tspan class="cls-34">K</tspan><tspan class="cls-35" x="18.12" y="0">e</tspan><tspan x="33" y="0">y Success </tspan><tspan class="cls-36" x="160.87" y="0">M</tspan><tspan class="cls-37" x="185.06" y="0">e</tspan><tspan x="200.76" y="0">t</tspan><tspan class="cls-38" x="209.71" y="0">r</tspan><tspan x="220.89" y="0">ics</tspan></text></svg>