<svg id="Layer_1" data-name="Layer 1" xmlns="http://www.w3.org/2000/svg" viewBox="0 0 1000 300"><defs><style>.cls-1{font-size:50px;}.cls-1,.cls-2{fill:#f06;}.cls-1,.cls-2,.cls-34{font-family:Futura-Bold, Futura;font-weight:700;}.cls-2,.cls-6{font-size:21px;}.cls-3{letter-spacing:0.02em;}.cls-4{letter-spacing:0.03em;}.cls-5{letter-spacing:0.02em;}.cls-6{fill:#60606d;font-family:Futura-Medium, Futura;font-weight:500;}.cls-7{letter-spacing:0.02em;}.cls-8{letter-spacing:-0.01em;}.cls-9{letter-spacing:-0.01em;}.cls-10{letter-spacing:0em;}.cls-11{letter-spacing:-0.02em;}.cls-12{letter-spacing:0.02em;}.cls-13{letter-spacing:0.01em;}.cls-14{letter-spacing:0.03em;}.cls-15{letter-spacing:0.04em;}.cls-16{letter-spacing:-0.02em;}.cls-17{letter-spacing:-0.02em;}.cls-18{letter-spacing:0em;}.cls-19{letter-spacing:0.01em;}.cls-20{letter-spacing:-0.03em;}.cls-21{letter-spacing:0em;}.cls-22{letter-spacing:0.02em;}.cls-23{letter-spacing:-0.02em;}.cls-24{letter-spacing:0.02em;}.cls-25{letter-spacing:-0.02em;}.cls-26{letter-spacing:-0.02em;}.cls-27{letter-spacing:0em;}.cls-28{letter-spacing:-0.01em;}.cls-29{letter-spacing:0.01em;}.cls-30{letter-spacing:-0.02em;}.cls-31{letter-spacing:0.01em;}.cls-32{letter-spacing:-0.04em;}.cls-33{letter-spacing:0em;}.cls-34{font-size:24px;fill:#003;}.cls-35{letter-spacing:-0.04em;}.cls-36{letter-spacing:-0.03em;}.cls-37{letter-spacing:-0.03em;}.cls-38{letter-spacing:0.01em;}</style></defs><text class="cls-1" transform="translate(309.5 138.76)">99%</text><text class="cls-2" transform="translate(299.39 183.76)">of <tspan class="cls-3" x="30.05" y="0">t</tspan><tspan x="38.37" y="0">he Ba</tspan><tspan class="cls-4" x="102.29" y="0">t</tspan><tspan class="cls-5" x="110.69" y="0">t</tspan><tspan x="118.88" y="0">le</tspan></text><text class="cls-6" transform="translate(279.32 217.76)">Secu<tspan class="cls-7" x="45.31" y="0">r</tspan><tspan x="53.48" y="0">ing </tspan><tspan class="cls-8" x="89.28" y="0">r</tspan><tspan x="96.99" y="0">esou</tspan><tspan class="cls-9" x="141.2" y="0">r</tspan><tspan class="cls-10" x="148.87" y="0">ces</tspan><tspan x="11.58" y="25.2">and p</tspan><tspan class="cls-7" x="67.35" y="25.2">r</tspan><tspan x="75.52" y="25.2">io</tspan><tspan class="cls-7" x="93.37" y="25.2">r</tspan><tspan x="101.54" y="25.2">ity </tspan><tspan class="cls-11" x="130.41" y="25.2">w</tspan><tspan class="cls-10" x="146.32" y="25.2">as</tspan><tspan class="cls-12" x="-5.42" y="50.4">t</tspan><tspan x="0.74" y="50.4">he m</tspan><tspan class="cls-13" x="46.96" y="50.4">a</tspan><tspan x="59.81" y="50.4">jor </tspan><tspan class="cls-14" x="92" y="50.4">c</tspan><tspan x="102.55" y="50.4">hallenge</tspan></text><text class="cls-6" transform="translate(16.36 217.76)">Su<tspan class="cls-15" x="23.69" y="0">r</tspan><tspan class="cls-16" x="32.44" y="0">ve</tspan><tspan x="53.89" y="0">y </tspan><tspan class="cls-8" x="71.79" y="0">r</tspan><tspan x="79.5" y="0">espondents</tspan><tspan x="1.05" y="25.2">consider </tspan><tspan class="cls-12" x="87.49" y="25.2">t</tspan><tspan x="93.65" y="25.2">he design</tspan><tspan x="8.01" y="50.4">mo</tspan><tspan class="cls-8" x="37.25" y="50.4">r</tspan><tspan x="44.96" y="50.4">e p</tspan><tspan class="cls-9" x="75.65" y="50.4">r</tspan><tspan x="83.32" y="50.4">o</tspan><tspan class="cls-7" x="95.94" y="50.4">f</tspan><tspan x="102.49" y="50.4">essional</tspan></text><text class="cls-2" transform="translate(21.11 183.76)"><tspan class="cls-17">T</tspan><tspan class="cls-18" x="10.77" y="0">r</tspan><tspan x="20.56" y="0">u</tspan><tspan class="cls-19" x="34.61" y="0">s</tspan><tspan x="45.59" y="0">t</tspan><tspan class="cls-20" x="53.42" y="0">w</tspan><tspan class="cls-21" x="74.4" y="0">o</tspan><tspan class="cls-22" x="89.1" y="0">r</tspan><tspan class="cls-3" x="99.29" y="0">t</tspan><tspan x="107.6" y="0">hiness</tspan></text><text class="cls-1" transform="translate(50.22 139.76)">+5%</text><text class="cls-6" transform="translate(542.23 217.76)">I<tspan class="cls-13" x="6.19" y="0">m</tspan><tspan x="23.06" y="0">p</tspan><tspan class="cls-9" x="35.65" y="0">r</tspan><tspan class="cls-23" x="43.32" y="0">o</tspan><tspan class="cls-16" x="55.52" y="0">v</tspan><tspan x="65.72" y="0">ed </tspan><tspan class="cls-8" x="96.41" y="0">r</tspan><tspan class="cls-16" x="104.12" y="0">ev</tspan><tspan x="125.57" y="0">enue</tspan><tspan x="-8.08" y="25.2">and st</tspan><tspan class="cls-8" x="49.36" y="25.2">r</tspan><tspan x="57.07" y="25.2">eamlined </tspan><tspan class="cls-24" x="150.55" y="25.2">t</tspan><tspan x="156.72" y="25.2">he</tspan><tspan x="27.1" y="50.4">user jou</tspan><tspan class="cls-7" x="102.31" y="50.4">r</tspan><tspan x="110.48" y="50.4">n</tspan><tspan class="cls-16" x="122" y="50.4">e</tspan><tspan x="133.25" y="50.4">y</tspan></text><text class="cls-2" transform="translate(536.79 184.26)">Co<tspan class="cls-25" x="28.71" y="0">n</tspan><tspan class="cls-26" x="42.27" y="0">v</tspan><tspan class="cls-10" x="55.46" y="0">e</tspan><tspan class="cls-27" x="69.05" y="0">r</tspan><tspan x="78.77" y="0">sion </tspan><tspan class="cls-28" x="131.65" y="0">R</tspan><tspan class="cls-21" x="146.28" y="0">a</tspan><tspan class="cls-29" x="161.01" y="0">t</tspan><tspan x="169.05" y="0">e</tspan></text><text class="cls-1" transform="translate(568.79 138.76)">+6%</text><text class="cls-6" transform="translate(811.71 217.76)">I<tspan class="cls-13" x="6.19" y="0">m</tspan><tspan x="23.06" y="0">p</tspan><tspan class="cls-9" x="35.65" y="0">r</tspan><tspan class="cls-23" x="43.32" y="0">o</tspan><tspan x="55.52" y="0">ving page</tspan><tspan x="-21.67" y="25.2">speed helps </tspan><tspan class="cls-12" x="97.7" y="25.2">t</tspan><tspan x="103.87" y="25.2">he user</tspan><tspan x="4.34" y="50.4">as </tspan><tspan class="cls-30" x="31.94" y="50.4">w</tspan><tspan x="47.87" y="50.4">ell as SEO</tspan></text><text class="cls-2" transform="translate(820.14 184.26)"><tspan class="cls-28">P</tspan><tspan x="13.99" y="0">a</tspan><tspan class="cls-31" x="28.71" y="0">g</tspan><tspan x="43.6" y="0">e Speed</tspan></text><text class="cls-1" transform="translate(821.9 138.76)">-<tspan class="cls-32" x="14.35" y="0">1</tspan><tspan class="cls-33" x="46.35" y="0">0%</tspan></text><text class="cls-34" transform="translate(16.36 46.82)"><tspan class="cls-35">K</tspan><tspan class="cls-36" x="18.12" y="0">e</tspan><tspan x="33" y="0">y Success </tspan><tspan class="cls-37" x="160.87" y="0">M</tspan><tspan class="cls-38" x="185.06" y="0">e</tspan><tspan x="200.76" y="0">t</tspan><tspan class="cls-18" x="209.71" y="0">r</tspan><tspan x="220.89" y="0">ics</tspan></text></svg>