<svg id="Layer_1" data-name="Layer 1" xmlns="http://www.w3.org/2000/svg" viewBox="0 0 1000 100"><defs><style>.cls-1{fill:#f06;}.cls-2{fill:#003;}.cls-3{fill:#60606d;}</style></defs><rect class="cls-1" x="53.07" y="26.15" width="867" height="2"/><path class="cls-2" d="M38.88,50.57H34.4l-.72,2.1H30.34l4.59-12.06h3.42l4.59,12.06H39.6Zm-.83-2.38-1.41-4-1.41,4Z"/><path class="cls-2" d="M47,44.46v4.63a1.47,1.47,0,1,0,2.94,0V44.46h2.9v5.19a2.92,2.92,0,0,1-1.1,2.49,5.33,5.33,0,0,1-3.27.83,5.33,5.33,0,0,1-3.27-.83,2.92,2.92,0,0,1-1.1-2.49V44.46Z"/><path class="cls-2" d="M61.1,39.39H64V52.67H61.1v-.91a3,3,0,0,1-2.51,1.17,4.09,4.09,0,0,1-1.65-.34,4,4,0,0,1-1.31-.93,4.31,4.31,0,0,1-.87-1.39,4.67,4.67,0,0,1-.31-1.73,4.93,4.93,0,0,1,.29-1.67,4.19,4.19,0,0,1,.84-1.38,4,4,0,0,1,3-1.28,3.32,3.32,0,0,1,2.54,1.07Zm-3.64,9.15a1.86,1.86,0,0,0,.14.75,2.07,2.07,0,0,0,.39.6,1.87,1.87,0,0,0,.59.4,2,2,0,0,0,.75.14,2,2,0,0,0,.73-.14,1.87,1.87,0,0,0,.59-.4,2.1,2.1,0,0,0,.4-.6,1.72,1.72,0,0,0,.15-.72,1.79,1.79,0,0,0-.15-.72,2.1,2.1,0,0,0-.4-.6,1.71,1.71,0,0,0-.59-.4,1.83,1.83,0,0,0-.73-.15,1.8,1.8,0,0,0-.73.15,1.62,1.62,0,0,0-.59.4,1.94,1.94,0,0,0-.4.58A1.71,1.71,0,0,0,57.46,48.54Z"/><path class="cls-2" d="M65.79,41.31a1.51,1.51,0,0,1,.13-.63,1.63,1.63,0,0,1,.87-.87,1.62,1.62,0,0,1,1.27,0,1.64,1.64,0,0,1,.52.35,1.64,1.64,0,0,1,.48,1.15,1.65,1.65,0,0,1-.13.63,1.7,1.7,0,0,1-.35.52,1.64,1.64,0,0,1-.52.35,1.63,1.63,0,0,1-2.14-.87A1.48,1.48,0,0,1,65.79,41.31Zm3.09,3.15v8.21H66V44.46Z"/><path class="cls-2" d="M74.1,46.88v5.79H71.2V46.88h-1V44.46h1V42h2.9v2.46h1.64v2.42Z"/><path class="cls-3" d="M29.78,63.12l-.93,7.58q-.06.54-.15,1a4.13,4.13,0,0,1-.2.71,2.55,2.55,0,0,1-.27.52,2.6,2.6,0,0,1-.38.43,2.48,2.48,0,0,1-1.67.56,2.93,2.93,0,0,1-2.18-1l.8-1.15a2,2,0,0,0,1.32.71.88.88,0,0,0,.83-.58,8.16,8.16,0,0,0,.47-2.24l.8-6.48Z"/><path class="cls-3" d="M37.15,67.23,36.69,71a7.29,7.29,0,0,1-.13.83,5.65,5.65,0,0,1-.18.6,2.11,2.11,0,0,1-.64.81,3.19,3.19,0,0,1-2,.6,2.8,2.8,0,0,1-1.9-.61,2.08,2.08,0,0,1-.71-1.65c0-.1,0-.22,0-.36a4.79,4.79,0,0,1,.05-.49l.42-3.48h1.51l-.44,3.62c0,.15,0,.29,0,.4s0,.22,0,.29q0,1,1.2,1a1.27,1.27,0,0,0,1-.33,2.24,2.24,0,0,0,.41-1.18l.47-3.82Z"/><path class="cls-3" d="M40.78,67.23l-.07.6a2.77,2.77,0,0,1,1.81-.76A2.14,2.14,0,0,1,44,67.6,1.88,1.88,0,0,1,44.58,69a8.93,8.93,0,0,1-.08,1.17l-.43,3.46h-1.5L43,69.88c0-.14,0-.26,0-.37s0-.21,0-.3c0-.58-.32-.87-.94-.87a1.52,1.52,0,0,0-1,.35,1.73,1.73,0,0,0-.51.69,2.3,2.3,0,0,0-.15.5c0,.2-.08.43-.11.69L40,73.67H38.48l.79-6.44Z"/><path class="cls-3" d="M57.15,72.21,57,73.67H50.13L54.34,69c.44-.48.79-.87,1-1.18a7,7,0,0,0,.54-.71,2,2,0,0,0,.29-1.09,1.9,1.9,0,0,0-.12-.7,1.51,1.51,0,0,0-.34-.53,1.46,1.46,0,0,0-.55-.34,2.25,2.25,0,0,0-.71-.11,2.28,2.28,0,0,0-.78.12,1.37,1.37,0,0,0-.57.4,1.9,1.9,0,0,0-.36.68,3.7,3.7,0,0,0-.19,1H51.12a4.61,4.61,0,0,1,.65-2.31,3.61,3.61,0,0,1,5.09-.44A3,3,0,0,1,57.74,66a3.28,3.28,0,0,1-.37,1.57,5.67,5.67,0,0,1-.57.82c-.26.32-.59.71-1,1.15l-2.44,2.64Z"/><path class="cls-3" d="M66.71,67.54a10,10,0,0,1-.39,2.73,6.76,6.76,0,0,1-1,2.19,3.17,3.17,0,0,1-2.64,1.36,2.86,2.86,0,0,1-2.45-1.24,5.68,5.68,0,0,1-.9-3.39,7.87,7.87,0,0,1,1.19-4.43A3.51,3.51,0,0,1,63.46,63a2.76,2.76,0,0,1,2.37,1.24A5.65,5.65,0,0,1,66.71,67.54Zm-1.52-.08a4.72,4.72,0,0,0-.46-2.27,1.41,1.41,0,0,0-1.27-.82c-.73,0-1.35.48-1.86,1.45a7.65,7.65,0,0,0-.75,3.56,4.48,4.48,0,0,0,.47,2.23,1.42,1.42,0,0,0,1.29.8,2,2,0,0,0,1.72-1.16,5.82,5.82,0,0,0,.61-1.71A9.52,9.52,0,0,0,65.19,67.46Z"/><path class="cls-3" d="M72.14,63.12l-1.3,10.55H69.27l1.13-9.1H68.32L69,63.12Z"/><path class="cls-3" d="M78.22,70a2.87,2.87,0,0,1-.75.1,3,3,0,0,1-2.28-.86,3.15,3.15,0,0,1-.85-2.31,3.83,3.83,0,0,1,1.13-2.8A3.77,3.77,0,0,1,78.24,63a3.34,3.34,0,0,1,2.44,1,3.39,3.39,0,0,1,1,2.46,5.73,5.73,0,0,1-1.36,3.3L77,74.12l-1.18-.91Zm1.92-3.58a2,2,0,0,0-.55-1.46,1.88,1.88,0,0,0-1.4-.56,2.18,2.18,0,0,0-1.66.71,2.53,2.53,0,0,0-.67,1.78,1.88,1.88,0,0,0,.53,1.39,2,2,0,0,0,1.42.53,2.19,2.19,0,0,0,1.65-.7A2.32,2.32,0,0,0,80.14,66.39Z"/><circle class="cls-1" cx="53.03" cy="27.15" r="5"/><path class="cls-3" d="M125.86,63.12l-.93,7.58q-.06.54-.15,1a5.3,5.3,0,0,1-.2.71,3.17,3.17,0,0,1-.27.52,2.6,2.6,0,0,1-.38.43,2.5,2.5,0,0,1-1.67.56,2.93,2.93,0,0,1-2.18-1l.8-1.15a2,2,0,0,0,1.32.71.88.88,0,0,0,.83-.58,8.16,8.16,0,0,0,.47-2.24l.8-6.48Z"/><path class="cls-3" d="M133.23,67.23,132.77,71a7.29,7.29,0,0,1-.13.83,5.65,5.65,0,0,1-.18.6,2.11,2.11,0,0,1-.64.81,3.19,3.19,0,0,1-2,.6,2.8,2.8,0,0,1-1.9-.61,2.08,2.08,0,0,1-.71-1.65,2.43,2.43,0,0,1,0-.36,4.79,4.79,0,0,1,.05-.49l.42-3.48h1.51l-.44,3.62c0,.15,0,.29,0,.4s0,.22,0,.29q0,1,1.2,1a1.27,1.27,0,0,0,1-.33,2.24,2.24,0,0,0,.41-1.18l.47-3.82Z"/><path class="cls-3" d="M137.48,62.12l-1.41,11.55h-1.51L136,62.12Z"/><path class="cls-3" d="M149.15,72.21,149,73.67h-6.83L146.34,69c.44-.48.79-.87,1-1.18a7,7,0,0,0,.54-.71,2,2,0,0,0,.29-1.09,1.9,1.9,0,0,0-.12-.7,1.4,1.4,0,0,0-.35-.53,1.35,1.35,0,0,0-.54-.34,2.27,2.27,0,0,0-.72-.11,2.37,2.37,0,0,0-.78.12,1.41,1.41,0,0,0-.56.4,2.08,2.08,0,0,0-.37.68,4.19,4.19,0,0,0-.18,1h-1.48a4.51,4.51,0,0,1,.65-2.31A3.12,3.12,0,0,1,146.53,63a3.18,3.18,0,0,1,2.33.85,3,3,0,0,1,.87,2.23,3.28,3.28,0,0,1-.36,1.57,5.67,5.67,0,0,1-.57.82c-.26.32-.59.71-1,1.15l-2.44,2.64Z"/><path class="cls-3" d="M158.71,67.54a10,10,0,0,1-.39,2.73,6.76,6.76,0,0,1-1,2.19,3.14,3.14,0,0,1-2.63,1.36,2.86,2.86,0,0,1-2.45-1.24,5.68,5.68,0,0,1-.9-3.39,7.87,7.87,0,0,1,1.19-4.43,3.48,3.48,0,0,1,2.94-1.8,2.76,2.76,0,0,1,2.37,1.24A5.65,5.65,0,0,1,158.71,67.54Zm-1.53-.08a4.73,4.73,0,0,0-.45-2.27,1.41,1.41,0,0,0-1.27-.82c-.73,0-1.35.48-1.86,1.45a7.65,7.65,0,0,0-.75,3.56,4.48,4.48,0,0,0,.47,2.23,1.42,1.42,0,0,0,1.29.8,2,2,0,0,0,1.71-1.16,5.81,5.81,0,0,0,.62-1.71A9.49,9.49,0,0,0,157.18,67.46Z"/><path class="cls-3" d="M164.14,63.12l-1.3,10.55h-1.57l1.13-9.1h-2.08l.71-1.45Z"/><path class="cls-3" d="M170.22,70a2.87,2.87,0,0,1-.75.1,3,3,0,0,1-2.28-.86,3.15,3.15,0,0,1-.85-2.31,3.88,3.88,0,0,1,3.9-3.94,3.3,3.3,0,0,1,2.43,1,3.36,3.36,0,0,1,1,2.46,5.73,5.73,0,0,1-1.36,3.3L169,74.12l-1.17-.91Zm1.91-3.58a2,2,0,0,0-.54-1.46,1.89,1.89,0,0,0-1.4-.56,2.18,2.18,0,0,0-1.66.71,2.53,2.53,0,0,0-.67,1.78,1.84,1.84,0,0,0,.53,1.39,2,2,0,0,0,1.41.53,2.2,2.2,0,0,0,1.66-.7A2.32,2.32,0,0,0,172.13,66.39Z"/><path class="cls-2" d="M115.8,40.61V52.67h-3.14V40.61Z"/><path class="cls-2" d="M124.39,39.39h2.91V52.67h-2.91v-.91a3,3,0,0,1-2.51,1.17,4.06,4.06,0,0,1-1.65-.34,3.92,3.92,0,0,1-1.31-.93,4.31,4.31,0,0,1-.87-1.39,5,5,0,0,1,0-3.4,4.19,4.19,0,0,1,.84-1.38,3.88,3.88,0,0,1,1.31-.94,4,4,0,0,1,1.67-.34,3.32,3.32,0,0,1,2.54,1.07Zm-3.65,9.15a1.86,1.86,0,0,0,.15.75,1.73,1.73,0,0,0,.39.6,1.76,1.76,0,0,0,.59.4,2,2,0,0,0,.75.14,2,2,0,0,0,.72-.14,1.91,1.91,0,0,0,.6-.4,2.33,2.33,0,0,0,.4-.6,1.72,1.72,0,0,0,.15-.72,1.79,1.79,0,0,0-.15-.72,2.33,2.33,0,0,0-.4-.6,1.75,1.75,0,0,0-.6-.4,1.83,1.83,0,0,0-1.45,0,1.62,1.62,0,0,0-.59.4,1.94,1.94,0,0,0-.4.58A1.57,1.57,0,0,0,120.74,48.54Z"/><path class="cls-2" d="M131.88,49.05c0,1.25.59,1.88,1.76,1.88a1.57,1.57,0,0,0,1.42-.77h2.8c-.56,1.88-2,2.81-4.24,2.81a5.53,5.53,0,0,1-1.9-.31,4.15,4.15,0,0,1-1.48-.89,3.88,3.88,0,0,1-1-1.37,4.46,4.46,0,0,1-.34-1.79,5.13,5.13,0,0,1,.32-1.85,3.86,3.86,0,0,1,.91-1.4,4.07,4.07,0,0,1,1.44-.89,5.35,5.35,0,0,1,1.89-.31,5.24,5.24,0,0,1,1.87.31,3.8,3.8,0,0,1,1.41.9,3.87,3.87,0,0,1,.88,1.45,5.83,5.83,0,0,1,.31,1.93v.3Zm3.39-1.68a1.69,1.69,0,0,0-.59-1,1.64,1.64,0,0,0-1.09-.37,1.66,1.66,0,0,0-1.09.35,1.57,1.57,0,0,0-.54,1Z"/><path class="cls-2" d="M146,44.46h2.91v8.21H146v-.91a3,3,0,0,1-2.51,1.17,4,4,0,0,1-3-1.25,4.27,4.27,0,0,1-.88-1.39,5,5,0,0,1-.31-1.75,4.5,4.5,0,0,1,.31-1.67,4.05,4.05,0,0,1,.85-1.38,3.9,3.9,0,0,1,1.29-.94,4,4,0,0,1,1.67-.34A3.32,3.32,0,0,1,146,45.28Zm-3.65,4.08a1.86,1.86,0,0,0,.15.75,1.73,1.73,0,0,0,.39.6,1.76,1.76,0,0,0,.59.4,2,2,0,0,0,.74.14,2,2,0,0,0,.73-.14,1.76,1.76,0,0,0,.59-.4,1.91,1.91,0,0,0,.4-.6,1.72,1.72,0,0,0,.15-.72,1.79,1.79,0,0,0-.15-.72,1.91,1.91,0,0,0-.4-.6,1.62,1.62,0,0,0-.59-.4,1.8,1.8,0,0,0-.73-.15,1.85,1.85,0,0,0-.74.15,1.62,1.62,0,0,0-.59.4,1.74,1.74,0,0,0-.39.58A1.71,1.71,0,0,0,142.31,48.54Z"/><path class="cls-2" d="M154.07,46.88v5.79h-2.9V46.88h-1V44.46h1V42h2.9v2.46h1.65v2.42Z"/><path class="cls-2" d="M156.84,41.31a1.51,1.51,0,0,1,.13-.63,1.63,1.63,0,0,1,.87-.87,1.59,1.59,0,0,1,1.26,0,1.63,1.63,0,0,1,.87.87,1.51,1.51,0,0,1,.13.63,1.48,1.48,0,0,1-.13.63,1.63,1.63,0,0,1-.87.87,1.59,1.59,0,0,1-1.26,0,1.63,1.63,0,0,1-.87-.87A1.48,1.48,0,0,1,156.84,41.31Zm3.09,3.15v8.21H157V44.46Z"/><path class="cls-2" d="M161.59,48.49a3.94,3.94,0,0,1,.37-1.7,4.07,4.07,0,0,1,1-1.38,5.23,5.23,0,0,1,1.56-.92,6,6,0,0,1,3.94,0,5,5,0,0,1,1.57.91,4.17,4.17,0,0,1,1,1.39,4.33,4.33,0,0,1,.37,1.78,4.22,4.22,0,0,1-.38,1.79,4.17,4.17,0,0,1-1,1.39,4.53,4.53,0,0,1-1.58.9,5.85,5.85,0,0,1-2,.32,5.62,5.62,0,0,1-1.95-.32,4.44,4.44,0,0,1-1.55-.91,4.1,4.1,0,0,1-1-1.41A4.38,4.38,0,0,1,161.59,48.49Zm3.06,0a1.91,1.91,0,0,0,.55,1.36,1.76,1.76,0,0,0,.59.4,2,2,0,0,0,.73.14,2,2,0,0,0,.73-.14,1.87,1.87,0,0,0,.59-.4,2.1,2.1,0,0,0,.4-.6,1.86,1.86,0,0,0,.15-.75,1.83,1.83,0,0,0-.15-.73,2.1,2.1,0,0,0-.4-.6,1.87,1.87,0,0,0-.59-.4,2,2,0,0,0-.73-.14,2,2,0,0,0-.73.14,1.76,1.76,0,0,0-.59.4,1.91,1.91,0,0,0-.4.6A1.72,1.72,0,0,0,164.65,48.53Z"/><path class="cls-2" d="M173.11,44.46H176v1a3.15,3.15,0,0,1,1.2-1,3.84,3.84,0,0,1,1.42-.24,3.49,3.49,0,0,1,1.48.28,2.92,2.92,0,0,1,1,.79,2.43,2.43,0,0,1,.48.93,5.08,5.08,0,0,1,.13,1.16v5.22h-2.9V48.53a4.39,4.39,0,0,0-.09-1,1.23,1.23,0,0,0-.31-.6,1,1,0,0,0-.43-.27,1.7,1.7,0,0,0-.51-.08,1.45,1.45,0,0,0-1.13.44,1.83,1.83,0,0,0-.39,1.26v4.38h-2.9Z"/><circle class="cls-1" cx="147.07" cy="27.15" r="5"/><path class="cls-3" d="M216.15,71.19l-1.29,2.48h-1.7L219,62.36l3.64,11.31H221l-.77-2.48Zm.67-1.36h3l-1.13-3.75Z"/><path class="cls-3" d="M230,67.23,229.52,71a7.29,7.29,0,0,1-.13.83,5.65,5.65,0,0,1-.18.6,2.11,2.11,0,0,1-.64.81,3.19,3.19,0,0,1-2,.6,2.8,2.8,0,0,1-1.9-.61,2.08,2.08,0,0,1-.71-1.65c0-.1,0-.22,0-.36a4.79,4.79,0,0,1,0-.49l.42-3.48h1.51l-.44,3.62c0,.15,0,.29,0,.4s0,.22,0,.29q0,1,1.2,1a1.27,1.27,0,0,0,1-.33,2.24,2.24,0,0,0,.41-1.18l.47-3.82Z"/><path class="cls-3" d="M238.57,67.23l-.79,6.49c-.05.39-.11.72-.17,1a4,4,0,0,1-.21.72,2.8,2.8,0,0,1-.71,1,3.47,3.47,0,0,1-2.38.82,3.67,3.67,0,0,1-2.45-.8,2.13,2.13,0,0,1-.67-.9,3.46,3.46,0,0,1-.19-1.3h1.46a2.05,2.05,0,0,0,.47,1.32,1.75,1.75,0,0,0,1.27.41,1.91,1.91,0,0,0,1.42-.49,2.72,2.72,0,0,0,.61-1.58l.11-.88a3.25,3.25,0,0,1-2,.73,2.87,2.87,0,0,1-2.17-.9,3.21,3.21,0,0,1-.85-2.28,3.52,3.52,0,0,1,1-2.55,3.36,3.36,0,0,1,2.49-1,2.63,2.63,0,0,1,1.17.22,3,3,0,0,1,1,.74l.1-.8Zm-1.74,3.06a1.91,1.91,0,0,0-.53-1.41,1.88,1.88,0,0,0-1.4-.54,2,2,0,0,0-1.49.65,2.37,2.37,0,0,0-.58,1.64,2,2,0,0,0,.5,1.41,1.8,1.8,0,0,0,1.36.52,2,2,0,0,0,1.53-.64A2.27,2.27,0,0,0,236.83,70.29Z"/><path class="cls-3" d="M246.59,69.75l-.15,1.19H243.5l.13-1.19Z"/><path class="cls-3" d="M262.81,68.19a5.85,5.85,0,0,1-1,3.27,5.1,5.1,0,0,1-2,1.79,5.85,5.85,0,0,1-2.71.63,5.21,5.21,0,0,1-3.87-1.52,5.83,5.83,0,0,1,.09-7.88,5.48,5.48,0,0,1,4-1.58,5.38,5.38,0,0,1,3.92,1.46A5.11,5.11,0,0,1,262.81,68.19Zm-1.57,0a3.77,3.77,0,0,0-1-2.76,3.69,3.69,0,0,0-2.75-1,4,4,0,0,0-2.92,1.17,4.22,4.22,0,0,0-.08,5.75,3.64,3.64,0,0,0,2.74,1.12,3.78,3.78,0,0,0,2.88-1.21A4.16,4.16,0,0,0,261.24,68.17Z"/><path class="cls-3" d="M269.45,67.85l-.19,1.54a3.3,3.3,0,0,0-.89-.85,1.93,1.93,0,0,0-2.4.38,2.38,2.38,0,0,0-.55,1.63,2.09,2.09,0,0,0,.52,1.5,1.76,1.76,0,0,0,1.36.57,2.66,2.66,0,0,0,1.65-.69l-.19,1.59a4.41,4.41,0,0,1-1.67.36,3.06,3.06,0,0,1-2.31-.93,3.34,3.34,0,0,1-.88-2.39,3.54,3.54,0,0,1,1-2.52,3.13,3.13,0,0,1,2.38-1A3.54,3.54,0,0,1,269.45,67.85Z"/><path class="cls-3" d="M272.56,68.63l-.63,5h-1.51l.63-5h-.86l.17-1.4h.86l.37-3h1.51l-.37,3h1.39l-.17,1.4Z"/><path class="cls-3" d="M285.39,72.21l-.18,1.46h-6.83L282.59,69c.44-.48.79-.87,1.05-1.18a7,7,0,0,0,.54-.71,2,2,0,0,0,.28-1.09,2.14,2.14,0,0,0-.11-.7,1.4,1.4,0,0,0-.35-.53,1.42,1.42,0,0,0-.54-.34,2.27,2.27,0,0,0-.72-.11,2.37,2.37,0,0,0-.78.12,1.41,1.41,0,0,0-.56.4,1.91,1.91,0,0,0-.37.68,4.19,4.19,0,0,0-.18,1h-1.48a4.62,4.62,0,0,1,.64-2.31A3.14,3.14,0,0,1,282.78,63a3.18,3.18,0,0,1,2.33.85A3,3,0,0,1,286,66a3.28,3.28,0,0,1-.36,1.57,5.67,5.67,0,0,1-.57.82c-.26.32-.59.71-1,1.15l-2.44,2.64Z"/><path class="cls-3" d="M295,67.54a10,10,0,0,1-.39,2.73,6.76,6.76,0,0,1-1,2.19,3.14,3.14,0,0,1-2.63,1.36,2.86,2.86,0,0,1-2.45-1.24,5.68,5.68,0,0,1-.9-3.39,7.87,7.87,0,0,1,1.19-4.43,3.48,3.48,0,0,1,2.94-1.8,2.76,2.76,0,0,1,2.37,1.24A5.72,5.72,0,0,1,295,67.54Zm-1.53-.08a4.73,4.73,0,0,0-.45-2.27,1.41,1.41,0,0,0-1.27-.82c-.73,0-1.35.48-1.86,1.45a7.65,7.65,0,0,0-.75,3.56,4.49,4.49,0,0,0,.46,2.23,1.44,1.44,0,0,0,1.3.8,2,2,0,0,0,1.71-1.16,5.81,5.81,0,0,0,.62-1.71A9.49,9.49,0,0,0,293.43,67.46Z"/><path class="cls-3" d="M300.39,63.12l-1.3,10.55h-1.57l1.13-9.1h-2.08l.71-1.45Z"/><path class="cls-3" d="M306.47,70a2.87,2.87,0,0,1-.75.1,3.05,3.05,0,0,1-2.29-.86,3.19,3.19,0,0,1-.84-2.31,3.86,3.86,0,0,1,3.9-3.94,3.3,3.3,0,0,1,2.43,1,3.36,3.36,0,0,1,1,2.46,5.73,5.73,0,0,1-1.36,3.3l-3.29,4.42-1.17-.91Zm1.91-3.58a2,2,0,0,0-.54-1.46,1.89,1.89,0,0,0-1.4-.56,2.21,2.21,0,0,0-1.67.71,2.57,2.57,0,0,0-.67,1.78,1.85,1.85,0,0,0,.54,1.39,1.94,1.94,0,0,0,1.41.53,2.21,2.21,0,0,0,1.66-.7A2.32,2.32,0,0,0,308.38,66.39Z"/><path class="cls-2" d="M234.14,40.61h4.64a5.47,5.47,0,0,1,2.31.49,6.15,6.15,0,0,1,3.16,3.24,5.83,5.83,0,0,1,.46,2.3,5.94,5.94,0,0,1-.45,2.28,6.12,6.12,0,0,1-3.16,3.25,5.49,5.49,0,0,1-2.32.5h-4.64Zm3.13,9.4H238a3.92,3.92,0,0,0,1.46-.25,3.22,3.22,0,0,0,1.08-.71A3,3,0,0,0,241.2,48a3.9,3.9,0,0,0,.23-1.35,3.76,3.76,0,0,0-.24-1.35,3.21,3.21,0,0,0-.68-1.07,3,3,0,0,0-1.08-.7,3.89,3.89,0,0,0-1.44-.26h-.72Z"/><path class="cls-2" d="M249.05,49.05c0,1.25.58,1.88,1.76,1.88a1.57,1.57,0,0,0,1.42-.77H255c-.56,1.88-2,2.81-4.24,2.81a5.49,5.49,0,0,1-1.9-.31,4.15,4.15,0,0,1-1.48-.89,3.88,3.88,0,0,1-.95-1.37,4.46,4.46,0,0,1-.34-1.79,5.13,5.13,0,0,1,.32-1.85,3.86,3.86,0,0,1,.91-1.4,4,4,0,0,1,1.43-.89,5.41,5.41,0,0,1,1.9-.31,5.24,5.24,0,0,1,1.87.31,3.8,3.8,0,0,1,1.41.9,4,4,0,0,1,.88,1.45,5.83,5.83,0,0,1,.3,1.93v.3Zm3.39-1.68a1.74,1.74,0,0,0-.59-1,1.64,1.64,0,0,0-1.09-.37,1.7,1.7,0,0,0-1.1.35,1.6,1.6,0,0,0-.53,1Z"/><path class="cls-2" d="M262.23,46.57a3.44,3.44,0,0,0-1.57-.41,1.13,1.13,0,0,0-.64.16.48.48,0,0,0-.25.43.5.5,0,0,0,0,.23.35.35,0,0,0,.17.17,1.65,1.65,0,0,0,.4.14l.7.16a3.31,3.31,0,0,1,1.79.86,2.17,2.17,0,0,1,.59,1.58,2.84,2.84,0,0,1-.28,1.29,2.8,2.8,0,0,1-.8,1,4.1,4.1,0,0,1-1.24.61,5.59,5.59,0,0,1-1.58.21,6.43,6.43,0,0,1-3.28-.94L257.34,50a4.06,4.06,0,0,0,2.3.83,1.14,1.14,0,0,0,.66-.17.53.53,0,0,0,.25-.45.65.65,0,0,0,0-.26.45.45,0,0,0-.17-.2,1.68,1.68,0,0,0-.37-.16l-.65-.15a3.67,3.67,0,0,1-1.88-.81,2,2,0,0,1-.54-1.48,3,3,0,0,1,.26-1.24,2.57,2.57,0,0,1,.74-.93,3.18,3.18,0,0,1,1.16-.59,5.06,5.06,0,0,1,1.51-.21,6.77,6.77,0,0,1,2.64.53Z"/><path class="cls-2" d="M264.74,41.31a1.64,1.64,0,0,1,.48-1.15,1.64,1.64,0,0,1,.52-.35,1.62,1.62,0,0,1,1.27,0,1.64,1.64,0,0,1,.52.35,1.64,1.64,0,0,1,.48,1.15,1.65,1.65,0,0,1-.13.63,1.7,1.7,0,0,1-.35.52,1.64,1.64,0,0,1-.52.35,1.62,1.62,0,0,1-1.27,0,1.64,1.64,0,0,1-.52-.35,1.7,1.7,0,0,1-.35-.52A1.65,1.65,0,0,1,264.74,41.31Zm3.09,3.15v8.21h-2.89V44.46Z"/><path class="cls-2" d="M279,44.46v7.65a9,9,0,0,1-.08,1.23,4.67,4.67,0,0,1-.23,1,2.86,2.86,0,0,1-.6,1,4.3,4.3,0,0,1-1,.79,5.44,5.44,0,0,1-1.3.53,6.58,6.58,0,0,1-1.58.19,6.09,6.09,0,0,1-1.76-.24,4.66,4.66,0,0,1-1.4-.67,3.69,3.69,0,0,1-1-1,3.31,3.31,0,0,1-.52-1.24h3.27a1.29,1.29,0,0,0,1.37.82,1.84,1.84,0,0,0,1.4-.51,2,2,0,0,0,.49-1.43v-.78a5,5,0,0,1-.61.5,3.57,3.57,0,0,1-.6.33,2.45,2.45,0,0,1-.64.18,4.55,4.55,0,0,1-2.36-.24,4,4,0,0,1-1.27-.85,3.91,3.91,0,0,1-.83-1.31,4.53,4.53,0,0,1-.3-1.68,4.83,4.83,0,0,1,.32-1.76,4.68,4.68,0,0,1,.88-1.4,3.91,3.91,0,0,1,1.31-1,4,4,0,0,1,1.65-.34,3.16,3.16,0,0,1,2.45,1.09v-.87Zm-6.5,4.07a1.85,1.85,0,0,0,.15.74,1.73,1.73,0,0,0,.39.6,1.76,1.76,0,0,0,.59.4,1.84,1.84,0,0,0,.74.14,1.79,1.79,0,0,0,.73-.14,1.76,1.76,0,0,0,.59-.4,1.91,1.91,0,0,0,.4-.6,1.66,1.66,0,0,0,.16-.73,1.63,1.63,0,0,0-.16-.73,1.84,1.84,0,0,0-1-1,2,2,0,0,0-.72-.14,1.79,1.79,0,0,0-.72.15,2.19,2.19,0,0,0-.59.4,2.08,2.08,0,0,0-.41.59A1.72,1.72,0,0,0,272.5,48.53Z"/><path class="cls-2" d="M281,44.46h2.89v1a3.31,3.31,0,0,1,1.2-1,3.89,3.89,0,0,1,1.43-.24,3.52,3.52,0,0,1,1.48.28,2.92,2.92,0,0,1,1,.79,2.43,2.43,0,0,1,.48.93,5.11,5.11,0,0,1,.12,1.16v5.22h-2.89V48.53a4.39,4.39,0,0,0-.09-1,1.23,1.23,0,0,0-.31-.6,1,1,0,0,0-.43-.27,1.82,1.82,0,0,0-.52-.08,1.46,1.46,0,0,0-1.13.44,1.83,1.83,0,0,0-.39,1.26v4.38H281Z"/><circle class="cls-1" cx="261.74" cy="27.15" r="5"/><path class="cls-3" d="M352.34,68.19a5.92,5.92,0,0,1-.95,3.27,5.2,5.2,0,0,1-2,1.79,5.78,5.78,0,0,1-2.7.63,5.2,5.2,0,0,1-3.87-1.52,5.8,5.8,0,0,1,.09-7.88,5.48,5.48,0,0,1,4-1.58,5.36,5.36,0,0,1,3.91,1.46A5.08,5.08,0,0,1,352.34,68.19Zm-1.57,0a3.55,3.55,0,0,0-3.78-3.8,4,4,0,0,0-2.92,1.17,4.22,4.22,0,0,0-.08,5.75,3.65,3.65,0,0,0,2.75,1.12,3.81,3.81,0,0,0,2.88-1.21A4.16,4.16,0,0,0,350.77,68.17Z"/><path class="cls-3" d="M359,67.85l-.19,1.54a3.45,3.45,0,0,0-.89-.85,1.87,1.87,0,0,0-1-.26,1.81,1.81,0,0,0-1.41.64,2.39,2.39,0,0,0-.56,1.63,2.14,2.14,0,0,0,.52,1.5,1.77,1.77,0,0,0,1.36.57,2.67,2.67,0,0,0,1.66-.69l-.2,1.59a4.38,4.38,0,0,1-1.67.36,3,3,0,0,1-2.3-.93,3.3,3.3,0,0,1-.88-2.39,3.5,3.5,0,0,1,.95-2.52,3.12,3.12,0,0,1,2.38-1A3.59,3.59,0,0,1,359,67.85Z"/><path class="cls-3" d="M362.09,68.63l-.62,5H360l.62-5h-.85l.17-1.4h.85l.37-3h1.51l-.37,3h1.4l-.17,1.4Z"/><path class="cls-3" d="M370.66,69.75l-.15,1.19h-2.94l.13-1.19Z"/><path class="cls-3" d="M377.06,63.12h2.13a10.87,10.87,0,0,1,1.86.12,3.69,3.69,0,0,1,1.23.44,4,4,0,0,1,1.62,1.79,5.81,5.81,0,0,1,.6,2.66,6.23,6.23,0,0,1-.67,2.88,5.05,5.05,0,0,1-.78,1.15,4.91,4.91,0,0,1-1,.85,4.57,4.57,0,0,1-1.4.52,9.2,9.2,0,0,1-.93.11q-.54,0-1.26,0h-2.68Zm1.38,1.45-.93,7.64h1.19a6.27,6.27,0,0,0,2.05-.26A2.72,2.72,0,0,0,382,71a4.59,4.59,0,0,0,.93-3,4.18,4.18,0,0,0-.42-1.92,2.68,2.68,0,0,0-1.15-1.22,4.7,4.7,0,0,0-2-.35Z"/><path class="cls-3" d="M387.12,71a1.54,1.54,0,0,0,.5,1.17,1.82,1.82,0,0,0,1.27.46,1.87,1.87,0,0,0,1.62-.8l1.13.63a3.49,3.49,0,0,1-1.21,1.1,3.35,3.35,0,0,1-1.57.33,3.25,3.25,0,0,1-2.39-.89,3.16,3.16,0,0,1-.88-2.36,3.63,3.63,0,0,1,1-2.58A3.23,3.23,0,0,1,389,67a2.88,2.88,0,0,1,2.26.93,3.61,3.61,0,0,1,.84,2.51c0,.11,0,.28,0,.53Zm3.47-1.22a1.55,1.55,0,0,0-1.65-1.49,1.72,1.72,0,0,0-1.73,1.49Z"/><path class="cls-3" d="M399,67.85l-.19,1.54a3.3,3.3,0,0,0-.89-.85,1.93,1.93,0,0,0-2.4.38,2.43,2.43,0,0,0-.55,1.63,2.09,2.09,0,0,0,.52,1.5,1.76,1.76,0,0,0,1.36.57,2.69,2.69,0,0,0,1.66-.69l-.2,1.59a4.41,4.41,0,0,1-1.67.36,3,3,0,0,1-2.3-.93,3.3,3.3,0,0,1-.89-2.39,3.54,3.54,0,0,1,.95-2.52,3.13,3.13,0,0,1,2.38-1A3.54,3.54,0,0,1,399,67.85Z"/><path class="cls-3" d="M410.82,72.21l-.19,1.46H403.8L408,69c.44-.48.79-.87,1.05-1.18a7,7,0,0,0,.54-.71,2,2,0,0,0,.29-1.09,1.9,1.9,0,0,0-.12-.7,1.51,1.51,0,0,0-.34-.53,1.46,1.46,0,0,0-.55-.34,2.25,2.25,0,0,0-.71-.11,2.28,2.28,0,0,0-.78.12,1.37,1.37,0,0,0-.57.4,1.9,1.9,0,0,0-.36.68,3.7,3.7,0,0,0-.19,1h-1.48a4.61,4.61,0,0,1,.65-2.31,3.61,3.61,0,0,1,5.09-.44,3,3,0,0,1,.88,2.23A3.28,3.28,0,0,1,411,67.6a5.67,5.67,0,0,1-.57.82c-.26.32-.59.71-1,1.15L407,72.21Z"/><path class="cls-3" d="M420.38,67.54a10,10,0,0,1-.39,2.73,6.76,6.76,0,0,1-1,2.19,3.17,3.17,0,0,1-2.64,1.36,2.86,2.86,0,0,1-2.45-1.24,5.68,5.68,0,0,1-.9-3.39,7.87,7.87,0,0,1,1.19-4.43,3.51,3.51,0,0,1,2.94-1.8,2.76,2.76,0,0,1,2.37,1.24A5.65,5.65,0,0,1,420.38,67.54Zm-1.52-.08a4.72,4.72,0,0,0-.46-2.27,1.41,1.41,0,0,0-1.27-.82c-.73,0-1.35.48-1.86,1.45a7.65,7.65,0,0,0-.75,3.56,4.48,4.48,0,0,0,.47,2.23,1.42,1.42,0,0,0,1.29.8A2,2,0,0,0,418,71.25a5.82,5.82,0,0,0,.61-1.71A9.52,9.52,0,0,0,418.86,67.46Z"/><path class="cls-3" d="M425.81,63.12l-1.3,10.55h-1.57l1.13-9.1H422l.72-1.45Z"/><path class="cls-3" d="M431.89,70a2.87,2.87,0,0,1-.75.1,3,3,0,0,1-2.28-.86A3.15,3.15,0,0,1,428,66.9a3.83,3.83,0,0,1,1.13-2.8A3.77,3.77,0,0,1,431.91,63a3.34,3.34,0,0,1,2.44,1,3.39,3.39,0,0,1,1,2.46A5.73,5.73,0,0,1,434,69.7l-3.28,4.42-1.18-.91Zm1.92-3.58a2,2,0,0,0-.55-1.46,1.88,1.88,0,0,0-1.4-.56,2.18,2.18,0,0,0-1.66.71,2.53,2.53,0,0,0-.67,1.78,1.88,1.88,0,0,0,.53,1.39,2,2,0,0,0,1.42.53,2.19,2.19,0,0,0,1.65-.7A2.32,2.32,0,0,0,433.81,66.39Z"/><path class="cls-2" d="M364.13,43.26v9.41H361V43.26h-2.57V40.61h8.28v2.65Z"/><path class="cls-2" d="M369.89,49.05c0,1.25.58,1.88,1.76,1.88a1.57,1.57,0,0,0,1.42-.77h2.8c-.56,1.88-2,2.81-4.24,2.81a5.49,5.49,0,0,1-1.9-.31,4.15,4.15,0,0,1-1.48-.89,4,4,0,0,1-1-1.37,4.64,4.64,0,0,1-.33-1.79,5.13,5.13,0,0,1,.32-1.85,3.86,3.86,0,0,1,.91-1.4,4,4,0,0,1,1.43-.89,5.37,5.37,0,0,1,1.9-.31,5.24,5.24,0,0,1,1.87.31,3.8,3.8,0,0,1,1.41.9,4,4,0,0,1,.88,1.45,5.83,5.83,0,0,1,.3,1.93v.3Zm3.39-1.68a1.74,1.74,0,0,0-.59-1A1.64,1.64,0,0,0,371.6,46a1.7,1.7,0,0,0-1.1.35,1.6,1.6,0,0,0-.53,1Z"/><path class="cls-2" d="M383.07,46.57a3.44,3.44,0,0,0-1.57-.41,1.18,1.18,0,0,0-.65.16.49.49,0,0,0-.24.43.5.5,0,0,0,0,.23.35.35,0,0,0,.17.17,1.65,1.65,0,0,0,.4.14l.7.16a3.31,3.31,0,0,1,1.79.86,2.17,2.17,0,0,1,.59,1.58,2.84,2.84,0,0,1-.28,1.29,2.8,2.8,0,0,1-.8,1,4.1,4.1,0,0,1-1.24.61,5.59,5.59,0,0,1-1.58.21,6.43,6.43,0,0,1-3.28-.94L378.18,50a4.06,4.06,0,0,0,2.3.83,1.14,1.14,0,0,0,.66-.17.53.53,0,0,0,.25-.45.65.65,0,0,0,0-.26.45.45,0,0,0-.17-.2,1.68,1.68,0,0,0-.37-.16l-.65-.15a3.67,3.67,0,0,1-1.88-.81,2,2,0,0,1-.54-1.48,3,3,0,0,1,.26-1.24,2.57,2.57,0,0,1,.74-.93,3.18,3.18,0,0,1,1.16-.59,5.06,5.06,0,0,1,1.51-.21,6.77,6.77,0,0,1,2.64.53Z"/><path class="cls-2" d="M389.23,46.88v5.79h-2.9V46.88h-1V44.46h1V42h2.9v2.46h1.65v2.42Z"/><path class="cls-2" d="M392,41.31a1.51,1.51,0,0,1,.13-.63,1.63,1.63,0,0,1,.87-.87,1.59,1.59,0,0,1,1.26,0,1.63,1.63,0,0,1,.87.87,1.51,1.51,0,0,1,.13.63,1.48,1.48,0,0,1-.13.63,1.63,1.63,0,0,1-.87.87,1.59,1.59,0,0,1-1.26,0,1.63,1.63,0,0,1-.87-.87A1.48,1.48,0,0,1,392,41.31Zm3.09,3.15v8.21h-2.9V44.46Z"/><path class="cls-2" d="M397.07,44.46H400v1a3.15,3.15,0,0,1,1.2-1,3.84,3.84,0,0,1,1.42-.24,3.49,3.49,0,0,1,1.48.28,2.92,2.92,0,0,1,1.05.79,2.43,2.43,0,0,1,.48.93,5.08,5.08,0,0,1,.13,1.16v5.22h-2.9V48.53a4.39,4.39,0,0,0-.09-1,1.23,1.23,0,0,0-.31-.6,1,1,0,0,0-.43-.27,1.7,1.7,0,0,0-.51-.08,1.45,1.45,0,0,0-1.13.44,1.83,1.83,0,0,0-.39,1.26v4.38h-2.9Z"/><path class="cls-2" d="M416.88,44.46v7.65a9,9,0,0,1-.08,1.23,5.42,5.42,0,0,1-.23,1,2.86,2.86,0,0,1-.6,1,4.3,4.3,0,0,1-1,.79,5.44,5.44,0,0,1-1.3.53,6.64,6.64,0,0,1-1.58.19,6.09,6.09,0,0,1-1.76-.24,4.66,4.66,0,0,1-1.4-.67,3.69,3.69,0,0,1-1-1,3.31,3.31,0,0,1-.52-1.24h3.27a1.29,1.29,0,0,0,1.37.82,1.84,1.84,0,0,0,1.4-.51,2,2,0,0,0,.49-1.43v-.78a5,5,0,0,1-.61.5,3.57,3.57,0,0,1-.6.33,2.45,2.45,0,0,1-.64.18,4.55,4.55,0,0,1-2.36-.24,4,4,0,0,1-1.27-.85,3.76,3.76,0,0,1-.83-1.31,4.53,4.53,0,0,1-.3-1.68,4.83,4.83,0,0,1,.32-1.76,4.68,4.68,0,0,1,.88-1.4,3.92,3.92,0,0,1,3-1.29A3.17,3.17,0,0,1,414,45.33v-.87Zm-6.5,4.07a1.85,1.85,0,0,0,.15.74,1.73,1.73,0,0,0,.39.6,1.76,1.76,0,0,0,.59.4,1.84,1.84,0,0,0,.74.14,1.79,1.79,0,0,0,.73-.14,1.76,1.76,0,0,0,.59-.4,1.91,1.91,0,0,0,.4-.6,1.81,1.81,0,0,0,.16-.73,1.77,1.77,0,0,0-.16-.73,1.91,1.91,0,0,0-.4-.6,2,2,0,0,0-.6-.4,2,2,0,0,0-.72-.14,1.79,1.79,0,0,0-.72.15,2.19,2.19,0,0,0-.59.4,1.89,1.89,0,0,0-.41.59A1.72,1.72,0,0,0,410.38,48.53Z"/><circle class="cls-1" cx="388.07" cy="27.15" r="5"/><path class="cls-3" d="M471.62,63.12l-.93,7.58c0,.36-.1.68-.15,1a4.07,4.07,0,0,1-.21.71,2.13,2.13,0,0,1-.27.52,2.16,2.16,0,0,1-.37.43,2.5,2.5,0,0,1-1.67.56,2.93,2.93,0,0,1-2.18-1l.8-1.15a2,2,0,0,0,1.32.71.86.86,0,0,0,.82-.58,8.06,8.06,0,0,0,.48-2.24l.8-6.48Z"/><path class="cls-3" d="M479.76,67.23,479,73.67h-1.51l.09-.7a3,3,0,0,1-2,.85,2.73,2.73,0,0,1-2.09-.87,3.16,3.16,0,0,1-.8-2.25,3.72,3.72,0,0,1,.92-2.61,3.1,3.1,0,0,1,2.4-1,2.74,2.74,0,0,1,1.17.23,3.24,3.24,0,0,1,1,.78l.1-.85Zm-1.84,3a2,2,0,0,0-.49-1.39,1.64,1.64,0,0,0-1.27-.54,1.8,1.8,0,0,0-1.42.66,2.42,2.42,0,0,0-.58,1.64,2,2,0,0,0,.48,1.39,1.57,1.57,0,0,0,1.23.54,1.87,1.87,0,0,0,1.44-.68A2.35,2.35,0,0,0,477.92,70.27Z"/><path class="cls-3" d="M483.38,67.23l-.07.6a2.79,2.79,0,0,1,1.81-.76,2.14,2.14,0,0,1,1.51.53,1.89,1.89,0,0,1,.56,1.44,9.15,9.15,0,0,1-.09,1.17l-.43,3.46h-1.5l.46-3.79c0-.14,0-.26,0-.37s0-.21,0-.3c0-.58-.31-.87-.94-.87a1.52,1.52,0,0,0-1,.35,1.73,1.73,0,0,0-.51.69,3,3,0,0,0-.15.5c0,.2-.07.43-.11.69l-.38,3.1h-1.51l.79-6.44Z"/><path class="cls-3" d="M495.48,69.75l-.15,1.19h-2.94l.13-1.19Z"/><path class="cls-3" d="M507.1,63.12l-.18,1.45h-3.65l-.33,2.72h3.65l-.17,1.36h-3.66l-.61,5h-1.57l1.31-10.55Z"/><path class="cls-3" d="M508.91,71a1.53,1.53,0,0,0,.49,1.17,1.83,1.83,0,0,0,1.27.46,1.88,1.88,0,0,0,1.63-.8l1.13.63a3.58,3.58,0,0,1-1.21,1.1,3.35,3.35,0,0,1-1.57.33,3.24,3.24,0,0,1-2.39-.89,3.17,3.17,0,0,1-.89-2.36,3.64,3.64,0,0,1,1-2.58,3.21,3.21,0,0,1,2.45-1,2.9,2.9,0,0,1,2.27.93,3.61,3.61,0,0,1,.84,2.51c0,.11,0,.28,0,.53Zm3.47-1.22a1.55,1.55,0,0,0-1.65-1.49A1.73,1.73,0,0,0,509,69.77Z"/><path class="cls-3" d="M518.15,62.12l-.7,5.71a3.84,3.84,0,0,1,1-.6,3.21,3.21,0,0,1,1-.16,2.83,2.83,0,0,1,2.17.91,3.14,3.14,0,0,1,.85,2.28,3.48,3.48,0,0,1-1,2.53,3.19,3.19,0,0,1-4.68,0l-.11.86h-1.51l1.42-11.55ZM521,70.29a2,2,0,0,0-.52-1.41,1.74,1.74,0,0,0-1.33-.54,1.91,1.91,0,0,0-1.47.65,2.39,2.39,0,0,0-.58,1.67,1.91,1.91,0,0,0,.5,1.37,1.7,1.7,0,0,0,1.3.53,1.93,1.93,0,0,0,1.48-.66A2.28,2.28,0,0,0,521,70.29Z"/><path class="cls-3" d="M534.77,72.21l-.18,1.46h-6.83L532,69c.44-.48.78-.87,1-1.18a7,7,0,0,0,.54-.71,1.93,1.93,0,0,0,.29-1.09,1.9,1.9,0,0,0-.12-.7,1.38,1.38,0,0,0-.34-.53,1.5,1.5,0,0,0-.54-.34,2.36,2.36,0,0,0-.72-.11,2.28,2.28,0,0,0-.78.12,1.51,1.51,0,0,0-.57.4,1.9,1.9,0,0,0-.36.68,4.73,4.73,0,0,0-.19,1h-1.48a4.71,4.71,0,0,1,.65-2.31,3.61,3.61,0,0,1,5.09-.44,2.92,2.92,0,0,1,.88,2.23A3.28,3.28,0,0,1,535,67.6a5.13,5.13,0,0,1-.58.82c-.26.32-.59.71-1,1.15L531,72.21Z"/><path class="cls-3" d="M544.33,67.54a10,10,0,0,1-.39,2.73,6.76,6.76,0,0,1-1,2.19,3.17,3.17,0,0,1-2.63,1.36,2.88,2.88,0,0,1-2.46-1.24,5.75,5.75,0,0,1-.89-3.39,7.79,7.79,0,0,1,1.19-4.43,3.48,3.48,0,0,1,2.94-1.8,2.75,2.75,0,0,1,2.36,1.24A5.65,5.65,0,0,1,544.33,67.54Zm-1.52-.08a4.61,4.61,0,0,0-.46-2.27,1.39,1.39,0,0,0-1.26-.82c-.74,0-1.36.48-1.86,1.45a7.65,7.65,0,0,0-.75,3.56,4.49,4.49,0,0,0,.46,2.23,1.43,1.43,0,0,0,1.29.8A2,2,0,0,0,542,71.25a5.82,5.82,0,0,0,.61-1.71A9,9,0,0,0,542.81,67.46Z"/><path class="cls-3" d="M552.05,72.21l-.18,1.46H545L549.25,69c.44-.48.79-.87,1-1.18a7,7,0,0,0,.54-.71,1.93,1.93,0,0,0,.29-1.09,1.9,1.9,0,0,0-.12-.7,1.38,1.38,0,0,0-.34-.53,1.5,1.5,0,0,0-.54-.34,2.36,2.36,0,0,0-.72-.11,2.28,2.28,0,0,0-.78.12,1.41,1.41,0,0,0-.56.4,1.77,1.77,0,0,0-.37.68,4.19,4.19,0,0,0-.18,1H546a4.71,4.71,0,0,1,.65-2.31,3.61,3.61,0,0,1,5.09-.44,2.92,2.92,0,0,1,.88,2.23,3.28,3.28,0,0,1-.36,1.57,5.67,5.67,0,0,1-.57.82c-.27.32-.6.71-1,1.15l-2.44,2.64Z"/><path class="cls-3" d="M561.62,67.54a10,10,0,0,1-.39,2.73,6.76,6.76,0,0,1-1,2.19,3.16,3.16,0,0,1-2.63,1.36,2.88,2.88,0,0,1-2.46-1.24,5.75,5.75,0,0,1-.89-3.39,7.87,7.87,0,0,1,1.19-4.43,3.48,3.48,0,0,1,2.94-1.8,2.73,2.73,0,0,1,2.36,1.24A5.65,5.65,0,0,1,561.62,67.54Zm-1.53-.08a4.61,4.61,0,0,0-.46-2.27,1.38,1.38,0,0,0-1.26-.82c-.74,0-1.36.48-1.86,1.45a7.65,7.65,0,0,0-.75,3.56,4.49,4.49,0,0,0,.46,2.23,1.44,1.44,0,0,0,1.29.8,2,2,0,0,0,1.72-1.16,5.82,5.82,0,0,0,.61-1.71A9,9,0,0,0,560.09,67.46Z"/><path class="cls-2" d="M477.33,52.67h-3.91l-3-4.64v4.64H467.3V40.61h4.88a5,5,0,0,1,1.76.29,3.51,3.51,0,0,1,1.24.81,3.44,3.44,0,0,1,.73,1.18,4,4,0,0,1,.25,1.44,3.57,3.57,0,0,1-.66,2.24,3.42,3.42,0,0,1-2,1.16ZM470.43,46H471a2.28,2.28,0,0,0,1.43-.39,1.48,1.48,0,0,0,0-2.2A2.28,2.28,0,0,0,471,43h-.59Z"/><path class="cls-2" d="M480.8,49.05c0,1.25.59,1.88,1.76,1.88a1.57,1.57,0,0,0,1.42-.77h2.8c-.56,1.88-2,2.81-4.24,2.81a5.53,5.53,0,0,1-1.9-.31,4.15,4.15,0,0,1-1.48-.89,3.88,3.88,0,0,1-1-1.37,4.46,4.46,0,0,1-.34-1.79,5.13,5.13,0,0,1,.32-1.85,3.86,3.86,0,0,1,.91-1.4,4.07,4.07,0,0,1,1.44-.89,5.35,5.35,0,0,1,1.89-.31,5.24,5.24,0,0,1,1.87.31,3.8,3.8,0,0,1,1.41.9,3.87,3.87,0,0,1,.88,1.45,5.83,5.83,0,0,1,.31,1.93v.3Zm3.39-1.68a1.69,1.69,0,0,0-.59-1,1.64,1.64,0,0,0-1.09-.37,1.66,1.66,0,0,0-1.09.35,1.57,1.57,0,0,0-.54,1Z"/><path class="cls-2" d="M488.78,44.46V42.94a3.45,3.45,0,0,1,.35-1.51,4,4,0,0,1,.93-1.24,4.45,4.45,0,0,1,1.36-.84,4.27,4.27,0,0,1,1.64-.31,4.54,4.54,0,0,1,1.64.3,4.48,4.48,0,0,1,1.36.83,4.31,4.31,0,0,1,.92,1.24,3.5,3.5,0,0,1,.35,1.53v.37h-2.9v-.37a1.49,1.49,0,0,0-.1-.55,1.61,1.61,0,0,0-.29-.47,1.58,1.58,0,0,0-.43-.34,1.27,1.27,0,0,0-.55-.13,1.25,1.25,0,0,0-1,.45,1.55,1.55,0,0,0-.39,1v1.52h1.66v2.42h-1.66v5.79h-2.9V46.88h-1V44.46Zm8.55,8.21h-2.9V44.46h2.9Z"/><path class="cls-2" d="M499.31,44.46h2.9v1a3.15,3.15,0,0,1,1.2-1,3.84,3.84,0,0,1,1.42-.24,3.49,3.49,0,0,1,1.48.28,2.92,2.92,0,0,1,1.05.79,2.43,2.43,0,0,1,.48.93,5.08,5.08,0,0,1,.13,1.16v5.22h-2.9V48.53a4.39,4.39,0,0,0-.09-1,1.23,1.23,0,0,0-.31-.6,1,1,0,0,0-.43-.27,1.7,1.7,0,0,0-.51-.08,1.45,1.45,0,0,0-1.13.44,1.83,1.83,0,0,0-.39,1.26v4.38h-2.9Z"/><path class="cls-2" d="M512.54,49.05c0,1.25.59,1.88,1.76,1.88a1.59,1.59,0,0,0,1.43-.77h2.8C518,52,516.55,53,514.29,53a5.55,5.55,0,0,1-1.91-.31,4.24,4.24,0,0,1-1.48-.89A3.88,3.88,0,0,1,510,50.4a4.64,4.64,0,0,1-.33-1.79,4.92,4.92,0,0,1,.32-1.85,3.73,3.73,0,0,1,.91-1.4,3.94,3.94,0,0,1,1.43-.89,5.35,5.35,0,0,1,1.89-.31,5.3,5.3,0,0,1,1.88.31,3.67,3.67,0,0,1,2.28,2.35,5.58,5.58,0,0,1,.31,1.93v.3Zm3.4-1.68a1.75,1.75,0,0,0-.6-1,1.64,1.64,0,0,0-1.09-.37,1.53,1.53,0,0,0-1.63,1.34Z"/><path class="cls-2" d="M520.29,44.46h2.89v1a3.75,3.75,0,0,1,2.66-1.14,3.1,3.1,0,0,1,2.78,1.54,3.12,3.12,0,0,1,2.79-1.55,3.32,3.32,0,0,1,1.09.17,2.24,2.24,0,0,1,.88.52A2.59,2.59,0,0,1,534,46a4.07,4.07,0,0,1,.21,1.39v5.33h-2.89V48.62a4.82,4.82,0,0,0-.09-1,1.69,1.69,0,0,0-.25-.63.94.94,0,0,0-.4-.3,1.51,1.51,0,0,0-.48-.08c-.93,0-1.39.68-1.39,2v4.05h-2.89V48.62a5.82,5.82,0,0,0-.08-1,2.11,2.11,0,0,0-.24-.65.78.78,0,0,0-.39-.33,1.89,1.89,0,0,0-.56-.08,1.44,1.44,0,0,0-.51.08.83.83,0,0,0-.42.31,1.59,1.59,0,0,0-.29.64,4.3,4.3,0,0,0-.11,1.06v4.05h-2.89Z"/><path class="cls-2" d="M538.77,49.05c0,1.25.58,1.88,1.76,1.88a1.57,1.57,0,0,0,1.42-.77h2.8c-.56,1.88-2,2.81-4.24,2.81a5.49,5.49,0,0,1-1.9-.31,4.15,4.15,0,0,1-1.48-.89,4,4,0,0,1-1-1.37,4.64,4.64,0,0,1-.33-1.79,5.13,5.13,0,0,1,.32-1.85,3.86,3.86,0,0,1,.91-1.4,3.94,3.94,0,0,1,1.43-.89,5.37,5.37,0,0,1,1.9-.31,5.24,5.24,0,0,1,1.87.31,3.88,3.88,0,0,1,1.41.9,4,4,0,0,1,.88,1.45,5.83,5.83,0,0,1,.3,1.93v.3Zm3.39-1.68a1.74,1.74,0,0,0-.59-1,1.64,1.64,0,0,0-1.09-.37,1.7,1.7,0,0,0-1.1.35,1.6,1.6,0,0,0-.53,1Z"/><path class="cls-2" d="M546.51,44.46h2.9v1a3.15,3.15,0,0,1,1.2-1,3.84,3.84,0,0,1,1.42-.24,3.49,3.49,0,0,1,1.48.28,2.92,2.92,0,0,1,1,.79,2.43,2.43,0,0,1,.48.93,5.08,5.08,0,0,1,.13,1.16v5.22h-2.9V48.53a4.39,4.39,0,0,0-.09-1,1.23,1.23,0,0,0-.31-.6,1,1,0,0,0-.43-.27,1.7,1.7,0,0,0-.51-.08,1.45,1.45,0,0,0-1.13.44,1.83,1.83,0,0,0-.39,1.26v4.38h-2.9Z"/><path class="cls-2" d="M560.37,46.88v5.79h-2.9V46.88h-1V44.46h1V42h2.9v2.46H562v2.42Z"/><circle class="cls-1" cx="514.07" cy="27.15" r="5"/><path class="cls-3" d="M607.82,62.12l.87,11.55H607.2l-.47-6.73-4.09,7.47-2.26-7.47-2.11,6.73h-1.6l3.65-11.3L603,71Z"/><path class="cls-3" d="M617.6,67.23l-.8,6.44h-1.51l.09-.7a3,3,0,0,1-2,.85,2.7,2.7,0,0,1-2.08-.87,3.17,3.17,0,0,1-.81-2.25,3.76,3.76,0,0,1,.92-2.61,3.13,3.13,0,0,1,2.4-1,2.82,2.82,0,0,1,1.18.23,3.21,3.21,0,0,1,1,.78l.1-.85Zm-1.84,3a2,2,0,0,0-.5-1.39,1.63,1.63,0,0,0-1.27-.54,1.81,1.81,0,0,0-1.42.66,2.46,2.46,0,0,0-.57,1.64,2,2,0,0,0,.48,1.39,1.54,1.54,0,0,0,1.23.54,1.9,1.9,0,0,0,1.44-.68A2.4,2.4,0,0,0,615.76,70.27Z"/><path class="cls-3" d="M621.22,67.23l-.07.55a2.28,2.28,0,0,1,1.55-.72,1.84,1.84,0,0,1,1.24.5l-1,1.24a1.33,1.33,0,0,0-.84-.35,1.12,1.12,0,0,0-.5.11.93.93,0,0,0-.38.36,2.1,2.1,0,0,0-.27.62,6.1,6.1,0,0,0-.17.92l-.39,3.21h-1.51l.79-6.44Z"/><path class="cls-3" d="M631,69.75l-.15,1.19h-3l.14-1.19Z"/><path class="cls-3" d="M638.22,71.19l-1.29,2.48h-1.7l5.84-11.31,3.64,11.31h-1.63l-.77-2.48Zm.68-1.36h3l-1.14-3.75Z"/><path class="cls-3" d="M652.06,67.23,651.6,71a7.12,7.12,0,0,1-.14.83,3.09,3.09,0,0,1-.18.6,2,2,0,0,1-.64.81,3.17,3.17,0,0,1-2,.6,2.82,2.82,0,0,1-1.9-.61,2.08,2.08,0,0,1-.71-1.65c0-.1,0-.22,0-.36s0-.31.05-.49l.42-3.48H648l-.45,3.62c0,.15,0,.29,0,.4s0,.22,0,.29c0,.68.4,1,1.19,1a1.25,1.25,0,0,0,1-.33,2.15,2.15,0,0,0,.41-1.18l.47-3.82Z"/><path class="cls-3" d="M660.64,67.23l-.79,6.49c-.05.39-.11.72-.17,1a4,4,0,0,1-.21.72,2.68,2.68,0,0,1-.71,1,3.46,3.46,0,0,1-2.38.82,3.64,3.64,0,0,1-2.44-.8,2.05,2.05,0,0,1-.67-.9,3.44,3.44,0,0,1-.2-1.3h1.47a2,2,0,0,0,.46,1.32,1.76,1.76,0,0,0,1.27.41,1.91,1.91,0,0,0,1.42-.49A2.66,2.66,0,0,0,658.3,74l.11-.88a3.25,3.25,0,0,1-2,.73,2.85,2.85,0,0,1-2.16-.9,3.21,3.21,0,0,1-.86-2.28,3.52,3.52,0,0,1,1-2.55,3.36,3.36,0,0,1,2.5-1,2.58,2.58,0,0,1,1.16.22,3.12,3.12,0,0,1,1,.74l.09-.8Zm-1.73,3.06a1.85,1.85,0,0,0-1.93-2,1.93,1.93,0,0,0-1.49.65,2.33,2.33,0,0,0-.59,1.64,2,2,0,0,0,.51,1.41,1.79,1.79,0,0,0,1.35.52,2,2,0,0,0,1.54-.64A2.32,2.32,0,0,0,658.91,70.29Z"/><path class="cls-3" d="M672.93,72.21l-.18,1.46h-6.83L670.13,69c.44-.48.79-.87,1-1.18a7,7,0,0,0,.54-.71,2,2,0,0,0,.28-1.09,1.9,1.9,0,0,0-.12-.7,1.38,1.38,0,0,0-.34-.53,1.5,1.5,0,0,0-.54-.34,2.36,2.36,0,0,0-.72-.11,2.28,2.28,0,0,0-.78.12,1.41,1.41,0,0,0-.56.4,1.77,1.77,0,0,0-.37.68,4.19,4.19,0,0,0-.18,1H666.9a4.71,4.71,0,0,1,.65-2.31A3.14,3.14,0,0,1,670.32,63a3.18,3.18,0,0,1,2.33.85,3,3,0,0,1,.87,2.23,3.28,3.28,0,0,1-.36,1.57,5.67,5.67,0,0,1-.57.82c-.26.32-.6.71-1,1.15l-2.44,2.64Z"/><path class="cls-3" d="M682.5,67.54a10,10,0,0,1-.39,2.73,6.76,6.76,0,0,1-1,2.19,3.16,3.16,0,0,1-2.63,1.36A2.85,2.85,0,0,1,676,72.58a5.68,5.68,0,0,1-.9-3.39,7.87,7.87,0,0,1,1.19-4.43,3.48,3.48,0,0,1,2.94-1.8,2.73,2.73,0,0,1,2.36,1.24A5.65,5.65,0,0,1,682.5,67.54ZM681,67.46a4.61,4.61,0,0,0-.46-2.27,1.38,1.38,0,0,0-1.26-.82c-.74,0-1.35.48-1.86,1.45a7.65,7.65,0,0,0-.75,3.56,4.49,4.49,0,0,0,.46,2.23,1.44,1.44,0,0,0,1.29.8,2,2,0,0,0,1.72-1.16,5.81,5.81,0,0,0,.62-1.71A9.49,9.49,0,0,0,681,67.46Z"/><path class="cls-3" d="M690.21,72.21,690,73.67H683.2L687.41,69c.44-.48.79-.87,1.05-1.18a7,7,0,0,0,.54-.71,2,2,0,0,0,.28-1.09,1.9,1.9,0,0,0-.12-.7,1.38,1.38,0,0,0-.34-.53,1.5,1.5,0,0,0-.54-.34,2.31,2.31,0,0,0-.72-.11,2.28,2.28,0,0,0-.78.12,1.41,1.41,0,0,0-.56.4,1.91,1.91,0,0,0-.37.68,4.19,4.19,0,0,0-.18,1h-1.49a4.71,4.71,0,0,1,.65-2.31A3.14,3.14,0,0,1,687.6,63a3.18,3.18,0,0,1,2.33.85A3,3,0,0,1,690.8,66a3.28,3.28,0,0,1-.36,1.57,5.67,5.67,0,0,1-.57.82c-.26.32-.6.71-1,1.15l-2.44,2.64Z"/><path class="cls-3" d="M699.78,67.54a10,10,0,0,1-.39,2.73,6.76,6.76,0,0,1-1,2.19,3.16,3.16,0,0,1-2.63,1.36,2.86,2.86,0,0,1-2.45-1.24,5.68,5.68,0,0,1-.9-3.39,7.87,7.87,0,0,1,1.19-4.43,3.48,3.48,0,0,1,2.94-1.8,2.76,2.76,0,0,1,2.37,1.24A5.72,5.72,0,0,1,699.78,67.54Zm-1.53-.08a4.61,4.61,0,0,0-.46-2.27,1.38,1.38,0,0,0-1.26-.82c-.73,0-1.35.48-1.86,1.45a7.65,7.65,0,0,0-.75,3.56,4.49,4.49,0,0,0,.46,2.23,1.44,1.44,0,0,0,1.3.8,2,2,0,0,0,1.71-1.16,5.81,5.81,0,0,0,.62-1.71A9.49,9.49,0,0,0,698.25,67.46Z"/><path class="cls-2" d="M593,40.61h4.64a5.47,5.47,0,0,1,2.31.49,6.3,6.3,0,0,1,1.89,1.32,6.12,6.12,0,0,1,1.27,1.92,5.83,5.83,0,0,1,.46,2.3,5.94,5.94,0,0,1-.45,2.28A6.15,6.15,0,0,1,600,52.17a5.54,5.54,0,0,1-2.33.5H593Zm3.13,9.4h.72a3.92,3.92,0,0,0,1.46-.25,3,3,0,0,0,1.08-.71,2.91,2.91,0,0,0,.67-1.06,3.68,3.68,0,0,0,.23-1.35,3.76,3.76,0,0,0-.24-1.35,3.06,3.06,0,0,0-.68-1.07,3,3,0,0,0-1.08-.7,3.81,3.81,0,0,0-1.44-.26h-.72Z"/><path class="cls-2" d="M607.9,49.05c0,1.25.59,1.88,1.76,1.88a1.57,1.57,0,0,0,1.42-.77h2.8c-.56,1.88-2,2.81-4.24,2.81a5.53,5.53,0,0,1-1.9-.31,4.15,4.15,0,0,1-1.48-.89,3.88,3.88,0,0,1-1-1.37,4.46,4.46,0,0,1-.34-1.79,5.13,5.13,0,0,1,.32-1.85,3.86,3.86,0,0,1,.91-1.4,4.12,4.12,0,0,1,1.43-.89,5.45,5.45,0,0,1,1.9-.31,5.24,5.24,0,0,1,1.87.31,3.8,3.8,0,0,1,1.41.9,3.87,3.87,0,0,1,.88,1.45,5.83,5.83,0,0,1,.31,1.93v.3Zm3.39-1.68a1.69,1.69,0,0,0-.59-1,1.64,1.64,0,0,0-1.09-.37,1.7,1.7,0,0,0-1.1.35,1.6,1.6,0,0,0-.53,1Z"/><path class="cls-2" d="M617.53,44.46l2,4.21,2-4.21h3.23l-4.27,8.21h-1.94l-4.22-8.21Z"/><path class="cls-2" d="M627.92,49.05c0,1.25.58,1.88,1.76,1.88a1.58,1.58,0,0,0,1.42-.77h2.8c-.57,1.88-2,2.81-4.24,2.81a5.49,5.49,0,0,1-1.9-.31,4.15,4.15,0,0,1-1.48-.89,4,4,0,0,1-1-1.37,4.64,4.64,0,0,1-.33-1.79,4.92,4.92,0,0,1,.32-1.85,3.86,3.86,0,0,1,.91-1.4,3.94,3.94,0,0,1,1.43-.89,5.37,5.37,0,0,1,1.9-.31,5.24,5.24,0,0,1,1.87.31,4,4,0,0,1,1.41.9,4.15,4.15,0,0,1,.88,1.45,5.83,5.83,0,0,1,.3,1.93v.3Zm3.39-1.68a1.8,1.8,0,0,0-.59-1,1.66,1.66,0,0,0-1.09-.37,1.69,1.69,0,0,0-1.1.35,1.6,1.6,0,0,0-.53,1Z"/><path class="cls-2" d="M638.56,39.39V52.67h-2.9V39.39Z"/><path class="cls-2" d="M640.22,48.49a3.94,3.94,0,0,1,.37-1.7,4.07,4.07,0,0,1,1-1.38,5.23,5.23,0,0,1,1.56-.92,6,6,0,0,1,3.94,0,4.82,4.82,0,0,1,1.56.91,4.07,4.07,0,0,1,1,1.39,4.33,4.33,0,0,1,.37,1.78,4.22,4.22,0,0,1-.38,1.79,4.31,4.31,0,0,1-1,1.39,4.62,4.62,0,0,1-1.58.9,5.85,5.85,0,0,1-2,.32,5.58,5.58,0,0,1-2-.32,4.44,4.44,0,0,1-1.55-.91,4.1,4.1,0,0,1-1-1.41A4.38,4.38,0,0,1,640.22,48.49Zm3.06,0a1.91,1.91,0,0,0,.55,1.36,1.76,1.76,0,0,0,.59.4,2,2,0,0,0,.73.14,2,2,0,0,0,.73-.14,2,2,0,0,0,.59-.4,2.1,2.1,0,0,0,.4-.6,1.86,1.86,0,0,0,.15-.75,1.83,1.83,0,0,0-.15-.73,2.1,2.1,0,0,0-.4-.6,2,2,0,0,0-.59-.4,2,2,0,0,0-.73-.14,2,2,0,0,0-.73.14,1.76,1.76,0,0,0-.59.4,1.91,1.91,0,0,0-.4.6A1.72,1.72,0,0,0,643.28,48.53Z"/><path class="cls-2" d="M654.64,56.77h-2.9V44.46h2.9v.91a3.06,3.06,0,0,1,2.52-1.16,3.88,3.88,0,0,1,1.64.34,4,4,0,0,1,1.32.94,4.07,4.07,0,0,1,.88,1.39,4.81,4.81,0,0,1,.31,1.71,4.75,4.75,0,0,1-.31,1.7,4.33,4.33,0,0,1-.87,1.37,3.88,3.88,0,0,1-1.3.93,4,4,0,0,1-1.63.34,3.42,3.42,0,0,1-2.56-1.06Zm3.64-8.18a2,2,0,0,0-.13-.73,1.62,1.62,0,0,0-.4-.6,2.23,2.23,0,0,0-.59-.41,1.86,1.86,0,0,0-.75-.15,1.79,1.79,0,0,0-.72.15,1.67,1.67,0,0,0-.58.4,1.91,1.91,0,0,0-.4.6,1.79,1.79,0,0,0-.15.72,1.8,1.8,0,0,0,.54,1.31,2.1,2.1,0,0,0,.6.4,1.8,1.8,0,0,0,.73.15,2,2,0,0,0,.72-.14,1.82,1.82,0,0,0,.58-.4,1.91,1.91,0,0,0,.4-.6A1.66,1.66,0,0,0,658.28,48.59Z"/><path class="cls-2" d="M663,44.46h2.89v1a3.75,3.75,0,0,1,2.66-1.14,3.28,3.28,0,0,0,5.57,0,3.22,3.22,0,0,1,1.08.17A2.17,2.17,0,0,1,676,45a2.61,2.61,0,0,1,.59.94,4.07,4.07,0,0,1,.21,1.39v5.33H674V48.62a4.82,4.82,0,0,0-.09-1,1.68,1.68,0,0,0-.26-.63.86.86,0,0,0-.39-.3,1.51,1.51,0,0,0-.48-.08c-.93,0-1.39.68-1.39,2v4.05h-2.9V48.62a5,5,0,0,0-.08-1,1.89,1.89,0,0,0-.23-.65.78.78,0,0,0-.39-.33,1.89,1.89,0,0,0-.56-.08,1.44,1.44,0,0,0-.51.08.89.89,0,0,0-.43.31,1.58,1.58,0,0,0-.28.64,4.3,4.3,0,0,0-.11,1.06v4.05H663Z"/><path class="cls-2" d="M681.43,49.05c0,1.25.59,1.88,1.76,1.88a1.59,1.59,0,0,0,1.43-.77h2.8c-.57,1.88-2,2.81-4.24,2.81a5.59,5.59,0,0,1-1.91-.31,4.34,4.34,0,0,1-1.48-.89,4,4,0,0,1-.95-1.37,4.64,4.64,0,0,1-.33-1.79,4.92,4.92,0,0,1,.32-1.85,3.73,3.73,0,0,1,.91-1.4,3.94,3.94,0,0,1,1.43-.89,5.37,5.37,0,0,1,1.9-.31,5.28,5.28,0,0,1,1.87.31,4,4,0,0,1,1.41.9,4.15,4.15,0,0,1,.88,1.45,5.83,5.83,0,0,1,.3,1.93v.3Zm3.4-1.68a1.75,1.75,0,0,0-.6-1,1.61,1.61,0,0,0-1.08-.37,1.69,1.69,0,0,0-1.1.35,1.67,1.67,0,0,0-.54,1Z"/><path class="cls-2" d="M689.18,44.46h2.9v1a3.21,3.21,0,0,1,1.19-1,3.89,3.89,0,0,1,1.43-.24,3.52,3.52,0,0,1,1.48.28,2.92,2.92,0,0,1,1.05.79,2.43,2.43,0,0,1,.48.93,5.11,5.11,0,0,1,.12,1.16v5.22h-2.89V48.53a4.39,4.39,0,0,0-.09-1,1.23,1.23,0,0,0-.31-.6,1,1,0,0,0-.43-.27,1.72,1.72,0,0,0-.52-.08,1.42,1.42,0,0,0-1.12.44,1.83,1.83,0,0,0-.39,1.26v4.38h-2.9Z"/><path class="cls-2" d="M703,46.88v5.79h-2.89V46.88h-1V44.46h1V42H703v2.46h1.65v2.42Z"/><circle class="cls-1" cx="648.25" cy="27.15" r="5"/><path class="cls-3" d="M760.92,64.46l-1,1a2.08,2.08,0,0,0-1.71-1.09,1.59,1.59,0,0,0-1.15.43,1.39,1.39,0,0,0-.46,1.08,1.34,1.34,0,0,0,.31.89,3,3,0,0,0,.47.41,7.87,7.87,0,0,0,.76.49,6.12,6.12,0,0,1,1.82,1.44,2.85,2.85,0,0,1,.46,1.7,2.92,2.92,0,0,1-.9,2.22,3.29,3.29,0,0,1-2.35.85,3.7,3.7,0,0,1-2-.51,3.56,3.56,0,0,1-.76-.66,5.71,5.71,0,0,1-.69-1l1.19-.8a3.55,3.55,0,0,0,1,1.17,2.06,2.06,0,0,0,1.21.32,1.78,1.78,0,0,0,1.3-.44,1.61,1.61,0,0,0,.47-1.24,1.41,1.41,0,0,0-.34-.94,3.52,3.52,0,0,0-.51-.44c-.23-.16-.51-.35-.86-.55a5.71,5.71,0,0,1-1.66-1.34,2.72,2.72,0,0,1-.45-1.6,2.77,2.77,0,0,1,.89-2.12,3.13,3.13,0,0,1,2.24-.84,3,3,0,0,1,1.5.35A4.63,4.63,0,0,1,760.92,64.46Z"/><path class="cls-3" d="M763.24,71a1.57,1.57,0,0,0,.49,1.17,1.85,1.85,0,0,0,1.27.46,1.88,1.88,0,0,0,1.63-.8l1.13.63a3.58,3.58,0,0,1-1.21,1.1,3.35,3.35,0,0,1-1.57.33,3.24,3.24,0,0,1-2.39-.89,3.17,3.17,0,0,1-.89-2.36,3.64,3.64,0,0,1,1-2.58,3.22,3.22,0,0,1,2.45-1,2.88,2.88,0,0,1,2.27.93,3.61,3.61,0,0,1,.84,2.51c0,.11,0,.28,0,.53Zm3.47-1.22a1.55,1.55,0,0,0-1.65-1.49,1.73,1.73,0,0,0-1.74,1.49Z"/><path class="cls-3" d="M771.85,67.23l-.08.68a3.1,3.1,0,0,1,2.05-.84A2.82,2.82,0,0,1,776,68a3.15,3.15,0,0,1,.86,2.26,3.61,3.61,0,0,1-1,2.56,3.17,3.17,0,0,1-2.41,1,2.77,2.77,0,0,1-1.21-.23,3.7,3.7,0,0,1-1.05-.84l-.57,4.6h-1.51l1.25-10.12Zm3.46,3.06a2,2,0,0,0-.5-1.4,1.57,1.57,0,0,0-1.25-.55A2,2,0,0,0,772,69a2.35,2.35,0,0,0-.62,1.65,1.84,1.84,0,0,0,.52,1.37,1.81,1.81,0,0,0,1.34.53,1.89,1.89,0,0,0,1.45-.65A2.39,2.39,0,0,0,775.31,70.29Z"/><path class="cls-3" d="M780.43,68.63l-.63,5h-1.51l.63-5h-.86l.17-1.4h.86l.37-3H781l-.37,3H782l-.17,1.4Z"/><path class="cls-3" d="M793.26,72.21l-.18,1.46h-6.83L790.46,69c.44-.48.79-.87,1-1.18a7,7,0,0,0,.54-.71,2,2,0,0,0,.28-1.09,2.14,2.14,0,0,0-.11-.7,1.4,1.4,0,0,0-.35-.53,1.42,1.42,0,0,0-.54-.34,2.27,2.27,0,0,0-.72-.11,2.37,2.37,0,0,0-.78.12,1.41,1.41,0,0,0-.56.4,2.08,2.08,0,0,0-.37.68,4.19,4.19,0,0,0-.18,1h-1.48a4.62,4.62,0,0,1,.64-2.31,3.62,3.62,0,0,1,5.1-.44,3,3,0,0,1,.87,2.23,3.28,3.28,0,0,1-.36,1.57,5.67,5.67,0,0,1-.57.82c-.26.32-.59.71-1,1.15l-2.44,2.64Z"/><path class="cls-3" d="M802.83,67.54a10,10,0,0,1-.39,2.73,6.76,6.76,0,0,1-1,2.19,3.14,3.14,0,0,1-2.63,1.36,2.86,2.86,0,0,1-2.45-1.24,5.68,5.68,0,0,1-.9-3.39,7.87,7.87,0,0,1,1.19-4.43,3.48,3.48,0,0,1,2.94-1.8A2.76,2.76,0,0,1,802,64.2,5.72,5.72,0,0,1,802.83,67.54Zm-1.53-.08a4.73,4.73,0,0,0-.45-2.27,1.41,1.41,0,0,0-1.27-.82c-.73,0-1.35.48-1.86,1.45a7.65,7.65,0,0,0-.75,3.56,4.49,4.49,0,0,0,.46,2.23,1.44,1.44,0,0,0,1.3.8,2,2,0,0,0,1.71-1.16,5.81,5.81,0,0,0,.62-1.71A9.49,9.49,0,0,0,801.3,67.46Z"/><path class="cls-3" d="M810.55,72.21l-.19,1.46h-6.83L807.74,69c.44-.48.79-.87,1-1.18a7,7,0,0,0,.54-.71,2,2,0,0,0,.29-1.09,1.9,1.9,0,0,0-.12-.7,1.51,1.51,0,0,0-.34-.53,1.46,1.46,0,0,0-.55-.34,2.27,2.27,0,0,0-.72-.11,2.37,2.37,0,0,0-.78.12,1.41,1.41,0,0,0-.56.4,2.08,2.08,0,0,0-.37.68,4.19,4.19,0,0,0-.18,1h-1.48a4.51,4.51,0,0,1,.65-2.31A3.12,3.12,0,0,1,807.93,63a3.17,3.17,0,0,1,2.33.85,3,3,0,0,1,.87,2.23,3.28,3.28,0,0,1-.36,1.57,5.67,5.67,0,0,1-.57.82c-.26.32-.59.71-1,1.15l-2.44,2.64Z"/><path class="cls-3" d="M820.11,67.54a10,10,0,0,1-.39,2.73,6.76,6.76,0,0,1-1,2.19,3.14,3.14,0,0,1-2.63,1.36,2.86,2.86,0,0,1-2.45-1.24,5.68,5.68,0,0,1-.9-3.39,7.87,7.87,0,0,1,1.19-4.43,3.51,3.51,0,0,1,2.94-1.8,2.76,2.76,0,0,1,2.37,1.24A5.65,5.65,0,0,1,820.11,67.54Zm-1.53-.08a4.73,4.73,0,0,0-.45-2.27,1.41,1.41,0,0,0-1.27-.82c-.73,0-1.35.48-1.86,1.45a7.65,7.65,0,0,0-.75,3.56,4.48,4.48,0,0,0,.47,2.23,1.42,1.42,0,0,0,1.29.8,2,2,0,0,0,1.71-1.16,5.81,5.81,0,0,0,.62-1.71A9.49,9.49,0,0,0,818.58,67.46Z"/><path class="cls-2" d="M742.36,45.92h6.22a15.43,15.43,0,0,1-.08,1.74,6.1,6.1,0,0,1-.32,1.46,5.61,5.61,0,0,1-.91,1.67A5.23,5.23,0,0,1,745.92,52a6.64,6.64,0,0,1-1.7.74,7.36,7.36,0,0,1-2,.26,6.78,6.78,0,0,1-2.56-.47,5.82,5.82,0,0,1-2-1.3,5.93,5.93,0,0,1-1.29-2,7,7,0,0,1-.47-2.6A7.13,7.13,0,0,1,736.4,44a5.54,5.54,0,0,1,1.3-2,6,6,0,0,1,2-1.3,7.17,7.17,0,0,1,2.64-.46,6.48,6.48,0,0,1,3.31.82,5.65,5.65,0,0,1,2.26,2.52l-3,1.24a3,3,0,0,0-1.08-1.43,2.69,2.69,0,0,0-1.51-.43,3.11,3.11,0,0,0-1.28.26,2.79,2.79,0,0,0-1,.76,3.3,3.3,0,0,0-.64,1.17,4.65,4.65,0,0,0-.24,1.54,4.92,4.92,0,0,0,.2,1.42,3.44,3.44,0,0,0,.6,1.14,2.64,2.64,0,0,0,1,.74,3.25,3.25,0,0,0,1.37.27,3.82,3.82,0,0,0,.9-.11,2.42,2.42,0,0,0,.77-.33,2,2,0,0,0,.57-.6,2.58,2.58,0,0,0,.31-.9h-2.58Z"/><path class="cls-2" d="M750,48.49a4.09,4.09,0,0,1,.37-1.7,4.23,4.23,0,0,1,1-1.38,5,5,0,0,1,1.56-.92,5.7,5.7,0,0,1,2-.33,5.64,5.64,0,0,1,2,.33,4.77,4.77,0,0,1,1.57.91,4,4,0,0,1,1,1.39,4.17,4.17,0,0,1,.37,1.78,4.22,4.22,0,0,1-.37,1.79,4.34,4.34,0,0,1-1,1.39,4.49,4.49,0,0,1-1.57.9,5.91,5.91,0,0,1-2,.32,5.62,5.62,0,0,1-2-.32,4.4,4.4,0,0,1-1.54-.91,4.26,4.26,0,0,1-1-1.41A4.54,4.54,0,0,1,750,48.49Zm3.06,0a1.91,1.91,0,0,0,.15.76,2.1,2.1,0,0,0,.4.6,2,2,0,0,0,.59.4,2,2,0,0,0,.73.14,2,2,0,0,0,.73-.14,1.76,1.76,0,0,0,.59-.4,1.91,1.91,0,0,0,.4-.6,1.87,1.87,0,0,0,.16-.75,1.84,1.84,0,0,0-.16-.73,1.91,1.91,0,0,0-.4-.6,1.76,1.76,0,0,0-.59-.4,2,2,0,0,0-.73-.14,2,2,0,0,0-.73.14,2,2,0,0,0-.59.4,2.1,2.1,0,0,0-.4.6A1.72,1.72,0,0,0,753,48.53Z"/><path class="cls-2" d="M763.35,44.46l1.95,4.21,2-4.21h3.23l-4.27,8.21h-1.94l-4.22-8.21Z"/><path class="cls-2" d="M773.74,49.05c0,1.25.58,1.88,1.76,1.88a1.58,1.58,0,0,0,1.42-.77h2.8c-.57,1.88-2,2.81-4.24,2.81a5.49,5.49,0,0,1-1.9-.31,4.15,4.15,0,0,1-1.48-.89,3.9,3.9,0,0,1-1-1.37,4.64,4.64,0,0,1-.33-1.79,4.92,4.92,0,0,1,.32-1.85,3.73,3.73,0,0,1,.91-1.4,3.94,3.94,0,0,1,1.43-.89,5.37,5.37,0,0,1,1.9-.31,5.28,5.28,0,0,1,1.87.31,3.72,3.72,0,0,1,2.29,2.35,5.83,5.83,0,0,1,.3,1.93v.3Zm3.39-1.68a1.8,1.8,0,0,0-.59-1,1.66,1.66,0,0,0-1.09-.37,1.69,1.69,0,0,0-1.1.35,1.6,1.6,0,0,0-.53,1Z"/><path class="cls-2" d="M781.48,44.46h2.9v1.35a3.22,3.22,0,0,1,1.13-1.13,3.07,3.07,0,0,1,1.57-.39h.25l.31,0v2.77a2.64,2.64,0,0,0-1.25-.29,1.87,1.87,0,0,0-1.51.6,2.63,2.63,0,0,0-.5,1.75v3.52h-2.9Z"/><path class="cls-2" d="M788.94,44.46h2.89v1a3.31,3.31,0,0,1,1.2-1,3.89,3.89,0,0,1,1.43-.24,3.55,3.55,0,0,1,1.48.28,2.8,2.8,0,0,1,1,.79,2.18,2.18,0,0,1,.48.93,4.57,4.57,0,0,1,.13,1.16v5.22H794.7V48.53a4.39,4.39,0,0,0-.09-1,1.24,1.24,0,0,0-.32-.6,1,1,0,0,0-.43-.27,1.7,1.7,0,0,0-.51-.08,1.45,1.45,0,0,0-1.13.44,1.83,1.83,0,0,0-.39,1.26v4.38h-2.89Z"/><path class="cls-2" d="M805.89,44.46h2.92v8.21h-2.92v-.91a3,3,0,0,1-2.51,1.17,4,4,0,0,1-3-1.25,4.42,4.42,0,0,1-.87-1.39,4.77,4.77,0,0,1-.31-1.75,4.7,4.7,0,0,1,.3-1.67,4.39,4.39,0,0,1,.85-1.38,3.92,3.92,0,0,1,3-1.28,3.3,3.3,0,0,1,2.54,1.07Zm-3.64,4.08a1.86,1.86,0,0,0,.14.75,2.07,2.07,0,0,0,.39.6,1.91,1.91,0,0,0,.6.4,2,2,0,0,0,.74.14,2,2,0,0,0,.73-.14,1.87,1.87,0,0,0,.59-.4,2.1,2.1,0,0,0,.4-.6,1.72,1.72,0,0,0,.15-.72,1.79,1.79,0,0,0-.15-.72,2.1,2.1,0,0,0-.4-.6,1.71,1.71,0,0,0-.59-.4,1.8,1.8,0,0,0-.73-.15,1.78,1.78,0,0,0-.74.15,1.75,1.75,0,0,0-.6.4,2.11,2.11,0,0,0-.39.58A1.7,1.7,0,0,0,802.25,48.54Z"/><path class="cls-2" d="M810.77,44.46h2.9v1a3.23,3.23,0,0,1,1.2-1,3.88,3.88,0,0,1,1.42-.24,3.49,3.49,0,0,1,1.48.28,2.92,2.92,0,0,1,1.05.79,2.18,2.18,0,0,1,.48.93,4.57,4.57,0,0,1,.13,1.16v5.22h-2.9V48.53a5.18,5.18,0,0,0-.08-1,1.24,1.24,0,0,0-.32-.6,1,1,0,0,0-.43-.27,1.7,1.7,0,0,0-.51-.08,1.45,1.45,0,0,0-1.13.44,1.83,1.83,0,0,0-.39,1.26v4.38h-2.9Z"/><path class="cls-2" d="M827.59,47.12a2.69,2.69,0,0,0-1.52-.51,2,2,0,0,0-.78.14,1.91,1.91,0,0,0-.63.41,1.79,1.79,0,0,0-.42.62,2.09,2.09,0,0,0-.15.81,2,2,0,0,0,.15.79,2.08,2.08,0,0,0,.41.63,1.83,1.83,0,0,0,.64.4,2,2,0,0,0,.78.15,2.42,2.42,0,0,0,1.52-.56v2.46a5.1,5.1,0,0,1-2,.47,4.89,4.89,0,0,1-1.71-.31,4.32,4.32,0,0,1-1.42-.87,4.19,4.19,0,0,1-1-1.36,4.1,4.1,0,0,1-.37-1.77,4.49,4.49,0,0,1,.35-1.78,4.28,4.28,0,0,1,2.41-2.31,5.09,5.09,0,0,1,1.8-.32,4.43,4.43,0,0,1,2,.44Z"/><path class="cls-2" d="M831.85,49.05c0,1.25.58,1.88,1.76,1.88a1.57,1.57,0,0,0,1.42-.77h2.8c-.57,1.88-2,2.81-4.24,2.81a5.49,5.49,0,0,1-1.9-.31,4.15,4.15,0,0,1-1.48-.89,4,4,0,0,1-1-1.37,4.64,4.64,0,0,1-.33-1.79,4.92,4.92,0,0,1,.32-1.85,3.86,3.86,0,0,1,.91-1.4,3.94,3.94,0,0,1,1.43-.89,5.37,5.37,0,0,1,1.9-.31,5.24,5.24,0,0,1,1.87.31,3.88,3.88,0,0,1,1.41.9,4,4,0,0,1,.88,1.45,5.83,5.83,0,0,1,.3,1.93v.3Zm3.39-1.68a1.74,1.74,0,0,0-.59-1,1.66,1.66,0,0,0-1.09-.37,1.7,1.7,0,0,0-1.1.35,1.6,1.6,0,0,0-.53,1Z"/><circle class="cls-1" cx="786.91" cy="27.15" r="5"/><path class="cls-3" d="M898.42,63.12,897,74.39l-6.4-8.17-.92,7.45h-1.56l1.37-11.13,6.41,8.16.93-7.58Z"/><path class="cls-3" d="M906.55,70.39a3.32,3.32,0,0,1-1,2.48,3.43,3.43,0,0,1-2.51,1,3.52,3.52,0,0,1-2.56-1,3.21,3.21,0,0,1-1-2.42,3.3,3.3,0,0,1,1-2.48,3.56,3.56,0,0,1,2.59-1,3.42,3.42,0,0,1,2.5.94A3.2,3.2,0,0,1,906.55,70.39ZM905,70.31a2,2,0,0,0-.54-1.47,1.92,1.92,0,0,0-1.42-.56,2,2,0,0,0-1.5.63,2.18,2.18,0,0,0-.6,1.57,2.13,2.13,0,0,0,.56,1.54,1.91,1.91,0,0,0,1.45.6,1.87,1.87,0,0,0,1.46-.65A2.37,2.37,0,0,0,905,70.31Z"/><path class="cls-3" d="M914.18,67.23l-4.43,7.27-2.29-7.27H909l1.11,4.12,2.31-4.12Z"/><path class="cls-3" d="M925.51,72.21l-.18,1.46H918.5L922.71,69c.44-.48.79-.87,1-1.18a7,7,0,0,0,.54-.71,2,2,0,0,0,.28-1.09,1.9,1.9,0,0,0-.12-.7,1.38,1.38,0,0,0-.34-.53,1.5,1.5,0,0,0-.54-.34,2.36,2.36,0,0,0-.72-.11,2.28,2.28,0,0,0-.78.12,1.41,1.41,0,0,0-.56.4,1.77,1.77,0,0,0-.37.68,4.19,4.19,0,0,0-.18,1h-1.49a4.71,4.71,0,0,1,.65-2.31A3.14,3.14,0,0,1,922.9,63a3.18,3.18,0,0,1,2.33.85A3,3,0,0,1,926.1,66a3.28,3.28,0,0,1-.36,1.57,5.67,5.67,0,0,1-.57.82c-.26.32-.6.71-1,1.15l-2.44,2.64Z"/><path class="cls-3" d="M935.08,67.54a10,10,0,0,1-.39,2.73,6.76,6.76,0,0,1-1,2.19,3.16,3.16,0,0,1-2.63,1.36,2.85,2.85,0,0,1-2.45-1.24,5.68,5.68,0,0,1-.9-3.39,7.87,7.87,0,0,1,1.19-4.43,3.48,3.48,0,0,1,2.94-1.8,2.73,2.73,0,0,1,2.36,1.24A5.65,5.65,0,0,1,935.08,67.54Zm-1.53-.08a4.61,4.61,0,0,0-.46-2.27,1.38,1.38,0,0,0-1.26-.82c-.74,0-1.35.48-1.86,1.45a7.65,7.65,0,0,0-.75,3.56,4.49,4.49,0,0,0,.46,2.23,1.44,1.44,0,0,0,1.29.8,2,2,0,0,0,1.72-1.16,5.81,5.81,0,0,0,.62-1.71A9.49,9.49,0,0,0,933.55,67.46Z"/><path class="cls-3" d="M942.79,72.21l-.18,1.46h-6.83L940,69c.44-.48.79-.87,1-1.18a7,7,0,0,0,.54-.71,2,2,0,0,0,.28-1.09,1.9,1.9,0,0,0-.12-.7,1.28,1.28,0,0,0-.34-.53,1.5,1.5,0,0,0-.54-.34,2.31,2.31,0,0,0-.72-.11,2.28,2.28,0,0,0-.78.12,1.41,1.41,0,0,0-.56.4,1.91,1.91,0,0,0-.37.68,4.19,4.19,0,0,0-.18,1h-1.49a4.71,4.71,0,0,1,.65-2.31A3.14,3.14,0,0,1,940.18,63a3.18,3.18,0,0,1,2.33.85,3,3,0,0,1,.87,2.23A3.28,3.28,0,0,1,943,67.6a5.67,5.67,0,0,1-.57.82c-.26.32-.6.71-1,1.15L939,72.21Z"/><path class="cls-3" d="M952.36,67.54a10,10,0,0,1-.39,2.73,6.76,6.76,0,0,1-1,2.19,3.16,3.16,0,0,1-2.63,1.36,2.86,2.86,0,0,1-2.45-1.24,5.68,5.68,0,0,1-.9-3.39,7.87,7.87,0,0,1,1.19-4.43,3.48,3.48,0,0,1,2.94-1.8,2.76,2.76,0,0,1,2.37,1.24A5.72,5.72,0,0,1,952.36,67.54Zm-1.53-.08a4.73,4.73,0,0,0-.45-2.27,1.41,1.41,0,0,0-1.27-.82c-.73,0-1.35.48-1.86,1.45a7.65,7.65,0,0,0-.75,3.56,4.49,4.49,0,0,0,.46,2.23,1.44,1.44,0,0,0,1.3.8A2,2,0,0,0,950,71.25a5.81,5.81,0,0,0,.62-1.71A9.49,9.49,0,0,0,950.83,67.46Z"/><path class="cls-2" d="M869.54,40.61h4.64a5.52,5.52,0,0,1,2.32.49,6.26,6.26,0,0,1,1.88,1.32,6.15,6.15,0,0,1,1.28,1.92,6,6,0,0,1,.46,2.3,5.77,5.77,0,0,1-.46,2.28,6.08,6.08,0,0,1-1.26,1.93,6.3,6.3,0,0,1-1.89,1.32,5.51,5.51,0,0,1-2.33.5h-4.64Zm3.14,9.4h.72a4,4,0,0,0,1.46-.25,3.22,3.22,0,0,0,1.08-.71,3,3,0,0,0,.67-1.06,3.9,3.9,0,0,0,.23-1.35,3.76,3.76,0,0,0-.24-1.35,3.21,3.21,0,0,0-.68-1.07,3,3,0,0,0-1.08-.7,3.89,3.89,0,0,0-1.44-.26h-.72Z"/><path class="cls-2" d="M884.46,49.05c0,1.25.58,1.88,1.76,1.88a1.58,1.58,0,0,0,1.42-.77h2.8c-.57,1.88-2,2.81-4.24,2.81a5.49,5.49,0,0,1-1.9-.31,4.15,4.15,0,0,1-1.48-.89,4,4,0,0,1-1-1.37,4.64,4.64,0,0,1-.33-1.79,4.92,4.92,0,0,1,.32-1.85,3.86,3.86,0,0,1,.91-1.4,3.94,3.94,0,0,1,1.43-.89,5.37,5.37,0,0,1,1.9-.31,5.24,5.24,0,0,1,1.87.31,4,4,0,0,1,1.41.9,4.15,4.15,0,0,1,.88,1.45,5.83,5.83,0,0,1,.3,1.93v.3Zm3.39-1.68a1.8,1.8,0,0,0-.59-1,1.66,1.66,0,0,0-1.09-.37,1.69,1.69,0,0,0-1.1.35,1.6,1.6,0,0,0-.53,1Z"/><path class="cls-2" d="M895.1,56.77h-2.9V44.46h2.9v.91a3.06,3.06,0,0,1,2.52-1.16,3.88,3.88,0,0,1,1.64.34,4,4,0,0,1,1.32.94,4.07,4.07,0,0,1,.88,1.39,4.81,4.81,0,0,1,.31,1.71,4.75,4.75,0,0,1-.31,1.7,4.33,4.33,0,0,1-.87,1.37,3.88,3.88,0,0,1-1.3.93,4,4,0,0,1-1.63.34,3.42,3.42,0,0,1-2.56-1.06Zm3.64-8.18a2,2,0,0,0-.13-.73,1.62,1.62,0,0,0-.4-.6,2.23,2.23,0,0,0-.59-.41,1.86,1.86,0,0,0-.75-.15,1.79,1.79,0,0,0-.72.15,1.67,1.67,0,0,0-.58.4,1.91,1.91,0,0,0-.4.6,1.79,1.79,0,0,0-.15.72,1.8,1.8,0,0,0,.54,1.31,2.1,2.1,0,0,0,.6.4,1.8,1.8,0,0,0,.73.15,2,2,0,0,0,.72-.14,1.82,1.82,0,0,0,.58-.4,1.91,1.91,0,0,0,.4-.6A1.66,1.66,0,0,0,898.74,48.59Z"/><path class="cls-2" d="M906.31,39.39V52.67h-2.89V39.39Z"/><path class="cls-2" d="M908,48.49a4.09,4.09,0,0,1,.37-1.7,4.23,4.23,0,0,1,1-1.38,5,5,0,0,1,1.56-.92,5.7,5.7,0,0,1,2-.33,5.64,5.64,0,0,1,2,.33,4.77,4.77,0,0,1,1.57.91,4,4,0,0,1,1,1.39,4.17,4.17,0,0,1,.37,1.78,4.22,4.22,0,0,1-.37,1.79,4.34,4.34,0,0,1-1,1.39,4.49,4.49,0,0,1-1.57.9,5.91,5.91,0,0,1-2,.32,5.62,5.62,0,0,1-2-.32,4.4,4.4,0,0,1-1.54-.91,4.26,4.26,0,0,1-1-1.41A4.54,4.54,0,0,1,908,48.49Zm3.06,0a1.91,1.91,0,0,0,.15.76,2.1,2.1,0,0,0,.4.6,2,2,0,0,0,.59.4,2,2,0,0,0,.73.14,2,2,0,0,0,.73-.14,1.76,1.76,0,0,0,.59-.4,1.91,1.91,0,0,0,.4-.6,1.87,1.87,0,0,0,.16-.75,1.84,1.84,0,0,0-.16-.73,1.91,1.91,0,0,0-.4-.6,1.76,1.76,0,0,0-.59-.4,2,2,0,0,0-.73-.14,2,2,0,0,0-.73.14,2,2,0,0,0-.59.4,2.1,2.1,0,0,0-.4.6A1.72,1.72,0,0,0,911,48.53Z"/><path class="cls-2" d="M922,51.55l-4-7.09h3.36l2.19,4.21,2.13-4.21h3.33l-6.59,12.31h-3.25Z"/><path class="cls-2" d="M930,44.46h2.9v1a3.71,3.71,0,0,1,2.65-1.14,3.28,3.28,0,0,0,5.57,0,3.28,3.28,0,0,1,1.09.17,2.24,2.24,0,0,1,.88.52,2.59,2.59,0,0,1,.58.94,3.83,3.83,0,0,1,.22,1.39v5.33H941V48.62a4.82,4.82,0,0,0-.09-1,1.69,1.69,0,0,0-.25-.63.89.89,0,0,0-.4-.3,1.4,1.4,0,0,0-.47-.08c-.93,0-1.4.68-1.4,2v4.05h-2.89V48.62a5.82,5.82,0,0,0-.08-1,1.88,1.88,0,0,0-.24-.65.78.78,0,0,0-.39-.33,1.84,1.84,0,0,0-.56-.08,1.44,1.44,0,0,0-.51.08.83.83,0,0,0-.42.31,1.59,1.59,0,0,0-.29.64,4.37,4.37,0,0,0-.1,1.06v4.05H930Z"/><path class="cls-2" d="M948.52,49.05c0,1.25.59,1.88,1.76,1.88a1.57,1.57,0,0,0,1.42-.77h2.8c-.56,1.88-2,2.81-4.24,2.81a5.49,5.49,0,0,1-1.9-.31,4.15,4.15,0,0,1-1.48-.89,3.88,3.88,0,0,1-1-1.37,4.46,4.46,0,0,1-.34-1.79,5.13,5.13,0,0,1,.32-1.85,3.86,3.86,0,0,1,.91-1.4,4,4,0,0,1,1.43-.89,5.41,5.41,0,0,1,1.9-.31,5.24,5.24,0,0,1,1.87.31,3.8,3.8,0,0,1,1.41.9,4,4,0,0,1,.88,1.45,5.83,5.83,0,0,1,.3,1.93v.3Zm3.39-1.68a1.74,1.74,0,0,0-.59-1,1.64,1.64,0,0,0-1.09-.37,1.7,1.7,0,0,0-1.1.35,1.6,1.6,0,0,0-.53,1Z"/><path class="cls-2" d="M956.26,44.46h2.9v1a3.15,3.15,0,0,1,1.2-1,3.84,3.84,0,0,1,1.42-.24,3.49,3.49,0,0,1,1.48.28,2.92,2.92,0,0,1,1,.79,2.3,2.3,0,0,1,.48.93,4.57,4.57,0,0,1,.13,1.16v5.22H962V48.53a4.39,4.39,0,0,0-.09-1,1.15,1.15,0,0,0-.31-.6,1,1,0,0,0-.43-.27,1.7,1.7,0,0,0-.51-.08,1.45,1.45,0,0,0-1.13.44,1.83,1.83,0,0,0-.39,1.26v4.38h-2.9Z"/><path class="cls-2" d="M970.12,46.88v5.79h-2.9V46.88h-1V44.46h1V42h2.9v2.46h1.65v2.42Z"/><circle class="cls-1" cx="920.07" cy="27.15" r="5"/></svg>