<svg xmlns="http://www.w3.org/2000/svg" xmlns:xlink="http://www.w3.org/1999/xlink" viewBox="0 0 375 1646.43"><defs><style>.cls-1{fill:none;}.cls-18,.cls-19,.cls-2,.cls-5{fill:#fff;}.cls-3{fill:#f0f9ff;}.cls-4,.cls-6{fill:#1c6fd1;}.cls-18,.cls-5,.cls-8{font-size:16px;}.cls-19,.cls-5,.cls-6{font-family:OpenSans-Bold, Open Sans;font-weight:700;}.cls-5{letter-spacing:0.18em;}.cls-19,.cls-6{font-size:20px;}.cls-6{letter-spacing:0.02em;}.cls-7{fill:#93b4d8;}.cls-8{fill:#617682;}.cls-18,.cls-8{font-family:OpenSans, Open Sans;letter-spacing:0.04em;}.cls-9{fill:#ff6200;}.cls-10{clip-path:url(#clip-path);}.cls-11{fill:#f47575;}.cls-12{fill:#a2dffa;}.cls-13{fill:#ffbc6b;}.cls-14{clip-path:url(#clip-path-3);}.cls-15{clip-path:url(#clip-path-5);}.cls-16{clip-path:url(#clip-path-7);}.cls-17{fill:#002e47;}.cls-19{letter-spacing:0.18em;}</style><clipPath id="clip-path"><rect class="cls-1" x="19.5" y="256.22" width="60" height="60"/></clipPath><clipPath id="clip-path-3"><rect class="cls-1" x="19.5" y="433.72" width="60" height="60"/></clipPath><clipPath id="clip-path-5"><rect class="cls-1" x="19.5" y="610.72" width="60" height="60"/></clipPath><clipPath id="clip-path-7"><rect class="cls-1" x="19.5" y="787.72" width="60" height="60"/></clipPath></defs><title>compare</title><g id="Layer_1" data-name="Layer 1"><rect class="cls-2" width="375" height="1646.43"/><rect class="cls-3" y="965.01" width="375" height="69"/><rect class="cls-4" x="12" y="1562.01" width="350" height="44" rx="22"/><text class="cls-5" transform="translate(155.95 1590.19)">SHARE</text><text class="cls-6" transform="translate(12 1008.21)">Starting Price</text><rect class="cls-7" y="964.01" width="375" height="1"/><path class="cls-4" d="M351.74,1006a1,1,0,0,1-.71-.29l-9-9a1,1,0,0,1,1.42-1.42l8.29,8.3,8.29-8.3a1,1,0,1,1,1.42,1.42l-9,9A1,1,0,0,1,351.74,1006Z"/><rect class="cls-3" y="1035.01" width="375" height="69"/><text class="cls-6" transform="translate(12 1078.21)">Ideal User</text><rect class="cls-7" y="1034.01" width="375" height="1"/><path class="cls-4" d="M351.74,1076a1,1,0,0,1-.71-.29l-9-9a1,1,0,0,1,1.42-1.42l8.29,8.3,8.29-8.3a1,1,0,1,1,1.42,1.42l-9,9A1,1,0,0,1,351.74,1076Z"/><rect class="cls-3" y="1105.01" width="375" height="69"/><text class="cls-6" transform="translate(12 1148.21)">Screenshots</text><rect class="cls-7" y="1104.01" width="375" height="1"/><path class="cls-4" d="M351.74,1146a1,1,0,0,1-.71-.29l-9-9a1,1,0,0,1,1.42-1.42l8.29,8.3,8.29-8.3a1,1,0,1,1,1.42,1.42l-9,9A1,1,0,0,1,351.74,1146Z"/><rect class="cls-3" y="1175.01" width="375" height="69"/><text class="cls-6" transform="translate(12 1218.21)">Features</text><rect class="cls-7" y="1174.01" width="375" height="1"/><path class="cls-4" d="M351.74,1216a1,1,0,0,1-.71-.29l-9-9a1,1,0,0,1,1.42-1.42l8.29,8.3,8.29-8.3a1,1,0,1,1,1.42,1.42l-9,9A1,1,0,0,1,351.74,1216Z"/><rect class="cls-3" y="1245.01" width="375" height="69"/><text class="cls-6" transform="translate(12 1288.21)">Reviews</text><rect class="cls-7" y="1244.01" width="375" height="1"/><path class="cls-4" d="M351.74,1286a1,1,0,0,1-.71-.29l-9-9a1,1,0,0,1,1.42-1.42l8.29,8.3,8.29-8.3a1,1,0,1,1,1.42,1.42l-9,9A1,1,0,0,1,351.74,1286Z"/><rect class="cls-3" y="1315.01" width="375" height="69"/><text class="cls-6" transform="translate(12 1358.21)">Awards</text><rect class="cls-7" y="1314.01" width="375" height="1"/><path class="cls-4" d="M351.74,1356a1,1,0,0,1-.71-.29l-9-9a1,1,0,0,1,1.42-1.42l8.29,8.3,8.29-8.3a1,1,0,1,1,1.42,1.42l-9,9A1,1,0,0,1,351.74,1356Z"/><rect class="cls-3" y="1385.01" width="375" height="69"/><text class="cls-6" transform="translate(12 1428.21)">Specifications &amp; Support</text><rect class="cls-7" y="1384.01" width="375" height="1"/><path class="cls-4" d="M351.74,1426a1,1,0,0,1-.71-.29l-9-9a1,1,0,0,1,1.42-1.42l8.29,8.3,8.29-8.3a1,1,0,1,1,1.42,1.42l-9,9A1,1,0,0,1,351.74,1426Z"/><rect class="cls-3" y="1455.01" width="375" height="69"/><text class="cls-6" transform="translate(12 1498.21)">Company Details</text><rect class="cls-7" y="1454.01" width="375" height="1"/><rect class="cls-7" y="1524.01" width="375" height="1"/><path class="cls-4" d="M351.74,1496a1,1,0,0,1-.71-.29l-9-9a1,1,0,0,1,1.42-1.42l8.29,8.3,8.29-8.3a1,1,0,1,1,1.42,1.42l-9,9A1,1,0,0,1,351.74,1496Z"/><text class="cls-6" transform="translate(92 279.42)">QuickBooks Enterprise</text><text class="cls-8" transform="translate(92 312.39)">by Intuit</text><rect class="cls-9" x="12" y="332.22" width="351" height="44" rx="22"/><text class="cls-5" transform="translate(114.83 362.41)">VISIT WEBSITE</text><rect class="cls-7" x="12.5" y="399.97" width="350" height="0.5"/><g id="Logo_1" data-name="Logo 1"><g class="cls-10"><rect class="cls-3" x="19.5" y="256.22" width="60" height="60"/><polygon class="cls-11" points="46.69 302.57 36.32 316.23 57.05 316.23 77.79 316.23 67.42 302.57 57.05 288.91 46.69 302.57"/><polygon class="cls-12" points="27.91 305.46 19.73 316.23 36.08 316.23 52.43 316.23 44.25 305.46 36.08 294.69 27.91 305.46"/><g class="cls-10"><path class="cls-13" d="M47.06,273.79a8.54,8.54,0,1,1-8.54-8.54,8.53,8.53,0,0,1,8.54,8.54"/></g></g></g><path class="cls-7" d="M80,316.72H19v-61H80Zm-60-1H79v-59H20Z"/><circle class="cls-4" cx="23.5" cy="260.22" r="12"/><path class="cls-2" d="M29.73,264.92a1.1,1.1,0,0,1,0,1.54,1.1,1.1,0,0,1-1.55,0l-4.68-4.68-4.68,4.68a1.1,1.1,0,0,1-1.55,0,1.1,1.1,0,0,1,0-1.54L22,260.24l-4.69-4.69A1.09,1.09,0,0,1,18.82,254l4.68,4.68L28.18,254a1.09,1.09,0,0,1,1.55,1.54L25,260.24Z"/><text class="cls-6" transform="translate(92 456.92)">NetSuite</text><text class="cls-8" transform="translate(92 489.89)">by NetSuite</text><rect class="cls-9" x="12" y="509.72" width="351" height="44" rx="22"/><text class="cls-5" transform="translate(114.83 539.91)">VISIT WEBSITE</text><rect class="cls-7" x="12.5" y="577.47" width="350" height="0.5"/><g id="Logo_1-2" data-name="Logo 1"><g class="cls-14"><rect class="cls-3" x="19.5" y="433.72" width="60" height="60"/><polygon class="cls-11" points="46.69 480.07 36.32 493.73 57.05 493.73 77.79 493.73 67.42 480.07 57.05 466.41 46.69 480.07"/><polygon class="cls-12" points="27.91 482.96 19.73 493.73 36.08 493.73 52.43 493.73 44.25 482.96 36.08 472.19 27.91 482.96"/><g class="cls-14"><path class="cls-13" d="M47.06,451.29a8.54,8.54,0,1,1-8.54-8.54,8.53,8.53,0,0,1,8.54,8.54"/></g></g></g><path class="cls-7" d="M80,494.22H19v-61H80Zm-60-1H79v-59H20Z"/><circle class="cls-4" cx="23.5" cy="437.72" r="12"/><path class="cls-2" d="M29.73,442.42a1.1,1.1,0,0,1,0,1.54,1.1,1.1,0,0,1-1.55,0l-4.68-4.68L18.82,444a1.1,1.1,0,0,1-1.55,0,1.1,1.1,0,0,1,0-1.54L22,437.74l-4.69-4.69a1.09,1.09,0,1,1,1.55-1.54l4.68,4.68,4.68-4.68a1.09,1.09,0,1,1,1.55,1.54L25,437.74Z"/><text class="cls-6" transform="translate(92 633.92)">BQE Core</text><text class="cls-8" transform="translate(92 666.89)">by BQE Software</text><rect class="cls-9" x="12" y="686.72" width="351" height="44" rx="22"/><text class="cls-5" transform="translate(114.83 716.91)">VISIT WEBSITE</text><rect class="cls-7" x="12.5" y="754.47" width="350" height="0.5"/><g id="Logo_1-3" data-name="Logo 1"><g class="cls-15"><rect class="cls-3" x="19.5" y="610.72" width="60" height="60"/><polygon class="cls-11" points="46.69 657.07 36.32 670.73 57.05 670.73 77.79 670.73 67.42 657.07 57.05 643.41 46.69 657.07"/><polygon class="cls-12" points="27.91 659.96 19.73 670.73 36.08 670.73 52.43 670.73 44.25 659.96 36.08 649.19 27.91 659.96"/><g class="cls-15"><path class="cls-13" d="M47.06,628.29a8.54,8.54,0,1,1-8.54-8.54,8.53,8.53,0,0,1,8.54,8.54"/></g></g></g><path class="cls-7" d="M80,671.22H19v-61H80Zm-60-1H79v-59H20Z"/><circle class="cls-4" cx="23.5" cy="614.72" r="12"/><path class="cls-2" d="M29.73,619.42a1.1,1.1,0,0,1,0,1.54,1.1,1.1,0,0,1-1.55,0l-4.68-4.68L18.82,621a1.1,1.1,0,0,1-1.55,0,1.1,1.1,0,0,1,0-1.54L22,614.74l-4.69-4.69a1.09,1.09,0,0,1,1.55-1.54l4.68,4.68,4.68-4.68a1.09,1.09,0,0,1,1.55,1.54L25,614.74Z"/><text class="cls-6" transform="translate(92 810.92)">Financial Force <tspan x="0" y="32">Accounting</tspan></text><text class="cls-8" transform="translate(92 875.39)">by FinancialForce</text><rect class="cls-9" x="12" y="895.22" width="351" height="44" rx="22"/><text class="cls-5" transform="translate(114.83 925.41)">VISIT WEBSITE</text><g id="Logo_1-4" data-name="Logo 1"><g class="cls-16"><rect class="cls-3" x="19.5" y="787.72" width="60" height="60"/><polygon class="cls-11" points="46.69 834.07 36.32 847.73 57.05 847.73 77.79 847.73 67.42 834.07 57.05 820.41 46.69 834.07"/><polygon class="cls-12" points="27.91 836.96 19.73 847.73 36.08 847.73 52.43 847.73 44.25 836.96 36.08 826.19 27.91 836.96"/><g class="cls-16"><path class="cls-13" d="M47.06,805.29a8.54,8.54,0,1,1-8.54-8.54,8.53,8.53,0,0,1,8.54,8.54"/></g></g></g><path class="cls-7" d="M80,848.22H19v-61H80Zm-60-1H79v-59H20Z"/><circle class="cls-4" cx="23.5" cy="791.72" r="12"/><path class="cls-2" d="M29.73,796.42a1.1,1.1,0,0,1,0,1.54,1.1,1.1,0,0,1-1.55,0l-4.68-4.68L18.82,798a1.1,1.1,0,0,1-1.55,0,1.1,1.1,0,0,1,0-1.54L22,791.74l-4.69-4.69a1.09,1.09,0,0,1,1.55-1.54l4.68,4.68,4.68-4.68a1.09,1.09,0,0,1,1.55,1.54L25,791.74Z"/><rect class="cls-7" x="0.5" y="-0.94" width="375" height="1"/><rect class="cls-3" x="0.25" y="153.49" width="375" height="69"/><text class="cls-6" transform="translate(12.25 196.69)">Compared Products</text><rect class="cls-7" x="0.25" y="152.49" width="375" height="1"/><path class="cls-4" d="M361,194.49a1,1,0,0,1-.71-.3L352,185.9l-8.29,8.29a1,1,0,0,1-1.42,0,1,1,0,0,1,0-1.41l9-9a1,1,0,0,1,1.42,0l9,9a1,1,0,0,1-.71,1.71Z"/><rect class="cls-7" x="0.25" y="222.49" width="375" height="1"/><rect class="cls-17" y="-0.24" width="375" height="153.22"/><text class="cls-18" transform="translate(17.49 89.96)">Quickbooks Qnterprise vs Netsuite vs BQE <tspan x="30.71" y="26">Core vs Financial Force Accounting</tspan></text><text class="cls-19" transform="translate(16.58 50.31)">COMPARING (4) PRODUCTS</text></g></svg>