<?xml version="1.0" encoding="utf-8"?>
<!-- Generator: Adobe Illustrator 24.0.3, SVG Export Plug-In . SVG Version: 6.00 Build 0)  -->
<svg version="1.1" id="Layer_1" xmlns="http://www.w3.org/2000/svg" xmlns:xlink="http://www.w3.org/1999/xlink" x="0px" y="0px"
	 viewBox="0 0 853 1010" style="enable-background:new 0 0 853 1010;" xml:space="preserve">
<style type="text/css">
	.st0{opacity:0.5;}
	.st1{fill:#8264FF;}
	.st2{fill:#4608BF;}
</style>
<title>design-hero</title>
<g class="st0">
	<g>
		<path class="st1" d="M280.92,728.68c-0.88,0-1.76-0.35-2.4-1.05c-2.37-2.58-4.45-5.6-6.19-8.98c-0.5-0.98-0.48-2.14,0.06-3.1
			c88.77-156.03,179.38-286.5,276.99-398.85c1.18-1.35,3.23-1.5,4.58-0.32c1.35,1.18,1.5,3.23,0.32,4.58
			c-97,111.65-187.08,241.28-275.35,396.23c1.29,2.25,2.76,4.27,4.38,6.04c1.21,1.32,1.12,3.38-0.2,4.59
			C282.49,728.4,281.7,728.68,280.92,728.68z"/>
		<path class="st1" d="M348.84,688.12c-0.8,0-1.6-0.29-2.23-0.89c-1.3-1.23-1.36-3.29-0.13-4.59
			c103.82-109.85,188.76-215.8,259.67-323.91c0.99-1.5,3-1.92,4.5-0.94c1.5,0.98,1.92,3,0.94,4.5
			C540.46,470.72,455.29,576.97,351.2,687.1C350.56,687.78,349.7,688.12,348.84,688.12z"/>
		<path class="st1" d="M654.18,291.07c-0.56,0-1.13-0.15-1.65-0.45c-1.55-0.91-2.06-2.91-1.14-4.45
			c3.83-6.49,7.66-13.06,11.41-19.59c-12.64-7.01-24.14-15.77-34.28-26.08c-7.91,8.06-15.86,16.33-23.68,24.62
			c-1.23,1.3-3.29,1.37-4.59,0.13c-1.31-1.23-1.37-3.29-0.13-4.59c8.62-9.14,17.41-18.26,26.12-27.11c0.62-0.63,1.48-0.98,2.35-0.97
			c0.88,0.01,1.72,0.38,2.33,1.02c10.97,11.67,23.71,21.37,37.87,28.82c0.78,0.41,1.36,1.12,1.61,1.97s0.14,1.76-0.3,2.52
			c-4.28,7.49-8.69,15.08-13.11,22.56C656.37,290.5,655.29,291.07,654.18,291.07z"/>
		<path class="st1" d="M628.53,239.09c-0.72,0-1.44-0.24-2.05-0.73c-1.39-1.13-1.61-3.18-0.48-4.57c5.52-6.8,7.6-14.67,9.81-23.01
			c6.18-23.37,13.19-49.85,91.88-69.77c1.75-0.44,3.51,0.61,3.95,2.35c0.44,1.74-0.61,3.51-2.35,3.95
			c-33.74,8.54-56.6,18.92-69.88,31.73c-11.38,10.98-14.4,22.38-17.31,33.4c-2.29,8.63-4.65,17.56-11.04,25.44
			C630.42,238.68,629.48,239.09,628.53,239.09z"/>
		<path class="st1" d="M667.26,268.56c-0.43,0-0.86-0.08-1.28-0.26c-1.65-0.71-2.41-2.62-1.71-4.27
			c3.86-9.01,10.83-14.64,17.57-20.08c1.91-1.54,3.88-3.14,5.75-4.78c13.56-11.94,20.35-22.65,22.04-34.75
			c4.67-33.58,10-53.93,16.28-62.22c1.09-1.43,3.12-1.71,4.55-0.63c1.43,1.08,1.71,3.12,0.63,4.55
			c-5.51,7.28-10.57,27.19-15.02,59.19c-2.48,17.82-14.99,30.64-24.18,38.73c-1.97,1.74-4,3.37-5.96,4.96
			c-6.4,5.17-12.45,10.06-15.68,17.58C669.72,267.82,668.52,268.56,667.26,268.56z"/>
		<path class="st1" d="M586.45,397.17c-0.52,0-1.04-0.12-1.53-0.38c-22.57-12.06-42.97-27.58-60.62-46.13
			c-1.24-1.3-1.19-3.36,0.11-4.59c1.3-1.24,3.36-1.19,4.59,0.11c17.17,18.05,37.01,33.15,58.97,44.88c1.58,0.85,2.18,2.81,1.34,4.4
			C588.73,396.54,587.61,397.17,586.45,397.17z"/>
	</g>
	<path class="st1" d="M135.16,993.25c-0.45,0-0.9-0.09-1.33-0.28c-1.47-0.66-2.24-2.3-1.8-3.86
		c15.92-55.83,38.97-109.59,68.52-159.81c26.54-45.08,53.8-88.16,95.34-119.65c16.5-12.51,36.63-21.25,56.09-29.7
		c26.73-11.61,54.37-23.61,71.87-45.34c0.03-0.03,0.05-0.07,0.08-0.1c14.07-17.82,26-44.8,32.72-74.02c0.4-1.75,2.15-2.84,3.89-2.44
		c1.75,0.4,2.84,2.15,2.44,3.9c-6.87,29.91-19.13,57.65-33.66,76.22c-13.79,40.18-27.77,71.56-43.99,98.72
		c-20.25,33.91-43.65,60.5-71.54,81.29c-11.55,8.61-23.74,16.62-35.52,24.37c-15.29,10.05-31.11,20.45-45.53,32.18
		c-39.31,31.94-66.2,71.88-94.83,117C137.29,992.71,136.24,993.25,135.16,993.25z M418.32,649.85
		c-17.85,16.13-41.12,26.24-63.75,36.07c-19.11,8.3-38.87,16.88-54.75,28.92c-40.6,30.77-67.47,73.26-93.66,117.76
		c-25.31,43-45.81,88.64-61.09,135.95c24.53-37.57,49.37-71.07,83.56-98.86c14.68-11.93,30.64-22.42,46.06-32.56
		c11.71-7.7,23.81-15.66,35.21-24.15C367.55,770,398.29,705.14,418.32,649.85z"/>
	<path class="st1" d="M449.6,447.37c-1.67,0-3.08-1.27-3.23-2.96c-0.09-1.05-0.18-2.1-0.27-3.15l-0.31-3.72
		c-3.38-40.12-7.2-85.59,9.78-123.98c0.05-0.11,0.11-0.22,0.17-0.33c16.75-28.49,69.42-14.99,111.27,9.61
		c42.26,24.84,80.05,64.66,63.17,93.39c-12.55,22.2-38.14,26.54-66.75,11.27c-1.58-0.84-2.18-2.81-1.34-4.4
		c0.84-1.58,2.81-2.18,4.4-1.34c25.54,13.63,47.25,10.35,58.06-8.78c8.05-13.7-0.53-30.01-9.13-41.29
		c-11.47-15.03-29.83-30.39-51.7-43.24c-40.31-23.69-88.33-35.41-102.28-12.07c-16.22,36.83-12.48,81.35-9.17,120.63l0.31,3.72
		c0.09,1.04,0.18,2.07,0.27,3.11c0.16,1.79-1.16,3.37-2.95,3.52C449.8,447.37,449.7,447.37,449.6,447.37z"/>
	<path class="st1" d="M510.9,369.78c-1.2,0-2.34-0.66-2.91-1.8c-10.53-21.17-15.73-44.46-15.02-67.36c0.05-1.79,1.58-3.2,3.35-3.15
		c1.79,0.06,3.2,1.55,3.15,3.35c-0.67,21.83,4.28,44.06,14.34,64.27c0.8,1.61,0.15,3.56-1.46,4.36
		C511.88,369.67,511.39,369.78,510.9,369.78z"/>
	<path class="st1" d="M426.43,639.84c-1.79,0-3.25-1.45-3.25-3.24c-0.02-9.51-0.43-25.85-0.9-35.7c-0.09-1.79,1.3-3.32,3.09-3.4
		c1.81-0.11,3.31,1.3,3.4,3.09c0.47,9.93,0.89,26.41,0.91,36C429.69,638.38,428.23,639.84,426.43,639.84
		C426.44,639.84,426.44,639.84,426.43,639.84z"/>
	<path class="st1" d="M405.2,511.45c-1.67,0-3.09-1.28-3.24-2.98c-2.76-33.22-4.88-68.44,2.01-101.79
		c7.22-34.97,23.47-65.21,51.14-95.16c1.22-1.32,3.27-1.4,4.59-0.18c1.32,1.22,1.4,3.27,0.18,4.59
		c-57.4,62.14-57.53,118.77-51.45,192c0.15,1.79-1.18,3.36-2.97,3.51C405.39,511.45,405.29,511.45,405.2,511.45z"/>
	<path class="st1" d="M491.73,278.26c-0.12,0-0.24-0.01-0.35-0.02c-1.78-0.19-3.07-1.8-2.88-3.58
		c5.73-52.89,32.62-102.34,84.6-155.63c5.98-6.13,12.46-11.88,18.72-17.44c6.93-6.15,14.09-12.51,20.47-19.3
		c9.64-10.27,17.7-21.84,23.95-34.4c5.5-11.05,12.5-23.42,26.05-30.33c1.6-0.82,3.56-0.18,4.37,1.42c0.82,1.6,0.18,3.56-1.42,4.37
		c-11.79,6.01-17.92,16.85-23.18,27.44c-6.53,13.13-14.95,25.22-25.03,35.95c-6.59,7.01-13.86,13.47-20.89,19.71
		c-6.18,5.48-12.56,11.15-18.38,17.12c-50.92,52.19-77.22,100.42-82.79,151.79C494.77,277.03,493.36,278.26,491.73,278.26z"/>
	<path class="st1" d="M618.99,427.9c-0.98,0-1.94-0.44-2.58-1.28c-1.09-1.43-0.82-3.47,0.61-4.56l58.26-44.57
		c12.57-17.27,13.1-38.23,1.47-59.07c-16.83-30.16-62.02-60.34-121.44-55.33c-0.88,0.08-1.76-0.21-2.42-0.8
		c-0.67-0.59-1.06-1.42-1.1-2.3c-2.36-57.27,12.09-108.63,24.62-141.63c13.17-34.68,26.67-56.34,28.01-58.45
		c1.25-2.42,13.6-24.28,58.12-42.46c1.66-0.68,3.56,0.12,4.24,1.78s-0.12,3.56-1.78,4.24c-43.59,17.81-54.72,39.28-54.83,39.5
		c-0.05,0.1-0.12,0.22-0.18,0.31c-0.14,0.22-14.22,22.38-27.56,57.56c-12.04,31.75-25.88,80.78-24.26,135.54
		c26.43-1.67,52.31,3.32,75.03,14.48c21.72,10.67,39.21,26.44,49.23,44.4c12.84,23.01,12.04,47.24-2.19,66.47
		c-0.18,0.25-0.4,0.46-0.64,0.65l-58.63,44.85C620.38,427.68,619.68,427.9,618.99,427.9z"/>
	<path class="st1" d="M438.81,339.7c-0.51,0-1.03-0.12-1.51-0.37c-1.59-0.84-2.2-2.8-1.36-4.39
		c25.55-48.53,48.76-71.36,118.77-78.31c1.79-0.19,3.38,1.13,3.56,2.91c0.18,1.79-1.13,3.38-2.91,3.55
		c-67.46,6.7-88.76,27.56-113.66,74.87C441.11,339.07,439.98,339.7,438.81,339.7z"/>
</g>
<g>
	<g>
		<path class="st2" d="M269.26,723.23c-0.88,0-1.76-0.35-2.4-1.05c-2.37-2.58-4.45-5.61-6.19-8.98c-0.5-0.98-0.48-2.14,0.06-3.1
			c88.77-156.03,179.38-286.5,276.99-398.85c1.18-1.36,3.23-1.5,4.58-0.32c1.35,1.18,1.5,3.23,0.32,4.58
			c-97,111.65-187.08,241.27-275.35,396.23c1.29,2.25,2.76,4.27,4.38,6.04c1.21,1.32,1.12,3.38-0.2,4.59
			C270.83,722.95,270.04,723.23,269.26,723.23z"/>
		<path class="st2" d="M337.18,682.66c-0.8,0-1.6-0.29-2.23-0.89c-1.3-1.23-1.36-3.29-0.13-4.59
			c103.82-109.85,188.76-215.8,259.67-323.91c0.99-1.5,3-1.92,4.5-0.94c1.5,0.98,1.92,3,0.94,4.5
			C528.8,465.27,443.63,571.52,339.54,681.65C338.9,682.32,338.04,682.66,337.18,682.66z"/>
		<path class="st2" d="M642.52,285.62c-0.56,0-1.13-0.15-1.65-0.45c-1.55-0.91-2.06-2.91-1.14-4.45c3.84-6.5,7.67-13.08,11.41-19.59
			c-12.64-7.01-24.14-15.77-34.28-26.08c-7.91,8.07-15.87,16.34-23.68,24.62c-1.23,1.3-3.29,1.37-4.59,0.13
			c-1.31-1.23-1.37-3.29-0.13-4.59c8.62-9.13,17.41-18.25,26.12-27.11c0.62-0.63,1.45-0.96,2.35-0.97c0.88,0.01,1.72,0.38,2.33,1.02
			c10.97,11.67,23.71,21.37,37.87,28.82c0.78,0.41,1.36,1.12,1.61,1.97s0.14,1.76-0.3,2.52c-4.27,7.48-8.68,15.07-13.11,22.56
			C644.71,285.05,643.63,285.62,642.52,285.62z"/>
		<path class="st2" d="M616.88,233.63c-0.72,0-1.44-0.24-2.05-0.73c-1.39-1.13-1.61-3.18-0.48-4.57c5.52-6.8,7.6-14.67,9.81-23.01
			c6.18-23.36,13.19-49.85,91.88-69.77c1.74-0.44,3.51,0.61,3.95,2.35c0.44,1.74-0.61,3.51-2.35,3.95
			c-33.74,8.54-56.6,18.92-69.88,31.73c-11.38,10.98-14.4,22.37-17.32,33.4c-2.28,8.63-4.65,17.56-11.04,25.44
			C618.76,233.22,617.82,233.63,616.88,233.63z"/>
		<path class="st2" d="M655.6,263.11c-0.43,0-0.86-0.08-1.28-0.26c-1.65-0.71-2.41-2.62-1.71-4.27
			c3.86-9.01,10.83-14.64,17.57-20.08c1.91-1.54,3.88-3.13,5.75-4.78c13.56-11.94,20.35-22.65,22.04-34.75
			c4.67-33.58,10-53.93,16.28-62.22c1.09-1.43,3.12-1.71,4.55-0.63c1.43,1.08,1.71,3.12,0.63,4.55
			c-5.51,7.28-10.57,27.19-15.02,59.19c-2.48,17.82-14.99,30.64-24.18,38.73c-1.97,1.74-4,3.37-5.96,4.96
			c-6.4,5.17-12.45,10.06-15.68,17.58C658.06,262.37,656.86,263.11,655.6,263.11z"/>
		<path class="st2" d="M574.79,391.71c-0.52,0-1.04-0.12-1.53-0.38c-22.57-12.06-42.97-27.58-60.62-46.13
			c-1.24-1.3-1.19-3.36,0.11-4.59c1.3-1.24,3.36-1.19,4.59,0.11c17.17,18.05,37.01,33.15,58.97,44.88c1.58,0.85,2.18,2.81,1.34,4.4
			C577.08,391.09,575.95,391.71,574.79,391.71z"/>
	</g>
	<path class="st2" d="M123.5,987.8c-0.45,0-0.9-0.09-1.33-0.28c-1.47-0.66-2.24-2.3-1.8-3.86c15.92-55.83,38.97-109.59,68.52-159.8
		c26.54-45.08,53.79-88.16,95.34-119.65c16.5-12.51,36.63-21.25,56.09-29.7c26.73-11.61,54.37-23.61,71.87-45.34
		c0.03-0.03,0.05-0.07,0.08-0.1c14.07-17.82,26-44.8,32.72-74.02c0.4-1.75,2.15-2.84,3.89-2.44c1.75,0.4,2.84,2.15,2.44,3.9
		c-6.87,29.91-19.13,57.65-33.66,76.22c-13.79,40.18-27.77,71.56-43.99,98.72c-20.25,33.91-43.65,60.5-71.54,81.29
		c-11.55,8.61-23.74,16.62-35.52,24.37c-15.29,10.06-31.11,20.45-45.54,32.18c-39.31,31.94-66.2,71.88-94.83,117
		C125.63,987.25,124.58,987.8,123.5,987.8z M406.66,644.4c-17.85,16.13-41.12,26.24-63.75,36.06c-19.11,8.3-38.87,16.88-54.75,28.92
		c-40.6,30.77-67.47,73.26-93.66,117.76c-25.31,43-45.81,88.64-61.09,135.95c24.53-37.57,49.37-71.07,83.56-98.85
		c14.68-11.93,30.64-22.42,46.06-32.57c11.71-7.7,23.81-15.66,35.21-24.15C355.9,764.55,386.63,699.69,406.66,644.4z"/>
	<path class="st2" d="M437.95,441.92c-1.67,0-3.08-1.27-3.23-2.97c-0.09-1.05-0.18-2.1-0.27-3.15l-0.31-3.72
		c-3.38-40.12-7.2-85.59,9.78-123.97c0.05-0.11,0.11-0.22,0.17-0.33c6.26-10.66,18.28-16.21,34.73-16.09
		c44.46,0.35,114.78,41.8,136.81,80.65c8.19,14.44,9.19,27.73,2.9,38.43c-12.55,22.2-38.14,26.54-66.75,11.27
		c-1.58-0.84-2.18-2.81-1.34-4.4c0.84-1.58,2.81-2.18,4.4-1.34c25.54,13.63,47.25,10.35,58.06-8.78c5.15-8.76,4.15-19.5-2.92-31.98
		c-9.82-17.32-31.36-36.9-57.61-52.38c-26.26-15.49-53.77-24.82-73.59-24.98c-14.16-0.11-23.87,4.17-28.99,12.73
		c-16.22,36.83-12.47,81.34-9.17,120.62l0.31,3.72c0.09,1.04,0.18,2.08,0.27,3.12c0.16,1.79-1.17,3.37-2.95,3.52
		C438.14,441.92,438.04,441.92,437.95,441.92z"/>
	<path class="st2" d="M499.25,364.32c-1.2,0-2.34-0.66-2.91-1.8c-10.53-21.17-15.73-44.46-15.02-67.36c0.05-1.79,1.57-3.2,3.35-3.15
		c1.79,0.06,3.2,1.55,3.15,3.35c-0.67,21.83,4.28,44.06,14.34,64.27c0.8,1.61,0.15,3.56-1.46,4.36
		C500.23,364.21,499.73,364.32,499.25,364.32z"/>
	<path class="st2" d="M414.78,634.39c-1.79,0-3.25-1.45-3.25-3.24c-0.02-9.52-0.43-25.87-0.9-35.7c-0.09-1.79,1.3-3.32,3.09-3.4
		c1.8-0.09,3.32,1.3,3.4,3.09c0.47,9.92,0.89,26.4,0.91,36C418.03,632.93,416.58,634.39,414.78,634.39
		C414.78,634.39,414.78,634.39,414.78,634.39z"/>
	<path class="st2" d="M393.55,506c-1.67,0-3.09-1.28-3.24-2.98c-2.76-33.22-4.88-68.44,2.01-101.79
		c7.22-34.97,23.47-65.21,51.14-95.16c1.22-1.32,3.27-1.4,4.59-0.18c1.32,1.22,1.4,3.27,0.18,4.59
		c-57.4,62.14-57.53,118.77-51.45,192c0.15,1.79-1.18,3.36-2.97,3.51C393.73,506,393.64,506,393.55,506z"/>
	<path class="st2" d="M480.07,272.81c-0.12,0-0.24-0.01-0.35-0.02c-1.78-0.19-3.07-1.8-2.88-3.58
		c5.73-52.89,32.62-102.34,84.6-155.63c5.98-6.13,12.46-11.88,18.72-17.44c6.92-6.15,14.08-12.5,20.47-19.3
		c9.64-10.27,17.7-21.84,23.95-34.4c5.5-11.05,12.5-23.42,26.05-30.33c1.6-0.82,3.56-0.18,4.37,1.42c0.82,1.6,0.18,3.56-1.42,4.37
		c-11.79,6.01-17.92,16.85-23.18,27.44c-6.53,13.13-14.95,25.22-25.03,35.95c-6.59,7.01-13.86,13.47-20.89,19.71
		c-6.18,5.48-12.57,11.16-18.39,17.12c-50.92,52.19-77.22,100.42-82.79,151.79C483.12,271.57,481.71,272.81,480.07,272.81z"/>
	<path class="st2" d="M607.33,422.45c-0.98,0-1.94-0.44-2.58-1.28c-1.09-1.43-0.82-3.47,0.61-4.56l58.26-44.57
		c12.57-17.27,13.1-38.23,1.47-59.07c-16.83-30.16-62.02-60.34-121.44-55.33c-0.89,0.08-1.76-0.21-2.42-0.8
		c-0.67-0.59-1.06-1.42-1.1-2.3c-2.36-57.27,12.09-108.63,24.62-141.63c13.17-34.68,26.67-56.34,28.01-58.45
		c1.25-2.42,13.6-24.28,58.12-42.46c1.66-0.68,3.56,0.12,4.24,1.78c0.68,1.66-0.12,3.56-1.78,4.24
		c-43.59,17.81-54.72,39.28-54.83,39.5c-0.05,0.1-0.12,0.22-0.18,0.31c-0.14,0.22-14.22,22.38-27.56,57.56
		c-12.04,31.75-25.88,80.78-24.26,135.54c26.43-1.66,52.31,3.32,75.03,14.48c21.72,10.67,39.21,26.44,49.23,44.4
		c12.84,23.01,12.04,47.24-2.19,66.47c-0.18,0.25-0.4,0.46-0.64,0.65l-58.63,44.85C608.72,422.23,608.02,422.45,607.33,422.45z"/>
	<path class="st2" d="M427.15,334.25c-0.51,0-1.03-0.12-1.51-0.37c-1.59-0.84-2.2-2.8-1.36-4.39
		c25.55-48.54,48.76-71.36,118.77-78.31c1.79-0.19,3.38,1.13,3.56,2.91c0.18,1.79-1.13,3.38-2.91,3.55
		c-67.46,6.7-88.76,27.56-113.66,74.87C429.45,333.62,428.32,334.25,427.15,334.25z"/>
</g>
</svg>
