<svg xmlns="http://www.w3.org/2000/svg" xmlns:xlink="http://www.w3.org/1999/xlink" viewBox="0 0 400 400"><defs><style>.cls-1{fill:none;}.cls-2{fill:url(#radial-gradient);}.cls-3{fill:#1e9b83;}.cls-4{fill:#23ad93;}.cls-5{fill:#23af94;}.cls-6{fill:#0fba99;}.cls-7{fill:#25c1a3;}.cls-8{fill:#24d3b1;}.cls-9{fill:#1e8470;}.cls-10{clip-path:url(#clip-path);}.cls-11{fill:#ffb200;}.cls-12{fill:#ffa000;}.cls-13{fill:#2d2113;}.cls-14{fill:#473015;}.cls-15,.cls-20{fill:#ff0d4a;}.cls-16{fill:#bf0a38;}.cls-17{fill:#536e7b;}.cls-18{fill:#778f9c;}.cls-19{fill:#9e0b35;}.cls-20{stroke:#ff0d4a;stroke-miterlimit:10;stroke-width:1.5px;}</style><radialGradient id="radial-gradient" cx="200" cy="155.74" r="200" gradientTransform="translate(0 44.26)" gradientUnits="userSpaceOnUse"><stop offset="0" stop-color="#004a89"/><stop offset="0.21" stop-color="#004481"/><stop offset="0.53" stop-color="#00336c"/><stop offset="0.92" stop-color="#001849"/><stop offset="1" stop-color="#001241"/></radialGradient><clipPath id="clip-path"><polygon class="cls-1" points="127.95 169.37 149.7 144.07 257.26 144.07 271.69 175.34 271.69 275.23 252.61 302.91 154.84 298.5 132.52 270.42 68.34 345.91 145.35 353.04 321.43 357.86 346.06 321.76 357.82 220.88 367.56 122.11 367.56 43 319.78 31.37 207.8 43.4 118.08 22.14 52.7 26.96 7.38 37.79 11.79 102.26 15.8 146.88 47.6 187.79 127.95 169.37"/></clipPath></defs><title>illustration-2</title><g id="Layer_6" data-name="Layer 6"><rect class="cls-2" width="400" height="400"/></g><g id="Layer_8" data-name="Layer 8"><path class="cls-3" d="M303.38,219.42c2.34,8.17-47.21,91-53.78,92.84l13.86-93.12Z"/><path class="cls-3" d="M249.6,312.59a.35.35,0,0,1-.22-.08.32.32,0,0,1-.11-.3l13.85-93.12a.35.35,0,0,1,.34-.28l39.92.27a.33.33,0,0,1,.32.25c.51,1.75-.88,8.69-15.8,35.47-13,23.29-33.77,56.53-38.21,57.78Zm14.15-93.11L250,311.67c4.55-3.07,22-29.85,37.28-57.19,10.37-18.62,16.23-31.5,15.8-34.73Z"/><path class="cls-4" d="M249.6,312.26c-5.84,5.57-97.75-5.28-100.24-8.59l7.72-23.95Z"/><path class="cls-4" d="M237.19,314.17c-5.82,0-14.13-.37-25.9-1.33-13.15-1.08-28.42-2.78-40.84-4.54-9.21-1.3-20.38-3.13-21.36-4.42a.37.37,0,0,1-.05-.31l7.72-23.95a.31.31,0,0,1,.17-.2.33.33,0,0,1,.26,0l92.52,32.54a.33.33,0,0,1,.22.25.31.31,0,0,1-.1.31C248.92,313.37,245.74,314.17,237.19,314.17Zm-87.44-10.59c2.4,1.74,32.48,6.2,61.6,8.59,27.93,2.29,35.48,1.1,37.49.18l-91.55-32.2Z"/><path class="cls-3" d="M149.36,303.67c-8.34-2.92-31.4-46.41-49.44-76.08l57,51.26Z"/><path class="cls-3" d="M149.36,304l-.11,0c-6.34-2.22-20.37-26.32-35.22-51.83-4.83-8.29-9.81-16.86-14.4-24.4a.34.34,0,0,1,.08-.43.32.32,0,0,1,.43,0l57.05,51.26a.35.35,0,0,1,.1.35l-7.61,24.82a.32.32,0,0,1-.17.21A.37.37,0,0,1,149.36,304Zm-48-74.65c4.26,7,8.81,14.87,13.23,22.46,13.89,23.86,28.25,48.52,34.54,51.41L156.58,279Z"/><path class="cls-5" d="M303.38,219.42c-1.8-10.3-44.75-88.13-51.1-91.36l11.18,91.08Z"/><path class="cls-5" d="M303.38,219.76h0l-39.93-.28a.34.34,0,0,1-.33-.3L251.94,128.1a.34.34,0,0,1,.49-.34c3.5,1.78,16.95,24.37,27.4,43.17,10.83,19.48,22.92,42.95,23.88,48.43a.35.35,0,0,1-.07.28A.37.37,0,0,1,303.38,219.76Zm-39.62-.95,39.21.27c-1.08-4.46-8.8-21-23.73-47.83-12.68-22.81-23.07-39.4-26.54-42.47Z"/><path class="cls-3" d="M154.51,151.27,100.72,206.4c19.75-32.41,44.65-76.52,50.55-77.52Z"/><path class="cls-3" d="M100.72,206.73a.33.33,0,0,1-.21-.07.34.34,0,0,1-.08-.44c4.21-6.91,8.74-14.49,13.11-21.81,16.91-28.31,32.88-55,37.67-55.86a.4.4,0,0,1,.26.06.36.36,0,0,1,.13.23l3.24,22.38a.34.34,0,0,1-.09.29L101,206.63A.33.33,0,0,1,100.72,206.73ZM151,129.31c-4.93,2-21.16,29.14-36.87,55.45-3.85,6.44-7.81,13.08-11.58,19.29l51.61-52.89Z"/><path class="cls-6" d="M156.72,279.75l-2.16-127.9L100.72,206.4c-5.42,6.91-5.62,14-.8,21.19Z"/><path class="cls-6" d="M156.72,280.09a.31.31,0,0,1-.22-.09L99.69,227.84l0-.07c-4.92-7.35-4.64-14.61.81-21.58l0,0,53.84-54.54a.33.33,0,0,1,.57.23l2.17,127.89a.34.34,0,0,1-.2.32A.32.32,0,0,1,156.72,280.09Zm-56.54-52.72L156.37,279l-2.14-126.31-53.26,54a16.23,16.23,0,0,0-.79,20.75Z"/><polygon class="cls-7" points="263.46 219.14 252.28 128.06 154.63 151.4 263.46 219.14"/><path class="cls-7" d="M263.46,219.48a.37.37,0,0,1-.18,0L154.45,151.69a.36.36,0,0,1-.15-.34.33.33,0,0,1,.25-.28l97.65-23.34a.33.33,0,0,1,.27.06.31.31,0,0,1,.14.23l11.18,91.08a.33.33,0,0,1-.15.33A.41.41,0,0,1,263.46,219.48Zm-108-67.94L263,218.48l-11.05-90Z"/><polygon class="cls-7" points="249.6 312.26 263.46 219.14 157.08 279.72 249.6 312.26"/><path class="cls-7" d="M249.6,312.59a.22.22,0,0,1-.11,0L157,280a.33.33,0,0,1-.06-.61l106.38-60.58a.33.33,0,0,1,.5.34l-13.86,93.12a.33.33,0,0,1-.15.23A.31.31,0,0,1,249.6,312.59Zm-91.72-32.94,91.45,32.15,13.69-92Z"/><polygon class="cls-8" points="263.46 219.14 157.08 279.72 154.54 151.82 263.46 219.14"/><path class="cls-8" d="M157.08,280.06a.34.34,0,0,1-.17-.05.33.33,0,0,1-.17-.28l-2.53-127.9a.33.33,0,0,1,.16-.3.34.34,0,0,1,.35,0l108.91,67.32a.32.32,0,0,1,.16.29.3.3,0,0,1-.17.28L157.24,280A.33.33,0,0,1,157.08,280.06Zm-2.19-127.63,2.51,126.72,105.4-60Z"/><path class="cls-5" d="M154.63,151.4q-2.15-9.65-4.3-19.28c-.54-2.45.56-3.57,3.14-4,6-1,12.2-.86,18.29-1.17l12.35-.63,29.58-1.51,20.6-1.06c8.8-.22,14.52-.22,18,4.31Z"/><path class="cls-5" d="M154.63,151.74a.34.34,0,0,1-.33-.27L150,132.2a3.54,3.54,0,0,1,.31-2.85,4.36,4.36,0,0,1,3.09-1.57,96,96,0,0,1,13.07-1c1.73,0,3.51-.1,5.26-.19l62.54-3.2c9.05-.24,14.77-.14,18.26,4.44a.34.34,0,0,1-.18.53ZM238.76,124c-1.37,0-2.86,0-4.46.07l-62.53,3.2c-1.75.09-3.54.14-5.27.19a94.5,94.5,0,0,0-13,1,3.79,3.79,0,0,0-2.64,1.28,2.94,2.94,0,0,0-.22,2.32L154.89,151l96.79-23.13C249,124.65,245,124,238.76,124Z"/></g><g id="Layer_10" data-name="Layer 10"><polyline class="cls-9" points="260.22 148.29 256.97 145.21 267.24 167.78 267.05 163.19"/><path class="cls-9" d="M267.24,168.18a.4.4,0,0,1-.36-.23L256.6,145.38a.41.41,0,0,1,.14-.5.39.39,0,0,1,.5,0l3.25,3.08a.4.4,0,1,1-.55.58l-1.75-1.66,8.57,18.83-.11-2.55a.4.4,0,0,1,.39-.41.38.38,0,0,1,.41.38l.19,4.59a.39.39,0,0,1-.3.41Z"/><polyline class="cls-9" points="132.4 162.84 131.02 167.09 146.99 148.12 142.92 150.27"/><path class="cls-9" d="M131,167.5a.46.46,0,0,1-.2-.05.41.41,0,0,1-.18-.48l1.38-4.26a.4.4,0,0,1,.51-.25.39.39,0,0,1,.25.5l-.74,2.3,13.32-15.83-2.25,1.19a.4.4,0,1,1-.38-.71l4.07-2.14a.4.4,0,0,1,.5.1.39.39,0,0,1,0,.51l-16,19A.37.37,0,0,1,131,167.5Z"/><polyline class="cls-9" points="266.77 284.18 267.73 279.8 253.72 300.27 257.56 297.73"/><path class="cls-9" d="M253.72,300.67a.41.41,0,0,1-.33-.63l14-20.46a.39.39,0,0,1,.49-.14.39.39,0,0,1,.23.45l-.95,4.37a.4.4,0,0,1-.79-.17l.52-2.36L255.21,298.8l2.13-1.4a.39.39,0,0,1,.55.11.41.41,0,0,1-.11.56l-3.84,2.53A.34.34,0,0,1,253.72,300.67Z"/><polyline class="cls-9" points="148.76 292.32 152.68 294.47 136.98 275.27 138.34 279.66"/><path class="cls-9" d="M152.68,294.87a.45.45,0,0,1-.19-.05l-3.93-2.15a.41.41,0,0,1-.16-.54A.4.4,0,0,1,149,292l2.12,1.16-13.1-16,.75,2.43a.4.4,0,1,1-.76.24l-1.36-4.39a.4.4,0,0,1,.69-.37L153,294.21a.39.39,0,0,1,0,.51A.39.39,0,0,1,152.68,294.87Z"/><g class="cls-10"><path class="cls-11" d="M113.13,110.36c-3,.31-4.71-.78-4.77-3.57,7.8-6.55,15.64-10,23.46-10.69,3.11-1.91,4.36-3.64,2.25-5a59,59,0,0,0-31.2,13.54c-12-6.57-25.95-18.44-31.62-27-22.87-13.77-4.48-23.8-26-22.48a2.21,2.21,0,0,0-1.31.53,2.16,2.16,0,0,0-.62,1.26c-3,21.41,8.42,3.85,20.37,27.72,8.08,6.32,18.82,21.11,24.44,33.64a59.1,59.1,0,0,0-15.94,30c1.24,2.22,3.06,1.1,5.21-1.85,1.3-7.74,5.35-15.29,12.49-22.56,2.77.29,3.72,2.06,3.18,5"/><path class="cls-12" d="M113.22,110.28c-3,.31-4.71-.78-4.78-3.57,7.8-6.55,15.65-10,23.46-10.69,3.12-1.91,4.37-3.64,2.25-5A58.94,58.94,0,0,0,103,104.53c-12-6.58-26-18.45-31.63-27-22.87-13.77-4.47-23.8-26-22.48a2.21,2.21,0,0,0-1.31.53l59.22,64Z"/><path class="cls-13" d="M66.19,86.63c6.51,6,14.13,16.35,19.39,26.23a27.36,27.36,0,0,1,12.3-11.37c-10.65-6.79-21.64-16.61-26.53-24a13.51,13.51,0,0,0-7.59,7C64.54,85.17,65.36,85.86,66.19,86.63Z"/><path class="cls-13" d="M85.57,113.38l-.21-.4C80.08,103.06,72.49,92.79,66,86.82h0c-.83-.77-1.65-1.47-2.42-2.07l-.16-.13.09-.18a13.81,13.81,0,0,1,7.73-7.15l.19-.07.11.16c4.77,7.18,15.65,17,26.46,23.89l.38.25-.41.19A27.27,27.27,0,0,0,85.8,113ZM66.36,86.45c6.42,5.93,13.93,16.06,19.23,25.9a27.68,27.68,0,0,1,11.78-10.9C86.72,94.6,76.06,85,71.26,77.83a13.3,13.3,0,0,0-7.19,6.65c.73.58,1.5,1.24,2.29,2Z"/><path class="cls-14" d="M66.83,80.3a13.78,13.78,0,0,0-3.2,4.37c.79.62,1.58,1.34,2.41,2.1,6.52,6,14.2,16.4,19.44,26.3a29,29,0,0,1,5.33-6.82Z"/><path class="cls-14" d="M85.47,113.59l-.21-.4C80,103.27,72.4,93,65.88,87c-.94-.86-1.67-1.51-2.41-2.09l-.15-.12.08-.19a14.05,14.05,0,0,1,3.26-4.44l.18-.17,24.32,26.31-.18.17a28.63,28.63,0,0,0-5.28,6.76Zm-21.53-29c.7.56,1.4,1.18,2.27,2,6.48,6,14,16.13,19.28,26a29,29,0,0,1,5-6.33L66.81,80.66A13.62,13.62,0,0,0,63.94,84.6Z"/><circle class="cls-15" cx="50.41" cy="62.57" r="4.13"/><path class="cls-16" d="M53.22,65.61a4.14,4.14,0,0,0-5.62-6.07"/><path class="cls-17" d="M103.11,119.6,312.49,345.9c-1.93-9.62-17.16-30.27-37.49-53l-141-154c-5.33-5.79-8.91-9.9-12.14-13.94-5.6-7-8.78-12.18-8.68-14.67l-10.1,9.32"/><path class="cls-18" d="M93,129c2.5.1,7.42,3.67,14,9.79,3.77,3.53,7.59,7.42,13,13.19l142.6,152.45c21.13,22,40.51,38.86,50,41.53L103,119.4"/><path class="cls-16" d="M108.44,106.72c.07,2.79,1.76,3.87,4.78,3.57L93.11,128.88c.54-3-.41-4.75-3.19-5Z"/><path class="cls-15" d="M103.17,119.57,93,129c.54-3-.41-4.76-3.19-5l9.35-8.64"/><path class="cls-11" d="M287.47,110.36c3,.31,4.71-.78,4.78-3.57-7.81-6.55-15.65-10-23.46-10.69-3.12-1.91-4.37-3.64-2.25-5a59,59,0,0,1,31.19,13.54c12-6.57,26-18.44,31.63-27,22.86-13.77,4.47-23.8,26-22.48a2,2,0,0,1,1.94,1.79c3,21.41-8.43,3.85-20.38,27.72-8.08,6.32-18.82,21.11-24.44,33.64a59,59,0,0,1,15.94,30c-1.23,2.22-3.06,1.1-5.21-1.85-1.3-7.74-5.34-15.29-12.48-22.56-2.78.29-3.73,2.06-3.19,5"/><path class="cls-12" d="M287.39,110.28c3,.31,4.7-.78,4.77-3.57-7.8-6.55-15.65-10-23.46-10.69-3.12-1.91-4.37-3.64-2.25-5a58.91,58.91,0,0,1,31.19,13.55c12.05-6.58,26-18.45,31.63-27,22.87-13.77,4.47-23.8,26.05-22.48a2.23,2.23,0,0,1,1.31.53l-59.23,64Z"/><path class="cls-13" d="M334.41,86.63c-6.51,6-14.13,16.35-19.39,26.23a27.36,27.36,0,0,0-12.3-11.37c10.65-6.79,21.64-16.61,26.53-24a13.53,13.53,0,0,1,7.6,7C336.06,85.17,335.24,85.86,334.41,86.63Z"/><path class="cls-13" d="M315,113.38l-.22-.39a27.35,27.35,0,0,0-12.2-11.28l-.4-.19.38-.25c10.8-6.88,21.68-16.71,26.45-23.89l.11-.16.19.07a13.81,13.81,0,0,1,7.73,7.15l.09.18-.16.13c-.77.6-1.59,1.3-2.42,2.07h0c-6.46,6-14.05,16.24-19.34,26.16Zm-11.8-11.93A27.68,27.68,0,0,1,315,112.35c5.3-9.84,12.82-20,19.23-25.9h0c.79-.73,1.56-1.39,2.29-2a13.3,13.3,0,0,0-7.19-6.65C324.54,85,313.88,94.6,303.23,101.45Z"/><path class="cls-14" d="M333.78,80.3A13.9,13.9,0,0,1,337,84.67c-.79.62-1.58,1.34-2.41,2.1-6.51,6-14.2,16.4-19.44,26.3a28.77,28.77,0,0,0-5.33-6.82Z"/><path class="cls-14" d="M315.13,113.59l-.23-.4a28.63,28.63,0,0,0-5.28-6.76l-.18-.17L333.76,80l.18.17a13.9,13.9,0,0,1,3.26,4.44l.09.19-.16.12c-.74.58-1.47,1.23-2.4,2.09-6.53,6-14.14,16.31-19.39,26.23Zm-5-7.36a29.31,29.31,0,0,1,5,6.33c5.27-9.84,12.8-20,19.28-26,.88-.81,1.57-1.43,2.27-2a13.44,13.44,0,0,0-2.87-3.94Z"/><circle class="cls-15" cx="350.19" cy="62.57" r="4.13"/><path class="cls-16" d="M347.39,65.61A4.13,4.13,0,1,1,353,59.54"/><path class="cls-17" d="M297.49,119.6,88.11,345.9c1.93-9.62,17.16-30.27,37.49-53l141-154c5.34-5.79,8.92-9.9,12.15-13.94,5.59-7,8.77-12.18,8.67-14.67l10.1,9.32"/><path class="cls-18" d="M307.58,129c-2.49.1-7.42,3.67-14,9.79-3.77,3.53-7.59,7.42-13,13.19L138.07,304.38c-21.14,22-40.52,38.86-50,41.53L297.58,119.4"/><path class="cls-16" d="M292.16,106.72c-.07,2.79-1.76,3.87-4.78,3.57l20.11,18.59c-.54-3,.41-4.75,3.19-5Z"/><path class="cls-15" d="M297.44,119.57,307.58,129c-.54-3,.41-4.76,3.19-5l-9.35-8.64"/></g></g><g id="Layer_12" data-name="Layer 12"><path class="cls-19" d="M25.49,268c-1.13.18-1.77-.61-2.08-2.6l-6.36-40.27a4,4,0,0,1,.16-2.38c1.24-2.51,2.48-5,3.74-7.52a1.38,1.38,0,0,1,1.1-.74q8.32-1.26,16.64-2.41c1.2-.16,1.84.64,2.11,2.64q.5,3.71,1,7.42a4,4,0,0,1-.21,2.37q-1.66,3.18-3.32,6.37c1.14-.16,1.77.64,2,2.63.34,2.49.69,5,1,7.48a4.17,4.17,0,0,1-.18,2.38q-1.91,3.69-3.76,7.39a1.29,1.29,0,0,1-1,.78l-1.26.18c.23,1.62.47,3.24.7,4.86a4.21,4.21,0,0,1-.16,2.38q-1.85,3.69-3.65,7.4a1.24,1.24,0,0,1-1,.79Zm10-11.37q-.88-6.13-1.78-12.26c2.1-.31,4.21-.61,6.31-.9.91-.13,1.22-.87,1-2.43-.35-2.49-.69-5-1-7.48-.21-1.55-.71-2.18-1.63-2.06l-6.39.92c-.31-2.16-.63-4.32-.94-6.48,3.14-.45,6.27-.9,9.41-1.33.93-.13,1.24-.87,1-2.42q-.51-3.72-1-7.42c-.22-1.56-.72-2.19-1.65-2.06q-8.33,1.14-16.63,2.4c-.93.15-1.24.89-1,2.45l6.18,40.29c.23,1.55.73,2.18,1.63,2l5.55-.83C35.41,258.94,35.7,258.2,35.47,256.64Zm-9.76-36.33q5.91-.88,11.83-1.71l.09.63q-5.73.79-11.46,1.65,1.33,8.9,2.66,17.79l8.32-1.21.09.62c-2.77.4-5.55.8-8.32,1.22q1.08,7.27,2.17,14.55l-.36.06Q28.23,237.11,25.71,220.31Z"/><path class="cls-19" d="M31.1,267.78l-5.51.85c-2.26.35-2.67-2.26-2.81-3.12q-3.18-20.13-6.38-40.26a4.61,4.61,0,0,1,.21-2.73c1.24-2.52,2.48-5,3.74-7.54a2.09,2.09,0,0,1,1.61-1.1q8.33-1.26,16.65-2.4c2.37-.33,2.73,2.3,2.84,3.16.34,2.47.67,4.94,1,7.42a4.62,4.62,0,0,1-.26,2.72c-1,1.86-2,3.72-2.92,5.58,1.34.49,1.6,2.37,1.69,3.07q.53,3.75,1,7.48a4.63,4.63,0,0,1-.24,2.72c-1.26,2.46-2.52,4.92-3.76,7.39a1.92,1.92,0,0,1-1.52,1.15l-.63.09c.2,1.41.41,2.82.61,4.24a4.66,4.66,0,0,1-.22,2.72c-1.22,2.47-2.44,4.93-3.64,7.4A1.92,1.92,0,0,1,31.1,267.78ZM20.49,217.61c-.9,1.8-1.8,3.61-2.69,5.41a3.64,3.64,0,0,0-.1,2L24,265.31c.36,2.24,1,2.13,1.37,2.08l5.51-.85a.61.61,0,0,0,.52-.39l0,0c1-2.14,2.09-4.27,3.15-6.41l-5.55.83c-1.92.29-2.25-1.86-2.36-2.56q-3.09-20.14-6.19-40.29S20.49,217.63,20.49,217.61Zm1.75-1.87c-.24,0-.68.1-.44,1.73q3.09,20.15,6.16,40.29c.24,1.62.67,1.56.9,1.52l5.56-.83c.23,0,.66-.09.42-1.72q-.95-6.44-1.88-12.88,3.48-.51,7-1c.23,0,.67-.1.44-1.72-.35-2.49-.69-5-1-7.48-.23-1.62-.67-1.56-.9-1.53l-7,1c-.38-2.57-.75-5.14-1.13-7.71,3.36-.49,6.71-1,10.07-1.43.24,0,.68-.09.46-1.72l-1-7.41c-.22-1.63-.67-1.57-.91-1.53Q30.55,214.48,22.24,215.74Zm13.07,35.33,1-.14a.61.61,0,0,0,.52-.39l0,0,3.25-6.4-5.68.81ZM32.5,231.71l5-.71q1.48-2.88,3-5.76-4.38.6-8.76,1.24C32,228.22,32.25,230,32.5,231.71Zm-.68,22.67-1.63.24Q27.58,237.21,25,219.79q6.57-1,13.15-1.9c.09.62.17,1.25.26,1.87q-5.73.78-11.46,1.64,1.23,8.28,2.47,16.56c2.77-.41,5.55-.82,8.33-1.21.08.62.17,1.24.26,1.86-2.77.39-5.55.8-8.32,1.21Q30.73,247.09,31.82,254.38Z"/><path class="cls-19" d="M57.19,263.52,52,264.2c-1.14.15-1.76-.66-2-2.65q-1.11-8.24-2.2-16.46a47.33,47.33,0,0,1,.1-10.42q.64-7.26,1.32-14.51a5.11,5.11,0,0,1,.42-1.77l0-.07c1.29-2.43,2.6-4.85,3.92-7.28A1.82,1.82,0,0,1,55.05,210q5-.61,10.06-1.19c1.16-.13,2,.54,2.49,2.19q2.41,6.91,4.8,13.83A46.71,46.71,0,0,1,75,234.89q.9,8.25,1.79,16.51a4.19,4.19,0,0,1-.25,2.37c-1.31,2.42-2.62,4.84-3.91,7.27a1.27,1.27,0,0,1-1,.75l-5.39.62c-1.21.15-1.86-.73-2.09-2.66-.33-2.71-.66-5.41-1-8.12l-1,.12c0,.44.1.88.16,1.31a4.26,4.26,0,0,1-.22,2.38q-1.93,3.65-3.82,7.32A1.27,1.27,0,0,1,57.19,263.52Zm3.64-19.15,6.43-.77q.49,4.38,1,8.75c.18,1.56.69,2.2,1.66,2.09l5.43-.61c.9-.1,1.22-.83,1-2.39q-.9-8.26-1.79-16.51a46.08,46.08,0,0,0-2.53-9.85q-2.37-6.93-4.8-13.83c-.46-1.41-1.13-2-2.1-1.85q-5,.57-10.06,1.19c-1,.12-1.53.82-1.65,2.29q-.73,7.29-1.43,14.58a45.6,45.6,0,0,0-.15,10.16Q53,245.86,54,254.1c.2,1.55.68,2.19,1.58,2.08l5.28-.67c.9-.1,1.21-.84,1-2.4C61.54,250.19,61.19,247.28,60.83,244.37Zm9.82-6.6q-7.12.79-14.22,1.69.66,5.37,1.34,10.74l-.36,0q-.84-6.65-1.67-13.29a27.31,27.31,0,0,1-.13-6.14c.35-3.51.72-7,1.09-10.53.27-2.37.5-4.24,2.21-4.45l3.64-.43c1.64-.19,2.29,1.51,3.16,3.87q1.88,4.95,3.71,9.9a27.53,27.53,0,0,1,1.3,6q.75,6.66,1.49,13.31l-.36,0Zm-14.3,1.06q7.11-.89,14.22-1.68l-.21-1.94a28.08,28.08,0,0,0-1.24-5.75q-1.84-5-3.71-9.9c-.81-2.12-1.41-3.7-2.78-3.54l-3.65.44c-1.48.18-1.69,1.85-1.92,4Q56.51,225.76,56,231a26.93,26.93,0,0,0,.14,5.88ZM61,222.11l.92-.11c.3,0,.56.25.83,1q1.43,4.65,2.84,9.29l-5.75.69q.28-4.86.58-9.7C60.5,222.48,60.68,222.14,61,222.11Z"/><path class="cls-19" d="M71.64,262.41l-5.39.62c-1.57.19-2.51-.89-2.79-3.2-.2-1.63-.4-3.26-.59-4.89a3.4,3.4,0,0,1-.26.76c-1.28,2.44-2.56,4.88-3.82,7.32a1.9,1.9,0,0,1-1.52,1.12l-5.24.68c-2.26.3-2.62-2.33-2.73-3.19q-1.11-8.24-2.21-16.46a48.47,48.47,0,0,1,.09-10.55q.65-7.26,1.32-14.51a5.69,5.69,0,0,1,.46-2l0-.12c1.3-2.43,2.61-4.85,3.92-7.28a2.47,2.47,0,0,1,2-1.42c3.35-.41,6.71-.81,10.06-1.19,1.51-.17,2.58.71,3.19,2.62q2.42,6.9,4.79,13.82a48.3,48.3,0,0,1,2.61,10.23q.89,8.25,1.78,16.51a4.84,4.84,0,0,1-.32,2.71q-2,3.63-3.91,7.27A1.91,1.91,0,0,1,71.64,262.41ZM62.3,251.1l1.37-.17c.35,2.92.69,5.83,1,8.74.27,2.26,1,2.17,1.4,2.12l5.39-.62a.65.65,0,0,0,.53-.38l0-.05c1.12-2.09,2.24-4.19,3.38-6.29l-5.43.61c-1.34.16-2.14-.73-2.36-2.64-.32-2.7-.63-5.41-1-8.12l-5.14.61ZM50.19,218.58v0a4.22,4.22,0,0,0-.37,1.57q-.69,7.26-1.33,14.52A46.94,46.94,0,0,0,48.37,245q1.1,8.24,2.18,16.46c.3,2.25,1,2.16,1.32,2.12l5.24-.68a.62.62,0,0,0,.52-.38l0,0,3.3-6.34-5.27.67c-1.92.24-2.2-1.91-2.29-2.62q-1.08-8.24-2.14-16.47a46.88,46.88,0,0,1,.15-10.3q.65-6.76,1.32-13.53Q51.44,216.22,50.19,218.58Zm9.93,25.24c2.57-.31,5.13-.62,7.7-.91l1.08,9.37c.19,1.63.65,1.57,1,1.54l5.43-.61c.23,0,.67-.07.49-1.7L74,235a46.31,46.31,0,0,0-2.5-9.72q-2.4-6.92-4.82-13.83c-.5-1.54-1.09-1.47-1.4-1.43q-5,.57-10.05,1.19c-.35,0-.94.12-1.07,1.71q-.73,7.31-1.45,14.59a46.32,46.32,0,0,0-.15,10q1.05,8.24,2.11,16.47c.21,1.63.64,1.58.87,1.55l5.28-.67c.23,0,.66-.08.47-1.7Q60.69,248.5,60.12,243.82ZM72.92,249l-1.63.19c-.41-3.59-.81-7.17-1.22-10.76q-6.46.73-12.93,1.54.68,5.37,1.34,10.74l-1.63.2Q56,244,55.1,237a27.72,27.72,0,0,1-.14-6.27q.54-5.26,1.09-10.53c.28-2.44.54-4.75,2.78-5l3.65-.43c2.18-.25,3,1.85,3.85,4.28q1.86,5,3.7,9.9a28.35,28.35,0,0,1,1.34,6.14Q72.13,242.06,72.92,249Zm-16-10.9q6.48-.8,13-1.53l-.15-1.32a26.33,26.33,0,0,0-1.21-5.62q-1.84-4.95-3.72-9.9c-.76-2-1.27-3.21-2.08-3.12l-3.64.44c-.86.1-1.1,1.11-1.34,3.46q-.57,5.28-1.11,10.54a26.59,26.59,0,0,0,.14,5.74C56.8,237.26,56.86,237.7,56.91,238.13Zm9.5-5.33c-2.43.29-4.86.57-7.28.87.2-3.49.41-7,.62-10.48.06-.43.2-1.59,1.15-1.7l.93-.11c1-.11,1.36,1,1.52,1.38v0Q64.89,227.8,66.41,232.8Zm-5.9-.56,4.22-.5c-.87-2.85-1.74-5.71-2.62-8.56a1.9,1.9,0,0,0-.27-.54l-.66.07a3.22,3.22,0,0,0-.13.59Z"/><path class="cls-19" d="M91.16,259.1a1.27,1.27,0,0,1-1,.73l-5.32.53c-1.15.12-1.74-.71-1.94-2.71l-4.2-40.55a4,4,0,0,1,.29-2.36c1.36-2.44,2.74-4.88,4.12-7.31a1.39,1.39,0,0,1,1.15-.68l6-.58c.94-.08,1.55.43,2.26,2l3.24,7.6.24-1a5.14,5.14,0,0,1,.54-1.56c1.4-2.4,2.82-4.79,4.24-7.18a1.63,1.63,0,0,1,1.32-.87l6.08-.49c1.2-.09,1.79.75,1.94,2.76q1.55,20.33,3.07,40.64a4.08,4.08,0,0,1-.33,2.36q-2.09,3.57-4.14,7.14a1.23,1.23,0,0,1-1.06.72l-5.51.46c-1.18.1-1.72-.73-1.9-2.74q-.72-8.27-1.45-16.54l-1.87,3.26a1.85,1.85,0,0,1-1.48,1l-.47,0q.26,2.88.53,5.76a4.19,4.19,0,0,1-.3,2.37Q93.17,255.49,91.16,259.1Zm4-9.54q-1-11-2-22.05l2.79,6.64c.56,1.4,1.16,1.91,2.11,1.83l1.46-.13c1-.08,1.45-.69,1.77-2.17q.78-3.51,1.59-7l1.83,22.07c.13,1.57.55,2.23,1.49,2.15l5.55-.44c.9-.07,1.24-.79,1.12-2.36q-1.55-20.33-3.08-40.64c-.12-1.57-.58-2.23-1.52-2.16l-6.07.49c-.79.06-1.24.6-1.57,2q-1.25,5.25-2.45,10.5c-.19.77-.27,1.1-.57,1.12l-.33,0c-.3,0-.44-.28-.76-1q-2.13-5-4.27-9.91c-.57-1.34-1.11-1.79-1.89-1.72-2,.18-4,.38-6,.57-.94.09-1.28.82-1.13,2.39q2,20.28,4,40.56c.16,1.57.62,2.22,1.52,2.13l5.37-.51C94.93,251.86,95.27,251.13,95.12,249.56Zm4.47-25.08q1.75-6,3.54-12c.24-.84.59-1.12,1-1.16l.63-.05c.71-.06,1.06.49,1.17,1.86q1.26,16,2.53,31.92l-.36,0-2.55-31.92c0-.68-.21-1.31-.74-1.26l-.56,0c-.33,0-.55.11-.78.95q-1.8,6-3.56,11.91c-.69,2.33-.85,3-1.92,3.14s-1.34-.58-2.43-2.76Q92.8,219.58,90,214c-.37-.79-.64-.82-1-.79l-.56,0c-.52.05-.53.68-.47,1.37l3,31.88-.36,0q-1.52-15.93-3-31.87c-.13-1.38.11-2,.78-2l.64-.06c.41,0,.84.18,1.22,1q2.81,5.63,5.58,11.24c1,2.12,1.23,2.55,2.11,2.47S98.93,226.74,99.59,224.48Z"/><path class="cls-19" d="M107.69,258.89l-5.5.46c-2.28.2-2.5-2.34-2.59-3.3q-.63-7.26-1.28-14.53L97.47,243a2.47,2.47,0,0,1-1.82,1.32c.16,1.71.31,3.43.47,5.14a4.71,4.71,0,0,1-.36,2.71q-2,3.6-4,7.2a1.92,1.92,0,0,1-1.56,1.07l-5.32.53c-2.27.24-2.54-2.4-2.63-3.26Q80.11,237.44,78,217.17a4.66,4.66,0,0,1,.35-2.71c1.37-2.45,2.74-4.89,4.13-7.32a2.1,2.1,0,0,1,1.67-1l6-.57c1.57-.14,2.33,1.06,2.93,2.38.82,1.93,1.65,3.86,2.47,5.8a4.62,4.62,0,0,1,.36-.84c1.41-2.41,2.84-4.82,4.27-7.22a2.32,2.32,0,0,1,1.82-1.15l6.08-.49c2.39-.18,2.59,2.46,2.65,3.33q1.53,20.32,3,40.65a4.71,4.71,0,0,1-.41,2.7q-2.09,3.56-4.14,7.13A1.9,1.9,0,0,1,107.69,258.89Zm-8.44-21.52,1.61,18.57c.2,2.25.81,2.2,1.22,2.17,1.84-.16,3.67-.32,5.51-.46a.65.65,0,0,0,.54-.36l0-.05q1.78-3.09,3.58-6.18l-5.54.44c-1.93.16-2.11-1.93-2.17-2.72l-1.5-17.9-.66,2.93c-.27,1.24-.75,2.53-2.34,2.66l-1.46.13c-1.59.14-2.3-1-2.77-2.22-.39-.92-.78-1.84-1.16-2.77l1.05,11.51.19,0a1.16,1.16,0,0,0,1-.7C97.31,240.72,98.28,239.05,99.25,237.37Zm-16.77-27.6-3,5.26a3.58,3.58,0,0,0-.2,2l4.17,40.55c.23,2.25.89,2.19,1.24,2.15l5.33-.53a.63.63,0,0,0,.54-.37l0,0q1.73-3.12,3.48-6.24l-5.36.51c-1.92.19-2.14-2-2.21-2.68q-2-20.29-4-40.57Zm20.64,12.68q1.08,13.11,2.17,26.23c.13,1.63.52,1.6.8,1.58l5.55-.44c.23,0,.66-.06.54-1.69q-1.56-20.32-3.11-40.64c-.12-1.64-.57-1.6-.81-1.59l-6.07.49c-.25,0-.63.05-1,1.53q-1.23,5.25-2.45,10.5c-.22.87-.39,1.55-1.16,1.61l-.33,0c-.77.07-1-.57-1.42-1.38q-2.11-5-4.27-9.92c-.6-1.4-1-1.36-1.23-1.34l-6,.57c-.24,0-.69.07-.53,1.7l4,40.57c.16,1.63.59,1.59.82,1.57q2.69-.27,5.37-.51c.23,0,.66-.06.51-1.7q-1.21-13.1-2.42-26.21,2.22,5.25,4.41,10.5c.57,1.41,1,1.48,1.47,1.45l1.46-.13c.44,0,.87-.2,1.18-1.67Q101.85,228,103.12,222.45Zm-6.85-6.11c.27.62.53,1.24.79,1.85l.26.57c.06-.16.12-.41.17-.61q1-4.41,2-8.8-1.23,2.07-2.44,4.14a4.55,4.55,0,0,0-.46,1.37Zm12.88,29.25-1.64.13-2.61-32.54a2.29,2.29,0,0,0-.13-.69l-.47,0h0a1.86,1.86,0,0,0-.18.48q-1.84,6.11-3.65,12.21c-.64,2.18-.94,3.17-2.4,3.3s-1.93-.8-2.94-2.83c0-.09-.09-.18-.14-.27q-2.76-5.56-5.57-11.11a1.43,1.43,0,0,0-.28-.45h-.05l-.44,0a2.64,2.64,0,0,0,0,.7q1.53,16.25,3.07,32.5l-1.63.15L87,214.76c-.06-.63-.25-2.56,1.38-2.72L89,212c.54,0,1.31.14,1.87,1.32q2.85,5.69,5.65,11.38c1,2,1,2,1.39,2s.42,0,1-2.18q1.77-6.1,3.58-12.2c.28-1,.81-1.55,1.58-1.61l.63,0c1.67-.13,1.81,1.73,1.87,2.43Q107.87,229.32,109.15,245.59Z"/><path class="cls-19" d="M120.85,257.27c-1.14.08-1.71-.76-1.85-2.77-.17-2.49-.35-5-.53-7.46a4.13,4.13,0,0,1,.35-2.36q2-3.36,4-6.7l-.93-14-3.29.22c-1.18.08-1.75-.76-1.9-2.76q-.27-3.81-.53-7.6a4.07,4.07,0,0,1,.35-2.36q2.17-3.58,4.36-7.17a1.39,1.39,0,0,1,1.17-.64q8-.53,16-.93c1.2-.06,1.77.79,1.87,2.8.13,2.54.25,5.07.38,7.6a4,4,0,0,1-.4,2.35q-2.06,3.25-4.08,6.52.38,7.06.76,14.13l3.18-.17c1.17-.06,1.72.8,1.82,2.81.12,2.49.25,5,.37,7.47a4.11,4.11,0,0,1-.39,2.35c-1.45,2.34-2.89,4.69-4.32,7a1.22,1.22,0,0,1-1.07.69Q128.49,256.74,120.85,257.27Zm19.51-8.67c.9,0,1.26-.76,1.18-2.33-.12-2.49-.25-5-.37-7.47-.08-1.58-.52-2.25-1.43-2.2l-3.54.19q-.57-10.56-1.15-21.11l3.61-.19c.92-.05,1.3-.76,1.22-2.33-.13-2.53-.26-5.07-.38-7.6-.08-1.57-.53-2.24-1.47-2.19q-8,.4-16,.93c-.94.06-1.31.78-1.2,2.35q.24,3.79.5,7.59c.1,1.57.56,2.24,1.48,2.17l3.68-.23q.66,10.55,1.31,21.1l-3.61.22c-.91.06-1.27.78-1.16,2.35.16,2.49.33,5,.49,7.47.1,1.57.55,2.23,1.45,2.17Q132.67,249,140.36,248.6Zm-13.78-4.88,0-.63,5.62-.34q-.94-16.33-1.91-32.66l-5.78.36,0-.63q5.94-.37,11.88-.69l0,.62-5.71.32,1.89,32.66,5.55-.31,0,.63Q132.33,243.35,126.58,243.72Z"/><path class="cls-19" d="M136.15,257q-7.62.42-15.25.95c-2.28.16-2.47-2.48-2.53-3.35-.18-2.49-.35-5-.53-7.47a4.63,4.63,0,0,1,.42-2.7l3.86-6.55q-.44-6.59-.88-13.18l-2.63.18c-2.35.16-2.53-2.48-2.6-3.35l-.54-7.59a4.6,4.6,0,0,1,.44-2.7c1.44-2.4,2.9-4.79,4.36-7.19a2.06,2.06,0,0,1,1.69-.95q8-.53,16-.94c2.39-.12,2.52,2.53,2.56,3.4.13,2.53.25,5.07.38,7.6a4.68,4.68,0,0,1-.5,2.69q-2,3.18-4,6.36.34,6.66.71,13.32l2.54-.13c2.32-.12,2.45,2.53,2.49,3.4.12,2.49.25,5,.37,7.47a4.79,4.79,0,0,1-.47,2.69q-2.17,3.51-4.32,7A1.91,1.91,0,0,1,136.15,257Zm-13.75-17.1-3,5.14a3.62,3.62,0,0,0-.26,2c.17,2.49.35,5,.52,7.47.16,2.26.83,2.21,1.18,2.19q7.63-.52,15.27-.95a.64.64,0,0,0,.55-.34l0-.05q1.86-3,3.74-6.09c-5.12.27-10.24.56-15.36.9-1.93.13-2.08-2-2.12-2.76q-.25-3.74-.5-7.47Zm1.85-1.72c-.24,0-.67,0-.57,1.68.17,2.49.33,5,.5,7.47.1,1.63.54,1.61.77,1.59q7.68-.5,15.37-.89c.24,0,.67,0,.59-1.68q-.19-3.74-.38-7.47c-.09-1.64-.52-1.62-.76-1.61l-4.17.23-1.23-22.36,4.25-.22c.24,0,.69,0,.6-1.67-.12-2.54-.25-5.07-.38-7.61-.08-1.63-.53-1.61-.78-1.6q-8,.42-16,.93c-.24,0-.69.05-.59,1.68.17,2.53.34,5.07.5,7.6.11,1.63.56,1.61.79,1.59l4.33-.27,1.38,22.34Zm-4.07-31.5q-1.58,2.58-3.13,5.16a3.56,3.56,0,0,0-.27,2c.18,2.53.35,5.06.53,7.59.16,2.26.84,2.21,1.21,2.19l3.93-.27q.47,6.9.91,13.79a1.89,1.89,0,0,1,.81-.22l3-.19q-.63-9.91-1.24-19.85l-3,.2c-2,.13-2.14-2-2.18-2.76l-.51-7.59Zm15.56,9.64.23,4.2q1.35-2.17,2.72-4.35h0Zm3,27.37q-6.41.33-12.8.74l-.12-1.87,5.63-.35q-.93-15.71-1.85-31.4l-5.79.35-.12-1.87q6.6-.42,13.2-.77c0,.62.07,1.25.1,1.87l-5.71.32,1.8,31.41,5.56-.31C138.71,242.39,138.74,243,138.78,243.64Z"/><path class="cls-19" d="M149.38,255.66c-1.15.05-1.69-.8-1.78-2.81q-.91-20.37-1.84-40.72a4.07,4.07,0,0,1,.42-2.35c1.5-2.36,3-4.71,4.54-7.06a1.37,1.37,0,0,1,1.18-.61l5.82-.22c1.21,0,1.76.82,1.83,2.84l.84,25.58.07-.12q2.25-3.51,4.53-7a1.33,1.33,0,0,1,1.17-.6l5.35-.14c1.18,0,1.72.84,1.76,2.86q.21,9.9.43,19.81a4.19,4.19,0,0,1-.45,2.33c-1.52,2.3-3,4.6-4.52,6.91a1.25,1.25,0,0,1-1.1.66Q158.51,255.26,149.38,255.66Zm24-10.54q-.22-9.9-.44-19.81c0-1.57-.45-2.25-1.37-2.23l-5.35.14c-.93,0-1.31.73-1.27,2.3l.3,10.18-5,.16-1-31.12c0-1.57-.49-2.25-1.43-2.22l-5.82.22c-.94,0-1.32.74-1.26,2.31q.83,20.37,1.66,40.73c.06,1.57.49,2.25,1.39,2.21q9.18-.36,18.38-.57C173,247.39,173.37,246.7,173.34,245.12Zm-18.47-36.83h.38q.62,16.65,1.22,33.31,6.33-.22,12.64-.39-.17-6.19-.32-12.39h.37l.33,13q-6.68.17-13.35.41Q155.5,225.27,154.87,208.29Z"/><path class="cls-19" d="M167.65,255.64q-9.12.26-18.24.65c-2.28.1-2.4-2.55-2.44-3.41l-1.86-40.72a4.57,4.57,0,0,1,.5-2.69c1.51-2.36,3-4.72,4.55-7.07a2,2,0,0,1,1.71-.92l5.83-.21c2.39-.08,2.48,2.57,2.51,3.43q.38,11.76.76,23.52,1.72-2.68,3.48-5.37a2,2,0,0,1,1.69-.89l5.36-.13c2.35-.06,2.4,2.59,2.42,3.46l.42,19.81a4.83,4.83,0,0,1-.55,2.68c-1.52,2.29-3,4.59-4.52,6.9A1.89,1.89,0,0,1,167.65,255.64ZM150,205l-3.26,5.08a3.62,3.62,0,0,0-.32,2q.9,20.35,1.81,40.72c.1,2.26.77,2.24,1.12,2.22q9.14-.4,18.27-.65a.6.6,0,0,0,.55-.32l0,0c1.29-2,2.59-4,3.9-6q-9.18.21-18.37.58c-1.93.07-2-2.1-2-2.81L150,205.08Zm1.95-1.66c-.24,0-.69,0-.63,1.67q.83,20.35,1.63,40.73c.07,1.64.5,1.62.74,1.61q9.18-.36,18.38-.58c.24,0,.67,0,.63-1.65q-.22-9.91-.44-19.81c0-1.64-.48-1.63-.72-1.63l-5.35.14c-.23,0-.68,0-.63,1.66l.31,10.81-6.28.19-1.08-31.74c0-1.64-.5-1.62-.74-1.61Q154.86,203.24,152,203.36Zm8.88,31.85,3.72-.11q-.15-4.78-.28-9.56v-.06L161,230.6c-.09.17-.18.33-.26.5C160.74,232.47,160.79,233.84,160.83,235.21Zm9.31,7.22q-7.3.18-14.62.45-.66-17.59-1.33-35.19l1.69-.06q.62,16.65,1.21,33.31,5.68-.19,11.37-.35l-.33-12.39,1.66,0Q170,235.29,170.14,242.43Z"/><path class="cls-19" d="M184.78,254.68c-1.18,0-1.66-.86-1.69-2.87,0-2.62-.07-5.24-.1-7.86q-2.82-6.31-5.7-12.62c-1.23-2.68-1.55-4-1.63-8.09s-.15-8.05-.23-12.07a4.06,4.06,0,0,1,.47-2.34q2.35-3.48,4.72-6.94a1.4,1.4,0,0,1,1.2-.58l5.78-.07c1.21,0,1.74.87,1.76,2.88,0,3.44,0,6.88.07,10.32a7.29,7.29,0,0,0,.28,2.32l.45,1.07,0-6.86a4.07,4.07,0,0,1,.5-2.33c1.59-2.29,3.19-4.59,4.81-6.87a1.37,1.37,0,0,1,1.2-.57h5.6c1.2,0,1.72.89,1.71,2.9l-.06,12.08c0,4.09-.32,5.41-1.51,8.11q-2.79,6.38-5.52,12.76,0,3.9,0,7.8a4.19,4.19,0,0,1-.5,2.33L191.7,254a1.25,1.25,0,0,1-1.11.64Zm11.72-9.83v-8q2.76-6.48,5.58-13c1.12-2.57,1.42-3.83,1.44-7.73l.06-12.08c0-1.57-.4-2.26-1.34-2.27-1.87,0-3.74,0-5.6,0-.94,0-1.35.69-1.35,2.26l0,10.32a7.27,7.27,0,0,1-.33,2.64c-.57,1.51-1.13,3-1.69,4.54-.25.75-.47,1.07-.88,1.07H192c-.41,0-.63-.31-.89-1.06l-1.73-4.52a7.09,7.09,0,0,1-.36-2.64L189,204.13c0-1.58-.43-2.27-1.37-2.26l-5.79.07c-.94,0-1.34.71-1.31,2.28l.18,12.08c.06,3.9.34,5.15,1.51,7.72q2.91,6.4,5.76,12.83c0,2.68,0,5.36.07,8.05,0,1.57.38,2.26,1.32,2.25l5.85,0C196.11,247.12,196.5,246.43,196.5,244.85Zm-4.12-14.14c0,3.59,0,7.17.05,10.76h-.36L192,230.72h-.37c-1.06,0-1.87-.74-2.69-2.63q-1.81-4.23-3.66-8.45a12.93,12.93,0,0,1-.61-4.84l-.09-7.23H185c0,2.41.05,4.82.08,7.23a13.47,13.47,0,0,0,.57,4.59q1.84,4.23,3.66,8.46c.67,1.69,1.52,2.25,2.36,2.25h1c.92,0,1.65-.63,2.38-2.27q1.81-4.25,3.68-8.5a12.32,12.32,0,0,0,.52-4.59v-7.23h.37v7.23a12.32,12.32,0,0,1-.56,4.84q-1.86,4.24-3.68,8.5c-.81,1.83-1.57,2.65-2.71,2.65Z"/><path class="cls-19" d="M190.6,255.25l-5.81.06c-2.28,0-2.32-2.53-2.33-3.49,0-2.58-.07-5.16-.11-7.74q-2.79-6.26-5.65-12.5c-1.25-2.73-1.6-4.07-1.69-8.32l-.24-12.08a4.61,4.61,0,0,1,.57-2.67c1.57-2.32,3.14-4.64,4.73-7a2.1,2.1,0,0,1,1.74-.87l5.79-.06c2.39,0,2.41,2.63,2.41,3.5l0,4.23,0,0q2.38-3.45,4.81-6.89a2,2,0,0,1,1.75-.85h5.6c2.39,0,2.38,2.66,2.37,3.53l-.06,12.08c0,4.25-.36,5.6-1.58,8.34q-2.76,6.32-5.47,12.65c0,2.56,0,5.11,0,7.67a4.82,4.82,0,0,1-.6,2.67q-2.35,3.39-4.66,6.8A1.88,1.88,0,0,1,190.6,255.25Zm-10.75-51.07q-1.71,2.49-3.39,5a3.55,3.55,0,0,0-.38,2q.12,6,.23,12.07c.08,4.07.39,5.26,1.57,7.85q2.9,6.36,5.74,12.73.06,4,.1,8c0,2.27.65,2.26,1.05,2.26l5.82-.06a.61.61,0,0,0,.56-.31l0-.05c1.33-2,2.68-3.93,4-5.89l-5.84,0c-1.94,0-2-2.09-2-2.88,0-2.64-.05-5.28-.08-7.92q-2.82-6.36-5.71-12.71c-1.25-2.71-1.51-4.05-1.57-8s-.13-8.05-.19-12.08Zm2-1.62c-.24,0-.69,0-.67,1.65l.18,12.08c.06,3.92.35,5.05,1.46,7.47q2.92,6.47,5.8,13,0,4.09.07,8.18c0,1.64.4,1.64.68,1.64q2.93,0,5.85,0c.23,0,.67,0,.66-1.65,0-2.7,0-5.41,0-8.11q2.78-6.54,5.63-13.07c1.09-2.51,1.36-3.66,1.38-7.49q0-6,0-12.08c0-1.64-.44-1.64-.69-1.64h-5.59c-.24,0-.69,0-.69,1.64,0,3.44,0,6.88,0,10.32a7.73,7.73,0,0,1-.37,2.85c-.56,1.52-1.13,3-1.69,4.54-.17.51-.5,1.48-1.49,1.49H192c-1,0-1.32-1-1.51-1.49q-.85-2.25-1.73-4.5a7.76,7.76,0,0,1-.39-2.85l-.09-10.32c0-1.64-.46-1.63-.7-1.63C185.69,202.51,183.76,202.54,181.83,202.56ZM192.06,222h.33a2.38,2.38,0,0,0,.28-.65q.86-2.26,1.69-4.55a6.58,6.58,0,0,0,.29-2.43l0-10.32V204l-3.45,5a3.51,3.51,0,0,0-.4,2c0,2.65,0,5.31,0,8,.31.82.63,1.64.94,2.45A2.36,2.36,0,0,0,192.06,222Zm1,20.05h-1.64l-.06-10.77c-1.57-.15-2.43-1.66-3-3q-1.82-4.23-3.66-8.46a13.15,13.15,0,0,1-.66-5.07q-.06-3.93-.1-7.86l1.69,0q0,3.93.08,7.86a12.81,12.81,0,0,0,.53,4.37q1.83,4.22,3.64,8.44c.5,1.24,1.09,1.87,1.77,1.86h1c.44,0,1-.22,1.78-1.9q1.83-4.25,3.68-8.49a12.19,12.19,0,0,0,.47-4.35v-7.86h1.69c0,2.72,0,5.45,0,8.17a11.9,11.9,0,0,1-.61,4.78q-1.86,4.24-3.69,8.49c-.64,1.45-1.43,2.8-2.91,3C193,234.9,193.05,238.5,193.07,242.09Z"/><path class="cls-19" d="M230.86,260.75c-1.14,0-1.62-.93-1.56-2.94,0-1,0-1.93.08-2.9-5.54-1.78-6.88-8.47-6.75-15l.42-19c.08-3.9.71-7.22,2.44-9.57s3.35-4.45,5-6.66c1.83-2.47,4.84-3.83,9.88-3.65,9.87.37,11.78,6.09,11.41,14q-.48,10.44-1,20.87c-.18,3.89-.88,7.13-2.61,9.45s-3.31,4.39-5,6.59a3.53,3.53,0,0,1-.41.49,2.78,2.78,0,0,1-.49,1.3q-2.46,3.3-4.91,6.61a1.21,1.21,0,0,1-1.12.59Zm11.77-9.35.14-3.46c5.72-1.15,7.42-5.72,7.72-12.07l1-20.86c.36-7.66-1.65-13-11.06-13.36s-11.83,4.86-12,12.52l-.54,20.88c-.17,6.35,1.24,11,6.79,12.6,0,1.15-.08,2.3-.11,3.45-.06,1.58.32,2.28,1.22,2.31l5.53.2C242.14,253.65,242.57,253,242.63,251.4Zm-4-8.4c-5.54-.26-7-3.69-6.85-8.72q.27-9.27.55-18.55c.14-5.09,1.89-8.45,7.76-8.24s7.45,3.69,7.23,8.78l-.78,18.54c-.22,5-2,8.34-7.54,8.2l-.18,4.84h-.36Zm.21-.62c5.4.2,7.13-2.87,7.33-7.58l.78-18.54c.21-4.71-1.3-7.94-6.88-8.14s-7.23,2.91-7.37,7.62q-.28,9.27-.56,18.55C232,239,233.45,242.19,238.85,242.38Zm-2.12-25.63c.05-1.63.54-2.88,3.22-2.78s3.07,1.37,3,3q-.33,8.58-.67,17.16c-.06,1.69-.52,2.93-3.18,2.84s-3-1.37-3-3.07Q236.44,225.33,236.73,216.75Zm.42,19.09.42-12.2a2,2,0,0,0-.64-1.85q-.21,6.08-.41,12.14A2.19,2.19,0,0,0,237.15,235.84Z"/><path class="cls-19" d="M236.33,261.55l-5.49-.18c-2.26-.06-2.19-2.71-2.17-3.58l.07-2.44c-4.58-1.75-6.92-7.07-6.74-15.47q.19-9.49.4-19c.09-4.52.9-7.67,2.56-9.92s3.34-4.45,5-6.67c2.07-2.8,5.5-4.09,10.45-3.91,11.2.43,12.36,7.69,12,14.66s-.65,13.91-1,20.87c-.21,4.47-1.09,7.58-2.74,9.79s-3.32,4.41-5,6.61l-.11.15-.2.25a3.17,3.17,0,0,1-.57,1.37q-2.46,3.28-4.9,6.59A1.88,1.88,0,0,1,236.33,261.55Zm-7.88-53.07L226,211.7c-1.49,2-2.23,5-2.32,9.22q-.21,9.5-.43,19c-.17,8.17,1.95,13,6.31,14.41l.44.15-.09,3.36c-.07,2.26.59,2.28.95,2.29l5.5.18A.65.65,0,0,0,237,260l0-.05q2.11-2.86,4.24-5.72c-1.84-.08-3.68-.14-5.53-.2s-1.85-2.24-1.83-3c0-1,.07-2,.1-3-6.23-2.09-6.91-8-6.78-13.07q.25-10.44.53-20.87A23.75,23.75,0,0,1,228.45,208.48Zm11.92-6.21c-7.84-.28-11.13,3.21-11.35,11.92q-.28,10.44-.56,20.88c-.19,7.05,1.71,10.63,6.33,12l.47.14c0,1.31-.09,2.62-.13,3.94-.06,1.64.37,1.65.61,1.66,1.84.06,3.69.12,5.53.2.23,0,.66,0,.73-1.62l.15-3.94.49-.1c4.72-1,6.88-4.38,7.2-11.49s.64-13.91.95-20.86C251.2,206.28,248.18,202.56,240.37,202.27Zm3,46.18c0,.81-.06,1.62-.1,2.44.83-1.12,1.66-2.23,2.5-3.34A10.2,10.2,0,0,1,243.38,248.45Zm-3.94.05-1.63-.06c.06-1.62.12-3.24.17-4.86-6.33-.59-6.94-5.56-6.84-9.32l.54-18.55c.23-8.17,4.93-9,8.45-8.85,7.4.28,8,5.54,7.86,9.44q-.41,9.27-.8,18.54c-.17,3.76-1.15,8.67-7.57,8.8Zm.62-39.76c-4.6-.16-6.55,1.88-6.7,7l-.57,18.55c-.15,5.14,1.61,7.28,6.08,7.44s6.45-1.91,6.67-7q.39-9.27.77-18.54C246.53,211.16,244.66,208.91,240.06,208.74Zm-1,28.86a3.66,3.66,0,0,1-3-1.18,3.8,3.8,0,0,1-.61-2.53q.28-8.58.56-17.16c.06-1.64.55-3.51,3.9-3.39s3.7,2,3.64,3.66q-.35,8.58-.68,17.16C242.86,235.93,242.35,237.72,239.09,237.6Zm-1.31-1.48a3.93,3.93,0,0,0,1.36.23c2.07.08,2.45-.63,2.51-2.24l.66-17.16c.07-1.94-.68-2.3-2.39-2.36a2.67,2.67,0,0,0-2.08.53,2.48,2.48,0,0,0-.46,1.65l-.15,4.46.09.07a2.59,2.59,0,0,1,.89,2.36Z"/><path class="cls-19" d="M256,241.68q.75-14.61,1.49-29.21a4,4,0,0,1,.64-2.3q2.59-3.3,5.2-6.59a1.38,1.38,0,0,1,1.23-.5l5.9.35c1.2.07,1.67,1,1.54,3q-.9,14.31-1.81,28.63a2.1,2.1,0,0,0,.47,1.79l1.5-23.54a4.1,4.1,0,0,1,.59-2.23l0-.06q2.64-3.27,5.31-6.52a1.34,1.34,0,0,1,1.24-.48l5.71.41c1.2.09,1.65,1,1.5,3q-1.17,15.52-2.36,31.05c-.29,3.89-1.08,7.11-2.89,9.37l-5.17,6.44c-1.86,2.39-4.78,3.64-9.51,3.35C257.31,257.09,255.57,249.6,256,241.68Zm30.19-34.27c.12-1.56-.24-2.29-1.18-2.36l-5.7-.41c-1-.06-1.4.6-1.51,2.17l-1.95,28.62c-.12,1.69-.64,2.92-3.23,2.75s-2.9-1.45-2.8-3.15q.9-14.31,1.81-28.63c.1-1.57-.27-2.28-1.21-2.34l-5.89-.35c-.94-.05-1.39.62-1.48,2.19L261.29,237c-.42,7.67,1.5,12.91,10.42,13.48s11.52-4.35,12.1-12Q285,222.94,286.16,207.41Zm-18.85,2.14-1.56,26.18c-.27,4.71,1,7.93,6.42,8.28s7.15-2.66,7.49-7.37q.93-13.08,1.88-26.16l.37,0L280,236.67c-.37,5.09-2.21,8.35-7.89,8s-7-3.84-6.74-8.93q.78-13.1,1.55-26.19Z"/><path class="cls-19" d="M266.57,258.27c-4.49-.27-7.67-2.13-9.48-5.55-1.42-2.7-2-6.31-1.76-11.07q.73-14.61,1.48-29.22a4.59,4.59,0,0,1,.76-2.63c1.72-2.2,3.46-4.4,5.2-6.6a2.07,2.07,0,0,1,1.8-.74l5.9.35c2.38.15,2.21,2.79,2.16,3.66-.09,1.33-.17,2.67-.26,4q2.58-3.19,5.19-6.37a2,2,0,0,1,1.81-.72l5.7.41c2.39.18,2.19,2.82,2.12,3.69q-1.19,15.52-2.38,31c-.34,4.46-1.3,7.55-3,9.71s-3.46,4.29-5.18,6.44C274.5,257.4,271.22,258.56,266.57,258.27Zm-4.21-52.47-3.73,4.74a3.53,3.53,0,0,0-.51,2l-1.52,29.21c-.5,10,2.69,14.87,10,15.32,4.27.26,7.11-.72,9-3.11,1-1.31,2.09-2.61,3.13-3.91a13.73,13.73,0,0,1-7.07,1.09c-4.45-.29-7.45-1.71-9.21-4.37-1.47-2.24-2.06-5.35-1.81-9.78l1.71-31.09Zm2.1-1.47c-.24,0-.69,0-.78,1.6q-.87,15.54-1.75,31.09c-.48,8.66,2.37,12.35,9.82,12.83s10.76-2.78,11.42-11.44q1.17-15.53,2.33-31c.12-1.63-.33-1.67-.57-1.68l-5.69-.41c-.3,0-.7-.05-.81,1.59q-1,14.29-2,28.61c-.12,1.67-.66,3.54-3.91,3.33s-3.5-2.14-3.4-3.81l1.79-28.63c.1-1.63-.35-1.66-.59-1.68Zm6.79,32.92a3.78,3.78,0,0,0,1.38.3c2,.13,2.44-.59,2.55-2.17q1-14.31,1.94-28.61v-.08l-3.87,4.76a3.75,3.75,0,0,0-.46,1.9Q272,225.31,271.25,237.25Zm.84,8c-7-.45-7.57-5.68-7.34-9.59q.78-13.41,1.57-26.81l1.69.1q-.81,13.41-1.61,26.81c-.31,5.13,1.38,7.33,5.81,7.62s6.44-1.66,6.81-6.79q.94-13.4,1.9-26.79l1.69.12-1.95,26.79C280.06,244.87,275.49,245.48,272.09,245.26Z"/><path class="cls-19" d="M290.05,258.39c-1.15-.09-1.58-1-1.42-3l3.3-40.63a4,4,0,0,1,.71-2.27c1.78-2.15,3.58-4.3,5.39-6.43a1.38,1.38,0,0,1,1.25-.47q8.69.77,17.38,1.64c1.2.13,1.63,1,1.43,3.06l-.76,7.32a4.07,4.07,0,0,1-.76,2.26L312.94,224a3.41,3.41,0,0,1,.45,2.64c-.23,2.23-.45,4.46-.68,6.7a4.08,4.08,0,0,1-.74,2.26c-1.24,1.46-2.48,2.91-3.71,4.37l5,.5c1.16.12,1.58,1.05,1.38,3.05-.26,2.44-.51,4.89-.76,7.33a4.25,4.25,0,0,1-.74,2.26q-2.69,3.13-5.35,6.29a1.28,1.28,0,0,1-1.17.52Q298.35,259.08,290.05,258.39Zm23.49-7.61.75-7.32c.16-1.57-.16-2.3-1.07-2.39-3.35-.34-6.69-.67-10-1,.16-1.79.33-3.59.5-5.38l7.12.68c.92.09,1.39-.56,1.55-2.12.22-2.23.44-4.47.67-6.7.15-1.56-.18-2.29-1.1-2.38q-3.6-.36-7.2-.69l.45-4.83q5.11.48,10.22,1c.93.09,1.41-.56,1.57-2.12l.75-7.32c.17-1.56-.18-2.29-1.11-2.39q-8.69-.89-17.38-1.64c-.94-.08-1.41.57-1.54,2.14q-1.74,20.31-3.47,40.62c-.14,1.56.2,2.29,1.1,2.36q8.35.74,16.7,1.58C312.91,253,313.38,252.34,313.54,250.78Zm-2.91-3.71q-6.09-.62-12.19-1.15,1.5-16.92,3-33.84,6.29.57,12.56,1.19l-.06.62q-6.09-.6-12.18-1.15l-1.4,15.73,9,.84-.06.63c-3-.29-6-.58-9-.85q-.72,8.11-1.45,16.23,5.92.52,11.84,1.12Z"/><path class="cls-19" d="M306.58,260.51Q298.3,259.7,290,259c-2.27-.18-2.06-2.82-2-3.69l3.27-40.63a4.65,4.65,0,0,1,.84-2.6c1.79-2.16,3.59-4.3,5.4-6.45a2.06,2.06,0,0,1,1.82-.69q8.7.77,17.39,1.64c2.39.24,2.11,2.88,2,3.75q-.37,3.66-.76,7.32a4.62,4.62,0,0,1-.89,2.58q-1.68,1.89-3.34,3.79a4.72,4.72,0,0,1,.28,2.64c-.22,2.24-.45,4.47-.67,6.7a4.73,4.73,0,0,1-.88,2.59l-3,3.48,3.82.38c2.32.24,2,2.88,2,3.74q-.37,3.66-.76,7.32a4.73,4.73,0,0,1-.87,2.59q-2.69,3.14-5.35,6.28A1.9,1.9,0,0,1,306.58,260.51ZM297,208.23q-1.95,2.31-3.88,4.63a3.63,3.63,0,0,0-.57,1.94q-1.66,20.31-3.32,40.62c-.18,2.26.48,2.32.84,2.35q8.31.69,16.6,1.49a.62.62,0,0,0,.6-.25l0,0q2.3-2.73,4.62-5.45-8.34-.86-16.7-1.57c-1.92-.17-1.74-2.34-1.68-3L297,208.29Zm2.14-1.41c-.24,0-.69,0-.83,1.58q-1.75,20.31-3.5,40.61c-.14,1.64.29,1.67.52,1.69q8.37.74,16.72,1.58c.23,0,.66.06.83-1.57l.75-7.32c.16-1.63-.27-1.67-.51-1.7-3.55-.36-7.11-.71-10.67-1q.31-3.32.61-6.64c2.59.24,5.19.49,7.78.75.23,0,.67.07.83-1.57q.35-3.34.67-6.69c.16-1.64-.28-1.68-.52-1.7q-3.92-.39-7.84-.75.28-3,.56-6.07c3.63.33,7.26.69,10.89,1.06.24,0,.68.07.85-1.57l.75-7.32c.16-1.63-.28-1.67-.53-1.7Q307.86,207.58,299.17,206.82Zm4.71,32.71,3.61.34,3.26-3.86h0l-6.48-.62C304.13,236.77,304,238.15,303.88,239.53Zm1.55-16.6,6.55.63.4.08q1.47-1.68,2.95-3.35-4.79-.49-9.57-.94Zm5.78,24.82q-6.73-.67-13.46-1.27,1.54-17.53,3.1-35.08,6.94.61,13.88,1.31c-.06.63-.12,1.25-.19,1.87q-6.07-.62-12.17-1.16-.64,7.25-1.3,14.48l9,.85-.18,1.87-9-.85-1.35,15q5.93.53,11.84,1.12Z"/><path class="cls-19" d="M317.71,258.11q.39-3.66.79-7.32a4.16,4.16,0,0,1,.75-2.26q2.08-2.43,4.2-4.85c-2.43-1.66-3.68-4.71-3-10.77.23-2.19.47-4.38.7-6.57.4-3.75,1.46-6.62,3.09-8.46,1.85-2.1,3.72-4.19,5.59-6.28a7,7,0,0,1,6.25-2.25q5.24.61,10.46,1.29c1.2.15,1.61,1.09,1.35,3.09l-1,7.42a4,4,0,0,1-.81,2.24l-3.92,4.26c3,1.58,4.64,4.66,3.75,11.39q-.42,3.28-.85,6.55c-.49,3.74-1.59,6.58-3.25,8.4-1.84,2-3.66,4.1-5.48,6.15a6.65,6.65,0,0,1-6,2.31q-5.64-.68-11.29-1.28C317.9,261,317.5,260.11,317.71,258.11Zm27-12.57c.28-2.18.57-4.36.85-6.55.91-7-1-9.78-4.39-11.08q-2.67-1-5.34-1.92c-.61-.2-.89-1-.76-2.12s.6-1.83,1.23-1.76c2.87.35,5.74.7,8.61,1.07.93.12,1.42-.51,1.62-2.07l1-7.43c.2-1.56-.12-2.3-1.06-2.42Q341.21,210.6,336,210c-4.86-.57-8.18,3-9,10.11-.24,2.19-.49,4.38-.73,6.57-.78,7,1.17,9.75,4.49,11l5.32,2c.6.2.86.8.68,2.24-.12,1-.55,1.77-1.16,1.69-3.26-.39-6.51-.78-9.77-1.15-.91-.1-1.39.54-1.56,2.11-.27,2.44-.55,4.87-.82,7.31-.17,1.57.14,2.3,1,2.4q5.68.64,11.36,1.34C340.47,256.15,343.78,252.66,344.71,245.54Zm-1.08-28.29c-2.75-.35-5.5-.68-8.25-1-2.08-.25-3.67,1.72-4,4.66-.19,1.71-.39,3.42-.59,5.12-.34,2.94.3,3.9,1.39,4.41,2.48,1.2,4.95,2.4,7.41,3.62,1.4.68,2.31,2.07,1.75,6.43-.15,1.21-.3,2.41-.46,3.62-.46,3.68-2.35,6.11-4.8,5.8-3-.36-6-.72-9-1.06l.07-.63c3,.35,6,.7,9,1.07,2.24.28,3.94-1.92,4.36-5.23.15-1.2.31-2.41.46-3.61.5-3.94-.25-5.11-1.54-5.78q-3.69-1.82-7.41-3.62c-1.23-.59-2-1.62-1.61-5.06.2-1.71.4-3.42.59-5.12.38-3.32,2.15-5.52,4.45-5.25l8.26,1Z"/><path class="cls-19" d="M330.25,263.07q-5.62-.68-11.27-1.28c-2.27-.25-2-2.88-1.9-3.75l.78-7.31a4.73,4.73,0,0,1,.89-2.59q1.88-2.19,3.77-4.37c-2.44-2-3.32-5.54-2.75-10.93q.36-3.28.7-6.57c.42-3.87,1.5-6.83,3.23-8.8s3.72-4.19,5.6-6.28a7.62,7.62,0,0,1,6.82-2.46q5.24.61,10.47,1.29c2.38.3,2,2.93,1.93,3.79-.32,2.48-.65,4.95-1,7.43a4.62,4.62,0,0,1-1,2.56l-3.42,3.71c3.14,2,4.18,5.67,3.4,11.62q-.44,3.27-.86,6.54c-.51,3.88-1.66,6.82-3.42,8.74s-3.66,4.09-5.47,6.14A7.27,7.27,0,0,1,330.25,263.07Zm-6.62-18.64q-2,2.25-3.89,4.51a3.69,3.69,0,0,0-.61,1.92c-.26,2.44-.53,4.88-.79,7.32-.24,2.25.42,2.32.77,2.36q5.65.61,11.29,1.29a6,6,0,0,0,5.46-2.1l3.48-3.93a7.55,7.55,0,0,1-3.57.4q-5.67-.69-11.35-1.34c-1.92-.22-1.68-2.38-1.6-3.09l.81-7.31Zm2.13-1.38c-.24,0-.67-.08-.85,1.55-.28,2.44-.55,4.88-.83,7.31-.18,1.63.25,1.68.48,1.71q5.69.65,11.36,1.34c4.32.53,7.29-2.92,8.15-9.5.28-2.18.57-4.37.85-6.55,1-7.43-1.47-9.44-4-10.42-1.77-.65-3.55-1.28-5.32-1.92-.91-.3-1.36-1.34-1.18-2.78.21-1.84,1.14-2.39,1.94-2.3,2.88.35,5.75.7,8.62,1.07.24,0,.68.09.89-1.54.32-2.47.64-5,.95-7.42.21-1.63-.23-1.69-.47-1.72-3.49-.44-7-.87-10.46-1.29-4.57-.54-7.5,2.87-8.25,9.57-.24,2.19-.49,4.37-.73,6.56-.84,7.45,1.59,9.42,4.08,10.37l5.3,2c1.4.47,1.18,2.24,1.1,2.91-.18,1.47-.92,2.35-1.88,2.23C332.27,243.8,329,243.41,325.76,243.05Zm1.67-27.82c-.91,1-1.82,2-2.72,3.05-1.57,1.77-2.55,4.51-2.94,8.13-.24,2.19-.47,4.38-.71,6.56-.58,5.36.28,8.5,2.75,10.2l.07,0a1.82,1.82,0,0,1,2-1.41q4.89.55,9.77,1.15c.08,0,.36-.36.45-1.15.12-1,0-1.48-.25-1.57l-5.33-2c-4.12-1.58-5.64-5.17-4.92-11.68.24-2.19.49-4.38.73-6.57A20.06,20.06,0,0,1,327.43,215.23Zm8.79,7.5c-.07,0-.39.29-.5,1.21s.08,1.38.32,1.45l5.35,1.93.16.06c1.09-1.19,2.18-2.39,3.28-3.58h0C342,223.43,339.09,223.08,336.22,222.73ZM336,250.52q-4.8-.59-9.62-1.14c.07-.62.15-1.24.22-1.86q4.82.54,9.63,1.14c1.81.22,3.27-1.66,3.65-4.69.16-1.2.31-2.41.46-3.62.49-3.91-.32-4.68-1.2-5.14l-7.39-3.61c-1.79-.85-2.35-2.45-2-5.69.2-1.71.4-3.42.59-5.13.43-3.77,2.51-6.1,5.18-5.79,3,.36,5.94.72,8.91,1.1-.08.62-.16,1.24-.23,1.86-3-.37-5.94-.74-8.9-1.09-1.63-.19-3,1.5-3.28,4.11l-.6,5.13c-.34,2.88.32,3.44,1,3.76,2.48,1.21,4.95,2.41,7.42,3.63,2,1,2.62,3,2.1,7.07-.15,1.21-.3,2.42-.46,3.62C341,248.32,338.77,250.87,336,250.52Z"/><path class="cls-19" d="M353.82,265.5c-1.14-.16-1.51-1.1-1.24-3.09q2.1-15,4.18-30l-5-.69c-1.17-.16-1.57-1.1-1.31-3.09.34-2.52.67-5,1-7.55a4,4,0,0,1,.83-2.24c1.89-2.05,3.8-4.09,5.72-6.14a1.38,1.38,0,0,1,1.27-.39q9.86,1.36,19.69,2.9c1.19.19,1.58,1.14,1.26,3.13-.39,2.51-.79,5-1.18,7.52a4.1,4.1,0,0,1-.88,2.22q-2.92,3-5.82,6a1.32,1.32,0,0,1-1.23.45l-.3-.05-3.51,23.14a4.08,4.08,0,0,1-.85,2.22q-2.83,3-5.64,6a1.27,1.27,0,0,1-1.2.46Zm13.1-7.94q2.32-15.27,4.63-30.53l5.42.83c.92.14,1.43-.48,1.68-2,.39-2.51.79-5,1.18-7.52.24-1.55-.06-2.3-1-2.45q-9.82-1.53-19.68-2.9c-.93-.13-1.44.5-1.65,2.06-.35,2.51-.69,5-1,7.54-.21,1.56.1,2.3,1,2.43l5.43.76q-2.21,15.28-4.4,30.57c-.22,1.56.08,2.3,1,2.43l5.81.86C366.19,259.74,366.69,259.12,366.92,257.56Zm1-37c-2.53-.38-5.06-.74-7.6-1.1l.09-.62q7.78,1.1,15.58,2.3c0,.2-.07.41-.1.62l-7.6-1.15q-2.43,16.49-4.87,33l-.36,0Z"/><path class="cls-19" d="M359.5,267l-5.76-.83c-2.26-.31-1.9-2.94-1.78-3.8Q354,247.65,356,233l-4.38-.6c-2.33-.31-2-2.93-1.87-3.8.33-2.51.66-5,1-7.54a4.49,4.49,0,0,1,1-2.56q2.85-3.09,5.73-6.16a2.06,2.06,0,0,1,1.86-.59q9.86,1.36,19.7,2.91c2.37.37,1.95,3,1.81,3.84L379.66,226a4.53,4.53,0,0,1-1,2.53q-2.92,3-5.82,6a1.93,1.93,0,0,1-1.46.68q-1.73,11.27-3.44,22.54a4.79,4.79,0,0,1-1,2.55q-2.84,3-5.64,6A1.89,1.89,0,0,1,359.5,267Zm-2.64-52.08-4.11,4.42a3.6,3.6,0,0,0-.67,1.91c-.34,2.51-.67,5-1,7.54-.3,2.25.38,2.35.74,2.39l5.68.78q-2.14,15.3-4.28,30.59c-.31,2.24.35,2.33.7,2.39l5.77.82a.61.61,0,0,0,.61-.22l0,0q2.43-2.62,4.88-5.22l-5.8-.86c-1.92-.28-1.61-2.43-1.51-3.14l4.29-30-4.77-.68c-2-.27-1.69-2.42-1.59-3.13.35-2.52.69-5,1-7.54Zm2.22-1.29c-.24,0-.69-.1-.92,1.53q-.51,3.76-1,7.54c-.22,1.62.22,1.68.46,1.72,2,.28,4.05.56,6.08.86q-2.25,15.59-4.51,31.18c-.23,1.63.2,1.69.43,1.72l5.81.86c.23,0,.66.1.9-1.52q2.35-15.59,4.7-31.16c2,.3,4.05.62,6.07.93.24,0,.68.11.94-1.51.39-2.51.78-5,1.18-7.52.25-1.62-.2-1.69-.43-1.73Q368.92,215,359.08,213.58Zm12.09,20.33h0a.63.63,0,0,0,.62-.22l0,0q2.51-2.6,5-5.17l-4.77-.74Zm-7.23,20.4-1.62-.24q2.42-16.48,4.84-33c-2.53-.37-5.06-.74-7.6-1.09.09-.62.18-1.24.26-1.86q8.46,1.19,16.89,2.49c-.09.62-.19,1.24-.28,1.86-2.53-.39-5.06-.78-7.6-1.15Z"/><path class="cls-20" d="M28.93,259.91c-.89.13-1.39-.49-1.63-2.05l-6.18-40.29c-.23-1.56.07-2.31,1-2.45q8.31-1.26,16.63-2.4c.93-.13,1.44.5,1.65,2.06.34,2.47.67,4.94,1,7.42.21,1.55-.1,2.29-1,2.42-3.14.43-6.28.88-9.42,1.33.32,2.16.63,4.32,1,6.48,2.13-.31,4.25-.62,6.38-.91.92-.13,1.42.5,1.64,2,.34,2.5.69,5,1,7.48.22,1.56-.08,2.3-1,2.43-2.11.29-4.21.59-6.32.9q.9,6.13,1.79,12.27c.22,1.55-.07,2.29-1,2.43C32.63,259.35,30.78,259.62,28.93,259.91Z"/><path class="cls-20" d="M60.76,255.53l-5.28.66c-.89.12-1.38-.52-1.58-2.08q-1.07-8.24-2.12-16.47a46.83,46.83,0,0,1,.14-10.17q.7-7.29,1.44-14.57c.12-1.48.64-2.18,1.65-2.3q5-.61,10.05-1.2c1-.11,1.64.45,2.11,1.86q2.42,6.9,4.8,13.83a46.22,46.22,0,0,1,2.53,9.85q.9,8.25,1.79,16.51c.17,1.56-.15,2.29-1.05,2.39l-5.42.61c-1,.12-1.49-.52-1.67-2.08-.34-2.92-.67-5.84-1-8.75l-6.42.76c.35,2.91.71,5.83,1.06,8.74C62,254.69,61.66,255.42,60.76,255.53ZM59.7,233l5.75-.68Q64,227.64,62.61,223c-.27-.73-.53-1-.83-1l-.92.11c-.3,0-.48.38-.58,1.15C60.08,226.5,59.89,229.74,59.7,233Z"/><path class="cls-20" d="M88.79,252.44c-.9.09-1.36-.56-1.52-2.13q-2-20.28-4-40.57c-.15-1.56.19-2.29,1.13-2.38l6-.58c.78-.07,1.32.39,1.89,1.73q2.14,5,4.27,9.91c.32.73.46,1,.76,1l.33,0c.3,0,.38-.35.58-1.13q1.2-5.25,2.44-10.5c.33-1.41.78-2,1.57-2,2-.17,4-.33,6.07-.48.94-.08,1.4.58,1.52,2.15q1.55,20.33,3.08,40.65c.12,1.57-.22,2.29-1.13,2.36l-5.55.44c-.93.08-1.35-.58-1.48-2.15l-1.83-22.07q-.81,3.51-1.59,7c-.32,1.48-.82,2.09-1.77,2.17l-1.46.13c-1,.08-1.55-.43-2.11-1.84l-2.79-6.63q1,11,2,22.05c.15,1.57-.19,2.3-1.09,2.38C92.36,252.09,90.58,252.26,88.79,252.44Z"/><path class="cls-20" d="M123.52,247.32c-.16-2.49-.33-5-.49-7.47-.1-1.57.25-2.29,1.16-2.35l3.61-.22q-.64-10.56-1.31-21.1l-3.67.23c-.93.06-1.38-.6-1.49-2.17-.17-2.53-.33-5.06-.5-7.6-.11-1.57.26-2.29,1.2-2.35q8-.51,16-.93c.93-.05,1.38.63,1.46,2.2.13,2.53.26,5.07.38,7.6.08,1.57-.29,2.28-1.22,2.33l-3.6.19q.57,10.56,1.15,21.11l3.53-.19c.92,0,1.35.63,1.43,2.2.13,2.49.25,5,.38,7.47.07,1.57-.29,2.29-1.19,2.33q-7.68.39-15.37.9C124.07,249.55,123.63,248.89,123.52,247.32Z"/><path class="cls-20" d="M153.66,248c-.9,0-1.33-.64-1.39-2.22q-.84-20.35-1.66-40.73c-.06-1.57.32-2.28,1.26-2.32l5.82-.21c.94,0,1.38.64,1.43,2.22q.52,15.56,1,31.12l5-.16-.3-10.18c0-1.57.34-2.28,1.26-2.3l5.35-.14c.93,0,1.35.66,1.38,2.23q.22,9.91.44,19.82c0,1.57-.35,2.27-1.25,2.29Q162.85,247.63,153.66,248Z"/><path class="cls-20" d="M189.21,247.15c-.93,0-1.3-.68-1.32-2.25l-.07-8.05Q185,230.42,182.06,224c-1.18-2.56-1.46-3.81-1.51-7.71s-.13-8.05-.19-12.08c0-1.57.38-2.27,1.32-2.28l5.79-.07c.94,0,1.35.68,1.37,2.25l.08,10.32a7.29,7.29,0,0,0,.35,2.64L191,221.6c.26.75.48,1.06.89,1.06h.37c.4,0,.62-.32.88-1.07q.84-2.28,1.69-4.54a7,7,0,0,0,.32-2.64c0-3.44,0-6.88,0-10.32,0-1.57.4-2.27,1.34-2.27h5.6c.94,0,1.35.7,1.34,2.27q0,6,0,12.08c0,3.9-.32,5.15-1.44,7.73q-2.82,6.47-5.58,13v8c0,1.58-.39,2.27-1.29,2.27Z"/><path class="cls-20" d="M235.74,253.41c-.89,0-1.27-.73-1.22-2.3l.12-3.46c-5.55-1.63-7-6.24-6.79-12.6l.54-20.88c.2-7.66,2.62-12.86,12-12.53s11.42,5.71,11.06,13.36q-.48,10.44-1,20.87c-.29,6.35-2,10.92-7.71,12.07l-.14,3.46c-.06,1.57-.49,2.25-1.38,2.21Zm3.4-16.43c2.66.09,3.11-1.15,3.18-2.84q.33-8.58.67-17.17c.06-1.63-.3-2.9-3-3s-3.17,1.14-3.23,2.78l-.57,17.16C236.12,235.61,236.52,236.88,239.14,237Z"/><path class="cls-20" d="M271.85,250.48c-8.93-.57-10.85-5.82-10.43-13.49l1.74-31.09c.09-1.57.54-2.24,1.47-2.19l5.9.35c.93.06,1.3.78,1.2,2.35L269.93,235c-.11,1.7.25,3,2.8,3.14s3.11-1.05,3.22-2.74q1-14.31,2-28.62c.11-1.57.53-2.24,1.51-2.17l5.7.41c.93.07,1.29.79,1.18,2.36q-1.19,15.53-2.36,31.05C283.36,246.13,280.77,251.08,271.85,250.48Z"/><path class="cls-20" d="M295.31,251.32c-.91-.07-1.24-.8-1.11-2.36l3.48-40.62c.13-1.57.6-2.23,1.54-2.14q8.68.75,17.37,1.63c.94.1,1.28.83,1.12,2.39l-.75,7.33c-.16,1.56-.64,2.21-1.57,2.11l-10.23-1-.45,4.82q3.6.33,7.2.69c.92.09,1.26.82,1.1,2.39-.22,2.23-.44,4.47-.67,6.7-.15,1.56-.63,2.21-1.54,2.12-2.37-.24-4.75-.46-7.13-.68-.16,1.79-.33,3.59-.5,5.38q5,.47,10,1c.91.09,1.24.82,1.08,2.39l-.75,7.32c-.17,1.56-.63,2.21-1.53,2.12Q303.65,252,295.31,251.32Z"/><path class="cls-20" d="M324.41,254.23c-.9-.1-1.21-.83-1-2.4q.4-3.65.82-7.31c.17-1.56.65-2.21,1.56-2.11q4.88.56,9.77,1.15c.61.08,1-.69,1.16-1.69.18-1.44-.08-2-.69-2.24q-2.64-1-5.31-2c-3.32-1.27-5.27-4-4.49-11,.24-2.19.49-4.38.73-6.57.79-7.12,4.11-10.69,9-10.11q5.24.61,10.46,1.29c.94.12,1.26.86,1.06,2.42l-1,7.42c-.2,1.56-.7,2.2-1.62,2.08-2.87-.37-5.74-.72-8.62-1.07-.62-.08-1.08.63-1.22,1.75s.15,1.92.76,2.12l5.34,1.92c3.35,1.31,5.3,4.11,4.39,11.09-.28,2.19-.57,4.37-.85,6.55-.93,7.12-4.24,10.61-8.86,10Q330.09,254.87,324.41,254.23Z"/><path class="cls-20" d="M359.46,258.75c-.89-.13-1.19-.87-1-2.43q2.2-15.28,4.4-30.57l-5.43-.77c-.92-.13-1.23-.87-1-2.43.35-2.51.7-5,1-7.54.22-1.56.72-2.19,1.65-2.06q9.86,1.37,19.68,2.91c.93.14,1.24.89,1,2.44-.39,2.51-.79,5-1.18,7.52-.25,1.56-.76,2.17-1.68,2l-5.42-.83-4.62,30.54c-.24,1.56-.74,2.18-1.63,2Z"/></g></svg>