<svg xmlns="http://www.w3.org/2000/svg" viewBox="0 0 400 400"><defs><style>.cls-1{fill:#f90;}.cls-2{fill:#fc6;}.cls-3{fill:#009;}.cls-4{fill:#00c;}.cls-5{fill:#f0c98b;}.cls-6{fill:#ccc;}.cls-7{fill:#999;}.cls-8{fill:#6666e0;}.cls-9{font-size:32.18px;letter-spacing:0.19em;}.cls-12,.cls-21,.cls-9{fill:#fff;font-family:HouseSlant-Regular, House Slant;}.cls-10{letter-spacing:0.14em;}.cls-11{letter-spacing:0.2em;}.cls-12,.cls-21{font-size:41.37px;}.cls-12{letter-spacing:0.05em;}.cls-13{letter-spacing:0.08em;}.cls-14{letter-spacing:0.07em;}.cls-15,.cls-21{letter-spacing:0.07em;}.cls-16{letter-spacing:0.06em;}.cls-17{letter-spacing:0.06em;}.cls-18{letter-spacing:0.05em;}.cls-19{letter-spacing:0.08em;}.cls-20{letter-spacing:0.06em;}.cls-22{letter-spacing:0.08em;}.cls-23{letter-spacing:0.06em;}.cls-24{letter-spacing:0.06em;}.cls-25{letter-spacing:0.06em;}.cls-26{letter-spacing:0.07em;}</style></defs><title>illustration-5</title><g id="laurel"><path class="cls-1" d="M338.38,116.13C341.44,88.74,328,72.94,311.2,77.32,320.3,86.22,318.61,115.3,338.38,116.13Z"/><path class="cls-2" d="M337.46,115.06c.27,0,.46-.4.52-.86l.06-.75,0-.87c.08-1.16.11-2.33.12-3.49a57.91,57.91,0,0,0-.37-7,38.16,38.16,0,0,0-3.95-13.21,21.44,21.44,0,0,0-9.39-9.47,17.87,17.87,0,0,0-12.94-.76l.63-2.36h0A20.12,20.12,0,0,1,315.75,82a56.69,56.69,0,0,1,2.18,6c1.3,4,2.38,8.06,3.8,12a31.47,31.47,0,0,0,6,10.66,14.64,14.64,0,0,0,7.71,4.45,6.88,6.88,0,0,0,1.5.22l.38,0c.12,0,.3,0,.3-.11S337.57,115,337.46,115.06Zm1.83,2.14a6.81,6.81,0,0,1-1.68-.21,3.62,3.62,0,0,1-.49-.19,3,3,0,0,0-.39-.13c-.53-.15-1.07-.19-1.6-.32a16.34,16.34,0,0,1-3.11-1,16.59,16.59,0,0,1-5.29-3.78c-3-3.15-4.88-7.1-6.48-11s-2.82-8-4.23-11.87A54.09,54.09,0,0,0,313.6,83a15.86,15.86,0,0,0-3.38-4.71h0l-1.65-1.86,2.28-.5a23.83,23.83,0,0,1,7.44-.47,18.77,18.77,0,0,1,7.1,2.18,23.17,23.17,0,0,1,9.84,10.54A41.14,41.14,0,0,1,339.06,102a60.4,60.4,0,0,1,.34,7.12c0,1.18,0,2.37-.14,3.55l-.06.89-.1,1A14.8,14.8,0,0,0,339.29,117.2Z"/><path class="cls-1" d="M349.67,147.43c15.58-6.31,19.25-21.14,8.07-46.57-10.07,5.55-13.85,19.74-12.08,34.12"/><path class="cls-2" d="M349.47,147a23,23,0,0,0,10.25-7.9,21.62,21.62,0,0,0,3.53-12.27,45.92,45.92,0,0,0-2.06-13,93.09,93.09,0,0,0-4.74-12.4l2,.67h0a19.22,19.22,0,0,0-6.65,5.89,28.6,28.6,0,0,0-4,8.28,48.2,48.2,0,0,0-1.58,18.66l-1.06.13a49.57,49.57,0,0,1,.78-19.32,30.91,30.91,0,0,1,3.89-9.09,21.84,21.84,0,0,1,7.26-7h0l1.37-.77.6,1.44a96.38,96.38,0,0,1,4.44,12.91,48,48,0,0,1,1.7,13.62,23.28,23.28,0,0,1-4.25,13.09,24.23,24.23,0,0,1-11.06,8Z"/><path class="cls-1" d="M342.49,126.69q-15.63-17.43-30.25-5c11.42,20.36,26.65,20.89,34.09,17.24"/><path class="cls-2" d="M342,127.09a42,42,0,0,0-6.42-5.66,21.52,21.52,0,0,0-7.53-3.49,14.47,14.47,0,0,0-8,.48,21.23,21.23,0,0,0-7,4.29h0l.32-1.76a49.85,49.85,0,0,0,5.71,8.49,32.51,32.51,0,0,0,7.58,6.71,23.12,23.12,0,0,0,9.4,3.43,18.2,18.2,0,0,0,9.84-1.37l.66,1.35A19.84,19.84,0,0,1,336,141.4a25.14,25.14,0,0,1-10.32-3.4,34.76,34.76,0,0,1-8.34-6.92,53.31,53.31,0,0,1-6.3-8.75l-.58-1,.9-.76h0a23.71,23.71,0,0,1,8-4.43,16.64,16.64,0,0,1,9.2-.14,23.34,23.34,0,0,1,8,4.15,43.13,43.13,0,0,1,6.37,6.15Z"/><path class="cls-1" d="M351.11,157q-13.64-18.9-29.53-8c9.12,21.39,24.2,23.43,32,20.54"/><path class="cls-2" d="M350.62,157.33a40.68,40.68,0,0,0-5.78-6.29,20.89,20.89,0,0,0-7.14-4.22,14.36,14.36,0,0,0-8-.29,21.58,21.58,0,0,0-7.34,3.57h0l.51-1.71a48.81,48.81,0,0,0,4.75,9,32.18,32.18,0,0,0,6.82,7.43,22.93,22.93,0,0,0,9,4.33,18.16,18.16,0,0,0,9.89-.4l.52,1.41a19.9,19.9,0,0,1-10.78.79,24.92,24.92,0,0,1-9.91-4.41,34.6,34.6,0,0,1-7.56-7.72,52.66,52.66,0,0,1-5.3-9.35l-.48-1.05,1-.66h0a24.06,24.06,0,0,1,8.41-3.6,16.64,16.64,0,0,1,9.17.74,22.89,22.89,0,0,1,7.55,4.92,42.55,42.55,0,0,1,5.68,6.78Z"/><path class="cls-1" d="M355.85,184.31c16.68-2.81,23.76-16.47,18.89-43.65-11.12,3.25-18.86,16.32-20.55,30.71"/><path class="cls-2" d="M355.76,183.8a23.72,23.72,0,0,0,11.8-5.45,22,22,0,0,0,6.37-11.13A45.33,45.33,0,0,0,375,154.11a92.17,92.17,0,0,0-1.68-13.2l1.78,1.1h0a20.86,20.86,0,0,0-8,4.32,30.78,30.78,0,0,0-6.08,7.15,46.35,46.35,0,0,0-6.33,18l-1.06-.12a47.77,47.77,0,0,1,5.73-18.83,32.67,32.67,0,0,1,6.16-7.93,23.59,23.59,0,0,1,8.8-5.24h0l1.53-.46.25,1.56a94.12,94.12,0,0,1,1.27,13.64,47.37,47.37,0,0,1-1.62,13.68,23.7,23.7,0,0,1-7.25,11.73,25.07,25.07,0,0,1-12.6,5.36Z"/><path class="cls-1" d="M355,223.25c16.94.11,26.51-12.1,26.92-39.66-11.56,1.28-21.67,12.79-26.08,26.65"/><path class="cls-2" d="M355,222.73a24.22,24.22,0,0,0,12.63-3.31,22.63,22.63,0,0,0,8.39-9.81,45.75,45.75,0,0,0,3.61-12.71,89.74,89.74,0,0,0,.88-13.33L382.1,185h0a21.29,21.29,0,0,0-8.72,2.87,31.67,31.67,0,0,0-7.33,6,47.18,47.18,0,0,0-9.67,16.57l-1-.32a48.79,48.79,0,0,1,9.24-17.54,33.65,33.65,0,0,1,7.55-6.71,24,24,0,0,1,9.65-3.64h0l1.61-.19-.05,1.61A94.07,94.07,0,0,1,382,197.29a47.78,47.78,0,0,1-4.22,13.17,24.28,24.28,0,0,1-9.35,10.22A25.4,25.4,0,0,1,355,223.76Z"/><path class="cls-1" d="M354.61,221q-6.72-22-25.4-16.41c1.62,23,15.28,29.45,23.64,29"/><path class="cls-2" d="M354,221.22a39.36,39.36,0,0,0-3.45-7.75,20,20,0,0,0-5.45-6.14,14.15,14.15,0,0,0-7.49-2.58,22.72,22.72,0,0,0-8,1.22h0l1-1.44a48.29,48.29,0,0,0,1.55,10,30.76,30.76,0,0,0,4,9.1,22.06,22.06,0,0,0,7.14,6.79,18.08,18.08,0,0,0,9.47,2.52l.08,1.5A19.67,19.67,0,0,1,342.45,232a23.9,23.9,0,0,1-8-7.15,33.1,33.1,0,0,1-4.67-9.64,50.64,50.64,0,0,1-2-10.46l-.1-1.12,1.1-.33h0a25.09,25.09,0,0,1,9-.93,16.43,16.43,0,0,1,8.5,3.37,21.84,21.84,0,0,1,5.65,7,40.47,40.47,0,0,1,3.2,8.18Z"/><path class="cls-1" d="M347.91,258.64c16.51,3.61,28.64-6.34,35.33-33.16-11.58-1.14-24.07,8-31.54,20.64"/><path class="cls-2" d="M348,258.14a24.36,24.36,0,0,0,13.13-.65,23.33,23.33,0,0,0,10.38-7.83A46.74,46.74,0,0,0,378,238a91.93,91.93,0,0,0,3.92-12.87l1.23,1.74h0a21.84,21.84,0,0,0-9.21,1,32.89,32.89,0,0,0-8.52,4.32,48.73,48.73,0,0,0-13.21,14.17l-.92-.54a50.22,50.22,0,0,1,13-15.2,34.88,34.88,0,0,1,8.88-5,24.41,24.41,0,0,1,10.27-1.58h0l1.66.15-.43,1.59a95.36,95.36,0,0,1-4.46,13.1,49,49,0,0,1-7.13,12,25,25,0,0,1-11.4,8,25.65,25.65,0,0,1-13.82.26Z"/><path class="cls-1" d="M347.69,255.38q-3.09-22.71-22.45-19.92c-2.12,23,10.34,31.33,18.67,32.13"/><path class="cls-2" d="M347.09,255.46a38.82,38.82,0,0,0-2.15-8.15,19.63,19.63,0,0,0-4.41-6.88,13.94,13.94,0,0,0-7-3.62,22.68,22.68,0,0,0-8.09,0h0l1.2-1.26a48.15,48.15,0,0,0-.09,10,30.36,30.36,0,0,0,2.52,9.58,21.36,21.36,0,0,0,6,7.76,17.81,17.81,0,0,0,8.94,3.87l-.14,1.5a19.49,19.49,0,0,1-9.92-3.92,23.45,23.45,0,0,1-6.79-8.27,32.93,32.93,0,0,1-3.05-10.22,50.81,50.81,0,0,1-.24-10.6l.08-1.1,1.12-.16h0a25.24,25.24,0,0,1,9,.39A16.24,16.24,0,0,1,342,239a21.28,21.28,0,0,1,4.48,7.72,40.39,40.39,0,0,1,1.85,8.56Z"/><path class="cls-1" d="M332.75,291.48c15.2,7.11,29.41.07,42.38-24.59-11-3.62-25.37,2.57-35.67,13.23"/><path class="cls-2" d="M333,291a22.54,22.54,0,0,0,25-3.2,48.15,48.15,0,0,0,9-9.92,94.61,94.61,0,0,0,6.91-11.66l.8,2h0a21.83,21.83,0,0,0-9.29-1,33.67,33.67,0,0,0-9.34,2.37,50.43,50.43,0,0,0-16.22,10.9l-.77-.74a52,52,0,0,1,16.23-11.94,36,36,0,0,1,9.82-2.95,24.38,24.38,0,0,1,10.45.7h0l1.62.51-.82,1.48a97.16,97.16,0,0,1-7.48,11.75,50.67,50.67,0,0,1-9.75,10,25.81,25.81,0,0,1-13,5.35A25.44,25.44,0,0,1,332.53,292Z"/><path class="cls-1" d="M333.05,289.17q3.45-22.67-16-24.93c-8.54,21.6,1.09,32.82,8.89,35.72"/><path class="cls-2" d="M332.45,289.08a38.5,38.5,0,0,0,.24-8.37,19.07,19.07,0,0,0-2.29-7.77,13.4,13.4,0,0,0-5.73-5.28,22.25,22.25,0,0,0-7.77-2h0l1.47-.88a48.45,48.45,0,0,0-2.91,9.55,30.2,30.2,0,0,0-.32,9.85,20.63,20.63,0,0,0,3.53,9,17.17,17.17,0,0,0,7.54,6.05l-.52,1.41a18.77,18.77,0,0,1-8.49-6.37,22.75,22.75,0,0,1-4.19-9.79,32.57,32.57,0,0,1,0-10.61,51.25,51.25,0,0,1,2.74-10.17l.38-1,1.09.13h0a25,25,0,0,1,8.58,2.68,15.51,15.51,0,0,1,6.36,6.45,20.87,20.87,0,0,1,2.13,8.62,39.8,39.8,0,0,1-.65,8.67Z"/><path class="cls-1" d="M311.47,318.9c13.19,10.11,28.68,6.21,47-15.13-9.89-5.84-25.34-2.8-37.86,5.45"/><path class="cls-2" d="M311.78,318.49a23.74,23.74,0,0,0,12.35,4.9,24.86,24.86,0,0,0,12.9-2.86,49.91,49.91,0,0,0,11-7.79,97.47,97.47,0,0,0,9.38-9.89l.35,2.13h0a21.39,21.39,0,0,0-8.9-2.93,34.23,34.23,0,0,0-9.68.39,51.85,51.85,0,0,0-18.27,7.22l-.58-.89a53.23,53.23,0,0,1,18.47-8.23,36.74,36.74,0,0,1,10.27-.86,24.2,24.2,0,0,1,10.12,2.87h0l1.49.86-1.14,1.27a99.41,99.41,0,0,1-9.95,9.84,52.58,52.58,0,0,1-11.75,7.75A26.59,26.59,0,0,1,324,324.86a25,25,0,0,1-12.84-5.55Z"/><path class="cls-1" d="M311.9,318q8.5-21.44-10-27.61c-13.23,19.35-6.36,32.27.6,36.7"/><path class="cls-2" d="M311.34,317.77a39.21,39.21,0,0,0,2.12-8.07,19.07,19.07,0,0,0-.45-8.05,12.87,12.87,0,0,0-4.39-6.37,21.68,21.68,0,0,0-7.14-3.57h0l1.61-.54a49.66,49.66,0,0,0-5,8.65,30.6,30.6,0,0,0-2.57,9.51,20.4,20.4,0,0,0,1.36,9.6,16.72,16.72,0,0,0,6,7.52l-.8,1.26a18.24,18.24,0,0,1-6.9-8,22.35,22.35,0,0,1-1.83-10.48,33,33,0,0,1,2.42-10.31,52.68,52.68,0,0,1,4.95-9.29l.58-.88,1,.34h0a24,24,0,0,1,7.8,4.39,15.06,15.06,0,0,1,4.77,7.67A20.61,20.61,0,0,1,315,310a40,40,0,0,1-2.58,8.26Z"/><path class="cls-1" d="M282,343.59c10.66,12.52,26.66,11.8,49.32-5.39-8.37-7.69-24.15-7.81-38.21-2.24"/><path class="cls-2" d="M282.43,343.26a23,23,0,0,0,11.13,7.29,25.09,25.09,0,0,0,13.26-.3,51.69,51.69,0,0,0,12.42-5.42,100.51,100.51,0,0,0,11.27-7.75l-.1,2.15h0a21.12,21.12,0,0,0-8.12-4.66,34.57,34.57,0,0,0-9.58-1.53,52.87,52.87,0,0,0-19.37,3.41l-.39-1a54.56,54.56,0,0,1,19.77-4.36A36.81,36.81,0,0,1,323,332.3a23.47,23.47,0,0,1,9.34,4.86h0l1.29,1.15-1.39,1a103.9,103.9,0,0,1-11.81,7.57,54,54,0,0,1-13.11,5.22,26.82,26.82,0,0,1-14.14-.14,24.37,24.37,0,0,1-11.5-8Z"/><path class="cls-1" d="M286.66,338.45q8.5-21.45-10-27.62c-13.23,19.35-6.36,32.28.6,36.71"/><path class="cls-2" d="M286.1,338.23a39.13,39.13,0,0,0,2.12-8.08,18.88,18.88,0,0,0-.45-8,12.92,12.92,0,0,0-4.38-6.38,21.8,21.8,0,0,0-7.15-3.56h0l1.61-.54a49.94,49.94,0,0,0-5,8.65,30.88,30.88,0,0,0-2.57,9.51,20.41,20.41,0,0,0,1.37,9.6,16.56,16.56,0,0,0,6,7.51l-.81,1.27a18.25,18.25,0,0,1-6.89-8.06,22.33,22.33,0,0,1-1.84-10.48,32.82,32.82,0,0,1,2.43-10.31,53.57,53.57,0,0,1,4.94-9.28l.58-.89,1,.35h0a24.44,24.44,0,0,1,7.8,4.39,15.19,15.19,0,0,1,4.77,7.68,20.77,20.77,0,0,1,.09,8.84,39.82,39.82,0,0,1-2.58,8.26Z"/><path class="cls-1" d="M355.41,189.28Q344.29,169,327.12,177.91c6.33,22.28,21.05,26,29.16,24.07"/><path class="cls-2" d="M354.89,189.57a40.94,40.94,0,0,0-5-6.93,20.8,20.8,0,0,0-6.58-5,14.45,14.45,0,0,0-7.88-1.17,22.22,22.22,0,0,0-7.7,2.7h0l.7-1.63a48.73,48.73,0,0,0,3.58,9.5,31.4,31.4,0,0,0,5.84,8.17,22.57,22.57,0,0,0,8.38,5.32,18.2,18.2,0,0,0,9.83.73l.36,1.46a19.91,19.91,0,0,1-10.77-.45,24.76,24.76,0,0,1-9.29-5.5,34.19,34.19,0,0,1-6.55-8.56,52.26,52.26,0,0,1-4.08-9.9l-.34-1.1,1-.53h0a24.66,24.66,0,0,1,8.75-2.61,16.68,16.68,0,0,1,9,1.76,22.59,22.59,0,0,1,6.91,5.76,42.27,42.27,0,0,1,4.8,7.41Z"/><path class="cls-2" d="M191,384.09A179.13,179.13,0,0,1,230,361.85c13.91-5.72,28.3-9.26,41.49-15.32a94.91,94.91,0,0,0,9.57-5.07c3.06-1.85,6.08-4,9-6.12a162.91,162.91,0,0,0,16.74-14.09A151.66,151.66,0,0,0,321.53,305a147.29,147.29,0,0,0,12.08-18.27,162.52,162.52,0,0,0,16-40.78,189.25,189.25,0,0,0,5.32-43.6,215.82,215.82,0,0,0-17.41-85.86.89.89,0,1,1,1.64-.7,223.66,223.66,0,0,1,13.33,42.37,218,218,0,0,1,4.7,44.2,191.49,191.49,0,0,1-5,44.22,165.39,165.39,0,0,1-15.86,41.65,156.28,156.28,0,0,1-26.89,35.63,168.67,168.67,0,0,1-16.89,14.71c-3,2.25-6,4.43-9.21,6.46a97.78,97.78,0,0,1-9.91,5.47c-13.58,6.56-28,10.45-41.28,16.28A170.55,170.55,0,0,0,195,389.29a3.28,3.28,0,1,1-4.07-5.14Z"/><path class="cls-1" d="M61.62,115.4C58.56,88,72,72.21,88.8,76.59,79.7,85.49,81.39,114.57,61.62,115.4Z"/><path class="cls-2" d="M60.71,116.47a14.74,14.74,0,0,0,.19-2.64l-.1-1-.06-.89c-.09-1.18-.12-2.37-.14-3.55a60.4,60.4,0,0,1,.34-7.12,41.14,41.14,0,0,1,3.83-13.77,23.17,23.17,0,0,1,9.84-10.54,18.77,18.77,0,0,1,7.1-2.18,23.83,23.83,0,0,1,7.44.47l2.28.5L89.78,77.6h0a15.86,15.86,0,0,0-3.38,4.71A54,54,0,0,0,84,88c-1.42,3.91-2.65,7.94-4.24,11.87s-3.46,7.85-6.48,11A16.59,16.59,0,0,1,68,114.62a16.34,16.34,0,0,1-3.11,1c-.53.13-1.07.17-1.6.32l-.39.13a2.64,2.64,0,0,1-.49.19A6.81,6.81,0,0,1,60.71,116.47Zm1.83-2.13c-.11,0-.18,0-.12.11s.18.08.3.1a2.65,2.65,0,0,0,.38,0,6.32,6.32,0,0,0,1.5-.22,14.64,14.64,0,0,0,7.71-4.45,31.47,31.47,0,0,0,6-10.66c1.42-3.9,2.5-7.93,3.8-12a56.69,56.69,0,0,1,2.18-6,20.26,20.26,0,0,1,3.56-5.69h0L88.44,78a17.87,17.87,0,0,0-12.94.76,21.44,21.44,0,0,0-9.39,9.47,38.23,38.23,0,0,0-4,13.21,57.91,57.91,0,0,0-.37,7c0,1.16,0,2.33.12,3.49l.05.87.06.75C62.08,113.93,62.27,114.34,62.54,114.34Z"/><path class="cls-1" d="M50.33,146.7c-15.58-6.31-19.25-21.14-8.07-46.57,10.07,5.55,13.85,19.74,12.08,34.13"/><path class="cls-2" d="M50.14,147.17a24.23,24.23,0,0,1-11.06-8,23.28,23.28,0,0,1-4.25-13.09,48,48,0,0,1,1.7-13.62A96.38,96.38,0,0,1,41,99.56l.6-1.44,1.37.78h0a21.84,21.84,0,0,1,7.26,7A30.91,30.91,0,0,1,54.09,115a49.57,49.57,0,0,1,.78,19.32l-1.06-.13a48.2,48.2,0,0,0-1.58-18.66,28.6,28.6,0,0,0-4-8.28,19.22,19.22,0,0,0-6.65-5.89h0l2-.67a93.09,93.09,0,0,0-4.74,12.4,45.92,45.92,0,0,0-2.06,13,21.68,21.68,0,0,0,3.53,12.28,23,23,0,0,0,10.25,7.89Z"/><path class="cls-1" d="M57.51,126q15.63-17.43,30.25-5c-11.42,20.36-26.65,20.9-34.09,17.24"/><path class="cls-2" d="M57.06,125.56a43.13,43.13,0,0,1,6.37-6.15,23.34,23.34,0,0,1,8-4.15,16.64,16.64,0,0,1,9.2.14,23.91,23.91,0,0,1,8,4.44h0l.9.76-.58,1a52.89,52.89,0,0,1-6.3,8.75,34.76,34.76,0,0,1-8.34,6.92A25.3,25.3,0,0,1,64,140.68a19.94,19.94,0,0,1-10.69-1.85l.66-1.35a18.3,18.3,0,0,0,9.84,1.38,23.28,23.28,0,0,0,9.4-3.44,32.51,32.51,0,0,0,7.58-6.71,49.85,49.85,0,0,0,5.71-8.49l.32,1.76h0a21.4,21.4,0,0,0-6.95-4.29,14.47,14.47,0,0,0-8-.48,21.52,21.52,0,0,0-7.53,3.49A41.52,41.52,0,0,0,58,126.37Z"/><path class="cls-1" d="M48.89,156.24q13.63-18.88,29.53-8c-9.12,21.39-24.2,23.43-32,20.54"/><path class="cls-2" d="M48.4,155.89a42.55,42.55,0,0,1,5.68-6.78,23,23,0,0,1,7.55-4.92,16.64,16.64,0,0,1,9.17-.74,24.06,24.06,0,0,1,8.41,3.6h0l1,.66-.48,1a52.66,52.66,0,0,1-5.3,9.35,34.86,34.86,0,0,1-7.56,7.73,25,25,0,0,1-9.91,4.4,19.9,19.9,0,0,1-10.78-.79l.52-1.4a18.26,18.26,0,0,0,9.89.39,22.93,22.93,0,0,0,9-4.33,32.18,32.18,0,0,0,6.82-7.43,48.81,48.81,0,0,0,4.75-9l.51,1.71h0a21.76,21.76,0,0,0-7.34-3.57,14.36,14.36,0,0,0-8,.29,20.89,20.89,0,0,0-7.14,4.22,40.68,40.68,0,0,0-5.78,6.29Z"/><path class="cls-1" d="M44.15,183.58c-16.68-2.81-23.76-16.47-18.89-43.65,11.12,3.25,18.86,16.32,20.55,30.71"/><path class="cls-2" d="M44.07,184.09a25,25,0,0,1-12.6-5.36A23.7,23.7,0,0,1,24.22,167a47.37,47.37,0,0,1-1.62-13.68,93.85,93.85,0,0,1,1.27-13.63l.25-1.57,1.53.46h0a23.48,23.48,0,0,1,8.8,5.25,32.29,32.29,0,0,1,6.16,7.93,47.73,47.73,0,0,1,5.73,18.82l-1.06.13a46.34,46.34,0,0,0-6.33-18,30.78,30.78,0,0,0-6.08-7.15,20.86,20.86,0,0,0-8-4.32h0l1.78-1.1A92.17,92.17,0,0,0,25,153.38a45.3,45.3,0,0,0,1.11,13.11,22,22,0,0,0,6.37,11.13,23.72,23.72,0,0,0,11.8,5.45Z"/><path class="cls-1" d="M45,222.52c-16.94.12-26.51-12.1-26.92-39.66,11.56,1.28,21.67,12.79,26.08,26.65"/><path class="cls-2" d="M45,223A25.4,25.4,0,0,1,31.58,220a24.22,24.22,0,0,1-9.35-10.22A47.78,47.78,0,0,1,18,196.56a94.07,94.07,0,0,1-1.37-13.68l-.05-1.61,1.61.19h0a24,24,0,0,1,9.65,3.64,33.45,33.45,0,0,1,7.55,6.72,48.67,48.67,0,0,1,9.24,17.53l-1,.32A47.18,47.18,0,0,0,34,193.1a31.67,31.67,0,0,0-7.33-6,21.44,21.44,0,0,0-8.72-2.87h0l1.55-1.42a91.34,91.34,0,0,0,.89,13.34A45.78,45.78,0,0,0,24,208.88a22.63,22.63,0,0,0,8.39,9.81A24.22,24.22,0,0,0,45,222Z"/><path class="cls-1" d="M45.39,220.31q6.72-22,25.4-16.41c-1.62,23-15.28,29.45-23.64,29"/><path class="cls-2" d="M44.81,220.13A40.47,40.47,0,0,1,48,212a21.84,21.84,0,0,1,5.65-7,16.43,16.43,0,0,1,8.5-3.37,25.09,25.09,0,0,1,9,.93h0l1.1.33-.1,1.12a50.64,50.64,0,0,1-2,10.46,33.1,33.1,0,0,1-4.67,9.64,23.9,23.9,0,0,1-8,7.15,19.67,19.67,0,0,1-10.44,2.42l.08-1.5a18.08,18.08,0,0,0,9.47-2.52,22.06,22.06,0,0,0,7.14-6.79,30.76,30.76,0,0,0,4-9.1,48.29,48.29,0,0,0,1.55-10l1,1.44h0a22.49,22.49,0,0,0-8-1.21,14.06,14.06,0,0,0-7.49,2.57,20,20,0,0,0-5.45,6.14A39.36,39.36,0,0,0,46,220.49Z"/><path class="cls-1" d="M52.09,257.91c-16.51,3.61-28.64-6.34-35.33-33.16,11.58-1.13,24.07,8,31.54,20.64"/><path class="cls-2" d="M52.2,258.42a25.65,25.65,0,0,1-13.82-.26,25,25,0,0,1-11.4-8,49,49,0,0,1-7.13-11.95,95.36,95.36,0,0,1-4.46-13.1L15,223.5l1.66-.14h0a24.24,24.24,0,0,1,10.27,1.57,34.88,34.88,0,0,1,8.88,5,50.22,50.22,0,0,1,13,15.2l-.92.54a48.73,48.73,0,0,0-13.21-14.17,32.89,32.89,0,0,0-8.52-4.32,21.84,21.84,0,0,0-9.21-1h0l1.23-1.74A91.93,91.93,0,0,0,22,237.28a46.74,46.74,0,0,0,6.43,11.65,23.26,23.26,0,0,0,10.38,7.83,24.36,24.36,0,0,0,13.13.65Z"/><path class="cls-1" d="M52.31,254.65q3.09-22.71,22.45-19.92c2.12,23-10.34,31.33-18.67,32.13"/><path class="cls-2" d="M51.71,254.57A40.3,40.3,0,0,1,53.56,246,21.32,21.32,0,0,1,58,238.29a16.24,16.24,0,0,1,7.89-4.56,25.24,25.24,0,0,1,9-.39h0l1.12.16.08,1.1a50.81,50.81,0,0,1-.24,10.6,32.85,32.85,0,0,1-3,10.22,23.45,23.45,0,0,1-6.79,8.27,19.49,19.49,0,0,1-9.92,3.92l-.14-1.5A17.81,17.81,0,0,0,65,262.24a21.36,21.36,0,0,0,6-7.76,30.36,30.36,0,0,0,2.52-9.58,48.15,48.15,0,0,0-.09-10l1.2,1.26h0a22.68,22.68,0,0,0-8.09,0,14,14,0,0,0-7,3.62,19.63,19.63,0,0,0-4.41,6.88,38.75,38.75,0,0,0-2.15,8.16Z"/><path class="cls-1" d="M67.25,290.75c-15.2,7.11-29.41.07-42.38-24.58,11-3.63,25.37,2.56,35.67,13.22"/><path class="cls-2" d="M67.47,291.22A25.44,25.44,0,0,1,53.83,294a25.78,25.78,0,0,1-13-5.35,50.67,50.67,0,0,1-9.75-10,96.38,96.38,0,0,1-7.48-11.75l-.82-1.47,1.62-.52h0a24.54,24.54,0,0,1,10.45-.7,36,36,0,0,1,9.82,2.95A52,52,0,0,1,60.93,279l-.77.74a50.4,50.4,0,0,0-16.22-10.89,33.35,33.35,0,0,0-9.34-2.38,21.83,21.83,0,0,0-9.29,1h0l.81-2A93.3,93.3,0,0,0,33,277.17a48.15,48.15,0,0,0,9,9.92,24.12,24.12,0,0,0,12,5.41,24.2,24.2,0,0,0,13-2.21Z"/><path class="cls-1" d="M67,288.45q-3.45-22.68,16-24.93c8.54,21.59-1.09,32.82-8.89,35.72"/><path class="cls-2" d="M66.36,288.54a39.8,39.8,0,0,1-.65-8.67,20.87,20.87,0,0,1,2.13-8.62,15.56,15.56,0,0,1,6.36-6.45,24.93,24.93,0,0,1,8.58-2.68h0l1.09-.13.38,1A51.25,51.25,0,0,1,87,273.17a32.57,32.57,0,0,1,0,10.61,22.75,22.75,0,0,1-4.19,9.79,18.77,18.77,0,0,1-8.49,6.37l-.52-1.41a17.17,17.17,0,0,0,7.54-6,20.63,20.63,0,0,0,3.53-9.05,30.2,30.2,0,0,0-.32-9.85A48.45,48.45,0,0,0,81.63,264l1.47.88h0a22.25,22.25,0,0,0-7.77,2,13.4,13.4,0,0,0-5.73,5.28A19.07,19.07,0,0,0,67.31,280a38.5,38.5,0,0,0,.24,8.37Z"/><path class="cls-1" d="M88.53,318.17c-13.19,10.11-28.68,6.21-47-15.13,9.89-5.84,25.34-2.8,37.86,5.45"/><path class="cls-2" d="M88.84,318.58A25,25,0,0,1,76,324.13a26.59,26.59,0,0,1-13.86-2.59,52.58,52.58,0,0,1-11.75-7.75,98.34,98.34,0,0,1-10-9.84l-1.14-1.27,1.49-.85h0A24.06,24.06,0,0,1,50.91,299a36.74,36.74,0,0,1,10.27.86A53.23,53.23,0,0,1,79.65,308l-.58.89a51.85,51.85,0,0,0-18.27-7.22,34.23,34.23,0,0,0-9.68-.39,21.54,21.54,0,0,0-8.9,2.93h0l.35-2.13A97.47,97.47,0,0,0,52,312a49.91,49.91,0,0,0,11,7.79,24.76,24.76,0,0,0,12.9,2.86,23.81,23.81,0,0,0,12.35-4.89Z"/><path class="cls-1" d="M88.1,317.26q-8.5-21.43,10-27.61c13.23,19.35,6.36,32.27-.6,36.7"/><path class="cls-2" d="M87.54,317.48A40,40,0,0,1,85,309.22a20.61,20.61,0,0,1,.1-8.84,15.06,15.06,0,0,1,4.77-7.67,24,24,0,0,1,7.8-4.39h0l1-.35.58.89a52.24,52.24,0,0,1,5,9.28,33,33,0,0,1,2.42,10.31,22.35,22.35,0,0,1-1.83,10.48,18.24,18.24,0,0,1-6.9,8.05l-.8-1.26a16.72,16.72,0,0,0,6-7.52,20.38,20.38,0,0,0,1.36-9.6,30.47,30.47,0,0,0-2.57-9.5,49.75,49.75,0,0,0-5-8.66l1.61.54h0a21.87,21.87,0,0,0-7.14,3.57A12.87,12.87,0,0,0,87,300.92a19.07,19.07,0,0,0-.45,8.05A38.88,38.88,0,0,0,88.66,317Z"/><path class="cls-1" d="M118,342.86c-10.66,12.52-26.66,11.8-49.32-5.39,8.37-7.69,24.15-7.81,38.21-2.24"/><path class="cls-2" d="M118.35,343.2a24.37,24.37,0,0,1-11.5,8,26.82,26.82,0,0,1-14.14.14,54,54,0,0,1-13.11-5.22,103.9,103.9,0,0,1-11.81-7.57l-1.39-1,1.29-1.15h0A23.47,23.47,0,0,1,77,331.57a36.43,36.43,0,0,1,10.25-1.19,54.34,54.34,0,0,1,19.77,4.35l-.39,1a52.91,52.91,0,0,0-19.37-3.41,34.57,34.57,0,0,0-9.58,1.53,21.12,21.12,0,0,0-8.12,4.66h0l-.1-2.15a100.51,100.51,0,0,0,11.27,7.75,51.69,51.69,0,0,0,12.42,5.42,25.09,25.09,0,0,0,13.26.3,23,23,0,0,0,11.13-7.29Z"/><path class="cls-1" d="M113.34,337.72q-8.5-21.44,10-27.62c13.23,19.35,6.36,32.28-.6,36.71"/><path class="cls-2" d="M112.78,337.94a39.82,39.82,0,0,1-2.58-8.26,20.77,20.77,0,0,1,.09-8.84,15.19,15.19,0,0,1,4.77-7.68,24.44,24.44,0,0,1,7.8-4.39h0l1-.35.58.89a53.57,53.57,0,0,1,4.94,9.28,32.82,32.82,0,0,1,2.43,10.32A22.44,22.44,0,0,1,130,339.38a18.25,18.25,0,0,1-6.89,8.06l-.81-1.27a16.56,16.56,0,0,0,6-7.51,20.27,20.27,0,0,0,1.36-9.6,30.58,30.58,0,0,0-2.56-9.51,50.31,50.31,0,0,0-5-8.65l1.61.54h0a21.63,21.63,0,0,0-7.15,3.57,12.85,12.85,0,0,0-4.38,6.37,18.88,18.88,0,0,0-.45,8,39.13,39.13,0,0,0,2.12,8.08Z"/><path class="cls-1" d="M44.59,188.55q11.11-20.33,28.29-11.37c-6.33,22.28-21,26-29.16,24.07"/><path class="cls-2" d="M44.06,188.26a42.27,42.27,0,0,1,4.8-7.41,22.42,22.42,0,0,1,6.91-5.75,16.59,16.59,0,0,1,9-1.77,24.86,24.86,0,0,1,8.75,2.61h0l1,.53-.34,1.1a51.65,51.65,0,0,1-4.09,9.9A33.74,33.74,0,0,1,63.6,196a24.76,24.76,0,0,1-9.29,5.5,19.91,19.91,0,0,1-10.77.45l.36-1.46a18.2,18.2,0,0,0,9.83-.73,22.57,22.57,0,0,0,8.38-5.32A31.4,31.4,0,0,0,68,186.3a48.73,48.73,0,0,0,3.58-9.5l.7,1.63h0a22.22,22.22,0,0,0-7.7-2.7,14.45,14.45,0,0,0-7.88,1.17,20.8,20.8,0,0,0-6.58,5,40.34,40.34,0,0,0-5,6.93Z"/><path class="cls-2" d="M205,388.56a170.55,170.55,0,0,0-37.15-22.51c-13.3-5.83-27.7-9.71-41.28-16.28a97.78,97.78,0,0,1-9.91-5.47c-3.22-2-6.21-4.21-9.21-6.46a168.67,168.67,0,0,1-16.89-14.71A156.06,156.06,0,0,1,63.69,287.5a165.39,165.39,0,0,1-15.86-41.65,191.49,191.49,0,0,1-5-44.22,218,218,0,0,1,4.7-44.2,223.66,223.66,0,0,1,13.33-42.37.89.89,0,1,1,1.64.7,215.82,215.82,0,0,0-17.41,85.86,189.25,189.25,0,0,0,5.32,43.6,162.52,162.52,0,0,0,16,40.78,148.42,148.42,0,0,0,12.08,18.27,151.66,151.66,0,0,0,14.67,16.25,162.91,162.91,0,0,0,16.74,14.09c2.94,2.14,6,4.27,9,6.12a92.92,92.92,0,0,0,9.57,5.07c13.19,6.06,27.58,9.6,41.49,15.32A179.13,179.13,0,0,1,209,383.36a3.28,3.28,0,0,1-3.93,5.26Z"/></g><g id="under_ribbon" data-name="under ribbon"><path class="cls-3" d="M78.7,123.73l24.7,16,3.6-28.34-27.64,5.22C77.93,118.93,77.82,120.49,78.7,123.73Z"/><path class="cls-4" d="M104.88,143l-27.8-18-.18-.69c-1-3.77-.82-5.85.87-8.58l.44-.69,31-5.86Zm-24.55-20.4,21.58,14,2.91-22.82-24.26,4.58C79.94,119.51,79.84,120.51,80.33,122.55Z"/><polygon class="cls-3" points="314.34 165.24 284.15 150.04 271.73 177.78 316.71 179.26 314.34 165.24"/><path class="cls-4" d="M318.94,181.21l-50.06-1.65,14.36-32.08L316,164ZM274.58,176l39.9,1.31-1.83-10.82-27.59-13.9Z"/><path class="cls-3" d="M81,196l56.69,16.67-7.21-28.34-49.34,5.22C79.69,191.87,80.1,192.79,81,196Z"/><path class="cls-4" d="M140.31,215.42,79.45,197.53,79,195.9c-.8-2.89-1.24-4.48.53-7.32l.48-.78,51.87-5.48Zm-57.8-20.9L135.05,210l-6-23.57-46.78,4.94C81.9,192.16,82,192.74,82.51,194.52Z"/><path class="cls-3" d="M322.35,230.49l-35-23.93-25.86,11.73-3.1,21.4C295.48,257.26,326.74,266.28,322.35,230.49Z"/><path class="cls-4" d="M305.83,257c-13.15,0-31.26-7.55-48.22-15.59l-1.26-.59L259.81,217l27.74-12.58,36.56,25,.1.84c1.41,11.48-.75,19.37-6.4,23.45C314.65,256,310.56,257,305.83,257Zm-45.37-18.39c20.54,9.67,44.93,19.46,55.15,12.09,4.34-3.13,6-9.56,5-19.12L287.18,208.7l-24,10.87Z"/></g><g id="ball"><path class="cls-5" d="M240.27,126.13a1.84,1.84,0,0,1-.79-.17c-21-9.88-42.94-9.87-65.16,0a1.88,1.88,0,1,1-1.52-3.43c23.26-10.34,46.23-10.34,68.27,0a1.87,1.87,0,0,1-.8,3.57Z"/><path class="cls-1" d="M200.42,11.84A81.82,81.82,0,0,0,142.67,35.2a80.34,80.34,0,0,0-16.2,92.53h147.2a80.32,80.32,0,0,0-15.55-91.88,81.77,81.77,0,0,0-57.7-24"/><path class="cls-2" d="M281.7,96h0L118.42,94a1.84,1.84,0,0,1,0-3.68h0l163.25,2a1.84,1.84,0,0,1,0,3.68Z"/><path class="cls-2" d="M199.93,129.57h0a1.84,1.84,0,0,1-1.83-1.84l.5-115.9A1.84,1.84,0,0,1,200.43,10h0a1.85,1.85,0,0,1,1.83,1.85l-.5,115.89A1.85,1.85,0,0,1,199.93,129.57Z"/><path class="cls-2" d="M233.07,129.57a1.81,1.81,0,0,1-.81-.19c-20.74-10.22-42.38-10.22-64.33,0a1.84,1.84,0,1,1-1.55-3.33c23-10.73,45.72-10.73,67.51,0a1.84,1.84,0,0,1-.82,3.49Z"/><path class="cls-2" d="M202.54,68.43q-31.32,0-63.6-27.76a1.84,1.84,0,0,1,2.4-2.79C161.74,55.46,182,64.51,201.55,64.8h1c19.51,0,39-8.72,57.9-25.94a1.84,1.84,0,0,1,2.48,2.72Q233.4,68.43,202.54,68.43Z"/><path class="cls-2" d="M273.53,129.57H126.33a1.84,1.84,0,0,1-1.66-1,82.18,82.18,0,0,1,16.58-94.65A83.33,83.33,0,0,1,199.92,10h.37a83.31,83.31,0,0,1,59,24.55,82.33,82.33,0,0,1,15.9,94A1.84,1.84,0,0,1,273.53,129.57Zm-146-3.67H272.37a78.66,78.66,0,0,0-15.69-88.75,79.63,79.63,0,0,0-56.41-23.47h0a79.69,79.69,0,0,0-56.45,22.83A78.5,78.5,0,0,0,127.49,125.9Z"/></g><g id="net"><path class="cls-6" d="M142.07,335.69a1.69,1.69,0,0,1-.38,0,1.88,1.88,0,0,1-1.49-2c7.24-72.27-1.94-134.61-27.28-185.3a1.87,1.87,0,1,1,3.35-1.68c24,48.1,33.74,106.46,28.85,173.66,15.62-36.18,45.82-65.14,75.13-93.24,20.45-19.62,39.77-38.15,53.84-58.54a1.87,1.87,0,1,1,3.08,2.13c-14.28,20.71-33.73,39.36-54.33,59.11-32.38,31-65.86,63.16-79,104.61A1.88,1.88,0,0,1,142.07,335.69Z"/><path class="cls-6" d="M143.36,259.09a1.88,1.88,0,0,1-1.15-3.36c31.31-24.06,70.58-66.6,87.71-107.39a1.88,1.88,0,0,1,3.46,1.45C216,191.21,176.2,234.34,144.5,258.71A1.88,1.88,0,0,1,143.36,259.09Z"/><path class="cls-6" d="M138.49,217.26a1.87,1.87,0,0,1-1.22-3.3c22.55-19.29,36.42-40.66,42.39-65.33a1.88,1.88,0,0,1,3.65.88C177.14,175,162.88,197,139.7,216.81A1.85,1.85,0,0,1,138.49,217.26Z"/><path class="cls-6" d="M181.49,334.11h0a1.88,1.88,0,0,1-1.76-1.29c-7.57-23.12-19.51-40.82-36.51-54.11a1.87,1.87,0,1,1,2.31-2.95c16.36,12.79,28.19,29.49,36.05,50.94,15.93-41.21,41.3-71.76,75.47-90.84a1.87,1.87,0,1,1,1.82,3.27c-34.69,19.38-60.12,50.92-75.59,93.74A1.86,1.86,0,0,1,181.49,334.11Z"/><path class="cls-6" d="M256.64,259.09a1.88,1.88,0,0,1-1.14-.38c-31.7-24.37-71.48-67.5-88.88-108.92a1.88,1.88,0,0,1,3.46-1.45c17.13,40.79,56.4,83.33,87.71,107.39a1.88,1.88,0,0,1-1.15,3.36Z"/><path class="cls-6" d="M261.51,217.26a1.85,1.85,0,0,1-1.21-.45C237.12,197,222.86,175,216.69,149.51a1.88,1.88,0,0,1,3.65-.88c6,24.67,19.84,46,42.39,65.33a1.87,1.87,0,0,1-1.22,3.3Z"/><path class="cls-6" d="M218.51,334.11a1.86,1.86,0,0,1-1.76-1.24c-15.47-42.82-40.9-74.36-75.59-93.74a1.87,1.87,0,1,1,1.82-3.27c34.17,19.08,59.54,49.63,75.47,90.84,7.86-21.45,19.69-38.15,36.05-50.94a1.87,1.87,0,1,1,2.31,2.95c-17,13.29-28.94,31-36.51,54.11a1.88,1.88,0,0,1-1.76,1.29Z"/><path class="cls-6" d="M257.93,335.69a1.88,1.88,0,0,1-1.79-1.31C243,292.91,209.56,260.8,177.2,229.75c-20.57-19.75-40-38.39-54.27-59.09a1.88,1.88,0,1,1,3.09-2.13c14.06,20.38,33.35,38.9,53.78,58.51,29.28,28.11,59.46,57.08,75.08,93.27-4.89-67.2,4.8-125.56,28.85-173.66a1.87,1.87,0,1,1,3.35,1.68c-25.34,50.69-34.52,113-27.28,185.3a1.88,1.88,0,0,1-1.49,2A1.69,1.69,0,0,1,257.93,335.69Z"/><rect class="cls-7" x="99.07" y="114.51" width="201.86" height="35.95" rx="9.26"/><path class="cls-6" d="M292.41,152.34H107.59A10.41,10.41,0,0,1,97.19,142V123a10.41,10.41,0,0,1,10.4-10.39H292.41A10.41,10.41,0,0,1,302.81,123V142A10.41,10.41,0,0,1,292.41,152.34ZM107.59,116.39a6.65,6.65,0,0,0-6.65,6.64V142a6.65,6.65,0,0,0,6.65,6.64H292.41a6.65,6.65,0,0,0,6.65-6.64V123a6.65,6.65,0,0,0-6.65-6.64Z"/></g><g id="ribbon"><path class="cls-4" d="M309.16,226.22a24.55,24.55,0,0,0,6.88-3.74c3.5-18.28,2.78-36.68-1.5-55.19-10.78,8.55-30.84,6.58-43.49,4.85-15.13-2.06-30-6.79-44.77-11.62-19.84-6.5-39.59-13.84-59.55-19.32-19-5.2-38.41-9-57.57-7-11.53,1.15-25.35,4.88-36.34,12.2-2.14,8.17-.51,35,7.39,48.81a45.74,45.74,0,0,1,7.69-2.89c12.43-3.43,26.8-4,39.76-3.25,13.64.75,27.2,3.71,40.57,7.37,20,5.47,39.7,12.82,59.54,19.31,14.76,4.83,29.64,9.57,44.77,11.63C282.84,228.73,298.05,230.3,309.16,226.22Z"/><path class="cls-8" d="M291.39,230.71a143.26,143.26,0,0,1-19.1-1.52c-14.8-2-29.18-6.5-45.1-11.71-6.22-2-12.53-4.18-18.63-6.27-13.36-4.55-27.17-9.27-40.83-13-16.08-4.41-28.47-6.67-40.18-7.31-15.25-.84-28.42.23-39.15,3.19A42.84,42.84,0,0,0,81,196.85l-1.58.76-.87-1.52c-8.22-14.35-9.85-41.53-7.57-50.21l.18-.69.59-.4c9.89-6.58,23.44-11.14,37.19-12.51,21-2.09,42.17,2.71,58.26,7.12,13.77,3.77,27.63,8.5,41,13.08,6.09,2.08,12.39,4.23,18.59,6.25,15.74,5.16,29.95,9.58,44.44,11.56,8.51,1.16,31.1,4.24,42.08-4.47L315.7,164l.67,2.89a134.78,134.78,0,0,1,1.51,56l-.13.68-.55.43a26.53,26.53,0,0,1-7.39,4C304.29,230,297.87,230.71,291.39,230.71Zm-173.6-43.85c3.22,0,6.55.1,10,.29,12,.66,24.61,2.95,41,7.43,13.77,3.78,27.64,8.51,41.05,13.09,6.09,2.07,12.39,4.22,18.58,6.25,15.75,5.15,30,9.58,44.45,11.55,11.19,1.53,25.36,2.79,35.72-1h0a23.43,23.43,0,0,0,5.81-3,130.55,130.55,0,0,0-1-51c-11.08,6.75-28.37,5.51-42.52,3.58-14.8-2-29.19-6.49-45.11-11.7-6.22-2-12.53-4.19-18.63-6.28-13.36-4.55-27.17-9.26-40.83-13-15.77-4.32-36.49-9-56.88-7-12.88,1.28-25.54,5.46-34.88,11.5-1.76,8.36-.2,31.88,6.56,45.21a48.74,48.74,0,0,1,6.37-2.26A115.47,115.47,0,0,1,117.79,186.86Z"/><path class="cls-4" d="M90.74,117.56A40,40,0,0,0,78.26,122C73,104.37,72.21,86.84,76.79,69.45,90.53,61.33,116,63.25,132,64.92c15.49,1.62,30.75,4.89,45.9,8.53C162.14,79.28,148.49,86,141.63,95.71c13.14,5.86,24.12,16.06,33.58,29.31a333.23,333.23,0,0,0-41.78-7.55C121.51,116.22,104.38,114.84,90.74,117.56Z"/><path class="cls-8" d="M179.63,128l-4.84-1.14c-11.34-2.66-26.3-5.92-41.55-7.51-12.78-1.33-29.11-2.53-42.13.07h0a38,38,0,0,0-11.9,4.21l-2.06,1.22-.69-2.3C71,104.15,70.46,86.13,75,69l.2-.74.66-.39c13.57-8,37.23-6.77,56.32-4.78,16.32,1.7,32.49,5.28,46.15,8.57l6,1.44-5.77,2.14c-11.92,4.42-26.31,10.6-34,19.79,11.92,5.83,22.48,15.31,32.2,28.93Zm-70.31-13.86a239.44,239.44,0,0,1,24.31,1.48,320.5,320.5,0,0,1,37,6.44c-9.06-11.66-18.84-19.73-29.79-24.62l-2.09-.93,1.32-1.86c6.71-9.48,19.58-16,31.43-20.75a328.36,328.36,0,0,0-39.76-7.09c-10.71-1.12-38.9-4.06-53.36,3.9-4,15.56-3.62,31.88,1,48.56a45.38,45.38,0,0,1,11-3.53A99,99,0,0,1,109.32,114.12Zm-18.58,3.44h0Z"/><path class="cls-4" d="M314.09,289.26a31,31,0,0,0,7.77-3.69,109.84,109.84,0,0,0,1.08-52.74c-12.32,8.33-34.35,6.75-48.22,5.29-16.59-1.75-32.77-6.06-48.81-10.46-21.57-5.91-43-12.64-64.73-17.57-20.7-4.7-41.93-8-63.16-5.89-12.77,1.27-28.2,5.05-40.69,12.21,11.59,3.51,21.65,8.11,28.12,15.28-9.73,7.1-17,17.88-22.38,31.28a58.25,58.25,0,0,1,8.63-2.88c13.88-3.46,29.76-4.19,44-3.7,15,.51,29.83,3.14,44.39,6.44,21.75,4.94,43.16,11.67,64.73,17.58,16,4.4,32.22,8.7,48.81,10.45C284.93,292.05,301.63,293.32,314.09,289.26Z"/><path class="cls-8" d="M292.8,293.91a187.8,187.8,0,0,1-19.35-1.18c-16.2-1.71-31.83-5.77-49.12-10.51-6.75-1.85-13.6-3.82-20.22-5.71-14.52-4.17-29.53-8.47-44.43-11.85-17.54-4-31.12-6-44-6.4-16.83-.58-31.47.65-43.5,3.65a56,56,0,0,0-8.35,2.79l-4.16,1.76,1.7-4.2c5.56-13.72,12.54-23.82,21.3-30.79-5.53-5.38-13.82-9.62-25.85-13.27l-4.16-1.26,3.77-2.16c11.17-6.4,26.28-10.94,41.44-12.45,23.2-2.3,46.26,2,63.75,5.93,15,3.4,30.06,7.72,44.62,11.89,6.62,1.9,13.46,3.86,20.19,5.71,17.13,4.69,32.6,8.72,48.52,10.39,9.37,1,34.28,3.62,47-5l2.29-1.55.59,2.71a112.22,112.22,0,0,1-1.1,53.63l-.19.67-.57.39a32.62,32.62,0,0,1-8.24,3.92h0C308.08,293.19,300.43,293.91,292.8,293.91ZM107.72,254.37c2.63,0,5.31,0,8.06.14,13.15.46,26.95,2.46,44.73,6.49,15,3.41,30.07,7.73,44.63,11.9,6.61,1.9,13.45,3.86,20.18,5.7,17.13,4.7,32.6,8.72,48.52,10.4,12.32,1.3,28,2.3,39.67-1.52h0a30,30,0,0,0,6.72-3.08,108.17,108.17,0,0,0,1.4-48.59c-12.41,6.74-31.53,5.81-47.11,4.17-16.19-1.71-31.82-5.77-49.11-10.51-6.75-1.85-13.61-3.81-20.23-5.71-14.51-4.16-29.52-8.47-44.42-11.85-17.21-3.9-39.88-8.1-62.55-5.85A107.48,107.48,0,0,0,62.13,216c11.46,3.9,19.37,8.54,24.71,14.45L88.23,232l-1.68,1.23c-8.09,5.91-14.66,14.59-20,26.45,1.55-.52,3.13-1,4.71-1.38C81.64,255.68,93.88,254.37,107.72,254.37Zm206.37,34.89h0Z"/></g><g id="Layer_7" data-name="Layer 7"><text class="cls-9" transform="translate(85.57 101.85)">/<tspan class="cls-10" x="17.5" y="0">r</tspan><tspan class="cls-11" x="37.61" y="0">/</tspan></text><text class="cls-12" transform="translate(97.88 243.01) rotate(10)">B<tspan class="cls-13" x="21.35" y="0">a</tspan><tspan class="cls-14" x="44.47" y="0">s</tspan><tspan class="cls-15" x="64.17" y="0">k</tspan><tspan class="cls-16" x="85.18" y="0">e</tspan><tspan class="cls-17" x="103.59" y="0">t</tspan><tspan class="cls-18" x="124.61" y="0">b</tspan><tspan class="cls-19" x="145.96" y="0">a</tspan><tspan class="cls-20" x="169.08" y="0">l</tspan><tspan class="cls-14" x="186.29" y="0">l</tspan></text><text class="cls-21" transform="translate(131.56 181.83) rotate(10)">c<tspan class="cls-22" x="20.4" y="0">o</tspan><tspan class="cls-23" x="42.65" y="0">l</tspan><tspan class="cls-24" x="59.86" y="0">l</tspan><tspan class="cls-25" x="76.91" y="0">e</tspan><tspan class="cls-26" x="95.44" y="0">g</tspan><tspan class="cls-14" x="116.62" y="0">e</tspan></text></g></svg>