<svg id="Layer_1" data-name="Layer 1" xmlns="http://www.w3.org/2000/svg" viewBox="0 0 400 400"><defs><style>.cls-1{fill:#149840;}.cls-2{fill:#57585a;}.cls-3{fill:#2d2d2d;}.cls-4{fill:#14c140;}</style></defs><title>illustration-4</title><path class="cls-1" d="M256.55,244.2c-8-36.34,19.87-44.72,13.29,0"/><rect class="cls-2" x="153.03" y="140.79" width="15.15" height="45.81" rx="6.21" transform="translate(-68.71 161.51) rotate(-45)"/><path class="cls-2" d="M171.45,183.93a9.33,9.33,0,0,1-6.65-2.74l-21.68-21.68a9.4,9.4,0,0,1,13.3-13.3l21.68,21.67a9.4,9.4,0,0,1-6.65,16.05Zm-21.68-36.81a5.74,5.74,0,0,0-4.06,9.8l21.67,21.68a5.78,5.78,0,0,0,8.13,0h0a5.78,5.78,0,0,0,0-8.13L153.84,148.8A5.73,5.73,0,0,0,149.77,147.12Z"/><path class="cls-3" d="M176.8,179.89h0a7.59,7.59,0,0,1-10.71,0c5.21-7.47-13.25-33.58-11-32.39l21.67,21.68A7.59,7.59,0,0,1,176.8,179.89Z"/><path class="cls-3" d="M171.45,183.94a9.38,9.38,0,0,1-6.65-2.75,1.82,1.82,0,0,1-.21-2.34c3-4.34-5.28-19.24-8.83-25.6-2.83-5.08-3.27-5.86-2.12-7a1.94,1.94,0,0,1,2.33-.33,1.87,1.87,0,0,1,.45.33l21.68,21.67a9.45,9.45,0,0,1,0,13.31h0A9.41,9.41,0,0,1,171.45,183.94Zm-3.08-4.55a5.76,5.76,0,0,0,7.14-.79h0a5.78,5.78,0,0,0,0-8.13l-13.62-13.62C166.48,165.55,170.17,174.23,168.37,179.39Z"/><path class="cls-4" d="M139.56,152.65a1.82,1.82,0,0,1-1.69-1.13,1.84,1.84,0,0,1,1-2.39c3.9-1.61,6.35-3.83,7.5-6.81a1.83,1.83,0,1,1,3.41,1.32c-1.51,3.9-4.71,6.89-9.51,8.87A1.75,1.75,0,0,1,139.56,152.65Z"/><path class="cls-2" d="M126.12,153.81A26.91,26.91,0,1,1,153,126.9,26.94,26.94,0,0,1,126.12,153.81Zm0-50.15a23.25,23.25,0,1,0,23.25,23.24A23.27,23.27,0,0,0,126.12,103.66Z"/><path class="cls-2" d="M138.15,117.85a1.84,1.84,0,0,1-1.3-.55c-5.1-5.15-11.2-6.29-18.65-3.49a1.83,1.83,0,1,1-1.29-3.43c8.82-3.31,16.41-1.85,22.54,4.35a1.83,1.83,0,0,1-1.3,3.12Z"/><path class="cls-2" d="M126.05,242.28a1.75,1.75,0,0,1-.55-.08,1.83,1.83,0,0,1-1.2-2.29c2.7-8.62,8-14.19,15.81-16.56a1.83,1.83,0,1,1,1.06,3.5c-6.65,2-11,6.65-13.38,14.15A1.82,1.82,0,0,1,126.05,242.28Z"/><circle class="cls-4" cx="143.23" cy="257.41" r="9.25"/><path class="cls-3" d="M138.51,291.24c18.28-13.87,2.13-82,26.28-61C174.17,252.07,143.23,308.31,138.51,291.24Z"/><path class="cls-3" d="M141.51,296.25a4.05,4.05,0,0,1-.92-.1c-1.27-.26-3-1.25-3.85-4.42a1.84,1.84,0,0,1,.66-2c7.59-5.75,8.8-22.55,9.86-37.37,1-14,1.82-25.15,7.64-27.56,3-1.23,6.6.07,11.09,4a1.87,1.87,0,0,1,.49.66c4.15,9.69.55,24.19-2,32-3.59,11.11-9.4,22.54-14.8,29.11C146.58,294.38,143.89,296.25,141.51,296.25Zm-.85-4.43c.22.43.46.71.69.76.63.12,2.5-.63,5.54-4.34,9.33-11.37,22.21-42.28,16.38-56.93-3.1-2.63-5.51-3.69-7-3.08-3.74,1.54-4.61,13.71-5.39,24.44C149.83,267.63,148.62,284.51,140.66,291.82Z"/><path class="cls-2" d="M142.67,300h0a1.82,1.82,0,0,1-1.41-.67c-39.92-48.78-22.91-71.34-16.75-77.09,10.41-9.71,27.79-9.84,38-.27,6,5.64,22.42,27.91-18.38,77.36A1.8,1.8,0,0,1,142.67,300Zm1.12-81.5A24.62,24.62,0,0,0,127,224.91c-5.51,5.14-20.44,25.27,15.67,70.36,37-45.76,22.63-65.61,17.28-70.64A23.57,23.57,0,0,0,143.79,218.5Z"/><path class="cls-3" d="M229.74,263.87c18.75-3.63,20.37,30.1,42.21,28.78l-3.5,4.57-24.28.74Z"/><path class="cls-3" d="M244.17,299.79a1.82,1.82,0,0,1-1.68-1.12l-14.43-34.09a1.8,1.8,0,0,1,.07-1.57,1.83,1.83,0,0,1,1.26-.94c10.38-2,16,6.07,21.52,13.88,5.58,8,10.84,15.48,20.93,14.88a1.8,1.8,0,0,1,1.73,1,1.83,1.83,0,0,1-.16,2l-3.5,4.57a1.85,1.85,0,0,1-1.4.72l-24.28.74Zm-11.78-34.36,13,30.66,22.16-.67.79-1c-9.76-1.13-15.38-9.16-20.41-16.33-4.71-6.72-8.84-12.62-15.47-12.62Z"/><path class="cls-2" d="M277.09,264.81H262.76a1.83,1.83,0,0,1,0-3.66h14.33a1.83,1.83,0,0,1,0,3.66Z"/><path class="cls-4" d="M240.88,245.1c-10.23-26.92,25.49-33.12,17.05,0"/><path class="cls-2" d="M269.72,299.79H242.6a1.83,1.83,0,0,1-1.69-1.12L226.85,265.2l-5.19-2.62a1.8,1.8,0,0,1-1-1.27L217.64,246a1.83,1.83,0,0,1,1.79-2.19h73.46a1.83,1.83,0,0,1,1.79,2.19l-3.05,15.32a1.77,1.77,0,0,1-1,1.27l-5.18,2.62-14.07,33.47A1.83,1.83,0,0,1,269.72,299.79Zm-25.91-3.66h24.7l13.85-33a1.87,1.87,0,0,1,.87-.93l5-2.51,2.44-12.26h-69l2.44,12.26,5,2.51a1.87,1.87,0,0,1,.87.93Z"/><path class="cls-3" d="M286.44,117.6c-19.68-15.36-24.08,42.47-52.53,59.28l1.6,1.6,9.25-3.47,51.95-31.79-.81-11.95Z"/><path class="cls-3" d="M235.51,180.3a1.82,1.82,0,0,1-1.29-.53l-1.6-1.6a1.8,1.8,0,0,1-.52-1.52,1.83,1.83,0,0,1,.88-1.35c12.73-7.52,20.47-23.57,27.29-37.73,6.06-12.56,10.84-22.49,17.92-24.14,3-.7,6.16.22,9.37,2.73a1.79,1.79,0,0,1,.38.4l9.47,13.67a1.88,1.88,0,0,1,.32.92l.8,11.95a1.83,1.83,0,0,1-.87,1.68l-51.94,31.79a2.2,2.2,0,0,1-.31.15l-9.26,3.47A1.72,1.72,0,0,1,235.51,180.3Zm44.66-63.44A5,5,0,0,0,279,117c-5.37,1.25-10.27,11.41-15.45,22.16-5.84,12.11-12.92,26.79-23.69,35.72l4.08-1.52,50.85-31.12-.7-10.34-9-13A8.38,8.38,0,0,0,280.17,116.86Z"/><path class="cls-2" d="M236.92,180.46a8.6,8.6,0,0,1-7.36-4.12l-16.38-26.89a8.62,8.62,0,0,1,2.87-11.82L271.33,104a8.63,8.63,0,0,1,11.82,2.87l16.38,26.89a8.61,8.61,0,0,1-2.87,11.82h0l-55.28,33.68A8.51,8.51,0,0,1,236.92,180.46Zm38.86-74.1a4.85,4.85,0,0,0-2.55.72L218,140.76a4.94,4.94,0,0,0-1.65,6.79l16.38,26.89a5,5,0,0,0,6.79,1.65l55.28-33.68a5,5,0,0,0,1.65-6.8L280,108.73a4.88,4.88,0,0,0-3-2.23A5.37,5.37,0,0,0,275.78,106.36ZM295.71,144h0Z"/><path class="cls-2" d="M222.12,147a1.83,1.83,0,0,1-.93-3.41l15.29-8.92a1.83,1.83,0,1,1,1.84,3.16L223,146.73A1.82,1.82,0,0,1,222.12,147Z"/><rect class="cls-4" x="224.8" y="141.97" width="57.1" height="4.16" transform="translate(-37.96 152.86) rotate(-31.35)"/><rect class="cls-4" x="230.42" y="154.08" width="36.49" height="4.16" transform="translate(-44.94 152.18) rotate(-31.35)"/><path class="cls-2" d="M124.38,247.88a1.5,1.5,0,0,0,0-3,1.5,1.5,0,0,0,0,3Z"/><path class="cls-2" d="M141.93,123.34a1.5,1.5,0,0,0,0-3,1.5,1.5,0,0,0,0,3Z"/><path class="cls-2" d="M243.66,134.29a1.5,1.5,0,0,0,0-3,1.5,1.5,0,0,0,0,3Z"/><path class="cls-2" d="M256.16,264.48a1.5,1.5,0,0,0,0-3,1.5,1.5,0,0,0,0,3Z"/></svg>