<svg xmlns="http://www.w3.org/2000/svg" viewBox="0 0 400 733.72"><defs><style>.cls-1{fill:#f5ce85;}.cls-2{fill:#b2ce00;}.cls-3{fill:#5e351f;}.cls-4{fill:#f5c11d;}.cls-5{fill:#ce0004;}.cls-6{fill:#e26668;}.cls-7{fill:#fff;}.cls-8{fill:#b2ddf8;}.cls-9{fill:#65baf1;}.cls-10{fill:#255573;}.cls-11{fill:#6faace;}.cls-12{fill:#127cc0;}.cls-13{fill:#4196cd;}.cls-14{fill:#d9eefb;}.cls-15{fill:#f9da77;}.cls-16{fill:#472817;}.cls-17{fill:#d1e266;}.cls-18{fill:#b89b64;}.cls-19{fill:#a4cde7;}.cls-20{fill:#132b3a;}.cls-21{fill:#a3d6f7;}.cls-22{fill:#3fa9ed;}</style></defs><title>illustration-1</title><g id="Layer_2" data-name="Layer 2"><path class="cls-1" d="M375.05,273.64c.79,0-3.86,16.61-4.49,18.13a70.25,70.25,0,0,1-8.43,14.81c-10.23,13.51-26.55,20.16-42.78,23.56-13.69,2.88-27.75,3.42-41.73,3.83q-50.19,1.45-100.41.77c-31.57-.44-64.5.68-95.71-4.61-11.16-1.9-22-5.24-31.7-11.12-16.63-10.32-25.59-28.08-27.08-47.41"/><path d="M209.29,336.58q-16.09,0-32.1-.22c-6.16-.09-12.49-.11-18.62-.14-25.61-.1-52.09-.21-77.34-4.5C68.59,329.58,58,325.87,49,320.39c-16.09-10-26.24-27.72-27.86-48.67a1.62,1.62,0,0,1,3.23-.25c1.54,19.91,11.13,36.74,26.32,46.16,8.7,5.26,18.89,8.83,31.12,10.9,25,4.24,51.34,4.35,76.82,4.46,6.13,0,12.47.05,18.64.13,33.31.46,67.07.2,100.34-.77,14.86-.43,28.24-1,41.44-3.79,19.56-4.11,33.24-11.61,41.83-22.95a67.82,67.82,0,0,0,8.22-14.47c.63-1.51,4.22-14.6,4.45-17a2.11,2.11,0,0,1-.08-.45A1.62,1.62,0,0,1,375,272a1.73,1.73,0,0,1,1.43.72c.48.7.77,1.11-1.61,10.11-1,3.74-2.37,8.58-2.77,9.53a71.1,71.1,0,0,1-8.63,15.17c-8.95,11.82-23.67,19.95-43.74,24.17-13.47,2.83-27,3.42-42,3.86C255,336.25,232.11,336.58,209.29,336.58Zm164.23-62.66Z"/><path class="cls-2" d="M25.27,246.46,11.63,262.22c13.84,20.59,96.73,30.92,187.58,10.57,30,16.42,67,17,103-.33,29,21.09,57,17.25,84-8.95l-16.52-17.26"/><path d="M339.28,287.64q-18.51,0-37.23-13.29c-17.64,8.34-35.59,12.56-53.39,12.56h-.21A103.55,103.55,0,0,1,199,274.52c-41.81,9.3-85.31,12.84-122.55,10-34.2-2.64-58.93-10.62-66.14-21.35a1.64,1.64,0,0,1,.12-2L24,245.39a1.63,1.63,0,0,1,2.47,2.13L13.72,262.3c7.54,9.41,30.85,16.45,63,18.93,37.11,2.87,80.5-.7,122.19-10a1.62,1.62,0,0,1,1.14.16c30.4,16.61,66.45,16.49,101.51-.37a1.65,1.65,0,0,1,1.67.15c14,10.16,28,14.52,41.62,13,13-1.49,26.2-8.43,39.12-20.64l-15.39-16.08a1.63,1.63,0,0,1,2.36-2.26l16.52,17.26a1.63,1.63,0,0,1-.05,2.3C371.59,280,355.51,287.64,339.28,287.64Z"/><path class="cls-3" d="M51.68,198,204.5,186.21l78,1.24,63.06,18.63c8.54,1.2,15.12,4.68,21.44,11.62,6,6.63,5,27.2,3.35,28.76H272.76"/><path d="M370.32,248.07H272.76a1.62,1.62,0,1,1,0-3.23h96.53c1-3.83,1.48-20.56-3.51-26.05-6-6.62-12.15-9.94-20.48-11.1l-.23-.05-62.85-18.57-77.67-1.24L51.8,199.58a1.61,1.61,0,1,1-.24-3.22L204.37,184.6h.15l78,1.25a1.54,1.54,0,0,1,.43.06l62.95,18.6c9,1.28,15.84,5,22.3,12.11s5.69,28.68,3.27,31A1.61,1.61,0,0,1,370.32,248.07Z"/><path class="cls-3" d="M51.68,198c-8.55,1.12-17.34,2.3-23.66,8.77-11,11.31-7,26.63-2.63,39.72H277.81"/><path d="M277.81,248.07H25.39a1.62,1.62,0,0,1-1.54-1.1c-4.63-13.76-8.6-29.45,3-41.36,6.75-6.91,16.24-8.15,24.61-9.24a1.62,1.62,0,0,1,.42,3.21c-8.23,1.07-16.75,2.18-22.71,8.29-10,10.3-6.79,24.38-2.63,37H277.81a1.62,1.62,0,1,1,0,3.23Z"/><path class="cls-4" d="M358.42,210.64c-68.59,11.57-98.53,48.18-114.24,57.45-63.72-47.46-147.82-61.93-213-64.19,2.53-7.37,28.82-14,41.58-10.78l190.72-6.91L342,202.86C348.79,204.59,354.44,207.06,358.42,210.64Z"/><path d="M244.18,269.7a1.59,1.59,0,0,1-1-.32c-36.3-27-102.57-60.06-212.12-63.86a1.64,1.64,0,0,1-1.28-.7,1.6,1.6,0,0,1-.19-1.44c2.95-8.62,30.36-15,43.28-11.89l190.49-6.9a1.81,1.81,0,0,1,.4,0l78.58,16.65c7.62,1.95,13.2,4.62,17.13,8.16a1.64,1.64,0,0,1,.47,1.66,1.61,1.61,0,0,1-1.28,1.14c-53.14,9-83,33.16-100.86,47.62-5.19,4.21-9.28,7.53-12.83,9.62A1.63,1.63,0,0,1,244.18,269.7Zm-210-67.3c107.74,4.28,173.56,36.79,210.08,63.74a139.81,139.81,0,0,0,11.54-8.79c17.68-14.33,47-38.09,98.72-47.66a42.91,42.91,0,0,0-12.89-5.26l-78.32-16.59L72.79,194.73a1.71,1.71,0,0,1-.45,0C61,191.81,40.15,197,34.18,202.4Z"/><path class="cls-2" d="M373.35,165.82l15,16.09c-26.44,26.2-81.84,30-110.27,9-35.3,17.33-43.43,16.75-72.83.33-89,20.35-170.11,10-183.66-10.57L36,164.74l18.5-6.61,168.63-2.81,135,4Z"/><path d="M325.47,206.08c-18.52,0-35.45-4.7-47.53-13.32-34.06,16.64-43.29,16.63-72.92.16-40.93,9.3-83.52,12.84-120,10-33.5-2.65-57.72-10.63-64.79-21.37a1.61,1.61,0,0,1,.16-2l14.43-15.88a1.54,1.54,0,0,1,.65-.44L54,156.59a1.5,1.5,0,0,1,.52-.09l168.62-2.8,135.1,4a1.74,1.74,0,0,1,.59.13L374,164.32a1.73,1.73,0,0,1,.55.39l15,16.09a1.62,1.62,0,0,1,0,2.26c-12.8,12.68-33,20.95-55.41,22.68Q329.75,206.08,325.47,206.08ZM278.1,189.24a1.61,1.61,0,0,1,1,.32c27.71,20.55,81.11,16.54,107-7.71l-13.7-14.67L357.83,161l-134.71-4-168.28,2.8L37,166.14,23.7,180.74c7.4,9.39,30.2,16.42,61.59,18.89,36.33,2.87,78.81-.69,119.62-10a1.65,1.65,0,0,1,1.15.17c14.55,8.12,23.72,12.25,33.42,12.29h.11c10.1,0,21.09-4.46,37.8-12.66A1.6,1.6,0,0,1,278.1,189.24Z"/><path class="cls-5" d="M217.43,159.06s-5.2,1.71-5.54,1.79c-4.25,1-8.55,1.86-12.85,2.66-13.55,2.51-27.19,4.5-40.86,6.21-16.57,2.07-33.21,3.7-49.88,4.59-15.11.8-30.38,1.17-45.45-.39-8.83-.91-20.92-2-27.59-8.71-4-4.05-3.65-9.54-.4-14.19,2.43-3.47,5.07-6.43,8.83-8.2,1.85-.87,5.71-3.72,7.76-3.65l152.11,5.47Z"/><path d="M85.72,176.62a224.85,224.85,0,0,1-23-1.09l-.53-.05c-8.9-.92-21.09-2.17-28-9.13-4.34-4.34-4.56-10.57-.58-16.26,2.2-3.15,5.05-6.66,9.46-8.73.48-.23,1.2-.65,2-1.1,2.18-1.3,4.65-2.77,6.56-2.7L203.62,143a1.62,1.62,0,0,1,1.11.49l13.86,14.42a1.6,1.6,0,0,1,.09,2.15,1.51,1.51,0,0,1-.76.52l-.36.12c-4.56,1.49-5.12,1.66-5.28,1.7-4.42,1.08-9,2-12.94,2.68-12.31,2.28-25.71,4.31-41,6.22-18.13,2.27-34.48,3.77-50,4.6C101.36,176.3,93.68,176.62,85.72,176.62ZM51.36,140.79c-1,0-3.34,1.4-4.75,2.25-.86.51-1.61,1-2.23,1.25-3.72,1.75-6.23,4.85-8.19,7.65-3.06,4.39-3,8.92.22,12.13,6.13,6.14,17.65,7.32,26.07,8.19l.53.05c15.7,1.62,31.66,1.1,45.2.38,15.44-.82,31.71-2.32,49.77-4.58,15.19-1.9,28.52-3.93,40.77-6.19,4.08-.76,8.42-1.58,12.76-2.64l3-1-11.63-12.09L51.4,140.79Z"/><path d="M95.14,165.4c-17.31,0-56.79-1.15-62-11.51a1.62,1.62,0,0,1,2.9-1.45c2.56,5.15,23.07,10.17,63.08,9.71,36.71-.41,75.54-5.46,101.33-13.19a1.62,1.62,0,0,1,.93,3.1c-26.06,7.81-65.23,12.91-102.23,13.32Z"/><path class="cls-6" d="M71,147.25c-6.83,8.65,5.76,12.75,19.29,3.6-4.73,12.18,16.27,9.53,20.15-.47,4.11,9,22,4.52,21.77-2.52"/><path d="M96.09,160.59c-3,0-5.4-.92-6.79-2.66A6,6,0,0,1,88,154.14c-8.46,4.58-16.12,4.34-19.13,1.11-1-1.09-2.95-4.15.88-9a1.62,1.62,0,1,1,2.54,2c-1,1.2-2.34,3.41-1,4.8,2,2.19,9.68,2.19,18.17-3.54a1.61,1.61,0,0,1,1.91.07,1.63,1.63,0,0,1,.5,1.86c-.54,1.37-1,3.27,0,4.47s3.41,1.73,6.31,1.28c4.08-.63,9.21-3.21,10.83-7.4a1.63,1.63,0,0,1,1.46-1,1.59,1.59,0,0,1,1.52,1c1.82,4,7.15,4.7,11.63,3.66,4.15-1,7.12-3.26,7.06-5.47a1.62,1.62,0,1,1,3.23-.09c.13,4.45-4.71,7.58-9.56,8.71s-10.46.49-13.69-3c-2.75,3.9-7.71,6.24-12,6.9A16.12,16.12,0,0,1,96.09,160.59Z"/><path class="cls-5" d="M196.51,145.7c4.81,7.19,15,11.35,22.5,14.78a290.22,290.22,0,0,0,42.18,14.92c10.73,3,21.69,5.36,32.64,7.39,15.69,2.9,31.76,5.24,47.76,4.89,9.77-.22,25.72-1,30.57-11.43a15.26,15.26,0,0,0,1-8.5c-.92-6.65-4.67-10.77-10.41-14a189.89,189.89,0,0,0-22.87-10.53c-3.9-1.57-7.82-3.1-11.71-4.71-1.8-.74-3.59-1.51-5.4-2.24-1.57-.63-4.07-2.26-5.74-2.32l-41.66-1.21-45.11,3-30.34,3.44Z"/><path d="M338.38,189.33c-15.86,0-31.49-2.48-44.85-5-12.72-2.36-23.14-4.72-32.77-7.42-16.88-4.74-30.36-9.51-42.42-15l-1.82-.82c-7.42-3.35-16.67-7.52-21.36-14.53a1.62,1.62,0,0,1-.08-1.66l3.43-6.49a1.61,1.61,0,0,1,1.25-.86l30.34-3.43,45.18-3h.15l41.67,1.22a12.49,12.49,0,0,1,4.75,1.69c.58.29,1.13.57,1.55.74l3.24,1.34,2.17.91c2.58,1.06,5.17,2.09,7.76,3.13l3.93,1.57a194.32,194.32,0,0,1,23.07,10.62c6.74,3.81,10.31,8.64,11.21,15.19a16.6,16.6,0,0,1-1.16,9.41c-5.47,11.78-23.39,12.18-32,12.37Zm-140-43.75c4.36,5.79,12.7,9.55,19.46,12.6l1.82.83c11.91,5.43,25.24,10.14,41.95,14.83,9.54,2.68,19.87,5,32.49,7.36,14.1,2.61,30.77,5.23,47.43,4.86,8-.17,24.52-.54,29.14-10.49a13.41,13.41,0,0,0,.88-7.6c-.76-5.55-3.72-9.51-9.6-12.83a190.18,190.18,0,0,0-22.67-10.43l-3.93-1.57c-2.6-1-5.21-2.07-7.8-3.14l-2.19-.91c-1.06-.45-2.13-.9-3.2-1.33-.55-.22-1.15-.53-1.8-.86a11.78,11.78,0,0,0-3.38-1.34l-41.58-1.21-45,3L201,140.71Z"/><path d="M339.37,171.27c-35.43,0-91.69-8.09-128.63-24H196.51a1.62,1.62,0,0,1,0-3.24h14.56a1.57,1.57,0,0,1,.64.14c48.85,21.09,137.67,29,155.68,20.49,1.43-.67,2.33-1.44,2.54-2.15a1.62,1.62,0,0,1,3.11.91c-.49,1.66-1.93,3.06-4.28,4.17C363.6,170.07,353,171.27,339.37,171.27Z"/><path class="cls-6" d="M333,144.77c27.15,17.42,8.66,21.93-9.18,9.39,5.6,13.61-17.49,10.55-18.39-2.14-1.55,13.71-26.8,10.32-20.84.27-22.93,9.5-46.8-4.16-5.23-7.46"/><path d="M318.51,164.67a15.17,15.17,0,0,1-5.09-.94,15.33,15.33,0,0,1-8.15-6.61,12.37,12.37,0,0,1-7.25,5c-5.66,1.57-12.13.13-14.74-3.28a5.76,5.76,0,0,1-1.23-3.85c-11.58,3.82-22.56,2.32-25.82-.78a3.37,3.37,0,0,1-1-3.68c1.3-3.67,9.38-6.12,24-7.28a1.62,1.62,0,1,1,.26,3.22c-19.61,1.56-21.23,5.12-21.23,5.15s.32.46,1.26.91c3.89,1.89,14.05,2.6,24.45-1.7a1.62,1.62,0,0,1,2,2.32c-.87,1.46-.9,2.68-.11,3.72,1.8,2.36,7,3.33,11.31,2.14,2.25-.63,6.1-2.38,6.64-7.14a1.62,1.62,0,0,1,3.22.07c.33,4.6,4.09,7.55,7.5,8.78,3.19,1.15,6.38.95,7.75-.48s.74-3.71,0-5.43a1.62,1.62,0,0,1,.49-1.88,1.61,1.61,0,0,1,1.94-.06c8.79,6.17,17.13,7.7,19.77,6.43.57-.27.59-.55.6-.71,0-.41-.13-4.17-13-12.43a1.62,1.62,0,1,1,1.75-2.72c9.84,6.31,14.71,11.48,14.48,15.35a4,4,0,0,1-2.43,3.43c-4,1.91-12,0-19.6-4.5a6.22,6.22,0,0,1-1.69,4.75A8.27,8.27,0,0,1,318.51,164.67Z"/><path class="cls-1" d="M196.13,28.31c-34.49.53-69.77,5.77-101.88,18.81-25.42,10.32-51.4,27-62.22,53.39-3.62,8.84-6.5,19.27-4.21,28.8,2.61,10.84,11.17,15,21.57,15.61,21.84,1.3,43.74,1.25,65.62,1.19,27.05-.08,135.2-.08,162.25,0,21.88.06,43.78.11,65.62-1.19,10.39-.61,19-4.77,21.56-15.61,2.3-9.53-.58-20-4.2-28.8C349.41,74.12,323.43,57.44,298,47.12,265.91,34.08,230.63,28.84,196.13,28.31Z"/><path d="M290.69,147.75l-13.44,0c-27.29-.08-134.94-.08-162.23,0-21.5.05-43.73.11-65.73-1.19-12.79-.76-20.54-6.43-23-16.85-2-8.21-.57-18,4.28-29.8,9.35-22.8,30.59-41.06,63.12-54.27,29.46-12,63.94-18.34,102.46-18.93h0c38.52.59,73,7,102.46,18.93,32.53,13.21,53.76,31.47,63.11,54.27,4.86,11.84,6.26,21.59,4.29,29.8-2.51,10.42-10.26,16.09-23,16.85C325.53,147.57,307.94,147.75,290.69,147.75Zm-94.56-3.32c33.74,0,67.48,0,81.13.06,21.45,0,43.62.12,65.53-1.18,11.19-.67,17.95-5.5,20.08-14.37,1.81-7.53.46-16.63-4.13-27.82-9-22-29.65-39.63-61.34-52.5C268.32,36.8,234.24,30.51,196.13,29.93,158,30.51,124,36.8,94.86,48.62c-31.69,12.87-52.32,30.54-61.33,52.5-4.59,11.19-5.94,20.29-4.13,27.82,2.13,8.87,8.89,13.7,20.08,14.37,21.9,1.3,44.08,1.23,65.53,1.18C128.65,144.45,162.39,144.43,196.13,144.43Z"/><path class="cls-7" d="M237,65c-2.49,2-4.24,1-5.69-.75s-2-3.7.45-5.72,9.62-2.43,9.62-2.43S239.52,63,237,65Z"/><path class="cls-7" d="M203.4,89.78c.88,3.08-.7,4.31-2.91,4.94s-4.2.44-5.09-2.64,1.51-9.8,1.51-9.8S202.51,86.7,203.4,89.78Z"/><path class="cls-7" d="M135.87,84.57c-1.16,3-3.16,3-5.31,2.17s-3.61-2.19-2.46-5.17,7.13-6.9,7.13-6.9S137,81.58,135.87,84.57Z"/><path class="cls-7" d="M299.37,78.31c2.13-2.39,4-1.71,5.73-.18s2.62,3.31.49,5.71-9.09,4-9.09,4S297.24,80.71,299.37,78.31Z"/><path class="cls-7" d="M266.32,81.1c2.56,1.92,2,3.85.66,5.69s-3.09,2.89-5.66,1-4.7-8.74-4.7-8.74S263.76,79.17,266.32,81.1Z"/><path class="cls-7" d="M171.69,56.71c-2.95,1.26-4.36-.16-5.27-2.27s-1-4.11,2-5.38,9.91.27,9.91.27S174.63,55.45,171.69,56.71Z"/><path class="cls-7" d="M107.55,59.62c2.49,2,1.89,3.93.44,5.71s-3.19,2.77-5.68.76-4.38-8.9-4.38-8.9S105.06,57.6,107.55,59.62Z"/><path class="cls-7" d="M68.8,90.84c-1.15,3-3.16,3-5.3,2.18S59.88,90.83,61,87.84s7.13-6.9,7.13-6.9S70,87.85,68.8,90.84Z"/><path class="cls-7" d="M332,106.26c1.43,2.86.09,4.36-2,5.38s-4.06,1.2-5.49-1.67-.29-9.92-.29-9.92S330.61,103.39,332,106.26Z"/><path class="cls-7" d="M203.66,45.87c-1.63-2.76-.4-4.34,1.58-5.51s4-1.48,5.59,1.28,1,9.88,1,9.88S205.29,48.63,203.66,45.87Z"/><path class="cls-8" d="M374.47,646.76c.78,0-3.86,16.56-4.49,18.08a69.45,69.45,0,0,1-8.41,14.77c-10.19,13.47-26.47,20.1-42.66,23.5-13.65,2.87-27.67,3.41-41.61,3.81q-50.06,1.47-100.14.77c-31.49-.43-64.33.68-95.45-4.6C70.57,701.21,59.8,697.87,50.09,692c-16.58-10.28-25.52-28-27-47.28"/><path d="M209.18,709.53q-16.06,0-32-.22c-6.14-.09-12.46-.11-18.57-.14-25.54-.1-51.95-.21-77.13-4.49-12.6-2.13-23.13-5.83-32.19-11.29-16-10-26.16-27.65-27.77-48.55l3.21-.24c1.54,19.86,11.1,36.63,26.25,46,8.68,5.25,18.84,8.8,31,10.87,24.91,4.23,51.19,4.34,76.6,4.44,6.12,0,12.44,0,18.6.14,33.22.46,66.88.2,100.07-.77,14.82-.43,28.15-1,41.33-3.78,19.5-4.09,33.15-11.58,41.71-22.89a67.63,67.63,0,0,0,8.2-14.42c.66-1.57,4.47-15.54,4.45-17.18a1.36,1.36,0,0,0,.45.9l1.08-1.13-.06-1.66,1.43.72c.48.69.77,1.11-1.61,10.08-1,3.74-2.36,8.56-2.76,9.51a71.16,71.16,0,0,1-8.61,15.13c-8.93,11.79-23.6,19.9-43.62,24.1-13.43,2.82-26.92,3.41-41.9,3.85C254.75,709.2,231.92,709.53,209.18,709.53Z"/><path class="cls-9" d="M25.63,619.65,12,635.37c13.8,20.53,96.47,30.83,187.07,10.54,30,16.37,66.77,17,102.73-.32,28.95,21,56.84,17.2,83.78-8.94l-16.47-17.21"/><path d="M338.79,660.71q-18.46,0-37.13-13.26c-17.59,8.32-35.5,12.53-53.24,12.53h-.21a103.25,103.25,0,0,1-49.35-12.36c-41.69,9.28-85.07,12.81-122.22,9.94-34.11-2.64-58.76-10.6-65.95-21.29l-.69-1,14.41-16.66,2.44,2.11L14.09,635.45c7.52,9.39,30.78,16.42,62.8,18.89,37,2.86,80.29-.69,121.86-10l.59-.14.54.3c30.32,16.57,66.28,16.44,101.25-.37l.87-.42.78.57c13.94,10.13,27.92,14.48,41.51,12.92,13-1.48,26.14-8.41,39-20.6l-15.35-16,2.33-2.23,17.58,18.37-1.15,1.11C371,653.07,355,660.71,338.79,660.71Z"/><path class="cls-10" d="M52,571.29l152.4-11.72,77.76,1.24L345,579.39c8.52,1.19,15.09,4.66,21.39,11.58,6,6.61,4.95,27.12,3.33,28.68H272.45"/><path d="M369.74,621.26H272.45a1.62,1.62,0,1,1,0-3.23h96.27c1-3.82,1.47-20.5-3.5-26-6-6.6-12.12-9.92-20.42-11.08a1,1,0,0,1-.24-.05l-62.68-18.51-77.46-1.24L52.09,572.9a1.61,1.61,0,1,1-.25-3.21L204.25,558h.15l77.76,1.24a1.61,1.61,0,0,1,.43.07l62.77,18.54c8.94,1.28,15.8,5,22.24,12.09s5.68,28.59,3.26,30.92A1.61,1.61,0,0,1,369.74,621.26Zm-1.24-2.62Z"/><path class="cls-10" d="M52,571.29c-8.52,1.12-17.29,2.29-23.6,8.75-11,11.27-7,26.55-2.62,39.61H277.49"/><path d="M277.49,621.26H25.75a1.6,1.6,0,0,1-1.53-1.1c-4.63-13.72-8.59-29.37,3-41.24,6.73-6.9,16.19-8.14,24.54-9.23a1.62,1.62,0,0,1,.42,3.21c-8.21,1.07-16.7,2.17-22.65,8.27-10,10.27-6.78,24.31-2.62,36.86H277.49a1.62,1.62,0,0,1,0,3.23Z"/><path class="cls-11" d="M357.88,583.93c-68.4,11.54-98.26,48-113.94,57.29-63.54-47.33-147.41-61.76-212.45-64,2.53-7.36,28.75-14,41.48-10.76l190.2-6.88,78.37,16.6C348.27,577.9,353.91,580.36,357.88,583.93Z"/><path d="M243.84,643.16l-.86-.65c-36.2-27-102.29-59.9-211.55-63.69l-2.17-.07.7-2.06c2.95-8.6,30.29-15,43.17-11.86L263.31,558l.19,0,78.37,16.6c7.6,1.95,13.17,4.61,17.09,8.15l2.47,2.23-3.29.56c-53,8.93-82.78,33.07-100.58,47.49-5.17,4.19-9.26,7.5-12.8,9.59ZM34.51,575.71C142,580,207.61,612.41,244,639.28a139.87,139.87,0,0,0,11.5-8.77c17.64-14.29,46.89-38,98.46-47.53a42.75,42.75,0,0,0-12.85-5.25L263,561.19,72.79,568.08l-.22-.06C61.26,565.15,40.47,570.35,34.51,575.71Z"/><path class="cls-9" d="M372.76,539.23l15,16c-26.37,26.14-81.62,30-110,8.94-35.21,17.28-43.31,16.69-72.64.32C116.43,584.82,35.5,574.52,22,554l14.39-15.84,18.45-6.59L223,528.76l134.66,4Z"/><path d="M325,579.37c-18.47,0-35.36-4.69-47.4-13.29-34,16.6-43.17,16.6-72.72.16-40.83,9.28-83.3,12.81-119.66,9.94-33.41-2.64-57.56-10.6-64.61-21.3l-.69-1,15.51-17.06L54.53,530h.27L223,527.15l135,4,15.71,6.72L390,555.32l-1.11,1.1C376.12,569.07,356,577.31,333.63,579Q329.28,579.37,325,579.37Zm-47.07-17,.79.59c27.64,20.5,80.91,16.5,106.75-7.7l-13.67-14.63-14.52-6.21-134.36-4L55.12,533.16l-17.83,6.38L24.05,554.11c7.38,9.37,30.13,16.38,61.44,18.85,36.22,2.86,78.59-.69,119.29-10l.61-.14.54.3c14.51,8.11,23.65,12.22,33.33,12.26h.11c10.08,0,21-4.44,37.7-12.62Z"/><path class="cls-12" d="M217.27,532.49s-5.18,1.7-5.52,1.78c-4.24,1-8.53,1.86-12.82,2.66-13.51,2.5-27.12,4.48-40.75,6.19-16.53,2.06-33.12,3.69-49.75,4.57-15.06.81-30.3,1.17-45.33-.38-8.79-.91-20.85-2-27.5-8.69-4-4-3.64-9.51-.4-14.15,2.42-3.46,5-6.41,8.8-8.17,1.85-.87,5.7-3.72,7.74-3.64l151.7,5.44Z"/><path d="M85.92,550a226.38,226.38,0,0,1-23-1.08l-.53-.06c-8.88-.91-21-2.16-28-9.1-4.32-4.33-4.54-10.54-.58-16.22,2.2-3.14,5-6.64,9.44-8.7.48-.23,1.19-.65,1.95-1.1,2.17-1.3,4.64-2.77,6.54-2.7h0l151.7,5.45.65,0,14.29,14.86-1.16,1.13.48,1.52-.35.12c-4.56,1.49-5.12,1.66-5.28,1.7-4.41,1.08-9,1.94-12.91,2.67-12.28,2.28-25.64,4.3-40.84,6.21C140.3,547,124,548.48,108.52,549.3,101.51,549.68,93.86,550,85.92,550ZM51.65,514.27c-1,0-3.33,1.4-4.74,2.24-.86.51-1.6,1-2.23,1.25-3.71,1.74-6.2,4.83-8.16,7.63-3.06,4.38-3,8.9.22,12.09,6.11,6.13,17.61,7.31,26,8.17l.53.06c15.66,1.61,31.57,1.09,45.08.37,15.39-.82,31.63-2.31,49.63-4.57,15.14-1.89,28.44-3.91,40.66-6.17,4.07-.75,8.4-1.58,12.72-2.63l3-1-11.6-12.06-151-5.42Z"/><path d="M95.31,538.82c-17.26,0-56.64-1.16-61.79-11.49a1.61,1.61,0,1,1,2.89-1.44C39,531,59.41,536,99.32,535.57c36.61-.41,75.33-5.45,101.05-13.15a1.61,1.61,0,0,1,.93,3.09c-26,7.79-65.05,12.88-102,13.28C98.21,538.81,96.85,538.82,95.31,538.82Z"/><path class="cls-13" d="M71.26,520.71c-6.8,8.63,5.75,12.72,19.25,3.59-4.73,12.15,16.22,9.5,20.09-.47,4.1,9,21.92,4.51,21.71-2.51"/><path d="M96.26,534c-3,0-5.39-.92-6.78-2.65a6,6,0,0,1-1.28-3.78c-8.44,4.56-16.08,4.32-19.07,1.1-1-1.09-2.95-4.14.87-9a1.61,1.61,0,1,1,2.53,2c-.94,1.19-2.33,3.4-1,4.78,2,2.19,9.65,2.19,18.11-3.53A1.62,1.62,0,0,1,92,524.88c-.53,1.38-1,3.27,0,4.46s3.41,1.73,6.29,1.29c4.07-.63,9.18-3.21,10.81-7.38a1.6,1.6,0,0,1,1.45-1,1.57,1.57,0,0,1,1.52.94c1.81,4,7.12,4.69,11.59,3.65,4.14-1,7.1-3.25,7-5.45a1.62,1.62,0,0,1,1.57-1.66h0a1.62,1.62,0,0,1,1.62,1.57c.13,4.44-4.7,7.56-9.54,8.69s-10.43.48-13.65-3c-2.74,3.88-7.69,6.22-12,6.88A17.29,17.29,0,0,1,96.26,534Z"/><path class="cls-12" d="M196.4,519.17c4.8,7.16,14.94,11.31,22.45,14.74a289.72,289.72,0,0,0,42.06,14.87c10.71,3,21.63,5.35,32.55,7.37,15.65,2.9,31.68,5.23,47.63,4.88,9.75-.21,25.65-1,30.49-11.4a15.18,15.18,0,0,0,1-8.48c-.92-6.63-4.66-10.74-10.38-14a192,192,0,0,0-22.81-10.5c-3.89-1.56-7.8-3.09-11.68-4.69-1.8-.74-3.58-1.51-5.39-2.24-1.56-.63-4-2.26-5.72-2.31l-41.55-1.21-45,3-30.26,3.43Z"/><path d="M337.89,562.68c-15.82,0-31.41-2.47-44.72-4.94-12.69-2.35-23.08-4.71-32.69-7.4-16.83-4.73-30.27-9.48-42.3-15l-1.81-.81c-7.41-3.35-16.63-7.51-21.31-14.5l-.53-.8,4.27-8.08,31.1-3.53,45.14-3h.08l41.55,1.21a12.32,12.32,0,0,1,4.73,1.68c.58.3,1.13.57,1.55.74l3.19,1.33,2.21.92c2.59,1.07,5.2,2.11,7.81,3.15l3.85,1.54a195.38,195.38,0,0,1,23,10.58c6.73,3.8,10.28,8.62,11.19,15.16a16.68,16.68,0,0,1-1.16,9.38c-5.46,11.75-23.33,12.15-31.91,12.33C340.05,562.67,339,562.68,337.89,562.68ZM198.3,519c4.34,5.78,12.66,9.53,19.4,12.57l1.82.83c11.87,5.41,25.16,10.11,41.83,14.79,9.51,2.67,19.81,5,32.41,7.33,14.06,2.61,30.67,5.23,47.3,4.86,7.93-.18,24.44-.54,29.05-10.47a13.41,13.41,0,0,0,.89-7.58c-.77-5.53-3.72-9.48-9.58-12.79a190.92,190.92,0,0,0-22.61-10.4L335,516.65c-2.62-1-5.24-2.09-7.85-3.17l-2.23-.93c-1.05-.44-2.1-.88-3.15-1.3-.55-.23-1.16-.53-1.8-.86a11.73,11.73,0,0,0-3.37-1.34l-41.47-1.2-44.91,3-29.33,3.32Z"/><path d="M338.88,544.67c-35.33,0-91.45-8.07-128.28-23.89H196.4a1.62,1.62,0,0,1,0-3.23h14.53a1.74,1.74,0,0,1,.64.13c48.72,21,137.3,28.89,155.25,20.44,1.43-.67,2.33-1.43,2.54-2.14a1.61,1.61,0,1,1,3.09.9c-.48,1.66-1.91,3.06-4.26,4.16C363.05,543.47,352.51,544.67,338.88,544.67Z"/><path class="cls-13" d="M332.5,518.24c27.08,17.37,8.65,21.87-9.15,9.36,5.59,13.58-17.44,10.53-18.34-2.13-1.55,13.67-26.72,10.29-20.78.27-22.87,9.47-46.67-4.15-5.22-7.44"/><path d="M318.08,538.08a15.09,15.09,0,0,1-5.08-.93,15.3,15.3,0,0,1-8.12-6.6,12.37,12.37,0,0,1-7.24,5c-5.64,1.56-12.1.12-14.7-3.28a5.83,5.83,0,0,1-1.23-3.84c-11.54,3.81-22.5,2.31-25.75-.78a3.36,3.36,0,0,1-1-3.66c1.29-3.67,9.35-6.11,24-7.27a1.61,1.61,0,0,1,.25,3.22C259.58,521.46,258,525,258,525a3.06,3.06,0,0,0,1.26.91c3.88,1.88,14,2.59,24.39-1.7a1.61,1.61,0,0,1,2,2.31c-.87,1.46-.9,2.68-.11,3.72,1.79,2.35,7,3.32,11.27,2.12,2.25-.62,6.09-2.37,6.63-7.11a1.61,1.61,0,0,1,3.21.07c.33,4.58,4.07,7.52,7.47,8.75,3.19,1.15,6.37.95,7.74-.48s.74-3.7,0-5.41a1.63,1.63,0,0,1,.49-1.88,1.61,1.61,0,0,1,1.93-.06c8.77,6.16,17.08,7.69,19.72,6.42.57-.27.58-.55.59-.71,0-.4-.13-4.16-13-12.39a1.61,1.61,0,0,1,1.74-2.72c9.82,6.3,14.68,11.45,14.44,15.3a4,4,0,0,1-2.41,3.43c-4,1.9-11.93,0-19.56-4.49a6.2,6.2,0,0,1-1.68,4.74A8.25,8.25,0,0,1,318.08,538.08Z"/><path class="cls-8" d="M196,402.09c-34.4.53-69.59,5.76-101.6,18.76-25.35,10.3-51.27,26.93-62.06,53.25-3.61,8.81-6.48,19.21-4.19,28.72,2.59,10.81,11.14,14.95,21.5,15.57,21.79,1.29,43.63,1.24,65.45,1.18,27-.07,134.83-.07,161.8,0,21.83.06,43.67.11,65.45-1.18,10.37-.62,18.91-4.76,21.51-15.57,2.28-9.51-.58-19.91-4.2-28.72-10.79-26.32-36.7-43-62.06-53.25C265.62,407.85,230.44,402.62,196,402.09Z"/><path d="M290.25,521.21c-4.46,0-8.91,0-13.32,0-27.22-.07-134.58-.07-161.8,0-21.44.06-43.62.12-65.55-1.18-12.57-.75-20.51-6.55-23-16.8-2-8.19-.57-17.91,4.27-29.72,9.33-22.74,30.5-41,62.94-54.13,29.39-11.93,63.77-18.28,102.19-18.87h.05c38.41.59,72.79,6.94,102.18,18.87,32.44,13.18,53.62,31.39,62.94,54.13,4.85,11.81,6.24,21.53,4.27,29.72-2.46,10.25-10.4,16.05-23,16.8C325.06,521,307.49,521.21,290.25,521.21ZM196,517.9c33.65,0,67.3,0,80.91.06,21.39,0,43.52.11,65.35-1.18,11.16-.66,17.9-5.49,20-14.33,1.8-7.51.45-16.58-4.12-27.74-9-21.91-29.57-39.53-61.17-52.36-29-11.79-63-18.06-101-18.64-38,.58-72,6.85-101,18.64-31.61,12.83-52.19,30.45-61.18,52.36-4.57,11.16-5.92,20.23-4.11,27.74,2.12,8.84,8.86,13.67,20,14.33C71.6,518.07,93.72,518,115.12,518,128.73,517.92,162.38,517.9,196,517.9Z"/><path class="cls-14" d="M236.81,444.77c-2.48,2-4.22,1-5.66-.76s-2-3.69.44-5.7,9.59-2.42,9.59-2.42S239.3,442.76,236.81,444.77Z"/><path class="cls-14" d="M198.65,460.15c.88,3.07-.7,4.29-2.91,4.93s-4.19.44-5.07-2.63,1.5-9.78,1.5-9.78S197.76,457.08,198.65,460.15Z"/><path class="cls-14" d="M135.93,458.2c-1.16,3-3.15,3-5.29,2.17s-3.61-2.18-2.46-5.17,7.11-6.88,7.11-6.88S137.08,455.22,135.93,458.2Z"/><path class="cls-14" d="M299,452c2.12-2.39,4-1.71,5.71-.19s2.62,3.31.49,5.7-9.06,4-9.06,4S296.87,454.35,299,452Z"/><path class="cls-14" d="M266,454.74c2.55,1.91,2,3.84.65,5.68s-3.08,2.87-5.63,1-4.7-8.71-4.7-8.71S263.47,452.82,266,454.74Z"/><path class="cls-14" d="M171.65,430.42c-2.93,1.26-4.34-.16-5.25-2.27s-1-4.1,2-5.36,9.89.27,9.89.27S174.59,429.16,171.65,430.42Z"/><path class="cls-14" d="M107.68,433.32c2.49,2,1.89,3.92.45,5.7s-3.19,2.76-5.67.75-4.37-8.88-4.37-8.88S105.2,431.31,107.68,433.32Z"/><path class="cls-14" d="M69,464.45c-1.15,3-3.15,3-5.28,2.17s-3.61-2.18-2.46-5.16,7.11-6.88,7.11-6.88S70.2,461.47,69,464.45Z"/><path class="cls-14" d="M331.57,479.83c1.43,2.86.09,4.34-2,5.37s-4,1.19-5.47-1.67-.29-9.89-.29-9.89S330.15,477,331.57,479.83Z"/><path class="cls-14" d="M203.54,419.61c-1.62-2.76-.4-4.34,1.58-5.5s3.95-1.47,5.57,1.28,1,9.85,1,9.85S205.16,422.36,203.54,419.61Z"/></g><g id="Layer_4" data-name="Layer 4"><path class="cls-15" d="M204.52,236.2a37.94,37.94,0,0,1,6.58,1.56c.53.18,1.06.38,1.59.58.26.1,1.09.41.06,0l.69.3c1,.47,2,1,3,1.54,4.1,2.33,7.84,5.28,11.88,7.72,2.06,1.24,4.15,2.43,6.25,3.6a48.36,48.36,0,0,0,7.09,3.63c3.48,1.23,6.66,0,9.29-2.32.79-.71,1.57-1.43,2.38-2.12l1.09-.91.55-.44.55-.44-.42.32c-.11-.14,5.39-3.59,5.91-3.88s1.13-.6,1.71-.89l.64-.3c.13-.06,1.23-.55.54-.25s.08,0,.23-.09l1-.37c.61-.22,1.23-.41,1.85-.59a4.86,4.86,0,1,0-2.59-9.37,42.68,42.68,0,0,0-12,5.8c-2,1.34-3.82,2.8-5.63,4.32-.77.65-1.52,1.31-2.26,2-.19.17-1.55,1.29-.5.46-.28.23-.71.2.22-.05l.57-.06c-.46,0-.48,0-.08,0,.82.22-.41-.17-.43-.19s1,.49.11,0l-1.38-.74c-1.05-.58-2.11-1.15-3.16-1.74-2.1-1.16-4.2-2.35-6.26-3.59-3.95-2.37-7.6-5.19-11.56-7.54a41.19,41.19,0,0,0-14.91-5.35,5.29,5.29,0,0,0-3.74.49,5,5,0,0,0-2.23,2.9c-.52,2.3.71,5.57,3.39,6Z"/><path class="cls-16" d="M33.76,242.11a52.86,52.86,0,0,1,6.14-1.85c1-.23,2-.43,2.93-.61l1.47-.25c.1,0,.73-.13.74-.11s-1.08.14,0,0a83.9,83.9,0,0,1,12.38-.5C66,239,74.46,240.16,83,241a141.81,141.81,0,0,0,26,.25c8.87-.78,17.74-2.08,26.67-1.77,1.26.05,2.53.12,3.79.24.6,0,1.19.12,1.79.19.95.11.07,0-.09,0a6.64,6.64,0,0,1,1,.15c2.44.39,4.86.92,7.29,1.39,5.59,1.09,11.07,1.77,16.73.8,2.51-.42,4.14-3.65,3.39-6a5,5,0,0,0-6-3.39c-.26,0-.52.1-.78.13,1.08-.12.34-.05.11,0-.52,0-1,.08-1.57.1a34.6,34.6,0,0,1-3.53-.1c-.53,0-1.05-.1-1.58-.16-.23,0-.95-.06.11,0-.26,0-.53-.08-.78-.12-1.12-.17-2.24-.38-3.35-.59a117.32,117.32,0,0,0-13.95-2.2c-8.9-.65-17.8.53-26.64,1.39-4.46.43-8.94.79-13.42.81-4.23,0-8.46-.23-12.67-.59-8.52-.73-17-1.92-25.56-2.31-9.65-.45-19.58.21-28.72,3.58-2.37.88-4.24,3.33-3.39,6,.76,2.33,3.42,4.33,6,3.39Z"/><path class="cls-16" d="M363.73,232.69a53.06,53.06,0,0,0-7.64-.7c-1.69,0-3.37.11-5,.16a27.07,27.07,0,0,1-6.17-.31c.16,0,1,.15.09,0l-.58-.08-.65-.1c-1.1-.14-2.19-.29-3.28-.41a49.27,49.27,0,0,0-9.23-.67c-1.57.12-3.14.37-4.7.64l-1.91.32c-.21,0-.9.18.08,0a11.21,11.21,0,0,1-1.15.12,39,39,0,0,1-6.39-.31,40.92,40.92,0,0,0-6.16-.27,36.32,36.32,0,0,0-8.52,1.54,4.64,4.64,0,1,0,2.47,9,37.08,37.08,0,0,1,3.63-.92l.65-.12c.23,0,1,0,.33-.06s.08,0,.29,0l.87-.07a35.53,35.53,0,0,1,5.36.16c1.9.17,3.8.4,5.71.45a42.81,42.81,0,0,0,8.35-1c1.28-.23-1,.06.31,0l.78-.08a11.34,11.34,0,0,1,1.16,0c.61,0,1.23,0,1.84.09,1.67.12,3.34.29,5,.48l2.12.24,1,.13c-1.79-.2-.71-.1-.29,0a54,54,0,0,0,7.28.71c1.87,0,3.73-.11,5.6-.15,1.06,0,2.12,0,3.19,0,.59,0,1.19.08,1.78.14l.7.08c.53.06.49.06-.11,0l.79.11a5,5,0,0,0,3.57-.46A4.77,4.77,0,0,0,367,238.4c.5-2.21-.68-5.32-3.24-5.71Z"/><path class="cls-17" d="M367.34,258.63c-3.09,2.1-6.17,4.24-9.43,6.08-.74.42-1.5.83-2.27,1.21-.43.22-.86.42-1.3.62a2.65,2.65,0,0,1-.65.29c.27,0,.73-.29.15-.08a29.85,29.85,0,0,1-5.42,1.43,33.75,33.75,0,0,0-5.67,1.47,39,39,0,0,1-5.39,1.64c-.53.11.39-.06.42-.06a3.15,3.15,0,0,0-.67.06c-.44,0-.89,0-1.33,0s-.78,0-1.17-.05l-.49,0c-1.14-.1,1.05.21-.07,0-.77-.15-1.54-.31-2.29-.53-.43-.13-.87-.27-1.29-.42l-.48-.18c-.57-.21-.53-.14,0,0a20.84,20.84,0,0,1-5.19-2.9c-.44-.3-.88-.61-1.3-.92-.13-.1-.76-.52-.23-.17s-.32-.27-.36-.3c-.82-.67-1.61-1.38-2.38-2.1a4.71,4.71,0,0,0-6.66,6.66c6,5.65,13.85,10.53,22.4,10.36a22.67,22.67,0,0,0,6.53-1.13c1.88-.63,3.71-1.43,5.65-1.89s4.11-.66,6.11-1.27a39.93,39.93,0,0,0,6.15-2.57,104.74,104.74,0,0,0,11.38-7.13c2-1.38,3.13-4.2,1.68-6.44-1.3-2-4.26-3.17-6.44-1.69Z"/><path class="cls-17" d="M26.11,263.27l25.06,8.6a88.38,88.38,0,0,0,12,3.47,74.68,74.68,0,0,0,13.68,1.14c4.24,0,8.47-.17,12.71-.09a113.33,113.33,0,0,1,12.61,1.11A105.37,105.37,0,0,0,115,278.67a89.86,89.86,0,0,0,13.61-1.2c9.81-1.43,19.59-3.05,29.37-4.59,2.52-.39,4.14-3.67,3.4-6-.89-2.73-3.28-3.81-6-3.39l-25.95,4.06c-.94.15-1.88.3-2.81.43l-1.61.24c-.22,0-1,.15.08,0-.33.05-.67.08-1,.12-2.08.26-4.17.46-6.26.55a73.88,73.88,0,0,1-12.43-.71c-4.19-.52-8.37-1.16-12.58-1.4s-8.47-.11-12.7-.05a99.52,99.52,0,0,1-12.45-.46c-.93-.11-.07,0,.1,0a6.84,6.84,0,0,1-.79-.12l-1.38-.24c-1.11-.22-2.2-.47-3.29-.76-2-.52-4-1.13-5.91-1.78-9.26-3.08-18.47-6.32-27.7-9.49a4.89,4.89,0,0,0-6,3.39,5,5,0,0,0,3.39,6Z"/><path class="cls-17" d="M157.25,191.73a211.89,211.89,0,0,0,38.44-6.38c3-.78,5.93-1.64,8.87-2.55.71-.23,1.42-.46,2.14-.64.22-.06.86-.32,1.08-.24-.45-.15-.8,0-.21,0,.18,0,.92-.13,1.06,0l-.59-.07a5.76,5.76,0,0,1,.68.19l-.54-.21a6.42,6.42,0,0,1,.56.34c-.55-.43-.62-.48-.22-.14.16.15.32.3.47.46a63.51,63.51,0,0,0,5.55,5.33,45.71,45.71,0,0,0,7.46,4.94,45.18,45.18,0,0,0,18.88,5,4.89,4.89,0,0,0,4.85-4.86,5,5,0,0,0-4.85-4.85c-.67,0-1.35-.07-2-.13l-1-.1c-1.17-.12,1.13.19,0,0s-2.64-.47-3.94-.81-2.37-.68-3.53-1.1l-.94-.35c-.3-.12-1.29-.32-.08,0a9.88,9.88,0,0,1-2-.92c-1.15-.57-2.28-1.2-3.37-1.88-.52-.33-1-.67-1.54-1-.23-.16-.46-.32-.68-.49s-.37-.26-.54-.4q.79.63.18.15c-2.1-1.72-3.83-3.7-5.78-5.57A11.19,11.19,0,0,0,211,172.6a12.8,12.8,0,0,0-6.12,0c-3,.63-6,1.79-9,2.63-6,1.68-12.19,3.09-18.37,4.21q-2.56.47-5.15.87l-2.77.41-.8.11c1.28-.14-.47.06-.7.09-3.58.45-7.17.8-10.78,1.07-2.52.19-5,2.1-4.85,4.85.11,2.47,2.14,5.06,4.85,4.86Z"/><path class="cls-18" d="M360.71,128.48a40.87,40.87,0,0,0-.89-17.15,58.63,58.63,0,0,0-6.45-14.84A95.16,95.16,0,0,0,334,73.73c-15.91-13.8-35.17-22.84-55.18-29a358.81,358.81,0,0,0-36.63-8.8c-2.49-.48-5.36.71-6,3.39-.55,2.41.72,5.46,3.39,6,10.66,2.08,21.29,4.38,31.74,7.35,5.15,1.47,10.26,3.1,15.28,4.94,1.23.45,2.45.91,3.67,1.39l1.82.72,1.08.45c.24.1,1.34.55.29.11,2.36,1,4.68,2.05,7,3.16a136.23,136.23,0,0,1,12.27,6.71q3,1.88,6,3.93c.88.61,1.75,1.24,2.62,1.88l1.36,1c.24.18.92.62,0,0,.28.19.54.42.8.63A106.27,106.27,0,0,1,334,87.14q2.34,2.44,4.5,5l1.07,1.32c.21.26.44.52.63.79-.08-.1-.66-.86-.14-.17.75,1,1.48,2,2.19,3a68.08,68.08,0,0,1,4.37,7.11c.69,1.3,1.31,2.62,1.92,4,.1.22.42.81-.06-.15a12.08,12.08,0,0,1,.47,1.18c.24.63.47,1.25.68,1.89.46,1.37.86,2.76,1.19,4.17.14.64.27,1.29.39,1.93l.15.89c.19,1.1-.08-.9,0,.13a38.1,38.1,0,0,1,.22,4.28c0,.71,0,1.43-.1,2.14,0,.24-.05.48-.07.72-.06.55-.05.48,0-.22,0,.24-.07.48-.11.72a5.34,5.34,0,0,0,.49,3.74,5,5,0,0,0,2.9,2.23c2.34.53,5.55-.71,6-3.39Z"/><path class="cls-6" d="M352.42,163.38c.73.7,1.47,1.41,2.16,2.16l.6.68c.39.45-.08,0-.15-.2a8.6,8.6,0,0,0,.77,1.19,6.31,6.31,0,0,0,.38.73c-.12-.15-.33-.88-.14-.31s.25.86.36,1.29c.23.91,0-1.06,0-.13,0,.17,0,.35,0,.53a5.09,5.09,0,0,0,0,.78c-.05-.3.19-1,0-.27,0,.21-.11.42-.17.64-.2.75.36-.67.11-.19s-.39.68-.59,1,.76-.83.18-.25c-.15.14-.28.29-.42.44a4.49,4.49,0,0,0-.46.41c.18-.24.82-.59.21-.18-.35.24-.73.42-1.1.63s1-.33.25-.1l-.61.2-.63.15c-.76.21.84,0,.29,0a13.83,13.83,0,0,1-1.44,0,4.47,4.47,0,0,0-4.46,4.46,4.56,4.56,0,0,0,4.46,4.46c5.66.39,11.5-3.49,12.93-9a13.4,13.4,0,0,0-1.07-9,22.13,22.13,0,0,0-5.15-6.37,4.46,4.46,0,0,0-6.31,6.31Z"/><path class="cls-6" d="M46,150.05a9.83,9.83,0,0,0-2.54,11,11.85,11.85,0,0,0,8.09,6.63,4.52,4.52,0,0,0,3.34-.44,4.35,4.35,0,0,0,1.56-5.93,4.48,4.48,0,0,0-2.59-2,9.43,9.43,0,0,1-1.39-.46l1,.44a9.54,9.54,0,0,1-1.88-1.1l.88.68a7.78,7.78,0,0,1-1.25-1.25l.68.88a6.24,6.24,0,0,1-.77-1.32l.44,1a5.07,5.07,0,0,1-.34-1.27l.15,1.15a5.91,5.91,0,0,1,0-1.33l-.15,1.15a5.68,5.68,0,0,1,.4-1.45l-.44,1a6.94,6.94,0,0,1,.79-1.34l-.67.88a6.79,6.79,0,0,1,.78-.83,4.38,4.38,0,0,0,0-6.13,4.42,4.42,0,0,0-6.13,0Z"/><path d="M348.07,171.1a1.62,1.62,0,1,1,0-3.24c8.75,0,15.59-1.37,20.91-4.12a1.62,1.62,0,1,1,1.48,2.88c-5.78,3-13.1,4.45-22.38,4.48Z"/><path d="M66.78,164.3h-.16c-11.49-1.12-20.29-2.22-28.88-6.26a1.61,1.61,0,0,1,1.38-2.92c8.13,3.82,16.29,4.84,27.82,6a1.61,1.61,0,0,1,1.45,1.76A1.63,1.63,0,0,1,66.78,164.3Z"/><path class="cls-18" d="M35.08,295.51c8.63,14.66,24.47,23.16,40.57,27.06,9.25,2.24,18.77,3.21,28.23,4q14.53,1.23,29.1,1.87,16.44.74,32.9.75a4.86,4.86,0,0,0,0-9.71q-28.65,0-57.23-2.23c-4.59-.35-9.18-.73-13.75-1.23l-3.12-.37c-.52-.06-1-.12-1.56-.2,1.08.15.36.05.13,0l-1.17-.17c-2.19-.32-4.38-.69-6.56-1.13a92.73,92.73,0,0,1-12.81-3.44c-.92-.32-1.82-.66-2.72-1l-.61-.25c-.36-.15-1-.19.1,0a8.39,8.39,0,0,1-1.34-.59q-2.53-1.15-5-2.52A58.15,58.15,0,0,1,54.89,303a7.41,7.41,0,0,1-1.31-1c.07.08.88.7.21.16l-.63-.51c-.8-.65-1.58-1.32-2.33-2a46.94,46.94,0,0,1-4.23-4.46c-.17-.2-.33-.42-.51-.62-.38-.47.6.8.07.09-.32-.44-.64-.87-.95-1.32-.62-.88-1.2-1.8-1.75-2.73a4.85,4.85,0,0,0-8.38,4.9Z"/><path class="cls-19" d="M204.4,609.42A37.94,37.94,0,0,1,211,611c.53.18,1.06.37,1.58.58.26.09,1.09.41.06,0l.69.3q1.53.71,3,1.53c4.1,2.33,7.82,5.27,11.85,7.71,2.05,1.24,4.14,2.42,6.23,3.59a49.19,49.19,0,0,0,7.08,3.62c3.47,1.23,6.64,0,9.26-2.32.79-.7,1.56-1.42,2.37-2.11l1.09-.9.55-.45.55-.44-.42.33c-.11-.14,5.37-3.59,5.89-3.87s1.13-.61,1.71-.89l.63-.3c.13-.06,1.24-.55.55-.25s.07,0,.23-.09l1-.37c.61-.22,1.22-.41,1.84-.59a4.84,4.84,0,0,0-2.57-9.34,42.91,42.91,0,0,0-12,5.78c-1.94,1.34-3.81,2.79-5.61,4.31-.76.64-1.51,1.31-2.25,2-.2.18-1.55,1.29-.5.47-.28.22-.71.19.22-.06l.56-.06c-.45,0-.48,0-.07,0,.81.22-.41-.18-.44-.2s.95.49.12,0l-1.38-.73-3.15-1.74c-2.1-1.16-4.18-2.34-6.24-3.58-3.94-2.36-7.58-5.18-11.53-7.52A41.17,41.17,0,0,0,207,600.08a5.31,5.31,0,0,0-3.73.49,4.94,4.94,0,0,0-2.22,2.89c-.53,2.3.7,5.56,3.38,6Z"/><path class="cls-10" d="M32.81,610.65c20.92-7.8,44.11-.19,66.43-.52,14.44-.21,28.89-3.78,43.18-1.73,7.46,1.07,14.94,3.66,22.36,2.33"/><path class="cls-20" d="M34.1,615.32a52.54,52.54,0,0,1,6.12-1.85c1-.23,1.94-.43,2.92-.61l1.47-.25c.1,0,.73-.12.74-.11s-1.08.14,0,0A82.3,82.3,0,0,1,57.71,612c8.52.23,17,1.37,25.45,2.17a141.93,141.93,0,0,0,25.91.25c8.84-.78,17.69-2.08,26.59-1.77,1.26.05,2.52.12,3.78.24.6.05,1.19.12,1.79.19.94.11.06,0-.1,0a6.64,6.64,0,0,1,1,.15c2.44.39,4.85.91,7.27,1.39,5.58,1.08,11.05,1.76,16.69.8,2.5-.43,4.13-3.64,3.38-6a5,5,0,0,0-5.95-3.38c-.26.05-.52.1-.78.13,1.07-.12.33-.05.11,0-.52,0-1,.08-1.57.1a34.48,34.48,0,0,1-3.52-.1l-1.57-.16c-.23,0-.95-.06.11,0-.26,0-.53-.08-.79-.12-1.11-.17-2.23-.38-3.34-.59a116.47,116.47,0,0,0-13.9-2.19c-8.88-.65-17.75.53-26.58,1.38-4.45.43-8.91.79-13.38.81-4.22,0-8.43-.23-12.63-.59-8.5-.72-17-1.91-25.49-2.3-9.63-.45-19.53.21-28.64,3.57-2.37.87-4.24,3.32-3.38,6,.75,2.32,3.41,4.32,6,3.38Z"/><path class="cls-10" d="M361.94,610.39c-8.63-1.35-10.49.44-19.12-.9-1.91-.3-9.35-1.14-11.28-1.08-3.55.12-6.85,1.31-10.4,1.15-6.53-.28-9.89-1.67-17.83.76"/><path class="cls-20" d="M363.23,605.72a52.1,52.1,0,0,0-7.68-.71c-1.68,0-3.35.11-5,.15a24.81,24.81,0,0,1-6.15-.3c.16,0,1.09.16.15,0l-.58-.09-.65-.09q-1.66-.23-3.33-.42a48.91,48.91,0,0,0-9.19-.67c-1.6.12-3.18.38-4.75.65l-1.91.32c-.24,0-.92.2.14,0a8.78,8.78,0,0,1-1.15.11,37.71,37.71,0,0,1-6.37-.3,40.71,40.71,0,0,0-6.14-.27,36.06,36.06,0,0,0-8.56,1.55A4.84,4.84,0,1,0,304.6,615c1.19-.36,2.4-.68,3.62-.92l.65-.12c.12,0,1.18-.16.3-.05s.13,0,.26,0l.86-.08a35.4,35.4,0,0,1,5.35.16c1.9.17,3.79.4,5.7.45a41.82,41.82,0,0,0,8.39-1c1.28-.22-1.06.08.25,0l.78-.07c.38,0,.77,0,1.15,0,.61,0,1.22,0,1.83.09,1.67.12,3.33.3,5,.48l2.12.25,1,.12c-1.88-.22-.79-.11-.34,0a54.47,54.47,0,0,0,7.32.71c1.86,0,3.71-.11,5.57-.15,1.07,0,2.13,0,3.19,0,.59,0,1.18.08,1.77.14l.7.08c.55.06.49,0-.17,0l.79.11a5.25,5.25,0,0,0,3.73-.48,4.91,4.91,0,0,0,2.23-2.9c.52-2.3-.71-5.55-3.38-5.95Z"/><path class="cls-9" d="M369.15,635.85c-5.07,3.44-11.31,7.86-17.16,9.42-1.87.5-3.8.65-5.67,1.13-2.39.61-4.64,1.73-7,2.31-8.07,1.93-16.32-2.67-22.5-8.52"/><path class="cls-21" d="M366.7,631.66c-3.08,2.1-6.15,4.24-9.4,6.07-.74.42-1.5.83-2.26,1.21-.43.21-.86.42-1.3.61a3.87,3.87,0,0,0-.65.29c.21-.18.78-.31.18-.09a28.82,28.82,0,0,1-5.4,1.42,33,33,0,0,0-5.65,1.47,39.32,39.32,0,0,1-5.39,1.63c-.53.11.45-.06.46-.06a3.77,3.77,0,0,0-.66.06c-.45,0-.89.05-1.33,0s-.78,0-1.16,0l-.5,0c-1.15-.1,1.1.21,0,0-.77-.15-1.53-.31-2.28-.53l-1.29-.42-.48-.18c-.61-.23-.48-.1.05,0a12,12,0,0,1-2.64-1.31c-.87-.49-1.72-1-2.54-1.58-.44-.3-.87-.6-1.3-.92-.13-.1-.76-.54-.21-.16s-.3-.25-.34-.28c-.82-.67-1.61-1.38-2.38-2.1a4.84,4.84,0,1,0-6.84,6.85c6,5.66,13.88,10.54,22.44,10.37a22.19,22.19,0,0,0,6.55-1.13c1.88-.62,3.7-1.43,5.63-1.88s4.1-.66,6.09-1.27a39.33,39.33,0,0,0,6.18-2.58,106.52,106.52,0,0,0,11.34-7.1c2.09-1.43,3.22-4.33,1.74-6.63-1.34-2.08-4.39-3.26-6.63-1.74Z"/><path class="cls-9" d="M27.75,631.75l24.44,8.38a88.59,88.59,0,0,0,13,3.72c9.35,1.69,19,.35,28.45,1,7.19.46,14.3,2,21.51,2.11a100.53,100.53,0,0,0,16.49-1.67l25.09-3.92"/><path class="cls-21" d="M26.47,636.42l25,8.57a87.93,87.93,0,0,0,12,3.46,74.25,74.25,0,0,0,13.64,1.14c4.23,0,8.45-.16,12.67-.08a112.78,112.78,0,0,1,12.58,1.1,104.87,104.87,0,0,0,12.75,1.16,88.18,88.18,0,0,0,13.57-1.2c9.78-1.42,19.53-3,29.3-4.57,2.51-.39,4.12-3.66,3.38-6-.89-2.73-3.27-3.8-6-3.38l-25.88,4.05-2.81.43-1.6.23c-.22,0-.95.15.08,0l-1,.13c-2.08.25-4.16.45-6.25.54a74.58,74.58,0,0,1-12.4-.7c-4.17-.52-8.34-1.16-12.54-1.4s-8.45-.11-12.67-.05a98.81,98.81,0,0,1-12.41-.46c-.94-.11-.07,0,.1,0a7,7,0,0,1-.8-.12c-.46-.07-.91-.16-1.37-.24-1.1-.22-2.2-.47-3.28-.76-2-.51-4-1.13-5.89-1.77-9.24-3.07-18.42-6.31-27.63-9.47a4.88,4.88,0,0,0-6,3.38,5,5,0,0,0,3.39,6Z"/><path class="cls-9" d="M157.26,560.23a202.62,202.62,0,0,0,46.27-8.86c2.18-.68,4.59-1.4,6.67-.47a10.58,10.58,0,0,1,3.2,2.77,39.22,39.22,0,0,0,27.25,12.6"/><path class="cls-21" d="M157.26,565.07a210.82,210.82,0,0,0,38.33-6.36q4.46-1.17,8.84-2.55c.71-.22,1.42-.45,2.14-.64.22,0,.86-.31,1.08-.24-.45-.15-.8,0-.21,0,.18,0,.91-.13,1.06,0l-.6-.07a5.27,5.27,0,0,1,.68.19l-.53-.21a4.53,4.53,0,0,1,.55.34c-.54-.44-.61-.48-.22-.14.17.14.32.3.48.45a64.47,64.47,0,0,0,5.52,5.32,45.57,45.57,0,0,0,7.45,4.93,45,45,0,0,0,18.82,5,4.87,4.87,0,0,0,4.84-4.84,4.94,4.94,0,0,0-4.84-4.84c-.67,0-1.33-.07-2-.13l-1-.1c-1.17-.12,1.12.19,0,0-1.32-.23-2.64-.48-3.93-.82s-2.37-.67-3.52-1.09c-.32-.12-.63-.23-.94-.36s-1.29-.32-.08,0a9.88,9.88,0,0,1-2-.92c-1.15-.57-2.27-1.2-3.36-1.88-.52-.33-1-.66-1.53-1l-.69-.49c-.18-.13-.36-.26-.53-.4q.8.63.18.15c-2.1-1.71-3.82-3.69-5.76-5.56a11.31,11.31,0,0,0-4.65-2.81,12.76,12.76,0,0,0-6.11,0c-3,.63-6,1.79-9,2.62q-9.06,2.52-18.32,4.21c-1.71.3-3.42.59-5.13.86l-2.77.41-.8.11c1.28-.14-.46.06-.69.09-3.58.45-7.16.8-10.75,1.07-2.52.18-5,2.09-4.84,4.84.11,2.46,2.13,5,4.84,4.84Z"/><path class="cls-22" d="M360.16,502a40.63,40.63,0,0,0-.89-17.1,58.28,58.28,0,0,0-6.42-14.8,95.17,95.17,0,0,0-19.35-22.7c-15.87-13.76-35.07-22.78-55-28.92a357.46,357.46,0,0,0-36.53-8.77c-2.48-.49-5.34.7-6,3.38-.54,2.39.73,5.43,3.39,5.95,10.63,2.08,21.23,4.37,31.66,7.34,5.13,1.46,10.22,3.08,15.24,4.92,1.22.45,2.44.91,3.65,1.39l1.81.72,1.09.44.28.12c2.35,1,4.67,2,7,3.15a136.73,136.73,0,0,1,12.23,6.69q3,1.88,6,3.91c.88.62,1.76,1.25,2.62,1.89.46.33.91.67,1.36,1,.24.18.92.62,0,0,.28.19.53.42.8.63a105.53,105.53,0,0,1,10.5,9.55q2.34,2.44,4.49,5c.36.43.72.87,1.07,1.31.2.26.44.52.62.8-.07-.11-.65-.86-.13-.18.74,1,1.48,2,2.19,3a69.51,69.51,0,0,1,4.35,7.1c.69,1.29,1.31,2.61,1.91,3.94.1.23.42.81-.06-.15.19.38.32.8.47,1.19.24.62.47,1.24.68,1.87a43,43,0,0,1,1.18,4.17c.15.64.28,1.28.4,1.93.05.29.09.58.15.88.19,1.1-.08-.9,0,.13a37.87,37.87,0,0,1,.22,4.26c0,.72,0,1.43-.1,2.14,0,.24,0,.48-.07.72-.06.55-.05.47,0-.22,0,.24-.07.48-.11.72a5.32,5.32,0,0,0,.49,3.73,4.94,4.94,0,0,0,2.89,2.22c2.33.53,5.53-.71,6-3.38Z"/><path class="cls-13" d="M355,533.65a25,25,0,0,1,3.64,4,8.41,8.41,0,0,1,.91,8.37,8.5,8.5,0,0,1-8.1,4.39"/><path class="cls-13" d="M351.62,537.07q.88.84,1.74,1.71c.28.29.55.59.81.89l.39.46c-.45-.59-.53-.68-.23-.26s.42.62.6.94l.26.49c.21.46.16.32-.16-.41.1.68.44,1.36.55,2.06l-.18-1.28a9.13,9.13,0,0,1,0,2.09l.17-1.28a9,9,0,0,1-.24,1.15c-.26.87.2-.12.16-.28,0,.09-.17.37-.22.45s-.19.34-.29.5c-.24.36-.6.53.26-.31-.26.25-.48.53-.75.78s-.62.5,0,0,0,0-.12.05c-.32.21-.66.37-1,.56-.49.29,1-.36.45-.18l-.6.21a10.9,10.9,0,0,1-1.26.28l1.29-.18a9.31,9.31,0,0,1-1.83.06,4.87,4.87,0,0,0-4.84,4.84,5,5,0,0,0,4.84,4.84c5.82.4,11.81-3.6,13.27-9.32a13.65,13.65,0,0,0-1.1-9.29,22.55,22.55,0,0,0-5.2-6.44,4.84,4.84,0,1,0-6.84,6.85Z"/><path class="cls-13" d="M49.36,526.56a5.53,5.53,0,0,0-1.73,6A7.43,7.43,0,0,0,53,536.87"/><path class="cls-13" d="M45.93,523.13a10.34,10.34,0,0,0-2.63,11.5,12.28,12.28,0,0,0,8.4,6.91,5.05,5.05,0,0,0,3.73-.49,4.83,4.83,0,0,0,1.74-6.62,5,5,0,0,0-2.89-2.22,9.31,9.31,0,0,1-1.38-.46l1.15.49a8.58,8.58,0,0,1-1.87-1.1l1,.76a8.08,8.08,0,0,1-1.24-1.24l.76,1a6.24,6.24,0,0,1-.77-1.32l.48,1.16a6.45,6.45,0,0,1-.34-1.27l.18,1.28a5.91,5.91,0,0,1,0-1.33l-.17,1.29a5.9,5.9,0,0,1,.39-1.44L52,531.16a6.15,6.15,0,0,1,.79-1.33l-.76,1a7.66,7.66,0,0,1,.78-.83,4.84,4.84,0,0,0-6.85-6.85Z"/><path d="M347.56,544.49a1.61,1.61,0,1,1,0-3.22c8.74,0,15.56-1.37,20.85-4.11a1.61,1.61,0,1,1,1.49,2.86c-5.77,3-13.07,4.45-22.33,4.47Z"/><path d="M67,537.71h-.16c-11.46-1.11-20.24-2.21-28.8-6.23a1.62,1.62,0,0,1,1.37-2.93c8.11,3.81,16.25,4.83,27.74,6a1.61,1.61,0,0,1-.15,3.22Z"/><path class="cls-22" d="M35.41,668.57c8.61,14.62,24.41,23.1,40.47,27,9.22,2.23,18.71,3.2,28.15,4q14.49,1.22,29,1.87,16.39.72,32.81.74a4.84,4.84,0,1,0,0-9.68q-28.58,0-57.07-2.23c-4.58-.35-9.16-.73-13.72-1.23-1-.11-2.08-.23-3.11-.36l-1.55-.2c1.07.15.35,0,.12,0l-1.16-.16c-2.19-.33-4.37-.7-6.54-1.13a92.29,92.29,0,0,1-12.78-3.43c-.91-.32-1.82-.66-2.72-1l-.6-.25c-.36-.14-1-.19.1,0a7.58,7.58,0,0,1-1.34-.59c-1.69-.77-3.34-1.6-5-2.51A59.91,59.91,0,0,1,55.17,676a7.88,7.88,0,0,1-1.31-1c.07.07.88.69.21.15l-.63-.5c-.79-.65-1.57-1.32-2.32-2a46.44,46.44,0,0,1-4.21-4.44c-.18-.21-.34-.42-.51-.63-.39-.46.59.8.06.09-.32-.43-.64-.87-.94-1.31-.62-.89-1.2-1.8-1.75-2.73a4.84,4.84,0,1,0-8.36,4.89Z"/></g></svg>