<svg id="Layer_1" data-name="Layer 1" xmlns="http://www.w3.org/2000/svg" viewBox="0 0 400 400"><defs><style>.cls-1{fill:#95a5a6;}.cls-2{fill:#273747;}.cls-3{fill:#f9c485;}.cls-4{fill:#d35400;}.cls-5{fill:#e67e22;}.cls-6{fill:#34495e;}.cls-7{fill:#bb9364;}.cls-8{fill:#f39c12;}.cls-9{fill:#e74c3c;}.cls-10{fill:#c0392b;}.cls-11{fill:#7f8c8d;}.cls-12{fill:#a5805b;}.cls-13{fill:#2c3e50;}.cls-14{fill:#2980b9;}.cls-15{fill:#27ae60;}.cls-16{fill:#2ecc71;}.cls-17{fill:#bdc3c7;}</style></defs><title>illustration-3</title><circle class="cls-1" cx="276.59" cy="271.38" r="6.53"/><circle class="cls-1" cx="277.36" cy="254.66" r="13.83"/><circle class="cls-1" cx="347.3" cy="271.38" r="6.53"/><circle class="cls-1" cx="348.07" cy="254.66" r="13.83"/><rect class="cls-2" x="124.06" y="204.11" width="25.57" height="185.39"/><rect class="cls-3" x="86.92" y="112.04" width="15.34" height="67.81" rx="6" transform="translate(58.27 316.02) rotate(-135)"/><path class="cls-4" d="M127.93,112.77c3,3,2.35,8.5-1.41,12.25L118,133.56l-10.85-10.85,8.54-8.54C119.43,110.42,124.94,109.78,127.93,112.77Z"/><rect class="cls-3" x="43.73" y="96.43" width="15.34" height="86.13" rx="6" transform="translate(-83.58 77.2) rotate(-45)"/><path class="cls-5" d="M149.63,85.2c-14.06,0-25.57,15.34-25.57,34.1v42.61h51.15V119.3C175.21,100.54,163.7,85.2,149.63,85.2Z"/><rect class="cls-6" x="124.06" y="151.69" width="51.14" height="54.98"/><rect class="cls-3" x="194.37" y="105.65" width="15.34" height="67.81" rx="6" transform="translate(-39.5 183.74) rotate(-45)"/><path class="cls-3" d="M153.34,66a6.31,6.31,0,0,0-1.15.11V79a7.34,7.34,0,0,0,1.15.1,6.52,6.52,0,1,0,0-13Z"/><path class="cls-7" d="M152.87,69.86a3.82,3.82,0,0,0-.68.06v7.55a3.83,3.83,0,1,0,.68-7.61Z"/><circle class="cls-3" cx="27.06" cy="115.08" r="10.06"/><rect class="cls-3" x="135.24" y="95.73" width="12.85" height="19.18" rx="4.43" transform="translate(-34.86 106.07) rotate(-36.87)"/><circle class="cls-7" cx="136.85" cy="99.27" r="8.95"/><circle class="cls-8" cx="63.65" cy="62.12" r="7.67"/><path class="cls-3" d="M67.93,62.19a7.13,7.13,0,0,1,1.15.1V75.12a6.15,6.15,0,0,1-1.15.11,6.52,6.52,0,1,1,0-13Z"/><path class="cls-7" d="M69.57,64.74a4.07,4.07,0,0,1,.79.08v8.8a4.07,4.07,0,0,1-.79.07,4.48,4.48,0,0,1,0-9Z"/><circle class="cls-8" cx="107.16" cy="47.42" r="38.87"/><circle class="cls-8" cx="69.38" cy="43.31" r="16.26"/><circle class="cls-3" cx="110.64" cy="71.78" r="44.11"/><circle cx="120.87" cy="61.55" r="5.75"/><circle cx="92.74" cy="57.71" r="5.75"/><rect class="cls-7" x="93.38" y="57.07" width="14.06" height="28.13" rx="5.5"/><path class="cls-9" d="M107.63,90.93a14.69,14.69,0,0,0,27.6-9.5Z"/><path class="cls-10" d="M133,90.32A25.48,25.48,0,0,0,114.8,98a14.68,14.68,0,0,0,19.57-7.57C133.92,90.36,133.47,90.32,133,90.32Z"/><circle class="cls-8" cx="148.71" cy="47.48" r="16.26"/><circle class="cls-8" cx="153.49" cy="66.56" r="7.67"/><path class="cls-4" d="M168.71,106.38c-3,3-2.35,8.49,1.4,12.25l8.54,8.54,10.85-10.85L181,107.78C177.21,104,171.69,103.39,168.71,106.38Z"/><rect class="cls-3" x="190.17" y="137.64" width="15.34" height="67.81" rx="6" transform="translate(243.18 -86.36) rotate(59.04)"/><path class="cls-3" d="M171.74,199.68a11,11,0,0,1-1.79.89l-11.68-18.86a11.27,11.27,0,1,1,13.47,18Z"/><rect class="cls-3" x="14.4" y="108.61" width="4.33" height="15.14" rx="1.54" transform="matrix(0.16, -0.99, 0.99, 0.16, -100.78, 114.51)"/><rect class="cls-3" x="14.4" y="100.94" width="4.33" height="15.14" rx="1.54" transform="translate(-75.26 48.37) rotate(-48.1)"/><rect class="cls-3" x="18.33" y="94.48" width="4.8" height="18.03" rx="1.88" transform="translate(-48.97 24.23) rotate(-30)"/><rect class="cls-3" x="25.91" y="95.83" width="4.33" height="15.14" rx="1.54"/><rect class="cls-3" x="32.3" y="102.22" width="4.33" height="15.14" rx="1.54" transform="translate(9.41 222.11) rotate(-150)"/><rect class="cls-6" x="149.63" y="204.11" width="25.57" height="185.39"/><rect class="cls-2" x="147.63" y="189.97" width="28.42" height="6.06" transform="matrix(0.51, 0.86, -0.86, 0.51, 244.1, -45.07)"/><rect class="cls-2" x="124.06" y="150.41" width="51.14" height="6.39"/><rect class="cls-9" x="170.26" y="181.35" width="15.6" height="3.75" transform="translate(243.58 -63.73) rotate(59.04)"/><circle class="cls-10" cx="177.76" cy="183.65" r="3.84"/><path class="cls-11" d="M111.28,387.2a9.31,9.31,0,0,0,.31,2.3h37.73a9.37,9.37,0,0,0,.31-2.3c0-7.21-8.58-13-19.18-13S111.28,380,111.28,387.2Z"/><path class="cls-1" d="M136.85,387.2a9.31,9.31,0,0,0,.31,2.3h37.73a9.37,9.37,0,0,0,.31-2.3c0-7.21-8.58-13-19.17-13S136.85,380,136.85,387.2Z"/><rect class="cls-8" x="121.53" y="47.88" width="5.25" height="13.5" rx="2.05" transform="translate(24.01 146.12) rotate(-66.16)"/><rect class="cls-8" x="85.73" y="38.93" width="5.25" height="13.5" rx="2.05" transform="translate(72.79 143.92) rotate(-108.34)"/><path class="cls-6" d="M315.17,310.84c-23.93,0-43.51,11.53-43.51,25.63v32h87v-32C358.69,322.37,339.11,310.84,315.17,310.84Z"/><path class="cls-3" d="M314.68,322.31l-1.77,0c-3.6.07-6.61-2-6.7-4.7L306,311c-.09-2.65,2.79-4.87,6.39-4.93l1.76,0c3.6-.07,6.62,2.05,6.7,4.7l.22,6.68C321.15,320,318.27,322.25,314.68,322.31Z"/><ellipse class="cls-7" cx="313.53" cy="307.59" rx="10.35" ry="7.62"/><circle class="cls-3" cx="312.45" cy="275.49" r="37.53"/><path class="cls-11" d="M309.81,120.48c-20.54,0-37.34,12.77-37.34,28.37v35.46h74.67V148.85C347.14,133.25,330.34,120.48,309.81,120.48Z"/><circle class="cls-6" cx="297.18" cy="124.07" r="10.38"/><rect class="cls-7" x="302.52" y="115.13" width="12.1" height="18.06" rx="4.43" transform="translate(-2.89 7.44) rotate(-1.37)"/><circle class="cls-12" cx="308.57" cy="116.88" r="8.43"/><circle class="cls-13" cx="272.81" cy="100.61" r="15.31"/><circle class="cls-13" cx="277.62" cy="60.86" r="15.31"/><circle class="cls-13" cx="300.51" cy="41.6" r="15.31"/><circle class="cls-13" cx="341.45" cy="66.89" r="15.31"/><circle class="cls-6" cx="284.85" cy="47.62" r="15.31"/><circle class="cls-6" cx="271.6" cy="74.11" r="15.31"/><circle class="cls-6" cx="334.83" cy="55.24" r="17.02"/><circle class="cls-6" cx="312.55" cy="41.6" r="15.31"/><circle class="cls-6" cx="323.39" cy="45.21" r="15.31"/><circle class="cls-6" cx="266.23" cy="85.3" r="10.38"/><circle class="cls-13" cx="308" cy="71.71" r="43.96"/><circle class="cls-6" cx="272.25" cy="119.02" r="10.38"/><ellipse class="cls-13" cx="289.91" cy="121" rx="11.8" ry="11.75" transform="translate(16.14 275.06) rotate(-52.02)"/><ellipse class="cls-13" cx="297.08" cy="137.48" rx="7.93" ry="7.89" transform="translate(5.9 287.06) rotate(-52.02)"/><ellipse class="cls-13" cx="297.08" cy="150.73" rx="7.93" ry="7.89" transform="translate(-4.54 292.15) rotate(-52.02)"/><ellipse class="cls-13" cx="275.17" cy="129.65" rx="7.93" ry="7.89" transform="translate(3.64 266.77) rotate(-52.02)"/><ellipse class="cls-13" cx="283.6" cy="47.76" rx="7.93" ry="7.89" transform="translate(71.44 241.92) rotate(-52.02)"/><path class="cls-14" d="M307.89,31.36c-21.22,0-39,15.63-43.85,36.7v1H352C347.47,47.51,329.45,31.36,307.89,31.36Z"/><circle class="cls-7" cx="308" cy="77.73" r="41.55"/><circle class="cls-6" cx="285.14" cy="140.93" r="10.38"/><circle class="cls-6" cx="303.76" cy="162.59" r="5.22"/><rect class="cls-14" x="297.79" y="150.36" width="4.94" height="12.72" rx="2.05" transform="translate(314.67 495.11) rotate(-120)"/><circle class="cls-13" cx="308" cy="77.73" r="41.55"/><circle class="cls-14" cx="264.65" cy="81.34" r="12.65"/><circle class="cls-14" cx="351.35" cy="81.34" r="12.65"/><circle class="cls-7" cx="308" cy="81.34" r="41.55"/><path class="cls-12" d="M309.17,71.32c-2.33,0-4.29,2.4-4.82,5.64v.16H314C313.52,73.8,311.54,71.32,309.17,71.32Z"/><path class="cls-10" d="M306.51,85.77c-2.2,0-4.05,2.4-4.55,5.65v.16h9.12C310.62,88.25,308.75,85.77,306.51,85.77Z"/><path class="cls-10" d="M311.83,85.77c-2.2,0-4.05,2.4-4.55,5.65v.16h9.13C315.94,88.25,314.07,85.77,311.83,85.77Z"/><path class="cls-9" d="M309.2,97.81a7.42,7.42,0,0,0,7.21-5.65V92H302A7.41,7.41,0,0,0,309.2,97.81Z"/><path class="cls-13" d="M291.09,62.89a7.42,7.42,0,0,0-7.21,5.64v.16h14.46A7.42,7.42,0,0,0,291.09,62.89Z"/><path class="cls-13" d="M326,62.89a7.42,7.42,0,0,0-7.21,5.64v.16h14.45A7.42,7.42,0,0,0,326,62.89Z"/><circle class="cls-13" cx="291.11" cy="68.69" r="2.41"/><circle class="cls-13" cx="326.03" cy="68.69" r="2.41"/><circle class="cls-6" cx="298.97" cy="85.56" r="1.2"/><rect class="cls-15" x="263.92" y="244.48" width="97.91" height="15.23"/><path class="cls-16" d="M273.92,233.6h77.91a10,10,0,0,1,10,10v.88a0,0,0,0,1,0,0H263.92a0,0,0,0,1,0,0v-.88A10,10,0,0,1,273.92,233.6Z"/><path class="cls-15" d="M342.07,233.6a31.56,31.56,0,0,0-58.39,0Z"/><ellipse class="cls-13" cx="297.4" cy="271.46" rx="4.35" ry="4.57"/><rect class="cls-11" x="293.16" y="258.14" width="8.49" height="18.15" rx="3.9" transform="translate(30.18 564.62) rotate(-90)"/><ellipse class="cls-13" cx="326.77" cy="271.46" rx="4.35" ry="4.57"/><rect class="cls-11" x="322.53" y="258.14" width="8.49" height="18.15" rx="3.9" transform="translate(59.55 593.99) rotate(-90)"/><circle class="cls-9" cx="313.06" cy="298.96" r="6.53"/><rect class="cls-1" x="307.69" y="283.6" width="9.79" height="29.1" rx="4.5" transform="translate(14.44 610.74) rotate(-90)"/><rect class="cls-9" x="306.47" y="273.85" width="11.97" height="23.93" rx="5.5"/><circle class="cls-9" cx="306.54" cy="289.16" r="6.53"/><circle class="cls-9" cx="318.51" cy="289.18" r="6.53"/><circle class="cls-17" cx="300" cy="214.09" r="6.53"/></svg>