<?xml version="1.0" encoding="utf-8"?>
<!-- Generator: Adobe Illustrator 24.0.3, SVG Export Plug-In . SVG Version: 6.00 Build 0)  -->
<svg version="1.1" id="Layer_1" xmlns="http://www.w3.org/2000/svg" xmlns:xlink="http://www.w3.org/1999/xlink" x="0px" y="0px"
	 viewBox="0 0 853.4 1408" style="enable-background:new 0 0 853.4 1408;" xml:space="preserve">
<style type="text/css">
	.st0{fill:#4608BF;}
	.st1{fill:#5C1AFF;}
</style>
<title>portrait</title>
<g id="Layer_3">
	<path class="st0" d="M574.6,655c-0.6,0-1.1-0.1-1.6-0.4c-1.7-0.9-2.4-3-1.5-4.7c0,0,0,0,0,0c39.7-74.7,45.7-162.4,45.7-163.3
		c0.1-1.9,1.8-3.4,3.7-3.3c0.5,0,1.1,0.2,1.5,0.5c10.1,5.8,18.5,6.8,25,3c16.3-9.5,19.8-47.1,19.8-60.8c-0.2-11.6-2-23.5-3.9-35.1
		c-0.7-4.2-1.4-8.6-2-12.9c-1.6-11.8-4.1-29.7-16.2-35.6c-1.7-1-3.8-1.1-5.5-0.2c-5.4,2.5-9.5,12.6-11,18.7c-0.6,2.4-1,5.1-1.4,8
		c-1,6.6-2.1,14.1-5.9,19.8c-2.6,3.8-5.6,4.5-7.7,4.5c-5.8-0.2-10-6.3-11.5-9c-4.1-7.2-7.8-14.7-11.1-22.3
		c-2.8-6.2-5.6-12.6-8.4-18.8c-18-41.4-35.2-86.6-55.5-146.4c-4.7-13.8-9.5-28-2-42.7c6-11.7,12.8-23.2,21.7-28.2
		c0.5-0.3,1-0.4,1.5-0.4c1.3-0.1,32.7-1.8,69.4,41c21.2,24.7,39.8,59.3,55.5,102.8c19.5,54.2,34.3,122.6,44.2,203.3
		c0.2,1.9-1.1,3.7-3.1,3.9c-1.9,0.2-3.7-1.1-3.9-3.1l0,0c-9.8-79.7-24.4-147.2-43.5-200.8c-15.2-42.7-33.3-76.6-53.8-100.8
		c-18.1-21.3-34.6-30.9-45.3-35.2c-9.4-3.8-16.1-4.2-18.2-4.2c-7.9,5-14.8,18.4-18.1,24.9c-6.2,12-2,24.3,2.4,37.2
		c20.4,59.7,37.4,104.7,55.4,145.9c2.7,6.2,5.5,12.5,8.3,18.7c3.2,7.4,6.8,14.6,10.8,21.7c2,3.4,4.4,5.5,5.7,5.5l0,0
		c0.6,0,1.3-0.9,1.6-1.4c2.9-4.4,3.9-10.8,4.8-17c0.4-2.9,0.9-5.9,1.5-8.6c0.5-1.9,4.7-18.6,14.8-23.4c3.7-1.7,8-1.6,11.6,0.3
		c15.4,7.6,18.2,27.7,20,41c0.6,4.2,1.3,8.5,1.9,12.8c1.9,11.8,3.8,24,4,36.1c-0.1,9.4-1,18.7-2.7,27.9c-3.8,20.1-10.7,33.3-20.6,39
		c-7.7,4.5-16.8,4.3-27.2-0.5c-2,20.3-11.3,95.4-46.1,160.8C577.1,654.2,575.9,655,574.6,655z"/>
	<path class="st0" d="M419.6,655c-1.9,0.1-3.6-1.3-3.8-3.2c-0.1-1.9,1.3-3.6,3.2-3.8c19.2-3,46.1-10.2,65.4-28
		c4.6-4.2,8.6-9,11.9-14.4c-12,1.8-37.2,4.3-56-2.2c-21.7-7.5-33.9,8-34.4,8.6c-1.2,1.5-3.4,1.8-4.9,0.7c-1.5-1.2-1.8-3.4-0.7-4.9
		c0.1-0.2,15.7-20.2,42.3-11c23.3,8.1,58.9,0.8,59.3,0.8c1.9-0.4,3.7,0.9,4.1,2.8c0.1,0.6,0.1,1.2-0.1,1.8
		c-0.6,1.7-14.9,41.9-85.8,52.8C420,655,419.8,655,419.6,655z"/>
	<path class="st0" d="M195.9,637.2c-1.1,0-2.2-0.5-2.8-1.4c-45.7-62-74.6-125.8-85.7-189.4c-9-50.4-6.6-102.2,6.9-151.6
		c22.6-82.9,69.6-134.5,71.8-136.9C280.5,45.3,435.6,26.8,496.8,64c24.6,14.9,32.3,37.3,21.7,62.9c-0.1,0.2-0.2,0.3-0.3,0.5
		l-11,17.7l-0.2,0.2l-9.1,12.3c-0.5,0.6-1.3,2-2.2,3.4c-6.2,9.9-9.9,14.7-14,14.9c-1.5,0-3.1-0.3-4.5-1c-24.4-9.8-51.6-8.5-78-7.3
		l-3.7,0.2c-25.9,1-51.4,6.7-75.2,16.9c-37.7,16.2-67.6,46.4-84,85.2c-12.2,28.7-18.3,62.3-18.2,99.9c0,11.5,0.6,23.1,1.9,34.6
		c0,0.2,0.2,1,0.4,2c0.4,2.4,0.8,4.4,1,6c15.8-8.5,66.6-32.4,102.2-10.8c27.6,16.8,39.2,56.6,34.6,118.3c0,0.7-0.3,1.4-0.8,2
		c0,0-4.1,5.3-3.1,11.7c0.7,4.7,4,9.1,9.8,13c1.6,1,2.1,3.2,1.1,4.8c-1,1.6-3.2,2.1-4.8,1.1c-0.1,0-0.2-0.1-0.2-0.2
		c-7.5-5-11.8-11-12.8-17.8c-1.1-7.6,2.4-13.8,4-16.1c4.1-58.3-6.3-95.5-31.3-110.8c-38.4-23.5-99.3,13-99.9,13.4l0,0
		c-1.6,1-3.8,0.5-4.8-1.2c-0.5-0.8-0.6-1.7-0.4-2.6c-0.1-1.8-1.1-7.7-1.5-9.7c-0.3-1.6-0.4-2.1-0.4-2.4c-1.3-11.7-1.9-23.5-2-35.3
		c-0.1-38.6,6.3-73.1,18.8-102.6c17.2-40.5,48.3-72.1,87.7-89c24.6-10.4,50.9-16.3,77.7-17.4l3.7-0.2c27.1-1.2,55.2-2.5,80.9,7.8
		c0.5,0.2,0.9,0.4,1.4,0.5c2.1-1.2,6.8-8.7,8.6-11.6c1-1.7,1.9-3,2.5-3.9l9-12.2l10.8-17.4c11.5-28.2-3.9-44.9-19-54
		c-30.2-18.3-83-21.5-137.7-8.3c-64.3,15.5-122.5,51.3-164,100.7l-0.1,0.1c-0.5,0.5-47.8,51.4-70.3,134.3
		c-13.2,48.4-15.5,99.1-6.7,148.5c11,62.5,39.4,125.2,84.4,186.3c1.1,1.5,0.8,3.7-0.7,4.9c0,0,0,0,0,0
		C197.3,636.9,196.6,637.2,195.9,637.2z"/>
	<path class="st0" d="M400.4,401.8c-1.9,0-3.5-1.6-3.5-3.5c0-1,0.4-1.9,1.2-2.6c0.6-0.6,2.8-3.5,4.9-6.4
		c13.7-18.7,45.8-62.6,85.3-63.9c19.2-0.6,37.3,9,53.9,28.6c1.3,1.4,1.2,3.7-0.3,4.9c-1.4,1.3-3.7,1.2-4.9-0.3c0,0-0.1-0.1-0.1-0.1
		c-15.1-17.9-31.3-26.7-48.3-26.2c-36.1,1.2-67.9,44.7-79.9,61.1c-3.3,4.5-4.8,6.5-5.9,7.5C402.1,401.5,401.3,401.8,400.4,401.8z"/>
	<path class="st0" d="M459.1,423.3c-6.4,0-12.7-0.9-18.9-2.5c-1.9-0.5-2.9-2.5-2.4-4.3c0.5-1.8,2.3-2.9,4.1-2.5
		c16.4,4.2,30.3,2.8,41.5-4.2c10.2-6.4,14.1-14.9,14.3-16c0.4-1.9,2.3-3.1,4.2-2.7c1.9,0.4,3.1,2.2,2.7,4.1
		c-0.7,3.5-6.1,13.5-17.4,20.5C481,419.5,471.8,423.3,459.1,423.3z"/>
	<path class="st0" d="M289.5,759.6c-0.3,0-0.6,0-0.9-0.1C251.2,750,219,736,192.8,718c-21-14.5-38.1-31.7-50.9-51
		c-21.9-33.1-23.4-60.8-23.4-61.9c-0.1-1.9,1.4-3.6,3.3-3.7c1.9-0.1,3.6,1.4,3.7,3.3c0.5,9.3,5.8,33.5,22.6,58.7
		c12.3,18.5,28.8,35,49.1,48.9c25.4,17.5,56.8,31,93.3,40.3c1.9,0.5,3,2.4,2.6,4.2C292.6,758.5,291.2,759.6,289.5,759.6L289.5,759.6
		z"/>
	<path class="st0" d="M428.2,1041.1c-0.5,0-1-0.1-1.5-0.3c-34.6-16.2-51.2-31.8-53.6-50.4c-2-15.3,5.7-32.5,24.2-54.2
		c16-18.8,40.9-42,80.6-75.1c59.2-49.1,81.2-103,89.2-139.7c8.7-39.7,3.3-68.2,3.3-68.5c-0.5-1.9,0.7-3.8,2.6-4.2
		c1.9-0.5,3.8,0.7,4.2,2.6c0,0.1,0,0.2,0.1,0.3c0.2,1.2,5.7,30-3.2,71c-8.2,37.8-30.8,93.4-91.7,143.9c-39.4,32.8-64,55.7-79.8,74.2
		c-17.1,20.1-24.3,35.6-22.6,48.8c2.1,16,17.4,29.9,49.6,45c1.8,0.8,2.5,2.9,1.7,4.7C430.8,1040.3,429.6,1041.1,428.2,1041.1
		L428.2,1041.1z"/>
	<path class="st0" d="M720.2,670.7c-1.9,0-3.5-1.6-3.5-3.5c0-0.6,0.1-1.1,0.4-1.6c31-59.6-52.2-204.4-53-205.8
		c-1-1.7-0.4-3.8,1.3-4.8c1.7-1,3.8-0.4,4.8,1.3l0,0c14.8,26.4,27.8,53.7,38.9,81.8c23.3,60.1,28.2,104.1,14.3,130.8
		C722.8,670,721.6,670.7,720.2,670.7z"/>
	<path class="st0" d="M188.1,984.1c-1.9,0-3.5-1.6-3.5-3.5c0-0.8,0.3-1.5,0.7-2.1c18.2-23.1,31-50.7,36.2-77.8
		c6.5-34.2-1.8-66.7-23.4-91.5c-15.1-17.4-35.9-28.5-56.1-39.3c-26.9-14.4-54.8-29.3-69.7-59.3c-14.7-29.5-19.2-67-13.6-111.5
		c4.2-33.2,13.9-70.1,29-109.8c0.6-1.8,2.6-2.8,4.5-2.1c1.8,0.6,2.8,2.6,2.1,4.5c0,0.1,0,0.1-0.1,0.2
		C70,555.6,47.6,644.9,78.6,707.4c13.9,28,39.6,41.7,66.7,56.2c20.7,11.1,42.1,22.5,58.1,40.9c23.1,26.5,31.9,61.2,25,97.5
		c-4,20.1-11.3,39.4-21.6,57.1c58.7-55.6,87.8-110.8,86.4-164.3c-1.7-69.1-55.2-111.1-55.7-111.5c-1.5-1.2-1.8-3.4-0.6-4.9
		c1.2-1.5,3.4-1.8,4.9-0.6c0.6,0.4,14.4,11.2,28.6,30.9c13.1,18.2,28.9,48,29.9,85.9c1.6,61.7-35.4,125.2-109.9,188.7
		C189.8,983.8,188.9,984.1,188.1,984.1z"/>
	<path class="st0" d="M629.1,1360.1c-1.9,0-3.5-1.5-3.5-3.5c0-0.8,0.3-1.6,0.8-2.2c18.2-23.1,31-50.7,36.2-77.8
		c6.5-34.2-1.8-66.7-23.4-91.6c-15.1-17.4-35.9-28.5-56.1-39.3c-26.9-14.4-54.8-29.3-69.7-59.3c-14.7-29.5-19.2-67-13.6-111.5
		c4.2-33.2,14-70.1,29-109.8c0.7-1.8,2.7-2.7,4.5-2c1.8,0.7,2.7,2.7,2,4.5c-24.3,63.9-46.8,153.2-15.7,215.8
		c13.9,28,39.5,41.7,66.7,56.2c20.7,11.1,42.1,22.5,58.1,40.9c23.1,26.5,31.9,61.1,25,97.4c-4,19.9-11.2,39-21.3,56.6
		c36.2-35.2,62.5-73.2,78.3-113.4c14.9-37.9,20.6-78.8,16.6-119.3c-6.7-70-39-118.9-39.3-119.4c-1.2-1.6-0.8-3.7,0.7-4.9
		c1.6-1.2,3.7-0.8,4.9,0.7c0.1,0.1,0.1,0.2,0.2,0.3c1.4,2,33.6,50.9,40.5,122.6c4.1,41.6-1.7,83.6-17,122.5
		c-19.1,48.8-53.3,94.4-101.5,135.5C630.7,1359.8,630,1360.1,629.1,1360.1z"/>
	<path class="st0" d="M216.2,1309.2c-1.9,0-3.5-1.6-3.5-3.5c0-0.8,0.3-1.6,0.8-2.2c20.2-24.7,34.5-54.1,40.2-83
		c7.2-36.5-2-71.2-26.1-97.8c-16.8-18.6-40-30.5-62.4-42c-29.9-15.3-60.8-31.2-77.3-63.1c-16.3-31.4-21.4-71.4-15.1-118.9
		c4.6-35.3,15.5-74.8,32.3-117.1c0.7-1.8,2.7-2.7,4.5-2c1.8,0.7,2.7,2.7,2,4.5l0,0c-27,68.2-52,163.5-17.4,230.2
		c15.5,29.9,44,44.6,74.2,60.1c23,11.8,46.7,24,64.4,43.5c25.6,28.3,35.4,65.1,27.7,103.8c-4.2,21.3-12.9,42.8-25,62.6
		c66.4-59.9,99.3-119.3,97.9-176.9c-1.9-74-61.4-118.7-62-119.2c-1.6-1.1-1.9-3.3-0.7-4.9c1.1-1.6,3.3-1.9,4.9-0.7l0,0
		c0.6,0.5,16,11.9,31.7,33c14.5,19.5,32.1,51.2,33.1,91.7c1.7,65.7-39.4,133.4-122,201C217.8,1309,217,1309.2,216.2,1309.2z"/>
	<path class="st0" d="M403.1,563.2c-1.6,0-3.1-1.1-3.4-2.7c-1.8-7.9,3.7-14.8,9.4-18.7c6.4-4.4,13.4-5.3,17.8-2.4
		c1.9,1.3,3.9,3.6,4.3,7.8c3.5-2.5,7.5-6.4,8.3-11.6c1-6.8-3.7-14.6-14-23.1c-1.5-1.2-1.7-3.4-0.5-4.9c1.2-1.5,3.4-1.7,4.9-0.5
		c12.3,10.2,17.8,20.1,16.4,29.5c-2,13.3-17.2,19.8-17.9,20c-1.8,0.7-3.8-0.1-4.6-1.9c-0.3-0.7-0.3-1.4-0.2-2.1
		c0.8-3.8,0.5-6.7-0.8-7.6c-1.6-1.1-5.6-0.6-9.9,2.3c-3.6,2.5-7.5,7-6.5,11.5c0.4,1.9-0.8,3.8-2.7,4.2
		C403.6,563.2,403.3,563.2,403.1,563.2z"/>
	<path class="st0" d="M452.8,744.5c-31.8,0-65.1-16.2-87.5-29.8c-25.3-15.3-47.9-35.9-67.4-61.1c-45-58.4-60.6-123.9-61.2-126.6
		c-4.2-18.1-9.9-43-7.5-63.8c0.7-5.8,2-8.9,4.4-10c1.4-0.7,3.1-0.5,4.4,0.4c5.3,3.5,17.9,7.3,32.7,7.1c11.8-0.1,28.6-2.6,41.7-14.1
		c1.5-1.3,3.7-1.1,4.9,0.3c1.3,1.5,1.1,3.7-0.3,4.9c-14.7,12.9-33.3,15.7-46.2,15.8c-12.8,0.1-26-2.6-34.1-6.8
		c-0.2,1-0.4,2.1-0.5,3.1c-2.3,19.5,3.3,43.7,7.4,61.4c0.6,2.7,15.9,66.7,59.9,124c18.9,24.5,40.9,44.5,65.5,59.4
		c21.5,13.1,53.4,28.6,83.4,28.8c1.4-0.4,8.5-2.7,25-11.5c1.7-0.9,3.8-0.3,4.7,1.4s0.3,3.8-1.4,4.7l0,0
		c-19.6,10.4-26.4,12-27.2,12.2C453.3,744.5,453.1,744.5,452.8,744.5z"/>
	<path class="st0" d="M806.4,999.3c-0.4,0-0.8-0.1-1.2-0.2c-92.3-32.6-149.5-78.7-170.1-136.9c-12.7-35.7-8.5-69.2-2.8-90.9
		c6.2-23.5,15.2-38.5,15.6-39.1c1-1.7,3.2-2.2,4.8-1.2c1.7,1,2.2,3.2,1.2,4.8c-0.3,0.6-35.3,58.9-12.1,124.1
		c17.9,50.4,64.8,91.5,139.5,122.5c-15.9-12.9-29.7-28.3-40.6-45.6c-19.5-31.4-23.6-66.9-11.5-100c8.3-22.8,24.2-41.2,39.6-59
		c20.2-23.3,39.2-45.3,42.2-76.4c6.6-69.4-46.4-144.8-91.9-195.8c-1.2-1.5-1.1-3.7,0.4-4.9c1.4-1.2,3.5-1.1,4.8,0.3
		c46.5,52,100.5,129.1,93.6,201.2c-3.2,33.3-23.8,57.2-43.8,80.3c-15,17.3-30.4,35.1-38.3,56.8c-11.3,31-7.4,64.3,10.9,93.9
		c14.5,23.4,36.4,44.6,61.6,59.7c1.7,1,2.2,3.1,1.2,4.8C808.8,998.7,807.7,999.3,806.4,999.3L806.4,999.3z"/>
	<path class="st0" d="M296.8,1144.4c-1.9,0-3.4-1.4-3.5-3.3c-1.6-28-25.9-58.2-47.7-74.5c-8.8-6.6-18.8-12.2-28.4-17.6
		c-14-7.9-28.4-16-40.2-27.5c-19.1-18.7-30.2-44.8-32-75.5c-1.4-28,4.2-55.8,16.4-81.1c0.7-1.8,2.7-2.7,4.5-2c1.8,0.7,2.7,2.7,2,4.5
		c-0.1,0.2-0.1,0.3-0.2,0.5c-11.6,24.2-17,50.8-15.7,77.6c1.7,28.9,12,53.5,29.9,70.9c11.1,10.9,24.5,18.4,38.7,26.4
		c9.8,5.5,19.9,11.2,29.1,18.1c23.9,17.8,48.8,49.4,50.5,79.7c0.1,1.9-1.4,3.6-3.3,3.7c0,0,0,0,0,0L296.8,1144.4z"/>
	<path class="st0" d="M684.3,1159.4c-0.9,0-1.8-0.4-2.4-1c-58.3-55.9-87.1-112.3-85.6-167.7c0.9-35.4,14.5-63.3,25.6-80.6
		c12.1-18.7,23.9-28.9,24.4-29.4c1.4-1.3,3.6-1.2,4.9,0.3c1.3,1.4,1.2,3.6-0.3,4.9c0,0-0.1,0.1-0.1,0.1l0,0
		c-0.5,0.4-45.9,40.4-47.6,105c-1.4,53.3,26.7,107.9,83.5,162.4c1.4,1.4,1.4,3.6,0.1,4.9C686.1,1159,685.2,1159.4,684.3,1159.4
		L684.3,1159.4z"/>
</g>
<g id="Layer_2_1_">
	<path class="st1" d="M556.6,655c-0.6,0-1.1-0.1-1.6-0.4c-1.7-0.9-2.4-3-1.5-4.7c0,0,0,0,0,0c39.7-74.7,45.7-162.4,45.7-163.3
		c0.1-1.9,1.8-3.4,3.7-3.3c0.5,0,1.1,0.2,1.5,0.5c10.1,5.8,18.5,6.8,25,3c16.3-9.5,19.8-47.1,19.8-60.8c-0.2-11.6-2-23.5-3.9-35.1
		c-0.7-4.2-1.4-8.6-2-12.9c-1.6-11.8-4.1-29.7-16.2-35.6c-1.7-1-3.8-1.1-5.5-0.2c-5.4,2.5-9.5,12.6-11,18.7c-0.6,2.4-1,5.1-1.4,8
		c-1,6.6-2.1,14.1-5.9,19.8c-2.6,3.8-5.6,4.5-7.7,4.5c-5.8-0.2-10-6.3-11.5-9c-4.1-7.2-7.8-14.7-11.1-22.3
		c-2.8-6.2-5.6-12.6-8.4-18.8c-18-41.4-35.2-86.6-55.5-146.4c-4.7-13.8-9.5-28-2-42.7c6-11.7,12.8-23.2,21.7-28.2
		c0.5-0.3,1-0.4,1.5-0.4c1.3-0.1,32.7-1.8,69.4,41c21.2,24.7,39.8,59.3,55.5,102.8c19.5,54.2,34.3,122.6,44.2,203.3
		c0.2,1.9-1.1,3.7-3.1,3.9c-1.9,0.2-3.7-1.1-3.9-3.1l0,0c-9.8-79.7-24.4-147.2-43.5-200.8c-15.2-42.7-33.3-76.6-53.8-100.8
		c-18.1-21.3-34.6-30.9-45.3-35.2c-9.4-3.8-16.1-4.2-18.2-4.2c-7.9,5-14.8,18.4-18.1,24.9c-6.2,12-2,24.3,2.4,37.2
		c20.4,59.7,37.4,104.7,55.4,145.9c2.7,6.2,5.5,12.5,8.3,18.7c3.2,7.4,6.8,14.6,10.8,21.7c2,3.4,4.4,5.5,5.7,5.5l0,0
		c0.6,0,1.3-0.9,1.6-1.4c2.9-4.4,3.9-10.8,4.8-17c0.4-2.9,0.9-5.9,1.5-8.6c0.5-1.9,4.7-18.6,14.8-23.4c3.7-1.7,8-1.6,11.6,0.3
		c15.4,7.6,18.2,27.7,20,41c0.6,4.2,1.3,8.5,1.9,12.8c1.9,11.8,3.8,24,4,36.1c-0.1,9.4-1,18.7-2.7,27.9c-3.8,20.1-10.7,33.3-20.6,39
		c-7.7,4.5-16.8,4.3-27.2-0.5c-2,20.3-11.3,95.4-46.1,160.8C559.1,654.2,557.9,655,556.6,655z"/>
	<path class="st1" d="M401.6,655c-1.9,0.1-3.6-1.3-3.8-3.2c-0.1-1.9,1.3-3.6,3.2-3.8c19.2-3,46.1-10.2,65.4-28
		c4.6-4.2,8.6-9,11.9-14.4c-12,1.8-37.2,4.3-56-2.2c-21.7-7.5-33.9,8-34.4,8.6c-1.2,1.5-3.4,1.8-4.9,0.7c-1.5-1.2-1.8-3.4-0.7-4.9
		c0.1-0.2,15.7-20.2,42.3-11c23.3,8.1,58.9,0.8,59.3,0.8c1.9-0.4,3.7,0.8,4.1,2.7c0.1,0.6,0.1,1.2-0.1,1.8
		c-0.6,1.7-14.9,41.9-85.8,52.8C402,655,401.8,655,401.6,655z"/>
	<path class="st1" d="M177.9,637.2c-1.1,0-2.2-0.5-2.8-1.4c-45.7-62-74.6-125.8-85.7-189.4c-9-50.4-6.6-102.2,6.9-151.6
		c22.6-82.9,69.6-134.5,71.8-136.9C262.5,45.3,417.6,26.8,478.8,64c24.6,14.9,32.3,37.3,21.7,62.9c-0.1,0.2-0.2,0.3-0.3,0.5
		l-11,17.7l-0.2,0.2l-9.1,12.3c-0.5,0.6-1.3,2-2.2,3.4c-6.2,9.9-9.9,14.7-14,14.9c-1.5,0-3.1-0.3-4.5-1c-24.4-9.8-51.6-8.5-78-7.3
		l-3.7,0.2c-25.9,1-51.4,6.7-75.2,16.9c-37.7,16.2-67.6,46.4-84,85.2c-12.2,28.7-18.3,62.3-18.2,99.9c0,11.5,0.6,23.1,1.9,34.6
		c0,0.2,0.2,1,0.4,2c0.4,2.4,0.8,4.4,1,6c15.8-8.5,66.6-32.4,102.2-10.8c27.6,16.8,39.2,56.6,34.6,118.3c0,0.7-0.3,1.4-0.8,2
		c0,0-4.1,5.3-3.1,11.7c0.7,4.7,4,9.1,9.8,13c1.6,1,2.1,3.2,1.1,4.8c-1,1.6-3.2,2.1-4.8,1.1c-0.1,0-0.2-0.1-0.2-0.2
		c-7.5-5-11.8-11-12.8-17.8c-1.1-7.6,2.4-13.8,4-16.1c4.1-58.3-6.3-95.5-31.3-110.8c-38.4-23.5-99.3,13-99.9,13.4l0,0
		c-1.6,1-3.8,0.5-4.8-1.2c-0.5-0.8-0.6-1.7-0.4-2.6c-0.1-1.8-1.1-7.7-1.5-9.7c-0.3-1.6-0.4-2.1-0.4-2.4c-1.3-11.7-1.9-23.5-2-35.3
		c-0.1-38.6,6.3-73.1,18.8-102.6c17.2-40.5,48.3-72.1,87.7-89c24.6-10.4,50.9-16.3,77.7-17.4l3.7-0.2c27.1-1.2,55.1-2.5,80.9,7.8
		c0.5,0.2,0.9,0.4,1.4,0.5c2.1-1.2,6.8-8.7,8.6-11.6c1-1.7,1.9-3,2.5-3.9l9-12.2l10.8-17.4c11.5-28.2-3.9-44.9-19-54
		c-30.2-18.3-83-21.5-137.7-8.3c-64.3,15.5-122.5,51.3-164,100.7l-0.1,0.1c-0.5,0.5-47.8,51.4-70.3,134.3
		c-13.2,48.4-15.5,99.1-6.7,148.5c11,62.5,39.4,125.2,84.4,186.3c1.1,1.5,0.8,3.7-0.7,4.9c0,0,0,0,0,0
		C179.3,636.9,178.6,637.2,177.9,637.2z"/>
	<path class="st1" d="M382.4,401.8c-1.9,0-3.5-1.6-3.5-3.5c0-1,0.4-1.9,1.2-2.6c0.6-0.6,2.8-3.5,4.9-6.4
		c13.7-18.7,45.8-62.6,85.3-63.9c19.2-0.6,37.3,9,53.9,28.6c1.3,1.4,1.2,3.7-0.3,4.9c-1.4,1.3-3.7,1.2-4.9-0.3c0,0-0.1-0.1-0.1-0.1
		c-15.1-17.9-31.4-26.7-48.3-26.2c-36.1,1.2-67.9,44.7-79.9,61.1c-3.3,4.5-4.8,6.5-5.9,7.5C384.1,401.5,383.3,401.8,382.4,401.8z"/>
	<path class="st1" d="M441.1,423.3c-6.4,0-12.7-0.9-18.9-2.5c-1.9-0.5-2.9-2.5-2.4-4.3c0.5-1.8,2.3-2.9,4.1-2.5
		c16.4,4.2,30.3,2.8,41.5-4.2c10.2-6.4,14.1-14.9,14.3-16c0.4-1.9,2.3-3.1,4.2-2.7c1.9,0.4,3.1,2.2,2.7,4.1
		c-0.7,3.5-6.1,13.5-17.4,20.5C463,419.5,453.8,423.3,441.1,423.3z"/>
	<path class="st1" d="M271.5,759.6c-0.3,0-0.6,0-0.9-0.1C233.2,750,201,736,174.8,718c-21-14.5-38.1-31.7-50.9-51
		c-21.9-33.1-23.4-60.8-23.4-61.9c-0.1-1.9,1.4-3.6,3.3-3.7c1.9-0.1,3.6,1.4,3.7,3.3c0.5,9.3,5.8,33.5,22.6,58.7
		c12.3,18.5,28.8,35,49.1,48.9c25.4,17.5,56.8,31,93.3,40.3c1.9,0.5,3,2.4,2.6,4.2C274.6,758.5,273.2,759.6,271.5,759.6L271.5,759.6
		z"/>
	<path class="st1" d="M410.2,1041.1c-0.5,0-1-0.1-1.5-0.3c-34.6-16.2-51.2-31.8-53.6-50.4c-2-15.3,5.7-32.5,24.2-54.2
		c16-18.8,40.9-42,80.6-75.1c59.2-49.1,81.2-103,89.2-139.7c8.7-39.7,3.3-68.2,3.3-68.5c-0.5-1.9,0.7-3.8,2.6-4.2
		c1.9-0.5,3.8,0.7,4.2,2.6c0,0.1,0,0.2,0.1,0.3c0.2,1.2,5.7,30-3.2,71c-8.2,37.8-30.8,93.4-91.7,143.9c-39.4,32.8-64,55.7-79.8,74.2
		c-17.1,20.1-24.3,35.6-22.6,48.8c2.1,16,17.4,29.9,49.6,45c1.8,0.8,2.5,2.9,1.7,4.7C412.8,1040.3,411.6,1041.1,410.2,1041.1
		L410.2,1041.1z"/>
	<path class="st1" d="M702.2,670.7c-1.9,0-3.5-1.6-3.5-3.5c0-0.6,0.1-1.1,0.4-1.6c31-59.6-52.2-204.4-53-205.8
		c-1-1.7-0.4-3.8,1.3-4.8c1.7-1,3.8-0.4,4.8,1.3l0,0c14.8,26.4,27.8,53.7,38.9,81.8c23.3,60.1,28.2,104.1,14.3,130.8
		C704.8,670,703.6,670.7,702.2,670.7z"/>
	<path class="st1" d="M170.1,984.1c-1.9,0-3.5-1.6-3.5-3.5c0-0.8,0.3-1.5,0.7-2.1c18.2-23.1,31-50.7,36.2-77.8
		c6.5-34.2-1.8-66.7-23.4-91.5c-15.1-17.4-35.9-28.5-56.1-39.3c-26.9-14.4-54.8-29.3-69.7-59.3c-14.7-29.5-19.2-67-13.6-111.5
		c4.2-33.2,13.9-70.1,29-109.8c0.6-1.8,2.6-2.8,4.5-2.1c1.8,0.6,2.8,2.6,2.1,4.5c0,0.1,0,0.1-0.1,0.2
		C52,555.6,29.6,644.9,60.6,707.4c13.9,28,39.5,41.7,66.7,56.2c20.7,11.1,42.1,22.5,58.1,40.9c23.1,26.5,31.9,61.2,25,97.5
		c-4,20.1-11.3,39.4-21.6,57.1c58.7-55.6,87.8-110.8,86.4-164.3c-1.7-69.1-55.2-111.1-55.7-111.5c-1.5-1.2-1.8-3.4-0.6-4.9
		c1.2-1.5,3.4-1.8,4.9-0.6c0.6,0.4,14.4,11.2,28.6,30.9c13.1,18.2,28.9,48,29.9,85.9c1.6,61.7-35.4,125.2-109.9,188.7
		C171.8,983.8,170.9,984.1,170.1,984.1z"/>
	<path class="st1" d="M611.1,1360.1c-1.9,0-3.5-1.5-3.5-3.5c0-0.8,0.3-1.6,0.8-2.2c18.2-23.1,31-50.7,36.2-77.8
		c6.5-34.2-1.8-66.7-23.4-91.6c-15.1-17.4-35.9-28.5-56.1-39.3c-26.9-14.4-54.8-29.3-69.7-59.3c-14.7-29.5-19.2-67-13.6-111.5
		c4.2-33.2,14-70.1,29-109.8c0.7-1.8,2.7-2.7,4.5-2c1.8,0.7,2.7,2.7,2,4.5c-24.3,63.9-46.8,153.2-15.7,215.8
		c13.9,28,39.5,41.7,66.7,56.2c20.7,11.1,42.1,22.5,58.1,40.9c23.1,26.5,31.9,61.1,25,97.4c-4,19.9-11.2,39-21.3,56.6
		c36.2-35.2,62.5-73.2,78.3-113.4c14.9-37.9,20.6-78.8,16.6-119.3c-6.7-70-39-118.9-39.3-119.4c-1.2-1.6-0.8-3.7,0.7-4.9
		c1.6-1.2,3.7-0.8,4.9,0.7c0.1,0.1,0.1,0.2,0.2,0.3c1.4,2,33.6,50.9,40.5,122.6c4.1,41.6-1.7,83.6-17,122.5
		c-19.1,48.8-53.3,94.4-101.5,135.5C612.7,1359.8,612,1360.1,611.1,1360.1z"/>
	<path class="st1" d="M198.2,1309.2c-1.9,0-3.5-1.6-3.5-3.5c0-0.8,0.3-1.6,0.8-2.2c20.2-24.7,34.5-54.1,40.2-83
		c7.2-36.5-2-71.2-26.1-97.8c-16.8-18.6-40-30.5-62.4-42c-29.9-15.3-60.8-31.2-77.3-63.1c-16.3-31.4-21.4-71.4-15.1-118.9
		c4.6-35.3,15.5-74.8,32.3-117.1c0.7-1.8,2.7-2.7,4.5-2c1.8,0.7,2.7,2.7,2,4.5l0,0c-27,68.2-52,163.5-17.4,230.2
		c15.5,29.9,44,44.6,74.2,60.1c23,11.8,46.7,24,64.4,43.5c25.6,28.3,35.4,65.1,27.7,103.8c-4.2,21.3-12.9,42.8-25,62.6
		c66.4-59.9,99.3-119.3,97.9-176.9c-1.9-74-61.4-118.7-62-119.2c-1.6-1.1-1.9-3.3-0.7-4.9c1.1-1.6,3.3-1.9,4.9-0.7l0,0
		c0.6,0.5,16,11.9,31.7,33c14.5,19.5,32.1,51.2,33.1,91.7c1.7,65.7-39.4,133.4-122,201C199.8,1309,199,1309.2,198.2,1309.2z"/>
	<path class="st1" d="M385.1,563.2c-1.6,0-3.1-1.1-3.4-2.7c-1.8-7.9,3.7-14.8,9.4-18.7c6.4-4.4,13.4-5.3,17.8-2.4
		c1.9,1.3,3.9,3.6,4.3,7.8c3.5-2.5,7.5-6.4,8.3-11.6c1-6.8-3.7-14.6-14-23.1c-1.5-1.2-1.7-3.4-0.5-4.9c1.2-1.5,3.4-1.7,4.9-0.5
		c12.3,10.2,17.8,20.1,16.4,29.5c-2,13.3-17.2,19.8-17.9,20c-1.8,0.7-3.8-0.1-4.6-1.9c-0.3-0.7-0.3-1.4-0.2-2.1
		c0.8-3.8,0.5-6.7-0.8-7.6c-1.6-1.1-5.6-0.6-9.9,2.3c-3.6,2.5-7.5,7-6.5,11.5c0.4,1.9-0.8,3.8-2.7,4.2
		C385.6,563.2,385.3,563.2,385.1,563.2z"/>
	<path class="st1" d="M434.8,744.5c-31.8,0-65.1-16.2-87.5-29.8c-25.3-15.3-47.9-35.9-67.4-61.1c-45-58.4-60.6-123.9-61.2-126.6
		c-4.2-18.1-9.9-43-7.5-63.8c0.7-5.8,2-8.9,4.4-10c1.4-0.7,3.1-0.5,4.4,0.4c5.3,3.5,17.9,7.3,32.7,7.1c11.8-0.1,28.6-2.6,41.7-14.1
		c1.5-1.3,3.7-1.1,4.9,0.3c1.3,1.5,1.1,3.7-0.3,4.9c-14.7,12.9-33.3,15.7-46.2,15.8c-12.8,0.1-26-2.6-34.1-6.8
		c-0.2,1-0.4,2.1-0.5,3.1c-2.3,19.5,3.3,43.7,7.4,61.4c0.6,2.7,15.9,66.7,59.9,124c18.9,24.5,40.9,44.5,65.5,59.4
		c21.5,13.1,53.4,28.6,83.4,28.8c1.4-0.4,8.5-2.7,25-11.5c1.7-0.9,3.8-0.3,4.7,1.4s0.3,3.8-1.4,4.7l0,0
		c-19.6,10.4-26.4,12-27.2,12.2C435.3,744.5,435.1,744.5,434.8,744.5z"/>
	<path class="st1" d="M788.4,999.3c-0.4,0-0.8-0.1-1.2-0.2c-92.3-32.6-149.5-78.7-170.1-136.9c-12.7-35.7-8.5-69.2-2.8-90.9
		c6.2-23.5,15.2-38.5,15.6-39.1c1-1.7,3.2-2.2,4.8-1.2c1.7,1,2.2,3.2,1.2,4.8c-0.3,0.6-35.3,58.9-12.1,124.1
		c17.9,50.4,64.8,91.5,139.5,122.5c-15.9-12.9-29.7-28.3-40.6-45.6c-19.5-31.4-23.6-66.9-11.5-100c8.3-22.8,24.2-41.2,39.6-59
		c20.2-23.3,39.2-45.3,42.2-76.4c6.6-69.4-46.4-144.8-91.9-195.8c-1.2-1.5-1.1-3.7,0.4-4.9c1.4-1.2,3.5-1.1,4.8,0.3
		c46.5,52,100.5,129.1,93.6,201.2c-3.2,33.3-23.8,57.2-43.8,80.3c-15,17.3-30.4,35.1-38.3,56.8c-11.3,31-7.4,64.3,10.9,93.9
		c14.5,23.4,36.4,44.6,61.6,59.7c1.7,1,2.2,3.1,1.2,4.8C790.8,998.7,789.7,999.3,788.4,999.3L788.4,999.3z"/>
	<path class="st1" d="M278.8,1144.4c-1.9,0-3.4-1.4-3.5-3.3c-1.6-28-25.9-58.2-47.7-74.5c-8.8-6.6-18.8-12.2-28.4-17.6
		c-14-7.9-28.4-16-40.2-27.5c-19.1-18.7-30.2-44.8-32-75.5c-1.4-28,4.2-55.8,16.4-81.1c0.7-1.8,2.7-2.7,4.5-2c1.8,0.7,2.7,2.7,2,4.5
		c-0.1,0.2-0.1,0.3-0.2,0.5c-11.6,24.2-17,50.8-15.7,77.6c1.7,28.9,12,53.5,29.9,70.9c11.1,10.9,24.5,18.4,38.7,26.4
		c9.8,5.5,19.9,11.2,29.1,18.1c23.9,17.8,48.8,49.4,50.5,79.7c0.1,1.9-1.4,3.6-3.3,3.7c0,0,0,0,0,0L278.8,1144.4z"/>
	<path class="st1" d="M666.3,1159.4c-0.9,0-1.8-0.4-2.4-1c-58.3-55.9-87.1-112.3-85.6-167.7c0.9-35.4,14.5-63.3,25.6-80.6
		c12.1-18.7,23.9-28.9,24.4-29.4c1.4-1.3,3.6-1.2,4.9,0.3c1.3,1.4,1.2,3.6-0.3,4.9c0,0-0.1,0.1-0.1,0.1l0,0
		c-0.5,0.4-45.9,40.4-47.6,105c-1.4,53.3,26.7,107.9,83.5,162.4c1.4,1.4,1.4,3.6,0.1,4.9C668.1,1159,667.2,1159.4,666.3,1159.4
		L666.3,1159.4z"/>
</g>
</svg>
