<svg xmlns="http://www.w3.org/2000/svg" viewBox="0 0 1130 1408"><defs><style>.cls-1{fill:#04b795;}.cls-2{fill:#03e2b7;}</style></defs><title>portrait</title><g id="Layer_3" data-name="Layer 3"><path class="cls-1" d="M652.08,655a3.44,3.44,0,0,1-1.64-.41,3.49,3.49,0,0,1-1.45-4.73c39.7-74.66,45.67-162.4,45.73-163.27a3.5,3.5,0,0,1,5.24-2.82c10.06,5.79,18.47,6.8,25,3,16.34-9.47,19.83-47.12,19.8-60.83-.16-11.57-2-23.52-3.87-35.07-.67-4.23-1.36-8.6-1.95-12.88-1.64-11.81-4.11-29.66-16.2-35.65a6,6,0,0,0-5.53-.24c-5.42,2.54-9.55,12.56-11,18.67-.58,2.42-1,5.12-1.4,8-1,6.62-2.08,14.13-5.89,19.83-2.56,3.82-5.59,4.55-7.66,4.49-5.75-.17-10-6.33-11.5-9a238.9,238.9,0,0,1-11.14-22.3c-2.82-6.23-5.64-12.56-8.36-18.82-18-41.4-35.18-86.55-55.55-146.41-4.69-13.77-9.53-28-2-42.68,6-11.72,12.81-23.25,21.65-28.25a3.5,3.5,0,0,1,1.48-.45c1.31-.09,32.7-1.79,69.36,41C716.35,190.84,735,225.44,750.65,269,770.11,323.2,785,391.6,794.88,472.31a3.5,3.5,0,0,1-7,.85c-9.76-79.68-24.39-147.22-43.5-200.76-15.25-42.72-33.34-76.63-53.78-100.79-18.06-21.34-34.61-30.92-45.32-35.21-9.41-3.76-16.06-4.2-18.23-4.23-7.93,5-14.79,18.4-18.14,24.92-6.18,12-2,24.26,2.4,37.22C631.67,254,648.73,299,666.7,340.19c2.71,6.23,5.51,12.52,8.31,18.72a233.76,233.76,0,0,0,10.81,21.66c2,3.4,4.44,5.46,5.67,5.5h0c.6,0,1.26-.86,1.61-1.38,2.93-4.39,3.88-10.78,4.79-17,.42-2.89.86-5.87,1.51-8.59.45-1.89,4.69-18.63,14.83-23.39a13,13,0,0,1,11.62.3c15.41,7.64,18.19,27.7,20,41,.59,4.22,1.27,8.55,1.94,12.75,1.86,11.79,3.78,24,3.95,36.1a165.89,165.89,0,0,1-2.71,27.92c-3.75,20.15-10.67,33.29-20.58,39-7.7,4.47-16.85,4.29-27.24-.5-2,20.33-11.31,95.44-46.08,160.81A3.49,3.49,0,0,1,652.08,655Z"/><path class="cls-1" d="M497.07,655a3.5,3.5,0,0,1-.52-7c19.19-2.95,46.1-10.19,65.35-28a66.76,66.76,0,0,0,11.93-14.37c-12,1.79-37.16,4.31-56-2.21-21.72-7.5-33.92,8-34.43,8.63a3.5,3.5,0,0,1-5.58-4.23c.15-.21,15.67-20.21,42.3-11,23.32,8.06,58.9.85,59.26.78a3.5,3.5,0,0,1,4,4.54c-.58,1.71-14.88,41.89-85.76,52.77A3.27,3.27,0,0,1,497.07,655Z"/><path class="cls-1" d="M273.41,637.19a3.52,3.52,0,0,1-2.83-1.43c-45.71-62-74.55-125.79-85.7-189.43a345.37,345.37,0,0,1,6.94-151.65c22.61-82.89,69.58-134.47,71.8-136.87C358,45.35,513.09,26.84,574.29,64c24.6,14.91,32.3,37.26,21.69,62.93a4.74,4.74,0,0,1-.26.5l-11,17.73-.17.24-9.12,12.32c-.46.61-1.3,2-2.19,3.38-6.2,9.95-9.88,14.71-14,14.89a10.22,10.22,0,0,1-4.47-1c-24.38-9.75-51.65-8.5-78-7.28l-3.69.17a211.62,211.62,0,0,0-75.22,16.87c-37.72,16.17-67.57,46.44-84,85.24-12.16,28.66-18.3,62.26-18.24,99.87a319,319,0,0,0,1.9,34.56c0,.23.17,1,.35,2,.42,2.4.77,4.37,1,6,15.76-8.47,66.6-32.42,102.23-10.75,27.6,16.79,39.25,56.58,34.63,118.28a3.54,3.54,0,0,1-.78,2s-4.14,5.29-3.15,11.7c.72,4.71,4,9.07,9.8,13a3.5,3.5,0,1,1-3.91,5.8c-7.51-5.05-11.83-11.05-12.83-17.82-1.13-7.61,2.39-13.79,4-16.1C433,460.21,422.53,423,397.6,407.68c-38.37-23.5-99.31,13-99.92,13.39h0a3.5,3.5,0,0,1-4.8-1.17,3.54,3.54,0,0,1-.43-2.6c-.09-1.75-1.15-7.69-1.5-9.72-.28-1.56-.38-2.12-.41-2.43a325.66,325.66,0,0,1-1.95-35.33c-.06-38.56,6.26-73.08,18.79-102.61,17.18-40.48,48.33-72.06,87.72-89a222.09,222.09,0,0,1,77.67-17.43l3.67-.17c27.12-1.24,55.16-2.53,80.9,7.76a10.09,10.09,0,0,0,1.4.5c2.14-1.23,6.81-8.71,8.59-11.58,1-1.68,1.88-3,2.5-3.85l9-12.2,10.76-17.36c11.5-28.15-3.94-44.9-19-54-30.23-18.33-83-21.5-137.74-8.28-64.3,15.54-122.54,51.31-164,100.73l-.14.15c-.47.5-47.77,51.41-70.3,134.31a338.32,338.32,0,0,0-6.68,148.49c11,62.5,39.39,125.17,84.41,186.28a3.49,3.49,0,0,1-.74,4.89A3.43,3.43,0,0,1,273.41,637.19Z"/><path class="cls-1" d="M477.89,401.78a3.51,3.51,0,0,1-2.33-6.12c.65-.57,2.81-3.53,4.91-6.4,13.71-18.72,45.82-62.57,85.31-63.92,19.21-.63,37.3,9,53.87,28.65a3.5,3.5,0,1,1-5.35,4.51C599.18,340.57,583,331.77,566,332.34c-36.09,1.23-67.92,44.7-79.9,61.06-3.26,4.45-4.75,6.47-5.9,7.49A3.52,3.52,0,0,1,477.89,401.78Z"/><path class="cls-1" d="M536.56,423.27a76.4,76.4,0,0,1-18.88-2.51,3.5,3.5,0,0,1,1.73-6.78c16.36,4.17,30.33,2.75,41.51-4.2,10.23-6.36,14.08-14.93,14.31-16a3.5,3.5,0,0,1,6.85,1.44c-.73,3.47-6.13,13.45-17.43,20.48C558.51,419.52,549.25,423.27,536.56,423.27Z"/><path class="cls-1" d="M367,759.62a3.7,3.7,0,0,1-.87-.11C328.69,750,296.46,736,270.33,718c-21-14.51-38.12-31.66-50.9-51C197.56,633.92,196,606.25,196,605.09a3.5,3.5,0,1,1,7-.33c.46,9.29,5.77,33.52,22.55,58.74,12.32,18.51,28.82,35,49.07,48.9,25.39,17.49,56.77,31.05,93.27,40.32a3.5,3.5,0,0,1-.86,6.9Z"/><path class="cls-1" d="M505.68,1041.08a3.42,3.42,0,0,1-1.48-.33c-34.64-16.22-51.16-31.77-53.56-50.42-2-15.26,5.72-32.5,24.22-54.23,16-18.83,40.9-42,80.64-75.09,59.19-49.09,81.19-103,89.21-139.65,8.71-39.72,3.34-68.23,3.29-68.51a3.5,3.5,0,1,1,6.86-1.35c.24,1.2,5.7,30-3.23,71-8.22,37.78-30.8,93.41-91.66,143.88-39.41,32.83-64,55.73-79.78,74.25-17.12,20.12-24.31,35.63-22.61,48.8,2.07,16,17.36,29.88,49.59,45a3.5,3.5,0,0,1-1.49,6.67Z"/><path class="cls-1" d="M797.72,670.73a3.49,3.49,0,0,1-3.1-5.11c31-59.63-52.18-204.37-53-205.83a3.5,3.5,0,0,1,6.06-3.51,663.37,663.37,0,0,1,38.87,81.82c23.34,60.1,28.16,104.09,14.31,130.75A3.48,3.48,0,0,1,797.72,670.73Z"/><path class="cls-1" d="M265.6,984.11a3.51,3.51,0,0,1-2.75-5.67c18.16-23.08,31-50.69,36.17-77.75,6.53-34.15-1.79-66.67-23.41-91.55-15.11-17.39-35.94-28.53-56.08-39.31-26.93-14.41-54.77-29.31-69.67-59.28-14.66-29.47-19.25-67-13.64-111.54,4.17-33.15,13.94-70.09,29.05-109.81a3.5,3.5,0,1,1,6.54,2.49c-24.31,63.92-46.76,153.23-15.68,215.75,13.9,28,39.55,41.69,66.7,56.22,20.7,11.08,42.11,22.53,58.06,40.89,23.06,26.53,31.94,61.15,25,97.46a186,186,0,0,1-21.58,57.09c58.71-55.64,87.76-110.82,86.43-164.28C369,725.7,315.55,683.71,315,683.3a3.5,3.5,0,1,1,4.27-5.55c.58.44,14.39,11.15,28.58,30.92,13.1,18.25,28.92,48,29.89,85.88,1.57,61.73-35.4,125.23-109.87,188.72A3.52,3.52,0,0,1,265.6,984.11Z"/><path class="cls-1" d="M706.62,1360.1a3.49,3.49,0,0,1-2.75-5.66c18.16-23.09,31-50.7,36.17-77.75,6.52-34.16-1.79-66.67-23.42-91.55-15.1-17.39-35.93-28.54-56.08-39.31-26.92-14.41-54.77-29.31-69.67-59.28-14.65-29.47-19.24-67-13.64-111.54,4.18-33.15,13.95-70.1,29-109.81a3.5,3.5,0,0,1,6.55,2.48c-24.31,63.92-46.77,153.24-15.69,215.75,13.9,28,39.55,41.69,66.71,56.22,20.7,11.08,42.11,22.54,58.06,40.9,23.06,26.53,31.94,61.14,25,97.45a185.62,185.62,0,0,1-21.31,56.63c36.25-35.15,62.53-73.21,78.29-113.43a257.14,257.14,0,0,0,16.57-119.27c-6.67-70-39-118.89-39.29-119.38a3.5,3.5,0,1,1,5.81-3.89c1.37,2,33.61,50.89,40.45,122.61a264,264,0,0,1-17,122.48c-19.11,48.79-53.27,94.38-101.52,135.52A3.48,3.48,0,0,1,706.62,1360.1Z"/><path class="cls-1" d="M293.67,1309.19a3.51,3.51,0,0,1-2.71-5.72c20.2-24.65,34.48-54.13,40.23-83,7.25-36.47-2-71.19-26.06-97.77-16.83-18.59-40-30.5-62.41-42-29.87-15.34-60.75-31.21-77.27-63.1-16.27-31.41-21.36-71.42-15.14-118.91,4.64-35.35,15.49-74.75,32.27-117.1a3.5,3.5,0,0,1,6.51,2.58c-27,68.2-52,163.5-17.42,230.21,15.49,29.91,44,44.57,74.25,60.09,23,11.8,46.72,24,64.4,43.54,25.58,28.26,35.43,65.14,27.73,103.83-4.23,21.26-12.89,42.81-25,62.64,66.42-59.9,99.31-119.31,97.86-176.87-1.86-74-61.42-118.73-62-119.17a3.5,3.5,0,0,1,4.15-5.64c.65.48,16,11.89,31.73,33,14.55,19.48,32.12,51.2,33.14,91.66,1.66,65.74-39.38,133.36-122,201A3.5,3.5,0,0,1,293.67,1309.19Z"/><path class="cls-1" d="M480.57,563.21a3.5,3.5,0,0,1-3.41-2.74c-1.76-7.88,3.7-14.84,9.39-18.72,6.43-4.39,13.41-5.32,17.78-2.37,1.91,1.28,3.88,3.62,4.3,7.84,3.48-2.46,7.53-6.37,8.3-11.56,1-6.79-3.68-14.56-14-23.08a3.5,3.5,0,0,1,4.47-5.39c12.31,10.21,17.83,20.14,16.41,29.53-2,13.31-17.2,19.76-17.85,20a3.5,3.5,0,0,1-4.76-4c.83-3.84.53-6.68-.82-7.59-1.58-1.06-5.59-.6-9.92,2.35C486.87,550,483,554.47,484,559a3.5,3.5,0,0,1-2.66,4.17A3.29,3.29,0,0,1,480.57,563.21Z"/><path class="cls-1" d="M530.31,744.54c-31.76,0-65.11-16.2-87.49-29.79-25.27-15.34-47.94-35.9-67.36-61.12-45-58.4-60.57-123.88-61.22-126.64-4.19-18.15-9.94-43-7.52-63.75.68-5.8,2-8.88,4.42-10a4.43,4.43,0,0,1,4.4.36c5.34,3.5,17.86,7.26,32.73,7.11,11.79-.08,28.59-2.6,41.68-14.07a3.5,3.5,0,0,1,4.62,5.27c-14.72,12.89-33.27,15.71-46.25,15.8-12.78.09-26-2.58-34.12-6.81a25.3,25.3,0,0,0-.52,3.14c-2.28,19.55,3.3,43.71,7.38,61.36.63,2.69,15.88,66.74,59.94,124,18.9,24.53,40.92,44.52,65.45,59.41,21.52,13.06,53.41,28.62,83.42,28.77,1.43-.41,8.48-2.65,25-11.47a3.5,3.5,0,0,1,3.29,6.18C538.6,742.7,531.74,744.31,531,744.46A3.53,3.53,0,0,1,530.31,744.54Z"/><path class="cls-1" d="M883.9,999.34a3.43,3.43,0,0,1-1.17-.2c-92.27-32.62-149.52-78.67-170.15-136.87-12.67-35.74-8.54-69.16-2.84-90.89,6.17-23.54,15.23-38.48,15.61-39.11a3.5,3.5,0,0,1,6,3.66c-.35.58-35.26,58.93-12.11,124.08,17.9,50.4,64.78,91.52,139.51,122.46a186.27,186.27,0,0,1-40.58-45.59c-19.48-31.42-23.58-66.92-11.55-100,8.33-22.85,24.21-41.21,39.58-59,20.15-23.29,39.18-45.28,42.15-76.38C895,632.09,842,556.73,796.43,505.75a3.5,3.5,0,0,1,5.22-4.66c46.52,52,100.52,129.14,93.64,201.16-3.18,33.32-23.85,57.2-43.83,80.29-15,17.28-30.41,35.14-38.29,56.78-11.28,31-7.4,64.31,10.92,93.87,14.51,23.41,36.39,44.59,61.6,59.65a3.49,3.49,0,0,1-1.79,6.5Z"/><path class="cls-1" d="M374.29,1144.41a3.5,3.5,0,0,1-3.49-3.3c-1.61-28-25.87-58.23-47.72-74.52-8.84-6.59-18.78-12.18-28.39-17.59-14-7.86-28.41-16-40.19-27.51-19.14-18.69-30.18-44.8-32-75.5a167.59,167.59,0,0,1,16.38-81.07,3.5,3.5,0,1,1,6.3,3,160.38,160.38,0,0,0-15.69,77.62c1.67,28.93,12,53.45,29.86,70.9,11.12,10.87,24.54,18.43,38.74,26.42,9.8,5.52,19.93,11.22,29.14,18.08,23.88,17.81,48.77,49.37,50.52,79.73a3.49,3.49,0,0,1-3.29,3.69Z"/><path class="cls-1" d="M761.75,1159.43a3.51,3.51,0,0,1-2.43-1c-58.28-55.89-87.09-112.31-85.62-167.71.94-35.36,14.46-63.34,25.63-80.59,12.11-18.69,23.89-28.94,24.39-29.37a3.5,3.5,0,1,1,4.57,5.3h0c-.46.4-45.93,40.43-47.6,104.95-1.37,53.31,26.71,107.94,83.48,162.36a3.5,3.5,0,0,1-2.42,6Z"/></g><g id="Layer_2" data-name="Layer 2"><path class="cls-2" d="M634.08,655a3.44,3.44,0,0,1-1.64-.41,3.49,3.49,0,0,1-1.45-4.73c39.7-74.66,45.67-162.4,45.73-163.27a3.5,3.5,0,0,1,5.24-2.82c10.06,5.79,18.48,6.8,25,3,16.34-9.47,19.83-47.12,19.8-60.83-.16-11.57-2-23.52-3.87-35.07-.67-4.23-1.36-8.6-1.95-12.88-1.64-11.81-4.11-29.66-16.2-35.65a6,6,0,0,0-5.53-.24c-5.42,2.54-9.55,12.56-11,18.67-.58,2.42-1,5.12-1.4,8-1,6.62-2.08,14.13-5.89,19.83-2.56,3.82-5.59,4.55-7.66,4.49-5.75-.17-10-6.33-11.5-9a238.9,238.9,0,0,1-11.14-22.3c-2.82-6.23-5.64-12.56-8.36-18.82-18-41.4-35.18-86.55-55.55-146.41-4.69-13.77-9.53-28-2-42.68,6-11.72,12.81-23.25,21.65-28.25a3.5,3.5,0,0,1,1.48-.45c1.31-.09,32.7-1.79,69.36,41C698.35,190.84,717,225.44,732.65,269,752.11,323.2,767,391.6,776.88,472.31a3.5,3.5,0,0,1-7,.85c-9.76-79.68-24.39-147.22-43.5-200.76-15.25-42.72-33.34-76.63-53.78-100.79-18.06-21.34-34.61-30.92-45.32-35.21-9.41-3.76-16.06-4.2-18.23-4.23-7.93,5-14.79,18.4-18.14,24.92-6.18,12-2,24.26,2.4,37.22C613.67,254,630.73,299,648.7,340.19c2.71,6.23,5.51,12.52,8.31,18.72a233.76,233.76,0,0,0,10.81,21.66c2,3.4,4.44,5.46,5.67,5.5h0c.6,0,1.26-.86,1.61-1.38,2.93-4.39,3.88-10.78,4.79-17,.42-2.89.86-5.87,1.51-8.59.45-1.89,4.69-18.63,14.83-23.39a13,13,0,0,1,11.62.3c15.41,7.64,18.19,27.7,20,41,.59,4.22,1.27,8.55,1.94,12.75,1.86,11.79,3.78,24,3.95,36.1a165.89,165.89,0,0,1-2.71,27.92c-3.75,20.15-10.67,33.29-20.58,39-7.7,4.47-16.85,4.29-27.24-.5-2,20.33-11.31,95.44-46.08,160.81A3.49,3.49,0,0,1,634.08,655Z"/><path class="cls-2" d="M479.07,655a3.5,3.5,0,0,1-.52-7c19.19-2.95,46.1-10.19,65.35-28a66.76,66.76,0,0,0,11.93-14.37c-12,1.79-37.16,4.31-56-2.21-21.72-7.5-33.92,8-34.43,8.63a3.5,3.5,0,0,1-5.58-4.23c.15-.21,15.67-20.21,42.3-11,23.32,8.06,58.9.85,59.26.78a3.49,3.49,0,0,1,4,4.54c-.57,1.71-14.87,41.89-85.75,52.77A3.27,3.27,0,0,1,479.07,655Z"/><path class="cls-2" d="M255.41,637.19a3.52,3.52,0,0,1-2.83-1.43c-45.71-62-74.55-125.79-85.7-189.43a345.37,345.37,0,0,1,6.94-151.65c22.61-82.89,69.58-134.47,71.8-136.87C340,45.35,495.09,26.84,556.29,64c24.6,14.91,32.3,37.26,21.69,62.93a4.74,4.74,0,0,1-.26.5l-11,17.73-.17.24-9.12,12.32c-.46.61-1.3,2-2.19,3.38-6.2,9.95-9.88,14.71-14,14.89a10.22,10.22,0,0,1-4.47-1c-24.38-9.75-51.65-8.5-78-7.28l-3.69.17a211.62,211.62,0,0,0-75.22,16.87c-37.72,16.17-67.57,46.44-84,85.24-12.16,28.66-18.3,62.26-18.24,99.87a319,319,0,0,0,1.9,34.56c0,.23.17,1,.35,2,.42,2.4.77,4.37,1,6,15.76-8.47,66.6-32.42,102.23-10.75,27.6,16.79,39.25,56.58,34.63,118.28a3.54,3.54,0,0,1-.78,2s-4.14,5.29-3.15,11.7c.72,4.71,4,9.07,9.8,13a3.5,3.5,0,1,1-3.91,5.8c-7.51-5.05-11.83-11.05-12.83-17.82-1.13-7.61,2.39-13.79,4-16.1C415,460.21,404.53,423,379.6,407.68c-38.37-23.5-99.31,13-99.92,13.39h0a3.5,3.5,0,0,1-4.8-1.17,3.54,3.54,0,0,1-.43-2.6c-.09-1.75-1.15-7.69-1.5-9.72-.28-1.56-.38-2.12-.41-2.43a325.66,325.66,0,0,1-1.95-35.33c-.06-38.56,6.26-73.08,18.79-102.61,17.18-40.48,48.33-72.06,87.72-89a222.09,222.09,0,0,1,77.67-17.43l3.67-.17c27.12-1.24,55.15-2.53,80.9,7.76a10.09,10.09,0,0,0,1.4.5c2.14-1.23,6.81-8.71,8.59-11.58,1-1.68,1.88-3,2.5-3.85l9-12.2,10.76-17.36c11.5-28.15-3.94-44.9-19-54-30.23-18.33-83-21.5-137.74-8.28-64.3,15.54-122.54,51.31-164,100.73l-.14.15c-.47.5-47.77,51.41-70.3,134.31a338.32,338.32,0,0,0-6.68,148.49c11,62.5,39.39,125.17,84.41,186.28a3.49,3.49,0,0,1-.74,4.89A3.43,3.43,0,0,1,255.41,637.19Z"/><path class="cls-2" d="M459.89,401.78a3.51,3.51,0,0,1-2.33-6.12c.65-.57,2.81-3.53,4.91-6.4,13.71-18.72,45.82-62.57,85.31-63.92,19.17-.65,37.3,9,53.87,28.65a3.5,3.5,0,1,1-5.35,4.51c-15.12-17.93-31.36-26.72-48.28-26.16-36.09,1.23-67.92,44.7-79.9,61.06-3.26,4.45-4.75,6.47-5.9,7.49A3.52,3.52,0,0,1,459.89,401.78Z"/><path class="cls-2" d="M518.56,423.27a76.4,76.4,0,0,1-18.88-2.51,3.5,3.5,0,0,1,1.73-6.78c16.36,4.16,30.33,2.75,41.52-4.21,10.22-6.35,14.07-14.92,14.3-16a3.5,3.5,0,0,1,6.85,1.44c-.73,3.47-6.13,13.45-17.43,20.48C540.51,419.52,531.26,423.27,518.56,423.27Z"/><path class="cls-2" d="M349,759.62a3.7,3.7,0,0,1-.87-.11C310.69,750,278.46,736,252.33,718c-21-14.51-38.12-31.66-50.9-51C179.56,633.92,178,606.25,178,605.09a3.5,3.5,0,1,1,7-.33c.46,9.29,5.77,33.52,22.55,58.74,12.32,18.51,28.82,35,49.07,48.9,25.39,17.49,56.77,31.05,93.27,40.32a3.5,3.5,0,0,1-.86,6.9Z"/><path class="cls-2" d="M487.68,1041.08a3.42,3.42,0,0,1-1.48-.33c-34.64-16.22-51.16-31.77-53.56-50.42-2-15.26,5.72-32.5,24.22-54.23,16-18.83,40.9-42,80.64-75.09,59.19-49.09,81.19-103,89.21-139.65,8.71-39.72,3.34-68.23,3.29-68.51a3.5,3.5,0,1,1,6.86-1.35c.24,1.2,5.7,30-3.23,71-8.22,37.78-30.8,93.41-91.66,143.88-39.41,32.83-64,55.73-79.78,74.25-17.12,20.12-24.31,35.63-22.61,48.8,2.07,16,17.36,29.88,49.59,45a3.5,3.5,0,0,1-1.49,6.67Z"/><path class="cls-2" d="M779.72,670.73a3.49,3.49,0,0,1-3.1-5.11c31-59.63-52.18-204.37-53-205.83a3.5,3.5,0,0,1,6.06-3.51,663.37,663.37,0,0,1,38.87,81.82c23.34,60.1,28.16,104.09,14.31,130.75A3.48,3.48,0,0,1,779.72,670.73Z"/><path class="cls-2" d="M247.6,984.11a3.51,3.51,0,0,1-2.75-5.67c18.16-23.08,31-50.69,36.17-77.75,6.53-34.15-1.79-66.67-23.41-91.55-15.11-17.39-35.94-28.53-56.08-39.31-26.93-14.41-54.77-29.31-69.67-59.28-14.66-29.47-19.25-67-13.64-111.54,4.17-33.15,13.94-70.09,29.05-109.81a3.5,3.5,0,1,1,6.54,2.49c-24.31,63.92-46.76,153.23-15.68,215.75,13.9,28,39.55,41.69,66.7,56.22,20.7,11.08,42.11,22.53,58.06,40.89,23.06,26.53,31.94,61.15,25,97.46a186,186,0,0,1-21.58,57.09c58.71-55.64,87.76-110.82,86.43-164.28C351,725.7,297.55,683.71,297,683.3a3.5,3.5,0,1,1,4.27-5.55c.58.44,14.39,11.15,28.58,30.92,13.1,18.25,28.92,48,29.89,85.88,1.57,61.73-35.4,125.23-109.87,188.72A3.52,3.52,0,0,1,247.6,984.11Z"/><path class="cls-2" d="M688.62,1360.1a3.49,3.49,0,0,1-2.75-5.66c18.16-23.09,31-50.7,36.17-77.75,6.52-34.16-1.79-66.67-23.42-91.55-15.1-17.39-35.93-28.54-56.08-39.31-26.92-14.41-54.77-29.31-69.67-59.28-14.65-29.47-19.24-67-13.64-111.54,4.18-33.15,13.95-70.1,29-109.81a3.5,3.5,0,0,1,6.55,2.48c-24.31,63.92-46.77,153.24-15.69,215.75,13.9,28,39.55,41.69,66.71,56.22,20.7,11.08,42.11,22.54,58.06,40.9,23.06,26.53,31.94,61.14,25,97.45a185.62,185.62,0,0,1-21.31,56.63c36.25-35.15,62.53-73.21,78.29-113.43a257.14,257.14,0,0,0,16.57-119.27c-6.67-70-39-118.89-39.29-119.38a3.5,3.5,0,1,1,5.81-3.89c1.37,2,33.61,50.89,40.45,122.61a264,264,0,0,1-17,122.48c-19.11,48.79-53.27,94.38-101.52,135.52A3.48,3.48,0,0,1,688.62,1360.1Z"/><path class="cls-2" d="M275.67,1309.19a3.51,3.51,0,0,1-2.71-5.72c20.2-24.65,34.48-54.13,40.23-83,7.25-36.47-2-71.19-26.06-97.77-16.83-18.59-40-30.5-62.41-42-29.87-15.34-60.75-31.21-77.27-63.1-16.27-31.41-21.36-71.42-15.14-118.91,4.64-35.35,15.49-74.75,32.27-117.1a3.5,3.5,0,0,1,6.51,2.58c-27,68.2-52,163.5-17.42,230.21,15.49,29.91,44,44.57,74.25,60.09,23,11.8,46.72,24,64.4,43.54,25.58,28.26,35.43,65.14,27.73,103.83-4.23,21.26-12.89,42.81-25,62.64,66.42-59.9,99.31-119.31,97.86-176.87-1.86-74-61.42-118.73-62-119.17a3.5,3.5,0,0,1,4.15-5.64c.65.48,16,11.89,31.73,33,14.55,19.48,32.12,51.2,33.14,91.66,1.66,65.74-39.38,133.36-122,201A3.5,3.5,0,0,1,275.67,1309.19Z"/><path class="cls-2" d="M462.57,563.21a3.5,3.5,0,0,1-3.41-2.74c-1.76-7.88,3.7-14.84,9.39-18.72,6.43-4.39,13.41-5.32,17.78-2.37,1.91,1.28,3.88,3.62,4.3,7.84,3.48-2.46,7.53-6.37,8.3-11.56,1-6.79-3.68-14.56-14-23.08a3.5,3.5,0,0,1,4.47-5.39c12.31,10.21,17.83,20.14,16.41,29.53-2,13.31-17.2,19.76-17.85,20a3.5,3.5,0,0,1-4.76-4c.83-3.84.53-6.68-.82-7.59-1.58-1.06-5.59-.6-9.92,2.35C468.87,550,465,554.47,466,559a3.5,3.5,0,0,1-2.66,4.17A3.29,3.29,0,0,1,462.57,563.21Z"/><path class="cls-2" d="M512.31,744.54c-31.76,0-65.11-16.2-87.49-29.79-25.27-15.34-47.94-35.9-67.36-61.12-45-58.4-60.57-123.88-61.22-126.64-4.19-18.15-9.94-43-7.52-63.75.68-5.8,2-8.88,4.42-10a4.43,4.43,0,0,1,4.4.36c5.34,3.5,17.86,7.26,32.73,7.11,11.79-.08,28.59-2.6,41.68-14.07a3.5,3.5,0,0,1,4.62,5.27c-14.72,12.89-33.27,15.71-46.25,15.8-12.76.09-26-2.58-34.12-6.81a25.3,25.3,0,0,0-.52,3.14c-2.28,19.55,3.3,43.71,7.38,61.36.63,2.69,15.88,66.74,59.94,124,18.9,24.53,40.92,44.52,65.45,59.41,21.52,13.06,53.41,28.62,83.42,28.77,1.43-.41,8.48-2.65,25-11.47a3.5,3.5,0,0,1,3.29,6.18C520.6,742.7,513.74,744.31,513,744.46A3.53,3.53,0,0,1,512.31,744.54Z"/><path class="cls-2" d="M865.9,999.34a3.43,3.43,0,0,1-1.17-.2c-92.27-32.62-149.52-78.67-170.15-136.87-12.67-35.74-8.54-69.16-2.84-90.89,6.17-23.54,15.23-38.48,15.61-39.11a3.5,3.5,0,0,1,6,3.66c-.35.58-35.26,58.93-12.11,124.08,17.9,50.4,64.78,91.52,139.51,122.46a186.27,186.27,0,0,1-40.58-45.59c-19.48-31.42-23.58-66.92-11.55-100,8.33-22.85,24.21-41.21,39.58-59,20.15-23.29,39.18-45.28,42.15-76.38C877,632.09,824,556.73,778.43,505.75a3.5,3.5,0,0,1,5.22-4.66c46.52,52,100.52,129.14,93.64,201.16-3.18,33.32-23.85,57.2-43.83,80.29-15,17.28-30.41,35.14-38.29,56.78-11.28,31-7.4,64.31,10.92,93.87,14.51,23.41,36.39,44.59,61.6,59.65a3.49,3.49,0,0,1-1.79,6.5Z"/><path class="cls-2" d="M356.29,1144.41a3.5,3.5,0,0,1-3.49-3.3c-1.61-28-25.87-58.23-47.72-74.52-8.84-6.59-18.78-12.18-28.39-17.59-14-7.86-28.41-16-40.19-27.51-19.14-18.69-30.18-44.8-32-75.5a167.59,167.59,0,0,1,16.38-81.07,3.5,3.5,0,1,1,6.3,3,160.38,160.38,0,0,0-15.69,77.62c1.67,28.93,12,53.45,29.86,70.9,11.12,10.87,24.54,18.43,38.74,26.42,9.8,5.52,19.93,11.22,29.14,18.08,23.88,17.81,48.77,49.37,50.52,79.73a3.49,3.49,0,0,1-3.29,3.69Z"/><path class="cls-2" d="M743.75,1159.43a3.51,3.51,0,0,1-2.43-1c-58.28-55.89-87.09-112.31-85.62-167.71.94-35.36,14.46-63.34,25.63-80.59,12.11-18.69,23.89-28.94,24.39-29.37a3.5,3.5,0,1,1,4.57,5.3h0c-.46.4-45.93,40.43-47.6,104.95-1.37,53.31,26.71,107.94,83.48,162.36a3.5,3.5,0,0,1-2.42,6Z"/></g></svg>