<?xml version="1.0" encoding="utf-8"?>
<!-- Generator: Adobe Illustrator 24.0.3, SVG Export Plug-In . SVG Version: 6.00 Build 0)  -->
<svg version="1.1" id="Layer_1" xmlns="http://www.w3.org/2000/svg" xmlns:xlink="http://www.w3.org/1999/xlink" x="0px" y="0px"
	 viewBox="0 0 853 1408" style="enable-background:new 0 0 853 1408;" xml:space="preserve">
<style type="text/css">
	.st0{fill:#4608BF;}
	.st1{opacity:0.5;}
	.st2{fill:#8264FF;}
</style>
<title>portrait</title>
<g id="Layer_3_1_">
	<path class="st0" d="M555.8,653.06c-0.57,0-1.14-0.14-1.64-0.41c-1.7-0.9-2.36-3.01-1.46-4.72c0,0,0.01-0.01,0.01-0.01
		c39.7-74.66,45.67-162.4,45.73-163.27c0.12-1.93,1.78-3.4,3.71-3.28c0.54,0.03,1.06,0.19,1.53,0.46c10.06,5.79,18.47,6.8,25,3
		c16.34-9.47,19.83-47.12,19.8-60.83c-0.16-11.57-2-23.52-3.87-35.07c-0.67-4.23-1.36-8.6-1.95-12.88
		c-1.64-11.81-4.11-29.66-16.2-35.65c-1.69-0.98-3.76-1.07-5.53-0.24c-5.42,2.54-9.55,12.56-11,18.67c-0.58,2.42-1,5.12-1.4,8
		c-1,6.62-2.08,14.13-5.89,19.83c-2.56,3.82-5.59,4.55-7.66,4.49c-5.75-0.17-10-6.33-11.5-9c-4.1-7.23-7.82-14.68-11.14-22.3
		c-2.82-6.23-5.64-12.56-8.36-18.82c-18-41.4-35.18-86.55-55.55-146.41c-4.69-13.77-9.53-28-2-42.68
		c6-11.72,12.81-23.25,21.65-28.25c0.45-0.26,0.96-0.41,1.48-0.45c1.31-0.09,32.7-1.79,69.36,41
		c21.15,24.66,39.8,59.26,55.45,102.82c19.46,54.2,34.35,122.6,44.23,203.31c0.23,1.93-1.14,3.69-3.08,3.93
		c-1.93,0.23-3.69-1.14-3.92-3.08l0,0c-9.76-79.68-24.39-147.22-43.5-200.76c-15.25-42.72-33.34-76.63-53.78-100.79
		c-18.06-21.34-34.61-30.92-45.32-35.21c-9.41-3.76-16.06-4.2-18.23-4.23c-7.93,5-14.79,18.4-18.14,24.92
		c-6.18,12-2,24.26,2.4,37.22c20.36,59.69,37.42,104.69,55.39,145.88c2.71,6.23,5.51,12.52,8.31,18.72
		c3.23,7.4,6.83,14.63,10.81,21.66c2,3.4,4.44,5.46,5.67,5.5l0,0c0.6,0,1.26-0.86,1.61-1.38c2.93-4.39,3.88-10.78,4.79-17
		c0.42-2.89,0.86-5.87,1.51-8.59c0.45-1.89,4.69-18.63,14.83-23.39c3.7-1.73,8.01-1.62,11.62,0.3c15.41,7.64,18.19,27.7,20,41
		c0.59,4.22,1.27,8.55,1.94,12.75c1.86,11.79,3.78,24,3.95,36.1c-0.11,9.37-1.02,18.71-2.71,27.92c-3.75,20.15-10.67,33.29-20.58,39
		c-7.7,4.47-16.85,4.29-27.24-0.5c-2,20.33-11.31,95.44-46.08,160.81C558.26,652.3,557.09,653.04,555.8,653.06z"/>
	<path class="st0" d="M400.79,653.06c-1.93,0.14-3.62-1.31-3.76-3.24c-0.14-1.93,1.31-3.62,3.24-3.76
		c19.19-2.95,46.1-10.19,65.35-28c4.63-4.21,8.65-9.04,11.93-14.37c-12,1.79-37.16,4.31-56-2.21c-21.72-7.5-33.92,8-34.43,8.63
		c-1.17,1.54-3.36,1.84-4.9,0.67c-1.54-1.17-1.84-3.36-0.68-4.9c0.15-0.21,15.67-20.21,42.3-11c23.32,8.06,58.9,0.85,59.26,0.78
		c1.9-0.38,3.74,0.86,4.11,2.75c0.12,0.6,0.08,1.21-0.11,1.79c-0.58,1.71-14.88,41.89-85.76,52.77
		C401.16,653.02,400.97,653.05,400.79,653.06z"/>
	<path class="st0" d="M177.13,635.25c-1.12,0-2.17-0.53-2.83-1.43c-45.71-62-74.55-125.79-85.7-189.43
		c-8.96-50.44-6.59-102.24,6.94-151.65c22.61-82.89,69.58-134.47,71.8-136.87C261.72,43.41,416.81,24.9,478.01,62.06
		c24.6,14.91,32.3,37.26,21.69,62.93c-0.08,0.17-0.16,0.34-0.26,0.5l-11,17.73l-0.17,0.24l-9.12,12.32c-0.46,0.61-1.3,2-2.19,3.38
		c-6.2,9.95-9.88,14.71-14,14.89c-1.55,0.01-3.07-0.33-4.47-1c-24.38-9.75-51.65-8.5-78-7.28l-3.69,0.17
		c-25.89,0.97-51.39,6.69-75.22,16.87c-37.72,16.17-67.57,46.44-84,85.24c-12.16,28.66-18.3,62.26-18.24,99.87
		c0.01,11.55,0.64,23.08,1.9,34.56c0,0.23,0.17,1,0.35,2c0.42,2.4,0.77,4.37,1,6c15.76-8.47,66.6-32.42,102.23-10.75
		c27.6,16.79,39.25,56.58,34.63,118.28c-0.05,0.73-0.32,1.43-0.78,2c0,0-4.14,5.29-3.15,11.7c0.72,4.71,4,9.07,9.8,13
		c1.64,1.02,2.15,3.18,1.13,4.82c-1.02,1.64-3.18,2.15-4.82,1.13c-0.08-0.05-0.15-0.1-0.22-0.15c-7.51-5.05-11.83-11.05-12.83-17.82
		c-1.13-7.61,2.39-13.79,4-16.1c4.14-58.32-6.33-95.53-31.26-110.85c-38.37-23.5-99.31,13-99.92,13.39l0,0
		c-1.65,1-3.8,0.48-4.8-1.17c-0.47-0.78-0.63-1.71-0.43-2.6c-0.09-1.75-1.15-7.69-1.5-9.72c-0.28-1.56-0.38-2.12-0.41-2.43
		c-1.29-11.73-1.94-23.53-1.95-35.33c-0.06-38.56,6.26-73.08,18.79-102.61c17.18-40.48,48.33-72.06,87.72-89
		c24.63-10.44,50.94-16.35,77.67-17.43l3.67-0.17c27.12-1.24,55.16-2.53,80.9,7.76c0.45,0.2,0.92,0.37,1.4,0.5
		c2.14-1.23,6.81-8.71,8.59-11.58c1-1.68,1.88-3,2.5-3.85l9-12.2l10.76-17.36c11.5-28.15-3.94-44.9-19-54
		c-30.23-18.33-83-21.5-137.74-8.28c-64.3,15.54-122.54,51.31-164,100.73l-0.14,0.15c-0.47,0.5-47.77,51.41-70.3,134.31
		c-13.21,48.39-15.49,99.11-6.68,148.49c11,62.5,39.39,125.17,84.41,186.28c1.15,1.55,0.82,3.73-0.73,4.88c0,0-0.01,0.01-0.01,0.01
		C178.55,634.96,177.85,635.22,177.13,635.25z"/>
	<path class="st0" d="M381.61,399.84c-1.94-0.01-3.5-1.59-3.49-3.53c0-0.99,0.43-1.93,1.16-2.59c0.65-0.57,2.81-3.53,4.91-6.4
		c13.71-18.72,45.82-62.57,85.31-63.92c19.21-0.63,37.3,9,53.87,28.65c1.29,1.44,1.16,3.66-0.28,4.94
		c-1.44,1.29-3.66,1.16-4.94-0.28c-0.04-0.05-0.08-0.1-0.12-0.15c-15.12-17.93-31.3-26.73-48.3-26.16
		c-36.09,1.23-67.92,44.7-79.9,61.06c-3.26,4.45-4.75,6.47-5.9,7.49C383.28,399.52,382.46,399.83,381.61,399.84z"/>
	<path class="st0" d="M440.28,421.33c-6.37-0.05-12.72-0.89-18.88-2.51c-1.86-0.53-2.94-2.47-2.41-4.33
		c0.51-1.79,2.32-2.86,4.14-2.45c16.36,4.17,30.33,2.75,41.51-4.2c10.23-6.36,14.08-14.93,14.31-16c0.42-1.89,2.28-3.08,4.17-2.67
		c1.86,0.41,3.05,2.24,2.68,4.11c-0.73,3.47-6.13,13.45-17.43,20.48C462.23,417.58,452.97,421.33,440.28,421.33z"/>
	<path class="st0" d="M270.72,757.68c-0.29,0-0.59-0.04-0.87-0.11c-37.44-9.51-69.67-23.51-95.8-41.51
		c-21-14.51-38.12-31.66-50.9-51c-21.87-33.08-23.43-60.75-23.43-61.91c-0.09-1.93,1.4-3.57,3.33-3.66c1.93-0.09,3.57,1.4,3.67,3.33
		c0.46,9.29,5.77,33.52,22.55,58.74c12.32,18.51,28.82,35,49.07,48.9c25.39,17.49,56.77,31.05,93.27,40.32
		c1.88,0.46,3.03,2.35,2.57,4.23c-0.39,1.58-1.81,2.68-3.43,2.67L270.72,757.68z"/>
	<path class="st0" d="M409.4,1039.14c-0.51,0-1.02-0.11-1.48-0.33c-34.64-16.22-51.16-31.77-53.56-50.42
		c-2-15.26,5.72-32.5,24.22-54.23c16-18.83,40.9-42,80.64-75.09c59.19-49.09,81.19-103,89.21-139.65
		c8.71-39.72,3.34-68.23,3.29-68.51c-0.47-1.88,0.68-3.77,2.55-4.24c1.88-0.47,3.77,0.68,4.24,2.55c0.03,0.11,0.05,0.22,0.07,0.34
		c0.24,1.2,5.7,30-3.23,71c-8.22,37.78-30.8,93.41-91.66,143.88c-39.41,32.83-64,55.73-79.78,74.25
		c-17.12,20.12-24.31,35.63-22.61,48.8c2.07,16,17.36,29.88,49.59,45c1.75,0.82,2.51,2.9,1.69,4.65c-0.58,1.23-1.82,2.02-3.18,2.02
		L409.4,1039.14z"/>
	<path class="st0" d="M701.44,668.79c-1.93,0-3.49-1.55-3.5-3.48c0-0.57,0.14-1.13,0.4-1.63c31-59.63-52.18-204.37-53-205.83
		c-0.97-1.67-0.4-3.82,1.28-4.79c1.67-0.97,3.82-0.4,4.78,1.27l0,0c14.81,26.36,27.79,53.69,38.87,81.82
		c23.34,60.1,28.16,104.09,14.31,130.75C703.97,668.08,702.76,668.81,701.44,668.79z"/>
	<path class="st0" d="M169.32,982.17c-1.94-0.01-3.5-1.59-3.49-3.53c0-0.78,0.27-1.53,0.74-2.14c18.16-23.08,31-50.69,36.17-77.75
		c6.53-34.15-1.79-66.67-23.41-91.55c-15.11-17.39-35.94-28.53-56.08-39.31c-26.93-14.41-54.77-29.31-69.67-59.28
		c-14.66-29.47-19.25-67-13.64-111.54c4.17-33.15,13.94-70.09,29.05-109.81c0.64-1.82,2.64-2.78,4.47-2.13
		c1.82,0.64,2.78,2.64,2.13,4.47c-0.02,0.05-0.04,0.11-0.06,0.16C51.22,553.67,28.77,642.98,59.85,705.5
		c13.9,28,39.55,41.69,66.7,56.22c20.7,11.08,42.11,22.53,58.06,40.89c23.06,26.53,31.94,61.15,25,97.46
		c-4,20.09-11.29,39.38-21.58,57.09c58.71-55.64,87.76-110.82,86.43-164.28c-1.74-69.12-55.19-111.11-55.74-111.52
		c-1.53-1.18-1.82-3.38-0.64-4.91c1.18-1.53,3.38-1.82,4.91-0.64c0.58,0.44,14.39,11.15,28.58,30.92
		c13.1,18.25,28.92,48,29.89,85.88c1.57,61.73-35.4,125.23-109.87,188.72C170.95,981.87,170.15,982.17,169.32,982.17z"/>
	<path class="st0" d="M610.34,1358.16c-1.93,0.01-3.5-1.55-3.51-3.47c0-0.79,0.26-1.57,0.76-2.19c18.16-23.09,31-50.7,36.17-77.75
		c6.52-34.16-1.79-66.67-23.42-91.55c-15.1-17.39-35.93-28.54-56.08-39.31c-26.92-14.41-54.77-29.31-69.67-59.28
		c-14.65-29.47-19.24-67-13.64-111.54c4.18-33.15,13.95-70.1,29-109.81c0.68-1.81,2.71-2.72,4.52-2.04
		c1.81,0.68,2.72,2.71,2.03,4.52c-24.31,63.92-46.77,153.24-15.69,215.75c13.9,28,39.55,41.69,66.71,56.22
		c20.7,11.08,42.11,22.54,58.06,40.9c23.06,26.53,31.94,61.14,25,97.45c-3.96,19.92-11.16,39.05-21.31,56.63
		c36.25-35.15,62.53-73.21,78.29-113.43c14.89-37.88,20.56-78.76,16.57-119.27c-6.67-70-39-118.89-39.29-119.38
		c-1.15-1.55-0.82-3.74,0.73-4.9c1.55-1.15,3.74-0.82,4.9,0.73c0.07,0.09,0.13,0.18,0.19,0.28c1.37,2,33.61,50.89,40.45,122.61
		c4.11,41.6-1.72,83.57-17,122.48c-19.11,48.79-53.27,94.38-101.52,135.52C611.95,1357.86,611.16,1358.16,610.34,1358.16z"/>
	<path class="st0" d="M197.39,1307.25c-1.94-0.01-3.5-1.59-3.49-3.53c0-0.8,0.28-1.57,0.78-2.19c20.2-24.65,34.48-54.13,40.23-83
		c7.25-36.47-2-71.19-26.06-97.77c-16.83-18.59-40-30.5-62.41-42c-29.87-15.34-60.75-31.21-77.27-63.1
		c-16.27-31.41-21.36-71.42-15.14-118.91C58.67,861.4,69.52,822,86.3,779.65c0.71-1.8,2.75-2.68,4.54-1.96
		c1.8,0.71,2.68,2.75,1.96,4.54l0,0c-27,68.2-52,163.5-17.42,230.21c15.49,29.91,44,44.57,74.25,60.09c23,11.8,46.72,24,64.4,43.54
		c25.58,28.26,35.43,65.14,27.73,103.83c-4.23,21.26-12.89,42.81-25,62.64c66.42-59.9,99.31-119.31,97.86-176.87
		c-1.86-74-61.42-118.73-62-119.17c-1.56-1.15-1.89-3.34-0.75-4.9c1.15-1.56,3.34-1.89,4.9-0.74l0,0c0.65,0.48,16,11.89,31.73,33
		c14.55,19.48,32.12,51.2,33.14,91.66c1.66,65.74-39.38,133.36-122,201C199,1307.02,198.2,1307.28,197.39,1307.25z"/>
	<path class="st0" d="M384.29,561.27c-1.64,0-3.05-1.14-3.41-2.74c-1.76-7.88,3.7-14.84,9.39-18.72c6.43-4.39,13.41-5.32,17.78-2.37
		c1.91,1.28,3.88,3.62,4.3,7.84c3.48-2.46,7.53-6.37,8.3-11.56c1-6.79-3.68-14.56-14-23.08c-1.49-1.23-1.69-3.44-0.46-4.93
		c1.23-1.49,3.44-1.69,4.93-0.46c12.31,10.21,17.83,20.14,16.41,29.53c-2,13.31-17.2,19.76-17.85,20c-1.78,0.74-3.83-0.1-4.58-1.89
		c-0.28-0.67-0.34-1.41-0.18-2.11c0.83-3.84,0.53-6.68-0.82-7.59c-1.58-1.06-5.59-0.6-9.92,2.35c-3.59,2.52-7.46,6.99-6.46,11.52
		c0.42,1.89-0.77,3.75-2.66,4.17C384.8,561.27,384.54,561.29,384.29,561.27z"/>
	<path class="st0" d="M434.03,742.6c-31.76,0-65.11-16.2-87.49-29.79c-25.27-15.34-47.94-35.9-67.36-61.12
		c-45-58.4-60.57-123.88-61.22-126.64c-4.19-18.15-9.94-43-7.52-63.75c0.68-5.8,2-8.88,4.42-10c1.43-0.67,3.1-0.53,4.4,0.36
		c5.34,3.5,17.86,7.26,32.73,7.11c11.79-0.08,28.59-2.6,41.68-14.07c1.46-1.28,3.67-1.13,4.95,0.32c1.28,1.46,1.13,3.67-0.33,4.95
		c-14.72,12.89-33.27,15.71-46.25,15.8c-12.78,0.09-26-2.58-34.12-6.81c-0.24,1.03-0.41,2.08-0.52,3.14
		c-2.28,19.55,3.3,43.71,7.38,61.36c0.63,2.69,15.88,66.74,59.94,124c18.9,24.53,40.92,44.52,65.45,59.41
		c21.52,13.06,53.41,28.62,83.42,28.77c1.43-0.41,8.48-2.65,25-11.47c1.71-0.91,3.83-0.26,4.73,1.45s0.26,3.83-1.45,4.73l0,0
		c-19.56,10.41-26.42,12.02-27.16,12.17C434.49,742.57,434.26,742.6,434.03,742.6z"/>
	<path class="st0" d="M787.62,997.4c-0.4,0-0.79-0.07-1.17-0.2c-92.27-32.62-149.52-78.67-170.15-136.87
		c-12.67-35.74-8.54-69.16-2.84-90.89c6.17-23.54,15.23-38.48,15.61-39.11c1.01-1.66,3.17-2.18,4.83-1.17
		c1.66,1.01,2.18,3.17,1.17,4.83c-0.35,0.58-35.26,58.93-12.11,124.08c17.9,50.4,64.78,91.52,139.51,122.46
		c-15.94-12.86-29.65-28.27-40.58-45.59c-19.48-31.42-23.58-66.92-11.55-100c8.33-22.85,24.21-41.21,39.58-59
		c20.15-23.29,39.18-45.28,42.15-76.38c6.65-69.41-46.35-144.77-91.92-195.75c-1.25-1.48-1.06-3.68,0.41-4.93
		c1.42-1.2,3.53-1.08,4.81,0.27c46.52,52,100.52,129.14,93.64,201.16c-3.18,33.32-23.85,57.2-43.83,80.29
		c-15,17.28-30.41,35.14-38.29,56.78c-11.28,31-7.4,64.31,10.92,93.87c14.51,23.41,36.39,44.59,61.6,59.65
		c1.66,0.98,2.22,3.11,1.24,4.78C790.02,996.75,788.86,997.41,787.62,997.4L787.62,997.4z"/>
	<path class="st0" d="M278.01,1142.47c-1.85,0-3.38-1.45-3.49-3.3c-1.61-28-25.87-58.23-47.72-74.52
		c-8.84-6.59-18.78-12.18-28.39-17.59c-14-7.86-28.41-16-40.19-27.51c-19.14-18.69-30.18-44.8-32-75.5
		c-1.4-27.97,4.23-55.84,16.38-81.07c0.69-1.81,2.71-2.71,4.52-2.02c1.81,0.69,2.71,2.71,2.02,4.52c-0.07,0.17-0.15,0.34-0.24,0.5
		c-11.64,24.16-17.03,50.84-15.69,77.62c1.67,28.93,12,53.45,29.86,70.9c11.12,10.87,24.54,18.43,38.74,26.42
		c9.8,5.52,19.93,11.22,29.14,18.08c23.88,17.81,48.77,49.37,50.52,79.73c0.11,1.92-1.35,3.58-3.28,3.69c0,0-0.01,0-0.01,0
		L278.01,1142.47z"/>
	<path class="st0" d="M665.47,1157.49c-0.91-0.01-1.78-0.36-2.43-1c-58.28-55.89-87.09-112.31-85.62-167.71
		c0.94-35.36,14.46-63.34,25.63-80.59c12.11-18.69,23.89-28.94,24.39-29.37c1.43-1.3,3.65-1.18,4.94,0.25
		c1.3,1.43,1.18,3.65-0.25,4.94c-0.04,0.04-0.08,0.07-0.12,0.1l0,0c-0.46,0.4-45.93,40.43-47.6,104.95
		c-1.37,53.31,26.71,107.94,83.48,162.36c1.38,1.35,1.4,3.57,0.05,4.95c-0.65,0.66-1.54,1.04-2.47,1.05L665.47,1157.49z"/>
</g>
<g id="Layer_2_1_" class="st1">
	<path class="st2" d="M571.48,655.93c-0.57,0-1.14-0.14-1.64-0.41c-1.7-0.9-2.36-3.01-1.46-4.72c0,0,0.01-0.01,0.01-0.01
		c39.7-74.66,45.67-162.4,45.73-163.27c0.12-1.93,1.78-3.4,3.71-3.28c0.54,0.03,1.06,0.19,1.53,0.46c10.06,5.79,18.48,6.8,25,3
		c16.34-9.47,19.83-47.12,19.8-60.83c-0.16-11.57-2-23.52-3.87-35.07c-0.67-4.23-1.36-8.6-1.95-12.88
		c-1.64-11.81-4.11-29.66-16.2-35.65c-1.69-0.98-3.76-1.07-5.53-0.24c-5.42,2.54-9.55,12.56-11,18.67c-0.58,2.42-1,5.12-1.4,8
		c-1,6.62-2.08,14.13-5.89,19.83c-2.56,3.82-5.59,4.55-7.66,4.49c-5.75-0.17-10-6.33-11.5-9c-4.1-7.23-7.82-14.68-11.14-22.3
		c-2.82-6.23-5.64-12.56-8.36-18.82c-18-41.4-35.18-86.55-55.55-146.41c-4.69-13.77-9.53-28-2-42.68
		c6-11.72,12.81-23.25,21.65-28.25c0.45-0.26,0.96-0.41,1.48-0.45c1.31-0.09,32.7-1.79,69.36,41
		c21.15,24.66,39.8,59.26,55.45,102.82c19.46,54.2,34.35,122.6,44.23,203.31c0.23,1.93-1.14,3.69-3.08,3.93
		c-1.93,0.23-3.69-1.14-3.92-3.08l0,0c-9.76-79.68-24.39-147.22-43.5-200.76c-15.25-42.72-33.34-76.63-53.78-100.79
		c-18.06-21.34-34.61-30.92-45.32-35.21c-9.41-3.76-16.06-4.2-18.23-4.23c-7.93,5-14.79,18.4-18.14,24.92
		c-6.18,12-2,24.26,2.4,37.22c20.36,59.69,37.42,104.69,55.39,145.88c2.71,6.23,5.51,12.52,8.31,18.72
		c3.23,7.4,6.83,14.63,10.81,21.66c2,3.4,4.44,5.46,5.67,5.5l0,0c0.6,0,1.26-0.86,1.61-1.38c2.93-4.39,3.88-10.78,4.79-17
		c0.42-2.89,0.86-5.87,1.51-8.59c0.45-1.89,4.69-18.63,14.83-23.39c3.7-1.73,8.01-1.62,11.62,0.3c15.41,7.64,18.19,27.7,20,41
		c0.59,4.22,1.27,8.55,1.94,12.75c1.86,11.79,3.78,24,3.95,36.1c-0.11,9.37-1.02,18.71-2.71,27.92c-3.75,20.15-10.67,33.29-20.58,39
		c-7.7,4.47-16.85,4.29-27.24-0.5c-2,20.33-11.31,95.44-46.08,160.81C573.95,655.17,572.77,655.9,571.48,655.93z"/>
	<path class="st2" d="M416.47,655.93c-1.93,0.14-3.62-1.31-3.76-3.24c-0.14-1.93,1.31-3.62,3.24-3.76
		c19.19-2.95,46.1-10.19,65.35-28c4.63-4.21,8.65-9.04,11.93-14.37c-12,1.79-37.16,4.31-56-2.21c-21.72-7.5-33.92,8-34.43,8.63
		c-1.17,1.54-3.36,1.84-4.9,0.67c-1.54-1.17-1.84-3.36-0.68-4.9c0.15-0.21,15.67-20.21,42.3-11c23.32,8.06,58.9,0.85,59.26,0.78
		c1.89-0.38,3.73,0.84,4.11,2.73c0.12,0.6,0.08,1.23-0.11,1.81c-0.57,1.71-14.87,41.89-85.75,52.77
		C416.85,655.88,416.66,655.91,416.47,655.93z"/>
	<path class="st2" d="M192.81,638.12c-1.12,0-2.17-0.53-2.83-1.43c-45.71-62-74.55-125.79-85.7-189.43
		c-8.96-50.44-6.59-102.24,6.94-151.65c22.61-82.89,69.58-134.47,71.8-136.87C277.4,46.28,432.49,27.77,493.69,64.93
		c24.6,14.91,32.3,37.26,21.69,62.93c-0.08,0.17-0.16,0.34-0.26,0.5l-11,17.73l-0.17,0.24l-9.12,12.32c-0.46,0.61-1.3,2-2.19,3.38
		c-6.2,9.95-9.88,14.71-14,14.89c-1.55,0.01-3.07-0.33-4.47-1c-24.38-9.75-51.65-8.5-78-7.28l-3.69,0.17
		c-25.89,0.97-51.39,6.69-75.22,16.87c-37.72,16.17-67.57,46.44-84,85.24c-12.16,28.66-18.3,62.26-18.24,99.87
		c0.01,11.55,0.64,23.08,1.9,34.56c0,0.23,0.17,1,0.35,2c0.42,2.4,0.77,4.37,1,6c15.76-8.47,66.6-32.42,102.23-10.75
		c27.6,16.79,39.25,56.58,34.63,118.28c-0.05,0.73-0.32,1.43-0.78,2c0,0-4.14,5.29-3.15,11.7c0.72,4.71,4,9.07,9.8,13
		c1.64,1.02,2.15,3.18,1.13,4.82c-1.02,1.64-3.18,2.15-4.82,1.13c-0.08-0.05-0.15-0.1-0.22-0.15c-7.51-5.05-11.83-11.05-12.83-17.82
		c-1.13-7.61,2.39-13.79,4-16.1c4.14-58.32-6.33-95.53-31.26-110.85c-38.37-23.5-99.31,13-99.92,13.39l0,0
		c-1.65,1-3.8,0.48-4.8-1.17c-0.47-0.78-0.63-1.71-0.43-2.6c-0.09-1.75-1.15-7.69-1.5-9.72c-0.28-1.56-0.38-2.12-0.41-2.43
		c-1.29-11.73-1.94-23.53-1.95-35.33c-0.06-38.56,6.26-73.08,18.79-102.61c17.18-40.48,48.33-72.06,87.72-89
		c24.63-10.44,50.94-16.35,77.67-17.43l3.67-0.17c27.12-1.24,55.15-2.53,80.9,7.76c0.45,0.2,0.92,0.37,1.4,0.5
		c2.14-1.23,6.81-8.71,8.59-11.58c1-1.68,1.88-3,2.5-3.85l9-12.2l10.76-17.36c11.5-28.15-3.94-44.9-19-54
		c-30.23-18.33-83-21.5-137.74-8.28c-64.3,15.54-122.54,51.31-164,100.73l-0.14,0.15c-0.47,0.5-47.77,51.41-70.3,134.31
		c-13.21,48.39-15.49,99.11-6.68,148.49c11,62.5,39.39,125.17,84.41,186.28c1.15,1.55,0.82,3.73-0.73,4.88c0,0-0.01,0.01-0.01,0.01
		C194.23,637.83,193.54,638.09,192.81,638.12z"/>
	<path class="st2" d="M397.29,402.71c-1.94-0.01-3.5-1.59-3.49-3.53c0-0.99,0.43-1.93,1.16-2.59c0.65-0.57,2.81-3.53,4.91-6.4
		c13.71-18.72,45.82-62.57,85.31-63.92c19.17-0.65,37.3,9,53.87,28.65c1.29,1.44,1.16,3.66-0.28,4.94
		c-1.44,1.29-3.66,1.16-4.94-0.28c-0.04-0.05-0.08-0.1-0.12-0.15c-15.12-17.93-31.36-26.72-48.28-26.16
		c-36.09,1.23-67.92,44.7-79.9,61.06c-3.26,4.45-4.75,6.47-5.9,7.49C398.98,402.39,398.15,402.7,397.29,402.71z"/>
	<path class="st2" d="M455.96,424.2c-6.37-0.05-12.72-0.89-18.88-2.51c-1.86-0.53-2.94-2.47-2.41-4.33
		c0.51-1.79,2.32-2.86,4.14-2.45c16.36,4.16,30.33,2.75,41.52-4.21c10.22-6.35,14.07-14.92,14.3-16c0.42-1.89,2.28-3.08,4.17-2.67
		c1.86,0.41,3.05,2.24,2.68,4.11c-0.73,3.47-6.13,13.45-17.43,20.48C477.91,420.45,468.66,424.2,455.96,424.2z"/>
	<path class="st2" d="M286.4,760.55c-0.29,0-0.59-0.04-0.87-0.11c-37.44-9.51-69.67-23.51-95.8-41.51c-21-14.51-38.12-31.66-50.9-51
		c-21.87-33.08-23.43-60.75-23.43-61.91c-0.09-1.93,1.4-3.57,3.33-3.66c1.93-0.09,3.57,1.4,3.67,3.33
		c0.46,9.29,5.77,33.52,22.55,58.74c12.32,18.51,28.82,35,49.07,48.9c25.39,17.49,56.77,31.05,93.27,40.32
		c1.88,0.46,3.03,2.35,2.57,4.23c-0.39,1.58-1.81,2.68-3.43,2.67L286.4,760.55z"/>
	<path class="st2" d="M425.08,1042.01c-0.51,0-1.02-0.11-1.48-0.33c-34.64-16.22-51.16-31.77-53.56-50.42
		c-2-15.26,5.72-32.5,24.22-54.23c16-18.83,40.9-42,80.64-75.09c59.19-49.09,81.19-103,89.21-139.65
		c8.71-39.72,3.34-68.23,3.29-68.51c-0.47-1.88,0.68-3.77,2.55-4.24c1.88-0.47,3.77,0.68,4.24,2.55c0.03,0.11,0.05,0.22,0.07,0.34
		c0.24,1.2,5.7,30-3.23,71c-8.22,37.78-30.8,93.41-91.66,143.88c-39.41,32.83-64,55.73-79.78,74.25
		c-17.12,20.12-24.31,35.63-22.61,48.8c2.07,16,17.36,29.88,49.59,45c1.75,0.82,2.51,2.9,1.69,4.65c-0.58,1.23-1.82,2.02-3.18,2.02
		L425.08,1042.01z"/>
	<path class="st2" d="M717.12,671.66c-1.93,0-3.49-1.55-3.5-3.48c0-0.57,0.14-1.13,0.4-1.63c31-59.63-52.18-204.37-53-205.83
		c-0.97-1.67-0.4-3.82,1.28-4.79c1.67-0.97,3.82-0.4,4.78,1.27l0,0c14.81,26.36,27.79,53.69,38.87,81.82
		c23.34,60.1,28.16,104.09,14.31,130.75C719.66,670.95,718.44,671.67,717.12,671.66z"/>
	<path class="st2" d="M185,985.04c-1.94-0.01-3.5-1.59-3.49-3.53c0-0.78,0.27-1.53,0.74-2.14c18.16-23.08,31-50.69,36.17-77.75
		c6.53-34.15-1.79-66.67-23.41-91.55c-15.11-17.39-35.94-28.53-56.08-39.31c-26.93-14.41-54.77-29.31-69.67-59.28
		c-14.66-29.47-19.25-67-13.64-111.54c4.17-33.15,13.94-70.09,29.05-109.81c0.64-1.82,2.64-2.78,4.47-2.13
		c1.82,0.64,2.78,2.64,2.13,4.47c-0.02,0.05-0.04,0.11-0.06,0.16C66.9,556.54,44.45,645.85,75.53,708.37
		c13.9,28,39.55,41.69,66.7,56.22c20.7,11.08,42.11,22.53,58.06,40.89c23.06,26.53,31.94,61.15,25,97.46
		c-4,20.09-11.29,39.38-21.58,57.09c58.71-55.64,87.76-110.82,86.43-164.28c-1.74-69.12-55.19-111.11-55.74-111.52
		c-1.53-1.18-1.82-3.38-0.64-4.91c1.18-1.53,3.38-1.82,4.91-0.64c0.58,0.44,14.39,11.15,28.58,30.92
		c13.1,18.25,28.92,48,29.89,85.88c1.57,61.73-35.4,125.23-109.87,188.72C186.64,984.74,185.83,985.03,185,985.04z"/>
	<path class="st2" d="M626.02,1361.03c-1.93,0.01-3.5-1.55-3.51-3.47c0-0.79,0.26-1.57,0.76-2.19c18.16-23.09,31-50.7,36.17-77.75
		c6.52-34.16-1.79-66.67-23.42-91.55c-15.1-17.39-35.93-28.54-56.08-39.31c-26.92-14.41-54.77-29.31-69.67-59.28
		c-14.65-29.47-19.24-67-13.64-111.54c4.18-33.15,13.95-70.1,29-109.81c0.68-1.81,2.71-2.72,4.52-2.04
		c1.81,0.68,2.72,2.71,2.03,4.52c-24.31,63.92-46.77,153.24-15.69,215.75c13.9,28,39.55,41.69,66.71,56.22
		c20.7,11.08,42.11,22.54,58.06,40.9c23.06,26.53,31.94,61.14,25,97.45c-3.96,19.92-11.16,39.05-21.31,56.63
		c36.25-35.15,62.53-73.21,78.29-113.43c14.89-37.88,20.56-78.76,16.57-119.27c-6.67-70-39-118.89-39.29-119.38
		c-1.15-1.55-0.82-3.74,0.73-4.9c1.55-1.15,3.74-0.82,4.9,0.73c0.07,0.09,0.13,0.18,0.19,0.28c1.37,2,33.61,50.89,40.45,122.61
		c4.11,41.6-1.72,83.57-17,122.48c-19.11,48.79-53.27,94.38-101.52,135.52C627.64,1360.73,626.84,1361.02,626.02,1361.03z"/>
	<path class="st2" d="M213.07,1310.12c-1.94-0.01-3.5-1.59-3.49-3.53c0-0.8,0.28-1.57,0.78-2.19c20.2-24.65,34.48-54.13,40.23-83
		c7.25-36.47-2-71.19-26.06-97.77c-16.83-18.59-40-30.5-62.41-42c-29.87-15.34-60.75-31.21-77.27-63.1
		c-16.27-31.41-21.36-71.42-15.14-118.91c4.64-35.35,15.49-74.75,32.27-117.1c0.71-1.8,2.75-2.68,4.54-1.96
		c1.8,0.71,2.68,2.75,1.96,4.54l0,0c-27,68.2-52,163.5-17.42,230.21c15.49,29.91,44,44.57,74.25,60.09c23,11.8,46.72,24,64.4,43.54
		c25.58,28.26,35.43,65.14,27.73,103.83c-4.23,21.26-12.89,42.81-25,62.64c66.42-59.9,99.31-119.31,97.86-176.87
		c-1.86-74-61.42-118.73-62-119.17c-1.56-1.15-1.89-3.34-0.75-4.9c1.15-1.56,3.34-1.89,4.9-0.74l0,0c0.65,0.48,16,11.89,31.73,33
		c14.55,19.48,32.12,51.2,33.14,91.66c1.66,65.74-39.38,133.36-122,201C214.69,1309.89,213.89,1310.14,213.07,1310.12z"/>
	<path class="st2" d="M399.97,564.14c-1.64,0-3.05-1.14-3.41-2.74c-1.76-7.88,3.7-14.84,9.39-18.72c6.43-4.39,13.41-5.32,17.78-2.37
		c1.91,1.28,3.88,3.62,4.3,7.84c3.48-2.46,7.53-6.37,8.3-11.56c1-6.79-3.68-14.56-14-23.08c-1.49-1.23-1.69-3.44-0.46-4.93
		c1.23-1.49,3.44-1.69,4.93-0.46c12.31,10.21,17.83,20.14,16.41,29.53c-2,13.31-17.2,19.76-17.85,20c-1.78,0.74-3.83-0.1-4.58-1.89
		c-0.28-0.67-0.34-1.41-0.18-2.11c0.83-3.84,0.53-6.68-0.82-7.59c-1.58-1.06-5.59-0.6-9.92,2.35c-3.59,2.52-7.46,6.99-6.46,11.52
		c0.42,1.89-0.77,3.75-2.66,4.17C400.49,564.14,400.23,564.15,399.97,564.14z"/>
	<path class="st2" d="M449.71,745.47c-31.76,0-65.11-16.2-87.49-29.79c-25.27-15.34-47.94-35.9-67.36-61.12
		c-45-58.4-60.57-123.88-61.22-126.64c-4.19-18.15-9.94-43-7.52-63.75c0.68-5.8,2-8.88,4.42-10c1.43-0.67,3.1-0.53,4.4,0.36
		c5.34,3.5,17.86,7.26,32.73,7.11c11.79-0.08,28.59-2.6,41.68-14.07c1.46-1.28,3.67-1.13,4.95,0.32c1.28,1.46,1.13,3.67-0.33,4.95
		c-14.72,12.89-33.27,15.71-46.25,15.8c-12.76,0.09-26-2.58-34.12-6.81c-0.24,1.03-0.41,2.08-0.52,3.14
		c-2.28,19.55,3.3,43.71,7.38,61.36c0.63,2.69,15.88,66.74,59.94,124c18.9,24.53,40.92,44.52,65.45,59.41
		c21.52,13.06,53.41,28.62,83.42,28.77c1.43-0.41,8.48-2.65,25-11.47c1.71-0.91,3.83-0.26,4.73,1.45s0.26,3.83-1.45,4.73l0,0
		c-19.56,10.41-26.42,12.02-27.16,12.17C450.17,745.44,449.94,745.46,449.71,745.47z"/>
	<path class="st2" d="M803.3,1000.27c-0.4,0-0.79-0.07-1.17-0.2c-92.27-32.62-149.52-78.67-170.15-136.87
		c-12.67-35.74-8.54-69.16-2.84-90.89c6.17-23.54,15.23-38.48,15.61-39.11c1.01-1.66,3.17-2.18,4.83-1.17
		c1.66,1.01,2.18,3.17,1.17,4.83c-0.35,0.58-35.26,58.93-12.11,124.08c17.9,50.4,64.78,91.52,139.51,122.46
		c-15.94-12.86-29.65-28.27-40.58-45.59c-19.48-31.42-23.58-66.92-11.55-100c8.33-22.85,24.21-41.21,39.58-59
		c20.15-23.29,39.18-45.28,42.15-76.38c6.65-69.41-46.35-144.77-91.92-195.75c-1.25-1.48-1.06-3.68,0.41-4.93
		c1.42-1.2,3.53-1.08,4.81,0.27c46.52,52,100.52,129.14,93.64,201.16c-3.18,33.32-23.85,57.2-43.83,80.29
		c-15,17.28-30.41,35.14-38.29,56.78c-11.28,31-7.4,64.31,10.92,93.87c14.51,23.41,36.39,44.59,61.6,59.65
		c1.66,0.98,2.22,3.11,1.24,4.78C805.7,999.62,804.55,1000.27,803.3,1000.27L803.3,1000.27z"/>
	<path class="st2" d="M293.69,1145.34c-1.85,0-3.38-1.45-3.49-3.3c-1.61-28-25.87-58.23-47.72-74.52
		c-8.84-6.59-18.78-12.18-28.39-17.59c-14-7.86-28.41-16-40.19-27.51c-19.14-18.69-30.18-44.8-32-75.5
		c-1.4-27.97,4.23-55.84,16.38-81.07c0.69-1.81,2.71-2.71,4.52-2.02c1.81,0.69,2.71,2.71,2.02,4.52c-0.07,0.17-0.15,0.34-0.24,0.5
		c-11.64,24.16-17.03,50.84-15.69,77.62c1.67,28.93,12,53.45,29.86,70.9c11.12,10.87,24.54,18.43,38.74,26.42
		c9.8,5.52,19.93,11.22,29.14,18.08c23.88,17.81,48.77,49.37,50.52,79.73c0.11,1.92-1.35,3.58-3.28,3.69c0,0-0.01,0-0.01,0
		L293.69,1145.34z"/>
	<path class="st2" d="M681.15,1160.36c-0.91-0.01-1.78-0.36-2.43-1c-58.28-55.89-87.09-112.31-85.62-167.71
		c0.94-35.36,14.46-63.34,25.63-80.59c12.11-18.69,23.89-28.94,24.39-29.37c1.43-1.3,3.65-1.18,4.94,0.25
		c1.3,1.43,1.18,3.65-0.25,4.94c-0.04,0.04-0.08,0.07-0.12,0.1l0,0c-0.46,0.4-45.93,40.43-47.6,104.95
		c-1.37,53.31,26.71,107.94,83.48,162.36c1.38,1.35,1.4,3.57,0.05,4.95c-0.65,0.66-1.54,1.04-2.47,1.05L681.15,1160.36z"/>
</g>
</svg>
