<?xml version="1.0" encoding="utf-8"?>
<!-- Generator: Adobe Illustrator 24.0.3, SVG Export Plug-In . SVG Version: 6.00 Build 0)  -->
<svg version="1.1" id="Layer_1" xmlns="http://www.w3.org/2000/svg" xmlns:xlink="http://www.w3.org/1999/xlink" x="0px" y="0px"
	 viewBox="0 0 853 1010" style="enable-background:new 0 0 853 1010;" xml:space="preserve">
<style type="text/css">
	.st0{opacity:0.5;}
	.st1{fill:#8264FF;}
	.st2{fill:none;stroke:#8264FF;stroke-width:6.5;stroke-linecap:round;stroke-linejoin:round;stroke-miterlimit:10;}
	.st3{fill:#4608BF;}
	.st4{fill:none;stroke:#4608BF;stroke-width:6.5;stroke-linecap:round;stroke-linejoin:round;stroke-miterlimit:10;}
</style>
<title>writing-hero</title>
<g class="st0">
	<g>
		<g>
			<path class="st1" d="M90.67,975.69c-0.66,0-1.31-0.2-1.86-0.59c-5.6-3.92-3.21-14.83,8.82-40.24c0.69-1.45,1.23-2.59,1.53-3.3
				c5.52-12.68,11.73-25.25,17.74-37.4l1.47-2.97c17.32-35.06,32.82-62.64,48.8-86.8c19.89-30.08,40.35-54.59,62.48-74.83
				c-1.87-5.72-5.44-21.27,5.12-35.36c0.33-0.45,0.78-0.8,1.29-1.02c20.67-9.1,42.13-2.31,63.78,20.16c0.76,0.79,1.07,1.9,0.83,2.97
				c-3.64,16.1-22.71,27.79-28.83,31.17c0.52,25.65-4.38,47.72-14.59,65.63c-9.66,16.96-23.9,26.57-38.98,36.74
				c-4.55,3.07-9.26,6.25-13.81,9.63c-22.03,16.4-42.29,33.89-60.2,51.98c-17.57,17.75-37.35,39.07-50.77,62.59
				c-0.45,0.79-1.22,1.36-2.11,1.56C91.15,975.66,90.91,975.69,90.67,975.69z M239.47,698.78c-9.98,14.12-3.11,30.24-3.04,30.4
				c0.56,1.28,0.24,2.78-0.8,3.72c-50.87,45.87-86.27,110.22-111.43,161.16l-1.47,2.97c-5.97,12.08-12.15,24.58-17.6,37.12
				c-0.32,0.75-0.89,1.95-1.62,3.48c-5.33,11.27-8.19,18.63-9.68,23.44c13.27-20.28,30.39-38.6,45.82-54.19
				c18.14-18.32,38.64-36.03,60.94-52.63c4.67-3.47,9.44-6.69,14.05-9.81c14.43-9.73,28.05-18.93,36.97-34.57
				c9.87-17.33,14.48-38.94,13.69-64.24c-0.04-1.27,0.66-2.45,1.8-3.01c0.23-0.11,22.04-11.14,26.78-26.1
				C274.81,697.28,256.99,691.47,239.47,698.78z"/>
			<path class="st1" d="M177.93,877.42c-1.46,0-2.78-0.99-3.15-2.46c-3.83-15.28,16.09-45.29,37.18-77.06
				c16.88-25.43,35.98-54.2,34.52-65.89c-1.96-3.65-10.47-22.05,5.12-40.79c1.15-1.38,3.2-1.57,4.58-0.42
				c1.38,1.15,1.57,3.2,0.42,4.58c-14.25,17.14-4.65,33.17-4.23,33.84c0.21,0.34,0.36,0.73,0.44,1.13
				c2.56,13.94-15.04,40.45-35.42,71.14c-18.48,27.83-39.42,59.38-36.29,71.88c0.44,1.74-0.62,3.51-2.36,3.94
				C178.46,877.39,178.19,877.42,177.93,877.42z"/>
			<path class="st1" d="M91.43,967.13c-0.6,0-1.2-0.16-1.74-0.5c-1.52-0.96-1.97-2.97-1-4.49l69.38-109.41
				c1.2-8.78,5.41-13.39,8.92-13.97c2.04-0.34,3.91,0.6,4.76,2.4c1.64,3.46-1.09,8.54-7.68,14.31c-0.02,0.02-0.05,0.04-0.07,0.06
				c-0.02,0.03-0.03,0.05-0.05,0.07L94.17,965.62C93.55,966.6,92.5,967.13,91.43,967.13z"/>
			<path class="st1" d="M235.66,699.59c-1.02,0-2.03-0.48-2.66-1.39c-4.75-6.79-4.05-18.48,2.14-35.74
				c0.61-1.69,2.47-2.57,4.16-1.96c1.69,0.61,2.57,2.47,1.96,4.16c-6.67,18.58-5.28,26.47-2.94,29.81c1.03,1.47,0.67,3.5-0.8,4.53
				C236.96,699.4,236.31,699.59,235.66,699.59z"/>
			<path class="st1" d="M257.1,626.08c-0.52,0-1.04-0.12-1.53-0.38c-1.58-0.85-2.18-2.82-1.33-4.4
				c12.21-22.84,27.45-47.89,40.89-69.99l49.05-80.58c0.93-1.53,2.93-2.02,4.47-1.09c1.53,0.93,2.02,2.93,1.09,4.47l-49.05,80.58
				c-13.4,22.03-28.59,47-40.71,69.68C259.38,625.46,258.26,626.08,257.1,626.08z"/>
			<path class="st1" d="M460.21,480.17c-0.53,0-1.07-0.13-1.57-0.41c-1.57-0.87-2.14-2.85-1.27-4.42l193.68-349.59l18.17-32.37
				c0.05-0.09,0.11-0.18,0.17-0.27c7.04-10.13,4.83-20.1,1.74-26.68c-6.63-14.11-23.35-25.74-38.89-27.05
				c-7.23-0.61-17.31,0.78-24.36,10.83L382.5,420.31c-0.93,1.53-2.94,2.02-4.47,1.09c-1.53-0.93-2.02-2.93-1.09-4.47L602.37,46.75
				c0.03-0.06,0.07-0.11,0.11-0.17c6.88-9.89,17.63-14.75,30.29-13.68c17.96,1.51,36.56,14.45,44.23,30.76
				c5.38,11.44,4.6,23.17-2.19,33.03l-18.08,32.22L463.05,478.5C462.46,479.57,461.35,480.17,460.21,480.17z"/>
			<path class="st1" d="M391.75,603.29c-0.55,0-1.12-0.14-1.63-0.44c-1.55-0.9-2.08-2.89-1.18-4.44c2.17-3.73,4.32-7.49,6.41-11.18
				l18.93-34.1l20.4-36.82c0.87-1.57,2.85-2.14,4.42-1.27c1.57,0.87,2.14,2.85,1.27,4.42l-20.4,36.82l-18.94,34.13
				c-2.11,3.74-4.28,7.52-6.46,11.27C393.96,602.71,392.87,603.29,391.75,603.29z"/>
			<path class="st1" d="M300.19,719.39c-1.43,0-2.76-0.28-4.01-0.84c-1.64-0.73-2.38-2.65-1.65-4.29c0.73-1.64,2.65-2.38,4.29-1.65
				c6.5,2.89,27.78-15.09,66.38-75.29c0.97-1.51,2.98-1.95,4.49-0.98c1.51,0.97,1.95,2.98,0.98,4.49
				c-15.42,24.04-29.64,43.73-41.13,56.93C316.82,712.37,307.34,719.39,300.19,719.39z"/>
		</g>
	</g>
	<path class="st1" d="M450.24,583.84c-0.75,0-1.51-0.26-2.12-0.79c-1.36-1.17-1.51-3.23-0.33-4.58
		c17.54-20.28,22.53-56.38,23.64-66.96c0.19-1.79,1.78-3.08,3.57-2.89c1.79,0.19,3.08,1.79,2.89,3.57
		c-1.16,11.06-6.4,48.82-25.19,70.53C452.06,583.46,451.15,583.84,450.24,583.84z"/>
	<path class="st1" d="M450.51,584.17c-0.93,0-1.86-0.4-2.5-1.18c-1.14-1.38-0.95-3.43,0.43-4.58c3.1-2.56,6.25-5.26,9.38-8.01
		c1.52-1.34,3.2-2.78,5-4.33c19.98-17.15,53.43-45.84,57.38-92.06c0.15-1.79,1.71-3.11,3.52-2.96c1.79,0.15,3.11,1.73,2.96,3.52
		c-4.18,48.87-40.25,79.81-59.63,96.44c-1.78,1.53-3.44,2.95-4.95,4.28c-3.18,2.79-6.38,5.53-9.53,8.14
		C451.98,583.92,451.24,584.17,450.51,584.17z"/>
	<path class="st1" d="M523.82,470.04c-0.02,0-0.04,0-0.05,0c-1.79-0.03-3.23-1.51-3.2-3.3c0.35-21.53-5.89-44.75-18.54-69
		c-0.83-1.59-0.21-3.55,1.38-4.38c1.59-0.83,3.55-0.21,4.38,1.38c13.16,25.22,19.64,49.49,19.28,72.11
		C527.04,468.62,525.59,470.04,523.82,470.04z"/>
	<path class="st1" d="M442.44,520.34c-4.7,0-9.46-0.32-14.29-0.97c-21.96-2.94-44.25-12.76-62.78-27.64
		c-18.05-14.5-31.07-32.48-36.68-50.65c-7.13-23.11-1.55-44.39,15.73-59.91c0.17-0.16,0.36-0.29,0.56-0.41l38.94-22.17
		c1.56-0.89,3.54-0.34,4.43,1.22c0.89,1.56,0.34,3.54-1.22,4.43l-38.63,21.99c-19.32,17.55-18.08,38.46-13.61,52.93
		c11.04,35.77,52.38,68.17,94.12,73.76c39.67,5.32,75.02-13.03,99.53-51.64c0.96-1.52,2.97-1.97,4.49-1c1.51,0.96,1.96,2.97,1,4.49
		C511.05,500.99,478.91,520.34,442.44,520.34z"/>
	<path class="st1" d="M474.48,481.61c-6.62,0-13.27-0.57-19.9-1.71c-27.87-4.81-51.92-19.45-67.73-41.22
		c-10.11-13.92-16.22-32.71-16.36-50.28c-0.2-26.26,25.69-43.9,50.84-45.79c1.78-0.15,3.35,1.21,3.48,3c0.13,1.79-1.21,3.35-3,3.48
		c-22.17,1.66-45,16.8-44.82,39.26c0.12,16.02,5.92,33.84,15.12,46.51c14.81,20.39,37.39,34.11,63.58,38.63
		c25.74,4.44,51.94-0.35,73.78-13.51c1.54-0.92,3.54-0.43,4.46,1.11c0.93,1.54,0.43,3.53-1.11,4.46
		C515.27,476.12,495.08,481.61,474.48,481.61z"/>
	<path class="st2" d="M278.24,611.12"/>
	<path class="st1" d="M401.76,383.9c-0.35,0-0.7-0.06-1.05-0.17c-7.68-2.62-16.02-4.56-24.8-5.79c-1.78-0.25-3.02-1.89-2.77-3.67
		c0.25-1.78,1.89-3.02,3.67-2.77c9.18,1.29,17.93,3.33,25.99,6.08c1.7,0.58,2.61,2.43,2.03,4.12
		C404.37,383.05,403.11,383.9,401.76,383.9z"/>
	<path class="st1" d="M474.49,481.28c-1.68,0-3.1-1.29-3.24-3c-0.29-3.78-1.04-11.28-2.75-19.04c-0.39-1.75,0.72-3.49,2.48-3.87
		c1.75-0.39,3.49,0.72,3.87,2.48c1.79,8.15,2.58,15.99,2.88,19.93c0.14,1.79-1.2,3.35-2.99,3.49
		C474.67,481.28,474.58,481.28,474.49,481.28z"/>
	<g>
		<path class="st1" d="M30.23,865.1c-1.22,0-2.38-0.69-2.94-1.86c-0.77-1.62-0.08-3.56,1.54-4.33c0.32-0.15,14.29-7.04,26.7-23.94
			c0.05-0.06,0.1-0.13,0.15-0.19c7.15-8.37,14.04-24.51,22.01-43.2c17.38-40.74,40.5-94.91,86.67-116.95
			c22.5-21.2,47.63-37.54,74.68-48.58c24.06-9.81,47.6-12.53,72.52-15.41c5.98-0.69,12.17-1.4,18.33-2.22
			c20.51-2.72,38.94-6.11,56.33-10.36c21.77-5.32,49.79-13.42,73.46-28.98c1.45-0.95,3.39-0.6,4.41,0.8
			c1.02,1.4,0.76,3.36-0.59,4.45c-6.46,5.19-12.96,10.64-19.25,15.92c-19.08,15.99-38.8,32.53-60.95,44.91
			c-25.55,14.28-53.8,23.26-83.98,26.69c-13.37,1.52-27,2.33-40.18,3.11c-24.94,1.48-50.72,3.01-75.31,9.43
			c-55.24,14.43-81.21,75.29-100.17,119.73c-8.16,19.12-15.2,35.63-22.97,44.78c-13.5,18.35-28.45,25.57-29.08,25.87
			C31.17,865,30.69,865.1,30.23,865.1z M435.34,589.24c-16.63,7.05-33.4,11.67-47.57,15.14c-17.62,4.31-36.27,7.74-57.02,10.49
			c-6.22,0.82-12.43,1.54-18.44,2.24c-24.47,2.82-47.58,5.49-70.81,14.97c-21.43,8.74-41.62,20.91-60.22,36.29
			c0.3-0.08,0.61-0.17,0.92-0.25c25.2-6.58,51.31-8.13,76.56-9.63c13.1-0.78,26.64-1.58,39.83-3.08
			c29.32-3.33,56.75-12.05,81.54-25.91C399.94,618.42,417.96,603.77,435.34,589.24z"/>
		<path class="st1" d="M30.22,865.1c-1.65,0-3.06-1.25-3.23-2.92c-0.18-1.79,1.12-3.38,2.91-3.56c0.14-0.01,14.21-1.51,30.93-9.92
			c22.41-11.27,38.62-28.91,48.18-52.44c1.89-4.5,46.13-109.74,65.78-125.05c1.42-1.1,3.46-0.85,4.56,0.57
			c1.1,1.42,0.85,3.46-0.57,4.56c-14.66,11.42-48.12,85.06-63.76,122.4c-24.22,59.62-82.01,66.1-84.46,66.34
			C30.44,865.09,30.33,865.1,30.22,865.1z"/>
	</g>
	<g>
		<path class="st1" d="M591.96,242.36c-0.95,0-1.89-0.41-2.53-1.21c-1.13-1.4-0.91-3.44,0.49-4.57c3.81-3.07,11.8-8.38,16.45-10.93
			c0.03-0.02,0.06-0.03,0.09-0.05c1.37-0.7,2.75-1.4,4.12-2.09c1.07-2.32,2.1-4.62,3.12-6.88c7.97-17.7,15.5-34.41,32.33-49.21
			c19.51-17.17,40.86-27.46,63.46-38.35c5.42-2.61,11.03-5.32,16.58-8.11c18.49-9.3,34.78-18.54,49.81-28.26
			c18.82-12.17,42.63-29.01,59.89-51.47c1.06-1.38,3.01-1.68,4.43-0.69c1.42,0.99,1.82,2.92,0.9,4.39
			c-4.4,7.02-8.75,14.31-12.97,21.35c-12.77,21.37-25.98,43.46-42.84,62.41c-19.45,21.87-43.19,39.62-70.58,52.76
			c-13.31,6.39-26.88,12.65-40,18.71c-19.46,8.99-39.51,18.25-59.2,28.12c-1.75,3.76-3.6,7.6-5.64,11.54
			c-0.83,1.59-2.79,2.21-4.38,1.39c-1.59-0.83-2.21-2.79-1.39-4.38c0.58-1.11,1.14-2.21,1.69-3.31c-4.15,2.57-9.16,5.99-11.8,8.12
			C593.4,242.13,592.68,242.36,591.96,242.36z M819.39,68.25c-13.4,12.11-27.73,21.98-39.97,29.9
			c-15.23,9.85-31.73,19.21-50.42,28.61c-5.6,2.82-11.23,5.53-16.68,8.16c-22.19,10.69-43.15,20.79-61.99,37.37
			c-15.66,13.77-22.59,29-30.52,46.62c17.44-8.59,35.05-16.72,52.2-24.64c13.1-6.05,26.65-12.31,39.92-18.67
			c26.6-12.76,49.66-30,68.53-51.22C795.52,107.43,807.74,87.68,819.39,68.25z"/>
		<path class="st1" d="M531.54,466.26c-0.48,0-0.96-0.11-1.42-0.33c-1.61-0.79-2.28-2.73-1.5-4.35
			c10.5-21.56,12.95-52.92,15.53-86.11c1.93-24.75,3.92-50.34,9.41-73.63c0.41-1.75,2.16-2.83,3.91-2.42
			c1.75,0.41,2.83,2.16,2.42,3.91c-5.38,22.8-7.35,48.14-9.26,72.64c-2.64,33.83-5.13,65.79-16.17,88.46
			C533.9,465.59,532.74,466.26,531.54,466.26z"/>
		<path class="st1" d="M531.35,466.19c-1.22,0-2.39-0.69-2.94-1.87c-0.76-1.61-0.07-3.53,1.52-4.3c0.34-0.17,13.58-6.79,26.99-20.74
			c17.97-18.69,27.75-40.99,29.05-66.3c0.51-12.4,1.29-25.55,2.47-41.35l0.27-3.61c1.11-14.97,2.26-30.45,4.29-45.63
			c2.09-15.67,4.51-30.93,11.03-45.35c0.74-1.64,2.67-2.36,4.3-1.62c1.63,0.74,2.36,2.67,1.62,4.3
			c-6.16,13.61-8.49,28.36-10.51,43.53c-2,14.99-3.15,30.37-4.25,45.25l-0.27,3.61c-1.17,15.73-1.96,28.81-2.46,41.17
			c-1.74,33.69-17.86,57.05-31.07,70.72c-14.51,15.01-28.54,21.82-28.67,21.88C532.29,466.1,531.82,466.19,531.35,466.19z"/>
	</g>
</g>
<g>
	<g>
		<g>
			<path class="st3" d="M76.61,977.52c-0.66,0-1.31-0.2-1.86-0.59c-5.6-3.92-3.21-14.83,8.81-40.24c0.69-1.46,1.23-2.6,1.54-3.3
				c5.52-12.69,11.74-25.26,17.75-37.42l1.46-2.95c17.32-35.06,32.82-62.64,48.8-86.8c19.89-30.08,40.35-54.59,62.48-74.83
				c-1.87-5.71-5.44-21.27,5.12-35.36c0.33-0.45,0.78-0.8,1.29-1.03c20.67-9.1,42.13-2.31,63.78,20.16c0.76,0.79,1.07,1.9,0.83,2.97
				c-3.64,16.1-22.71,27.79-28.83,31.17c0.52,25.65-4.38,47.72-14.59,65.63c-9.66,16.96-23.9,26.57-38.98,36.74
				c-4.56,3.07-9.27,6.25-13.81,9.63c-22.04,16.41-42.29,33.9-60.2,51.98c-17.57,17.75-37.35,39.07-50.77,62.59
				c-0.45,0.79-1.22,1.36-2.11,1.56C77.09,977.49,76.85,977.52,76.61,977.52z M225.41,700.61c-9.93,14.03-3.33,29.74-3.04,30.41
				c0.55,1.28,0.23,2.78-0.8,3.71c-50.87,45.87-86.27,110.22-111.43,161.16l-1.46,2.95c-5.98,12.09-12.16,24.59-17.61,37.13
				c-0.32,0.75-0.89,1.95-1.62,3.49c-5.33,11.26-8.19,18.63-9.67,23.44c13.27-20.28,30.39-38.6,45.82-54.19
				c18.13-18.32,38.64-36.02,60.93-52.62c4.67-3.47,9.44-6.69,14.06-9.81c14.43-9.73,28.05-18.92,36.96-34.57
				c9.87-17.33,14.48-38.94,13.69-64.24c-0.04-1.27,0.66-2.45,1.8-3.01c0.23-0.11,22.04-11.14,26.78-26.1
				C260.75,699.12,242.93,693.31,225.41,700.61z"/>
			<path class="st3" d="M163.87,879.25c-1.46,0-2.78-0.99-3.15-2.46c-3.83-15.28,16.09-45.29,37.18-77.06
				c16.88-25.43,35.98-54.2,34.52-65.89c-1.96-3.65-10.47-22.04,5.12-40.79c1.15-1.38,3.2-1.57,4.58-0.42
				c1.38,1.15,1.57,3.2,0.42,4.58c-14.35,17.26-4.34,33.67-4.24,33.83c0.22,0.35,0.37,0.74,0.44,1.14
				c2.56,13.93-15.04,40.45-35.42,71.14c-18.48,27.83-39.42,59.38-36.29,71.88c0.44,1.74-0.62,3.51-2.36,3.94
				C164.4,879.22,164.13,879.25,163.87,879.25z"/>
			<path class="st3" d="M77.37,968.96c-0.6,0-1.2-0.16-1.74-0.5c-1.52-0.96-1.97-2.97-1-4.49l69.38-109.41
				c1.2-8.77,5.41-13.39,8.92-13.97c2.04-0.34,3.91,0.6,4.76,2.4c1.64,3.46-1.09,8.54-7.68,14.31c-0.02,0.02-0.05,0.04-0.07,0.06
				c-0.02,0.03-0.03,0.05-0.05,0.07L80.11,967.45C79.49,968.43,78.44,968.96,77.37,968.96z"/>
			<path class="st3" d="M221.6,701.42c-1.02,0-2.03-0.48-2.67-1.39c-4.75-6.79-4.05-18.48,2.14-35.74c0.61-1.69,2.47-2.57,4.16-1.96
				c1.69,0.61,2.57,2.47,1.96,4.16c-6.67,18.58-5.28,26.47-2.94,29.81c1.03,1.47,0.67,3.5-0.8,4.53
				C222.9,701.23,222.25,701.42,221.6,701.42z"/>
			<path class="st3" d="M243.04,627.91c-0.52,0-1.04-0.12-1.53-0.38c-1.58-0.85-2.18-2.82-1.33-4.4
				c12.21-22.84,27.44-47.88,40.89-69.98l49.06-80.6c0.93-1.53,2.93-2.02,4.47-1.09c1.53,0.93,2.02,2.93,1.09,4.47l-49.06,80.59
				c-13.4,22.02-28.58,46.99-40.71,69.67C245.32,627.29,244.2,627.91,243.04,627.91z"/>
			<path class="st3" d="M446.15,482c-0.53,0-1.07-0.13-1.57-0.41c-1.57-0.87-2.14-2.85-1.27-4.42l193.68-349.59l18.17-32.37
				c0.05-0.09,0.11-0.18,0.17-0.27c11.28-16.21,0.46-34.7-14.37-45.01c-14.8-10.29-35.85-14.01-47.14,2.11L368.44,422.14
				c-0.93,1.53-2.94,2.02-4.47,1.09c-1.53-0.93-2.02-2.93-1.09-4.47L588.31,48.59c0.03-0.06,0.07-0.11,0.11-0.17
				c6.28-9.02,15.55-13.8,26.82-13.82c0.02,0,0.04,0,0.06,0c9.65,0,20.08,3.55,29.36,10.01c9.3,6.47,16.27,15.03,19.62,24.11
				c3.88,10.52,2.66,20.83-3.54,29.82l-18.08,32.22L449,480.33C448.4,481.4,447.29,482,446.15,482z"/>
			<path class="st3" d="M377.69,605.12c-0.55,0-1.12-0.14-1.63-0.44c-1.55-0.9-2.08-2.89-1.18-4.44c2.18-3.75,4.34-7.52,6.41-11.18
				l18.93-34.1l20.4-36.82c0.87-1.57,2.85-2.14,4.42-1.27c1.57,0.87,2.14,2.85,1.27,4.42l-20.4,36.82l-18.94,34.13
				c-2.1,3.71-4.27,7.49-6.46,11.27C379.9,604.54,378.81,605.12,377.69,605.12z"/>
			<path class="st3" d="M286.13,721.22c-1.43,0-2.76-0.28-4.01-0.84c-1.64-0.73-2.38-2.65-1.65-4.29c0.73-1.64,2.65-2.38,4.29-1.65
				c6.5,2.89,27.78-15.1,66.38-75.29c0.97-1.51,2.98-1.95,4.49-0.98c1.51,0.97,1.95,2.98,0.98,4.49
				c-15.42,24.04-29.64,43.73-41.13,56.93C302.76,714.2,293.28,721.22,286.13,721.22z"/>
		</g>
	</g>
	<path class="st3" d="M436.18,585.67c-0.75,0-1.51-0.26-2.12-0.79c-1.36-1.17-1.51-3.23-0.33-4.58
		c17.55-20.28,22.53-56.38,23.64-66.96c0.19-1.79,1.79-3.08,3.57-2.89c1.79,0.19,3.08,1.79,2.89,3.57
		c-1.16,11.06-6.4,48.82-25.19,70.53C438,585.29,437.09,585.67,436.18,585.67z"/>
	<path class="st3" d="M436.45,586c-0.93,0-1.86-0.4-2.5-1.18c-1.14-1.38-0.95-3.43,0.43-4.58c3.09-2.56,6.25-5.25,9.38-8.01
		c1.52-1.34,3.2-2.78,5-4.33c19.98-17.15,53.43-45.85,57.39-92.06c0.15-1.79,1.72-3.11,3.52-2.96c1.79,0.15,3.11,1.73,2.96,3.52
		c-4.18,48.87-40.25,79.82-59.63,96.44c-1.78,1.53-3.44,2.95-4.94,4.27c-3.18,2.8-6.39,5.54-9.53,8.14
		C437.92,585.75,437.18,586,436.45,586z"/>
	<path class="st3" d="M509.77,471.87c-0.02,0-0.04,0-0.05,0c-1.79-0.03-3.23-1.51-3.2-3.3c0.35-21.53-5.89-44.74-18.54-69
		c-0.83-1.59-0.21-3.55,1.38-4.38s3.55-0.21,4.38,1.38c13.16,25.23,19.64,49.49,19.28,72.11
		C512.99,470.45,511.54,471.87,509.77,471.87z"/>
	<path class="st3" d="M428.38,522.18c-4.69,0-9.46-0.32-14.29-0.97c-21.96-2.94-44.25-12.76-62.78-27.64
		c-18.05-14.5-31.07-32.48-36.68-50.65c-7.13-23.11-1.55-44.39,15.73-59.91c0.17-0.16,0.36-0.29,0.56-0.41l38.94-22.17
		c1.56-0.89,3.54-0.34,4.43,1.22c0.89,1.56,0.34,3.54-1.22,4.43l-38.63,21.99c-19.32,17.55-18.08,38.46-13.61,52.93
		c11.04,35.77,52.38,68.17,94.12,73.76c39.67,5.31,75.02-13.03,99.53-51.64c0.96-1.52,2.97-1.96,4.49-1c1.51,0.96,1.96,2.97,1,4.49
		C496.99,502.82,464.85,522.17,428.38,522.18z"/>
	<path class="st3" d="M460.42,483.45c-6.62,0-13.27-0.57-19.9-1.71c-27.87-4.81-51.92-19.45-67.73-41.22
		c-10.11-13.92-16.22-32.71-16.36-50.28c-0.2-26.26,25.69-43.9,50.84-45.79c1.79-0.14,3.35,1.21,3.48,3c0.13,1.79-1.21,3.35-3,3.48
		c-22.17,1.66-45,16.8-44.82,39.26c0.12,16.02,5.92,33.84,15.12,46.51c14.81,20.39,37.39,34.11,63.58,38.63
		c25.74,4.45,51.94-0.35,73.77-13.51c1.54-0.92,3.54-0.43,4.46,1.11c0.93,1.54,0.43,3.53-1.11,4.46
		C501.21,477.96,481.02,483.45,460.42,483.45z"/>
	<path class="st4" d="M264.18,612.95"/>
	<path class="st3" d="M387.7,385.73c-0.35,0-0.7-0.06-1.05-0.17c-7.68-2.62-16.02-4.57-24.8-5.79c-1.78-0.25-3.02-1.89-2.77-3.67
		c0.25-1.78,1.89-3.02,3.67-2.77c9.18,1.29,17.93,3.33,25.99,6.08c1.7,0.58,2.61,2.43,2.03,4.12
		C390.31,384.88,389.05,385.73,387.7,385.73z"/>
	<path class="st3" d="M460.44,483.11c-1.68,0-3.1-1.29-3.24-3c-0.3-3.78-1.05-11.29-2.75-19.04c-0.39-1.75,0.72-3.49,2.48-3.87
		c1.75-0.39,3.49,0.72,3.87,2.48c1.79,8.14,2.57,15.98,2.88,19.93c0.14,1.79-1.2,3.35-2.99,3.49
		C460.61,483.11,460.52,483.11,460.44,483.11z"/>
	<g>
		<path class="st3" d="M16.17,866.93c-1.22,0-2.38-0.69-2.94-1.86c-0.77-1.62-0.08-3.56,1.54-4.33c0.32-0.15,14.29-7.04,26.7-23.94
			c0.05-0.06,0.1-0.13,0.15-0.19c7.15-8.37,14.04-24.51,22.01-43.2c17.38-40.74,40.5-94.91,86.67-116.96
			c22.5-21.2,47.62-37.54,74.68-48.58c24.07-9.82,47.61-12.53,72.53-15.41c5.98-0.69,12.16-1.4,18.32-2.22
			c20.51-2.72,38.94-6.11,56.33-10.36c21.77-5.32,49.79-13.43,73.46-28.98c1.45-0.95,3.39-0.6,4.41,0.8
			c1.02,1.4,0.76,3.36-0.59,4.45c-6.46,5.19-12.96,10.64-19.25,15.92c-19.08,16-38.8,32.53-60.95,44.91
			c-25.55,14.28-53.8,23.26-83.98,26.69c-13.37,1.52-27,2.33-40.18,3.11c-24.94,1.48-50.72,3.01-75.3,9.43
			c-55.24,14.43-81.21,75.29-100.17,119.73c-8.16,19.11-15.2,35.63-22.97,44.78c-13.5,18.35-28.45,25.57-29.08,25.87
			C17.11,866.83,16.64,866.93,16.17,866.93z M421.28,591.07c-16.63,7.05-33.4,11.67-47.57,15.14c-17.62,4.31-36.27,7.74-57.02,10.49
			c-6.21,0.82-12.43,1.54-18.43,2.23c-24.47,2.82-47.58,5.49-70.82,14.97c-21.43,8.74-41.62,20.91-60.21,36.28
			c0.3-0.08,0.61-0.16,0.92-0.24c25.2-6.58,51.31-8.13,76.56-9.63c13.1-0.78,26.64-1.58,39.83-3.08
			c29.32-3.33,56.75-12.05,81.54-25.91C385.88,620.25,403.9,605.61,421.28,591.07z"/>
		<path class="st3" d="M16.16,866.93c-1.71,0-3.15-1.34-3.24-3.07c-0.1-1.75,1.21-3.25,2.93-3.42c0.4-0.04,14.48-1.6,31.13-10.02
			c22.3-11.28,38.43-28.88,47.96-52.33c1.89-4.5,46.13-109.74,65.78-125.05c1.42-1.1,3.46-0.85,4.56,0.57
			c1.1,1.42,0.85,3.46-0.57,4.56c-14.66,11.42-48.12,85.06-63.76,122.4c-24.53,60.37-84.02,66.32-84.61,66.36
			C16.29,866.93,16.22,866.93,16.16,866.93z"/>
	</g>
	<g>
		<path class="st3" d="M577.9,244.19c-0.95,0-1.89-0.41-2.53-1.21c-1.13-1.4-0.91-3.44,0.49-4.57c3.8-3.06,11.79-8.38,16.45-10.93
			c0.03-0.02,0.06-0.03,0.09-0.05c1.37-0.7,2.75-1.4,4.12-2.09c1.07-2.32,2.1-4.62,3.12-6.88c7.97-17.7,15.5-34.41,32.33-49.21
			c19.51-17.17,40.86-27.45,63.46-38.35c5.42-2.61,11.03-5.32,16.58-8.11c18.49-9.3,34.78-18.54,49.81-28.26
			c18.82-12.17,42.63-29.01,59.89-51.47c1.06-1.38,3.01-1.68,4.43-0.69c1.42,0.99,1.82,2.92,0.9,4.39
			c-4.4,7.02-8.75,14.3-12.96,21.35c-12.78,21.37-25.99,43.46-42.84,62.42c-19.45,21.87-43.2,39.62-70.58,52.76
			c-13.31,6.39-26.89,12.66-40.01,18.72c-19.45,8.98-39.5,18.25-59.18,28.11c-1.75,3.76-3.6,7.6-5.64,11.54
			c-0.83,1.59-2.79,2.21-4.38,1.39c-1.59-0.83-2.21-2.79-1.39-4.38c0.58-1.11,1.14-2.21,1.69-3.31c-4.15,2.57-9.16,5.99-11.8,8.12
			C579.34,243.96,578.62,244.19,577.9,244.19z M805.33,70.08c-13.4,12.12-27.73,21.98-39.97,29.9
			c-15.23,9.85-31.72,19.21-50.42,28.61c-5.6,2.82-11.23,5.53-16.68,8.16c-22.19,10.69-43.15,20.79-61.99,37.37
			c-15.66,13.77-22.59,29-30.52,46.62c17.44-8.58,35.04-16.72,52.19-24.64c13.11-6.05,26.66-12.31,39.93-18.68
			c26.6-12.76,49.66-30,68.53-51.22C781.46,109.26,793.68,89.51,805.33,70.08z"/>
		<path class="st3" d="M517.48,468.09c-0.48,0-0.96-0.11-1.42-0.33c-1.61-0.79-2.28-2.73-1.5-4.35
			c10.5-21.56,12.95-52.92,15.53-86.11c1.93-24.75,3.92-50.34,9.41-73.63c0.41-1.75,2.16-2.83,3.91-2.42
			c1.75,0.41,2.83,2.16,2.42,3.91c-5.38,22.8-7.35,48.14-9.26,72.64c-2.64,33.83-5.13,65.79-16.17,88.46
			C519.84,467.42,518.68,468.09,517.48,468.09z"/>
		<path class="st3" d="M517.29,468.03c-1.22,0-2.39-0.69-2.94-1.87c-0.76-1.61-0.07-3.53,1.52-4.3c0.34-0.17,13.58-6.79,26.99-20.74
			c17.97-18.69,27.75-40.99,29.06-66.3c0.5-12.39,1.29-25.54,2.47-41.35l0.27-3.57c1.11-14.98,2.26-30.47,4.29-45.66
			c2.09-15.67,4.51-30.93,11.03-45.35c0.74-1.64,2.67-2.36,4.3-1.62c1.63,0.74,2.36,2.67,1.62,4.3
			c-6.16,13.61-8.49,28.36-10.51,43.53c-2,15-3.15,30.4-4.25,45.28l-0.27,3.58c-1.18,15.74-1.96,28.82-2.46,41.17
			c-1.74,33.69-17.86,57.05-31.07,70.72c-14.51,15.01-28.54,21.82-28.67,21.88C518.23,467.93,517.76,468.03,517.29,468.03z"/>
	</g>
</g>
</svg>
