<svg width="109" height="680" viewBox="0 0 109 680" fill="none" xmlns="http://www.w3.org/2000/svg">
<path opacity="0.5" d="M44.025 178.925C37.375 178.925 31.4833 177.7 26.35 175.25C21.3333 172.8 17.3667 169.475 14.45 165.275C11.65 160.958 10.25 156.058 10.25 150.575C10.25 144.275 11.8833 139.317 15.15 135.7C18.4167 132.083 23.6667 129.517 30.9 128C38.1333 126.367 47.7583 125.55 59.775 125.55H69.4V140.25H59.775C55.225 140.25 51.4333 140.6 48.4 141.3C45.4833 141.883 43.325 142.875 41.925 144.275C40.525 145.558 39.825 147.25 39.825 149.35C39.825 152.033 40.7583 154.25 42.625 156C44.6083 157.75 47.4083 158.625 51.025 158.625C53.9417 158.625 56.5083 157.983 58.725 156.7C61.0583 155.417 62.925 153.667 64.325 151.45C65.725 149.117 66.425 146.433 66.425 143.4V123.1C66.425 118.9 65.3167 115.925 63.1 114.175C61 112.425 57.325 111.55 52.075 111.55C49.275 111.55 46.125 111.9 42.625 112.6C39.125 113.183 35.2167 114.292 30.9 115.925C27.75 117.092 25.0667 117.267 22.85 116.45C20.6333 115.633 18.8833 114.233 17.6 112.25C16.4333 110.267 15.85 108.108 15.85 105.775C15.9667 103.442 16.725 101.225 18.125 99.125C19.6417 97.025 21.9167 95.3917 24.95 94.225C30.55 92.125 35.6833 90.725 40.35 90.025C45.1333 89.325 49.5083 88.975 53.475 88.975C63.0417 88.975 70.9167 90.375 77.1 93.175C83.4 95.8583 88.0667 100.058 91.1 105.775C94.25 111.375 95.825 118.608 95.825 127.475V162.825C95.825 167.958 94.6 171.867 92.15 174.55C89.7 177.233 86.1417 178.575 81.475 178.575C76.6917 178.575 73.0167 177.233 70.45 174.55C68 171.867 66.775 167.958 66.775 162.825V158.275L67.825 160.725C67.2417 164.458 65.9 167.667 63.8 170.35C61.7 173.033 58.9583 175.133 55.575 176.65C52.1917 178.167 48.3417 178.925 44.025 178.925Z" fill="#FF0066"/>
<path opacity="0.5" d="M65.8 306.925C59.15 306.925 53.2 305.35 47.95 302.2C42.8167 298.933 39.4333 294.675 37.8 289.425L39.725 282.25V290.825C39.725 295.958 38.3833 299.867 35.7 302.55C33.1333 305.233 29.4 306.575 24.5 306.575C19.4833 306.575 15.6333 305.233 12.95 302.55C10.3833 299.867 9.1 295.958 9.1 290.825V195.8C9.1 190.667 10.4417 186.758 13.125 184.075C15.8083 181.392 19.6 180.05 24.5 180.05C29.5167 180.05 33.3667 181.392 36.05 184.075C38.85 186.758 40.25 190.667 40.25 195.8V233.25H38.15C39.9 228.467 43.3417 224.558 48.475 221.525C53.6083 218.492 59.3833 216.975 65.8 216.975C73.2667 216.975 79.8 218.783 85.4 222.4C91.1167 226.017 95.55 231.15 98.7 237.8C101.85 244.45 103.425 252.5 103.425 261.95C103.425 271.167 101.85 279.158 98.7 285.925C95.55 292.692 91.1167 297.883 85.4 301.5C79.8 305.117 73.2667 306.925 65.8 306.925ZM56 284C59.15 284 61.8917 283.242 64.225 281.725C66.675 280.092 68.6 277.7 70 274.55C71.4 271.283 72.1 267.083 72.1 261.95C72.1 254.133 70.5833 248.533 67.55 245.15C64.5167 241.65 60.6667 239.9 56 239.9C52.85 239.9 50.05 240.658 47.6 242.175C45.15 243.692 43.225 246.083 41.825 249.35C40.425 252.5 39.725 256.7 39.725 261.95C39.725 269.65 41.2417 275.25 44.275 278.75C47.3083 282.25 51.2167 284 56 284Z" fill="#FF0066"/>
<path opacity="0.5" d="M54.675 404.925C45.1083 404.925 36.7667 403.117 29.65 399.5C22.5333 395.883 16.9917 390.692 13.025 383.925C9.05833 377.158 7.075 369.167 7.075 359.95C7.075 352.95 8.18333 346.708 10.4 341.225C12.6167 335.625 15.825 330.9 20.025 327.05C24.225 323.083 29.2417 320.108 35.075 318.125C40.9083 316.025 47.4417 314.975 54.675 314.975C64.2417 314.975 72.5833 316.783 79.7 320.4C86.8167 324.017 92.3 329.208 96.15 335.975C100.117 342.625 102.1 350.617 102.1 359.95C102.1 366.833 100.992 373.075 98.775 378.675C96.5583 384.275 93.35 389.058 89.15 393.025C85.0667 396.875 80.05 399.85 74.1 401.95C68.2667 403.933 61.7917 404.925 54.675 404.925ZM54.675 382C57.825 382 60.625 381.242 63.075 379.725C65.525 378.092 67.3917 375.7 68.675 372.55C70.075 369.283 70.775 365.083 70.775 359.95C70.775 352.133 69.2583 346.533 66.225 343.15C63.1917 339.65 59.3417 337.9 54.675 337.9C51.525 337.9 48.725 338.658 46.275 340.175C43.825 341.692 41.9 344.083 40.5 347.35C39.1 350.5 38.4 354.7 38.4 359.95C38.4 367.65 39.9167 373.25 42.95 376.75C45.9833 380.25 49.8917 382 54.675 382Z" fill="#FF0066"/>
<path opacity="0.5" d="M43.3 495.925C35.8333 495.925 29.7083 494.583 24.925 491.9C20.1417 489.1 16.525 484.958 14.075 479.475C11.7417 473.992 10.575 467.05 10.575 458.65V421.9C10.575 416.767 11.9167 412.917 14.6 410.35C17.2833 407.667 21.1333 406.325 26.15 406.325C31.1667 406.325 35.0167 407.667 37.7 410.35C40.3833 412.917 41.725 416.767 41.725 421.9V459.525C41.725 463.725 42.6 466.875 44.35 468.975C46.1 471.075 48.8417 472.125 52.575 472.125C56.775 472.125 60.2167 470.608 62.9 467.575C65.5833 464.542 66.925 460.517 66.925 455.5V421.9C66.925 416.767 68.2667 412.917 70.95 410.35C73.6333 407.667 77.4833 406.325 82.5 406.325C87.5167 406.325 91.3667 407.667 94.05 410.35C96.7333 412.917 98.075 416.767 98.075 421.9V479.825C98.075 490.325 93.0583 495.575 83.025 495.575C78.125 495.575 74.3333 494.233 71.65 491.55C68.9667 488.867 67.625 484.958 67.625 479.825V469.675L70.425 478.25C67.8583 483.967 64.2417 488.342 59.575 491.375C55.025 494.408 49.6 495.925 43.3 495.925Z" fill="#FF0066"/>
<path opacity="0.5" d="M71.25 619.925C62.5 619.925 55.2667 618.583 49.55 615.9C43.95 613.217 39.75 609.192 36.95 603.825C34.15 598.342 32.75 591.517 32.75 583.35V554.825H26.8C23.0667 554.825 20.15 553.833 18.05 551.85C16.0667 549.867 15.075 547.008 15.075 543.275C15.075 539.542 16.0667 536.742 18.05 534.875C20.15 532.892 23.0667 531.9 26.8 531.9H32.75V521.05C32.75 515.917 34.0917 512.008 36.775 509.325C39.4583 506.642 43.3083 505.3 48.325 505.3C53.3417 505.3 57.1917 506.642 59.875 509.325C62.5583 512.008 63.9 515.917 63.9 521.05V531.9H78.25C82.1 531.9 85.0167 532.892 87 534.875C89.1 536.742 90.15 539.542 90.15 543.275C90.15 547.008 89.1 549.867 87 551.85C85.0167 553.833 82.1 554.825 78.25 554.825H63.9V582.3C63.9 586.617 64.8917 589.825 66.875 591.925C68.975 593.908 72.2417 594.9 76.675 594.9C78.3083 594.9 79.8833 594.725 81.4 594.375C82.9167 594.025 84.3167 593.85 85.6 593.85C87.4667 593.733 88.9833 594.317 90.15 595.6C91.3167 596.767 91.9 599.508 91.9 603.825C91.9 607.325 91.375 610.3 90.325 612.75C89.275 615.083 87.4083 616.775 84.725 617.825C83.0917 618.408 80.875 618.875 78.075 619.225C75.275 619.692 73 619.925 71.25 619.925Z" fill="#FF0066"/>
</svg>
