<svg xmlns="http://www.w3.org/2000/svg" xmlns:xlink="http://www.w3.org/1999/xlink" viewBox="0 0 350 150"><defs><style>.cls-1{fill:none;}.cls-2{fill:#00131e;}.cls-3{clip-path:url(#clip-path);}.cls-4{fill:#c8c9cb;}.cls-5{fill:#e3e3e3;}.cls-6{fill:#d9dadc;}.cls-7{fill:#b0b1b3;}.cls-8{fill:#fff;}.cls-9{fill:#57585a;}.cls-10{fill:#3b3b3b;}.cls-11{clip-path:url(#clip-path-2);}.cls-12{opacity:0.7;}.cls-13{fill:#4f4f4f;}.cls-14{fill:#444;}.cls-15{fill:#aaa;}.cls-16{fill:#9a9899;}.cls-17{fill:#6d6d6f;}.cls-18{fill:#ed833f;}.cls-19{fill:#efefef;}.cls-20{fill:#e2e2e2;}.cls-21{fill:#afafaf;}.cls-22{fill:#eaeaea;}</style><clipPath id="clip-path"><rect class="cls-1" width="350" height="150"/></clipPath><clipPath id="clip-path-2"><rect class="cls-1" x="-26.5" y="47.48" width="125" height="72.44"/></clipPath></defs><title>bg</title><g id="Layer_2" data-name="Layer 2"><rect class="cls-2" width="350" height="150"/></g><g id="Layer_1" data-name="Layer 1"><g class="cls-3"><path class="cls-4" d="M166,31.76V359.29c0,3.16-2.27,5.71-5.08,5.71H-23.92c-2.81,0-5.08-2.55-5.08-5.71v-329"/><path class="cls-5" d="M-29,31.65V20.08A5.07,5.07,0,0,1-23.92,15H160.92A5.07,5.07,0,0,1,166,20.08V33"/><rect class="cls-4" x="-24" y="20" width="40" height="14.99" rx="7.49"/><rect class="cls-4" x="-29" y="29.99" width="195" height="14.99"/><rect class="cls-6" x="-16.5" y="33.74" width="130" height="7.49" rx="3.75"/><rect class="cls-7" x="118.5" y="33.74" width="35" height="7.49" rx="3.75"/><circle class="cls-8" cx="138.5" cy="22.49" r="2.5"/><circle class="cls-8" cx="148.5" cy="22.49" r="2.5"/><circle class="cls-8" cx="158.5" cy="22.49" r="2.5"/><rect class="cls-9" x="-26.5" y="44.98" width="190" height="74.94"/><rect class="cls-10" x="-26.5" y="119.92" width="190" height="24.98"/><rect class="cls-8" x="-26.5" y="144.9" width="190" height="54.96"/><g class="cls-11"><g class="cls-12"><path class="cls-13" d="M-30.48,54.47c.12.82.34,1.64.52,2.45l.64,2.91.83,3.79,1,4.5,1.09,5,1.18,5.34L-24,84l1.2,5.46,1.15,5.24,1.06,4.84.94,4.26.76,3.49.56,2.54a9.44,9.44,0,0,0,.54,2c1.11,2.38,3.9,3,6.2,3.56l1.84.45,4,1,4.94,1.21,5.43,1.34,5.51,1.36L15.33,122l4.45,1.1,3.3.81c1.29.32,2.59.74,3.9,1a14.63,14.63,0,0,0,4,0l64.25-11.75c.1,0,.28-.72.3-.84a1.24,1.24,0,0,0-.19-1.22,1.72,1.72,0,0,0-.84-.47c-.93-.25-1.92-.34-2.87-.51l-3.46-.61-4.36-.76-5-.88-5.34-.94-5.42-1-5.22-.92-4.75-.83-4-.7-3-.52-1.1-.2c-.2,0-.41,0-.61-.1s-.22-.13-.28-.39l-.6-2.51-.77-3.23-1-4.11L45.7,87.72l-1.23-5.17L43.2,77.2l-1.26-5.3-1.18-5L39.69,62.4l-.88-3.72-.65-2.74c-.2-.84-.26-1.83-1-2.39a5.06,5.06,0,0,0-2.91-.83l-63-2A1.64,1.64,0,0,0-30.3,51.8a3.78,3.78,0,0,0-.25,1.2A8,8,0,0,0-30.48,54.47Z"/><path class="cls-13" d="M29.06,125.3a13.48,13.48,0,0,1-2.12-.17,24.61,24.61,0,0,1-2.7-.63L23,124.19l-34.94-8.62c-2.23-.55-5-1.23-6.13-3.64a7,7,0,0,1-.46-1.61l-.09-.47L-30.21,57l-.15-.67a17.37,17.37,0,0,1-.36-1.8h0A7.22,7.22,0,0,1-30.8,53a3.86,3.86,0,0,1,.27-1.29,1.89,1.89,0,0,1,1.78-1.23l63,2a5.36,5.36,0,0,1,3.05.88,3.17,3.17,0,0,1,1,2.08c0,.15.07.31.1.46l11,46.5s0,0,0,.07l.06,0,.38.07,1.31.22,40.49,7.12.93.14a18.31,18.31,0,0,1,2,.37,1.91,1.91,0,0,1,1,.54,1.48,1.48,0,0,1,.26,1.46c-.22.84-.32,1-.5,1L31,125.16A14.88,14.88,0,0,1,29.06,125.3ZM-28.76,51a1.38,1.38,0,0,0-1.31.93A3.35,3.35,0,0,0-30.3,53a7,7,0,0,0,.07,1.41h0a17.71,17.71,0,0,0,.36,1.76l.15.67,11.61,52.88.09.48a6.88,6.88,0,0,0,.42,1.5c1,2.19,3.56,2.82,5.8,3.36l34.94,8.62,1.23.32a24.24,24.24,0,0,0,2.65.62,13.73,13.73,0,0,0,3.95,0h0L95.11,113c0-.08.09-.26.2-.65a1.06,1.06,0,0,0-.14-1,1.55,1.55,0,0,0-.71-.39,17.36,17.36,0,0,0-1.91-.35l-.94-.15L49.82,103a3.1,3.1,0,0,1-.42-.08.49.49,0,0,1-.45-.47l0-.1L37.92,56c0-.15-.07-.31-.11-.47a2.71,2.71,0,0,0-.8-1.78A4.91,4.91,0,0,0,34.24,53Z"/><polygon class="cls-14" points="-27.75 53.72 -16.75 108.18 47.25 101.18 36.25 55.72 -27.75 53.72"/><path class="cls-14" d="M-16.75,108.43a.26.26,0,0,1-.25-.2L-28,53.77a.26.26,0,0,1,.06-.21.25.25,0,0,1,.2-.09l64,2a.24.24,0,0,1,.23.19l11,45.47a.21.21,0,0,1,0,.2.23.23,0,0,1-.17.1l-64,7ZM-27.44,54l10.89,53.93L46.94,101,36.05,56Z"/><path class="cls-13" d="M28.65,121.56a10.67,10.67,0,0,1-2.77-.34c-.47-.13-.93-.24-1.4-.35l-40.79-10a.25.25,0,0,1-.19-.26.25.25,0,0,1,.22-.23l65.5-8a.26.26,0,0,1,.28.22.26.26,0,0,1-.22.28l-64.14,7.83,39.45,9.62,1.42.35a12.4,12.4,0,0,0,5.37.08l63.3-10.38a.26.26,0,0,1,.3.21.23.23,0,0,1-.19.28L31.46,121.31A18.48,18.48,0,0,1,28.65,121.56Z"/><path class="cls-14" d="M1.25,111.68c.5,0,45.5-6,45.5-6l17,3-46,7Z"/><path class="cls-14" d="M17.75,115.92h-.06l-16.5-4a.26.26,0,0,1-.19-.27.25.25,0,0,1,.25-.22c.65,0,30-3.94,45.47-6h.07l17,3a.25.25,0,0,1,0,.5l-46,7Zm-15.1-4.16,15.11,3.66,44.45-6.76-15.47-2.73C42.46,106.5,9.85,110.85,2.65,111.76Z"/></g></g><rect class="cls-4" x="98.5" y="57.47" width="45" height="49.96" rx="8"/><rect class="cls-15" x="103.5" y="63.92" width="35" height="4" rx="2"/><rect class="cls-5" x="103.5" y="64.46" width="35" height="3.63" rx="1.82"/><rect class="cls-15" x="103.5" y="71.41" width="35" height="4" rx="2"/><rect class="cls-5" x="103.5" y="71.96" width="35" height="3.63" rx="1.82"/><rect class="cls-15" x="103.5" y="78.91" width="35" height="4" rx="2"/><rect class="cls-5" x="103.5" y="79.45" width="35" height="3.63" rx="1.82"/><rect class="cls-15" x="103.5" y="86.4" width="35" height="4" rx="2"/><rect class="cls-5" x="103.5" y="86.94" width="35" height="3.63" rx="1.82"/><rect class="cls-16" x="-7.81" y="69.33" width="82.5" height="5"/><rect class="cls-17" x="-8.06" y="80.07" width="55" height="2.5"/><rect class="cls-17" x="-4.94" y="87.07" width="25" height="1.5"/><rect class="cls-17" x="-4.94" y="91.07" width="25" height="1.5"/><rect class="cls-17" x="-4.94" y="95.06" width="25" height="1.5"/><rect class="cls-17" x="-4.94" y="99.06" width="25" height="1.5"/><rect class="cls-18" x="103.5" y="95.98" width="35" height="6" rx="3"/><ellipse class="cls-13" cx="-1.5" cy="132.41" rx="6.25" ry="6.25"/><path class="cls-17" d="M-.45,131.77A1.77,1.77,0,0,0,0,130.58a1.59,1.59,0,0,0-1.5-1.67A1.59,1.59,0,0,0-3,130.58a1.77,1.77,0,0,0,.45,1.19,3.11,3.11,0,0,0-1.95,3.14h6A3.11,3.11,0,0,0-.45,131.77Z"/><ellipse class="cls-13" cx="33.5" cy="132.41" rx="6.25" ry="6.25"/><path class="cls-17" d="M34.55,131.77a1.77,1.77,0,0,0,.45-1.19,1.51,1.51,0,1,0-3,0,1.77,1.77,0,0,0,.45,1.19,3.11,3.11,0,0,0-2,3.14h6A3.11,3.11,0,0,0,34.55,131.77Z"/><ellipse class="cls-13" cx="103.5" cy="132.41" rx="6.25" ry="6.25"/><path class="cls-17" d="M104.55,131.77a1.77,1.77,0,0,0,.45-1.19,1.51,1.51,0,1,0-3,0,1.77,1.77,0,0,0,.45,1.19,3.11,3.11,0,0,0-2,3.14h6A3.11,3.11,0,0,0,104.55,131.77Z"/><ellipse class="cls-13" cx="138.5" cy="132.41" rx="6.25" ry="6.25"/><path class="cls-17" d="M139.55,131.77a1.77,1.77,0,0,0,.45-1.19,1.51,1.51,0,1,0-3,0,1.77,1.77,0,0,0,.45,1.19,3.11,3.11,0,0,0-1.95,3.14h6A3.11,3.11,0,0,0,139.55,131.77Z"/><ellipse class="cls-13" cx="68.5" cy="132.41" rx="6.25" ry="6.25"/><path class="cls-17" d="M69.55,131.77a1.77,1.77,0,0,0,.45-1.19,1.51,1.51,0,1,0-3,0,1.77,1.77,0,0,0,.45,1.19,3.11,3.11,0,0,0-2,3.14h6A3.11,3.11,0,0,0,69.55,131.77Z"/><path class="cls-4" d="M379-198.24V129.29c0,3.15-2.27,5.71-5.08,5.71H189.08c-2.81,0-5.08-2.56-5.08-5.71v-329"/><rect class="cls-8" x="186.5" y="-15.16" width="190" height="79.94"/><rect class="cls-8" x="186.5" y="-15.16" width="190" height="79.94"/><rect class="cls-8" x="186.5" y="75.28" width="190" height="56.37" rx="8"/><rect class="cls-9" x="186.5" y="64.78" width="190" height="14.99"/><rect class="cls-4" x="222.21" y="4.83" width="41.79" height="24.18" rx="9.61"/><rect class="cls-8" x="223.7" y="6.34" width="38.81" height="21.16" rx="8.66"/><path class="cls-4" d="M269,39.28H217.19c-2.17,0-3.94-1.38-3.94-3.1,1.51-.72,13.12-5.36,13.12-5.36h33.49S273,36.05,273,36.18C273,37.9,271.19,39.28,269,39.28Z"/><rect class="cls-4" x="241.91" y="28.4" width="2.39" height="2.42"/><ellipse class="cls-19" cx="237.43" cy="17.82" rx="6.87" ry="6.95"/><polyline class="cls-20" points="236.54 27.5 244.84 12.81 250.59 21.05 252.86 17.82 258.55 27.5"/><rect class="cls-21" x="260.12" y="23.64" width="13.13" height="21.16" rx="5.44"/><rect class="cls-8" x="261.43" y="25.01" width="10.51" height="15.7" rx="4.19"/><ellipse class="cls-8" cx="266.69" cy="42.75" rx="0.99" ry="1.02"/><path class="cls-19" d="M261.43,28.89a3.91,3.91,0,0,1,3.29-1.84,4.1,4.1,0,0,1,0,8.19,3.9,3.9,0,0,1-3.29-1.83"/><path class="cls-20" d="M271.94,38.57v-4l-.43-1-1.22,2.4-3.08-6.13L262.8,40.57a2,2,0,0,0,.69.13h6.39A2.09,2.09,0,0,0,271.94,38.57Z"/><rect class="cls-6" x="297.25" y="3.71" width="52.5" height="1.5"/><rect class="cls-6" x="297.25" y="8.2" width="52.5" height="1.5"/><rect class="cls-6" x="297.25" y="-2.29" width="30" height="2.5"/><rect class="cls-6" x="297.25" y="24.81" width="52.5" height="1.5"/><rect class="cls-6" x="297.25" y="29.31" width="52.5" height="1.5"/><rect class="cls-6" x="297.25" y="18.82" width="30" height="2.5"/><rect class="cls-6" x="297.25" y="45.92" width="52.5" height="1.5"/><rect class="cls-6" x="297.25" y="50.42" width="52.5" height="1.5"/><rect class="cls-6" x="297.25" y="39.93" width="30" height="2.5"/><circle class="cls-21" cx="223.87" cy="115.29" r="3.75"/><path class="cls-4" d="M224.5,114.9a1,1,0,0,0,.27-.71.9.9,0,1,0-1.8,0,1,1,0,0,0,.28.71,1.88,1.88,0,0,0-1.18,1.88h3.6A1.87,1.87,0,0,0,224.5,114.9Z"/><rect class="cls-6" x="217.87" y="99.3" width="52.5" height="1.5"/><rect class="cls-6" x="217.87" y="103.79" width="52.5" height="1.5"/><rect class="cls-6" x="217.87" y="94.8" width="52.5" height="1.5"/><ellipse class="cls-4" cx="211.37" cy="97.69" rx="1.25" ry="1.27"/><path class="cls-4" d="M210.71,98.6a.28.28,0,0,1-.19-.07,2.18,2.18,0,0,1-.5-2.13,2.25,2.25,0,0,1,1.65-1.69.26.26,0,0,1,.32.19.26.26,0,0,1-.19.33,1.72,1.72,0,0,0-1.25,1.3,1.64,1.64,0,0,0,.34,1.6.27.27,0,0,1,0,.38A.28.28,0,0,1,210.71,98.6Z"/><ellipse class="cls-4" cx="214.87" cy="97.69" rx="1.25" ry="1.27"/><path class="cls-4" d="M214.21,98.6a.28.28,0,0,1-.19-.07,2.18,2.18,0,0,1-.5-2.13,2.25,2.25,0,0,1,1.65-1.69.26.26,0,0,1,.32.19.26.26,0,0,1-.19.33,1.72,1.72,0,0,0-1.25,1.3,1.64,1.64,0,0,0,.34,1.6.27.27,0,0,1,0,.38A.28.28,0,0,1,214.21,98.6Z"/><rect class="cls-22" x="230.62" y="114.3" width="11.25" height="1.48"/><rect class="cls-22" x="244.37" y="114.3" width="26" height="1.48"/><circle class="cls-21" cx="306.38" cy="115.29" r="3.75"/><path class="cls-4" d="M307,114.9a1,1,0,0,0,.28-.71.9.9,0,1,0-1.8,0,1,1,0,0,0,.27.71,1.87,1.87,0,0,0-1.17,1.88h3.6A1.88,1.88,0,0,0,307,114.9Z"/><rect class="cls-6" x="300.38" y="99.3" width="52.5" height="1.5"/><rect class="cls-6" x="300.38" y="103.79" width="52.5" height="1.5"/><rect class="cls-6" x="300.38" y="94.8" width="52.5" height="1.5"/><ellipse class="cls-4" cx="293.88" cy="97.69" rx="1.25" ry="1.27"/><path class="cls-4" d="M293.21,98.6a.28.28,0,0,1-.19-.07,2.18,2.18,0,0,1-.5-2.13,2.25,2.25,0,0,1,1.65-1.69.26.26,0,0,1,.32.19.26.26,0,0,1-.19.33,1.72,1.72,0,0,0-1.25,1.3,1.64,1.64,0,0,0,.34,1.6.27.27,0,0,1,0,.38A.28.28,0,0,1,293.21,98.6Z"/><ellipse class="cls-4" cx="297.38" cy="97.69" rx="1.25" ry="1.27"/><path class="cls-4" d="M296.71,98.6a.28.28,0,0,1-.19-.07,2.18,2.18,0,0,1-.5-2.13,2.25,2.25,0,0,1,1.65-1.69.26.26,0,0,1,.32.19.26.26,0,0,1-.19.33,1.72,1.72,0,0,0-1.25,1.3,1.64,1.64,0,0,0,.34,1.6.27.27,0,0,1,0,.38A.28.28,0,0,1,296.71,98.6Z"/><rect class="cls-22" x="313.13" y="114.3" width="11.25" height="1.48"/><rect class="cls-22" x="326.88" y="114.3" width="26" height="1.48"/><rect class="cls-18" x="264" y="69.28" width="35" height="6" rx="3"/></g></g></svg>