<svg id="Layer_1" data-name="Layer 1" xmlns="http://www.w3.org/2000/svg" viewBox="0 0 350 150"><defs><style>.cls-1,.cls-2,.cls-4,.cls-5,.cls-6{fill:none;}.cls-1,.cls-2,.cls-4,.cls-5,.cls-6,.cls-7{stroke:#03e2b7;}.cls-1,.cls-4,.cls-5,.cls-6{stroke-linecap:round;stroke-linejoin:round;}.cls-1,.cls-2{stroke-width:0.5px;}.cls-2,.cls-7{stroke-miterlimit:10;}.cls-3,.cls-7{fill:#03e2b7;}.cls-4{stroke-width:0.4px;}.cls-5{stroke-width:0.25px;}.cls-6{stroke-width:0.35px;}.cls-7{stroke-width:0;}</style></defs><title>bg</title><path class="cls-1" d="M28.65,24.55C27.37,9.82,42.78,10.4,36.86,25.91c5.63-3.28,11.91,3.71,1.54,13.9,6.66-2.25,8.72,5-.71,14,10.07-1.68,8.52,10.71-8.36,12.26"/><path class="cls-1" d="M28.57,24.53c-4.27-4.92-12.47-.33-5.94,12.66-5.58-4.27-9.88,2-3.85,13.5-9-4.84-11.31,8.46,6.24,15.1"/><path class="cls-1" d="M30.33,36.41c-2.81,14-7.54,39-5.76,41.35"/><path class="cls-1" d="M14.12,136C20.27,111.3,1.3,113-3.49,106.46c2.91,8-11.35,23.18,16.11,33"/><path class="cls-1" d="M2.3,120.72c.26,4.86,9,18.62,16.29,24.59"/><path class="cls-1" d="M63.86,82.76c-3.5-4-7-7.76-10.65-7.92a7.39,7.39,0,0,0-3.12,1.06A7.31,7.31,0,0,0,47,74.84c-3.65.16-7.15,3.89-10.65,7.92C38.93,95,62.51,93,63.86,82.76Z"/><path class="cls-1" d="M36.33,82.76a209,209,0,0,1,27.53,0"/><path class="cls-1" d="M22.36,4.12H-2.09V70C1,39.38,4.88,17.07,22.36,4.12Z"/><path class="cls-1" d="M10.62,76.93a1.51,1.51,0,0,0,1.7,1.25,1.84,1.84,0,0,0,1.53-2.12,2.36,2.36,0,0,0-2.67-2A2.85,2.85,0,0,0,8.8,77.42a3.68,3.68,0,0,0,4.17,3,4.46,4.46,0,0,0,3.72-5.17,5.77,5.77,0,0,0-6.52-4.75,7,7,0,0,0-5.81,8.08c1,6.15,7.12,7.48,12.4,7.25,6.36-.27,12.64,1,13.87,8.27.91,5.33-.81,11.09-2.89,15.91"/><path class="cls-2" d="M18.2,104c-.55.66-3.23-1.19-3.23-1.19s0,3.26-.84,3.33-1.45-3.11-1.45-3.11-2.29,2.3-2.95,1.75,1.18-3.23,1.18-3.23-3.25,0-3.33-.85S10.7,99.3,10.7,99.3s-2.31-2.29-1.76-3,3.23,1.18,3.23,1.18,0-3.25.85-3.33,1.44,3.12,1.44,3.12,2.3-2.31,3-1.76-1.19,3.23-1.19,3.23,3.26,0,3.33.85-3.11,1.44-3.11,1.44S18.75,103.38,18.2,104Z"/><path class="cls-3" d="M38.71,4,36.48,6.5a.25.25,0,0,1-.35,0,.24.24,0,0,1,0-.35h0l2.37-2.41a.16.16,0,0,1,.22,0A.15.15,0,0,1,38.71,4Z"/><path class="cls-3" d="M40.67,3.54,43.2,5.77a.24.24,0,0,1,0,.35.26.26,0,0,1-.36,0h0l-2.4-2.37a.16.16,0,0,1,0-.22A.15.15,0,0,1,40.67,3.54Z"/><path class="cls-3" d="M39.74,4.16l.1,3.37a.26.26,0,0,1-.25.26.25.25,0,0,1-.25-.25h0l.09-3.37A.16.16,0,0,1,39.59,4,.15.15,0,0,1,39.74,4.16Z"/><path class="cls-4" d="M66.5,52.62c0,1.68.22,3.52,1.09,3.28A3.07,3.07,0,0,0,67,50.49l-.51.79"/><path class="cls-4" d="M71.34,51.64c-4.33-1.15-3-8.22,1-5.84C75.47,47.29,75.69,53.21,71.34,51.64Z"/><path class="cls-4" d="M67.24,59.76c-.48,2.78,2,2.87,1.38,0"/><path class="cls-4" d="M69.67,59.56c-.48,2.77,2,2.87,1.38,0"/><path class="cls-4" d="M66.5,52.57c0,1.68-.21,3.52-1.08,3.29A3.07,3.07,0,0,1,66,50.44l.5.79"/><path class="cls-4" d="M67.45,69.38a4.13,4.13,0,0,0,2.33-.27,9.61,9.61,0,0,0,2.76-2.43A15,15,0,0,0,74,63.58a20.22,20.22,0,0,0,.66-2l1.16-3.71,0-.17a2.34,2.34,0,0,0-1.85.5C73.5,59.42,73,60.69,72.58,62c-.21.71-.31,1.44-.56,2.14a5.72,5.72,0,0,1-1.12,1.8,3.36,3.36,0,0,1-3.45,1.19l-1.89-.05a3.37,3.37,0,0,1-3.46-1.19A5.91,5.91,0,0,1,61,64.08c-.24-.7-.34-1.43-.56-2.14A38.56,38.56,0,0,0,59,58.11a2.34,2.34,0,0,0-1.85-.5l.05.17,1.15,3.71c.21.68.39,1.39.66,2a15.54,15.54,0,0,0,1.49,3.1,9.48,9.48,0,0,0,2.76,2.43,4.12,4.12,0,0,0,2.33.27Z"/><path class="cls-4" d="M61.66,51.59c4.34-1.15,3-8.22-1-5.84C57.53,47.24,57.31,53.16,61.66,51.59Z"/><path class="cls-4" d="M64.73,59.55l3.55,0a8.17,8.17,0,0,0,4.16-.81c-1-3.84,5.06-1.13,5.8-5.76C75.3,52.6,76,48.69,75.85,45.6c1.87.8.55,5.82,2,5.82,2.72-11.33,0-17.79-9.88-17.78l-3,0c-9.9,0-12.61,6.45-9.88,17.78,1.47,0,.14-5,2-5.82-.16,3.09.56,7-2.39,7.42.74,4.63,6.8,1.92,5.81,5.76a8.13,8.13,0,0,0,4.16.81"/><path class="cls-4" d="M63.5,59.56c.48,2.77-2,2.87-1.38,0"/><path class="cls-4" d="M64.81,59.64c-.48,2.78,2,2.87,1.38,0"/><path class="cls-4" d="M67.45,67c-.49-2.83,2-2.93,1.4,0"/><path class="cls-4" d="M64.8,67c-.49-2.83,2-2.93,1.4,0"/><path class="cls-4" d="M61.83,65.55c1-2.67,3.08-1.06,1.11,1"/><path class="cls-4" d="M71.55,65c-1.3-2.54-3.18-.7-1,1.09"/><path class="cls-1" d="M61.23,20.1c-.6,2.38-6.84,6.89-6.84,6.89S51,20.07,51.6,17.69s4.49-.24,4.34,3.1C57.72,17.84,61.83,17.73,61.23,20.1Z"/><path class="cls-3" d="M42.54,106.44l-3.14-2.79a.26.26,0,0,1,0-.36.25.25,0,0,1,.35,0h0l3,2.94a.17.17,0,0,1,0,.22A.16.16,0,0,1,42.54,106.44Z"/><path class="cls-3" d="M45.2,106.33l2.8-3.14a.24.24,0,0,1,.35,0,.23.23,0,0,1,0,.35h0l-2.94,3a.16.16,0,0,1-.22,0A.15.15,0,0,1,45.2,106.33Z"/><path class="cls-3" d="M43,109.18l-2.8,3.14a.24.24,0,0,1-.35,0,.26.26,0,0,1,0-.36h0l2.94-3a.16.16,0,0,1,.22,0A.15.15,0,0,1,43,109.18Z"/><path class="cls-3" d="M45.42,108.7l3.14,2.8a.25.25,0,0,1,0,.35.24.24,0,0,1-.35,0h0l-3-2.94a.15.15,0,0,1,0-.22A.17.17,0,0,1,45.42,108.7Z"/><path class="cls-3" d="M43.93,105.7l-.09-4.2a.24.24,0,0,1,.24-.26.26.26,0,0,1,.26.25h0l-.1,4.2a.14.14,0,0,1-.16.15A.15.15,0,0,1,43.93,105.7Z"/><path class="cls-3" d="M44.24,109.45l.1,4.21a.25.25,0,0,1-.25.25.24.24,0,0,1-.25-.24h0l.09-4.21a.16.16,0,0,1,.16-.15A.15.15,0,0,1,44.24,109.45Z"/><path class="cls-4" d="M38.1,146.08C67.89,135.32,86.94,113.42,92.94,78"/><path class="cls-4" d="M48.68,141.69A18.46,18.46,0,0,0,54.17,129"/><path class="cls-4" d="M53.52,132c-9-1.83.5-6.38-1.52-10.35A9.76,9.76,0,0,1,58.06,126"/><path class="cls-4" d="M54.11,122.45a22.49,22.49,0,0,1,3.79-.52c-2.28,3.22,5.25,8.53-1.79,9.87"/><path class="cls-4" d="M66.72,129.43a18.37,18.37,0,0,0,2-13.64"/><path class="cls-4" d="M68.87,118.83c-9.12.56-1.17-6.3-4.16-9.6a9.75,9.75,0,0,1,7,2.65"/><path class="cls-4" d="M67,109.44A23.1,23.1,0,0,1,70.48,108c-1.36,3.7,7.29,6.87.84,10"/><path class="cls-4" d="M80.2,113.46a18.36,18.36,0,0,0-.81-13.76"/><path class="cls-4" d="M80.16,102.65c-8.82,2.39-2.43-5.93-6-8.56a9.73,9.73,0,0,1,7.38,1.18"/><path class="cls-4" d="M76.37,93.85a22,22,0,0,1,3.16-2.18c-.59,3.9,8.52,5.25,2.85,9.62"/><path class="cls-4" d="M88.67,95.35A18.41,18.41,0,0,0,85.44,82"/><path class="cls-4" d="M86.71,84.72c-8.25,3.91-3.44-5.41-7.44-7.36a9.72,9.72,0,0,1,7.48-.14"/><path class="cls-4" d="M81.43,76.72A21.65,21.65,0,0,1,84.15,74c.11,3.94,9.32,3.65,4.51,9"/><path class="cls-1" d="M90.24,36.46c-4.35.14-9.09-2.61-11.54-7.83l2.38.25s-2.92-4.3-2.9-6.62l1.83,1c-1.58-3.77-.91-9-.91-9l2,1.31a8.78,8.78,0,0,1,0-5.78l1.6.79a18,18,0,0,1,.1-5.05c.44.08,3.23,4.15,3.23,4.15L86.86,8a15,15,0,0,1,3.47,4.83L91,10.39c2.88,3,4.42,8,4.42,8l1-1.93c1,1.62,1.32,7.23,1.32,7.23L99.49,22c.72,8-2.37,12.47-6.48,13.91"/><path class="cls-1" d="M87.67,20.84s8.74,22.32,9.1,32.41"/><path class="cls-1" d="M112.86,92.79S94.56,86,105,65.89c8.37,6.36,15.23,13.16,10,23.43"/><line class="cls-1" x1="108.5" y1="78.53" x2="117.01" y2="105.68"/><path class="cls-1" d="M127.3,88.63s19.46,1.69,18.6-20.94c-10.28,2.16-19.4,5.35-19.06,16.89"/><line class="cls-1" x1="137.36" y1="77.62" x2="118.02" y2="98.49"/><path class="cls-1" d="M132.25,63.82s13.84,2.74,15-13.57c-7.21.71-13.73,2.17-14.89,9.53"/><line class="cls-1" x1="140.34" y1="56.71" x2="124.82" y2="70.17"/><path class="cls-1" d="M124.49,52.94s-12.76-6-4-19.84c5.28,4.78,9.6,9.74,6.48,16.17"/><line class="cls-1" x1="122.21" y1="42.41" x2="126.7" y2="62.47"/><path class="cls-1" d="M135.94,38.57S118,79.15,116.69,111.65"/><path class="cls-1" d="M132.94,44.18s-4.74-9.59,6.68-13.33c.75,4.23,1.07,8.24-1.29,10.8"/><path class="cls-1" d="M135,103.37a1.24,1.24,0,0,0,1.4,1.07,1.56,1.56,0,0,0,1.34-1.75,2,2,0,0,0-2.19-1.67,2.44,2.44,0,0,0-2.09,2.74,3.05,3.05,0,0,0,3.42,2.61,3.81,3.81,0,0,0,3.26-4.28A4.75,4.75,0,0,0,134.81,98c-4.13.55-5.09,4.62-5,8.17.1,4.28-.84,8.46-5.7,9.13"/><path class="cls-5" d="M112,55.08c-.37.45-2.2-.8-2.2-.8s0,2.21-.57,2.26-1-2.12-1-2.12-1.56,1.57-2,1.19.81-2.19.81-2.19-2.21,0-2.27-.58,2.12-1,2.12-1-1.56-1.56-1.19-2,2.2.8,2.2.8,0-2.21.57-2.26,1,2.12,1,2.12,1.56-1.57,2-1.2-.81,2.2-.81,2.2,2.21,0,2.27.58-2.12,1-2.12,1S112.35,54.63,112,55.08Z"/><circle class="cls-1" cx="113.18" cy="20.02" r="6.82"/><circle class="cls-1" cx="113.18" cy="20.02" r="3.34"/><path class="cls-1" d="M155.9,35.89a1.63,1.63,0,0,0-1.71-1.52,2,2,0,0,0-1.87,2.12A2.56,2.56,0,0,0,155,38.87a3.09,3.09,0,0,0,2.91-3.32,4,4,0,0,0-4.18-3.71A4.83,4.83,0,0,0,149.18,37a6.24,6.24,0,0,0,6.53,5.81c4.22-.23,7.64-4.41,8-9C165.37,20,139.9,14.08,128.08,23.31"/><path class="cls-3" d="M51.82,4,49.59,6.49a.25.25,0,0,1-.36,0,.25.25,0,0,1,0-.35h0l2.37-2.4a.16.16,0,0,1,.22,0A.15.15,0,0,1,51.82,4Z"/><path class="cls-3" d="M53.78,3.53l2.53,2.23a.25.25,0,0,1,0,.35.24.24,0,0,1-.35,0h0l-2.4-2.37a.16.16,0,0,1,0-.22A.15.15,0,0,1,53.78,3.53Z"/><path class="cls-3" d="M52.85,4.15l.09,3.37a.24.24,0,0,1-.24.26.25.25,0,0,1-.26-.24v0l.1-3.37A.16.16,0,0,1,52.7,4,.16.16,0,0,1,52.85,4.15Z"/><path class="cls-3" d="M64.74,4,62.51,6.49a.23.23,0,0,1-.35,0,.25.25,0,0,1,0-.35h0l2.37-2.4a.15.15,0,0,1,.22.21Z"/><path class="cls-3" d="M66.71,3.53l2.53,2.23a.25.25,0,0,1,0,.35.24.24,0,0,1-.35,0h0L66.5,3.76a.16.16,0,0,1,0-.22A.17.17,0,0,1,66.71,3.53Z"/><path class="cls-3" d="M65.77,4.15l.1,3.37a.25.25,0,0,1-.24.26.24.24,0,0,1-.26-.24v0l.1-3.37A.16.16,0,0,1,65.63,4,.15.15,0,0,1,65.77,4.15Z"/><path class="cls-4" d="M61.29,145.48c18.2-8.85,29.93-22,33.07-40.88.18-1,8.47,37.74,24.38,40.88Z"/><path class="cls-1" d="M94.49,69.54c-18.36-16.66-.68-24.67,0,0"/><path class="cls-1" d="M164.92,49.44c2.24,2.68,2.19,13.64,2.19,13.64s-10.79-1.89-13-4.57,3.48-5.37,7.2-2.4C159.39,51.59,162.68,46.77,164.92,49.44Z"/><path class="cls-6" d="M172.41,84.07c-8.4-5.09-17.91-.87-22,8.49C160.05,93.62,169.87,94.37,172.41,84.07Z"/><path class="cls-6" d="M158,83.75c-3.83,11.7,15.65,7.52,6.52-1.79"/><path class="cls-6" d="M163.47,85.67a1.59,1.59,0,1,1-1.15-1C161.67,85.72,162.72,86.53,163.47,85.67Z"/><path class="cls-6" d="M149.18,91.35c4.18-9.07,8.62-17.77,24.55-10.18"/><path class="cls-4" d="M142.58,129.78a26,26,0,0,0,3.61,2.56,5.17,5.17,0,0,0,5,.42c2.55-1.35,3.53-4.69,3.84-7.35a17.56,17.56,0,0,0-.24-5.74c-2.06-.13-3.7-1.48-5.07-3.55-.14-.21-2.57.55-2.87.63a24.35,24.35,0,0,0-2.72,1,14.15,14.15,0,0,0-4.26,2.66,5.25,5.25,0,0,0-1.79,3.4c-.09,1.82,1.11,3.19,2.4,4.28C141.19,128.61,141.88,129.2,142.58,129.78Z"/><path class="cls-4" d="M162.27,101.71a26.19,26.19,0,0,1,3.64,2.53,5.14,5.14,0,0,1,2.1,4.59c-.4,2.86-3.21,4.92-5.6,6.12a17.53,17.53,0,0,1-5.47,1.72c-.84-1.89-2.65-3-5.08-3.56-.24,0-.35-2.6-.37-2.91a21.3,21.3,0,0,1,0-2.88,13.76,13.76,0,0,1,1-4.91,5.25,5.25,0,0,1,2.58-2.84c1.68-.7,3.38,0,4.85.8C160.7,100.81,161.49,101.25,162.27,101.71Z"/><path class="cls-4" d="M149.76,116.12a2.32,2.32,0,0,1,2.1-3"/><path class="cls-4" d="M154.88,119.71a2.32,2.32,0,0,0,2.11-3"/><path class="cls-4" d="M147.8,123.24c1.22-2.22,2.56-4,4.3-4.58"/><path class="cls-4" d="M158.11,109c-1.67,1.9-2.92,3.78-2.84,5.6"/><path class="cls-5" d="M166.94,141.43c-.38.45-2.2-.81-2.2-.81s0,2.21-.58,2.27-1-2.12-1-2.12-1.56,1.56-2,1.19.8-2.2.8-2.2-2.21,0-2.26-.57,2.12-1,2.12-1-1.57-1.56-1.19-2,2.19.81,2.19.81,0-2.21.58-2.27,1,2.12,1,2.12,1.56-1.56,2-1.19-.8,2.2-.8,2.2,2.21,0,2.26.57-2.12,1-2.12,1S167.31,141,166.94,141.43Z"/><rect class="cls-1" x="136.21" y="4.39" width="31.06" height="5.99" rx="2.06"/><polygon class="cls-1" points="117.42 120.53 114.62 120.53 113.22 122.95 114.62 125.38 117.42 125.38 118.82 122.95 117.42 120.53"/><polygon class="cls-1" points="126.45 128.43 122.45 128.43 120.45 131.9 122.45 135.36 126.45 135.36 128.46 131.9 126.45 128.43"/><polygon class="cls-1" points="140.99 135.36 135.25 135.36 132.38 140.33 135.25 145.31 140.99 145.31 143.86 140.33 140.99 135.36"/><path class="cls-1" d="M208.65,24.55c-1.28-14.73,14.13-14.15,8.21,1.36,5.63-3.28,11.91,3.71,1.54,13.9,6.66-2.25,8.72,5-.71,14,10.07-1.68,8.52,10.71-8.36,12.26"/><path class="cls-1" d="M208.57,24.53c-4.27-4.92-12.47-.33-5.94,12.66-5.58-4.27-9.88,2-3.85,13.5-9-4.84-11.31,8.46,6.24,15.1"/><path class="cls-1" d="M210.33,36.41c-2.81,14-7.54,39-5.76,41.35"/><path class="cls-1" d="M194.12,136c6.15-24.67-12.82-22.93-17.61-29.51,2.91,8-11.35,23.18,16.11,33"/><path class="cls-1" d="M182.3,120.72c.26,4.86,9,18.62,16.29,24.59"/><path class="cls-1" d="M243.86,82.76c-3.5-4-7-7.76-10.65-7.92a7.39,7.39,0,0,0-3.12,1.06A7.31,7.31,0,0,0,227,74.84c-3.65.16-7.15,3.89-10.65,7.92C218.93,95,242.51,93,243.86,82.76Z"/><path class="cls-1" d="M216.33,82.76a209,209,0,0,1,27.53,0"/><path class="cls-1" d="M202.36,4.12H177.91V70C181,39.38,184.88,17.07,202.36,4.12Z"/><path class="cls-1" d="M190.62,76.93a1.51,1.51,0,0,0,1.7,1.25,1.84,1.84,0,0,0,1.53-2.12,2.36,2.36,0,0,0-2.67-2,2.85,2.85,0,0,0-2.38,3.31,3.68,3.68,0,0,0,4.17,3,4.46,4.46,0,0,0,3.72-5.17,5.77,5.77,0,0,0-6.52-4.75,7,7,0,0,0-5.81,8.08c1,6.15,7.12,7.48,12.4,7.25,6.36-.27,12.64,1,13.87,8.27.91,5.33-.81,11.09-2.89,15.91"/><path class="cls-2" d="M198.2,104c-.55.66-3.23-1.19-3.23-1.19s0,3.26-.84,3.33-1.45-3.11-1.45-3.11-2.29,2.3-3,1.75,1.18-3.23,1.18-3.23-3.25,0-3.33-.85,3.12-1.44,3.12-1.44-2.31-2.29-1.76-3,3.23,1.18,3.23,1.18,0-3.25.85-3.33,1.44,3.12,1.44,3.12,2.3-2.31,3-1.76-1.19,3.23-1.19,3.23,3.26,0,3.33.85-3.11,1.44-3.11,1.44S198.75,103.38,198.2,104Z"/><path class="cls-3" d="M218.71,4,216.48,6.5a.25.25,0,0,1-.35,0,.24.24,0,0,1,0-.35h0l2.37-2.41a.16.16,0,0,1,.22,0A.15.15,0,0,1,218.71,4Z"/><path class="cls-3" d="M220.67,3.54l2.53,2.23a.24.24,0,0,1,0,.35.26.26,0,0,1-.36,0h0l-2.4-2.37a.16.16,0,0,1,0-.22A.15.15,0,0,1,220.67,3.54Z"/><path class="cls-3" d="M219.74,4.16l.1,3.37a.26.26,0,0,1-.25.26.25.25,0,0,1-.25-.25h0l.09-3.37a.16.16,0,0,1,.16-.15A.15.15,0,0,1,219.74,4.16Z"/><path class="cls-4" d="M246.5,52.62c.05,1.68.22,3.52,1.09,3.28a3.07,3.07,0,0,0-.58-5.41l-.51.79"/><path class="cls-4" d="M251.34,51.64c-4.33-1.15-3-8.22,1-5.84C255.47,47.29,255.69,53.21,251.34,51.64Z"/><path class="cls-4" d="M247.24,59.76c-.48,2.78,2,2.87,1.38,0"/><path class="cls-4" d="M249.67,59.56c-.48,2.77,2,2.87,1.38,0"/><path class="cls-4" d="M246.5,52.57c-.05,1.68-.21,3.52-1.08,3.29a3.07,3.07,0,0,1,.58-5.42l.5.79"/><path class="cls-4" d="M247.45,69.38a4.13,4.13,0,0,0,2.33-.27,9.61,9.61,0,0,0,2.76-2.43,15,15,0,0,0,1.48-3.1,20.22,20.22,0,0,0,.66-2l1.16-3.71,0-.17a2.34,2.34,0,0,0-1.85.5c-.54,1.26-1,2.53-1.46,3.83-.21.71-.31,1.44-.56,2.14a5.72,5.72,0,0,1-1.12,1.8,3.36,3.36,0,0,1-3.45,1.19l-1.89-.05a3.37,3.37,0,0,1-3.46-1.19,5.91,5.91,0,0,1-1.12-1.8c-.24-.7-.34-1.43-.56-2.14A38.56,38.56,0,0,0,239,58.11a2.34,2.34,0,0,0-1.85-.5l0,.17,1.15,3.71c.21.68.39,1.39.66,2a15.54,15.54,0,0,0,1.49,3.1,9.48,9.48,0,0,0,2.76,2.43,4.12,4.12,0,0,0,2.33.27Z"/><path class="cls-4" d="M241.66,51.59c4.34-1.15,3-8.22-1-5.84C237.53,47.24,237.31,53.16,241.66,51.59Z"/><path class="cls-4" d="M244.73,59.55l3.55,0a8.17,8.17,0,0,0,4.16-.81c-1-3.84,5.06-1.13,5.8-5.76-2.94-.42-2.22-4.33-2.39-7.42,1.87.8.55,5.82,2,5.82,2.72-11.33,0-17.79-9.88-17.78l-3,0c-9.9,0-12.61,6.45-9.88,17.78,1.47,0,.14-5,2-5.82-.16,3.09.56,7-2.39,7.42.74,4.63,6.8,1.92,5.81,5.76a8.13,8.13,0,0,0,4.16.81"/><path class="cls-4" d="M243.5,59.56c.48,2.77-2,2.87-1.38,0"/><path class="cls-4" d="M244.81,59.64c-.48,2.78,2,2.87,1.38,0"/><path class="cls-4" d="M247.45,67c-.49-2.83,2-2.93,1.4,0"/><path class="cls-4" d="M244.8,67c-.49-2.83,2-2.93,1.4,0"/><path class="cls-4" d="M241.83,65.55c1-2.67,3.08-1.06,1.11,1"/><path class="cls-4" d="M251.55,65c-1.3-2.54-3.18-.7-1,1.09"/><path class="cls-1" d="M241.23,20.1c-.6,2.38-6.84,6.89-6.84,6.89s-3.39-6.92-2.79-9.3,4.49-.24,4.34,3.1C237.72,17.84,241.83,17.73,241.23,20.1Z"/><path class="cls-3" d="M222.54,106.44l-3.14-2.79a.26.26,0,0,1,0-.36.25.25,0,0,1,.35,0h0l3,2.94a.17.17,0,0,1,0,.22A.16.16,0,0,1,222.54,106.44Z"/><path class="cls-3" d="M225.2,106.33l2.8-3.14a.24.24,0,0,1,.35,0,.23.23,0,0,1,0,.35h0l-2.94,3a.16.16,0,0,1-.22,0A.15.15,0,0,1,225.2,106.33Z"/><path class="cls-3" d="M223,109.18l-2.8,3.14a.24.24,0,0,1-.35,0,.26.26,0,0,1,0-.36h0l2.94-3a.16.16,0,0,1,.22,0A.15.15,0,0,1,223,109.18Z"/><path class="cls-3" d="M225.42,108.7l3.14,2.8a.25.25,0,0,1,0,.35.24.24,0,0,1-.35,0h0l-3-2.94a.15.15,0,0,1,0-.22A.17.17,0,0,1,225.42,108.7Z"/><path class="cls-3" d="M223.93,105.7l-.09-4.2a.24.24,0,0,1,.24-.26.26.26,0,0,1,.26.25h0l-.1,4.2a.14.14,0,0,1-.16.15A.15.15,0,0,1,223.93,105.7Z"/><path class="cls-3" d="M224.24,109.45l.1,4.21a.25.25,0,0,1-.25.25.24.24,0,0,1-.25-.24h0l.09-4.21a.16.16,0,0,1,.16-.15A.15.15,0,0,1,224.24,109.45Z"/><path class="cls-4" d="M218.1,146.08c29.79-10.76,48.84-32.66,54.84-68.07"/><path class="cls-4" d="M228.68,141.69A18.46,18.46,0,0,0,234.17,129"/><path class="cls-4" d="M233.52,132c-9-1.83.5-6.38-1.52-10.35a9.76,9.76,0,0,1,6.06,4.38"/><path class="cls-4" d="M234.11,122.45a22.49,22.49,0,0,1,3.79-.52c-2.28,3.22,5.25,8.53-1.79,9.87"/><path class="cls-4" d="M246.72,129.43a18.37,18.37,0,0,0,2-13.64"/><path class="cls-4" d="M248.87,118.83c-9.12.56-1.17-6.3-4.16-9.6a9.75,9.75,0,0,1,7,2.65"/><path class="cls-4" d="M247,109.44a23.1,23.1,0,0,1,3.53-1.49c-1.36,3.7,7.29,6.87.84,10"/><path class="cls-4" d="M260.2,113.46a18.36,18.36,0,0,0-.81-13.76"/><path class="cls-4" d="M260.16,102.65c-8.82,2.39-2.43-5.93-6-8.56a9.73,9.73,0,0,1,7.38,1.18"/><path class="cls-4" d="M256.37,93.85a22,22,0,0,1,3.16-2.18c-.59,3.9,8.52,5.25,2.85,9.62"/><path class="cls-4" d="M268.67,95.35A18.41,18.41,0,0,0,265.44,82"/><path class="cls-4" d="M266.71,84.72c-8.25,3.91-3.44-5.41-7.44-7.36a9.72,9.72,0,0,1,7.48-.14"/><path class="cls-4" d="M261.43,76.72A21.65,21.65,0,0,1,264.15,74c.11,3.94,9.32,3.65,4.51,9"/><path class="cls-1" d="M270.24,36.46c-4.35.14-9.09-2.61-11.54-7.83l2.38.25s-2.92-4.3-2.9-6.62l1.83,1c-1.58-3.77-.91-9-.91-9l2,1.31a8.78,8.78,0,0,1,.05-5.78l1.6.79a18,18,0,0,1,.1-5.05c.44.08,3.23,4.15,3.23,4.15l.8-1.71a15,15,0,0,1,3.47,4.83l.62-2.46c2.88,3,4.42,8,4.42,8l1-1.93c1,1.62,1.32,7.23,1.32,7.23l1.8-1.63c.72,8-2.37,12.47-6.48,13.91"/><path class="cls-1" d="M267.67,20.84s8.74,22.32,9.1,32.41"/><path class="cls-1" d="M292.86,92.79S274.56,86,285,65.89c8.37,6.36,15.23,13.16,10,23.43"/><line class="cls-1" x1="288.5" y1="78.53" x2="297.01" y2="105.68"/><path class="cls-1" d="M307.3,88.63s19.46,1.69,18.6-20.94c-10.28,2.16-19.4,5.35-19.06,16.89"/><line class="cls-1" x1="317.36" y1="77.62" x2="298.02" y2="98.49"/><path class="cls-1" d="M312.25,63.82s13.84,2.74,15-13.57c-7.21.71-13.73,2.17-14.89,9.53"/><line class="cls-1" x1="320.34" y1="56.71" x2="304.82" y2="70.17"/><path class="cls-1" d="M304.49,52.94s-12.76-6-4-19.84c5.28,4.78,9.6,9.74,6.48,16.17"/><line class="cls-1" x1="302.21" y1="42.41" x2="306.7" y2="62.47"/><path class="cls-1" d="M315.94,38.57S298,79.15,296.69,111.65"/><path class="cls-1" d="M312.94,44.18s-4.74-9.59,6.68-13.33c.75,4.23,1.07,8.24-1.29,10.8"/><path class="cls-1" d="M315,103.37a1.24,1.24,0,0,0,1.4,1.07,1.56,1.56,0,0,0,1.34-1.75,2,2,0,0,0-2.19-1.67,2.44,2.44,0,0,0-2.09,2.74,3.05,3.05,0,0,0,3.42,2.61,3.81,3.81,0,0,0,3.26-4.28A4.75,4.75,0,0,0,314.81,98c-4.13.55-5.09,4.62-5,8.17.1,4.28-.84,8.46-5.7,9.13"/><path class="cls-5" d="M292,55.08c-.37.45-2.2-.8-2.2-.8s0,2.21-.57,2.26-1-2.12-1-2.12-1.56,1.57-2,1.19.81-2.19.81-2.19-2.21,0-2.27-.58,2.12-1,2.12-1-1.56-1.56-1.19-2,2.2.8,2.2.8,0-2.21.57-2.26,1,2.12,1,2.12,1.56-1.57,2-1.2-.81,2.2-.81,2.2,2.21,0,2.27.58-2.12,1-2.12,1S292.35,54.63,292,55.08Z"/><circle class="cls-1" cx="293.18" cy="20.02" r="6.82"/><circle class="cls-1" cx="293.18" cy="20.02" r="3.34"/><path class="cls-1" d="M335.9,35.89a1.63,1.63,0,0,0-1.71-1.52,2,2,0,0,0-1.87,2.12A2.56,2.56,0,0,0,335,38.87a3.09,3.09,0,0,0,2.91-3.32,4,4,0,0,0-4.18-3.71A4.83,4.83,0,0,0,329.18,37a6.24,6.24,0,0,0,6.53,5.81c4.22-.23,7.64-4.41,8-9C345.37,20,319.9,14.08,308.08,23.31"/><circle class="cls-7" cx="28.54" cy="119.42" r="1.29"/><circle class="cls-7" cx="29.07" cy="137.79" r="1.29"/><circle class="cls-7" cx="27.78" cy="128.6" r="1.29"/><circle class="cls-7" cx="108.42" cy="113.66" r="1.4"/><circle class="cls-7" cx="104.91" cy="106.7" r="1.4"/><circle class="cls-7" cx="103.17" cy="99.74" r="1.4"/><circle class="cls-7" cx="107.09" cy="6.98" r="1.4"/><circle class="cls-7" cx="126.32" cy="11.41" r="1.4"/><circle class="cls-7" cx="117.56" cy="6.49" r="1.4"/><circle class="cls-7" cx="96.04" cy="71.42" r="0.73"/><circle class="cls-7" cx="208.54" cy="119.42" r="1.29"/><circle class="cls-7" cx="209.07" cy="137.79" r="1.29"/><circle class="cls-7" cx="207.78" cy="128.6" r="1.29"/><circle class="cls-7" cx="288.42" cy="113.66" r="1.4"/><circle class="cls-7" cx="284.91" cy="106.7" r="1.4"/><circle class="cls-7" cx="283.17" cy="99.74" r="1.4"/><circle class="cls-7" cx="287.09" cy="6.98" r="1.4"/><circle class="cls-7" cx="306.32" cy="11.41" r="1.4"/><circle class="cls-7" cx="297.56" cy="6.49" r="1.4"/><circle class="cls-7" cx="276.04" cy="71.42" r="0.73"/><path class="cls-3" d="M231.82,4l-2.23,2.53a.25.25,0,0,1-.36,0,.25.25,0,0,1,0-.35h0l2.37-2.4a.16.16,0,0,1,.22,0A.15.15,0,0,1,231.82,4Z"/><path class="cls-3" d="M233.78,3.53l2.53,2.23a.25.25,0,0,1,0,.35.24.24,0,0,1-.35,0h0l-2.4-2.37a.16.16,0,0,1,0-.22A.15.15,0,0,1,233.78,3.53Z"/><path class="cls-3" d="M232.85,4.15l.09,3.37a.24.24,0,0,1-.24.26.25.25,0,0,1-.26-.24v0l.1-3.37A.16.16,0,0,1,232.7,4,.16.16,0,0,1,232.85,4.15Z"/><path class="cls-3" d="M244.74,4l-2.23,2.53a.23.23,0,0,1-.35,0,.25.25,0,0,1,0-.35h0l2.37-2.4a.15.15,0,0,1,.22.21Z"/><path class="cls-3" d="M246.71,3.53l2.53,2.23a.25.25,0,0,1,0,.35.24.24,0,0,1-.35,0h0l-2.4-2.37a.16.16,0,0,1,0-.22A.17.17,0,0,1,246.71,3.53Z"/><path class="cls-3" d="M245.77,4.15l.1,3.37a.25.25,0,0,1-.24.26.24.24,0,0,1-.26-.24v0l.1-3.37a.16.16,0,0,1,.16-.15A.15.15,0,0,1,245.77,4.15Z"/><path class="cls-4" d="M241.29,145.48c18.2-8.85,29.93-22,33.07-40.88.18-1,8.47,37.74,24.38,40.88Z"/><path class="cls-1" d="M274.49,69.54c-18.36-16.66-.68-24.67,0,0"/><path class="cls-1" d="M344.92,49.44c2.24,2.68,2.19,13.64,2.19,13.64s-10.79-1.89-13-4.57,3.48-5.37,7.2-2.4C339.39,51.59,342.68,46.77,344.92,49.44Z"/><path class="cls-6" d="M352.41,84.07C344,79,334.5,83.2,330.36,92.56,340.05,93.62,349.87,94.37,352.41,84.07Z"/><path class="cls-6" d="M338,83.75c-3.83,11.7,15.65,7.52,6.52-1.79"/><path class="cls-6" d="M343.47,85.67a1.59,1.59,0,1,1-1.15-1C341.67,85.72,342.72,86.53,343.47,85.67Z"/><path class="cls-6" d="M329.18,91.35c4.18-9.07,8.62-17.77,24.55-10.18"/><path class="cls-4" d="M322.58,129.78a26,26,0,0,0,3.61,2.56,5.17,5.17,0,0,0,5,.42c2.55-1.35,3.53-4.69,3.84-7.35a17.56,17.56,0,0,0-.24-5.74c-2.06-.13-3.7-1.48-5.07-3.55-.14-.21-2.57.55-2.87.63a24.35,24.35,0,0,0-2.72,1,14.15,14.15,0,0,0-4.26,2.66,5.25,5.25,0,0,0-1.79,3.4c-.09,1.82,1.11,3.19,2.4,4.28C321.19,128.61,321.88,129.2,322.58,129.78Z"/><path class="cls-4" d="M342.27,101.71a26.19,26.19,0,0,1,3.64,2.53,5.14,5.14,0,0,1,2.1,4.59c-.4,2.86-3.21,4.92-5.6,6.12a17.53,17.53,0,0,1-5.47,1.72c-.84-1.89-2.65-3-5.08-3.56-.24,0-.35-2.6-.37-2.91a21.3,21.3,0,0,1,0-2.88,13.76,13.76,0,0,1,1.05-4.91,5.25,5.25,0,0,1,2.58-2.84c1.68-.7,3.38,0,4.85.8C340.7,100.81,341.49,101.25,342.27,101.71Z"/><path class="cls-4" d="M329.76,116.12a2.32,2.32,0,0,1,2.1-3"/><path class="cls-4" d="M334.88,119.71a2.32,2.32,0,0,0,2.11-3"/><path class="cls-4" d="M327.8,123.24c1.22-2.22,2.56-4,4.3-4.58"/><path class="cls-4" d="M338.11,109c-1.67,1.9-2.92,3.78-2.84,5.6"/><path class="cls-5" d="M346.94,141.43c-.38.45-2.2-.81-2.2-.81s0,2.21-.58,2.27-1-2.12-1-2.12-1.56,1.56-2,1.19.8-2.2.8-2.2-2.21,0-2.26-.57,2.12-1,2.12-1-1.57-1.56-1.19-2,2.19.81,2.19.81,0-2.21.58-2.27,1,2.12,1,2.12,1.56-1.56,2-1.19-.8,2.2-.8,2.2,2.21,0,2.26.57-2.12,1-2.12,1S347.31,141,346.94,141.43Z"/><rect class="cls-1" x="316.21" y="4.39" width="31.06" height="5.99" rx="2.06"/><polygon class="cls-1" points="297.42 120.53 294.62 120.53 293.22 122.95 294.62 125.38 297.42 125.38 298.82 122.95 297.42 120.53"/><polygon class="cls-1" points="306.45 128.43 302.45 128.43 300.45 131.9 302.45 135.36 306.45 135.36 308.45 131.9 306.45 128.43"/><polygon class="cls-1" points="320.99 135.36 315.25 135.36 312.38 140.33 315.25 145.31 320.99 145.31 323.86 140.33 320.99 135.36"/></svg>