<?xml version="1.0" encoding="utf-8"?>
<!-- Generator: Adobe Illustrator 24.0.3, SVG Export Plug-In . SVG Version: 6.00 Build 0)  -->
<svg version="1.1" id="Layer_1" xmlns="http://www.w3.org/2000/svg" xmlns:xlink="http://www.w3.org/1999/xlink" x="0px" y="0px"
	 viewBox="0 0 350 150" style="enable-background:new 0 0 350 150;" xml:space="preserve">
<style type="text/css">
	.st0{fill:#8264FF;}
</style>
<title>bg</title>
<g>
	<path class="st0" d="M29.33,66.44c-0.19,0-0.35-0.15-0.37-0.34c-0.02-0.21,0.13-0.39,0.34-0.41c8.38-0.77,12.74-4.24,13.92-6.98
		c0.56-1.29,0.49-2.47-0.19-3.34c-0.91-1.17-2.83-1.6-5.27-1.19c-0.16,0.02-0.32-0.06-0.4-0.2c-0.07-0.15-0.04-0.33,0.08-0.44
		c5.83-5.56,7.1-10.37,5.82-12.49c-0.79-1.31-2.52-1.63-4.73-0.88c-0.16,0.06-0.35-0.01-0.44-0.16s-0.07-0.34,0.06-0.46
		c6-5.89,6.21-10.49,4.58-12.63c-1.24-1.62-3.57-1.9-5.67-0.68c-0.14,0.08-0.31,0.06-0.43-0.04c-0.12-0.1-0.16-0.27-0.11-0.42
		c1.86-4.88,1.78-8.89-0.22-10.71c-1-0.91-2.37-1.07-3.67-0.43c-2.07,1.02-4.1,4.15-3.6,9.87c0.02,0.21-0.13,0.39-0.34,0.41
		c-0.2,0.02-0.39-0.14-0.41-0.34c-0.53-6.1,1.73-9.48,4.01-10.61c1.58-0.78,3.27-0.58,4.5,0.54c2.11,1.92,2.37,5.86,0.74,10.65
		c2.19-0.89,4.48-0.41,5.78,1.29c1.73,2.26,1.7,6.87-3.71,12.66c1.94-0.32,3.5,0.22,4.3,1.54c1.41,2.34,0.32,7.1-5.16,12.65
		c2.22-0.16,3.93,0.39,4.88,1.61c0.84,1.08,0.95,2.57,0.29,4.1c-1.33,3.07-5.84,6.64-14.54,7.43
		C29.35,66.44,29.34,66.44,29.33,66.44z"/>
	<path class="st0" d="M25.02,66.17c-0.04,0-0.09-0.01-0.13-0.02c-9.17-3.47-12.9-8.62-13.33-12.28c-0.21-1.73,0.34-3.17,1.49-3.96
		c1.21-0.82,2.96-0.82,4.9-0.02c-3.41-7-2.9-11.87-0.79-13.64c1.19-1,2.84-1.02,4.56-0.09c-3.26-7.23-1.8-11.6,0.57-13.18
		c2.02-1.35,4.72-0.81,6.57,1.32c0.14,0.16,0.12,0.39-0.04,0.53c-0.16,0.14-0.39,0.12-0.53-0.04c-1.59-1.83-3.89-2.32-5.58-1.18
		c-2.24,1.5-3.52,5.92,0.26,13.43c0.08,0.16,0.04,0.35-0.1,0.46c-0.14,0.11-0.33,0.11-0.47,0.01c-1.85-1.42-3.59-1.66-4.76-0.67
		c-1.91,1.61-2.26,6.58,1.47,13.7c0.08,0.15,0.05,0.32-0.07,0.44c-0.12,0.12-0.3,0.14-0.44,0.06c-2.08-1.12-3.95-1.3-5.13-0.5
		c-0.92,0.62-1.34,1.81-1.17,3.25c0.39,3.29,3.99,8.31,12.85,11.67c0.19,0.07,0.29,0.29,0.22,0.48
		C25.31,66.07,25.17,66.17,25.02,66.17z"/>
	<path class="st0" d="M24.57,78.13c-0.11,0-0.23-0.05-0.3-0.15c-1.4-1.85,0.52-15.86,5.69-41.65C30,36.13,30.2,36,30.4,36.04
		c0.2,0.04,0.33,0.24,0.29,0.44c-6.98,34.78-6.4,40.29-5.83,41.05c0.12,0.17,0.09,0.4-0.07,0.53
		C24.73,78.11,24.65,78.13,24.57,78.13z"/>
	<path class="st0" d="M12.62,139.83c-0.04,0-0.08-0.01-0.13-0.02c-20.08-7.18-18.18-17.23-16.65-25.3c0.59-3.1,1.09-5.79,0.32-7.93
		c-0.06-0.17,0.01-0.37,0.18-0.46c0.17-0.08,0.37-0.04,0.48,0.11c1.29,1.76,3.77,2.96,6.39,4.22c7.03,3.38,15.77,7.59,11.28,25.63
		c-0.05,0.2-0.25,0.32-0.45,0.27c-0.2-0.05-0.32-0.25-0.27-0.46c4.35-17.46-4.09-21.52-10.88-24.78c-2.15-1.04-4.21-2.02-5.67-3.35
		c0.28,2.04-0.17,4.4-0.63,6.87c-1.47,7.79-3.31,17.49,16.17,24.45c0.19,0.07,0.3,0.29,0.23,0.48
		C12.92,139.74,12.77,139.83,12.62,139.83z"/>
	<path class="st0" d="M18.59,145.68c-0.08,0-0.17-0.03-0.24-0.08c-7.47-6.12-16.17-20.04-16.43-24.86
		c-0.01-0.21,0.15-0.38,0.35-0.39c0.2-0.03,0.38,0.15,0.39,0.35c0.25,4.69,8.8,18.3,16.15,24.32c0.16,0.13,0.18,0.37,0.05,0.53
		C18.81,145.64,18.7,145.68,18.59,145.68z"/>
	<path class="st0" d="M49.75,91.58c-5.68,0-12.4-2.26-13.77-8.74c-0.02-0.11,0.01-0.23,0.08-0.32c3.6-4.15,7.15-7.88,10.92-8.05
		c1.12,0.11,2.18,0.46,3.11,1c0.94-0.54,2-0.88,3.08-1c3.78,0.16,7.2,3.74,10.97,8.05c0.07,0.08,0.1,0.19,0.09,0.3
		c-0.75,5.69-7.61,8.52-13.67,8.76C50.29,91.58,50.02,91.58,49.75,91.58z M36.76,82.86c1.43,6.2,8.28,8.17,13.78,7.95
		c5.87-0.22,12.15-3.02,12.93-7.94c-3.61-4.12-6.88-7.51-10.27-7.66c-0.99,0.11-2.01,0.45-2.91,1c-0.12,0.07-0.27,0.07-0.39,0
		c-0.88-0.55-1.9-0.9-2.93-1.01C43.59,75.36,40.21,78.9,36.76,82.86z"/>
	<path class="st0" d="M63.86,83.13c-0.01,0-0.02,0-0.03,0c-9.12-0.6-18.36-0.6-27.48,0c-0.21,0.02-0.39-0.14-0.4-0.35
		c-0.01-0.21,0.14-0.38,0.35-0.4c9.15-0.6,18.43-0.6,27.58,0c0.21,0.01,0.36,0.19,0.35,0.4C64.22,82.98,64.06,83.13,63.86,83.13z"/>
	<path class="st0" d="M-2.09,70.38c-0.01,0-0.01,0-0.02,0c-0.2-0.01-0.36-0.17-0.36-0.37V4.12c0-0.21,0.17-0.38,0.38-0.38h24.45
		c0.16,0,0.31,0.1,0.36,0.26c0.05,0.15,0,0.32-0.13,0.42C4.88,17.53,1.23,40.88-1.72,70.04C-1.74,70.23-1.9,70.38-2.09,70.38z
		 M-1.71,4.5v58.39C1.14,37.32,5.49,16.79,21.25,4.5H-1.71z"/>
	<path class="st0" d="M27.74,110.38c-0.05,0-0.1-0.01-0.15-0.03c-0.19-0.08-0.28-0.3-0.2-0.49c2.67-6.2,3.61-11.33,2.86-15.7
		c-0.98-5.78-5.27-8.31-13.48-7.96c-4.29,0.17-11.65-0.55-12.79-7.56c-0.32-2.02,0.15-3.97,1.31-5.56c1.16-1.59,2.87-2.64,4.81-2.95
		c3.29-0.48,6.4,1.79,6.95,5.06c0,0,0.02,0.09,0.02,0.09c0.2,1.28-0.12,2.55-0.88,3.59s-1.89,1.72-3.17,1.92
		c-2.19,0.33-4.21-1.12-4.6-3.31l-0.02-0.14c-0.13-0.85,0.09-1.7,0.6-2.39s1.27-1.14,2.12-1.27c1.5-0.22,2.88,0.83,3.1,2.32
		c0.09,0.6-0.05,1.18-0.4,1.66c-0.35,0.48-0.86,0.79-1.45,0.88c-1.04,0.15-1.96-0.54-2.13-1.56c-0.03-0.2,0.1-0.4,0.31-0.43
		c0.2-0.03,0.4,0.1,0.43,0.31c0.1,0.61,0.67,1.02,1.28,0.94c0.38-0.06,0.72-0.27,0.95-0.58c0.23-0.32,0.32-0.7,0.26-1.09
		c-0.16-1.1-1.17-1.86-2.25-1.7c-0.65,0.1-1.23,0.44-1.62,0.97c-0.39,0.53-0.56,1.18-0.46,1.84l0.02,0.11
		c0.31,1.78,1.96,2.97,3.75,2.7c1.08-0.16,2.03-0.74,2.67-1.62c0.65-0.88,0.91-1.96,0.75-3.04c-0.5-2.95-3.24-4.94-6.11-4.52
		c-1.74,0.28-3.28,1.22-4.32,2.65c-1.04,1.43-1.46,3.18-1.19,4.93c1.06,6.51,7.98,7.18,12.02,7.01C25.3,85.1,29.96,87.9,31,94.04
		c0.77,4.51-0.18,9.79-2.92,16.12C28.02,110.3,27.89,110.38,27.74,110.38z"/>
	<path class="st0" d="M14.1,106.52c-0.83,0-1.35-1.5-1.65-2.75c-0.96,0.89-2.29,1.87-2.96,1.3c-0.68-0.56,0.04-2.04,0.73-3.16
		c-1.31-0.06-2.94-0.3-3.02-1.18c-0.08-0.88,1.46-1.39,2.75-1.67c-0.82-0.89-1.87-2.27-1.31-2.99c0.57-0.74,2.13,0.06,3.17,0.72
		c0.06-1.31,0.3-2.93,1.18-3.01c0.86-0.09,1.41,1.47,1.71,2.75c0.89-0.82,2.29-1.88,3-1.31c0.73,0.57-0.07,2.13-0.73,3.17
		c1.31,0.06,2.94,0.3,3.01,1.18c0.07,0.88-1.48,1.41-2.76,1.7c0.87,0.99,1.83,2.33,1.27,2.98c-0.57,0.67-2.04-0.05-3.15-0.75
		c-0.06,1.32-0.3,2.94-1.17,3.02C14.14,106.51,14.12,106.52,14.1,106.52z M12.91,102.26l0.13,0.7c0.27,1.38,0.77,2.72,1.06,2.81
		c0.24-0.14,0.48-1.55,0.48-2.96v-0.71l0.59,0.41c1.14,0.79,2.45,1.38,2.73,1.26c0.06-0.31-0.73-1.47-1.69-2.47l-0.48-0.5l0.68-0.13
		c1.37-0.25,2.73-0.76,2.81-1.05c-0.13-0.25-1.54-0.5-2.96-0.5h-0.72l0.42-0.59c0.89-1.26,1.41-2.5,1.26-2.72
		c-0.23-0.12-1.4,0.63-2.5,1.73l-0.5,0.51l-0.13-0.7c-0.26-1.39-0.76-2.73-1.05-2.81c-0.25,0.13-0.5,1.54-0.5,2.96v0.72l-0.59-0.42
		c-1.26-0.89-2.5-1.4-2.72-1.25c-0.13,0.22,0.61,1.39,1.73,2.5l0.52,0.51l-0.72,0.12c-1.39,0.24-2.73,0.72-2.81,1.01
		c0.13,0.25,1.54,0.5,2.96,0.5h0.71l-0.4,0.59c-0.79,1.15-1.39,2.48-1.24,2.74c0.27,0.08,1.46-0.75,2.44-1.73L12.91,102.26z
		 M17.92,103.75L17.92,103.75C17.92,103.75,17.92,103.75,17.92,103.75C17.92,103.75,17.92,103.75,17.92,103.75L17.92,103.75z"/>
	<path class="st0" d="M38.71,4l-2.23,2.5c-0.1,0.1-0.25,0.1-0.35,0c-0.1-0.09-0.1-0.24-0.01-0.34c0,0,0.01-0.01,0.01-0.01l0,0
		l2.37-2.41c0.06-0.06,0.16-0.06,0.22,0c0.07,0.04,0.09,0.14,0.05,0.21C38.75,3.97,38.73,3.99,38.71,4z"/>
	<path class="st0" d="M40.67,3.54l2.53,2.23c0.1,0.09,0.1,0.24,0.01,0.34c0,0-0.01,0.01-0.01,0.01c-0.1,0.1-0.26,0.1-0.36,0l0,0
		l-2.4-2.37c-0.06-0.06-0.06-0.16,0-0.22c0.06-0.06,0.15-0.07,0.21-0.01C40.66,3.53,40.66,3.53,40.67,3.54z"/>
	<path class="st0" d="M39.74,4.16l0.1,3.37c0,0.14-0.11,0.25-0.25,0.26c-0.14,0-0.25-0.11-0.25-0.25l0,0l0.09-3.37
		C39.42,4.08,39.49,4.01,39.58,4c0,0,0.01,0,0.01,0c0.08,0,0.15,0.07,0.15,0.15C39.74,4.15,39.74,4.16,39.74,4.16z"/>
	<path class="st0" d="M67.44,56.3c-0.18,0-0.36-0.06-0.51-0.18c-0.2-0.15-0.8-0.61-0.8-3.5c0-0.21,0.17-0.38,0.38-0.38
		s0.38,0.17,0.38,0.38c0,1.86,0.27,2.73,0.51,2.9c0.02,0.01,0.03,0.02,0.06,0.02h0c0.56-0.4,0.95-0.99,1.08-1.67
		c0.14-0.71,0-1.42-0.4-2.02c-0.25-0.38-0.59-0.68-0.98-0.88l-0.33,0.52c-0.11,0.17-0.34,0.22-0.52,0.11
		c-0.17-0.11-0.22-0.34-0.11-0.52l0.51-0.79c0.1-0.15,0.29-0.21,0.45-0.15c0.66,0.26,1.21,0.7,1.61,1.29
		c0.51,0.76,0.7,1.68,0.52,2.58c-0.18,0.9-0.7,1.68-1.46,2.19c-0.03,0.02-0.07,0.04-0.11,0.05C67.6,56.28,67.52,56.3,67.44,56.3z"/>
	<path class="st0" d="M72.66,52.27c-0.44,0-0.92-0.09-1.43-0.27c-1.53-0.41-2.61-1.6-2.88-3.18c-0.25-1.43,0.23-2.84,1.18-3.49
		c0.48-0.33,1.5-0.75,3.01,0.15c2.08,0.99,2.95,3.78,2.26,5.42C74.42,51.8,73.66,52.27,72.66,52.27z M70.8,45.69
		c-0.31,0-0.6,0.09-0.85,0.26c-0.71,0.49-1.06,1.62-0.87,2.75c0.11,0.62,0.55,2.1,2.35,2.58c0.01,0,0.02,0.01,0.03,0.01
		c1.32,0.48,2.25,0.24,2.63-0.67c0.56-1.34-0.22-3.66-1.92-4.48C71.67,45.84,71.21,45.69,70.8,45.69z"/>
	<path class="st0" d="M67.99,62.25c-0.17,0-0.34-0.05-0.5-0.15c-0.45-0.29-0.86-1.07-0.62-2.41c0.04-0.2,0.23-0.34,0.43-0.31
		c0.2,0.04,0.34,0.23,0.31,0.43c-0.18,1.04,0.11,1.53,0.29,1.65c0.09,0.06,0.14,0.03,0.18,0c0.16-0.11,0.4-0.59,0.17-1.63
		c-0.04-0.2,0.08-0.4,0.29-0.45c0.2-0.04,0.4,0.09,0.45,0.29c0.24,1.13,0.06,2.03-0.48,2.41C68.35,62.2,68.17,62.25,67.99,62.25z"/>
	<path class="st0" d="M70.43,62.05c-0.17,0-0.34-0.05-0.5-0.15c-0.45-0.29-0.86-1.07-0.63-2.4c0.04-0.2,0.23-0.34,0.43-0.31
		c0.2,0.04,0.34,0.23,0.31,0.43c-0.18,1.04,0.11,1.53,0.29,1.64c0.09,0.06,0.14,0.03,0.18,0c0.16-0.11,0.4-0.59,0.17-1.63
		c-0.04-0.2,0.08-0.4,0.29-0.45c0.2-0.04,0.4,0.09,0.45,0.29c0.24,1.13,0.06,2.03-0.48,2.4C70.78,62,70.6,62.05,70.43,62.05z"/>
	<path class="st0" d="M65.56,56.25c-0.08,0-0.16-0.01-0.24-0.03c-0.04-0.01-0.08-0.03-0.11-0.05c-1.58-1.05-2.02-3.19-0.97-4.77
		c0.4-0.6,0.96-1.05,1.62-1.31c0.17-0.06,0.36,0,0.45,0.15l0.5,0.79c0.11,0.18,0.06,0.41-0.12,0.52c-0.18,0.11-0.41,0.06-0.52-0.12
		l-0.33-0.51c-0.4,0.21-0.74,0.52-0.99,0.9c-0.4,0.6-0.54,1.32-0.39,2.02c0.14,0.68,0.52,1.27,1.09,1.67c0.03,0,0.04-0.01,0.06-0.02
		c0.08-0.06,0.5-0.51,0.5-2.91c0-0.21,0.17-0.38,0.38-0.38s0.38,0.17,0.38,0.38c0,2.89-0.6,3.35-0.79,3.5
		C65.93,56.19,65.75,56.25,65.56,56.25z"/>
	<path class="st0" d="M68.15,69.82c-0.25,0-0.5-0.02-0.74-0.06l-1.84-0.09c-0.78,0.15-1.66,0.04-2.46-0.3
		c-1.16-0.67-2.12-1.52-2.91-2.55c-0.64-1.02-1.16-2.09-1.55-3.2c-0.2-0.46-0.36-0.99-0.51-1.51l-1.35-4.38
		c-0.03-0.1-0.02-0.22,0.04-0.31s0.15-0.15,0.26-0.17c0.77-0.13,1.55,0.09,2.15,0.58c0.05,0.04,0.08,0.09,0.11,0.14
		c0.55,1.26,1.04,2.56,1.45,3.87c0.1,0.34,0.18,0.68,0.26,1.02c0.09,0.39,0.17,0.76,0.3,1.12c0.24,0.61,0.58,1.18,1.03,1.68
		c0.74,0.94,1.95,1.36,3.09,1.07c0.03-0.01,0.06-0.01,0.1-0.01l1.89,0.05c1.22,0.29,2.42-0.12,3.14-1.05
		c0.47-0.51,0.82-1.08,1.07-1.7c0.13-0.37,0.22-0.77,0.32-1.18c0.07-0.31,0.14-0.62,0.23-0.93c0.38-1.2,0.83-2.35,1.26-3.47
		l0.14-0.36c0.02-0.06,0.06-0.11,0.11-0.16c0.6-0.49,1.38-0.71,2.15-0.58c0.18,0.03,0.32,0.19,0.32,0.37v0.17
		c0,0.04-0.01,0.08-0.02,0.11l-1.16,3.71c-0.18,0.67-0.41,1.36-0.67,2.02c-0.37,1.1-0.87,2.17-1.49,3.16
		c-0.81,1.05-1.77,1.9-2.89,2.56C69.37,69.69,68.76,69.82,68.15,69.82z M65.52,68.92l1.94,0.08c0.02,0,0.03,0,0.05,0
		c0.72,0.13,1.45,0.04,2.12-0.25c0.99-0.58,1.88-1.37,2.61-2.31c0.57-0.92,1.04-1.93,1.4-2.99c0.26-0.66,0.47-1.32,0.65-1.98
		l1.07-3.43c-0.39,0.02-0.77,0.15-1.09,0.38l-0.1,0.26c-0.43,1.11-0.87,2.25-1.24,3.42c-0.08,0.28-0.15,0.58-0.22,0.88
		c-0.1,0.42-0.19,0.85-0.35,1.28c-0.28,0.72-0.68,1.37-1.2,1.93c-0.89,1.13-2.39,1.65-3.82,1.3l-1.76-0.04
		c-1.41,0.33-2.9-0.19-3.8-1.33c-0.49-0.55-0.88-1.2-1.16-1.91c-0.14-0.41-0.23-0.81-0.32-1.2c-0.07-0.32-0.15-0.64-0.25-0.96
		c-0.39-1.25-0.86-2.5-1.39-3.7c-0.31-0.23-0.67-0.36-1.05-0.39l1.21,3.93c0.15,0.52,0.3,1.01,0.49,1.45
		c0.38,1.09,0.87,2.1,1.46,3.05c0.71,0.92,1.6,1.7,2.63,2.3C64.08,68.96,64.81,69.05,65.52,68.92z"/>
	<path class="st0" d="M60.34,52.22c-1,0-1.76-0.47-2.13-1.37c-0.69-1.64,0.18-4.44,2.29-5.44c1.47-0.88,2.5-0.46,2.98-0.13
		c0.96,0.66,1.43,2.06,1.18,3.49c-0.27,1.58-1.35,2.76-2.89,3.17C61.26,52.13,60.77,52.22,60.34,52.22z M62.2,45.64
		c-0.41,0-0.86,0.15-1.35,0.43c-1.73,0.83-2.51,3.15-1.95,4.49c0.38,0.91,1.32,1.15,2.63,0.67c0.01,0,0.02-0.01,0.03-0.01
		c1.8-0.48,2.25-1.96,2.36-2.58c0.2-1.13-0.16-2.26-0.87-2.75C62.8,45.73,62.51,45.64,62.2,45.64z"/>
	<path class="st0" d="M64.09,59.99c-1.3,0-2.58-0.3-3.75-0.87c-0.16-0.08-0.24-0.26-0.2-0.43c0.14-0.55,0.13-0.95-0.04-1.23
		c-0.28-0.47-1.01-0.65-1.86-0.87c-1.48-0.38-3.5-0.9-3.92-3.5c-0.02-0.1,0.01-0.2,0.07-0.28s0.15-0.13,0.25-0.15
		c1.91-0.27,2.05-2.23,2.04-5.19c0-0.29,0-0.59,0-0.88c-0.27,0.63-0.33,1.59-0.38,2.47c-0.08,1.41-0.17,2.75-1.22,2.75
		c-0.17,0-0.32-0.12-0.36-0.29c-1.63-6.78-1.27-11.73,1.08-14.72c1.84-2.34,4.92-3.52,9.16-3.52h3c0.01,0,0.02,0,0.02,0
		c4.21,0,7.28,1.18,9.12,3.51c2.36,2.99,2.73,7.94,1.1,14.73c-0.04,0.17-0.19,0.29-0.36,0.29c-1.04,0-1.12-1.33-1.2-2.73
		c-0.05-0.9-0.11-1.88-0.4-2.51c0,0.29,0,0.57,0,0.86c-0.01,2.98,0.13,4.95,2.04,5.19c0.1,0.01,0.19,0.07,0.25,0.15
		c0.06,0.08,0.09,0.18,0.07,0.28c-0.42,2.6-2.44,3.12-3.92,3.5c-0.85,0.22-1.58,0.41-1.85,0.87c-0.17,0.28-0.18,0.68-0.03,1.23
		c0.04,0.17-0.04,0.35-0.2,0.43c-1.35,0.66-2.85,0.95-4.35,0.85l-3.41,0c-0.04,0.02-0.09,0.04-0.14,0.04
		C64.5,59.98,64.29,59.99,64.09,59.99z M60.94,58.57c1.13,0.5,2.37,0.73,3.61,0.65c0.05-0.03,0.12-0.05,0.18-0.05h3.55
		c1.29,0.09,2.57-0.13,3.73-0.65c-0.11-0.61-0.05-1.1,0.18-1.49c0.43-0.73,1.35-0.97,2.31-1.22c1.4-0.36,2.84-0.73,3.29-2.54
		c-2.32-0.58-2.31-3.38-2.3-5.87c0-0.61,0-1.22-0.02-1.79c-0.01-0.13,0.05-0.25,0.16-0.33c0.11-0.07,0.24-0.09,0.36-0.04
		c1.2,0.51,1.31,2.24,1.4,3.76c0.04,0.6,0.08,1.36,0.22,1.75c1.42-6.26,1.05-10.81-1.09-13.53c-1.69-2.14-4.56-3.23-8.53-3.23
		c-0.01,0-0.01,0-0.02,0h-3c-4,0-6.88,1.09-8.57,3.24c-2.14,2.72-2.5,7.27-1.07,13.53c0.15-0.4,0.19-1.17,0.23-1.78
		c0.09-1.51,0.19-3.22,1.38-3.75c0.12-0.05,0.26-0.04,0.36,0.03c0.11,0.07,0.17,0.2,0.16,0.33c-0.03,0.59-0.03,1.21-0.03,1.83
		c0.01,2.47,0.02,5.26-2.3,5.86c0.45,1.81,1.89,2.18,3.3,2.54c0.97,0.25,1.88,0.48,2.32,1.22C60.99,57.47,61.05,57.96,60.94,58.57z"
		/>
	<path class="st0" d="M62.74,62.05c-0.18,0-0.35-0.06-0.51-0.17c-0.54-0.38-0.72-1.28-0.48-2.4c0.04-0.2,0.25-0.33,0.45-0.29
		c0.2,0.04,0.33,0.24,0.29,0.45c-0.22,1.04,0.02,1.52,0.17,1.63c0.04,0.03,0.09,0.05,0.18,0c0.18-0.11,0.47-0.6,0.29-1.64
		c-0.04-0.2,0.1-0.4,0.31-0.43c0.2-0.03,0.4,0.1,0.43,0.31c0.23,1.33-0.17,2.11-0.63,2.4C63.09,62,62.91,62.05,62.74,62.05z"/>
	<path class="st0" d="M65.56,62.13c-0.17,0-0.34-0.05-0.5-0.15c-0.45-0.29-0.86-1.07-0.63-2.41c0.04-0.2,0.22-0.34,0.43-0.31
		c0.2,0.04,0.34,0.23,0.31,0.43c-0.18,1.04,0.11,1.53,0.29,1.65c0.08,0.05,0.14,0.03,0.18,0c0.16-0.11,0.4-0.59,0.17-1.63
		c-0.04-0.2,0.08-0.4,0.29-0.45c0.2-0.04,0.4,0.08,0.45,0.29c0.24,1.13,0.06,2.03-0.48,2.41C65.92,62.08,65.74,62.13,65.56,62.13z"
		/>
	<path class="st0" d="M68.85,67.38c-0.02,0-0.05,0-0.08-0.01c-0.2-0.04-0.33-0.24-0.29-0.44c0.22-1.07-0.03-1.57-0.19-1.68
		c-0.04-0.03-0.1-0.05-0.18,0c-0.18,0.12-0.47,0.62-0.29,1.69c0.04,0.2-0.1,0.4-0.31,0.43c-0.2,0.03-0.4-0.1-0.43-0.31
		c-0.24-1.36,0.17-2.16,0.62-2.45c0.32-0.21,0.7-0.2,1.01,0.01c0.55,0.38,0.74,1.29,0.5,2.45C69.18,67.25,69.02,67.38,68.85,67.38z"
		/>
	<path class="st0" d="M66.2,67.38c-0.02,0-0.05,0-0.08-0.01c-0.2-0.04-0.33-0.24-0.29-0.44c0.22-1.07-0.03-1.57-0.19-1.68
		c-0.04-0.03-0.1-0.05-0.18,0c-0.18,0.12-0.47,0.62-0.29,1.69c0.04,0.2-0.1,0.4-0.31,0.43c-0.2,0.03-0.4-0.1-0.43-0.31
		c-0.23-1.36,0.17-2.16,0.62-2.45c0.32-0.21,0.7-0.2,1.01,0.01c0.55,0.38,0.74,1.29,0.5,2.45C66.53,67.25,66.38,67.38,66.2,67.38z"
		/>
	<path class="st0" d="M62.94,66.92c-0.09,0-0.19-0.03-0.26-0.1c-0.15-0.14-0.15-0.38-0.01-0.53c0.75-0.78,0.77-1.39,0.67-1.62
		c-0.07-0.15-0.17-0.15-0.21-0.15c-0.19,0.01-0.61,0.26-0.95,1.16c-0.07,0.19-0.29,0.29-0.48,0.22c-0.19-0.07-0.29-0.29-0.22-0.48
		c0.54-1.46,1.32-1.63,1.63-1.64c0.39-0.02,0.75,0.21,0.91,0.59c0.23,0.53,0.14,1.44-0.81,2.44C63.14,66.89,63.04,66.92,62.94,66.92
		z"/>
	<path class="st0" d="M70.55,66.46c-0.08,0-0.17-0.03-0.24-0.08c-1.05-0.87-1.25-1.76-1.08-2.3c0.12-0.39,0.44-0.66,0.84-0.7
		c0.31-0.02,1.1,0.06,1.81,1.45c0.09,0.18,0.02,0.41-0.16,0.5c-0.19,0.09-0.41,0.02-0.5-0.16c-0.44-0.86-0.87-1.05-1.08-1.04
		c-0.03,0-0.14,0.01-0.19,0.17c-0.07,0.24,0.02,0.83,0.84,1.5c0.16,0.13,0.18,0.37,0.05,0.53C70.77,66.42,70.66,66.46,70.55,66.46z"
		/>
	<path class="st0" d="M54.39,27.37c-0.03,0-0.06,0-0.09-0.01c-0.11-0.03-0.2-0.1-0.25-0.2c-0.14-0.29-3.44-7.07-2.82-9.56
		c0.23-0.92,0.95-1.41,1.87-1.27c1.21,0.18,2.77,1.51,3.14,3.43c1.33-1.48,3.28-2.01,4.47-1.52c0.78,0.33,1.11,1.06,0.89,1.95
		c-0.63,2.48-6.72,6.91-6.98,7.1C54.55,27.34,54.47,27.37,54.39,27.37z M52.8,17.05c-0.43,0-0.71,0.24-0.84,0.73
		c-0.44,1.72,1.55,6.48,2.57,8.64c1.91-1.42,5.9-4.69,6.33-6.41c0,0,0,0,0,0c0.14-0.53-0.02-0.89-0.45-1.08
		c-0.95-0.4-3.04,0.2-4.16,2.05c-0.09,0.15-0.27,0.21-0.43,0.17c-0.16-0.05-0.27-0.2-0.27-0.38c0.09-2.02-1.46-3.54-2.57-3.71
		C52.93,17.06,52.86,17.05,52.8,17.05z"/>
	<path class="st0" d="M42.54,106.44l-3.14-2.79c-0.1-0.1-0.1-0.26,0-0.36c0.1-0.1,0.25-0.1,0.35,0l0,0l3,2.94
		c0.05,0.06,0.05,0.16,0,0.22C42.69,106.5,42.6,106.5,42.54,106.44z"/>
	<path class="st0" d="M45.2,106.33l2.8-3.14c0.09-0.1,0.24-0.1,0.34-0.01c0,0,0.01,0.01,0.01,0.01c0.1,0.08,0.11,0.23,0.03,0.32
		c-0.01,0.01-0.02,0.02-0.03,0.03l0,0l-2.94,3c-0.06,0.06-0.16,0.06-0.22,0C45.14,106.48,45.14,106.39,45.2,106.33z"/>
	<path class="st0" d="M43,109.18l-2.8,3.14c-0.09,0.1-0.24,0.1-0.34,0.01c0,0-0.01-0.01-0.01-0.01c-0.1-0.1-0.1-0.26,0-0.36l0,0
		l2.94-3c0.06-0.06,0.16-0.06,0.22,0C43.07,109.02,43.07,109.11,43,109.18C43.01,109.17,43,109.18,43,109.18z"/>
	<path class="st0" d="M45.42,108.7l3.14,2.8c0.1,0.1,0.1,0.25,0,0.35c-0.09,0.1-0.24,0.1-0.34,0.01c0,0-0.01-0.01-0.01-0.01l0,0
		l-3-2.94c-0.06-0.06-0.06-0.15-0.01-0.21c0,0,0.01-0.01,0.01-0.01C45.27,108.64,45.36,108.65,45.42,108.7z"/>
	<path class="st0" d="M43.93,105.7l-0.09-4.2c-0.01-0.13,0.09-0.25,0.22-0.26c0.01,0,0.01,0,0.02,0c0.14,0,0.25,0.11,0.26,0.25l0,0
		l-0.1,4.2c0.01,0.08-0.05,0.14-0.13,0.15c-0.01,0-0.02,0-0.03,0C44,105.84,43.94,105.78,43.93,105.7z"/>
	<path class="st0" d="M44.24,109.45l0.1,4.21c0,0.14-0.11,0.25-0.25,0.25c-0.13,0.01-0.24-0.1-0.25-0.23c0,0,0-0.01,0-0.01l0,0
		l0.09-4.21c0.01-0.08,0.08-0.15,0.16-0.15C44.17,109.31,44.23,109.37,44.24,109.45z"/>
	<path class="st0" d="M38.1,146.46c-0.15,0-0.3-0.09-0.35-0.25c-0.07-0.19,0.03-0.41,0.23-0.48c30.47-11.01,48.84-33.81,54.6-67.79
		c0.03-0.21,0.23-0.34,0.43-0.31c0.2,0.04,0.34,0.23,0.31,0.43c-5.8,34.26-24.34,57.27-55.08,68.37
		C38.19,146.45,38.14,146.46,38.1,146.46z"/>
	<path class="st0" d="M48.68,142.07c-0.1,0-0.19-0.04-0.27-0.11c-0.15-0.15-0.14-0.38,0-0.53c3.35-3.31,5.26-7.72,5.38-12.43
		c0.01-0.21,0.16-0.37,0.38-0.37c0.21,0,0.37,0.18,0.37,0.38c-0.12,4.9-2.11,9.5-5.6,12.95C48.87,142.03,48.78,142.07,48.68,142.07z
		"/>
	<path class="st0" d="M53.52,132.38c-0.02,0-0.05,0-0.08-0.01c-2.35-0.48-3.64-1.17-4.08-2.18c-0.52-1.2,0.29-2.52,1.14-3.92
		c0.92-1.5,1.87-3.05,1.16-4.45c-0.07-0.13-0.05-0.29,0.04-0.4c0.09-0.11,0.24-0.17,0.38-0.13c2.63,0.62,4.87,2.22,6.29,4.52
		c0.11,0.18,0.06,0.41-0.12,0.52s-0.41,0.06-0.52-0.12c-1.2-1.93-3.01-3.33-5.15-4c0.34,1.54-0.6,3.08-1.45,4.46
		c-0.75,1.23-1.46,2.38-1.09,3.23c0.32,0.74,1.52,1.33,3.54,1.74c0.2,0.04,0.33,0.24,0.29,0.44
		C53.85,132.25,53.69,132.38,53.52,132.38z"/>
	<path class="st0" d="M56.11,132.17c-0.18,0-0.33-0.12-0.37-0.3c-0.04-0.2,0.09-0.4,0.3-0.44c1.42-0.27,2.27-0.71,2.61-1.33
		c0.46-0.86-0.07-2.11-0.63-3.43c-0.6-1.4-1.26-2.96-0.76-4.32c-1.03,0.08-2.06,0.24-3.06,0.47c-0.2,0.04-0.4-0.08-0.45-0.28
		c-0.05-0.2,0.08-0.4,0.28-0.45c1.26-0.28,2.56-0.46,3.85-0.53c0.14-0.02,0.28,0.07,0.35,0.19c0.07,0.13,0.06,0.28-0.02,0.4
		c-0.81,1.15-0.15,2.71,0.5,4.22c0.61,1.43,1.23,2.9,0.6,4.08c-0.45,0.84-1.47,1.4-3.13,1.72
		C56.16,132.17,56.13,132.17,56.11,132.17z"/>
	<path class="st0" d="M66.72,129.8c-0.06,0-0.13-0.02-0.19-0.05c-0.18-0.1-0.24-0.33-0.13-0.51c2.38-4.05,3.07-8.8,1.96-13.36
		c-0.05-0.2,0.07-0.4,0.28-0.45c0.2-0.05,0.4,0.07,0.45,0.28c1.16,4.75,0.43,9.7-2.04,13.92C66.97,129.74,66.85,129.8,66.72,129.8z"
		/>
	<path class="st0" d="M67.88,119.24c-1.77,0-2.89-0.35-3.47-1.08c-0.82-1.03-0.39-2.51,0.07-4.08c0.49-1.69,1-3.44-0.05-4.6
		c-0.1-0.11-0.12-0.26-0.07-0.4s0.19-0.22,0.33-0.23c2.69-0.06,5.32,0.92,7.27,2.75c0.15,0.14,0.16,0.38,0.02,0.53
		c-0.14,0.15-0.38,0.16-0.53,0.02c-1.63-1.54-3.79-2.44-6.02-2.54c0.73,1.39,0.23,3.13-0.23,4.68c-0.4,1.38-0.78,2.68-0.21,3.4
		c0.5,0.63,1.8,0.88,3.85,0.76c0.2-0.03,0.38,0.14,0.4,0.35c0.01,0.21-0.15,0.38-0.35,0.4C68.53,119.23,68.2,119.24,67.88,119.24z"
		/>
	<path class="st0" d="M71.32,118.38c-0.14,0-0.27-0.08-0.34-0.21c-0.09-0.19-0.01-0.41,0.17-0.5c1.3-0.63,2.01-1.28,2.17-1.97
		c0.22-0.96-0.62-2.02-1.51-3.15c-0.94-1.2-1.98-2.53-1.85-3.97c-0.96,0.34-1.9,0.74-2.8,1.21c-0.19,0.09-0.41,0.02-0.5-0.16
		c-0.09-0.18-0.02-0.41,0.16-0.5c1.13-0.58,2.32-1.07,3.54-1.46c0.14-0.04,0.29-0.01,0.39,0.1c0.1,0.1,0.13,0.25,0.08,0.39
		c-0.48,1.32,0.56,2.65,1.58,3.95c0.96,1.22,1.95,2.48,1.65,3.79c-0.21,0.93-1.06,1.74-2.57,2.48
		C71.43,118.36,71.38,118.38,71.32,118.38z"/>
	<path class="st0" d="M80.2,113.83c-0.04,0-0.08-0.01-0.12-0.02c-0.2-0.07-0.3-0.28-0.24-0.48c1.5-4.45,1.22-9.24-0.79-13.48
		c-0.09-0.19-0.01-0.41,0.18-0.5c0.19-0.09,0.41-0.01,0.5,0.18c2.1,4.42,2.39,9.41,0.83,14.04C80.5,113.74,80.36,113.83,80.2,113.83
		z"/>
	<path class="st0" d="M77.55,103.45c-0.83,0-1.44-0.19-1.89-0.56c-1.01-0.84-0.88-2.38-0.75-4.02c0.14-1.75,0.29-3.56-0.96-4.48
		c-0.12-0.09-0.17-0.23-0.15-0.38c0.03-0.14,0.14-0.26,0.28-0.29c2.6-0.62,5.39-0.18,7.66,1.22c0.18,0.11,0.23,0.34,0.12,0.52
		c-0.11,0.18-0.34,0.23-0.52,0.12c-1.9-1.17-4.2-1.62-6.4-1.27c0.99,1.21,0.84,3.01,0.71,4.62c-0.12,1.44-0.23,2.79,0.48,3.38
		c0.62,0.52,1.94,0.51,3.93-0.03c0.2-0.05,0.41,0.06,0.46,0.26c0.05,0.2-0.06,0.41-0.26,0.46
		C79.18,103.31,78.28,103.45,77.55,103.45z"/>
	<path class="st0" d="M82.38,101.67c-0.11,0-0.22-0.05-0.3-0.15c-0.13-0.16-0.1-0.4,0.07-0.53c1.14-0.88,1.7-1.65,1.72-2.37
		c0.02-0.98-1.01-1.86-2.11-2.78c-1.16-0.98-2.46-2.08-2.62-3.51c-0.89,0.54-1.74,1.15-2.53,1.81c-0.16,0.13-0.4,0.11-0.53-0.05
		c-0.13-0.16-0.11-0.4,0.05-0.53c1-0.83,2.08-1.58,3.21-2.22c0.12-0.07,0.28-0.06,0.4,0.02s0.18,0.22,0.16,0.36
		c-0.21,1.39,1.09,2.49,2.34,3.55c1.18,1,2.41,2.03,2.38,3.37c-0.02,0.95-0.68,1.92-2.01,2.94
		C82.54,101.64,82.46,101.67,82.38,101.67z"/>
	<path class="st0" d="M88.67,95.72c-0.02,0-0.04,0-0.05,0c-0.21-0.03-0.35-0.22-0.32-0.42c0.68-4.63-0.45-9.27-3.16-13.08
		c-0.12-0.17-0.08-0.4,0.09-0.52c0.17-0.12,0.4-0.08,0.52,0.09c2.83,3.96,4,8.8,3.3,13.62C89.01,95.59,88.85,95.72,88.67,95.72z"/>
	<path class="st0" d="M83.52,86.04c-0.47,0-0.86-0.1-1.2-0.29c-1.14-0.65-1.3-2.19-1.46-3.82c-0.17-1.75-0.35-3.56-1.76-4.25
		c-0.13-0.06-0.21-0.2-0.21-0.34c0-0.15,0.09-0.28,0.22-0.34c2.45-1.08,5.28-1.13,7.77-0.15c0.19,0.08,0.29,0.29,0.21,0.49
		c-0.08,0.19-0.3,0.29-0.49,0.21c-2.08-0.82-4.43-0.86-6.53-0.12c1.19,1.02,1.37,2.81,1.53,4.42c0.14,1.43,0.28,2.78,1.08,3.24
		c0.7,0.4,2,0.15,3.86-0.72c0.19-0.09,0.41-0.01,0.5,0.18c0.09,0.19,0.01,0.41-0.18,0.5C85.48,85.72,84.38,86.04,83.52,86.04z"/>
	<path class="st0" d="M88.66,83.38c-0.09,0-0.18-0.03-0.25-0.1c-0.15-0.14-0.17-0.38-0.03-0.53c0.97-1.08,1.39-1.95,1.28-2.66
		c-0.15-0.98-1.33-1.66-2.58-2.38c-1.31-0.76-2.78-1.6-3.19-2.99c-0.78,0.69-1.5,1.44-2.17,2.24c-0.13,0.16-0.37,0.18-0.53,0.05
		c-0.16-0.13-0.18-0.37-0.05-0.53c0.84-1,1.77-1.93,2.77-2.77c0.11-0.09,0.26-0.11,0.39-0.05c0.13,0.06,0.22,0.19,0.22,0.33
		c0.04,1.4,1.51,2.25,2.93,3.07c1.34,0.78,2.74,1.58,2.95,2.91c0.15,0.95-0.33,2.02-1.46,3.28C88.86,83.33,88.76,83.38,88.66,83.38z
		"/>
	<path class="st0" d="M89.91,36.84c-4.73,0-9.24-3.13-11.55-8.05c-0.06-0.12-0.04-0.27,0.03-0.38c0.08-0.11,0.21-0.17,0.34-0.16
		l1.6,0.17c-0.83-1.32-2.55-4.3-2.53-6.17c0-0.13,0.07-0.25,0.19-0.32c0.11-0.07,0.25-0.07,0.37-0.01l0.96,0.52
		c-1.15-3.67-0.62-8.04-0.59-8.24c0.02-0.13,0.1-0.24,0.22-0.29c0.12-0.05,0.25-0.04,0.36,0.03l1.16,0.76
		c-0.38-1.66-0.28-3.42,0.28-5.04c0.04-0.1,0.11-0.18,0.21-0.22c0.1-0.04,0.21-0.04,0.31,0.01l0.99,0.49
		c-0.13-1.49-0.07-2.99,0.17-4.47c0.02-0.1,0.07-0.19,0.15-0.25c0.08-0.06,0.19-0.08,0.28-0.06c0.16,0.03,0.56,0.1,3.11,3.78
		l0.55-1.11c0.05-0.11,0.15-0.18,0.27-0.2c0.12-0.02,0.24,0.01,0.32,0.09c1.27,1.18,2.31,2.53,3.12,4.05l0.41-1.48
		c0.04-0.13,0.14-0.23,0.27-0.26c0.13-0.03,0.27,0.01,0.36,0.1c2.22,2.32,3.65,5.74,4.22,7.31l0.6-1.15c0.06-0.12,0.18-0.2,0.32-0.2
		c0.13-0.02,0.26,0.06,0.33,0.18c0.81,1.32,1.19,4.96,1.32,6.6l1.17-1.13c0.1-0.1,0.26-0.13,0.39-0.08
		c0.14,0.05,0.23,0.17,0.24,0.32c0.65,7.25-1.86,12.59-6.73,14.3c-0.2,0.07-0.41-0.04-0.48-0.23c-0.07-0.2,0.03-0.41,0.23-0.48
		c4.41-1.55,6.68-6.16,6.29-12.73L98,23.96c-0.1,0.1-0.26,0.13-0.4,0.08c-0.14-0.05-0.23-0.18-0.24-0.33
		c-0.08-1.33-0.38-4.69-0.97-6.39l-0.64,1.24c-0.07,0.14-0.22,0.22-0.37,0.2c-0.15-0.01-0.28-0.12-0.32-0.26
		c-0.01-0.05-1.38-4.42-3.88-7.35l-0.49,1.78c-0.04,0.15-0.18,0.26-0.33,0.27c-0.16,0.01-0.31-0.08-0.37-0.22
		c-0.74-1.64-1.75-3.1-3.02-4.36l-0.6,1.22c-0.06,0.12-0.18,0.2-0.31,0.21c-0.13,0-0.26-0.05-0.34-0.16
		c-0.95-1.39-2.04-2.88-2.65-3.6c-0.17,1.41-0.17,2.83,0,4.24c0.02,0.14-0.04,0.27-0.16,0.35c-0.11,0.08-0.26,0.09-0.38,0.03
		l-1.21-0.6c-0.49,1.67-0.45,3.48,0.13,5.13c0.05,0.15,0,0.32-0.12,0.42c-0.13,0.1-0.3,0.11-0.44,0.02l-1.48-0.97
		c-0.12,1.47-0.27,5.31,0.94,8.2c0.06,0.15,0.02,0.32-0.09,0.42s-0.29,0.13-0.43,0.05l-1.21-0.66c0.42,2.27,2.74,5.7,2.77,5.74
		c0.08,0.12,0.09,0.28,0.01,0.4c-0.08,0.12-0.22,0.19-0.36,0.18l-1.7-0.18c2.32,4.42,6.54,7.14,10.89,7.01
		c0.23,0.01,0.38,0.16,0.39,0.36c0.01,0.21-0.16,0.38-0.36,0.39C90.14,36.84,90.02,36.84,89.91,36.84z"/>
	<path class="st0" d="M96.77,53.62c-0.2,0-0.37-0.16-0.38-0.36c-0.35-9.91-8.99-32.06-9.07-32.29c-0.08-0.19,0.02-0.41,0.21-0.49
		c0.19-0.07,0.41,0.02,0.49,0.21c0.36,0.91,8.77,22.5,9.13,32.53c0.01,0.21-0.15,0.38-0.36,0.39
		C96.78,53.62,96.77,53.62,96.77,53.62z"/>
	<path class="st0" d="M112.86,93.17c-0.04,0-0.09-0.01-0.13-0.02c-0.31-0.11-7.52-2.86-10.28-10.03c-1.93-4.99-1.18-10.85,2.22-17.4
		c0.05-0.1,0.14-0.17,0.25-0.19c0.11-0.02,0.22,0,0.31,0.07c7.77,5.9,15.6,13.11,10.11,23.9c-0.09,0.18-0.32,0.26-0.5,0.16
		c-0.18-0.09-0.26-0.32-0.16-0.5c5.15-10.12-1.8-16.77-9.54-22.69c-3.12,6.19-3.79,11.69-1.99,16.38c2.64,6.85,9.78,9.57,9.85,9.6
		c0.19,0.07,0.29,0.29,0.22,0.48C113.16,93.07,113.01,93.17,112.86,93.17z"/>
	<path class="st0" d="M117.01,106.05c-0.16,0-0.31-0.1-0.36-0.26l-8.51-27.15c-0.06-0.2,0.05-0.41,0.25-0.47
		c0.2-0.06,0.41,0.05,0.47,0.25l8.51,27.15c0.06,0.2-0.05,0.41-0.25,0.47C117.08,106.05,117.05,106.05,117.01,106.05z"/>
	<path class="st0" d="M128.27,89.04c-0.58,0-0.93-0.03-1-0.03c-0.21-0.02-0.36-0.2-0.34-0.41c0.02-0.21,0.21-0.36,0.41-0.34
		c0.08,0.01,7.7,0.6,13.02-4.47c3.63-3.46,5.37-8.72,5.19-15.64c-9.52,2.03-18.66,5.07-18.32,16.42c0.01,0.21-0.16,0.38-0.36,0.39
		c-0.25,0-0.38-0.16-0.39-0.36c-0.36-12.11,9.37-15.17,19.36-17.27c0.11-0.02,0.22,0,0.31,0.07c0.09,0.07,0.14,0.17,0.14,0.28
		c0.28,7.37-1.54,12.97-5.41,16.66C136.41,88.58,130.58,89.04,128.27,89.04z"/>
	<path class="st0" d="M118.02,98.87c-0.09,0-0.18-0.03-0.25-0.1c-0.15-0.14-0.16-0.38-0.02-0.53l19.34-20.87
		c0.14-0.15,0.38-0.16,0.53-0.02c0.15,0.14,0.16,0.38,0.02,0.53l-19.34,20.87C118.22,98.83,118.12,98.87,118.02,98.87z"/>
	<path class="st0" d="M134.48,64.38c-1.32,0-2.21-0.17-2.3-0.19c-0.2-0.04-0.33-0.24-0.29-0.44c0.04-0.2,0.24-0.33,0.44-0.29
		c0.05,0.01,5.44,1.02,9.62-2.17c2.83-2.16,4.47-5.73,4.9-10.61c-6.58,0.68-12.99,2.04-14.11,9.17c-0.03,0.21-0.22,0.34-0.43,0.31
		c-0.2-0.03-0.34-0.22-0.31-0.43c1.23-7.82,8.5-9.18,15.22-9.84c0.11-0.01,0.22,0.03,0.3,0.1c0.08,0.08,0.12,0.19,0.11,0.29
		c-0.38,5.34-2.14,9.24-5.23,11.61C139.67,63.96,136.55,64.38,134.48,64.38z"/>
	<path class="st0" d="M124.82,70.54c-0.1,0-0.21-0.04-0.28-0.13c-0.14-0.16-0.12-0.39,0.04-0.53l15.52-13.46
		c0.16-0.14,0.39-0.12,0.53,0.04c0.14,0.16,0.12,0.39-0.04,0.53l-15.52,13.46C124.99,70.51,124.91,70.54,124.82,70.54z"/>
	<path class="st0" d="M124.49,53.31c-0.05,0-0.11-0.01-0.16-0.04c-0.21-0.1-5.28-2.53-6.84-7.9c-1.09-3.74-0.19-7.94,2.68-12.48
		c0.06-0.09,0.16-0.16,0.27-0.17c0.11-0.02,0.22,0.02,0.3,0.09c4.92,4.45,9.88,9.77,6.57,16.61c-0.09,0.19-0.31,0.26-0.5,0.17
		c-0.19-0.09-0.26-0.31-0.17-0.5c3.02-6.23-1.26-11.04-6.06-15.43c-2.56,4.2-3.36,8.06-2.36,11.48c1.46,5.04,6.39,7.42,6.44,7.44
		c0.19,0.09,0.27,0.31,0.18,0.5C124.77,53.24,124.63,53.31,124.49,53.31z"/>
	<path class="st0" d="M126.7,62.85c-0.17,0-0.33-0.12-0.37-0.29l-4.49-20.06c-0.05-0.2,0.08-0.4,0.28-0.45
		c0.2-0.04,0.4,0.08,0.45,0.28l4.49,20.06c0.05,0.2-0.08,0.4-0.28,0.45C126.75,62.84,126.73,62.85,126.7,62.85z"/>
	<path class="st0" d="M116.69,112.03c-0.01,0-0.01,0-0.02,0c-0.21-0.01-0.37-0.18-0.36-0.39c1.3-32.2,19.1-72.81,19.28-73.22
		c0.08-0.19,0.31-0.27,0.49-0.19c0.19,0.08,0.27,0.31,0.19,0.49c-0.18,0.4-17.93,40.89-19.22,72.94
		C117.06,111.87,116.89,112.03,116.69,112.03z"/>
	<path class="st0" d="M132.94,44.56c-0.14,0-0.27-0.08-0.34-0.21c-0.08-0.17-2-4.13-0.35-8.05c1.11-2.63,3.55-4.58,7.25-5.8
		c0.1-0.03,0.22-0.02,0.31,0.03c0.09,0.06,0.16,0.15,0.18,0.26c0.69,3.9,1.21,8.3-1.38,11.12c-0.14,0.15-0.38,0.16-0.53,0.02
		c-0.15-0.14-0.16-0.38-0.02-0.53c2.06-2.23,2.02-5.64,1.27-10.05c-3.26,1.15-5.4,2.91-6.38,5.23c-1.52,3.6,0.31,7.4,0.33,7.44
		c0.09,0.19,0.02,0.41-0.17,0.5C133.05,44.54,133,44.56,132.94,44.56z"/>
	<path class="st0" d="M124.11,115.67c-0.18,0-0.35-0.14-0.37-0.32c-0.03-0.21,0.12-0.39,0.32-0.42c3.8-0.52,5.5-3.3,5.38-8.75
		c-0.07-2.92,0.52-7.91,5.33-8.55c2.81-0.36,5.38,1.61,5.75,4.41c0.31,2.28-1.3,4.39-3.58,4.7c-1.87,0.25-3.59-1.07-3.84-2.93
		c-0.2-1.54,0.88-2.95,2.41-3.16c1.27-0.14,2.41,0.73,2.61,1.98c0.14,1.07-0.6,2.04-1.66,2.18c-0.44,0.05-0.86-0.06-1.21-0.32
		s-0.56-0.64-0.62-1.07c-0.03-0.21,0.12-0.39,0.32-0.42c0.2-0.03,0.39,0.12,0.42,0.32c0.03,0.23,0.15,0.43,0.33,0.57
		s0.41,0.21,0.64,0.17c0.66-0.09,1.11-0.68,1.03-1.33c-0.14-0.84-0.92-1.45-1.78-1.35c-1.11,0.15-1.91,1.19-1.76,2.32
		c0.2,1.45,1.55,2.48,3,2.29c1.87-0.26,3.19-1.99,2.94-3.86c-0.31-2.39-2.52-4.08-4.91-3.77c-4.22,0.56-4.74,5.12-4.67,7.79
		c0.14,5.82-1.83,8.93-6.02,9.51C124.14,115.67,124.13,115.67,124.11,115.67z"/>
	<path class="st0" d="M109.21,56.92c-0.58,0-0.96-0.86-1.2-1.77c-0.73,0.65-1.55,1.16-2.03,0.75c-0.46-0.4-0.12-1.29,0.38-2.12
		c-0.97-0.06-1.9-0.28-1.97-0.9c-0.06-0.62,0.82-1.02,1.77-1.26c-0.64-0.73-1.15-1.55-0.75-2.02c0.39-0.47,1.29-0.12,2.13,0.37
		c0.06-0.97,0.28-1.91,0.89-1.96c0.6-0.05,1,0.83,1.25,1.77c0.73-0.65,1.55-1.16,2.02-0.76c0.47,0.4,0.12,1.29-0.38,2.13
		c0.97,0.06,1.91,0.28,1.97,0.9c0.06,0.62-0.82,1.02-1.77,1.26c0.63,0.72,1.13,1.53,0.76,2.01c0,0,0,0.01-0.01,0.01
		c-0.39,0.48-1.29,0.13-2.13-0.37c-0.06,0.97-0.28,1.91-0.89,1.96C109.25,56.92,109.23,56.92,109.21,56.92z M108.23,54.04
		c0.04,0,0.07,0.01,0.11,0.02c0.13,0.04,0.23,0.15,0.26,0.29c0.15,0.73,0.4,1.49,0.59,1.75c0.13-0.29,0.24-1.07,0.24-1.81
		c0-0.14,0.08-0.27,0.2-0.33c0.12-0.06,0.27-0.06,0.39,0.02c0.61,0.42,1.33,0.77,1.64,0.83c-0.11-0.3-0.59-0.93-1.11-1.45
		c-0.1-0.1-0.13-0.24-0.09-0.37c0.04-0.13,0.15-0.23,0.29-0.26c0.74-0.14,1.5-0.4,1.75-0.59c-0.28-0.14-1.08-0.25-1.83-0.25
		c-0.14,0-0.27-0.08-0.33-0.2c-0.06-0.12-0.06-0.27,0.02-0.39c0.42-0.62,0.78-1.33,0.83-1.64c-0.3,0.12-0.93,0.59-1.45,1.12
		c-0.1,0.1-0.24,0.13-0.37,0.09c-0.13-0.04-0.23-0.15-0.26-0.29c-0.15-0.73-0.4-1.49-0.59-1.75c-0.13,0.29-0.24,1.07-0.24,1.81
		c0,0.14-0.08,0.27-0.2,0.33c-0.12,0.07-0.27,0.06-0.39-0.02c-0.62-0.42-1.33-0.77-1.65-0.83c0.11,0.3,0.59,0.93,1.11,1.45
		c0.1,0.1,0.13,0.24,0.09,0.38c-0.04,0.13-0.15,0.23-0.29,0.26c-0.74,0.14-1.5,0.4-1.75,0.59c0.28,0.14,1.08,0.25,1.83,0.25
		c0.14,0,0.27,0.08,0.33,0.2c0.06,0.12,0.06,0.27-0.02,0.39c-0.42,0.62-0.78,1.33-0.83,1.64c0.3-0.11,0.93-0.59,1.45-1.12
		C108.04,54.08,108.13,54.04,108.23,54.04z M112,55.08L112,55.08L112,55.08z"/>
	<path class="st0" d="M113.18,27.21c-3.97,0-7.2-3.23-7.2-7.19s3.23-7.19,7.2-7.19s7.19,3.23,7.19,7.19S117.15,27.21,113.18,27.21z
		 M113.18,13.58c-3.55,0-6.45,2.89-6.45,6.44s2.89,6.44,6.45,6.44c3.55,0,6.44-2.89,6.44-6.44S116.73,13.58,113.18,13.58z"/>
	<path class="st0" d="M113.18,23.73c-2.05,0-3.72-1.67-3.72-3.71s1.67-3.71,3.72-3.71c2.05,0,3.71,1.67,3.71,3.71
		S115.23,23.73,113.18,23.73z M113.18,17.06c-1.64,0-2.97,1.33-2.97,2.96s1.33,2.96,2.97,2.96c1.63,0,2.96-1.33,2.96-2.96
		S114.81,17.06,113.18,17.06z"/>
	<path class="st0" d="M155.41,43.19c-3.44,0-6.37-2.7-6.6-6.17c-0.16-2.94,2.04-5.4,4.9-5.56c2.4-0.11,4.4,1.67,4.58,4.06
		c0.06,0.99-0.26,1.88-0.87,2.57c-0.62,0.69-1.47,1.1-2.39,1.15c-1.6,0.08-2.97-1.15-3.08-2.73c-0.08-1.31,0.92-2.44,2.22-2.52
		c1.09-0.08,2.04,0.78,2.11,1.87c0.01,0.21-0.14,0.39-0.35,0.4c-0.2,0.01-0.39-0.14-0.4-0.35c-0.05-0.68-0.65-1.21-1.32-1.17
		c-0.89,0.06-1.57,0.83-1.52,1.72c0.08,1.18,1.11,2.1,2.29,2.03c0.72-0.04,1.39-0.36,1.87-0.9c0.48-0.54,0.73-1.24,0.69-1.96
		c-0.15-2.04-1.81-3.51-3.79-3.42c-1.19,0.07-2.28,0.59-3.07,1.48c-0.79,0.89-1.19,2.03-1.13,3.22c0.22,3.23,2.99,5.67,6.14,5.53
		c3.86-0.21,7.29-4.09,7.64-8.65c0.54-4.47-1.86-8.44-6.75-11.2c-7.52-4.25-20.47-5.06-28.27,1.03c-0.17,0.13-0.4,0.1-0.53-0.06
		c-0.13-0.16-0.1-0.4,0.06-0.53c8.04-6.28,21.37-5.46,29.1-1.09c5.17,2.92,7.71,7.16,7.13,11.93c-0.38,4.91-4.13,9.1-8.35,9.33
		C155.62,43.19,155.52,43.19,155.41,43.19z"/>
	<path class="st0" d="M51.82,4l-2.23,2.49c-0.1,0.1-0.25,0.1-0.35,0.01c0,0,0,0-0.01-0.01c-0.1-0.1-0.1-0.25,0-0.35l0,0l2.37-2.4
		c0.06-0.06,0.16-0.06,0.22,0c0.07,0.04,0.1,0.13,0.06,0.2C51.86,3.97,51.84,3.99,51.82,4z"/>
	<path class="st0" d="M53.78,3.53l2.53,2.23c0.1,0.1,0.1,0.25,0,0.35c-0.09,0.1-0.24,0.1-0.34,0.01c0,0-0.01-0.01-0.01-0.01l0,0
		l-2.4-2.37c-0.06-0.06-0.06-0.16,0-0.22C53.62,3.46,53.71,3.46,53.78,3.53C53.77,3.52,53.78,3.53,53.78,3.53z"/>
	<path class="st0" d="M52.85,4.15l0.09,3.37c0.01,0.13-0.09,0.25-0.22,0.26c-0.01,0-0.01,0-0.02,0c-0.14,0.01-0.25-0.1-0.26-0.24
		c0,0,0,0,0,0l0,0l0.1-3.37C52.53,4.08,52.6,4.01,52.69,4c0,0,0.01,0,0.01,0C52.78,4,52.85,4.07,52.85,4.15z"/>
	<path class="st0" d="M64.74,4l-2.23,2.49c-0.08,0.1-0.23,0.11-0.32,0.03c-0.01-0.01-0.02-0.02-0.03-0.03c-0.1-0.1-0.1-0.25,0-0.35
		l0,0l2.37-2.4c0.06-0.06,0.15-0.06,0.22-0.01c0.06,0.06,0.06,0.15,0,0.22l0,0L64.74,4z"/>
	<path class="st0" d="M66.71,3.53l2.53,2.23c0.1,0.1,0.1,0.25,0,0.35c-0.09,0.1-0.24,0.1-0.34,0.01c0,0-0.01-0.01-0.01-0.01l0,0
		L66.5,3.76c-0.06-0.06-0.06-0.16,0-0.22C66.56,3.49,66.65,3.48,66.71,3.53z"/>
	<path class="st0" d="M65.77,4.15l0.1,3.37c0.01,0.14-0.1,0.25-0.24,0.26c0,0,0,0,0,0c-0.13,0.01-0.25-0.09-0.26-0.22
		c0-0.01,0-0.01,0-0.02l0,0l0.1-3.37C65.46,4.08,65.53,4.01,65.62,4c0,0,0.01,0,0.01,0C65.71,4.01,65.77,4.07,65.77,4.15z"/>
	<path class="st0" d="M118.74,145.86H61.29c-0.17,0-0.33-0.12-0.37-0.29c-0.04-0.17,0.04-0.34,0.2-0.42
		c19.12-9.3,29.87-22.58,32.86-40.61c0.03-0.17,0.19-0.32,0.36-0.33c0.35-0.01,0.35-0.02,0.99,2.25
		c6.74,23.91,14.64,36.92,23.47,38.66c0.19,0.04,0.32,0.21,0.3,0.4C119.09,145.71,118.93,145.86,118.74,145.86z M62.89,145.11h53.39
		c-8.16-3.47-15.43-16.38-21.65-38.45c-0.05-0.19-0.1-0.37-0.15-0.54C91.19,123.21,80.84,135.99,62.89,145.11z"/>
	<path class="st0" d="M94.49,69.92c-0.09,0-0.18-0.03-0.25-0.1c-7.44-6.75-9.39-12.57-8.05-15.13c0.48-0.92,1.38-1.33,2.4-1.1
		c2.83,0.65,6,5.92,6.28,15.94c0,0.15-0.08,0.29-0.22,0.35C94.6,69.9,94.54,69.92,94.49,69.92z M88.04,54.27
		c-0.51,0-0.92,0.26-1.18,0.76c-0.98,1.87,0.19,6.99,7.23,13.62c-0.44-9.64-3.59-13.85-5.66-14.33
		C88.29,54.29,88.16,54.27,88.04,54.27z"/>
	<path class="st0" d="M167.11,63.46c-0.02,0-0.04,0-0.06-0.01c-0.45-0.08-10.95-1.95-13.22-4.7c-0.81-0.99-0.77-2.11,0.11-3.01
		c1.23-1.24,4.17-1.9,6.67-0.55c-0.74-2.82,0.25-5.61,1.81-6.57c0.96-0.58,2-0.37,2.79,0.57c0,0,0,0,0,0
		c2.3,2.75,2.28,13.43,2.28,13.88c0,0.11-0.05,0.21-0.13,0.29C167.28,63.42,167.2,63.46,167.11,63.46z M157.57,55.18
		c-1.31,0-2.48,0.45-3.11,1.09c-0.43,0.43-0.78,1.13-0.06,2c1.85,2.24,10.3,3.97,12.33,4.36c-0.02-2.07-0.22-10.7-2.1-12.95l0,0
		c-0.56-0.66-1.19-0.81-1.82-0.42c-1.32,0.81-2.4,3.75-1.15,6.7c0.07,0.16,0.02,0.34-0.12,0.45c-0.14,0.1-0.33,0.1-0.46-0.01
		C159.98,55.53,158.72,55.18,157.57,55.18z"/>
	<path class="st0" d="M158.55,93.53c-2.73,0-5.55-0.31-8.18-0.6c-0.12-0.01-0.22-0.08-0.28-0.19c-0.06-0.1-0.07-0.23-0.02-0.34
		c2.21-5.06,6.09-8.8,10.63-10.24c3.94-1.25,8.16-0.69,11.9,1.58c0.14,0.08,0.21,0.25,0.17,0.41
		C170.88,91.83,164.95,93.53,158.55,93.53z M150.96,92.24c10.45,1.12,18.61,1.13,21.01-7.99c-3.54-2.06-7.35-2.54-11.05-1.36
		C156.73,84.22,153.12,87.61,150.96,92.24z"/>
	<path class="st0" d="M161.89,91.27c-0.86,0-1.72-0.18-2.46-0.56c-1.06-0.54-3.34-2.32-1.79-7.07c0.06-0.2,0.28-0.3,0.47-0.24
		c0.2,0.06,0.3,0.28,0.24,0.47c-0.98,3-0.48,5.19,1.42,6.17c1.96,1.01,4.91,0.35,6.19-1.38c1.27-1.72,0.66-4.01-1.71-6.43
		c-0.15-0.15-0.14-0.39,0-0.53c0.15-0.14,0.39-0.14,0.53,0c3.73,3.8,2.49,6.44,1.78,7.4C165.55,90.48,163.7,91.27,161.89,91.27z"/>
	<path class="st0" d="M161.98,88.19c-0.28,0-0.56-0.06-0.82-0.18c-0.48-0.22-0.84-0.61-1.02-1.1c-0.38-1.01,0.14-2.15,1.16-2.53
		c0.35-0.13,0.73-0.16,1.1-0.08c0.12,0.03,0.22,0.11,0.26,0.22c0.05,0.11,0.04,0.24-0.03,0.34c-0.22,0.35-0.16,0.63-0.02,0.74
		c0.15,0.11,0.38,0.04,0.57-0.18c0.09-0.1,0.22-0.15,0.35-0.12c0.13,0.02,0.24,0.11,0.28,0.24c0.38,1.02-0.14,2.15-1.16,2.53
		C162.44,88.15,162.21,88.19,161.98,88.19z M161.77,85.03c-0.07,0.01-0.14,0.03-0.21,0.06c-0.3,0.11-0.55,0.34-0.68,0.63
		s-0.15,0.62-0.03,0.93c0.11,0.3,0.34,0.55,0.63,0.68c0.29,0.14,0.62,0.15,0.93,0.04c0.45-0.17,0.75-0.58,0.79-1.03
		c-0.38,0.15-0.76,0.07-1.02-0.12C161.87,85.98,161.66,85.55,161.77,85.03z"/>
	<path class="st0" d="M149.18,91.72c-0.05,0-0.11-0.01-0.16-0.03c-0.19-0.09-0.27-0.31-0.18-0.5c2.79-6.06,5.32-10.83,10.24-12.61
		c3.85-1.4,8.7-0.66,14.81,2.25c0.19,0.09,0.27,0.31,0.18,0.5c-0.09,0.19-0.31,0.27-0.5,0.18c-5.92-2.82-10.57-3.54-14.23-2.22
		c-4.65,1.68-7.1,6.33-9.82,12.22C149.46,91.64,149.32,91.72,149.18,91.72z"/>
	<path class="st0" d="M149.06,133.59c-1.08,0-2.15-0.32-3.07-0.94c-1.27-0.75-2.5-1.62-3.64-2.58l-0.37-0.31
		c-0.56-0.47-1.14-0.95-1.71-1.37c-1.16-0.98-2.66-2.5-2.55-4.6c0.16-1.44,0.84-2.73,1.92-3.67c1.28-1.16,2.75-2.08,4.37-2.72
		c0.89-0.39,1.82-0.73,2.75-1.01l0.27-0.08c2.52-0.74,2.82-0.7,3.02-0.4c1.43,2.17,3,3.27,4.78,3.38c0.17,0.01,0.31,0.13,0.34,0.3
		c0.4,1.93,0.49,3.91,0.24,5.86c-0.25,2.19-1.12,6.09-4.04,7.63C150.62,133.43,149.83,133.59,149.06,133.59z M149.5,116.46
		c-0.24,0.02-0.84,0.15-2.27,0.57l-0.28,0.08c-0.9,0.27-1.8,0.6-2.67,0.98c-1.54,0.62-2.94,1.49-4.16,2.59
		c-0.94,0.81-1.53,1.93-1.67,3.16c-0.08,1.73,1.17,3.02,2.27,3.95c0.57,0.42,1.16,0.91,1.73,1.38l0.37,0.3c0,0,0,0,0,0
		c1.11,0.94,2.31,1.79,3.56,2.52c1.4,0.94,3.14,1.08,4.66,0.4c2.59-1.37,3.38-5.01,3.62-7.05c0.22-1.79,0.16-3.58-0.18-5.35
		C152.6,119.8,150.97,118.63,149.5,116.46z"/>
	<path class="st0" d="M156.94,117.04c-0.15,0-0.28-0.09-0.34-0.22c-0.75-1.68-2.32-2.77-4.82-3.35c-0.35-0.02-0.5-0.23-0.65-3.09
		l-0.01-0.16c-0.07-0.97-0.07-1.96,0-2.93c0.03-1.72,0.38-3.42,1.03-5.03c0.5-1.32,1.48-2.4,2.76-3.04c1.85-0.77,3.67-0.03,5.2,0.81
		l0.36,0.2c0.67,0.37,1.34,0.75,2,1.14c1.3,0.75,2.54,1.61,3.69,2.56c1.53,1.11,2.4,3,2.23,4.91c-0.46,3.29-3.83,5.43-5.8,6.42
		c-1.76,0.89-3.64,1.48-5.59,1.76C156.97,117.04,156.96,117.04,156.94,117.04z M152.1,112.79c2.52,0.62,4.2,1.78,5.06,3.46
		c1.77-0.28,3.48-0.83,5.08-1.64c1.84-0.92,4.99-2.91,5.4-5.84c0.14-1.63-0.61-3.26-1.95-4.23c-1.14-0.94-2.34-1.78-3.61-2.51
		c0,0,0,0,0,0c-0.66-0.39-1.33-0.76-1.99-1.14l-0.36-0.2c-1.37-0.75-2.98-1.42-4.52-0.78c-1.08,0.54-1.93,1.47-2.37,2.63
		c-0.62,1.53-0.95,3.14-0.98,4.78c-0.06,0.96-0.06,1.91,0,2.85l0.01,0.17C151.96,112,152.05,112.59,152.1,112.79z M151.86,112.74
		c0.05,0.01,0.1,0.02,0.15,0.04C151.97,112.75,151.92,112.74,151.86,112.74z"/>
	<path class="st0" d="M149.76,116.5c-0.16,0-0.31-0.1-0.36-0.26c-0.21-0.69-0.14-1.42,0.19-2.05c0.34-0.64,0.9-1.1,1.59-1.32
		c0.21-0.07,0.43-0.1,0.66-0.12c0.2,0,0.38,0.15,0.39,0.36c0.01,0.21-0.15,0.38-0.36,0.39c-0.16,0.01-0.32,0.04-0.47,0.08
		c-1.02,0.32-1.6,1.41-1.29,2.43c0.06,0.2-0.05,0.41-0.25,0.47C149.83,116.49,149.8,116.5,149.76,116.5z"/>
	<path class="st0" d="M154.88,120.08c-0.2,0-0.36-0.16-0.37-0.36c-0.01-0.21,0.15-0.38,0.36-0.39c1.07-0.05,1.9-0.96,1.85-2.03
		c-0.01-0.16-0.04-0.33-0.08-0.48c-0.06-0.2,0.05-0.41,0.25-0.47c0.2-0.06,0.41,0.05,0.47,0.25c0.07,0.22,0.11,0.44,0.12,0.67
		c0.07,1.48-1.08,2.75-2.57,2.82C154.89,120.08,154.89,120.08,154.88,120.08z"/>
	<path class="st0" d="M147.8,123.62c-0.06,0-0.12-0.01-0.18-0.05c-0.18-0.1-0.25-0.33-0.15-0.51c1.02-1.85,2.45-4.07,4.51-4.75
		c0.2-0.07,0.41,0.04,0.47,0.24c0.07,0.2-0.04,0.41-0.24,0.47c-1.41,0.47-2.68,1.83-4.09,4.41
		C148.06,123.54,147.93,123.62,147.8,123.62z"/>
	<path class="st0" d="M155.27,114.97c-0.2,0-0.37-0.16-0.37-0.36c-0.09-2.13,1.52-4.25,2.93-5.86c0.14-0.16,0.37-0.17,0.53-0.03
		c0.16,0.14,0.17,0.37,0.03,0.53c-1.96,2.24-2.81,3.88-2.75,5.34c0.01,0.21-0.15,0.38-0.36,0.39
		C155.28,114.97,155.28,114.97,155.27,114.97z"/>
	<path class="st0" d="M164.13,143.27c-0.58,0-0.96-0.85-1.2-1.77c-0.73,0.64-1.55,1.15-2.02,0.75c-0.47-0.39-0.12-1.29,0.37-2.13
		c-0.97-0.06-1.91-0.28-1.96-0.89c-0.05-0.61,0.83-1,1.77-1.25c-0.65-0.73-1.16-1.55-0.75-2.03c0.4-0.46,1.29-0.12,2.12,0.38
		c0.06-0.97,0.28-1.9,0.9-1.97c0.62-0.04,1.02,0.82,1.26,1.77c0.73-0.65,1.55-1.15,2.02-0.75c0.47,0.39,0.12,1.29-0.37,2.13
		c0.97,0.06,1.91,0.28,1.96,0.89c0.05,0.61-0.83,1-1.77,1.25c0.65,0.74,1.16,1.56,0.76,2.02c-0.4,0.47-1.3,0.13-2.13-0.38
		c-0.06,0.97-0.28,1.9-0.9,1.97C164.18,143.26,164.16,143.27,164.13,143.27z M163.16,140.39c0.04,0,0.07,0.01,0.11,0.02
		c0.13,0.04,0.23,0.15,0.26,0.29c0.14,0.74,0.4,1.5,0.59,1.75c0.14-0.28,0.25-1.08,0.25-1.83c0-0.14,0.08-0.27,0.2-0.33
		c0.12-0.06,0.27-0.06,0.39,0.02c0.62,0.43,1.33,0.78,1.64,0.84c-0.12-0.3-0.6-0.93-1.12-1.45c-0.1-0.1-0.13-0.24-0.09-0.37
		c0.04-0.13,0.15-0.23,0.29-0.26c0.73-0.14,1.48-0.4,1.75-0.59c-0.29-0.13-1.07-0.24-1.81-0.24c-0.14,0-0.27-0.08-0.33-0.2
		c-0.06-0.12-0.06-0.27,0.02-0.39c0.42-0.62,0.77-1.33,0.82-1.65c-0.3,0.11-0.93,0.59-1.45,1.11c-0.1,0.1-0.24,0.13-0.38,0.09
		c-0.13-0.04-0.23-0.15-0.26-0.29c-0.14-0.74-0.4-1.5-0.59-1.75c-0.14,0.28-0.25,1.08-0.25,1.83c0,0.14-0.08,0.27-0.2,0.33
		c-0.12,0.06-0.27,0.06-0.39-0.02c-0.62-0.42-1.33-0.78-1.64-0.83c0.11,0.29,0.59,0.93,1.12,1.45c0.1,0.1,0.13,0.24,0.09,0.37
		s-0.15,0.23-0.29,0.26c-0.73,0.14-1.48,0.4-1.75,0.59c0.29,0.13,1.07,0.24,1.81,0.24c0.14,0,0.27,0.08,0.33,0.2
		c0.06,0.12,0.06,0.27-0.02,0.39c-0.42,0.62-0.77,1.33-0.82,1.65c0.3-0.11,0.93-0.59,1.45-1.11
		C162.97,140.43,163.06,140.39,163.16,140.39z M166.71,141.15C166.71,141.15,166.71,141.15,166.71,141.15L166.71,141.15
		C166.71,141.15,166.71,141.15,166.71,141.15z"/>
	<path class="st0" d="M165.21,10.75h-26.94c-1.34,0-2.44-1.09-2.44-2.44V6.45c0-1.34,1.09-2.44,2.44-2.44h26.94
		c1.34,0,2.44,1.09,2.44,2.44v1.87C167.65,9.66,166.55,10.75,165.21,10.75z M138.27,4.77c-0.93,0-1.69,0.76-1.69,1.69v1.87
		c0,0.93,0.76,1.69,1.69,1.69h26.94c0.93,0,1.69-0.76,1.69-1.69V6.45c0-0.93-0.76-1.69-1.69-1.69H138.27z"/>
	<path class="st0" d="M117.42,125.75h-2.8c-0.13,0-0.26-0.07-0.32-0.19l-1.4-2.43c-0.07-0.12-0.07-0.26,0-0.38l1.4-2.42
		c0.07-0.12,0.19-0.19,0.32-0.19h2.8c0.13,0,0.26,0.07,0.32,0.19l1.4,2.42c0.07,0.12,0.07,0.26,0,0.38l-1.4,2.43
		C117.68,125.68,117.55,125.75,117.42,125.75z M114.84,125h2.37l1.18-2.05l-1.18-2.04h-2.37l-1.18,2.04L114.84,125z"/>
	<path class="st0" d="M126.45,135.74h-4c-0.13,0-0.26-0.07-0.32-0.19l-2-3.46c-0.07-0.12-0.07-0.26,0-0.38l2-3.47
		c0.07-0.12,0.19-0.19,0.32-0.19h4c0.13,0,0.26,0.07,0.32,0.19l2.01,3.47c0.07,0.12,0.07,0.26,0,0.38l-2.01,3.46
		C126.71,135.66,126.58,135.74,126.45,135.74z M122.67,134.99h3.57l1.79-3.08l-1.79-3.1h-3.57l-1.78,3.1L122.67,134.99z"/>
	<path class="st0" d="M140.99,145.68h-5.74c-0.13,0-0.26-0.07-0.32-0.19l-2.87-4.98c-0.07-0.12-0.07-0.26,0-0.38l2.87-4.97
		c0.07-0.12,0.19-0.19,0.32-0.19h5.74c0.13,0,0.26,0.07,0.32,0.19l2.87,4.97c0.07,0.12,0.07,0.26,0,0.38l-2.87,4.98
		C141.25,145.61,141.12,145.68,140.99,145.68z M135.47,144.93h5.31l2.65-4.6l-2.65-4.59h-5.31l-2.65,4.59L135.47,144.93z"/>
	<path class="st0" d="M209.33,66.44c-0.19,0-0.36-0.15-0.37-0.34c-0.02-0.21,0.13-0.39,0.34-0.41c8.38-0.77,12.74-4.24,13.92-6.98
		c0.55-1.29,0.49-2.47-0.19-3.34c-0.91-1.16-2.83-1.6-5.27-1.19c-0.16,0.03-0.32-0.06-0.4-0.2c-0.07-0.15-0.04-0.33,0.08-0.44
		c5.83-5.56,7.1-10.37,5.82-12.49c-0.79-1.31-2.52-1.63-4.73-0.88c-0.17,0.06-0.35-0.01-0.44-0.16c-0.09-0.15-0.07-0.34,0.06-0.46
		c6-5.89,6.21-10.49,4.58-12.63c-1.24-1.62-3.57-1.9-5.67-0.68c-0.14,0.08-0.31,0.07-0.43-0.04c-0.12-0.1-0.16-0.27-0.11-0.42
		c1.86-4.88,1.78-8.89-0.22-10.71c-1-0.91-2.37-1.07-3.67-0.43c-2.07,1.02-4.1,4.15-3.6,9.87c0.02,0.21-0.13,0.39-0.34,0.41
		c-0.2,0.02-0.39-0.14-0.41-0.34c-0.53-6.1,1.73-9.48,4.01-10.61c1.58-0.78,3.27-0.58,4.5,0.54c2.11,1.92,2.37,5.86,0.74,10.65
		c2.2-0.89,4.48-0.41,5.78,1.29c1.73,2.26,1.71,6.87-3.71,12.66c1.94-0.32,3.49,0.22,4.29,1.54c1.41,2.34,0.32,7.1-5.16,12.65
		c2.21-0.16,3.93,0.39,4.88,1.61c0.84,1.08,0.95,2.57,0.29,4.1c-1.33,3.07-5.84,6.64-14.54,7.43
		C209.35,66.44,209.34,66.44,209.33,66.44z"/>
	<path class="st0" d="M205.02,66.17c-0.04,0-0.09-0.01-0.13-0.02c-9.17-3.47-12.9-8.62-13.33-12.28c-0.2-1.73,0.34-3.17,1.49-3.96
		c1.21-0.82,2.96-0.82,4.9-0.02c-3.41-7-2.9-11.87-0.8-13.64c1.19-1,2.84-1.02,4.56-0.09c-3.26-7.23-1.8-11.6,0.57-13.18
		c2.02-1.35,4.72-0.81,6.57,1.32c0.14,0.16,0.12,0.39-0.04,0.53s-0.39,0.12-0.53-0.04c-1.59-1.83-3.88-2.32-5.58-1.18
		c-2.24,1.5-3.52,5.92,0.26,13.43c0.08,0.16,0.04,0.35-0.1,0.46c-0.13,0.11-0.33,0.11-0.47,0.01c-1.85-1.42-3.59-1.66-4.76-0.67
		c-1.91,1.61-2.26,6.58,1.47,13.7c0.08,0.15,0.05,0.32-0.07,0.44c-0.12,0.12-0.3,0.14-0.44,0.06c-2.08-1.12-3.95-1.3-5.13-0.5
		c-0.92,0.62-1.34,1.81-1.17,3.25c0.39,3.29,3.99,8.31,12.85,11.67c0.19,0.07,0.29,0.29,0.22,0.48
		C205.31,66.07,205.17,66.17,205.02,66.17z"/>
	<path class="st0" d="M204.57,78.13c-0.11,0-0.23-0.05-0.3-0.15c-1.4-1.85,0.51-15.86,5.69-41.65c0.04-0.2,0.24-0.33,0.44-0.29
		c0.2,0.04,0.33,0.24,0.29,0.44c-6.98,34.78-6.4,40.29-5.83,41.05c0.12,0.17,0.09,0.4-0.07,0.53
		C204.73,78.11,204.65,78.13,204.57,78.13z"/>
	<path class="st0" d="M192.62,139.87c-0.04,0-0.08-0.01-0.13-0.02c-20.08-7.18-18.18-17.23-16.65-25.3c0.59-3.1,1.09-5.79,0.32-7.93
		c-0.06-0.18,0.01-0.37,0.18-0.46c0.16-0.09,0.37-0.04,0.48,0.11c1.3,1.78,3.79,2.98,6.42,4.25c7.01,3.37,15.74,7.57,11.25,25.57
		c-0.05,0.2-0.25,0.32-0.46,0.27c-0.2-0.05-0.32-0.25-0.27-0.46c4.34-17.41-4.08-21.46-10.85-24.72c-2.16-1.04-4.23-2.04-5.7-3.37
		c0.28,2.04-0.17,4.4-0.64,6.86c-1.47,7.79-3.31,17.49,16.17,24.45c0.2,0.07,0.3,0.29,0.23,0.48
		C192.92,139.77,192.77,139.87,192.62,139.87z"/>
	<path class="st0" d="M198.59,145.68c-0.08,0-0.17-0.03-0.24-0.08c-7.47-6.12-16.17-20.04-16.43-24.86
		c-0.01-0.21,0.15-0.38,0.35-0.39c0.19-0.03,0.38,0.15,0.39,0.35c0.25,4.69,8.8,18.3,16.15,24.32c0.16,0.13,0.18,0.37,0.05,0.53
		C198.81,145.64,198.7,145.68,198.59,145.68z"/>
	<path class="st0" d="M229.75,91.58c-5.68,0-12.4-2.26-13.77-8.74c-0.02-0.11,0.01-0.23,0.08-0.32c3.6-4.15,7.15-7.88,10.92-8.05
		c1.12,0.11,2.18,0.46,3.11,1c0.94-0.54,2-0.88,3.08-1c3.78,0.16,7.2,3.74,10.97,8.05c0.07,0.08,0.1,0.19,0.09,0.3
		c-0.75,5.69-7.61,8.52-13.67,8.76C230.29,91.58,230.02,91.58,229.75,91.58z M216.76,82.86c1.43,6.2,8.29,8.19,13.78,7.95
		c5.87-0.22,12.15-3.02,12.93-7.94c-3.61-4.12-6.88-7.51-10.27-7.66c-0.99,0.11-2.01,0.45-2.91,1c-0.12,0.07-0.27,0.07-0.39,0
		c-0.88-0.55-1.9-0.9-2.93-1.01C223.58,75.36,220.2,78.9,216.76,82.86z"/>
	<path class="st0" d="M243.86,83.13c-0.01,0-0.02,0-0.02,0c-9.12-0.6-18.36-0.6-27.48,0c-0.21,0.02-0.38-0.14-0.4-0.35
		s0.14-0.38,0.35-0.4c9.15-0.6,18.43-0.6,27.58,0c0.21,0.01,0.36,0.19,0.35,0.4C244.22,82.98,244.06,83.13,243.86,83.13z"/>
	<path class="st0" d="M177.91,70.38c-0.01,0-0.01,0-0.02,0c-0.2-0.01-0.36-0.17-0.36-0.37V4.12c0-0.21,0.17-0.38,0.38-0.38h24.45
		c0.16,0,0.31,0.1,0.36,0.26c0.05,0.15,0,0.32-0.13,0.42c-17.7,13.11-21.36,36.46-24.3,65.62C178.26,70.23,178.1,70.38,177.91,70.38
		z M178.29,4.5v58.39c2.86-25.57,7.21-46.1,22.96-58.39H178.29z"/>
	<path class="st0" d="M207.74,110.33c-0.05,0-0.1-0.01-0.15-0.03c-0.19-0.08-0.28-0.3-0.2-0.49c2.67-6.2,3.61-11.33,2.86-15.7
		c-0.98-5.78-5.27-8.31-13.48-7.96c-4.28,0.18-11.64-0.55-12.79-7.56c-0.65-4.09,2.1-7.88,6.12-8.51c3.29-0.47,6.4,1.79,6.95,5.06
		c0.21,1.37-0.1,2.65-0.87,3.69c-0.76,1.04-1.89,1.72-3.17,1.92c-2.2,0.33-4.21-1.12-4.6-3.31c-0.28-1.83,0.94-3.48,2.69-3.75
		c1.5-0.22,2.88,0.83,3.1,2.32c0.19,1.22-0.64,2.36-1.84,2.54c-1.01,0.15-1.96-0.56-2.13-1.56c-0.03-0.2,0.11-0.4,0.31-0.43
		c0.21-0.03,0.4,0.11,0.43,0.31c0.1,0.61,0.65,1.03,1.28,0.94c0.79-0.12,1.34-0.88,1.21-1.67c-0.16-1.1-1.17-1.85-2.25-1.7
		c-1.35,0.2-2.28,1.47-2.07,2.82c0.32,1.83,1.97,3.01,3.75,2.75c1.08-0.17,2.03-0.74,2.67-1.62c0.65-0.88,0.91-1.96,0.75-3.04
		c-0.5-2.95-3.23-4.94-6.11-4.52c-3.6,0.57-6.08,3.97-5.51,7.58c1.06,6.52,7.99,7.19,12.03,7.01c8.55-0.36,13.22,2.44,14.26,8.58
		c0.77,4.52-0.18,9.79-2.92,16.12C208.02,110.25,207.88,110.33,207.74,110.33z"/>
	<path class="st0" d="M194.1,106.52c-0.83,0-1.36-1.5-1.65-2.75c-0.89,0.82-2.28,1.87-3,1.31c-0.74-0.57,0.06-2.13,0.72-3.17
		c-1.31-0.06-2.93-0.3-3.01-1.17c-0.08-0.88,1.47-1.41,2.75-1.71c-0.82-0.89-1.87-2.28-1.32-3c0.57-0.74,2.13,0.06,3.17,0.72
		c0.06-1.31,0.3-2.93,1.17-3.01c0.9-0.08,1.41,1.47,1.71,2.75c0.89-0.82,2.29-1.88,3-1.32c0.73,0.57-0.07,2.13-0.73,3.17
		c1.32,0.06,2.94,0.3,3.01,1.18c0.07,0.87-1.48,1.41-2.75,1.7c0.89,1,1.88,2.37,1.32,3.02c-0.57,0.67-2.04-0.05-3.15-0.75
		c-0.06,1.32-0.3,2.94-1.17,3.02C194.14,106.51,194.12,106.52,194.1,106.52z M192.91,102.26l0.13,0.7c0.27,1.38,0.77,2.72,1.06,2.81
		c0.24-0.14,0.48-1.55,0.48-2.96v-0.71l0.59,0.41c1.14,0.79,2.45,1.39,2.73,1.26c0.06-0.31-0.76-1.5-1.74-2.51l-0.48-0.5l0.69-0.13
		c1.37-0.25,2.73-0.76,2.8-1.05c-0.13-0.25-1.54-0.5-2.96-0.5h-0.72l0.42-0.59c0.89-1.26,1.41-2.5,1.26-2.72
		c-0.23-0.11-1.38,0.61-2.5,1.73l-0.5,0.51l-0.13-0.7c-0.26-1.39-0.76-2.73-1.05-2.82c-0.25,0.13-0.5,1.54-0.5,2.96v0.72l-0.59-0.42
		c-1.26-0.89-2.5-1.41-2.72-1.25c-0.13,0.22,0.61,1.39,1.73,2.5l0.51,0.5l-0.71,0.13c-1.39,0.26-2.73,0.76-2.82,1.05
		c0.13,0.25,1.54,0.5,2.96,0.5h0.72l-0.42,0.59c-0.89,1.26-1.41,2.5-1.25,2.72c0.23,0.14,1.39-0.6,2.5-1.72L192.91,102.26z
		 M197.92,103.75L197.92,103.75C197.92,103.75,197.92,103.75,197.92,103.75C197.92,103.75,197.92,103.75,197.92,103.75
		L197.92,103.75z"/>
	<path class="st0" d="M218.71,4l-2.23,2.5c-0.1,0.1-0.25,0.1-0.35,0c-0.1-0.09-0.1-0.24-0.01-0.34c0,0,0.01-0.01,0.01-0.01l0,0
		l2.37-2.41c0.06-0.06,0.16-0.06,0.22,0c0.07,0.04,0.09,0.14,0.05,0.21C218.75,3.97,218.73,3.99,218.71,4z"/>
	<path class="st0" d="M220.67,3.54l2.53,2.23c0.1,0.09,0.1,0.24,0.01,0.34c0,0-0.01,0.01-0.01,0.01c-0.1,0.1-0.26,0.1-0.36,0l0,0
		l-2.4-2.37c-0.06-0.06-0.06-0.16,0-0.22c0.06-0.06,0.15-0.07,0.21-0.01C220.66,3.53,220.66,3.53,220.67,3.54z"/>
	<path class="st0" d="M219.74,4.16l0.1,3.37c0,0.14-0.11,0.25-0.25,0.26c-0.14,0-0.25-0.11-0.25-0.25l0,0l0.09-3.37
		c0.01-0.08,0.08-0.15,0.16-0.15C219.67,4.02,219.73,4.08,219.74,4.16z"/>
	<path class="st0" d="M247.44,56.3c-0.18,0-0.35-0.06-0.49-0.17c-0.52-0.38-0.76-1.4-0.82-3.5c-0.01-0.21,0.16-0.38,0.36-0.39
		c0,0,0.01,0,0.01,0c0.2,0,0.37,0.16,0.38,0.36c0.06,2.14,0.32,2.77,0.52,2.92c0.01,0.01,0.03,0.02,0.05,0.02l0,0
		c1.19-0.84,1.5-2.48,0.68-3.7c-0.25-0.37-0.58-0.68-0.98-0.88l-0.33,0.52c-0.11,0.17-0.35,0.22-0.52,0.11
		c-0.17-0.11-0.22-0.34-0.11-0.52l0.51-0.79c0.1-0.15,0.29-0.21,0.45-0.15c0.66,0.26,1.21,0.71,1.6,1.29
		c0.51,0.77,0.69,1.68,0.51,2.59s-0.7,1.68-1.47,2.19c-0.03,0.02-0.07,0.04-0.11,0.05C247.61,56.28,247.52,56.3,247.44,56.3z"/>
	<path class="st0" d="M252.66,52.27c-0.44,0-0.92-0.09-1.43-0.27c-1.53-0.41-2.61-1.6-2.88-3.18c-0.25-1.43,0.23-2.84,1.18-3.49
		c0.48-0.33,1.5-0.75,3,0.15c2.08,0.99,2.95,3.78,2.26,5.42C254.42,51.8,253.66,52.27,252.66,52.27z M250.8,45.69
		c-0.31,0-0.6,0.09-0.85,0.26c-0.71,0.49-1.06,1.62-0.87,2.75c0.11,0.62,0.55,2.1,2.35,2.58c0.01,0,0.02,0.01,0.03,0.01
		c1.32,0.48,2.25,0.24,2.63-0.67c0.56-1.34-0.22-3.67-1.92-4.48C251.67,45.84,251.21,45.69,250.8,45.69z"/>
	<path class="st0" d="M247.99,62.25c-0.17,0-0.34-0.05-0.5-0.15c-0.45-0.29-0.86-1.07-0.62-2.41c0.03-0.2,0.22-0.34,0.43-0.31
		c0.2,0.04,0.34,0.23,0.31,0.43c-0.18,1.04,0.11,1.53,0.29,1.65c0.08,0.05,0.14,0.03,0.18,0c0.16-0.11,0.4-0.59,0.17-1.63
		c-0.04-0.2,0.08-0.4,0.29-0.45c0.21-0.04,0.4,0.09,0.45,0.29c0.24,1.13,0.07,2.03-0.48,2.41C248.35,62.2,248.17,62.25,247.99,62.25
		z"/>
	<path class="st0" d="M250.43,62.05c-0.17,0-0.34-0.05-0.5-0.15c-0.45-0.29-0.86-1.07-0.63-2.4c0.03-0.2,0.21-0.34,0.43-0.31
		c0.2,0.04,0.34,0.23,0.3,0.43c-0.18,1.04,0.11,1.53,0.29,1.64c0.08,0.05,0.14,0.03,0.18,0c0.16-0.11,0.4-0.59,0.17-1.63
		c-0.04-0.2,0.08-0.4,0.29-0.45c0.21-0.04,0.4,0.09,0.45,0.29c0.24,1.13,0.07,2.03-0.48,2.4C250.78,62,250.6,62.05,250.43,62.05z"/>
	<path class="st0" d="M245.56,56.25c-0.08,0-0.16-0.01-0.24-0.03c-0.04-0.01-0.08-0.03-0.11-0.05c-0.77-0.51-1.29-1.28-1.47-2.19
		c-0.18-0.9,0-1.82,0.5-2.59c0.39-0.6,0.96-1.05,1.62-1.31c0.16-0.06,0.36,0,0.45,0.15l0.5,0.79c0.11,0.18,0.06,0.41-0.12,0.52
		c-0.17,0.11-0.41,0.06-0.52-0.12l-0.33-0.51c-0.4,0.21-0.74,0.52-0.99,0.9c-0.4,0.6-0.54,1.32-0.39,2.02
		c0.14,0.68,0.52,1.27,1.09,1.67c0.02,0,0.04-0.01,0.05-0.02c0.2-0.15,0.45-0.78,0.51-2.93c0.01-0.21,0.2-0.35,0.39-0.36
		c0.21,0.01,0.37,0.18,0.36,0.39c-0.05,1.78-0.21,3.06-0.81,3.51C245.91,56.2,245.74,56.25,245.56,56.25z"/>
	<path class="st0" d="M248.15,69.82c-0.25,0-0.5-0.02-0.74-0.06l-1.89-0.09c-0.78,0.15-1.66,0.04-2.46-0.3
		c-1.16-0.67-2.12-1.52-2.91-2.55c-0.64-1.02-1.16-2.09-1.55-3.2c-0.2-0.46-0.36-1-0.52-1.52l-1.3-4.21
		c-0.01-0.04-0.02-0.07-0.02-0.11v-0.17c0-0.18,0.13-0.34,0.32-0.37c0.76-0.12,1.55,0.09,2.15,0.58c0.05,0.04,0.08,0.09,0.11,0.15
		c0.53,1.27,0.99,2.59,1.38,3.91c0.1,0.33,0.18,0.67,0.26,1.01c0.09,0.38,0.17,0.75,0.3,1.12c0.24,0.61,0.59,1.17,1.04,1.67
		c0.74,0.94,1.95,1.36,3.09,1.08c0.03-0.01,0.07-0.01,0.1-0.01l1.89,0.05c1.22,0.29,2.42-0.12,3.14-1.05
		c0.47-0.52,0.82-1.08,1.07-1.7c0.13-0.37,0.22-0.77,0.32-1.18c0.07-0.31,0.14-0.62,0.23-0.93c0.44-1.25,0.92-2.57,1.47-3.87
		c0.02-0.06,0.06-0.1,0.11-0.14c0.6-0.49,1.38-0.7,2.15-0.58c0.18,0.03,0.32,0.19,0.32,0.37v0.17c0,0.04-0.01,0.08-0.02,0.11
		l-1.16,3.71c-0.18,0.67-0.41,1.36-0.67,2.02c-0.38,1.09-0.88,2.16-1.51,3.16c-0.81,1.05-1.77,1.9-2.89,2.55
		C249.38,69.69,248.76,69.82,248.15,69.82z M245.48,68.92l1.99,0.08c0.02,0,0.03,0,0.05,0c0.72,0.12,1.45,0.04,2.12-0.25
		c0.99-0.58,1.88-1.37,2.61-2.31c0.58-0.92,1.06-1.94,1.42-2.99c0.26-0.66,0.47-1.32,0.65-1.98l1.07-3.43
		c-0.39,0.02-0.78,0.15-1.09,0.39c-0.53,1.25-0.99,2.52-1.41,3.72c-0.08,0.27-0.15,0.57-0.21,0.86c-0.09,0.42-0.19,0.85-0.35,1.28
		c-0.28,0.72-0.68,1.37-1.2,1.93c-0.89,1.13-2.39,1.65-3.82,1.3l-1.76-0.04c-1.41,0.33-2.9-0.19-3.79-1.33
		c-0.49-0.54-0.89-1.19-1.17-1.89c-0.14-0.41-0.23-0.82-0.32-1.21c-0.07-0.32-0.15-0.64-0.25-0.96c-0.38-1.27-0.82-2.53-1.32-3.75
		c-0.32-0.24-0.7-0.37-1.09-0.39l1.21,3.93c0.15,0.52,0.3,1.01,0.49,1.45c0.38,1.09,0.87,2.1,1.46,3.05c0.71,0.92,1.6,1.7,2.63,2.3
		C244.03,68.96,244.76,69.05,245.48,68.92z"/>
	<path class="st0" d="M240.34,52.22c-1,0-1.75-0.47-2.13-1.37c-0.69-1.64,0.18-4.44,2.29-5.44c1.47-0.88,2.5-0.46,2.98-0.13
		c0.96,0.66,1.43,2.06,1.18,3.49c-0.27,1.58-1.35,2.76-2.89,3.17C241.26,52.13,240.77,52.22,240.34,52.22z M242.2,45.64
		c-0.41,0-0.86,0.15-1.35,0.43c-1.73,0.83-2.51,3.15-1.95,4.49c0.38,0.91,1.31,1.15,2.63,0.67c0.01,0,0.02-0.01,0.03-0.01
		c1.8-0.48,2.25-1.96,2.36-2.58c0.2-1.13-0.16-2.26-0.87-2.75C242.8,45.73,242.51,45.64,242.2,45.64z"/>
	<path class="st0" d="M244.09,59.95c-1.3,0-2.58-0.3-3.75-0.87c-0.16-0.08-0.24-0.26-0.2-0.43c0.14-0.55,0.13-0.95-0.04-1.23
		c-0.28-0.47-1.01-0.65-1.86-0.87c-1.48-0.38-3.5-0.9-3.92-3.5c-0.02-0.1,0.01-0.2,0.07-0.28s0.15-0.13,0.25-0.15
		c1.91-0.27,2.05-2.23,2.04-5.19c0-0.29,0-0.59,0-0.88c-0.27,0.63-0.33,1.59-0.38,2.47c-0.08,1.41-0.17,2.74-1.21,2.74
		c-0.17,0-0.32-0.12-0.36-0.29c-1.63-6.78-1.27-11.73,1.08-14.72c1.84-2.34,4.92-3.52,9.16-3.52h3c0.01,0,0.02,0,0.02,0
		c4.21,0,7.28,1.18,9.12,3.51c2.36,2.99,2.73,7.94,1.1,14.73c-0.04,0.17-0.19,0.29-0.36,0.29c-1.04,0-1.12-1.33-1.2-2.73
		c-0.05-0.89-0.11-1.87-0.39-2.5c0,0.3,0,0.61,0,0.91c0,2.95,0.14,4.9,2.04,5.17c0.1,0.01,0.19,0.07,0.25,0.15
		c0.06,0.08,0.08,0.18,0.07,0.28c-0.42,2.6-2.44,3.12-3.92,3.5c-0.85,0.22-1.58,0.41-1.85,0.87c-0.17,0.28-0.18,0.68-0.03,1.23
		c0.04,0.17-0.04,0.35-0.2,0.43c-1.35,0.66-2.85,0.95-4.35,0.85l-3.52,0c-0.01,0-0.01,0-0.03,0
		C244.5,59.94,244.29,59.95,244.09,59.95z M240.94,58.53c1.16,0.51,2.43,0.74,3.7,0.65c0.02,0,0.04,0,0.06,0c0.01,0,0.02,0,0.03,0
		h3.55c1.3,0.09,2.57-0.13,3.73-0.65c-0.11-0.61-0.05-1.1,0.18-1.49c0.43-0.73,1.35-0.97,2.32-1.22c1.4-0.36,2.85-0.73,3.29-2.54
		c-2.3-0.6-2.3-3.38-2.29-5.84c0-0.63,0-1.26-0.03-1.85c-0.01-0.13,0.05-0.25,0.16-0.33c0.11-0.07,0.24-0.09,0.36-0.04
		c1.2,0.51,1.31,2.24,1.4,3.76c0.04,0.6,0.08,1.35,0.22,1.75c1.42-6.26,1.05-10.81-1.09-13.53c-1.69-2.14-4.56-3.23-8.53-3.23
		c-0.01,0-0.02,0-0.02,0h-3c-4,0-6.88,1.09-8.57,3.24c-2.14,2.72-2.5,7.27-1.07,13.53c0.15-0.4,0.19-1.17,0.23-1.78
		c0.09-1.51,0.19-3.23,1.38-3.75c0.12-0.05,0.26-0.04,0.36,0.03c0.11,0.07,0.17,0.2,0.16,0.33c-0.03,0.59-0.03,1.21-0.03,1.83
		c0.01,2.47,0.02,5.26-2.3,5.86c0.45,1.81,1.89,2.18,3.29,2.54c0.97,0.25,1.88,0.48,2.32,1.22
		C240.99,57.43,241.05,57.92,240.94,58.53z"/>
	<path class="st0" d="M242.74,62.05c-0.18,0-0.35-0.06-0.51-0.17c-0.54-0.38-0.72-1.28-0.48-2.4c0.04-0.2,0.24-0.33,0.45-0.29
		c0.2,0.04,0.33,0.24,0.29,0.45c-0.22,1.04,0.02,1.52,0.17,1.63c0.04,0.03,0.1,0.05,0.18,0c0.18-0.11,0.47-0.6,0.29-1.64
		c-0.04-0.2,0.1-0.4,0.3-0.43c0.22-0.03,0.4,0.1,0.43,0.31c0.23,1.33-0.17,2.11-0.62,2.4C243.09,62,242.91,62.05,242.74,62.05z"/>
	<path class="st0" d="M245.56,62.13c-0.17,0-0.34-0.05-0.5-0.15c-0.45-0.29-0.86-1.07-0.62-2.41c0.03-0.2,0.22-0.34,0.43-0.31
		c0.2,0.04,0.34,0.23,0.31,0.43c-0.18,1.04,0.11,1.53,0.29,1.65c0.08,0.05,0.14,0.03,0.18,0c0.16-0.11,0.4-0.59,0.17-1.63
		c-0.04-0.2,0.08-0.4,0.29-0.45c0.21-0.04,0.4,0.09,0.45,0.29c0.24,1.13,0.06,2.03-0.48,2.41
		C245.92,62.08,245.74,62.13,245.56,62.13z"/>
	<path class="st0" d="M248.85,67.38c-0.02,0-0.05,0-0.08-0.01c-0.2-0.04-0.33-0.24-0.29-0.44c0.22-1.07-0.03-1.57-0.19-1.68
		c-0.04-0.03-0.09-0.05-0.18,0c-0.18,0.12-0.47,0.62-0.29,1.69c0.04,0.2-0.1,0.4-0.3,0.43c-0.22,0.03-0.4-0.1-0.43-0.31
		c-0.24-1.36,0.17-2.16,0.62-2.45c0.32-0.21,0.7-0.2,1.01,0.01c0.55,0.38,0.74,1.29,0.5,2.45
		C249.18,67.25,249.02,67.38,248.85,67.38z"/>
	<path class="st0" d="M246.2,67.38c-0.02,0-0.05,0-0.08-0.01c-0.2-0.04-0.33-0.24-0.29-0.44c0.22-1.07-0.03-1.57-0.19-1.68
		c-0.04-0.03-0.09-0.05-0.18,0c-0.18,0.12-0.47,0.62-0.29,1.69c0.04,0.2-0.1,0.4-0.3,0.43c-0.22,0.03-0.4-0.1-0.43-0.31
		c-0.24-1.36,0.17-2.16,0.62-2.45c0.32-0.21,0.7-0.2,1.01,0.01c0.55,0.38,0.74,1.29,0.5,2.45C246.53,67.25,246.38,67.38,246.2,67.38
		z"/>
	<path class="st0" d="M242.94,66.92c-0.09,0-0.19-0.03-0.26-0.1c-0.15-0.14-0.16-0.38-0.01-0.53c0.75-0.78,0.77-1.39,0.67-1.62
		c-0.07-0.15-0.18-0.15-0.21-0.15c-0.19,0.01-0.61,0.26-0.95,1.16c-0.07,0.19-0.29,0.29-0.48,0.22c-0.19-0.07-0.29-0.29-0.22-0.48
		c0.54-1.46,1.32-1.63,1.63-1.64c0.42-0.02,0.75,0.21,0.91,0.59c0.23,0.53,0.14,1.44-0.81,2.44
		C243.14,66.89,243.04,66.92,242.94,66.92z"/>
	<path class="st0" d="M250.55,66.46c-0.08,0-0.17-0.03-0.24-0.08c-1.05-0.87-1.25-1.76-1.08-2.3c0.12-0.39,0.44-0.66,0.84-0.7
		c0.3-0.03,1.1,0.06,1.81,1.45c0.09,0.18,0.02,0.41-0.16,0.5c-0.18,0.09-0.41,0.02-0.5-0.16c-0.44-0.86-0.87-1.05-1.08-1.04
		c-0.03,0-0.14,0.01-0.19,0.17c-0.07,0.24,0.02,0.83,0.84,1.5c0.16,0.13,0.18,0.37,0.05,0.53
		C250.77,66.42,250.66,66.46,250.55,66.46z"/>
	<path class="st0" d="M234.39,27.37c-0.03,0-0.06,0-0.09-0.01c-0.11-0.03-0.2-0.1-0.25-0.2c-0.14-0.29-3.44-7.07-2.82-9.56
		c0.23-0.92,0.95-1.41,1.87-1.27c1.21,0.18,2.77,1.51,3.14,3.43c1.33-1.48,3.28-2.01,4.47-1.52c0.78,0.33,1.11,1.06,0.89,1.95
		c-0.63,2.48-6.73,6.92-6.98,7.1C234.54,27.34,234.47,27.37,234.39,27.37z M232.8,17.05c-0.43,0-0.71,0.24-0.84,0.73
		c-0.43,1.72,1.55,6.48,2.57,8.64c1.91-1.42,5.9-4.69,6.33-6.41l0,0c0.13-0.53-0.02-0.9-0.45-1.08c-0.95-0.4-3.04,0.21-4.16,2.05
		c-0.09,0.15-0.27,0.21-0.43,0.17c-0.16-0.05-0.27-0.2-0.27-0.38c0.09-2.02-1.46-3.54-2.57-3.71
		C232.93,17.06,232.86,17.05,232.8,17.05z"/>
	<path class="st0" d="M222.54,106.44l-3.14-2.79c-0.1-0.1-0.1-0.26,0-0.36c0.1-0.1,0.25-0.1,0.35,0l0,0l3,2.94
		c0.05,0.06,0.05,0.16,0,0.22C222.69,106.5,222.6,106.5,222.54,106.44z"/>
	<path class="st0" d="M225.2,106.33l2.8-3.14c0.09-0.1,0.24-0.1,0.34-0.01c0,0,0.01,0.01,0.01,0.01c0.1,0.08,0.11,0.23,0.03,0.32
		c-0.01,0.01-0.02,0.02-0.03,0.03l0,0l-2.94,3c-0.06,0.06-0.16,0.06-0.22,0C225.14,106.48,225.14,106.39,225.2,106.33z"/>
	<path class="st0" d="M223,109.18l-2.8,3.14c-0.09,0.1-0.24,0.1-0.34,0.01c0,0-0.01-0.01-0.01-0.01c-0.1-0.1-0.1-0.26,0-0.36l0,0
		l2.94-3c0.06-0.06,0.16-0.06,0.22,0C223.07,109.02,223.07,109.11,223,109.18C223.01,109.17,223,109.18,223,109.18z"/>
	<path class="st0" d="M225.42,108.7l3.14,2.8c0.1,0.1,0.1,0.25,0,0.35c-0.09,0.1-0.24,0.1-0.34,0.01c0,0-0.01-0.01-0.01-0.01l0,0
		l-3-2.94c-0.06-0.06-0.06-0.15-0.01-0.21c0,0,0.01-0.01,0.01-0.01C225.27,108.64,225.36,108.65,225.42,108.7z"/>
	<path class="st0" d="M223.93,105.7l-0.09-4.2c-0.01-0.13,0.09-0.25,0.22-0.26c0.01,0,0.01,0,0.02,0c0.14,0,0.25,0.11,0.26,0.25l0,0
		l-0.1,4.2c0.01,0.08-0.05,0.14-0.13,0.15c-0.01,0-0.02,0-0.03,0C224,105.84,223.94,105.78,223.93,105.7z"/>
	<path class="st0" d="M224.24,109.45l0.1,4.21c0,0.14-0.11,0.25-0.25,0.25c-0.13,0.01-0.24-0.1-0.25-0.23c0,0,0-0.01,0-0.01l0,0
		l0.09-4.21c0.01-0.08,0.08-0.15,0.16-0.15C224.17,109.31,224.23,109.37,224.24,109.45z"/>
	<path class="st0" d="M218.1,146.46c-0.15,0-0.3-0.09-0.35-0.25c-0.07-0.19,0.03-0.41,0.23-0.48c30.47-11.01,48.84-33.81,54.6-67.78
		c0.03-0.21,0.22-0.34,0.43-0.31c0.2,0.04,0.34,0.23,0.31,0.43c-5.8,34.26-24.34,57.26-55.08,68.36
		C218.18,146.45,218.14,146.46,218.1,146.46z"/>
	<path class="st0" d="M228.68,142.07c-0.1,0-0.19-0.04-0.27-0.11c-0.15-0.15-0.14-0.38,0-0.53c3.35-3.31,5.26-7.72,5.38-12.43
		c0-0.21,0.18-0.37,0.38-0.37c0.21,0,0.37,0.18,0.37,0.38c-0.12,4.91-2.11,9.5-5.6,12.95C228.87,142.03,228.77,142.07,228.68,142.07
		z"/>
	<path class="st0" d="M233.52,132.38c-0.02,0-0.05,0-0.08-0.01c-2.35-0.48-3.64-1.17-4.08-2.18c-0.52-1.2,0.29-2.52,1.14-3.92
		c0.92-1.5,1.87-3.05,1.16-4.45c-0.07-0.13-0.05-0.29,0.04-0.4c0.09-0.12,0.23-0.17,0.38-0.13c2.64,0.62,4.87,2.24,6.29,4.55
		c0.11,0.18,0.05,0.41-0.12,0.52c-0.17,0.11-0.41,0.05-0.52-0.12c-1.19-1.93-3-3.34-5.14-4.02c0.34,1.54-0.6,3.08-1.45,4.46
		c-0.75,1.23-1.46,2.38-1.09,3.23c0.32,0.74,1.51,1.33,3.54,1.74c0.2,0.04,0.33,0.24,0.29,0.44
		C233.85,132.25,233.69,132.38,233.52,132.38z"/>
	<path class="st0" d="M236.11,132.17c-0.18,0-0.33-0.12-0.37-0.3c-0.04-0.2,0.09-0.4,0.3-0.44c1.42-0.27,2.27-0.71,2.61-1.33
		c0.46-0.86-0.07-2.11-0.63-3.43c-0.6-1.4-1.26-2.96-0.76-4.32c-1.03,0.08-2.06,0.24-3.06,0.47c-0.21,0.04-0.4-0.08-0.45-0.28
		c-0.04-0.2,0.08-0.4,0.28-0.45c1.26-0.28,2.56-0.46,3.85-0.53c0.17,0,0.28,0.07,0.35,0.19c0.07,0.13,0.06,0.28-0.02,0.4
		c-0.81,1.15-0.15,2.71,0.5,4.22c0.61,1.43,1.23,2.9,0.6,4.08c-0.45,0.84-1.47,1.4-3.13,1.72
		C236.16,132.17,236.13,132.17,236.11,132.17z"/>
	<path class="st0" d="M246.72,129.8c-0.06,0-0.13-0.02-0.19-0.05c-0.18-0.1-0.24-0.33-0.13-0.51c2.38-4.05,3.07-8.8,1.96-13.36
		c-0.05-0.2,0.07-0.4,0.28-0.45c0.2-0.05,0.4,0.07,0.45,0.28c1.16,4.75,0.43,9.7-2.04,13.92
		C246.97,129.74,246.85,129.8,246.72,129.8z"/>
	<path class="st0" d="M247.88,119.24c-1.77,0-2.89-0.35-3.47-1.08c-0.82-1.03-0.39-2.51,0.07-4.08c0.49-1.69,1-3.44-0.05-4.6
		c-0.1-0.11-0.12-0.26-0.07-0.4c0.06-0.13,0.19-0.22,0.33-0.23c2.67-0.06,5.32,0.92,7.27,2.75c0.15,0.14,0.16,0.38,0.02,0.53
		c-0.14,0.15-0.38,0.16-0.53,0.02c-1.63-1.54-3.79-2.44-6.02-2.54c0.73,1.39,0.23,3.13-0.23,4.68c-0.4,1.38-0.78,2.68-0.21,3.4
		c0.5,0.63,1.8,0.88,3.85,0.76c0.2-0.03,0.39,0.14,0.4,0.35c0.01,0.21-0.14,0.38-0.35,0.4C248.53,119.23,248.2,119.24,247.88,119.24
		z"/>
	<path class="st0" d="M251.37,118.33c-0.14,0-0.27-0.08-0.34-0.21c-0.09-0.19-0.01-0.41,0.17-0.5c1.3-0.63,2.01-1.28,2.17-1.97
		c0.22-0.95-0.62-2.02-1.51-3.15c-0.94-1.2-1.98-2.53-1.85-3.97c-0.97,0.35-1.93,0.77-2.85,1.25c-0.18,0.1-0.41,0.03-0.51-0.16
		c-0.1-0.18-0.03-0.41,0.16-0.51c1.15-0.6,2.36-1.11,3.59-1.51c0.14-0.04,0.29-0.01,0.39,0.1c0.1,0.1,0.13,0.25,0.08,0.39
		c-0.48,1.32,0.57,2.65,1.58,3.95c0.96,1.22,1.95,2.48,1.65,3.79c-0.21,0.93-1.06,1.74-2.57,2.48
		C251.48,118.31,251.43,118.33,251.37,118.33z"/>
	<path class="st0" d="M260.2,113.83c-0.04,0-0.08-0.01-0.12-0.02c-0.2-0.07-0.3-0.28-0.24-0.48c1.5-4.45,1.22-9.24-0.79-13.48
		c-0.09-0.19-0.01-0.41,0.18-0.5c0.19-0.09,0.41-0.01,0.5,0.18c2.1,4.42,2.39,9.41,0.83,14.04
		C260.5,113.74,260.36,113.83,260.2,113.83z"/>
	<path class="st0" d="M257.55,103.45c-0.83,0-1.45-0.19-1.89-0.56c-1.01-0.84-0.88-2.38-0.75-4.02c0.14-1.75,0.29-3.56-0.96-4.48
		c-0.12-0.09-0.17-0.23-0.14-0.38c0.03-0.14,0.14-0.26,0.28-0.29c2.6-0.62,5.39-0.18,7.67,1.22c0.18,0.11,0.23,0.34,0.12,0.52
		c-0.11,0.18-0.34,0.23-0.52,0.12c-1.9-1.17-4.2-1.62-6.4-1.27c0.99,1.21,0.84,3.01,0.71,4.62c-0.12,1.44-0.23,2.79,0.48,3.38
		c0.62,0.52,1.94,0.51,3.93-0.03c0.2-0.06,0.41,0.06,0.46,0.26c0.05,0.2-0.06,0.41-0.26,0.46
		C259.18,103.31,258.28,103.45,257.55,103.45z"/>
	<path class="st0" d="M262.38,101.67c-0.11,0-0.22-0.05-0.3-0.15c-0.13-0.16-0.1-0.4,0.07-0.53c1.14-0.88,1.7-1.65,1.72-2.37
		c0.02-0.98-1.01-1.86-2.11-2.78c-1.16-0.98-2.46-2.08-2.62-3.51c-0.89,0.54-1.74,1.15-2.54,1.81c-0.16,0.13-0.4,0.11-0.53-0.05
		c-0.13-0.16-0.11-0.4,0.05-0.53c1-0.83,2.08-1.58,3.21-2.22c0.13-0.07,0.28-0.06,0.4,0.02s0.18,0.22,0.16,0.36
		c-0.21,1.39,1.09,2.49,2.34,3.55c1.18,1,2.41,2.03,2.38,3.37c-0.02,0.95-0.68,1.92-2.01,2.94
		C262.54,101.64,262.46,101.67,262.38,101.67z"/>
	<path class="st0" d="M268.67,95.72c-0.02,0-0.04,0-0.05,0c-0.21-0.03-0.35-0.22-0.32-0.42c0.67-4.63-0.45-9.27-3.16-13.08
		c-0.12-0.17-0.08-0.4,0.09-0.52c0.17-0.12,0.4-0.08,0.52,0.09c2.83,3.97,4,8.8,3.29,13.62C269.01,95.59,268.85,95.72,268.67,95.72z
		"/>
	<path class="st0" d="M263.52,86.04c-0.47,0-0.86-0.1-1.2-0.29c-1.14-0.65-1.3-2.19-1.46-3.82c-0.17-1.75-0.35-3.56-1.76-4.25
		c-0.13-0.06-0.21-0.2-0.21-0.34c0-0.15,0.09-0.28,0.22-0.34c2.45-1.07,5.28-1.13,7.77-0.15c0.19,0.08,0.29,0.29,0.21,0.49
		c-0.08,0.19-0.29,0.29-0.49,0.21c-2.08-0.82-4.43-0.86-6.53-0.12c1.2,1.02,1.37,2.81,1.53,4.42c0.14,1.43,0.28,2.78,1.08,3.24
		c0.7,0.4,2,0.15,3.86-0.72c0.19-0.09,0.41-0.01,0.5,0.18c0.09,0.19,0.01,0.41-0.18,0.5C265.48,85.72,264.38,86.04,263.52,86.04z"/>
	<path class="st0" d="M268.66,83.38c-0.09,0-0.18-0.03-0.25-0.1c-0.15-0.14-0.17-0.38-0.03-0.53c0.97-1.08,1.39-1.95,1.28-2.66
		c-0.16-0.98-1.33-1.66-2.58-2.38c-1.31-0.76-2.78-1.61-3.19-2.99c-0.78,0.69-1.5,1.44-2.17,2.24c-0.13,0.16-0.37,0.18-0.53,0.05
		c-0.16-0.13-0.18-0.37-0.05-0.53c0.84-1,1.77-1.93,2.77-2.77c0.11-0.09,0.26-0.11,0.39-0.05s0.22,0.19,0.22,0.33
		c0.04,1.4,1.51,2.25,2.93,3.07c1.34,0.78,2.73,1.58,2.95,2.91c0.15,0.95-0.33,2.02-1.46,3.28
		C268.87,83.33,268.76,83.38,268.66,83.38z"/>
	<path class="st0" d="M269.91,36.84c-4.73,0-9.24-3.13-11.55-8.05c-0.06-0.12-0.04-0.27,0.03-0.38c0.08-0.11,0.21-0.17,0.34-0.16
		l1.6,0.17c-0.83-1.32-2.55-4.3-2.53-6.17c0-0.13,0.07-0.25,0.18-0.32c0.11-0.07,0.25-0.07,0.37-0.01l0.96,0.52
		c-1.16-3.67-0.62-8.04-0.59-8.24c0.02-0.13,0.1-0.24,0.21-0.29c0.12-0.05,0.25-0.04,0.36,0.03l1.17,0.76
		c-0.36-1.67-0.25-3.43,0.33-5.05c0.04-0.1,0.11-0.18,0.21-0.22c0.1-0.04,0.21-0.04,0.31,0.01l0.99,0.49
		c-0.12-1.49-0.07-2.99,0.17-4.47c0.02-0.1,0.07-0.19,0.15-0.25c0.08-0.06,0.19-0.08,0.28-0.06c0.16,0.03,0.56,0.1,3.1,3.77
		l0.52-1.12c0.05-0.11,0.15-0.19,0.27-0.21c0.12-0.02,0.24,0.01,0.33,0.09c1.26,1.17,2.3,2.52,3.1,4.02l0.37-1.47
		c0.03-0.13,0.14-0.24,0.27-0.27c0.13-0.04,0.27,0,0.37,0.1c2.22,2.32,3.65,5.74,4.22,7.31l0.6-1.15c0.06-0.12,0.18-0.2,0.32-0.2
		c0.1-0.02,0.26,0.06,0.33,0.18c0.82,1.32,1.19,5.01,1.32,6.63l1.23-1.11c0.11-0.1,0.25-0.12,0.39-0.07
		c0.13,0.05,0.22,0.17,0.24,0.32c0.65,7.25-1.86,12.59-6.73,14.3c-0.2,0.07-0.41-0.03-0.48-0.23c-0.07-0.2,0.03-0.41,0.23-0.48
		c4.42-1.55,6.69-6.18,6.29-12.76l-1.23,1.12c-0.11,0.1-0.26,0.12-0.39,0.07c-0.13-0.05-0.22-0.18-0.23-0.33
		c-0.08-1.33-0.38-4.69-0.97-6.39l-0.64,1.24c-0.07,0.14-0.21,0.22-0.37,0.2c-0.15-0.01-0.28-0.12-0.33-0.26
		c-0.01-0.05-1.38-4.41-3.87-7.34l-0.45,1.78c-0.04,0.15-0.17,0.27-0.33,0.28c-0.17,0.01-0.31-0.07-0.38-0.22
		c-0.74-1.63-1.75-3.09-3.01-4.35l-0.58,1.24c-0.06,0.12-0.17,0.2-0.31,0.21c-0.13,0.01-0.26-0.05-0.34-0.16
		c-0.95-1.39-2.04-2.88-2.65-3.6c-0.17,1.41-0.17,2.83,0,4.24c0.02,0.14-0.04,0.27-0.16,0.35c-0.11,0.08-0.26,0.09-0.38,0.03
		l-1.21-0.6c-0.5,1.67-0.48,3.48,0.08,5.13c0.05,0.15,0,0.32-0.13,0.42s-0.3,0.1-0.43,0.02l-1.48-0.97
		c-0.12,1.47-0.27,5.31,0.94,8.2c0.06,0.15,0.02,0.32-0.09,0.42s-0.29,0.13-0.43,0.05l-1.21-0.66c0.42,2.27,2.74,5.7,2.77,5.74
		c0.08,0.12,0.09,0.28,0.01,0.4c-0.07,0.12-0.22,0.19-0.36,0.18l-1.7-0.18c2.32,4.42,6.51,7.16,10.89,7.01
		c0.18-0.02,0.38,0.16,0.39,0.36s-0.16,0.38-0.36,0.39C270.14,36.84,270.02,36.84,269.91,36.84z"/>
	<path class="st0" d="M276.77,53.62c-0.2,0-0.37-0.16-0.38-0.36c-0.35-9.91-8.99-32.06-9.07-32.29c-0.08-0.19,0.02-0.41,0.21-0.49
		c0.19-0.08,0.41,0.02,0.49,0.21c0.36,0.91,8.77,22.5,9.12,32.53c0.01,0.21-0.15,0.38-0.36,0.39
		C276.78,53.62,276.77,53.62,276.77,53.62z"/>
	<path class="st0" d="M292.86,93.17c-0.04,0-0.09-0.01-0.13-0.02c-0.31-0.11-7.52-2.86-10.28-10.03c-1.93-4.99-1.18-10.85,2.22-17.4
		c0.05-0.1,0.14-0.17,0.25-0.19c0.11-0.02,0.22,0,0.31,0.07c7.77,5.9,15.6,13.11,10.11,23.9c-0.09,0.18-0.32,0.26-0.5,0.16
		c-0.18-0.09-0.26-0.32-0.16-0.5c5.15-10.12-1.8-16.77-9.54-22.69c-3.12,6.19-3.79,11.7-1.98,16.38c2.65,6.85,9.77,9.57,9.84,9.59
		c0.19,0.07,0.29,0.29,0.22,0.48C293.16,93.07,293.01,93.17,292.86,93.17z"/>
	<path class="st0" d="M297.01,106.05c-0.16,0-0.31-0.1-0.36-0.26l-8.51-27.15c-0.06-0.2,0.05-0.41,0.25-0.47
		c0.2-0.06,0.41,0.05,0.47,0.25l8.51,27.15c0.06,0.2-0.05,0.41-0.25,0.47C297.08,106.05,297.05,106.05,297.01,106.05z"/>
	<path class="st0" d="M308.27,89.04c-0.58,0-0.93-0.03-1-0.03c-0.21-0.02-0.36-0.2-0.34-0.41c0.02-0.21,0.2-0.36,0.41-0.34
		c0.08,0.01,7.7,0.6,13.02-4.47c3.63-3.46,5.37-8.72,5.19-15.64c-9.52,2.03-18.66,5.07-18.33,16.42c0.01,0.21-0.16,0.38-0.36,0.39
		c-0.22,0-0.38-0.16-0.39-0.36c-0.36-12.11,9.37-15.17,19.36-17.27c0.11-0.02,0.22,0,0.31,0.07c0.09,0.07,0.14,0.17,0.14,0.28
		c0.28,7.37-1.54,12.97-5.41,16.66C316.41,88.58,310.58,89.04,308.27,89.04z"/>
	<path class="st0" d="M298.02,98.87c-0.09,0-0.18-0.03-0.25-0.1c-0.15-0.14-0.16-0.38-0.02-0.53l19.34-20.87
		c0.14-0.15,0.38-0.16,0.53-0.02c0.15,0.14,0.16,0.38,0.02,0.53l-19.34,20.87C298.22,98.83,298.12,98.87,298.02,98.87z"/>
	<path class="st0" d="M314.48,64.38c-1.32,0-2.21-0.17-2.3-0.19c-0.2-0.04-0.33-0.24-0.29-0.44c0.04-0.2,0.23-0.34,0.44-0.29
		c0.06,0.01,5.44,1.02,9.62-2.17c2.83-2.16,4.47-5.73,4.9-10.61c-6.58,0.68-12.99,2.04-14.11,9.17c-0.03,0.2-0.22,0.35-0.43,0.31
		c-0.2-0.03-0.34-0.22-0.31-0.43c1.23-7.82,8.5-9.18,15.22-9.84c0.12-0.01,0.22,0.03,0.3,0.1c0.08,0.08,0.12,0.19,0.11,0.29
		c-0.38,5.34-2.14,9.24-5.23,11.61C319.67,63.96,316.55,64.38,314.48,64.38z"/>
	<path class="st0" d="M304.82,70.54c-0.1,0-0.21-0.04-0.28-0.13c-0.14-0.16-0.12-0.39,0.04-0.53l15.52-13.46
		c0.16-0.13,0.39-0.12,0.53,0.04c0.14,0.16,0.12,0.39-0.04,0.53l-15.52,13.46C305,70.51,304.91,70.54,304.82,70.54z"/>
	<path class="st0" d="M304.49,53.31c-0.05,0-0.11-0.01-0.16-0.04c-0.21-0.1-5.28-2.53-6.84-7.9c-1.09-3.74-0.19-7.94,2.68-12.48
		c0.06-0.09,0.16-0.16,0.27-0.17c0.11-0.01,0.22,0.02,0.3,0.09c4.92,4.45,9.88,9.77,6.56,16.61c-0.09,0.19-0.32,0.26-0.5,0.17
		c-0.19-0.09-0.26-0.31-0.17-0.5c3.02-6.23-1.26-11.04-6.06-15.43c-2.56,4.2-3.36,8.06-2.36,11.49c1.47,5.05,6.39,7.41,6.44,7.43
		c0.19,0.09,0.27,0.31,0.18,0.5C304.77,53.24,304.63,53.31,304.49,53.31z"/>
	<path class="st0" d="M306.7,62.85c-0.17,0-0.33-0.12-0.37-0.29l-4.49-20.06c-0.04-0.2,0.08-0.4,0.28-0.45
		c0.2-0.05,0.4,0.08,0.45,0.28l4.49,20.06c0.04,0.2-0.08,0.4-0.28,0.45C306.75,62.84,306.73,62.85,306.7,62.85z"/>
	<path class="st0" d="M296.69,112.03c0,0-0.01,0-0.01,0c-0.21-0.01-0.37-0.18-0.36-0.39c1.3-32.2,19.1-72.81,19.28-73.22
		c0.08-0.19,0.31-0.27,0.49-0.19c0.19,0.08,0.28,0.31,0.19,0.49c-0.18,0.4-17.93,40.89-19.22,72.94
		C297.06,111.87,296.89,112.03,296.69,112.03z"/>
	<path class="st0" d="M312.94,44.56c-0.14,0-0.27-0.08-0.34-0.21c-0.08-0.17-2-4.13-0.35-8.05c1.11-2.63,3.55-4.58,7.25-5.8
		c0.1-0.03,0.22-0.02,0.31,0.03c0.09,0.06,0.16,0.15,0.18,0.26c0.69,3.9,1.21,8.3-1.38,11.12c-0.14,0.15-0.38,0.16-0.53,0.02
		c-0.15-0.14-0.16-0.38-0.02-0.53c2.06-2.23,2.02-5.64,1.27-10.05c-3.25,1.15-5.4,2.91-6.38,5.23c-1.52,3.6,0.31,7.4,0.33,7.44
		c0.09,0.19,0.02,0.41-0.17,0.5C313.05,44.54,313,44.56,312.94,44.56z"/>
	<path class="st0" d="M304.11,115.67c-0.18,0-0.35-0.14-0.37-0.32c-0.03-0.21,0.11-0.39,0.32-0.42c3.79-0.52,5.5-3.3,5.38-8.75
		c-0.07-2.92,0.52-7.91,5.33-8.55c1.36-0.17,2.71,0.18,3.79,1.02c1.09,0.83,1.78,2.04,1.96,3.4c0.3,2.28-1.3,4.39-3.58,4.7
		c-1.86,0.25-3.59-1.07-3.84-2.93c-0.21-1.54,0.88-2.95,2.41-3.16c1.27-0.14,2.41,0.73,2.61,1.98c0.14,1.07-0.6,2.04-1.66,2.18
		c-0.44,0.05-0.87-0.06-1.21-0.32s-0.56-0.64-0.62-1.07c-0.03-0.21,0.12-0.39,0.32-0.42c0.2-0.02,0.39,0.12,0.42,0.32
		c0.03,0.23,0.15,0.43,0.33,0.57c0.18,0.14,0.41,0.2,0.64,0.17c0.66-0.09,1.11-0.68,1.03-1.33c-0.14-0.84-0.92-1.44-1.78-1.35
		c-1.12,0.15-1.91,1.19-1.76,2.32c0.2,1.45,1.54,2.48,3,2.29c1.87-0.26,3.19-1.99,2.94-3.86c-0.15-1.16-0.75-2.19-1.67-2.9
		c-0.93-0.71-2.08-1.02-3.23-0.87c-4.23,0.56-4.74,5.12-4.68,7.79c0.14,5.82-1.83,8.93-6.02,9.51
		C304.14,115.67,304.13,115.67,304.11,115.67z"/>
	<path class="st0" d="M289.21,56.92c-0.58,0-0.96-0.86-1.2-1.77c-0.73,0.65-1.55,1.16-2.03,0.75c-0.46-0.4-0.12-1.29,0.38-2.12
		c-0.97-0.06-1.9-0.28-1.97-0.9c-0.06-0.62,0.82-1.02,1.77-1.26c-0.64-0.73-1.15-1.55-0.75-2.02c0.4-0.47,1.29-0.12,2.13,0.37
		c0.06-0.97,0.28-1.91,0.89-1.96c0.6-0.05,1,0.83,1.25,1.77c0.73-0.65,1.55-1.16,2.02-0.76c0.47,0.4,0.12,1.29-0.38,2.13
		c0.97,0.06,1.91,0.28,1.97,0.9c0.06,0.62-0.82,1.02-1.77,1.26c0.63,0.72,1.13,1.53,0.76,2.01c0,0,0,0.01-0.01,0.01
		c-0.4,0.48-1.29,0.13-2.13-0.37c-0.06,0.97-0.28,1.91-0.89,1.96C289.25,56.92,289.23,56.92,289.21,56.92z M288.23,54.04
		c0.04,0,0.07,0.01,0.11,0.02c0.13,0.04,0.23,0.15,0.26,0.29c0.15,0.73,0.4,1.48,0.59,1.75c0.13-0.29,0.24-1.07,0.24-1.81
		c0-0.14,0.08-0.27,0.2-0.33c0.12-0.07,0.27-0.06,0.39,0.02c0.61,0.42,1.32,0.77,1.64,0.83c-0.11-0.3-0.59-0.93-1.11-1.45
		c-0.1-0.1-0.13-0.24-0.09-0.37s0.15-0.23,0.29-0.26c0.74-0.14,1.5-0.4,1.75-0.59c-0.28-0.14-1.08-0.25-1.83-0.25
		c-0.14,0-0.27-0.08-0.33-0.2c-0.06-0.12-0.06-0.27,0.02-0.39c0.42-0.62,0.78-1.33,0.83-1.64c-0.3,0.12-0.92,0.6-1.45,1.12
		c-0.1,0.1-0.24,0.13-0.37,0.09c-0.13-0.04-0.23-0.15-0.26-0.29c-0.14-0.73-0.4-1.48-0.59-1.75c-0.13,0.29-0.24,1.07-0.24,1.81
		c0,0.14-0.08,0.27-0.2,0.33s-0.27,0.06-0.39-0.02c-0.62-0.42-1.33-0.77-1.65-0.83c0.11,0.3,0.59,0.93,1.11,1.45
		c0.1,0.1,0.13,0.24,0.09,0.38s-0.15,0.23-0.29,0.26c-0.74,0.14-1.5,0.4-1.75,0.59c0.28,0.14,1.08,0.25,1.83,0.25
		c0.14,0,0.27,0.08,0.33,0.2c0.06,0.12,0.06,0.27-0.02,0.39c-0.42,0.62-0.78,1.33-0.83,1.64c0.29-0.11,0.93-0.59,1.45-1.12
		C288.04,54.08,288.13,54.04,288.23,54.04z M292,55.08L292,55.08L292,55.08z"/>
	<path class="st0" d="M293.18,27.21c-3.97,0-7.19-3.23-7.19-7.19s3.23-7.19,7.19-7.19c3.97,0,7.2,3.23,7.2,7.19
		S297.15,27.21,293.18,27.21z M293.18,13.58c-3.55,0-6.44,2.89-6.44,6.44s2.89,6.44,6.44,6.44s6.45-2.89,6.45-6.44
		S296.73,13.58,293.18,13.58z"/>
	<path class="st0" d="M293.18,23.73c-2.05,0-3.71-1.67-3.71-3.71s1.67-3.71,3.71-3.71s3.71,1.67,3.71,3.71
		S295.23,23.73,293.18,23.73z M293.18,17.06c-1.63,0-2.96,1.33-2.96,2.96s1.33,2.96,2.96,2.96s2.96-1.33,2.96-2.96
		S294.81,17.06,293.18,17.06z"/>
	<path class="st0" d="M335.41,43.19c-3.44,0-6.37-2.7-6.6-6.17c-0.08-1.46,0.39-2.8,1.31-3.83s2.2-1.65,3.59-1.73
		c2.37-0.11,4.4,1.67,4.57,4.06c0.06,0.99-0.26,1.88-0.87,2.57c-0.62,0.69-1.47,1.1-2.39,1.15c-1.57,0.08-2.97-1.15-3.07-2.73
		c-0.08-1.31,0.92-2.44,2.22-2.52c1.09-0.06,2.04,0.78,2.11,1.87c0.01,0.21-0.14,0.39-0.35,0.4c-0.23,0.01-0.39-0.14-0.4-0.35
		c-0.05-0.68-0.64-1.2-1.32-1.17c-0.89,0.06-1.57,0.83-1.52,1.72c0.08,1.18,1.12,2.1,2.29,2.03c0.72-0.04,1.39-0.36,1.87-0.9
		c0.48-0.54,0.73-1.24,0.69-1.96c-0.14-1.95-1.75-3.42-3.62-3.42c-0.06,0-0.11,0-0.17,0c-1.19,0.07-2.28,0.59-3.07,1.48
		c-0.79,0.89-1.19,2.03-1.13,3.22c0.22,3.23,2.97,5.67,6.14,5.53c3.86-0.21,7.29-4.09,7.64-8.65c0.54-4.47-1.86-8.44-6.75-11.2
		c-7.52-4.25-20.47-5.06-28.27,1.03c-0.16,0.13-0.4,0.1-0.53-0.06c-0.13-0.16-0.1-0.4,0.07-0.53c8.04-6.28,21.37-5.46,29.1-1.09
		c5.17,2.92,7.71,7.16,7.13,11.93c-0.38,4.91-4.13,9.1-8.35,9.33C335.62,43.19,335.52,43.19,335.41,43.19z"/>
	<circle class="st0" cx="28.54" cy="119.42" r="1.29"/>
	<circle class="st0" cx="29.07" cy="137.79" r="1.29"/>
	<circle class="st0" cx="27.78" cy="128.6" r="1.29"/>
	<circle class="st0" cx="108.42" cy="113.66" r="1.4"/>
	<circle class="st0" cx="104.91" cy="106.7" r="1.4"/>
	<circle class="st0" cx="103.17" cy="99.74" r="1.4"/>
	<circle class="st0" cx="107.09" cy="6.98" r="1.4"/>
	<circle class="st0" cx="126.32" cy="11.41" r="1.4"/>
	<circle class="st0" cx="117.56" cy="6.49" r="1.4"/>
	<circle class="st0" cx="96.04" cy="71.42" r="0.73"/>
	<circle class="st0" cx="208.54" cy="119.42" r="1.29"/>
	<circle class="st0" cx="209.07" cy="137.79" r="1.29"/>
	<circle class="st0" cx="207.78" cy="128.6" r="1.29"/>
	<circle class="st0" cx="288.42" cy="113.66" r="1.4"/>
	<circle class="st0" cx="284.91" cy="106.7" r="1.4"/>
	<circle class="st0" cx="283.17" cy="99.74" r="1.4"/>
	<circle class="st0" cx="287.09" cy="6.98" r="1.4"/>
	<circle class="st0" cx="306.32" cy="11.41" r="1.4"/>
	<circle class="st0" cx="297.56" cy="6.49" r="1.4"/>
	<circle class="st0" cx="276.04" cy="71.42" r="0.73"/>
	<path class="st0" d="M231.82,4l-2.23,2.53c-0.1,0.1-0.25,0.1-0.35,0.01c0,0,0,0-0.01-0.01c-0.1-0.1-0.1-0.25,0-0.35l0,0l2.37-2.4
		c0.06-0.06,0.16-0.06,0.22,0C231.88,3.84,231.88,3.93,231.82,4C231.83,3.99,231.82,4,231.82,4z"/>
	<path class="st0" d="M233.78,3.53l2.53,2.23c0.1,0.1,0.1,0.25,0,0.35c-0.09,0.1-0.24,0.1-0.34,0.01c0,0-0.01-0.01-0.01-0.01l0,0
		l-2.4-2.37c-0.06-0.06-0.06-0.16,0-0.22C233.62,3.46,233.71,3.46,233.78,3.53C233.77,3.52,233.78,3.53,233.78,3.53z"/>
	<path class="st0" d="M232.85,4.15l0.09,3.37c0.01,0.13-0.09,0.25-0.22,0.26c-0.01,0-0.01,0-0.02,0c-0.14,0.01-0.25-0.1-0.26-0.24
		c0,0,0,0,0,0l0,0l0.1-3.37c-0.01-0.09,0.06-0.16,0.15-0.17c0,0,0.01,0,0.01,0C232.78,4,232.85,4.07,232.85,4.15z"/>
	<path class="st0" d="M244.74,4l-2.23,2.53c-0.08,0.1-0.23,0.11-0.32,0.03c-0.01-0.01-0.02-0.02-0.03-0.03c-0.1-0.1-0.1-0.25,0-0.35
		l0,0l2.37-2.4c0.06-0.06,0.15-0.06,0.21-0.01c0.06,0.06,0.06,0.15,0.01,0.22l0,0L244.74,4z"/>
	<path class="st0" d="M246.71,3.53l2.53,2.23c0.1,0.1,0.1,0.25,0,0.35c-0.09,0.1-0.24,0.1-0.34,0.01c0,0-0.01-0.01-0.01-0.01l0,0
		l-2.4-2.37c-0.06-0.06-0.06-0.16,0-0.22C246.56,3.47,246.65,3.47,246.71,3.53z"/>
	<path class="st0" d="M245.77,4.15l0.1,3.37c0.01,0.14-0.1,0.25-0.24,0.26c0,0,0,0,0,0c-0.13,0.01-0.25-0.09-0.26-0.22
		c0-0.01,0-0.01,0-0.02l0,0l0.1-3.37c0.01-0.08,0.08-0.15,0.16-0.15C245.7,4.02,245.76,4.08,245.77,4.15z"/>
	<path class="st0" d="M298.74,145.86h-57.45c-0.17,0-0.33-0.12-0.37-0.29s0.04-0.34,0.2-0.42c19.12-9.3,29.87-22.58,32.86-40.61
		c0.03-0.17,0.19-0.32,0.36-0.33c0.35-0.01,0.35-0.02,0.99,2.25c6.74,23.91,14.64,36.92,23.47,38.66c0.19,0.04,0.32,0.21,0.3,0.4
		C299.09,145.71,298.93,145.86,298.74,145.86z M242.89,145.11h53.39c-8.16-3.47-15.43-16.38-21.66-38.45
		c-0.05-0.18-0.1-0.36-0.15-0.53C271.19,123.21,260.84,135.99,242.89,145.11z"/>
	<path class="st0" d="M274.49,69.92c-0.09,0-0.18-0.03-0.25-0.1c-7.44-6.75-9.39-12.57-8.05-15.13c0.48-0.92,1.38-1.34,2.4-1.1
		c2.83,0.65,6,5.92,6.28,15.94c0,0.15-0.08,0.29-0.22,0.35C274.6,69.9,274.54,69.92,274.49,69.92z M268.04,54.27
		c-0.51,0-0.92,0.26-1.18,0.76c-0.98,1.87,0.19,6.99,7.23,13.62c-0.44-9.64-3.59-13.85-5.66-14.33
		C268.29,54.29,268.16,54.27,268.04,54.27z"/>
	<path class="st0" d="M347.11,63.46c-0.02,0-0.04,0-0.06-0.01c-0.45-0.08-10.95-1.95-13.22-4.7c-0.81-0.99-0.77-2.11,0.11-3.01
		c1.22-1.24,4.16-1.9,6.67-0.55c-0.74-2.82,0.25-5.61,1.81-6.57c0.96-0.59,2-0.37,2.79,0.57c0,0,0,0,0,0
		c2.3,2.75,2.28,13.43,2.28,13.88c0,0.11-0.05,0.22-0.13,0.29C347.28,63.42,347.2,63.46,347.11,63.46z M337.57,55.18
		c-1.31,0-2.47,0.45-3.1,1.09c-0.43,0.43-0.78,1.13-0.07,2c1.85,2.24,10.3,3.97,12.33,4.36c-0.02-2.07-0.22-10.7-2.1-12.95
		c-0.56-0.66-1.19-0.8-1.83-0.41c-1.32,0.81-2.4,3.75-1.15,6.7c0.07,0.16,0.02,0.34-0.12,0.45c-0.14,0.1-0.33,0.1-0.46-0.01
		C339.98,55.53,338.72,55.18,337.57,55.18z"/>
	<path class="st0" d="M338.51,93.53c-2.74,0-5.56-0.31-8.19-0.6c-0.12-0.01-0.22-0.08-0.28-0.19s-0.07-0.23-0.02-0.34
		c2.24-5.07,6.13-8.79,10.68-10.23c3.99-1.26,8.11-0.72,11.91,1.57c0.14,0.08,0.21,0.25,0.17,0.41
		C350.88,91.83,344.93,93.53,338.51,93.53z M330.92,92.24c10.48,1.12,18.65,1.13,21.06-7.99c-3.54-2.06-7.36-2.52-11.05-1.36
		C336.72,84.22,333.1,87.61,330.92,92.24z"/>
	<path class="st0" d="M341.89,91.27c-0.86,0-1.72-0.18-2.46-0.56c-1.06-0.54-3.34-2.32-1.79-7.07c0.07-0.2,0.28-0.3,0.47-0.24
		c0.2,0.06,0.3,0.28,0.24,0.47c-0.98,3-0.48,5.19,1.42,6.17c1.96,1.01,4.91,0.35,6.19-1.38c1.27-1.72,0.66-4.01-1.71-6.43
		c-0.15-0.15-0.14-0.39,0-0.53c0.15-0.14,0.39-0.14,0.53,0c3.73,3.8,2.49,6.44,1.78,7.4C345.55,90.48,343.7,91.27,341.89,91.27z"/>
	<path class="st0" d="M341.98,88.19c-0.8,0-1.55-0.49-1.84-1.28c-0.38-1.02,0.14-2.15,1.16-2.53c0.35-0.13,0.74-0.16,1.11-0.08
		c0.12,0.03,0.22,0.11,0.27,0.22c0.05,0.11,0.04,0.24-0.03,0.34c-0.22,0.36-0.16,0.63-0.02,0.74c0.15,0.11,0.37,0.04,0.57-0.18
		c0.09-0.1,0.22-0.15,0.35-0.12c0.13,0.02,0.24,0.11,0.28,0.24c0.38,1.02-0.14,2.15-1.16,2.53
		C342.44,88.15,342.21,88.19,341.98,88.19z M341.77,85.03c-0.07,0.01-0.14,0.03-0.21,0.06c-0.63,0.23-0.95,0.93-0.72,1.56
		c0.23,0.63,0.93,0.95,1.56,0.72c0.45-0.17,0.75-0.58,0.79-1.03c-0.38,0.15-0.76,0.07-1.02-0.12
		C341.87,85.98,341.66,85.55,341.77,85.03z"/>
	<path class="st0" d="M329.18,91.72c-0.05,0-0.11-0.01-0.16-0.03c-0.19-0.09-0.27-0.31-0.18-0.5c2.31-5.01,4.93-10.69,10.25-12.61
		c3.85-1.4,8.7-0.66,14.81,2.25c0.19,0.09,0.27,0.31,0.18,0.5c-0.09,0.19-0.32,0.27-0.5,0.18c-5.92-2.82-10.57-3.55-14.23-2.22
		c-4.65,1.68-7.1,6.33-9.82,12.22C329.46,91.64,329.32,91.72,329.18,91.72z"/>
	<path class="st0" d="M329.06,133.59c-1.08,0-2.15-0.32-3.08-0.94c-1.27-0.75-2.5-1.62-3.64-2.58l-0.37-0.31
		c-0.56-0.47-1.14-0.95-1.71-1.37c-1.16-0.98-2.66-2.5-2.55-4.6c0.16-1.44,0.84-2.73,1.92-3.67c1.28-1.16,2.75-2.08,4.37-2.72
		c0.88-0.39,1.81-0.73,2.75-1.01l0.28-0.08c2.52-0.74,2.81-0.7,3.01-0.4c1.43,2.16,3,3.27,4.78,3.38c0.17,0.01,0.31,0.13,0.34,0.3
		c0.4,1.93,0.49,3.9,0.25,5.86c-0.25,2.19-1.12,6.09-4.04,7.63C330.62,133.43,329.83,133.59,329.06,133.59z M329.5,116.46
		c-0.24,0.02-0.83,0.15-2.27,0.57l-0.28,0.08c-0.9,0.27-1.8,0.6-2.67,0.98c-1.54,0.62-2.94,1.49-4.16,2.59
		c-0.94,0.81-1.53,1.93-1.67,3.16c-0.08,1.73,1.17,3.02,2.27,3.95c0.57,0.42,1.16,0.91,1.73,1.38l0.37,0.31c0,0,0,0,0,0
		c1.11,0.94,2.31,1.79,3.56,2.52c1.4,0.94,3.14,1.08,4.66,0.4c2.59-1.37,3.38-5.01,3.62-7.05c0.22-1.79,0.16-3.58-0.18-5.35
		C332.6,119.8,330.97,118.63,329.5,116.46z"/>
	<path class="st0" d="M336.94,117.04c-0.15,0-0.28-0.09-0.34-0.22c-0.75-1.68-2.32-2.77-4.82-3.35c-0.35,0-0.5-0.23-0.65-3.09
		l-0.01-0.16c-0.07-0.97-0.07-1.96,0-2.93c0.05-1.73,0.41-3.42,1.08-5.03c0.5-1.32,1.48-2.4,2.76-3.03c1.85-0.77,3.67-0.03,5.2,0.81
		c0.42,0.25,0.85,0.5,1.29,0.75c0.34,0.19,0.68,0.39,1.02,0.59c1.3,0.75,2.54,1.61,3.69,2.57c1.53,1.11,2.4,3,2.23,4.91
		c-0.46,3.29-3.83,5.43-5.81,6.42c-1.76,0.89-3.64,1.48-5.58,1.76C336.98,117.04,336.96,117.04,336.94,117.04z M332.1,112.79
		c2.52,0.62,4.2,1.78,5.05,3.46c1.77-0.28,3.48-0.83,5.08-1.64c1.84-0.92,4.99-2.91,5.4-5.84c0.14-1.63-0.61-3.26-1.95-4.23
		c-1.14-0.94-2.34-1.78-3.61-2.51c0,0,0,0,0,0c-0.34-0.2-0.68-0.4-1.02-0.59c-0.44-0.25-0.87-0.5-1.29-0.75
		c-1.36-0.74-2.97-1.41-4.51-0.78c-1.08,0.54-1.94,1.47-2.37,2.63c-0.64,1.53-0.98,3.14-1.03,4.79c-0.06,0.95-0.06,1.91,0,2.84
		l0.01,0.17C331.96,112,332.05,112.59,332.1,112.79z M331.86,112.74c0.05,0.01,0.1,0.02,0.15,0.04
		C331.97,112.75,331.92,112.74,331.86,112.74z"/>
	<path class="st0" d="M329.76,116.5c-0.16,0-0.31-0.1-0.36-0.26c-0.44-1.42,0.36-2.93,1.78-3.37c0.21-0.07,0.43-0.1,0.66-0.12
		c0.22,0,0.38,0.15,0.39,0.36c0.01,0.21-0.15,0.38-0.36,0.39c-0.16,0.01-0.32,0.04-0.47,0.08c-1.02,0.32-1.6,1.41-1.29,2.43
		c0.06,0.2-0.05,0.41-0.25,0.47C329.83,116.49,329.8,116.5,329.76,116.5z"/>
	<path class="st0" d="M334.88,120.08c-0.2,0-0.37-0.16-0.38-0.36c-0.01-0.21,0.15-0.38,0.36-0.39c1.07-0.05,1.9-0.96,1.85-2.03
		c-0.01-0.17-0.04-0.33-0.08-0.48c-0.06-0.2,0.05-0.41,0.25-0.47c0.2-0.07,0.41,0.05,0.47,0.25c0.07,0.22,0.11,0.44,0.12,0.67
		c0.03,0.72-0.22,1.41-0.7,1.94c-0.49,0.53-1.15,0.84-1.87,0.88C334.89,120.08,334.89,120.08,334.88,120.08z"/>
	<path class="st0" d="M327.8,123.62c-0.06,0-0.12-0.01-0.18-0.05c-0.18-0.1-0.25-0.33-0.15-0.51c1.02-1.85,2.45-4.07,4.51-4.75
		c0.19-0.07,0.41,0.04,0.47,0.24s-0.04,0.41-0.24,0.47c-1.41,0.47-2.67,1.83-4.09,4.41C328.06,123.54,327.93,123.62,327.8,123.62z"
		/>
	<path class="st0" d="M335.27,114.97c-0.2,0-0.37-0.16-0.38-0.36c-0.09-2.13,1.52-4.25,2.93-5.86c0.13-0.16,0.38-0.17,0.53-0.03
		c0.16,0.14,0.17,0.37,0.03,0.53c-1.96,2.24-2.81,3.88-2.75,5.34c0.01,0.21-0.15,0.38-0.36,0.39
		C335.28,114.97,335.27,114.97,335.27,114.97z"/>
	<path class="st0" d="M344.13,143.27c-0.58,0-0.96-0.85-1.2-1.77c-0.73,0.64-1.55,1.15-2.02,0.75c-0.47-0.39-0.12-1.29,0.37-2.13
		c-0.97-0.06-1.91-0.28-1.96-0.89c-0.05-0.61,0.83-1,1.77-1.25c-0.65-0.73-1.16-1.55-0.75-2.03c0.4-0.47,1.29-0.12,2.12,0.38
		c0.06-0.97,0.28-1.9,0.9-1.97c0.6-0.05,1.01,0.82,1.26,1.77c0.73-0.65,1.55-1.15,2.02-0.75c0.47,0.39,0.12,1.29-0.37,2.13
		c0.97,0.06,1.91,0.28,1.96,0.89c0.05,0.61-0.83,1-1.77,1.25c0.65,0.74,1.16,1.56,0.76,2.02c-0.4,0.47-1.3,0.13-2.13-0.38
		c-0.06,0.97-0.28,1.9-0.9,1.97C344.18,143.26,344.16,143.27,344.13,143.27z M343.16,140.39c0.04,0,0.07,0.01,0.11,0.02
		c0.13,0.04,0.23,0.15,0.26,0.29c0.14,0.74,0.4,1.5,0.59,1.75c0.14-0.28,0.25-1.08,0.25-1.83c0-0.14,0.08-0.27,0.2-0.33
		s0.27-0.06,0.39,0.02c0.62,0.43,1.33,0.78,1.64,0.84c-0.12-0.3-0.6-0.93-1.12-1.45c-0.1-0.1-0.13-0.24-0.09-0.37
		c0.04-0.13,0.15-0.23,0.29-0.26c0.73-0.14,1.49-0.4,1.75-0.59c-0.29-0.13-1.08-0.24-1.81-0.24c-0.14,0-0.27-0.08-0.33-0.2
		c-0.07-0.12-0.06-0.27,0.02-0.39c0.42-0.62,0.77-1.33,0.83-1.65c-0.3,0.11-0.93,0.59-1.45,1.11c-0.1,0.1-0.24,0.13-0.37,0.09
		c-0.13-0.04-0.23-0.15-0.26-0.29c-0.14-0.74-0.4-1.5-0.59-1.75c-0.14,0.28-0.25,1.08-0.25,1.83c0,0.14-0.08,0.27-0.2,0.33
		c-0.12,0.06-0.27,0.06-0.39-0.02c-0.62-0.42-1.33-0.78-1.64-0.83c0.11,0.29,0.59,0.93,1.12,1.45c0.1,0.1,0.13,0.24,0.09,0.37
		c-0.04,0.13-0.15,0.23-0.29,0.26c-0.73,0.15-1.49,0.4-1.75,0.59c0.29,0.13,1.07,0.24,1.81,0.24c0.14,0,0.27,0.08,0.33,0.2
		c0.07,0.12,0.06,0.27-0.02,0.39c-0.42,0.62-0.77,1.33-0.83,1.65c0.3-0.11,0.93-0.59,1.45-1.11
		C342.97,140.43,343.06,140.39,343.16,140.39z M346.71,141.15L346.71,141.15L346.71,141.15L346.71,141.15z"/>
	<path class="st0" d="M345.21,10.75h-26.94c-1.34,0-2.43-1.09-2.43-2.44V6.45c0-1.34,1.09-2.44,2.43-2.44h26.94
		c1.34,0,2.43,1.09,2.43,2.44v1.87C347.64,9.66,346.55,10.75,345.21,10.75z M318.27,4.77c-0.93,0-1.68,0.76-1.68,1.69v1.87
		c0,0.93,0.76,1.69,1.68,1.69h26.94c0.93,0,1.68-0.76,1.68-1.69V6.45c0-0.93-0.76-1.69-1.68-1.69H318.27z"/>
	<path class="st0" d="M297.42,125.75h-2.8c-0.13,0-0.26-0.07-0.33-0.19l-1.4-2.43c-0.07-0.12-0.07-0.26,0-0.38l1.4-2.42
		c0.07-0.12,0.19-0.19,0.32-0.19h2.8c0.13,0,0.26,0.07,0.32,0.19l1.4,2.42c0.07,0.12,0.07,0.26,0,0.38l-1.4,2.43
		C297.68,125.68,297.55,125.75,297.42,125.75z M294.84,125h2.37l1.18-2.05l-1.18-2.04h-2.37l-1.18,2.04L294.84,125z"/>
	<path class="st0" d="M306.45,135.74h-4c-0.13,0-0.26-0.07-0.32-0.19l-2-3.46c-0.07-0.12-0.07-0.26,0-0.38l2-3.47
		c0.07-0.12,0.19-0.19,0.33-0.19h4c0.13,0,0.26,0.07,0.33,0.19l2,3.47c0.07,0.12,0.07,0.26,0,0.38l-2,3.46
		C306.71,135.66,306.58,135.74,306.45,135.74z M302.67,134.99h3.57l1.78-3.08l-1.78-3.1h-3.57l-1.78,3.1L302.67,134.99z"/>
	<path class="st0" d="M320.99,145.68h-5.74c-0.13,0-0.26-0.07-0.33-0.19l-2.87-4.98c-0.07-0.12-0.07-0.26,0-0.38l2.87-4.97
		c0.07-0.12,0.19-0.19,0.33-0.19h5.74c0.13,0,0.26,0.07,0.33,0.19l2.87,4.97c0.07,0.12,0.07,0.26,0,0.38l-2.87,4.98
		C321.25,145.61,321.12,145.68,320.99,145.68z M315.47,144.93h5.31l2.65-4.6l-2.65-4.59h-5.31l-2.65,4.59L315.47,144.93z"/>
</g>
</svg>
