<svg xmlns="http://www.w3.org/2000/svg" viewBox="0 0 350 150"><defs><style>.cls-1{fill:#00131e;}.cls-2{fill:#ffce81;}.cls-3{fill:#a6ce00;}.cls-4{fill:#6a3217;}.cls-5{fill:#ffc100;}.cls-6{fill:#ef0000;}.cls-7{fill:#ff6668;}.cls-8{fill:#fff;}.cls-9{fill:#ffda71;}.cls-10{fill:#4f230e;}.cls-11{fill:#cae25c;}.cls-12{fill:#c39b61;}</style></defs><title>bg</title><g id="Layer_2" data-name="Layer 2"><rect class="cls-1" width="350" height="150"/></g><g id="Layer_1" data-name="Layer 1"><path class="cls-2" d="M219,98.14a28.93,28.93,0,0,1-1.13,4.56,17.6,17.6,0,0,1-2.12,3.72c-2.57,3.4-6.67,5.07-10.76,5.93a59.32,59.32,0,0,1-10.49,1q-12.61.36-25.25.19c-7.94-.11-16.22.17-24.07-1.16a22.3,22.3,0,0,1-8-2.79,15,15,0,0,1-6.81-11.93"/><path d="M177.34,114q-4.05,0-8.08-.06c-1.55,0-3.14,0-4.68,0-6.44,0-13.1-.06-19.45-1.14A22.72,22.72,0,0,1,137,109.9a15.51,15.51,0,0,1-7-12.24.41.41,0,0,1,.38-.44.4.4,0,0,1,.43.37,14.68,14.68,0,0,0,6.62,11.61,22,22,0,0,0,7.83,2.74c6.28,1.07,12.91,1.1,19.31,1.12,1.55,0,3.14,0,4.69,0,8.38.11,16.87.05,25.24-.2a58.49,58.49,0,0,0,10.42-1c4.92-1,8.36-2.92,10.52-5.77a17.46,17.46,0,0,0,2.07-3.64,42.08,42.08,0,0,0,1.12-4.28.2.2,0,0,1,0-.11.4.4,0,0,1,.39-.42.43.43,0,0,1,.36.18c.12.18.19.28-.41,2.55-.25.94-.59,2.15-.69,2.39a18.47,18.47,0,0,1-2.17,3.82c-2.25,3-5.95,5-11,6.08a59.4,59.4,0,0,1-10.57,1C188.83,113.88,183.08,114,177.34,114Zm41.3-15.76Z"/><path class="cls-3" d="M131.06,91.3l-3.43,4c3.48,5.17,24.32,7.77,47.17,2.65,7.56,4.13,16.84,4.28,25.91-.08,7.3,5.31,14.33,4.34,21.12-2.25l-4.15-4.34"/><path d="M210,101.66a16.12,16.12,0,0,1-9.37-3.34,31.37,31.37,0,0,1-13.42,3.16h-.05a26.07,26.07,0,0,1-12.45-3.12,107.83,107.83,0,0,1-30.82,2.5c-8.6-.66-14.82-2.67-16.63-5.37a.39.39,0,0,1,0-.49l3.43-4a.41.41,0,1,1,.62.54l-3.22,3.72c1.9,2.36,7.76,4.13,15.83,4.76a107.28,107.28,0,0,0,30.73-2.53.48.48,0,0,1,.29,0c7.64,4.18,16.71,4.15,25.53-.09a.42.42,0,0,1,.42,0c3.51,2.55,7,3.65,10.46,3.26s6.59-2.12,9.84-5.19l-3.87-4A.41.41,0,0,1,218,91l4.15,4.34a.4.4,0,0,1,0,.57C218.15,99.73,214.11,101.66,210,101.66Z"/><path class="cls-4" d="M137.7,79.11l38.43-3,19.61.31,15.86,4.69A8.41,8.41,0,0,1,217,84.07c1.52,1.67,1.25,6.84.84,7.23H193.3"/><path d="M217.83,91.71H193.3a.41.41,0,0,1-.41-.41.41.41,0,0,1,.41-.41h24.27c.26-1,.38-5.17-.88-6.55a8,8,0,0,0-5.15-2.79h-.06l-15.8-4.67-19.54-.31-38.41,3a.41.41,0,0,1-.44-.37.42.42,0,0,1,.38-.44l38.43-3h0l19.61.32h.1l15.83,4.68a8.81,8.81,0,0,1,5.61,3c1.66,1.82,1.43,7.21.82,7.79A.36.36,0,0,1,217.83,91.71Z"/><path class="cls-4" d="M137.7,79.11c-2.15.28-4.36.58-5.95,2.2-2.77,2.85-1.77,6.7-.66,10h63.48"/><path d="M194.57,91.71H131.09a.41.41,0,0,1-.39-.28c-1.16-3.46-2.16-7.4.76-10.4,1.7-1.74,4.08-2,6.19-2.33a.41.41,0,0,1,.45.36.4.4,0,0,1-.35.45c-2.07.27-4.21.55-5.71,2.09-2.53,2.59-1.71,6.13-.66,9.29h63.19a.42.42,0,0,1,.41.41A.41.41,0,0,1,194.57,91.71Z"/><path class="cls-5" d="M214.84,82.3c-17.25,2.9-24.78,12.11-28.73,14.44-16-11.93-37.17-15.57-53.57-16.14.63-1.86,7.25-3.53,10.45-2.71l48-1.74,19.76,4.19A9.54,9.54,0,0,1,214.84,82.3Z"/><path d="M186.11,97.15a.41.41,0,0,1-.24-.08C176.74,90.27,160.07,82,132.52,81a.41.41,0,0,1-.32-.18.42.42,0,0,1,0-.36c.74-2.17,7.64-3.77,10.89-3l47.9-1.74h.1l19.76,4.19a10,10,0,0,1,4.31,2,.42.42,0,0,1,.12.42.41.41,0,0,1-.32.29C201.54,85,194,91,189.54,94.67a28.78,28.78,0,0,1-3.22,2.42A.42.42,0,0,1,186.11,97.15ZM133.3,80.22c27.09,1.08,43.65,9.25,52.83,16A33.22,33.22,0,0,0,189,94c4.45-3.6,11.83-9.58,24.83-12a10.79,10.79,0,0,0-3.24-1.33l-19.7-4.17L143,78.29a.25.25,0,0,1-.12,0C140,77.56,134.8,78.87,133.3,80.22Z"/><path class="cls-3" d="M218.59,71l3.78,4c-6.65,6.59-20.58,7.55-27.73,2.25-8.88,4.36-10.92,4.21-18.31.08-22.37,5.12-42.78,2.52-46.19-2.66l3.63-4,4.65-1.66,42.41-.71,33.95,1Z"/><path d="M206.55,81.15a20.82,20.82,0,0,1-12-3.35C186,82,183.71,82,176.26,77.84a103.4,103.4,0,0,1-30.17,2.5c-8.43-.66-14.52-2.67-16.29-5.37a.41.41,0,0,1,0-.5l3.63-4a.45.45,0,0,1,.17-.11l4.65-1.67.13,0L180.82,68l34,1,.15,0,3.81,1.63a.34.34,0,0,1,.14.09l3.78,4.05a.41.41,0,0,1,0,.57c-3.22,3.19-8.3,5.27-13.93,5.7C208,81.12,207.27,81.15,206.55,81.15Zm-11.91-4.24a.46.46,0,0,1,.25.08c7,5.17,20.39,4.16,26.91-1.94l-3.45-3.69-3.66-1.56-33.88-1-42.32.71L134,71.1l-3.34,3.67c1.86,2.37,7.6,4.13,15.49,4.76A102.87,102.87,0,0,0,176.23,77a.41.41,0,0,1,.29,0c3.66,2,6,3.08,8.41,3.09h0c2.54,0,5.3-1.12,9.5-3.19A.58.58,0,0,1,194.64,76.91Z"/><path class="cls-6" d="M179.38,69.32l-1.39.45c-1.07.26-2.15.47-3.23.67-3.41.63-6.84,1.13-10.28,1.56-4.16.52-8.35.93-12.54,1.16a73.92,73.92,0,0,1-11.43-.1c-2.22-.23-5.26-.51-6.94-2.19a2.65,2.65,0,0,1-.1-3.57,5.7,5.7,0,0,1,2.22-2.06c.47-.22,1.44-.94,1.95-.92L175.9,65.7Z"/><path d="M146.26,73.74a56.75,56.75,0,0,1-5.79-.27l-.14,0c-2.24-.23-5.3-.54-7.05-2.29a3,3,0,0,1-.14-4.09,6.07,6.07,0,0,1,2.38-2.2c.12-.06.3-.16.49-.28a3.69,3.69,0,0,1,1.65-.67l38.25,1.37a.4.4,0,0,1,.28.12L179.68,69a.41.41,0,0,1,0,.57.42.42,0,0,1-.17.1l-.08,0-1.33.43c-1.11.27-2.27.49-3.26.67-3.09.57-6.46,1.09-10.3,1.57-4.56.57-8.67,1-12.57,1.15C150.19,73.66,148.26,73.74,146.26,73.74Zm-8.64-9a4,4,0,0,0-1.2.56c-.21.13-.4.24-.56.32a5.55,5.55,0,0,0-2.06,1.92,2.25,2.25,0,0,0,.06,3c1.54,1.55,4.44,1.84,6.56,2.06l.13,0a74.87,74.87,0,0,0,11.37.09c3.88-.21,8-.58,12.51-1.15,3.82-.48,7.17-1,10.25-1.56,1-.18,2.12-.4,3.21-.66l.75-.24-2.92-3-38.09-1.37Z"/><path d="M148.63,70.92c-4.35,0-14.28-.29-15.58-2.9a.4.4,0,0,1,.18-.54.41.41,0,0,1,.55.18c.64,1.29,5.8,2.55,15.86,2.44,9.23-.1,19-1.37,25.48-3.32a.41.41,0,0,1,.51.28.41.41,0,0,1-.27.5c-6.56,2-16.41,3.25-25.71,3.35Z"/><path class="cls-7" d="M142.57,66.35c-1.72,2.18,1.44,3.21,4.85.91-1.19,3.06,4.09,2.39,5.06-.12,1,2.27,5.53,1.14,5.48-.63"/><path d="M148.87,69.71a2.11,2.11,0,0,1-1.71-.67,1.51,1.51,0,0,1-.32-1c-2.13,1.15-4.06,1.09-4.81.28-.26-.28-.75-1.05.22-2.27a.4.4,0,0,1,.57-.07.42.42,0,0,1,.07.57c-.24.31-.59.86-.27,1.21.52.55,2.44.55,4.57-.89a.41.41,0,0,1,.48,0,.42.42,0,0,1,.13.47,1.17,1.17,0,0,0,0,1.12,1.76,1.76,0,0,0,1.59.32A3.56,3.56,0,0,0,152.11,67a.4.4,0,0,1,.36-.26.42.42,0,0,1,.39.24c.45,1,1.79,1.18,2.92.92s1.79-.82,1.77-1.37a.41.41,0,0,1,.4-.42h0a.41.41,0,0,1,.41.39c0,1.12-1.19,1.91-2.41,2.19a3.57,3.57,0,0,1-3.44-.76,4.69,4.69,0,0,1-3,1.74A5,5,0,0,1,148.87,69.71Z"/><path class="cls-6" d="M174.12,66c1.21,1.81,3.77,2.86,5.66,3.72a72.24,72.24,0,0,0,10.61,3.75c2.7.76,5.45,1.35,8.21,1.86a59.05,59.05,0,0,0,12,1.23c2.45,0,6.46-.25,7.68-2.87a3.83,3.83,0,0,0,.26-2.14A4.61,4.61,0,0,0,215.93,68a46.65,46.65,0,0,0-5.75-2.64c-1-.4-2-.78-2.94-1.19l-1.36-.56a5.37,5.37,0,0,0-1.44-.58L194,62.7l-11.34.76-7.63.87Z"/><path d="M209.8,76.94a62.66,62.66,0,0,1-11.28-1.25c-3.2-.59-5.82-1.19-8.24-1.87a73.05,73.05,0,0,1-10.67-3.77l-.45-.21c-1.87-.84-4.2-1.89-5.38-3.65a.42.42,0,0,1,0-.42l.87-1.63a.42.42,0,0,1,.31-.22l7.63-.86,11.36-.76h0l10.48.31a3.16,3.16,0,0,1,1.19.42l.39.19.81.33.55.24,2,.79,1,.39a48.37,48.37,0,0,1,5.8,2.67A5,5,0,0,1,219,71.45a4.1,4.1,0,0,1-.29,2.37c-1.37,3-5.88,3.06-8,3.11Zm-35.2-11c1.1,1.46,3.19,2.41,4.89,3.17l.46.21A71.39,71.39,0,0,0,190.5,73c2.4.67,5,1.26,8.17,1.85a58.46,58.46,0,0,0,11.93,1.22c2,0,6.16-.13,7.33-2.64a3.47,3.47,0,0,0,.22-1.91,4.2,4.2,0,0,0-2.42-3.22,48.48,48.48,0,0,0-5.7-2.63l-1-.38-2-.8-.56-.24-.79-.32-.46-.22a2.94,2.94,0,0,0-.85-.34L194,63.11l-11.33.76-7.4.84Z"/><path d="M210.05,72.39c-8.91,0-23.06-2-32.35-6h-3.58a.41.41,0,0,1,0-.81h3.66a.51.51,0,0,1,.17,0c12.28,5.3,34.62,7.28,39.14,5.15.36-.17.59-.36.64-.54a.41.41,0,0,1,.79.23,1.85,1.85,0,0,1-1.08,1C216.14,72.09,213.49,72.39,210.05,72.39Z"/><path class="cls-7" d="M208.44,65.73c6.83,4.38,2.18,5.51-2.31,2.36,1.41,3.42-4.39,2.65-4.62-.54-.39,3.45-6.74,2.6-5.24.07C190.5,70,184.5,66.57,195,65.74"/><path d="M204.8,70.73a3.77,3.77,0,0,1-1.28-.23,3.89,3.89,0,0,1-2.05-1.67,3.07,3.07,0,0,1-1.82,1.26,3.71,3.71,0,0,1-3.71-.83,1.5,1.5,0,0,1-.31-1c-2.91,1-5.67.58-6.49-.19a.87.87,0,0,1-.26-.93c.33-.92,2.36-1.54,6-1.83a.41.41,0,1,1,.07.81c-4.94.39-5.34,1.29-5.34,1.3a.73.73,0,0,0,.31.22,8.67,8.67,0,0,0,6.15-.42.41.41,0,0,1,.47.1.42.42,0,0,1,0,.48.77.77,0,0,0,0,.93,2.94,2.94,0,0,0,2.84.54,2.11,2.11,0,0,0,1.67-1.79.42.42,0,0,1,.42-.36.39.39,0,0,1,.39.37,2.69,2.69,0,0,0,1.89,2.21,2,2,0,0,0,1.95-.12c.33-.34.19-.93,0-1.36a.42.42,0,0,1,.12-.48.4.4,0,0,1,.49,0c2.21,1.55,4.31,1.94,5,1.62.14-.07.15-.14.15-.18s0-1-3.27-3.13a.4.4,0,0,1,.44-.68c2.48,1.59,3.7,2.88,3.64,3.86a1,1,0,0,1-.61.86c-1,.48-3,0-4.93-1.13a1.57,1.57,0,0,1-.42,1.19A2.08,2.08,0,0,1,204.8,70.73Z"/><path class="cls-2" d="M174,36.44a71.12,71.12,0,0,0-25.62,4.73C142,43.77,135.48,48,132.76,54.6c-.91,2.22-1.64,4.84-1.06,7.24.66,2.73,2.81,3.77,5.42,3.93,5.5.32,11,.31,16.51.3,6.8,0,34,0,40.8,0,5.5,0,11,0,16.5-.3,2.62-.16,4.77-1.2,5.43-3.93.57-2.4-.15-5-1.06-7.24C212.58,48,206,43.77,199.65,41.17A71.16,71.16,0,0,0,174,36.44Z"/><path d="M197.79,66.48h-3.36c-6.87,0-33.94,0-40.8,0-5.41,0-11,0-16.53-.3-3.22-.19-5.17-1.61-5.8-4.23-.49-2.07-.14-4.52,1.08-7.5,2.35-5.73,7.69-10.32,15.87-13.65A71.38,71.38,0,0,1,174,36h0a71.38,71.38,0,0,1,25.77,4.76c8.18,3.33,13.52,7.92,15.87,13.65,1.22,3,1.58,5.43,1.08,7.5-.62,2.58-2.62,4-5.79,4.23C206.57,66.43,202.13,66.48,197.79,66.48ZM174,65.64l20.4,0c5.39,0,11,0,16.48-.3,2.81-.17,4.51-1.38,5.05-3.61.45-1.9.11-4.18-1-7-2.27-5.52-7.45-10-15.42-13.2a71.36,71.36,0,0,0-50.94,0c-8,3.24-13.16,7.68-15.43,13.2-1.15,2.82-1.49,5.1-1,7,.53,2.23,2.23,3.44,5.05,3.61,5.5.33,11.08.31,16.48.3Z"/><path class="cls-8" d="M184.31,45.67A1.05,1.05,0,0,1,183,44a6,6,0,0,1,2.42-.61A5.87,5.87,0,0,1,184.31,45.67Z"/><path class="cls-8" d="M175.85,51.9c.23.77-.17,1.08-.73,1.24a.89.89,0,0,1-1.28-.66,6,6,0,0,1,.38-2.47S175.63,51.13,175.85,51.9Z"/><path class="cls-8" d="M158.87,50.59c-.29.75-.79.75-1.33.55a.89.89,0,0,1-.62-1.31c.29-.75,1.79-1.73,1.79-1.73A5.92,5.92,0,0,1,158.87,50.59Z"/><path class="cls-8" d="M200,49a.88.88,0,0,1,1.44-.05.89.89,0,0,1,.13,1.44,5.94,5.94,0,0,1-2.29,1A5.79,5.79,0,0,1,200,49Z"/><path class="cls-8" d="M191.68,49.72a1,1,0,0,1-1.26,1.67,5.94,5.94,0,0,1-1.18-2.2A5.87,5.87,0,0,1,191.68,49.72Z"/><path class="cls-8" d="M167.88,43.58a1,1,0,0,1-.83-1.92,5.89,5.89,0,0,1,2.5.07S168.62,43.27,167.88,43.58Z"/><path class="cls-8" d="M151.75,44.31a1.05,1.05,0,0,1-1.32,1.63,6,6,0,0,1-1.1-2.24A6,6,0,0,1,151.75,44.31Z"/><path class="cls-8" d="M142,52.17c-.29.75-.8.75-1.34.54a.88.88,0,0,1-.62-1.3c.29-.75,1.8-1.73,1.8-1.73A5.9,5.9,0,0,1,142,52.17Z"/><path class="cls-8" d="M208.21,56a1.05,1.05,0,0,1-1.88.94,5.91,5.91,0,0,1-.07-2.5A5.93,5.93,0,0,1,208.21,56Z"/><path class="cls-8" d="M175.92,40.86a1,1,0,0,1,1.8-1.07,5.94,5.94,0,0,1,.25,2.49A6,6,0,0,1,175.92,40.86Z"/><path class="cls-9" d="M176.14,88.72a9.45,9.45,0,0,1,1.65.4l.4.14c.07,0,.27.1,0,0l.17.08c.26.12.51.24.76.38,1,.59,2,1.33,3,2,.52.31,1,.61,1.58.9a13,13,0,0,0,1.78.92,2.27,2.27,0,0,0,2.34-.59l.59-.53.28-.23.14-.11.14-.11-.11.08s1.35-.9,1.48-1l.44-.22.16-.08s.31-.13.13-.06,0,0,.06,0l.25-.09a4.11,4.11,0,0,1,.46-.15,1.22,1.22,0,1,0-.65-2.36,11,11,0,0,0-3,1.46c-.49.34-1,.7-1.42,1.09l-.56.5c-.05,0-.39.32-.13.11-.07.06-.18,0,.06,0l.14,0c-.12,0-.12,0,0,0s-.1,0-.11-.05.24.12,0,0l-.35-.19-.79-.44c-.53-.29-1.06-.59-1.58-.9-1-.6-1.91-1.31-2.9-1.9a10.36,10.36,0,0,0-3.75-1.34,1.33,1.33,0,0,0-.94.12,1.2,1.2,0,0,0-.56.73,1.22,1.22,0,0,0,.85,1.5Z"/><path class="cls-10" d="M133.19,90.21a13.84,13.84,0,0,1,1.55-.47l.73-.15.37-.06.19,0s-.27,0,0,0a21.66,21.66,0,0,1,3.12-.13c2.15.06,4.28.35,6.41.55a34.85,34.85,0,0,0,6.54.06,55.69,55.69,0,0,1,6.7-.44q.48,0,1,.06l.45.05c.24,0,0,0,0,0a2.17,2.17,0,0,1,.25,0c.62.1,1.22.23,1.83.35a11.71,11.71,0,0,0,4.21.2,1.24,1.24,0,0,0,.86-1.5,1.26,1.26,0,0,0-1.51-.85l-.19,0c.27,0,.08,0,0,0l-.4,0a8.81,8.81,0,0,1-.89,0l-.39,0c-.06,0-.24,0,0,0l-.19,0c-.29,0-.57-.09-.85-.15a31.84,31.84,0,0,0-3.5-.55,39.5,39.5,0,0,0-6.7.35c-1.13.11-2.25.2-3.38.2s-2.13-.05-3.19-.14c-2.14-.19-4.27-.49-6.42-.59a18.38,18.38,0,0,0-7.22.91,1.25,1.25,0,0,0-.86,1.5,1.23,1.23,0,0,0,1.5.85Z"/><path class="cls-10" d="M216.17,87.84a13.57,13.57,0,0,0-1.92-.18c-.42,0-.84,0-1.27,0a6.72,6.72,0,0,1-1.55-.07s.25,0,0,0l-.14,0-.17,0-.82-.1a12.88,12.88,0,0,0-2.32-.17c-.4,0-.79.1-1.18.16l-.48.08c-.06,0-.23,0,0,0l-.29,0a9.6,9.6,0,0,1-1.61-.07,10,10,0,0,0-1.55-.07,8.75,8.75,0,0,0-2.14.38,1.17,1.17,0,0,0,.62,2.26,7.17,7.17,0,0,1,.91-.24l.17,0c.06,0,.26,0,.08,0s0,0,.07,0l.22,0a10.15,10.15,0,0,1,1.35,0c.48,0,1,.1,1.44.12a10.66,10.66,0,0,0,2.1-.25c.32-.06-.25,0,.07,0h.2l.29,0,.46,0q.63,0,1.26.12l.54.06.24,0c-.45-.05-.18,0-.07,0a14,14,0,0,0,1.83.18c.47,0,.94,0,1.41,0h.8l.45,0,.17,0c.14,0,.13,0,0,0l.2,0a1.27,1.27,0,0,0,.9-.12,1.16,1.16,0,0,0,.54-.69,1.18,1.18,0,0,0-.82-1.44Z"/><path class="cls-11" d="M217.08,94.36c-.77.53-1.55,1.07-2.37,1.53l-.57.31-.33.15a.56.56,0,0,1-.16.07c.07,0,.18-.07,0,0a8,8,0,0,1-1.36.35,7.72,7.72,0,0,0-1.43.38,10.65,10.65,0,0,1-1.36.41l.11,0a.52.52,0,0,0-.17,0h-.33l-.3,0h-.12c-.29,0,.26.06,0,0l-.57-.13-.33-.11-.12,0c-.14-.06-.13,0,0,0a5.22,5.22,0,0,1-1.3-.73l-.33-.23-.06,0c.15.09-.08-.07-.09-.08l-.6-.52a1.18,1.18,0,0,0-1.67,0,1.2,1.2,0,0,0,0,1.67,8.3,8.3,0,0,0,5.63,2.6,5.33,5.33,0,0,0,1.64-.28,14.93,14.93,0,0,1,1.43-.47c.51-.12,1-.17,1.53-.32a11,11,0,0,0,1.55-.65,27.35,27.35,0,0,0,2.86-1.79,1.19,1.19,0,0,0-1.2-2Z"/><path class="cls-11" d="M131.27,95.53l6.3,2.16a21.37,21.37,0,0,0,3,.87,18,18,0,0,0,3.44.29c1.06,0,2.13,0,3.19,0a27.85,27.85,0,0,1,3.17.28,26.75,26.75,0,0,0,3.22.29,23,23,0,0,0,3.42-.3c2.47-.36,4.93-.77,7.39-1.15a1.23,1.23,0,0,0,.85-1.5,1.26,1.26,0,0,0-1.5-.86c-2.18.34-4.35.69-6.53,1l-.7.11-.41.06s-.24,0,0,0l-.25,0c-.52.07-1,.11-1.58.14a19.15,19.15,0,0,1-3.12-.18c-1.06-.13-2.11-.29-3.17-.35s-2.13,0-3.19,0a23.34,23.34,0,0,1-3.13-.11c-.24,0,0,0,0,0l-.2,0-.34-.06c-.28,0-.56-.12-.83-.19-.5-.13-1-.28-1.48-.45-2.33-.77-4.65-1.59-7-2.38a1.22,1.22,0,0,0-1.5.85,1.24,1.24,0,0,0,.85,1.5Z"/><path class="cls-11" d="M164.25,77.54a53.63,53.63,0,0,0,9.67-1.6c.74-.2,1.49-.42,2.23-.65l.54-.16c.05,0,.21-.08.27-.06-.12,0-.2,0-.06,0s.24,0,.27,0l-.15,0,.17,0-.13,0,.14.08q-.21-.17-.06,0l.12.11a14.77,14.77,0,0,0,1.4,1.34,11.72,11.72,0,0,0,1.87,1.25,11.41,11.41,0,0,0,4.75,1.25,1.22,1.22,0,0,0,1.22-1.22,1.25,1.25,0,0,0-1.22-1.22l-.51,0-.25,0c-.29,0,.28,0,0,0s-.66-.12-1-.2a9.18,9.18,0,0,1-.89-.28L182.4,76c-.08,0-.33-.08,0,0a2.88,2.88,0,0,1-.5-.24c-.29-.14-.57-.3-.85-.47l-.39-.26-.17-.12-.13-.1c.13.11.15.12,0,0-.53-.43-1-.93-1.45-1.4a2.89,2.89,0,0,0-1.17-.71,3.21,3.21,0,0,0-1.54,0c-.77.16-1.52.46-2.27.67-1.52.42-3.07.77-4.62,1.06-.43.07-.86.15-1.29.21l-.7.11-.2,0c.32,0-.12,0-.18,0-.9.11-1.8.2-2.71.27a1.22,1.22,0,1,0,0,2.44Z"/><path class="cls-12" d="M215.42,61.63a10.28,10.28,0,0,0-.23-4.31,14.55,14.55,0,0,0-1.62-3.73,23.93,23.93,0,0,0-4.88-5.73,38,38,0,0,0-13.87-7.29,88.31,88.31,0,0,0-9.22-2.21,1.22,1.22,0,1,0-.64,2.35c2.68.53,5.35,1.1,8,1.85,1.29.37,2.58.78,3.84,1.25l.92.34.46.19.27.11c.06,0,.34.14.08,0,.59.24,1.17.51,1.75.79A33,33,0,0,1,203.35,47q.77.47,1.5,1c.22.15.45.31.66.47l.35.26c.06,0,.23.15,0,0l.2.16a26.2,26.2,0,0,1,2.65,2.41c.39.41.77.83,1.13,1.27l.27.33a1.49,1.49,0,0,1,.15.2s-.16-.22,0,0,.37.51.55.76a18.27,18.27,0,0,1,1.1,1.79c.17.33.33.66.48,1,0,.05.11.2,0,0l.12.3c.06.15.11.31.17.47q.17.52.3,1c0,.16.07.32.09.49a1.7,1.7,0,0,1,0,.22c.05.28,0-.23,0,0a9.76,9.76,0,0,1,.05,1.08c0,.18,0,.36,0,.54a1.1,1.1,0,0,0,0,.18c0,.14,0,.12,0-.06l0,.18a1.38,1.38,0,0,0,.12.94,1.2,1.2,0,0,0,.73.56,1.23,1.23,0,0,0,1.51-.85Z"/><path class="cls-7" d="M213.33,70.41c.19.18.37.35.54.54l.15.17c.1.12,0,0,0-.05a1.89,1.89,0,0,0,.19.3,1.14,1.14,0,0,0,.1.19s-.09-.23,0-.08.06.21.09.32,0-.26,0,0a.57.57,0,0,0,0,.13,1.34,1.34,0,0,0,0,.2c0-.08,0-.26,0-.07s0,.11,0,.16.09-.17,0,0l-.15.26c-.06.1.19-.21,0-.06l-.1.11a.58.58,0,0,0-.12.1c0-.06.21-.15,0,0a2.34,2.34,0,0,1-.27.15c-.12.07.25-.08.06,0l-.15,0-.16,0c-.19,0,.21,0,.07,0a2.16,2.16,0,0,1-.36,0,1.13,1.13,0,0,0-1.12,1.13A1.14,1.14,0,0,0,213.23,75a3.2,3.2,0,0,0,3.25-2.28,3.31,3.31,0,0,0-.27-2.27,5.68,5.68,0,0,0-1.29-1.6,1.12,1.12,0,0,0-1.59,1.59Z"/><path class="cls-7" d="M136.27,67.06a2.47,2.47,0,0,0-.64,2.75,3,3,0,0,0,2,1.67,1.09,1.09,0,0,0,1.23-1.6,1.09,1.09,0,0,0-.65-.5,2.06,2.06,0,0,1-.35-.12l.26.11a2,2,0,0,1-.47-.27l.22.17a1.87,1.87,0,0,1-.31-.32l.17.22a1.38,1.38,0,0,1-.2-.33l.11.26a1.16,1.16,0,0,1-.08-.32l0,.29a1.22,1.22,0,0,1,0-.33l0,.29a1.2,1.2,0,0,1,.1-.37l-.11.26a1.38,1.38,0,0,1,.2-.33l-.17.22a1.29,1.29,0,0,1,.19-.21,1.09,1.09,0,1,0-1.54-1.54Z"/><path d="M212.24,72.35a.41.41,0,1,1,0-.81,11.46,11.46,0,0,0,5.25-1,.42.42,0,0,1,.55.17.4.4,0,0,1-.17.55,12.19,12.19,0,0,1-5.63,1.13Z"/><path d="M141.5,70.64h0a21,21,0,0,1-7.26-1.58.39.39,0,0,1-.2-.54.4.4,0,0,1,.54-.19,20.32,20.32,0,0,0,7,1.5.4.4,0,0,1,.36.44A.41.41,0,0,1,141.5,70.64Z"/><path class="cls-12" d="M133.53,103.64c2.17,3.68,6.15,5.82,10.2,6.8a45.81,45.81,0,0,0,7.1,1q3.64.3,7.32.47c2.75.12,5.51.19,8.27.19a1.22,1.22,0,0,0,0-2.44q-7.2,0-14.39-.56c-1.16-.09-2.31-.19-3.46-.32l-.79-.09-.39,0c.27,0,.09,0,0,0l-.29,0c-.55-.08-1.1-.17-1.65-.28a23.88,23.88,0,0,1-3.22-.86l-.69-.26-.15-.06c-.09,0-.24-.05,0,0a1.47,1.47,0,0,1-.34-.15c-.43-.19-.84-.4-1.25-.63a13.43,13.43,0,0,1-1.35-.86,2,2,0,0,1-.33-.24s.22.17,0,0l-.16-.13-.58-.51a11.33,11.33,0,0,1-1.07-1.12l-.12-.16c-.1-.12.15.2,0,0l-.24-.33c-.15-.22-.3-.45-.44-.68A1.22,1.22,0,0,0,134,102a1.24,1.24,0,0,0-.43,1.67Z"/></g></svg>