<svg id="Layer_1" data-name="Layer 1" xmlns="http://www.w3.org/2000/svg" viewBox="0 0 350 150"><defs><style>.cls-1,.cls-3,.cls-5{fill:none;stroke-linecap:round;stroke-linejoin:round;}.cls-1,.cls-2,.cls-3,.cls-5,.cls-6{stroke:#03e2b7;}.cls-1{stroke-width:0.4px;}.cls-2{fill:#fff;}.cls-2,.cls-6{stroke-miterlimit:10;}.cls-3{stroke-width:0.5px;}.cls-4,.cls-6{fill:#03e2b7;}.cls-5{stroke-width:0.35px;}.cls-6{stroke-width:0;}</style></defs><title>bg</title><rect class="cls-1" x="-4.54" y="104.17" width="20" height="42.26" rx="2.65"/><circle class="cls-1" cx="5.46" cy="143.51" r="1.78"/><circle class="cls-2" cx="5.65" cy="106.08" r="0.42"/><circle class="cls-2" cx="2.88" cy="107.71" r="0.27"/><rect class="cls-2" x="4.01" y="107.5" width="3.31" height="0.42" rx="0.21"/><rect class="cls-1" x="-3.36" y="109.76" width="17.64" height="31" rx="0.27"/><path class="cls-3" d="M7.75,91.1a1.62,1.62,0,0,1,1.64,1.59,2,2,0,0,1-2,2,2.57,2.57,0,0,1-2.57-2.5,3.09,3.09,0,0,1,3.1-3.14A4,4,0,0,1,12,93a4.83,4.83,0,0,1-4.84,4.92A6.24,6.24,0,0,1,.84,91.79c-.08-4.22,3.84-7.94,8.38-8.63,13.71-2.68,21.46,22.29,13.12,34.76"/><path class="cls-1" d="M10.37,29.58c3.3,1.93,7.11-5.08,13.1-5.77-6.63-6.46-18.21-1.43-14.31,4.6"/><path class="cls-1" d="M12.65,25.48C8.09,28.67,2.85,35.59,1.83,42.07"/><path class="cls-1" d="M2.68,23.69c2.41,2.82,4,6.16,1.45,11.78"/><path class="cls-1" d="M3.78,27.81C-.63,29-1.61,22.18-4.84,20.91,1.38,17.41,9,23.45,4.92,27.18"/><line class="cls-1" x1="40.66" y1="123.22" x2="23.81" y2="145.05"/><path class="cls-1" d="M36.7,128.34a7.12,7.12,0,0,1,5.31-1.9"/><path class="cls-1" d="M33.07,133.05a7.12,7.12,0,0,1,5.31-1.9"/><path class="cls-1" d="M36.7,128.34a7.1,7.1,0,0,0,.5-5.61"/><path class="cls-1" d="M33.07,133.05a7.1,7.1,0,0,0,.5-5.61"/><path class="cls-1" d="M45.57,116.85c-15.42-1.74-20.52,10-14.52,18.83"/><path class="cls-1" d="M45.57,116.85C50.42,129.4,43.49,137,35,136.5"/><path class="cls-3" d="M103.14,76.63c2.17-6.72,8-9.48,16.28-9.46-3.34,7.57-7.31,15-16.28,9.46"/><path class="cls-3" d="M118.43,147.17c-13.05-25-20.25-48.94-15.29-70.54"/><path class="cls-3" d="M103.14,76.63C98.38,71.41,92,71.3,84.4,74.76c6.18,5.51,12.87,10.65,18.74,1.87"/><path class="cls-3" d="M101.73,97.11c4-8.46,12-11.12,22.94-9.71-5.64,9.38-12.08,18.5-22.94,9.71"/><path class="cls-3" d="M107.35,121.94c5.05-10.8,15.34-14.19,29.28-12.4-7.2,12-15.43,23.62-29.28,12.4"/><path class="cls-3" d="M101.73,96.77c-7.09-6.09-15.54-5.2-24.91.57,9,6.24,18.62,11.91,24.91-.57"/><path class="cls-3" d="M107.35,121.83c-9-7.77-19.83-6.63-31.79.73,11.48,8,23.76,15.19,31.79-.73"/><line class="cls-1" x1="38.98" y1="52.69" x2="46.44" y2="66.84"/><path class="cls-1" d="M39,52.69c-4.74-5.43-8.61-4.38-12.48-3.46C32.77,52,32.32,65.74,43.3,60.89"/><path class="cls-1" d="M43.18,40.44c-3,2.67-6,5.27-4.2,12.25"/><path class="cls-1" d="M43.18,40.44c-1.17,6,8,12.57,2.67,18.41"/><path class="cls-1" d="M30.92,48.49a6.81,6.81,0,0,0,2.52-6.31"/><path class="cls-1" d="M40.07,43.66a6.79,6.79,0,0,1-6.63-1.48"/><path class="cls-4" d="M78.91,146.26l-2.37-2.4a.25.25,0,1,1,.36-.35h0l2.23,2.53a.16.16,0,0,1,0,.22A.15.15,0,0,1,78.91,146.26Z"/><path class="cls-4" d="M80.89,146.25l2.4-2.37a.25.25,0,0,1,.35,0,.25.25,0,0,1,0,.36h0l-2.53,2.23a.16.16,0,0,1-.22,0A.15.15,0,0,1,80.89,146.25Z"/><path class="cls-4" d="M79.86,145.86l-.09-3.38a.24.24,0,0,1,.24-.25.25.25,0,0,1,.26.24h0l-.1,3.38A.16.16,0,0,1,80,146,.16.16,0,0,1,79.86,145.86Z"/><path class="cls-4" d="M92,146.26l-2.37-2.4a.25.25,0,0,1,.35-.35h0l2.23,2.53a.16.16,0,0,1,0,.22A.15.15,0,0,1,92,146.26Z"/><path class="cls-4" d="M94,146.26l2.4-2.37a.25.25,0,0,1,.35.35h0l-2.53,2.23a.16.16,0,0,1-.22,0A.15.15,0,0,1,94,146.26Z"/><path class="cls-4" d="M93,145.86l-.1-3.37a.26.26,0,0,1,.25-.26.25.25,0,0,1,.25.24v0l-.09,3.37a.16.16,0,0,1-.16.15A.15.15,0,0,1,93,145.86Z"/><path class="cls-4" d="M105,146.26l-2.37-2.4a.25.25,0,1,1,.35-.35h0l2.23,2.53a.16.16,0,0,1,0,.22A.14.14,0,0,1,105,146.26Z"/><path class="cls-4" d="M106.92,146.26l2.41-2.37a.24.24,0,0,1,.35,0,.25.25,0,0,1,0,.35h0l-2.54,2.23a.14.14,0,0,1-.21,0A.15.15,0,0,1,106.92,146.26Z"/><path class="cls-4" d="M105.9,145.86l-.1-3.37a.25.25,0,1,1,.5,0v0l-.1,3.37a.15.15,0,0,1-.16.15A.15.15,0,0,1,105.9,145.86Z"/><path class="cls-1" d="M9.29,62.56s7.1,8.54,9.06,5.73C20,66.05,9.29,62.56,9.29,62.56Z"/><path class="cls-1" d="M9.33,62.57S19.48,67.06,20.77,64C21.93,61.56,9.33,62.57,9.33,62.57Z"/><path class="cls-1" d="M9.2,62.7s7.9,7.66,5.43,9.91C12.67,74.52,9.2,62.7,9.2,62.7Z"/><path class="cls-1" d="M9.68,62.89S-1.49,60.34.4,57.48C1.85,55.11,9.68,62.89,9.68,62.89Z"/><path class="cls-1" d="M9.65,62.85S1.1,56,3.49,53.62C5.38,51.61,9.65,62.85,9.65,62.85Z"/><path class="cls-1" d="M9.59,63s-10.67-3.59-11.8-.53C-3.23,65,9.59,63,9.59,63Z"/><polygon class="cls-3" points="9.75 13.2 7.47 11.58 7.73 8.79 10.27 7.62 12.55 9.24 12.29 12.02 9.75 13.2"/><polygon class="cls-3" points="21.69 11.96 18.43 9.65 18.79 5.67 22.43 3.99 25.69 6.3 25.33 10.29 21.69 11.96"/><polygon class="cls-3" points="37.56 14.7 32.87 11.38 33.4 5.66 38.61 3.26 43.3 6.57 42.78 12.29 37.56 14.7"/><polygon class="cls-3" points="-0.86 14.87 -2.28 13.87 -2.12 12.14 -0.54 11.41 0.88 12.41 0.72 14.14 -0.86 14.87"/><path class="cls-5" d="M56,96.26c-2.89,1-4.33,2.1-6.84,2.66-2.33-6.46-4.31-12.7-6.74-15.92.31-1.06-.5-3.13-2.42-6.23l3-2.06c2.57,1.77,6.68.57,7.27-2.83l3.57-.48c.68,3.58,1.49,5.65,2.42,6.23.4,4,3.15,10,5.81,16.28-2.23,1.29-4,1.46-6.84,2.67"/><path class="cls-5" d="M40,76.77l-3.87,4.88c1.07,2.12,2.24,3.34,3.53,3.4l2.76-2"/><path class="cls-5" d="M39.88,84.91a8.28,8.28,0,0,0-3.54-3.39"/><path class="cls-5" d="M36.89,80.79a6.93,6.93,0,0,1,3.62,3.56"/><path class="cls-5" d="M53.81,71.4l6.15,1c.65,2.28.61,4-.31,4.89l-3.42.36"/><path class="cls-5" d="M59.38,77.27a8.45,8.45,0,0,1,.31-4.89"/><path class="cls-5" d="M58.64,72.18a7,7,0,0,0-.27,5.06"/><path class="cls-5" d="M50.24,71.88l-.89-.31a10.49,10.49,0,0,1-5.78,2.16l-.6,1"/><path class="cls-5" d="M43.57,73.73c1,2.08,6.14.11,5.78-2.16"/><path class="cls-4" d="M56.26,41.05l-3.14-2.8a.25.25,0,0,1,0-.36.25.25,0,0,1,.35,0h0l3,2.94a.16.16,0,0,1,0,.22A.15.15,0,0,1,56.26,41.05Z"/><path class="cls-4" d="M58.92,40.93l2.8-3.14a.25.25,0,0,1,.37.33h0l-2.94,3a.15.15,0,0,1-.21,0A.16.16,0,0,1,58.92,40.93Z"/><path class="cls-4" d="M56.68,43.78l-2.8,3.15a.25.25,0,1,1-.37-.34h0l2.93-3a.16.16,0,0,1,.22,0A.15.15,0,0,1,56.68,43.78Z"/><path class="cls-4" d="M59.13,43.3l3.15,2.8a.25.25,0,0,1-.34.38h0l-3-2.94a.16.16,0,0,1,0-.22A.15.15,0,0,1,59.13,43.3Z"/><path class="cls-4" d="M57.65,40.31l-.1-4.21a.26.26,0,0,1,.25-.26.25.25,0,0,1,.25.25h0L58,40.31a.16.16,0,0,1-.16.15A.16.16,0,0,1,57.65,40.31Z"/><path class="cls-4" d="M58,44.05l.09,4.21a.23.23,0,0,1-.24.25.25.25,0,0,1-.26-.24h0l.1-4.21a.16.16,0,0,1,.16-.15A.15.15,0,0,1,58,44.05Z"/><path class="cls-1" d="M88.58,47.5A88.77,88.77,0,0,0,78.2,39.87"/><path class="cls-1" d="M72.78,45.2a11.64,11.64,0,0,1,2.61-6.72c2.2-2.13,3-5.11,8.27-2.42A20.74,20.74,0,0,1,88,39a14.47,14.47,0,0,1,3,3.39c.38.65.94,1.78.25,2.42a1,1,0,0,1-.32.21c-6.58,6.72-12,13.53-15.14,20.54-2.79,1-13-7-12.48-9.35a43.17,43.17,0,0,0,9.45-11c3.88-2,3.45-6.57,9.5-6.55A61.23,61.23,0,0,1,91,45.05"/><path class="cls-1" d="M65,54.76a20.6,20.6,0,0,0,11.9,8.55"/><path class="cls-1" d="M85.89,50.52c2.5-3,5.77-1.59,2.87,3.26C86,58.7,77.94,64.06,79.14,59.52"/><path class="cls-1" d="M88.58,47.52c2.72-.14,4.89,2.68,2.29,7.36-2.78,5.57-11.76,12.1-13.3,7.21"/><path class="cls-3" d="M76,3.46c18.2,8.85,29.93,22,33.08,40.88.17,1,8.47-37.74,24.38-40.88Z"/><circle class="cls-3" cx="62.73" cy="110.9" r="5.63"/><path class="cls-4" d="M57.2,111.93l-2,2a.25.25,0,0,1-.35-.35h0l2.1-1.83a.16.16,0,0,1,.22,0A.15.15,0,0,1,57.2,111.93Z"/><path class="cls-4" d="M56.91,110.18l-2-2a.25.25,0,0,1,.35-.35h0l1.83,2.1a.15.15,0,0,1,0,.22A.15.15,0,0,1,56.91,110.18Z"/><path class="cls-4" d="M56.85,111.16l-2.78.09a.24.24,0,0,1-.26-.24.25.25,0,0,1,.24-.26h0l2.78.1A.16.16,0,0,1,57,111,.16.16,0,0,1,56.85,111.16Z"/><path class="cls-4" d="M68.46,111.4l2.1,1.83a.24.24,0,0,1,0,.35.25.25,0,0,1-.36,0h0l-2-2a.16.16,0,0,1,0-.22A.15.15,0,0,1,68.46,111.4Z"/><path class="cls-4" d="M68.31,109.66l1.83-2.1a.25.25,0,0,1,.35,0,.24.24,0,0,1,0,.35h0l-2,2a.16.16,0,0,1-.22,0A.15.15,0,0,1,68.31,109.66Z"/><path class="cls-4" d="M68.6,110.54l2.78-.09a.24.24,0,0,1,.26.24.25.25,0,0,1-.24.26h0l-2.78-.1a.16.16,0,0,1-.15-.16A.17.17,0,0,1,68.6,110.54Z"/><path class="cls-4" d="M63.84,116.32l2,2a.25.25,0,0,1,0,.36.26.26,0,0,1-.35,0v0l-1.83-2.1a.16.16,0,0,1,0-.22A.17.17,0,0,1,63.84,116.32Z"/><path class="cls-4" d="M62.09,116.61l-2,2a.26.26,0,0,1-.35,0,.25.25,0,0,1,0-.36h0l2.1-1.83a.16.16,0,0,1,.22,0A.15.15,0,0,1,62.09,116.61Z"/><path class="cls-4" d="M63.07,116.67l.09,2.79a.24.24,0,0,1-.24.25.25.25,0,0,1-.26-.24h0l.1-2.79a.16.16,0,0,1,.16-.15A.17.17,0,0,1,63.07,116.67Z"/><path class="cls-4" d="M61.68,105.38l-2-2a.25.25,0,0,1,.35-.35h0l1.83,2.1a.16.16,0,0,1,0,.22A.15.15,0,0,1,61.68,105.38Z"/><path class="cls-4" d="M63.43,105.1l2-2a.25.25,0,0,1,.35.35h0l-2.1,1.83a.16.16,0,0,1-.22,0A.15.15,0,0,1,63.43,105.1Z"/><path class="cls-4" d="M62.45,105l-.09-2.78a.25.25,0,0,1,.24-.26.25.25,0,0,1,.26.24v0l-.1,2.78a.15.15,0,0,1-.16.15A.16.16,0,0,1,62.45,105Z"/><circle class="cls-3" cx="72.82" cy="82.56" r="3.76"/><circle class="cls-3" cx="72.82" cy="82.56" r="1.84"/><rect class="cls-1" x="104.11" y="49.17" width="8.64" height="13.11" rx="2.06" transform="translate(52.7 164.16) rotate(-90)"/><path class="cls-3" d="M72.21,15c-.6,2.38-6.85,6.88-6.85,6.88S62,15,62.57,12.57s4.49-.24,4.35,3.1C68.7,12.73,72.8,12.61,72.21,15Z"/><path class="cls-1" d="M9.07,62.85s9-6.53,6.3-8.67C13.25,52.36,9.07,62.85,9.07,62.85Z"/><path class="cls-1" d="M9.07,62.8s5.16-9.83,2.2-11.32C8.89,50.17,9.07,62.8,9.07,62.8Z"/><path class="cls-1" d="M9.19,62.94s8.17-7.38,10.25-4.76C21.22,60.26,9.19,62.94,9.19,62.94Z"/><path class="cls-1" d="M9.41,62.48s-3.28,11-6,8.9C1.14,69.77,9.41,62.48,9.41,62.48Z"/><path class="cls-1" d="M9.37,62.5S2,70.58-.24,68C-2.12,66,9.37,62.5,9.37,62.5Z"/><path class="cls-1" d="M9.54,62.58S5.24,73,8.22,74.31C10.63,75.5,9.54,62.58,9.54,62.58Z"/><path class="cls-3" d="M18.53,46.22c-.27-5,.49-10.81,4.67-14.19,4.35-3.53,10.73-3.46,16-2.71,2.83.4,5.5,1.34,8.38.85a7.28,7.28,0,0,0,5.57-4c1.45-2.74,1-6.36-1.31-8a4.21,4.21,0,0,0-5.82.95,3.25,3.25,0,0,0,.72,4.6,2.69,2.69,0,0,0,3.73-.61A2.09,2.09,0,0,0,50,20.19a1.72,1.72,0,0,0-2.39.39,1.34,1.34,0,0,0,.3,1.88,1.09,1.09,0,0,0,1.52-.25"/><path class="cls-3" d="M35.57,147.17H70.82c2.49-8.67.66-16.48-2.83-23.95C61.61,134.28,50.23,141.87,35.57,147.17Z"/><path class="cls-1" d="M119,45.11c0,.26.76.87,1,1.09a14,14,0,0,0,1,1,12.47,12.47,0,0,0,2.13,1.62,10,10,0,0,0,4.41,1.42,10.76,10.76,0,0,0,11.19-10.48c0-3.47-2.08-6.46-4.74-8.54a23.58,23.58,0,0,0-3.08-2c.2,0,.44,0,.65-.09a12.75,12.75,0,0,1,9.1,2.25,13.86,13.86,0,0,1,5.47,9.17c.72,5.07-2.07,10.16-5.9,13.33-4.72,3.9-11.64,3.37-16.29-.36A13.35,13.35,0,0,1,119,45.11Z"/><path class="cls-3" d="M141.8,91c-30.41-27.6-1.12-40.86,0,0"/><rect class="cls-1" x="149.46" y="104.17" width="20" height="42.26" rx="2.65"/><circle class="cls-1" cx="159.46" cy="143.51" r="1.78"/><circle class="cls-2" cx="159.65" cy="106.08" r="0.42"/><circle class="cls-2" cx="156.88" cy="107.71" r="0.27"/><rect class="cls-2" x="158.01" y="107.5" width="3.31" height="0.42" rx="0.21"/><rect class="cls-1" x="150.64" y="109.76" width="17.64" height="31" rx="0.27"/><path class="cls-3" d="M161.75,91.1a1.62,1.62,0,0,1,1.64,1.59,2,2,0,0,1-2,2,2.57,2.57,0,0,1-2.57-2.5,3.09,3.09,0,0,1,3.1-3.14A4,4,0,0,1,166,93a4.83,4.83,0,0,1-4.84,4.92,6.24,6.24,0,0,1-6.27-6.09c-.08-4.22,3.84-7.94,8.38-8.63,13.71-2.68,21.46,22.29,13.12,34.76"/><path class="cls-1" d="M164.37,29.58c3.3,1.93,7.11-5.08,13.1-5.77-6.63-6.46-18.21-1.43-14.31,4.6"/><path class="cls-1" d="M166.65,25.48c-4.56,3.19-9.8,10.11-10.82,16.59"/><path class="cls-1" d="M156.68,23.69c2.41,2.82,4,6.16,1.45,11.78"/><path class="cls-1" d="M157.78,27.81c-4.41,1.22-5.39-5.63-8.62-6.9,6.22-3.5,13.86,2.54,9.76,6.27"/><line class="cls-1" x1="194.66" y1="123.22" x2="177.81" y2="145.05"/><path class="cls-1" d="M190.7,128.34a7.12,7.12,0,0,1,5.31-1.9"/><path class="cls-1" d="M187.07,133.05a7.12,7.12,0,0,1,5.31-1.9"/><path class="cls-1" d="M190.7,128.34a7.1,7.1,0,0,0,.5-5.61"/><path class="cls-1" d="M187.07,133.05a7.1,7.1,0,0,0,.5-5.61"/><path class="cls-1" d="M199.57,116.85c-15.42-1.74-20.52,10-14.52,18.83"/><path class="cls-1" d="M199.57,116.85C204.42,129.4,197.49,137,189,136.5"/><path class="cls-3" d="M257.14,76.63c2.17-6.72,8-9.48,16.28-9.46-3.34,7.57-7.31,15-16.28,9.46"/><path class="cls-3" d="M272.43,147.17c-13.05-25-20.25-48.94-15.29-70.54"/><path class="cls-3" d="M257.14,76.63c-4.76-5.22-11.17-5.33-18.74-1.87,6.18,5.51,12.87,10.65,18.74,1.87"/><path class="cls-3" d="M255.73,97.11c4-8.46,12-11.12,22.94-9.71-5.64,9.38-12.08,18.5-22.94,9.71"/><path class="cls-3" d="M261.35,121.94c5-10.8,15.34-14.19,29.28-12.4-7.2,12-15.43,23.62-29.28,12.4"/><path class="cls-3" d="M255.73,96.77c-7.09-6.09-15.54-5.2-24.91.57,9,6.24,18.62,11.91,24.91-.57"/><path class="cls-3" d="M261.35,121.83c-9.05-7.77-19.83-6.63-31.79.73,11.48,8,23.76,15.19,31.79-.73"/><line class="cls-1" x1="192.98" y1="52.69" x2="200.44" y2="66.84"/><path class="cls-1" d="M193,52.69c-4.74-5.43-8.61-4.38-12.48-3.46,6.27,2.72,5.82,16.51,16.8,11.66"/><path class="cls-1" d="M197.18,40.44c-3,2.67-6,5.27-4.2,12.25"/><path class="cls-1" d="M197.18,40.44c-1.17,6,8,12.57,2.67,18.41"/><path class="cls-1" d="M184.92,48.49a6.81,6.81,0,0,0,2.52-6.31"/><path class="cls-1" d="M194.07,43.66a6.79,6.79,0,0,1-6.63-1.48"/><path class="cls-4" d="M232.91,146.26l-2.37-2.4a.25.25,0,1,1,.36-.35h0l2.23,2.53a.16.16,0,0,1,0,.22A.15.15,0,0,1,232.91,146.26Z"/><path class="cls-4" d="M234.89,146.25l2.4-2.37a.25.25,0,0,1,.35,0,.25.25,0,0,1,0,.36h0l-2.53,2.23a.16.16,0,0,1-.22,0A.15.15,0,0,1,234.89,146.25Z"/><path class="cls-4" d="M233.86,145.86l-.09-3.38a.24.24,0,0,1,.24-.25.25.25,0,0,1,.26.24h0l-.1,3.38a.16.16,0,0,1-.16.15A.16.16,0,0,1,233.86,145.86Z"/><path class="cls-4" d="M246,146.26l-2.37-2.4a.25.25,0,1,1,.35-.35h0l2.23,2.53a.16.16,0,0,1,0,.22A.15.15,0,0,1,246,146.26Z"/><path class="cls-4" d="M248,146.26l2.4-2.37a.25.25,0,0,1,.35.35h0l-2.53,2.23a.16.16,0,0,1-.22,0A.15.15,0,0,1,248,146.26Z"/><path class="cls-4" d="M247,145.86l-.1-3.37a.26.26,0,0,1,.25-.26.25.25,0,0,1,.25.24v0l-.09,3.37a.16.16,0,0,1-.16.15A.15.15,0,0,1,247,145.86Z"/><path class="cls-4" d="M259,146.26l-2.37-2.4a.25.25,0,0,1,.35-.35h0l2.23,2.53a.16.16,0,0,1,0,.22A.14.14,0,0,1,259,146.26Z"/><path class="cls-4" d="M260.92,146.26l2.41-2.37a.24.24,0,0,1,.35,0,.25.25,0,0,1,0,.35h0l-2.54,2.23a.14.14,0,0,1-.21,0A.15.15,0,0,1,260.92,146.26Z"/><path class="cls-4" d="M259.9,145.86l-.1-3.37a.25.25,0,1,1,.5,0v0l-.1,3.37a.15.15,0,0,1-.16.15A.15.15,0,0,1,259.9,145.86Z"/><path class="cls-1" d="M163.29,62.56s7.1,8.54,9.06,5.73C174,66.05,163.29,62.56,163.29,62.56Z"/><path class="cls-1" d="M163.33,62.57s10.15,4.49,11.44,1.45C175.93,61.56,163.33,62.57,163.33,62.57Z"/><path class="cls-1" d="M163.2,62.7s7.9,7.66,5.43,9.91C166.67,74.52,163.2,62.7,163.2,62.7Z"/><path class="cls-1" d="M163.68,62.89s-11.17-2.55-9.28-5.41C155.85,55.11,163.68,62.89,163.68,62.89Z"/><path class="cls-1" d="M163.65,62.85s-8.55-6.85-6.16-9.23C159.38,51.61,163.65,62.85,163.65,62.85Z"/><path class="cls-1" d="M163.59,63s-10.67-3.59-11.8-.53C150.77,65,163.59,63,163.59,63Z"/><polygon class="cls-3" points="163.75 13.2 161.47 11.58 161.73 8.79 164.27 7.62 166.55 9.24 166.29 12.02 163.75 13.2"/><polygon class="cls-3" points="175.69 11.96 172.43 9.65 172.79 5.67 176.43 3.99 179.69 6.3 179.33 10.29 175.69 11.96"/><polygon class="cls-3" points="191.56 14.7 186.87 11.38 187.4 5.66 192.61 3.26 197.3 6.57 196.78 12.29 191.56 14.7"/><polygon class="cls-3" points="153.14 14.87 151.72 13.87 151.88 12.14 153.46 11.41 154.88 12.41 154.72 14.14 153.14 14.87"/><path class="cls-5" d="M210,96.26c-2.89,1-4.33,2.1-6.84,2.66-2.33-6.46-4.31-12.7-6.74-15.92.31-1.06-.5-3.13-2.42-6.23l3-2.06c2.57,1.77,6.68.57,7.27-2.83l3.57-.48c.68,3.58,1.49,5.65,2.42,6.23.4,4,3.15,10,5.81,16.28-2.23,1.29-4,1.46-6.84,2.67"/><path class="cls-5" d="M194,76.77l-3.87,4.88c1.07,2.12,2.24,3.34,3.53,3.4l2.76-2"/><path class="cls-5" d="M193.88,84.91a8.28,8.28,0,0,0-3.54-3.39"/><path class="cls-5" d="M190.89,80.79a6.93,6.93,0,0,1,3.62,3.56"/><path class="cls-5" d="M207.81,71.4l6.15,1c.65,2.28.61,4-.31,4.89l-3.42.36"/><path class="cls-5" d="M213.38,77.27a8.45,8.45,0,0,1,.31-4.89"/><path class="cls-5" d="M212.64,72.18a7,7,0,0,0-.27,5.06"/><path class="cls-5" d="M204.24,71.88l-.89-.31a10.49,10.49,0,0,1-5.78,2.16l-.6,1"/><path class="cls-5" d="M197.57,73.73c1,2.08,6.14.11,5.78-2.16"/><path class="cls-4" d="M210.26,41.05l-3.14-2.8a.25.25,0,0,1,0-.36.25.25,0,0,1,.35,0h0l3,2.94a.16.16,0,0,1,0,.22A.15.15,0,0,1,210.26,41.05Z"/><path class="cls-4" d="M212.92,40.93l2.8-3.14a.25.25,0,0,1,.37.33h0l-2.94,3a.15.15,0,0,1-.21,0A.16.16,0,0,1,212.92,40.93Z"/><path class="cls-4" d="M210.68,43.78l-2.8,3.15a.25.25,0,1,1-.37-.34h0l2.93-3a.16.16,0,0,1,.22,0A.15.15,0,0,1,210.68,43.78Z"/><path class="cls-4" d="M213.13,43.3l3.15,2.8a.25.25,0,1,1-.34.38h0l-3-2.94a.16.16,0,0,1,0-.22A.15.15,0,0,1,213.13,43.3Z"/><path class="cls-4" d="M211.65,40.31l-.1-4.21a.26.26,0,0,1,.25-.26.25.25,0,0,1,.25.25h0L212,40.31a.16.16,0,0,1-.16.15A.16.16,0,0,1,211.65,40.31Z"/><path class="cls-4" d="M212,44.05l.09,4.21a.23.23,0,0,1-.24.25.25.25,0,0,1-.26-.24h0l.1-4.21a.16.16,0,0,1,.16-.15A.15.15,0,0,1,212,44.05Z"/><path class="cls-1" d="M242.58,47.5a88.77,88.77,0,0,0-10.38-7.63"/><path class="cls-1" d="M226.78,45.2a11.64,11.64,0,0,1,2.61-6.72c2.2-2.13,3-5.11,8.27-2.42A20.74,20.74,0,0,1,242,39a14.47,14.47,0,0,1,3,3.39c.38.65.94,1.78.25,2.42a1,1,0,0,1-.32.21c-6.58,6.72-12,13.53-15.14,20.54-2.79,1-13-7-12.48-9.35a43.17,43.17,0,0,0,9.45-11c3.88-2,3.45-6.57,9.5-6.55a61.23,61.23,0,0,1,8.67,6.4"/><path class="cls-1" d="M219,54.76a20.6,20.6,0,0,0,11.9,8.55"/><path class="cls-1" d="M239.89,50.52c2.5-3,5.77-1.59,2.87,3.26-2.74,4.92-10.82,10.28-9.62,5.74"/><path class="cls-1" d="M242.58,47.52c2.72-.14,4.89,2.68,2.29,7.36-2.78,5.57-11.76,12.1-13.3,7.21"/><path class="cls-3" d="M230,3.46c18.2,8.85,29.93,22,33.08,40.88.17,1,8.47-37.74,24.38-40.88Z"/><circle class="cls-3" cx="216.73" cy="110.9" r="5.63"/><path class="cls-4" d="M211.2,111.93l-2,2a.25.25,0,0,1-.35-.35h0l2.1-1.83a.16.16,0,0,1,.22,0A.15.15,0,0,1,211.2,111.93Z"/><path class="cls-4" d="M210.91,110.18l-2-2a.25.25,0,0,1,.35-.35h0l1.83,2.1a.15.15,0,0,1,0,.22A.15.15,0,0,1,210.91,110.18Z"/><path class="cls-4" d="M210.85,111.16l-2.78.09a.24.24,0,0,1-.26-.24.25.25,0,0,1,.24-.26h0l2.78.1a.16.16,0,0,1,.15.16A.16.16,0,0,1,210.85,111.16Z"/><path class="cls-4" d="M222.46,111.4l2.1,1.83a.24.24,0,0,1,0,.35.25.25,0,0,1-.36,0h0l-2-2a.16.16,0,0,1,0-.22A.15.15,0,0,1,222.46,111.4Z"/><path class="cls-4" d="M222.31,109.66l1.83-2.1a.25.25,0,0,1,.35,0,.24.24,0,0,1,0,.35h0l-2,2a.16.16,0,0,1-.22,0A.15.15,0,0,1,222.31,109.66Z"/><path class="cls-4" d="M222.6,110.54l2.78-.09a.24.24,0,0,1,.26.24.25.25,0,0,1-.24.26h0l-2.78-.1a.16.16,0,0,1-.15-.16A.17.17,0,0,1,222.6,110.54Z"/><path class="cls-4" d="M217.84,116.32l2,2a.25.25,0,0,1,0,.36.26.26,0,0,1-.35,0v0l-1.83-2.1a.16.16,0,0,1,0-.22A.17.17,0,0,1,217.84,116.32Z"/><path class="cls-4" d="M216.09,116.61l-2,2a.26.26,0,0,1-.35,0,.25.25,0,0,1,0-.36h0l2.1-1.83a.16.16,0,0,1,.22,0A.15.15,0,0,1,216.09,116.61Z"/><path class="cls-4" d="M217.07,116.67l.09,2.79a.24.24,0,0,1-.24.25.25.25,0,0,1-.26-.24h0l.1-2.79a.16.16,0,0,1,.16-.15A.17.17,0,0,1,217.07,116.67Z"/><path class="cls-4" d="M215.68,105.38l-2-2a.25.25,0,1,1,.35-.35h0l1.83,2.1a.16.16,0,0,1,0,.22A.15.15,0,0,1,215.68,105.38Z"/><path class="cls-4" d="M217.43,105.1l2-2a.25.25,0,0,1,.35.35h0l-2.1,1.83a.16.16,0,0,1-.22,0A.15.15,0,0,1,217.43,105.1Z"/><path class="cls-4" d="M216.45,105l-.09-2.78a.25.25,0,0,1,.24-.26.25.25,0,0,1,.26.24v0l-.1,2.78a.15.15,0,0,1-.16.15A.16.16,0,0,1,216.45,105Z"/><circle class="cls-3" cx="226.82" cy="82.56" r="3.76"/><circle class="cls-3" cx="226.82" cy="82.56" r="1.84"/><rect class="cls-1" x="258.11" y="49.17" width="8.64" height="13.11" rx="2.06" transform="translate(206.7 318.16) rotate(-90)"/><path class="cls-3" d="M226.21,15c-.6,2.38-6.85,6.88-6.85,6.88S216,15,216.57,12.57s4.49-.24,4.35,3.1C222.7,12.73,226.8,12.61,226.21,15Z"/><path class="cls-1" d="M163.07,62.85s9-6.53,6.3-8.67C167.25,52.36,163.07,62.85,163.07,62.85Z"/><path class="cls-1" d="M163.07,62.8s5.16-9.83,2.2-11.32C162.89,50.17,163.07,62.8,163.07,62.8Z"/><path class="cls-1" d="M163.19,62.94s8.17-7.38,10.25-4.76C175.22,60.26,163.19,62.94,163.19,62.94Z"/><path class="cls-1" d="M163.41,62.48s-3.28,11-6,8.9C155.14,69.77,163.41,62.48,163.41,62.48Z"/><path class="cls-1" d="M163.37,62.5S156,70.58,153.76,68C151.88,66,163.37,62.5,163.37,62.5Z"/><path class="cls-1" d="M163.54,62.58s-4.3,10.4-1.32,11.73C164.63,75.5,163.54,62.58,163.54,62.58Z"/><path class="cls-3" d="M172.53,46.22c-.27-5,.49-10.81,4.67-14.19,4.35-3.53,10.73-3.46,16-2.71,2.83.4,5.5,1.34,8.38.85a7.28,7.28,0,0,0,5.57-4c1.45-2.74,1-6.36-1.31-8a4.21,4.21,0,0,0-5.82.95,3.25,3.25,0,0,0,.72,4.6,2.69,2.69,0,0,0,3.73-.61,2.09,2.09,0,0,0-.46-2.94,1.72,1.72,0,0,0-2.39.39,1.34,1.34,0,0,0,.3,1.88,1.09,1.09,0,0,0,1.52-.25"/><path class="cls-3" d="M189.57,147.17h35.25c2.49-8.67.66-16.48-2.83-23.95C215.61,134.28,204.23,141.87,189.57,147.17Z"/><path class="cls-1" d="M273,45.11c0,.26.76.87.95,1.09a14,14,0,0,0,1,1,12.47,12.47,0,0,0,2.13,1.62,10,10,0,0,0,4.41,1.42,10.76,10.76,0,0,0,11.19-10.48c0-3.47-2.08-6.46-4.74-8.54a23.58,23.58,0,0,0-3.08-2c.2,0,.44,0,.65-.09a12.75,12.75,0,0,1,9.1,2.25,13.86,13.86,0,0,1,5.47,9.17c.72,5.07-2.07,10.16-5.9,13.33-4.72,3.9-11.64,3.37-16.29-.36A13.35,13.35,0,0,1,273,45.11Z"/><path class="cls-3" d="M295.8,91c-30.41-27.6-1.12-40.86,0,0"/><rect class="cls-1" x="306.46" y="104.17" width="20" height="42.26" rx="2.65"/><circle class="cls-1" cx="316.46" cy="143.51" r="1.78"/><circle class="cls-2" cx="316.65" cy="106.08" r="0.42"/><circle class="cls-2" cx="313.88" cy="107.71" r="0.27"/><rect class="cls-2" x="315.01" y="107.5" width="3.31" height="0.42" rx="0.21"/><rect class="cls-1" x="307.64" y="109.76" width="17.64" height="31" rx="0.27"/><path class="cls-3" d="M318.75,91.1a1.62,1.62,0,0,1,1.64,1.59,2,2,0,0,1-2,2,2.57,2.57,0,0,1-2.57-2.5,3.09,3.09,0,0,1,3.1-3.14A4,4,0,0,1,323,93a4.83,4.83,0,0,1-4.84,4.92,6.24,6.24,0,0,1-6.27-6.09c-.08-4.22,3.84-7.94,8.38-8.63,13.71-2.68,21.46,22.29,13.12,34.76"/><path class="cls-1" d="M321.37,29.58c3.3,1.93,7.11-5.08,13.1-5.77-6.63-6.46-18.21-1.43-14.31,4.6"/><path class="cls-1" d="M323.65,25.48c-4.56,3.19-9.8,10.11-10.82,16.59"/><path class="cls-1" d="M313.68,23.69c2.41,2.82,4,6.16,1.45,11.78"/><path class="cls-1" d="M314.78,27.81c-4.41,1.22-5.39-5.63-8.62-6.9,6.22-3.5,13.86,2.54,9.76,6.27"/><line class="cls-1" x1="351.66" y1="123.22" x2="334.81" y2="145.05"/><path class="cls-1" d="M347.7,128.34a7.12,7.12,0,0,1,5.31-1.9"/><path class="cls-1" d="M344.07,133.05a7.12,7.12,0,0,1,5.31-1.9"/><path class="cls-1" d="M347.7,128.34a7.1,7.1,0,0,0,.5-5.61"/><path class="cls-1" d="M344.07,133.05a7.1,7.1,0,0,0,.5-5.61"/><path class="cls-1" d="M356.57,116.85c-15.42-1.74-20.52,10-14.52,18.83"/><path class="cls-1" d="M356.57,116.85C361.42,129.4,354.49,137,346,136.5"/><line class="cls-1" x1="349.98" y1="52.69" x2="357.44" y2="66.84"/><path class="cls-1" d="M350,52.69c-4.74-5.43-8.61-4.38-12.48-3.46,6.27,2.72,5.82,16.51,16.8,11.66"/><path class="cls-1" d="M354.18,40.44c-3,2.67-6,5.27-4.2,12.25"/><path class="cls-1" d="M341.92,48.49a6.81,6.81,0,0,0,2.52-6.31"/><path class="cls-1" d="M351.07,43.66a6.79,6.79,0,0,1-6.63-1.48"/><circle class="cls-6" cx="32.62" cy="110.09" r="1.4"/><circle class="cls-6" cx="33.51" cy="100.17" r="1.4"/><circle class="cls-6" cx="30.72" cy="90.62" r="1.4"/><circle class="cls-6" cx="25.78" cy="82.96" r="1.4"/><circle class="cls-6" cx="84.14" cy="17.7" r="1.4"/><circle class="cls-6" cx="90.56" cy="26.04" r="1.4"/><circle class="cls-6" cx="94.55" cy="34.78" r="1.4"/><circle class="cls-6" cx="127.55" cy="18.31" r="1.4"/><circle class="cls-6" cx="134.41" cy="11.09" r="1.4"/><circle class="cls-6" cx="143.42" cy="6.88" r="1.4"/><circle class="cls-6" cx="143.37" cy="95.07" r="1.21"/><circle class="cls-6" cx="186.62" cy="110.09" r="1.4"/><circle class="cls-6" cx="187.51" cy="100.17" r="1.4"/><circle class="cls-6" cx="184.72" cy="90.62" r="1.4"/><circle class="cls-6" cx="179.78" cy="82.96" r="1.4"/><circle class="cls-6" cx="238.14" cy="17.7" r="1.4"/><circle class="cls-6" cx="244.56" cy="26.04" r="1.4"/><circle class="cls-6" cx="248.55" cy="34.78" r="1.4"/><circle class="cls-6" cx="281.55" cy="18.31" r="1.4"/><circle class="cls-6" cx="288.41" cy="11.09" r="1.4"/><circle class="cls-6" cx="297.42" cy="6.88" r="1.4"/><circle class="cls-6" cx="297.37" cy="95.07" r="1.21"/><circle class="cls-6" cx="343.62" cy="110.09" r="1.4"/><circle class="cls-6" cx="344.51" cy="100.17" r="1.4"/><circle class="cls-6" cx="341.72" cy="90.62" r="1.4"/><circle class="cls-6" cx="336.78" cy="82.96" r="1.4"/><path class="cls-1" d="M320.29,62.56s7.1,8.54,9.06,5.73C331,66.05,320.29,62.56,320.29,62.56Z"/><path class="cls-1" d="M320.33,62.57s10.15,4.49,11.44,1.45C332.93,61.56,320.33,62.57,320.33,62.57Z"/><path class="cls-1" d="M320.2,62.7s7.9,7.66,5.43,9.91C323.67,74.52,320.2,62.7,320.2,62.7Z"/><path class="cls-1" d="M320.68,62.89s-11.17-2.55-9.28-5.41C312.85,55.11,320.68,62.89,320.68,62.89Z"/><path class="cls-1" d="M320.65,62.85s-8.55-6.85-6.16-9.23C316.38,51.61,320.65,62.85,320.65,62.85Z"/><path class="cls-1" d="M320.59,63s-10.67-3.59-11.8-.53C307.77,65,320.59,63,320.59,63Z"/><polygon class="cls-3" points="320.75 13.2 318.47 11.58 318.73 8.79 321.27 7.62 323.55 9.24 323.3 12.02 320.75 13.2"/><polygon class="cls-3" points="332.69 11.96 329.43 9.65 329.79 5.67 333.43 3.99 336.69 6.3 336.33 10.29 332.69 11.96"/><polygon class="cls-3" points="348.56 14.7 343.87 11.38 344.4 5.66 349.61 3.26 354.3 6.57 353.78 12.29 348.56 14.7"/><polygon class="cls-3" points="310.14 14.87 308.72 13.87 308.88 12.14 310.46 11.41 311.88 12.41 311.72 14.14 310.14 14.87"/><path class="cls-1" d="M320.07,62.85s9-6.53,6.3-8.67C324.25,52.36,320.07,62.85,320.07,62.85Z"/><path class="cls-1" d="M320.07,62.8s5.16-9.83,2.2-11.32C319.89,50.17,320.07,62.8,320.07,62.8Z"/><path class="cls-1" d="M320.19,62.94s8.17-7.38,10.25-4.76C332.22,60.26,320.19,62.94,320.19,62.94Z"/><path class="cls-1" d="M320.41,62.48s-3.28,11-6,8.9C312.14,69.77,320.41,62.48,320.41,62.48Z"/><path class="cls-1" d="M320.37,62.5S313,70.58,310.76,68C308.88,66,320.37,62.5,320.37,62.5Z"/><path class="cls-1" d="M320.54,62.58s-4.3,10.4-1.32,11.73C321.63,75.5,320.54,62.58,320.54,62.58Z"/><path class="cls-3" d="M329.53,46.22c-.27-5,.49-10.81,4.67-14.19,4.35-3.53,10.73-3.46,16-2.71,2.83.4,5.5,1.34,8.38.85a7.28,7.28,0,0,0,5.57-4c1.45-2.74,1-6.36-1.31-8a4.21,4.21,0,0,0-5.82.95,3.25,3.25,0,0,0,.72,4.6,2.69,2.69,0,0,0,3.73-.61,2.09,2.09,0,0,0-.46-2.94,1.72,1.72,0,0,0-2.39.39,1.34,1.34,0,0,0,.3,1.88,1.09,1.09,0,0,0,1.52-.25"/></svg>