<?xml version="1.0" encoding="utf-8"?>
<!-- Generator: Adobe Illustrator 24.0.3, SVG Export Plug-In . SVG Version: 6.00 Build 0)  -->
<svg version="1.1" id="Layer_1" xmlns="http://www.w3.org/2000/svg" xmlns:xlink="http://www.w3.org/1999/xlink" x="0px" y="0px"
	 viewBox="0 0 350 150" style="enable-background:new 0 0 350 150;" xml:space="preserve">
<style type="text/css">
	.st0{fill:#8264FF;}
</style>
<title>bg</title>
<path class="st0" d="M12.81,146.8h-14.7c-1.67,0-3.02-1.36-3.02-3.02v-36.96c0-1.67,1.36-3.03,3.02-3.03h14.7
	c1.67,0,3.02,1.36,3.02,3.03v36.96C15.83,145.45,14.48,146.8,12.81,146.8z M-1.89,104.54c-1.25,0-2.27,1.02-2.27,2.28v36.96
	c0,1.25,1.02,2.27,2.27,2.27h14.7c1.25,0,2.27-1.02,2.27-2.27v-36.96c0-1.25-1.02-2.28-2.27-2.28H-1.89z"/>
<path class="st0" d="M5.46,145.67c-1.19,0-2.15-0.97-2.15-2.16c0-1.19,0.97-2.15,2.15-2.15c1.19,0,2.16,0.97,2.16,2.15
	C7.62,144.7,6.65,145.67,5.46,145.67z M5.46,142.11c-0.77,0-1.4,0.63-1.4,1.4s0.63,1.41,1.4,1.41c0.77,0,1.41-0.63,1.41-1.41
	S6.23,142.11,5.46,142.11z"/>
<g>
	<circle class="st0" cx="5.65" cy="106.08" r="0.42"/>
	<path class="st0" d="M5.65,106.88c-0.44,0-0.79-0.36-0.79-0.79s0.36-0.79,0.79-0.79s0.79,0.36,0.79,0.79S6.09,106.88,5.65,106.88z
		 M5.65,106.04c-0.03,0-0.04,0.02-0.04,0.04L5.65,106.04z"/>
</g>
<g>
	<circle class="st0" cx="2.88" cy="107.71" r="0.27"/>
	<path class="st0" d="M2.88,108.36c-0.36,0-0.65-0.29-0.65-0.65s0.29-0.64,0.65-0.64s0.65,0.29,0.65,0.64S3.24,108.36,2.88,108.36z
		 M2.88,107.61c-0.06,0-0.1,0.05-0.1,0.1c0,0.12,0.21,0.12,0.21,0C2.98,107.65,2.94,107.61,2.88,107.61z"/>
</g>
<g>
	<path class="st0" d="M4.22,107.5h2.89c0.12,0,0.21,0.09,0.21,0.21l0,0c0,0.12-0.09,0.21-0.21,0.21H4.22
		c-0.12,0-0.21-0.09-0.21-0.21l0,0C4.01,107.59,4.1,107.5,4.22,107.5z"/>
	<path class="st0" d="M7.11,108.29H4.22c-0.32,0-0.59-0.26-0.59-0.58s0.26-0.58,0.59-0.58h2.89c0.32,0,0.58,0.26,0.58,0.58
		S7.43,108.29,7.11,108.29z"/>
</g>
<path class="st0" d="M14.01,141.13h-17.1c-0.36,0-0.65-0.29-0.65-0.64v-30.46c0-0.36,0.29-0.65,0.65-0.65h17.1
	c0.36,0,0.65,0.29,0.65,0.65v30.46C14.65,140.85,14.37,141.13,14.01,141.13z M-2.98,140.38H13.9v-30.25H-2.98V140.38z M14.01,110.13
	L14.01,110.13L14.01,110.13z"/>
<path class="st0" d="M22.34,118.29c-0.07,0-0.14-0.02-0.21-0.06c-0.17-0.12-0.22-0.35-0.1-0.52c5.5-8.23,3.75-21.07-1.03-28.26
	c-3.12-4.69-7.27-6.79-11.7-5.92c-4.53,0.69-8.15,4.39-8.08,8.25c0.06,3.19,2.68,5.76,5.86,5.76c0.03,0,0.05,0,0.08,0
	c0,0,0.1,0,0.1,0c2.46-0.05,4.42-2.08,4.37-4.54c-0.04-2-1.66-3.58-3.62-3.58c-0.02,0-0.05,0-0.07,0c-1.56,0.03-2.76,1.26-2.73,2.76
	c0.03,1.19,1,2.13,2.2,2.13c0.9,0,1.62-0.73,1.62-1.62C9,92.02,8.45,91.47,7.77,91.47c-0.01,0-0.01,0-0.02,0
	c-0.21,0-0.37-0.17-0.38-0.37c0-0.21,0.16-0.38,0.37-0.38c1.1,0,2,0.87,2.02,1.96c0,1.32-1.07,2.38-2.38,2.38
	c-1.61,0-2.9-1.26-2.95-2.86c-0.03-1.92,1.5-3.5,3.41-3.53c2.47-0.08,4.47,1.87,4.52,4.29c0.03,1.42-0.49,2.74-1.46,3.74
	c-0.96,1-2.26,1.57-3.65,1.59l-0.11,0c-0.03,0-0.06,0-0.09,0c-3.59,0-6.54-2.9-6.61-6.5c-0.08-4.23,3.82-8.27,8.7-9.01
	c4.73-0.92,9.16,1.29,12.45,6.25c4.91,7.39,6.71,20.61,1.03,29.09C22.58,118.24,22.46,118.29,22.34,118.29z"/>
<path class="st0" d="M11.59,30.29c-0.47,0-0.94-0.12-1.41-0.39c-0.18-0.1-0.24-0.33-0.13-0.51c0.1-0.18,0.33-0.24,0.51-0.13
	c1.49,0.87,3.19-0.42,5.35-2.05c1.93-1.46,4.1-3.1,6.73-3.64c-4.18-3.53-9.73-2.68-12.28-0.59c-1.78,1.45-2.1,3.36-0.89,5.24
	c0.11,0.17,0.06,0.41-0.11,0.52c-0.17,0.11-0.41,0.06-0.52-0.11c-1.42-2.2-1.03-4.52,1.04-6.22c3.32-2.72,9.68-2.91,13.84,1.15
	c0.1,0.1,0.14,0.25,0.09,0.39s-0.17,0.23-0.31,0.25c-2.79,0.32-5.11,2.08-7.15,3.62C14.63,29.12,13.08,30.29,11.59,30.29z"/>
<path class="st0" d="M1.83,42.44c-0.02,0-0.04,0-0.06,0c-0.2-0.03-0.34-0.22-0.31-0.43c1.05-6.69,6.44-13.67,10.98-16.84
	c0.17-0.12,0.4-0.08,0.52,0.09c0.12,0.17,0.08,0.4-0.09,0.52C8.46,28.87,3.22,35.65,2.2,42.13C2.17,42.31,2.01,42.44,1.83,42.44z"/>
<path class="st0" d="M4.13,35.85c-0.05,0-0.1-0.01-0.15-0.03c-0.19-0.09-0.27-0.31-0.19-0.5c2.54-5.6,0.83-8.78-1.39-11.38
	c-0.13-0.16-0.12-0.39,0.04-0.53c0.16-0.13,0.39-0.12,0.53,0.04c2.27,2.66,4.23,6.18,1.51,12.18C4.41,35.76,4.27,35.85,4.13,35.85z"
	/>
<path class="st0" d="M2.79,28.32c-2.22,0-3.55-2.03-4.75-3.84c-0.94-1.42-1.82-2.75-3.01-3.22c-0.13-0.05-0.23-0.18-0.24-0.32
	c-0.01-0.14,0.06-0.28,0.19-0.35c3.94-2.22,8.68-0.81,10.65,1.9c1.24,1.72,1.08,3.58-0.45,4.97c-0.15,0.14-0.39,0.13-0.53-0.02
	c-0.14-0.15-0.13-0.39,0.02-0.53c1.23-1.13,1.36-2.58,0.35-3.98c-1.46-2.01-5.31-3.7-9.04-2.01c1.07,0.7,1.89,1.94,2.69,3.15
	c1.37,2.07,2.66,4.02,5.02,3.38c0.2-0.06,0.41,0.06,0.46,0.26c0.05,0.2-0.06,0.41-0.26,0.46C3.49,28.28,3.13,28.32,2.79,28.32z"/>
<path class="st0" d="M23.81,145.42c-0.08,0-0.16-0.03-0.23-0.08c-0.16-0.13-0.19-0.36-0.07-0.53l16.85-21.83
	c0.12-0.16,0.36-0.2,0.53-0.07c0.16,0.13,0.19,0.36,0.07,0.53l-16.85,21.83C24.03,145.38,23.92,145.42,23.81,145.42z"/>
<path class="st0" d="M36.7,128.71c-0.1,0-0.2-0.04-0.27-0.12c-0.14-0.15-0.13-0.39,0.02-0.53c1.5-1.4,3.54-2.14,5.59-2
	c0.21,0.01,0.36,0.19,0.35,0.4c-0.01,0.21-0.2,0.37-0.4,0.35c-1.84-0.11-3.68,0.54-5.03,1.8C36.88,128.68,36.79,128.71,36.7,128.71z
	"/>
<path class="st0" d="M33.07,133.42c-0.1,0-0.2-0.04-0.27-0.12c-0.14-0.15-0.13-0.39,0.02-0.53c1.5-1.4,3.54-2.14,5.59-2
	c0.21,0.01,0.36,0.19,0.35,0.4c-0.01,0.21-0.2,0.37-0.4,0.35c-1.84-0.11-3.68,0.54-5.03,1.8C33.25,133.39,33.16,133.42,33.07,133.42
	z"/>
<path class="st0" d="M36.7,128.71c-0.06,0-0.12-0.01-0.18-0.04c-0.18-0.1-0.25-0.33-0.15-0.51c0.88-1.62,1.05-3.56,0.47-5.31
	c-0.06-0.2,0.04-0.41,0.24-0.47c0.19-0.07,0.41,0.04,0.47,0.24c0.64,1.95,0.45,4.1-0.53,5.91C36.96,128.64,36.83,128.71,36.7,128.71
	z"/>
<path class="st0" d="M33.07,133.42c-0.06,0-0.12-0.01-0.18-0.04c-0.18-0.1-0.25-0.33-0.15-0.51c0.88-1.62,1.05-3.56,0.47-5.31
	c-0.06-0.2,0.04-0.41,0.24-0.47c0.2-0.06,0.41,0.04,0.47,0.24c0.64,1.95,0.45,4.1-0.53,5.91C33.33,133.35,33.2,133.42,33.07,133.42z
	"/>
<path class="st0" d="M31.05,136.05c-0.12,0-0.24-0.06-0.31-0.16c-2.98-4.38-3.33-9.57-0.93-13.54c2.75-4.56,8.51-6.69,15.81-5.87
	c0.21,0.02,0.35,0.21,0.33,0.42c-0.02,0.21-0.21,0.35-0.41,0.33c-6.99-0.8-12.49,1.22-15.08,5.51c-2.25,3.72-1.9,8.6,0.91,12.73
	c0.12,0.17,0.07,0.4-0.1,0.52C31.2,136.03,31.12,136.05,31.05,136.05z"/>
<path class="st0" d="M35.8,136.9c-0.27,0-0.55-0.01-0.82-0.02c-0.21-0.01-0.36-0.19-0.35-0.4c0.01-0.21,0.21-0.37,0.4-0.35
	c3.96,0.22,7.46-1.32,9.6-4.25c2.68-3.67,2.89-8.95,0.59-14.89c-0.07-0.19,0.02-0.41,0.21-0.48c0.19-0.08,0.41,0.02,0.48,0.21
	c2.39,6.18,2.14,11.72-0.69,15.6C43.09,135.25,39.68,136.9,35.8,136.9z"/>
<path class="st0" d="M108.84,78.93c-1.8,0-3.74-0.66-5.89-1.98c-0.15-0.09-0.21-0.27-0.16-0.43c2.09-6.47,7.67-9.71,16.64-9.72
	c0.13,0,0.24,0.06,0.31,0.17c0.07,0.11,0.08,0.24,0.03,0.36c-2.21,5.02-4.72,10.02-8.84,11.3
	C110.25,78.83,109.55,78.93,108.84,78.93z M103.59,76.46c2.7,1.61,5.03,2.08,7.11,1.44c3.68-1.14,6.06-5.68,8.14-10.36
	C110.61,67.66,105.62,70.58,103.59,76.46z"/>
<path class="st0" d="M118.43,147.54c-0.14,0-0.27-0.07-0.33-0.2c-14.96-28.67-19.83-51.16-15.32-70.8c0.05-0.2,0.25-0.33,0.45-0.28
	c0.2,0.05,0.33,0.25,0.28,0.45c-4.47,19.45,0.38,41.79,15.26,70.28c0.1,0.18,0.02,0.41-0.16,0.51
	C118.55,147.53,118.49,147.54,118.43,147.54z"/>
<path class="st0" d="M96,81.73c-3.99,0-8.03-3.29-11.85-6.69c-0.09-0.08-0.14-0.21-0.12-0.34s0.1-0.23,0.22-0.29
	c8.27-3.76,14.54-3.12,19.17,1.96c0.12,0.13,0.13,0.32,0.03,0.46c-1.97,2.94-4.11,4.52-6.57,4.84C96.59,81.71,96.29,81.73,96,81.73z
	 M85.08,74.87c3.84,3.4,7.89,6.54,11.71,6.06c2.16-0.27,4.08-1.67,5.87-4.26C98.39,72.16,92.64,71.57,85.08,74.87z"/>
<path class="st0" d="M110.02,101.05c-2.7,0-5.5-1.2-8.52-3.65c-0.13-0.11-0.18-0.29-0.1-0.45c3.88-8.2,11.51-11.44,23.33-9.92
	c0.13,0.02,0.23,0.09,0.29,0.21c0.06,0.11,0.05,0.25-0.02,0.36c-3.73,6.2-7.83,12.33-13.4,13.32
	C111.07,101,110.54,101.05,110.02,101.05z M102.2,97c3.34,2.64,6.37,3.68,9.26,3.17c5.11-0.9,9.03-6.59,12.59-12.47
	C113.05,86.42,105.89,89.46,102.2,97z"/>
<path class="st0" d="M117.93,126.87c-3.42,0-6.98-1.53-10.81-4.63c-0.13-0.11-0.18-0.29-0.1-0.45
	c4.87-10.42,14.58-14.55,29.67-12.61c0.13,0.02,0.23,0.09,0.29,0.21c0.06,0.11,0.05,0.25-0.02,0.36
	c-4.74,7.89-9.95,15.71-17.03,16.96C119.26,126.81,118.6,126.87,117.93,126.87z M107.82,121.83c4.31,3.43,8.23,4.78,11.98,4.12
	c6.62-1.17,11.65-8.54,16.22-16.11C121.74,108.14,112.51,112.07,107.82,121.83z"/>
<path class="st0" d="M91.94,104.58c-4.88,0-10.22-3.38-15.33-6.93c-0.1-0.07-0.16-0.19-0.16-0.32c0-0.13,0.07-0.24,0.18-0.31
	c10.04-6.18,18.57-6.36,25.35-0.54c0.13,0.11,0.17,0.3,0.09,0.45c-2.09,4.15-4.63,6.55-7.77,7.35
	C93.53,104.48,92.74,104.58,91.94,104.58z M77.51,97.36c5.66,3.9,11.57,7.48,16.6,6.2c2.85-0.72,5.19-2.92,7.15-6.7
	C94.82,91.48,87.04,91.65,77.51,97.36z"/>
<path class="st0" d="M94.82,131.7c-6.21,0-12.99-4.32-19.47-8.83c-0.1-0.07-0.16-0.19-0.16-0.32c0-0.13,0.07-0.24,0.18-0.31
	c12.8-7.88,23.64-8.11,32.23-0.69c0.13,0.11,0.17,0.3,0.09,0.45c-2.66,5.28-5.89,8.33-9.87,9.34
	C96.83,131.58,95.83,131.7,94.82,131.7z M76.25,122.58c7.25,5.03,14.85,9.69,21.38,8.03c3.69-0.93,6.72-3.78,9.25-8.69
	C98.6,114.93,88.57,115.15,76.25,122.58z"/>
<path class="st0" d="M46.44,67.21c-0.13,0-0.27-0.07-0.33-0.2l-7.46-14.15c-0.1-0.18-0.03-0.41,0.16-0.51
	c0.18-0.1,0.41-0.03,0.51,0.16l7.46,14.15c0.1,0.18,0.03,0.41-0.16,0.51C46.56,67.2,46.5,67.21,46.44,67.21z"/>
<path class="st0" d="M39.08,62.31c-4.03,0-5.93-3.45-7.79-6.81c-1.4-2.55-2.73-4.95-4.93-5.93c-0.15-0.06-0.24-0.22-0.22-0.38
	c0.01-0.16,0.13-0.29,0.29-0.33l0.22-0.05c3.85-0.92,7.83-1.87,12.63,3.63c0.14,0.16,0.12,0.39-0.04,0.53s-0.39,0.12-0.53-0.04
	c-4.21-4.83-7.63-4.39-11.16-3.57c1.92,1.26,3.18,3.55,4.4,5.77c2.36,4.28,4.59,8.33,11.19,5.41c0.19-0.08,0.41,0,0.49,0.19
	c0.08,0.19,0,0.41-0.19,0.49C41.76,61.98,40.32,62.31,39.08,62.31z"/>
<path class="st0" d="M38.98,53.06c-0.17,0-0.32-0.11-0.36-0.28c-1.84-7.15,1.25-9.9,4.24-12.56l0.07-0.06
	c0.15-0.14,0.39-0.12,0.53,0.03c0.14,0.15,0.12,0.39-0.03,0.53l-0.07,0.06c-2.95,2.63-5.74,5.11-4.01,11.81
	c0.05,0.2-0.07,0.41-0.27,0.46C39.04,53.06,39.01,53.06,38.98,53.06z"/>
<path class="st0" d="M45.85,59.23c-0.09,0-0.18-0.03-0.25-0.1c-0.15-0.14-0.16-0.38-0.02-0.53c2.94-3.22,1.21-6.66-0.61-10.3
	c-1.31-2.61-2.66-5.3-2.15-7.92c0.04-0.2,0.24-0.33,0.44-0.3c0.2,0.04,0.34,0.24,0.3,0.44c-0.46,2.37,0.77,4.83,2.08,7.44
	c1.86,3.71,3.78,7.54,0.5,11.15C46.05,59.18,45.95,59.23,45.85,59.23z"/>
<path class="st0" d="M30.92,48.87c-0.11,0-0.22-0.05-0.29-0.14c-0.13-0.16-0.1-0.4,0.06-0.53c1.79-1.42,2.71-3.7,2.38-5.96
	c-0.03-0.21,0.11-0.4,0.32-0.42c0.2-0.04,0.39,0.11,0.42,0.32c0.36,2.52-0.66,5.08-2.66,6.66C31.08,48.84,31,48.87,30.92,48.87z"/>
<path class="st0" d="M38.04,44.35c-1.77,0-3.52-0.66-4.86-1.89c-0.15-0.14-0.16-0.38-0.02-0.53c0.14-0.15,0.38-0.16,0.53-0.02
	c1.68,1.55,4.08,2.08,6.26,1.4c0.19-0.06,0.41,0.05,0.47,0.25s-0.05,0.41-0.25,0.47C39.48,44.24,38.76,44.35,38.04,44.35z"/>
<path class="st0" d="M78.91,146.26l-2.37-2.4c-0.1-0.1-0.09-0.26,0-0.35c0.1-0.1,0.26-0.09,0.36,0l0,0l2.23,2.53
	c0.06,0.06,0.06,0.16,0,0.22C79.07,146.32,78.98,146.32,78.91,146.26C78.92,146.27,78.91,146.26,78.91,146.26z"/>
<path class="st0" d="M80.89,146.25l2.4-2.37c0.1-0.1,0.25-0.1,0.35,0c0.1,0.1,0.1,0.25,0.01,0.35c0,0,0,0-0.01,0.01l0,0l-2.53,2.23
	c-0.06,0.06-0.16,0.06-0.22,0C80.83,146.41,80.83,146.32,80.89,146.25C80.88,146.26,80.89,146.25,80.89,146.25z"/>
<path class="st0" d="M79.86,145.86l-0.09-3.38c-0.01-0.13,0.1-0.24,0.23-0.25c0,0,0.01,0,0.01,0c0.14-0.01,0.25,0.1,0.26,0.24
	c0,0,0,0,0,0l0,0l-0.1,3.38c-0.01,0.09-0.08,0.16-0.17,0.15c0,0,0,0,0,0C79.93,145.99,79.87,145.93,79.86,145.86z"/>
<path class="st0" d="M92,146.26l-2.37-2.4c-0.08-0.11-0.06-0.27,0.05-0.35c0.09-0.07,0.21-0.07,0.3,0l0,0l2.23,2.53
	c0.06,0.06,0.06,0.16,0,0.22C92.15,146.32,92.06,146.32,92,146.26z"/>
<path class="st0" d="M94,146.26l2.4-2.37c0.11-0.08,0.27-0.06,0.35,0.05c0.07,0.09,0.07,0.21,0,0.3l0,0l-2.53,2.23
	c-0.06,0.06-0.16,0.06-0.22,0C93.94,146.41,93.94,146.32,94,146.26z"/>
<path class="st0" d="M93,145.86l-0.1-3.37c0-0.14,0.11-0.25,0.25-0.26c0.13,0,0.24,0.11,0.25,0.24l0,0l-0.09,3.37
	c-0.01,0.08-0.08,0.15-0.16,0.15C93.07,145.99,93.01,145.93,93,145.86z"/>
<path class="st0" d="M105,146.26l-2.37-2.4c-0.11-0.08-0.13-0.24-0.05-0.35c0.08-0.11,0.24-0.13,0.35-0.05
	c0.02,0.01,0.04,0.03,0.05,0.05l0,0l2.23,2.53c0.06,0.06,0.06,0.16,0,0.22c-0.05,0.06-0.14,0.06-0.2,0.01
	C105.01,146.27,105,146.26,105,146.26z"/>
<path class="st0" d="M106.92,146.26l2.41-2.37c0.09-0.1,0.24-0.1,0.34-0.01c0,0,0.01,0.01,0.01,0.01c0.1,0.1,0.1,0.25,0,0.35l0,0
	l-2.54,2.23c-0.05,0.06-0.14,0.06-0.2,0.01c0,0-0.01-0.01-0.01-0.01C106.87,146.41,106.87,146.32,106.92,146.26z"/>
<path class="st0" d="M105.9,145.86l-0.1-3.37c0-0.14,0.11-0.25,0.25-0.25s0.25,0.11,0.25,0.25l0,0l-0.1,3.37
	c0,0.08-0.07,0.15-0.15,0.15c0,0-0.01,0-0.01,0C105.96,146,105.9,145.94,105.9,145.86z"/>
<path class="st0" d="M17.25,69.23c-2.82,0-7.7-5.77-8.25-6.43c-0.11-0.13-0.12-0.31-0.02-0.45c0.09-0.14,0.27-0.2,0.43-0.15
	c0.89,0.29,8.69,2.89,9.43,5.19c0.13,0.4,0.06,0.78-0.18,1.11c-0.31,0.44-0.77,0.7-1.32,0.72C17.31,69.23,17.28,69.23,17.25,69.23z
	 M10.5,63.37c1.84,2.03,5.01,5.11,6.75,5.11c0.02,0,0.04,0,0.06,0c0.32-0.01,0.56-0.14,0.74-0.41c0.11-0.15,0.13-0.28,0.08-0.45
	C17.71,66.35,13.66,64.52,10.5,63.37z"/>
<path class="st0" d="M18.39,65.44c-3.46,0-8.94-2.41-9.21-2.53c-0.16-0.07-0.25-0.24-0.22-0.41c0.03-0.17,0.17-0.3,0.34-0.31
	c1.75-0.14,10.56-0.75,11.75,0.98c0.2,0.29,0.22,0.64,0.06,0.99c-0.19,0.46-0.57,0.81-1.11,1.02C19.55,65.36,19,65.44,18.39,65.44z
	 M10.98,62.84c2.34,0.91,6.81,2.42,8.74,1.65c0.35-0.14,0.58-0.35,0.7-0.63c0.08-0.16,0.04-0.22,0.01-0.26
	C19.83,62.71,14.98,62.62,10.98,62.84z"/>
<path class="st0" d="M14.17,73.19c-0.1,0-0.19-0.01-0.27-0.04c-2.09-0.55-4.59-8.72-5.07-10.35c-0.05-0.16,0.02-0.34,0.17-0.43
	c0.15-0.09,0.33-0.07,0.46,0.05c0.25,0.24,6.07,5.92,6.02,9.04c-0.01,0.58-0.21,1.06-0.6,1.41C14.64,73.12,14.39,73.19,14.17,73.19z
	 M10.02,64.07c1.15,3.55,2.95,8.07,4.08,8.36c0.07,0.02,0.15,0.03,0.27-0.09c0.24-0.22,0.36-0.51,0.36-0.88
	C14.76,69.55,11.93,66.11,10.02,64.07z"/>
<path class="st0" d="M9.68,63.27c-0.03,0-0.06,0-0.08-0.01c-0.88-0.2-8.67-2.05-9.67-4.54c-0.19-0.49-0.14-0.99,0.16-1.44
	c0.21-0.34,0.55-0.55,0.97-0.6c2.5-0.3,8.24,5.31,8.88,5.96c0.12,0.12,0.15,0.3,0.06,0.45C9.94,63.19,9.81,63.27,9.68,63.27z
	 M1.29,57.4c-0.05,0-0.1,0-0.14,0.01c-0.2,0.02-0.33,0.1-0.43,0.26c-0.17,0.26-0.2,0.5-0.1,0.76c0.61,1.52,5.01,3,7.77,3.74
	C6.34,60.28,2.89,57.4,1.29,57.4z"/>
<path class="st0" d="M9.65,63.23c-0.08,0-0.17-0.03-0.23-0.08c-0.27-0.21-6.55-5.28-6.72-8.34c-0.03-0.58,0.15-1.07,0.53-1.45
	c0.27-0.29,0.61-0.4,0.99-0.33c2.17,0.43,5.2,8.15,5.79,9.69c0.06,0.16,0.01,0.34-0.13,0.44C9.8,63.2,9.73,63.23,9.65,63.23z
	 M4,53.75c-0.07,0-0.15,0.03-0.24,0.12c-0.24,0.24-0.34,0.52-0.32,0.89c0.1,1.87,3.23,5.01,5.3,6.83c-1.38-3.35-3.49-7.6-4.68-7.84
	C4.05,53.76,4.02,53.75,4,53.75z"/>
<path class="st0" d="M1.45,64.13c-1.85,0-3.4-0.2-3.89-0.82c-0.22-0.27-0.26-0.62-0.12-0.98c1.22-3.3,11.14-0.06,12.27,0.31
	c0.16,0.06,0.27,0.21,0.25,0.39s-0.15,0.31-0.32,0.34C8.52,63.55,4.56,64.13,1.45,64.13z M0.81,61.61c-1.38,0-2.4,0.28-2.67,0.99
	c-0.06,0.16-0.02,0.21,0,0.24c0.67,0.84,5.65,0.56,9.75,0.02C5.56,62.19,2.8,61.61,0.81,61.61z"/>
<path class="st0" d="M9.75,13.58c-0.08,0-0.15-0.02-0.22-0.07l-2.28-1.62c-0.11-0.08-0.17-0.21-0.16-0.34l0.26-2.79
	c0.01-0.13,0.1-0.25,0.22-0.31l2.54-1.17c0.12-0.06,0.26-0.04,0.37,0.04l2.28,1.62c0.11,0.08,0.17,0.21,0.16,0.34l-0.26,2.78
	c-0.01,0.13-0.09,0.25-0.22,0.31l-2.54,1.18C9.86,13.56,9.8,13.58,9.75,13.58z M7.86,11.4l1.93,1.37l2.15-1l0.22-2.35l-1.93-1.37
	L8.08,9.04L7.86,11.4z"/>
<path class="st0" d="M21.69,12.33c-0.08,0-0.15-0.02-0.22-0.07l-3.26-2.31c-0.11-0.08-0.17-0.21-0.16-0.34l0.36-3.98
	c0.01-0.13,0.09-0.25,0.22-0.31l3.64-1.68c0.12-0.06,0.26-0.04,0.37,0.03l3.26,2.31c0.11,0.08,0.17,0.21,0.16,0.34l-0.36,3.99
	c-0.01,0.13-0.09,0.25-0.22,0.31l-3.64,1.67C21.8,12.32,21.74,12.33,21.69,12.33z M18.82,9.47l2.91,2.06l3.25-1.49l0.32-3.56
	l-2.91-2.06l-3.25,1.5L18.82,9.47z"/>
<path class="st0" d="M37.56,15.08c-0.08,0-0.15-0.02-0.22-0.07l-4.69-3.32c-0.11-0.08-0.17-0.21-0.16-0.34l0.53-5.72
	c0.01-0.13,0.1-0.25,0.22-0.31l5.21-2.4c0.12-0.06,0.26-0.04,0.37,0.03l4.69,3.31c0.11,0.08,0.17,0.21,0.16,0.34l-0.52,5.72
	c-0.01,0.13-0.09,0.25-0.22,0.31l-5.22,2.41C37.67,15.06,37.61,15.08,37.56,15.08z M33.26,11.2l4.34,3.07l4.83-2.23l0.48-5.29
	l-4.34-3.06l-4.82,2.22L33.26,11.2z"/>
<path class="st0" d="M-0.86,15.25c-0.08,0-0.15-0.02-0.22-0.07l-1.42-1c-0.11-0.08-0.17-0.21-0.16-0.34l0.16-1.73
	c0.01-0.13,0.09-0.25,0.22-0.31l1.58-0.73c0.12-0.06,0.26-0.04,0.37,0.03l1.42,1c0.11,0.08,0.17,0.21,0.16,0.34l-0.16,1.73
	C1.08,14.31,1,14.42,0.88,14.48l-1.58,0.73C-0.75,15.23-0.81,15.25-0.86,15.25z M-1.89,13.69l1.07,0.75l1.19-0.55l0.12-1.3
	l-1.07-0.75l-1.19,0.55L-1.89,13.69z"/>
<path class="st0" d="M49.16,99.29c-0.16,0-0.3-0.1-0.35-0.25c-0.35-0.98-0.7-1.96-1.04-2.92c-1.86-5.25-3.62-10.22-5.65-12.9
	c-0.07-0.09-0.09-0.22-0.06-0.33c0.19-0.65-0.07-2.2-2.38-5.93c-0.11-0.17-0.06-0.39,0.11-0.51l3-2.06c0.13-0.09,0.3-0.09,0.43,0
	c1.21,0.84,2.85,0.98,4.28,0.39c1.3-0.54,2.17-1.63,2.41-2.97c0.03-0.16,0.16-0.29,0.32-0.31l3.57-0.48c0.2-0.03,0.38,0.11,0.42,0.3
	c0.82,4.29,1.67,5.62,2.25,5.98c0.1,0.06,0.16,0.17,0.17,0.28c0.35,3.45,2.51,8.51,4.8,13.86l0.98,2.31
	c0.07,0.17,0.01,0.38-0.16,0.47c-1.34,0.77-2.48,1.15-3.81,1.58c-0.94,0.3-1.9,0.62-3.07,1.11c-0.06,0.02-0.12,0.04-0.18,0.03
	c-0.79,0.31-1.48,0.62-2.14,0.93c-1.2,0.55-2.34,1.07-3.82,1.4C49.21,99.29,49.19,99.29,49.16,99.29z M42.82,82.92
	c2.05,2.8,3.8,7.74,5.65,12.96c0.3,0.86,0.61,1.73,0.93,2.6c1.25-0.31,2.22-0.76,3.34-1.28c0.88-0.41,1.88-0.86,3.13-1.3
	c0.02-0.01,0.03-0.01,0.05-0.01c0.85-0.33,1.6-0.57,2.29-0.79c1.19-0.39,2.23-0.72,3.38-1.35l-0.85-2
	c-2.28-5.32-4.43-10.36-4.84-13.91c-0.93-0.73-1.71-2.71-2.37-6.02l-2.95,0.4c-0.34,1.47-1.35,2.65-2.8,3.26
	c-1.58,0.66-3.38,0.54-4.78-0.32l-2.5,1.72C42.29,79.81,43.04,81.74,42.82,82.92z"/>
<path class="st0" d="M39.66,85.42c-0.01,0-0.01,0-0.02,0c-1.4-0.06-2.66-1.24-3.85-3.61c-0.07-0.13-0.05-0.29,0.04-0.4l3.87-4.88
	c0.13-0.16,0.37-0.19,0.53-0.06c0.16,0.13,0.19,0.36,0.06,0.53l-3.72,4.69c0.97,1.85,1.97,2.85,2.98,2.97l2.65-1.92
	c0.17-0.12,0.4-0.08,0.52,0.08c0.12,0.17,0.08,0.4-0.08,0.52l-2.76,2C39.82,85.4,39.74,85.42,39.66,85.42z"/>
<path class="st0" d="M39.88,85.29c-0.13,0-0.26-0.07-0.33-0.19c-0.78-1.4-1.95-2.52-3.38-3.24c-0.19-0.09-0.26-0.32-0.17-0.5
	c0.09-0.18,0.32-0.26,0.5-0.17c1.57,0.79,2.85,2.01,3.7,3.54c0.1,0.18,0.03,0.41-0.15,0.51C40,85.27,39.94,85.29,39.88,85.29z"/>
<path class="st0" d="M40.51,84.72c-0.14,0-0.28-0.08-0.34-0.22c-0.68-1.52-1.89-2.72-3.42-3.37c-0.19-0.08-0.28-0.3-0.2-0.49
	c0.08-0.19,0.3-0.28,0.49-0.2c1.71,0.72,3.06,2.06,3.82,3.75c0.08,0.19,0,0.41-0.19,0.5C40.61,84.71,40.56,84.72,40.51,84.72z"/>
<path class="st0" d="M56.23,78.03c-0.19,0-0.35-0.14-0.37-0.34c-0.02-0.21,0.13-0.39,0.33-0.41l3.28-0.35
	c0.66-0.75,0.73-2.19,0.19-4.2l-5.91-0.96c-0.2-0.03-0.34-0.23-0.31-0.43c0.03-0.2,0.23-0.34,0.43-0.31l6.15,1
	c0.14,0.02,0.26,0.13,0.3,0.27c0.72,2.53,0.58,4.3-0.41,5.26c-0.06,0.06-0.14,0.09-0.22,0.1l-3.42,0.36
	C56.26,78.02,56.24,78.03,56.23,78.03z"/>
<path class="st0" d="M59.38,77.64c-0.17,0-0.32-0.12-0.36-0.29c-0.4-1.7-0.29-3.47,0.32-5.11c0.07-0.19,0.29-0.29,0.48-0.22
	c0.19,0.07,0.29,0.29,0.22,0.48c-0.56,1.5-0.66,3.11-0.3,4.67c0.05,0.2-0.08,0.4-0.28,0.45C59.44,77.64,59.41,77.64,59.38,77.64z"/>
<path class="st0" d="M58.37,77.62c-0.16,0-0.3-0.1-0.36-0.26c-0.58-1.75-0.47-3.65,0.28-5.33c0.08-0.19,0.31-0.27,0.5-0.19
	c0.19,0.08,0.27,0.31,0.19,0.5c-0.68,1.51-0.77,3.21-0.26,4.79c0.06,0.2-0.04,0.41-0.24,0.47C58.45,77.61,58.41,77.62,58.37,77.62z"
	/>
<path class="st0" d="M42.97,75.1c-0.07,0-0.13-0.02-0.19-0.05c-0.18-0.11-0.24-0.34-0.13-0.51l0.6-1c0.06-0.11,0.18-0.17,0.3-0.18
	c2.03-0.12,3.96-0.84,5.57-2.08c0.1-0.08,0.23-0.1,0.35-0.06l0.89,0.31c0.2,0.07,0.3,0.28,0.23,0.48c-0.07,0.2-0.28,0.3-0.48,0.23
	l-0.7-0.24c-1.65,1.22-3.58,1.94-5.63,2.1l-0.5,0.83C43.22,75.04,43.1,75.1,42.97,75.1z"/>
<path class="st0" d="M45.32,74.99c-0.98,0-1.75-0.38-2.09-1.09c-0.09-0.19-0.01-0.41,0.18-0.5c0.19-0.09,0.41-0.01,0.5,0.18
	c0.4,0.83,1.67,0.77,2.64,0.46c1.32-0.41,2.59-1.42,2.43-2.4c-0.03-0.2,0.11-0.4,0.31-0.43c0.2-0.03,0.4,0.11,0.43,0.31
	c0.23,1.45-1.31,2.72-2.95,3.23C46.26,74.91,45.77,74.99,45.32,74.99z"/>
<path class="st0" d="M56.26,41.05l-3.14-2.8c-0.1-0.1-0.1-0.25-0.01-0.35c0,0,0,0,0.01-0.01c0.1-0.1,0.25-0.1,0.35,0l0,0l3,2.94
	c0.06,0.06,0.06,0.16,0,0.22C56.41,41.11,56.32,41.11,56.26,41.05z"/>
<path class="st0" d="M58.92,40.93l2.8-3.14c0.1-0.09,0.26-0.08,0.35,0.03c0.07,0.09,0.08,0.21,0.02,0.3l0,0l-2.94,3
	c-0.06,0.06-0.15,0.06-0.21,0C58.89,41.07,58.88,40.99,58.92,40.93z"/>
<path class="st0" d="M56.68,43.78l-2.8,3.15c-0.09,0.1-0.25,0.11-0.35,0.01s-0.11-0.25-0.01-0.35l0,0l0,0l2.93-3
	c0.06-0.06,0.16-0.06,0.22,0C56.71,43.64,56.72,43.72,56.68,43.78z"/>
<path class="st0" d="M59.13,43.3l3.15,2.8c0.1,0.09,0.11,0.26,0.02,0.36s-0.26,0.11-0.36,0.02l0,0l-3-2.94
	c-0.06-0.06-0.06-0.16,0-0.22C58.99,43.27,59.07,43.26,59.13,43.3z"/>
<path class="st0" d="M57.65,40.31l-0.1-4.21c0-0.14,0.11-0.25,0.25-0.26c0.14,0,0.25,0.11,0.25,0.25l0,0L58,40.31
	c-0.01,0.08-0.08,0.15-0.16,0.15c-0.09,0.02-0.17-0.04-0.19-0.13C57.65,40.33,57.65,40.32,57.65,40.31z"/>
<path class="st0" d="M58,44.05l0.09,4.21c0.01,0.13-0.08,0.24-0.21,0.25c-0.01,0-0.02,0-0.03,0c-0.14,0.01-0.25-0.1-0.26-0.24
	c0,0,0,0,0,0l0,0l0.1-4.21c0.01-0.08,0.08-0.15,0.16-0.15C57.93,43.91,57.99,43.97,58,44.05z"/>
<path class="st0" d="M88.58,47.88c-0.09,0-0.17-0.03-0.24-0.09c-3.24-2.77-6.72-5.33-10.34-7.6c-0.18-0.11-0.23-0.34-0.12-0.52
	c0.11-0.17,0.34-0.23,0.52-0.12c3.64,2.29,7.15,4.87,10.42,7.66c0.16,0.13,0.18,0.37,0.04,0.53C88.79,47.83,88.69,47.88,88.58,47.88
	z"/>
<path class="st0" d="M75.24,66.02c-2.32,0-6.52-2.92-8.86-4.97c-1.41-1.25-3.74-3.54-3.44-4.92c0.02-0.08,0.06-0.15,0.13-0.21
	c3.71-3.08,6.85-6.73,9.34-10.86c0.16-2.51,1.09-4.87,2.69-6.82c0.43-0.42,0.78-0.83,1.12-1.24c1.57-1.85,3.05-3.6,7.61-1.28
	c1.59,0.81,3.08,1.81,4.42,2.99c1.19,0.98,2.23,2.15,3.07,3.47c0.77,1.33,0.84,2.3,0.19,2.9c-0.05,0.05-0.11,0.1-0.17,0.14
	c-0.01,0.02-0.03,0.05-0.05,0.07c-0.06,0.07-0.14,0.11-0.22,0.12C83.8,52.86,78.92,59.5,76.13,65.71c-0.04,0.09-0.12,0.17-0.22,0.2
	C75.71,65.99,75.49,66.02,75.24,66.02z M63.67,56.4c0,0.64,0.97,2.1,3.21,4.08c3.33,2.93,7.2,5.05,8.64,4.76
	c2.82-6.22,7.69-12.84,14.88-20.22c-2.57-2.22-5.34-4.23-8.25-5.99c-3.44,0.02-4.59,1.56-5.91,3.34c-0.84,1.13-1.71,2.3-3.22,3.11
	C70.53,49.63,67.38,53.3,63.67,56.4z M82.22,38.29c0.08,0,0.16,0.01,0.23,0.05c3.01,1.81,5.88,3.9,8.53,6.2c0,0,0,0,0,0
	c0.36-0.34,0.25-0.99-0.31-1.96c-0.79-1.24-1.77-2.35-2.91-3.29c-1.3-1.15-2.73-2.12-4.27-2.9c-4.03-2.05-5.2-0.67-6.69,1.09
	c-0.36,0.42-0.72,0.85-1.15,1.26c-1.34,1.64-2.18,3.63-2.43,5.75c1.05-0.71,1.75-1.65,2.43-2.57
	C76.97,40.14,78.35,38.29,82.22,38.29z"/>
<path class="st0" d="M76.9,63.69c-0.03,0-0.06,0-0.1-0.01c-4.98-1.32-9.28-4.41-12.12-8.71c-0.11-0.17-0.07-0.41,0.11-0.52
	c0.17-0.11,0.41-0.07,0.52,0.11c2.74,4.14,6.89,7.12,11.68,8.4c0.2,0.05,0.32,0.26,0.27,0.46C77.22,63.57,77.07,63.69,76.9,63.69z"
	/>
<path class="st0" d="M79.84,61.6c-0.19,0-0.36-0.03-0.51-0.09c-0.46-0.19-0.93-0.7-0.56-2.09c0.05-0.2,0.26-0.32,0.46-0.27
	c0.2,0.05,0.32,0.26,0.27,0.46c-0.1,0.39-0.23,1.07,0.12,1.2c1.29,0.51,6.59-3.27,8.81-7.22c1.33-2.23,1.29-3.66,0.67-4.11
	c-0.57-0.4-1.79-0.09-2.92,1.27c-0.13,0.16-0.37,0.18-0.53,0.05c-0.16-0.13-0.18-0.37-0.05-0.53c1.29-1.55,2.91-2.13,3.93-1.4
	c0.88,0.62,1.22,2.29-0.45,5.09C87.05,57.6,82.08,61.6,79.84,61.6z"/>
<path class="st0" d="M79.88,64.19c-0.1,0-0.2,0-0.29-0.01c-1.18-0.09-2-0.77-2.38-1.97c-0.06-0.2,0.05-0.41,0.25-0.47
	c0.2-0.06,0.41,0.05,0.47,0.25c0.29,0.91,0.85,1.38,1.72,1.45c2.94,0.22,8.74-4.41,10.89-8.71c1.23-2.22,1.46-4.23,0.65-5.54
	c-0.54-0.87-1.48-1.33-2.58-1.28c-0.21,0.02-0.38-0.15-0.39-0.35s0.15-0.38,0.35-0.39c1.36-0.07,2.58,0.54,3.26,1.63
	c0.57,0.91,1.24,2.94-0.62,6.29C89.14,59.19,83.49,64.18,79.88,64.19z"/>
<path class="st0" d="M109.15,44.74c-0.02,0-0.05,0-0.08,0c-0.18-0.01-0.33-0.16-0.36-0.33C105.7,26.37,94.95,13.09,75.84,3.8
	c-0.16-0.08-0.24-0.25-0.2-0.42c0.04-0.17,0.19-0.29,0.37-0.29h57.46c0.19,0,0.35,0.15,0.37,0.34c0.02,0.19-0.11,0.37-0.3,0.4
	c-8.85,1.75-16.75,14.77-23.49,38.7C109.47,44.57,109.42,44.74,109.15,44.74z M77.6,3.83c17.94,9.11,28.3,21.89,31.59,38.98
	c0.04-0.16,0.09-0.32,0.14-0.49c6.22-22.09,13.5-35.01,21.67-38.49H77.6z"/>
<path class="st0" d="M62.73,116.91c-3.31,0-6-2.69-6-6s2.69-6.01,6-6.01s6,2.69,6,6.01S66.04,116.91,62.73,116.91z M62.73,105.64
	c-2.9,0-5.25,2.36-5.25,5.26c0,2.9,2.36,5.25,5.25,5.25s5.25-2.36,5.25-5.25C67.98,108,65.63,105.64,62.73,105.64z"/>
<path class="st0" d="M57.2,111.93l-2,2c-0.11,0.08-0.27,0.06-0.35-0.05c-0.07-0.09-0.07-0.21,0-0.3l0,0l2.1-1.83
	c0.06-0.06,0.16-0.06,0.22,0C57.22,111.8,57.23,111.87,57.2,111.93z"/>
<path class="st0" d="M56.91,110.18l-2-2c-0.08-0.11-0.06-0.27,0.05-0.35c0.09-0.07,0.21-0.07,0.3,0l0,0l1.83,2.1
	c0.06,0.06,0.06,0.15,0.01,0.21c0,0-0.01,0.01-0.01,0.01C57.04,110.2,56.97,110.21,56.91,110.18z"/>
<path class="st0" d="M56.85,111.16l-2.78,0.09c-0.13,0.01-0.25-0.09-0.26-0.22c0-0.01,0-0.01,0-0.02c-0.01-0.14,0.1-0.25,0.24-0.26
	c0,0,0,0,0,0l0,0l2.78,0.1c0.09-0.01,0.16,0.06,0.17,0.15c0,0,0,0,0,0C57,111.08,56.93,111.15,56.85,111.16z"/>
<path class="st0" d="M68.46,111.4l2.1,1.83c0.1,0.09,0.1,0.24,0.01,0.34c0,0-0.01,0.01-0.01,0.01c-0.1,0.1-0.25,0.1-0.35,0.01
	c0,0,0,0-0.01-0.01l0,0l-2-2c-0.06-0.06-0.06-0.16,0-0.22c0.05-0.07,0.14-0.08,0.21-0.03C68.43,111.35,68.45,111.37,68.46,111.4z"/>
<path class="st0" d="M68.31,109.66l1.83-2.1c0.1-0.1,0.25-0.1,0.35,0c0.1,0.09,0.1,0.24,0.01,0.34c0,0-0.01,0.01-0.01,0.01l0,0l-2,2
	c-0.06,0.06-0.16,0.06-0.22,0c-0.06-0.05-0.07-0.15-0.01-0.21C68.27,109.68,68.29,109.67,68.31,109.66z"/>
<path class="st0" d="M68.6,110.54l2.78-0.09c0.13-0.01,0.25,0.09,0.26,0.22c0,0.01,0,0.01,0,0.02c0.01,0.14-0.1,0.25-0.24,0.26
	c0,0,0,0,0,0l0,0l-2.78-0.1c-0.08-0.01-0.15-0.08-0.15-0.16C68.48,110.62,68.53,110.56,68.6,110.54z"/>
<path class="st0" d="M63.84,116.32l2,2c0.1,0.1,0.1,0.25,0.01,0.35c0,0,0,0-0.01,0.01c-0.1,0.09-0.25,0.09-0.35,0l0,0l-1.83-2.1
	c-0.06-0.06-0.06-0.16,0-0.22C63.71,116.31,63.78,116.3,63.84,116.32z"/>
<path class="st0" d="M62.09,116.61l-2,2c-0.1,0.09-0.25,0.09-0.35,0c-0.1-0.1-0.1-0.25-0.01-0.35c0,0,0,0,0.01-0.01l0,0l2.1-1.83
	c0.06-0.06,0.16-0.06,0.22,0C62.11,116.47,62.13,116.55,62.09,116.61z"/>
<path class="st0" d="M63.07,116.67l0.09,2.79c0.01,0.13-0.1,0.24-0.23,0.25c0,0-0.01,0-0.01,0c-0.14,0.01-0.25-0.1-0.26-0.24
	c0,0,0,0,0,0l0,0l0.1-2.79c0.01-0.08,0.08-0.15,0.16-0.15C63,116.54,63.06,116.6,63.07,116.67z"/>
<path class="st0" d="M61.68,105.38l-2-2c-0.08-0.11-0.06-0.27,0.05-0.35c0.09-0.07,0.21-0.07,0.3,0l0,0l1.83,2.1
	c0.06,0.06,0.06,0.16,0,0.22C61.81,105.4,61.74,105.41,61.68,105.38z"/>
<path class="st0" d="M63.43,105.1l2-2c0.11-0.08,0.27-0.06,0.35,0.05c0.07,0.09,0.07,0.21,0,0.3l0,0l-2.1,1.83
	c-0.06,0.06-0.16,0.06-0.22,0C63.41,105.23,63.4,105.16,63.43,105.1z"/>
<path class="st0" d="M62.45,105l-0.09-2.78c-0.01-0.14,0.1-0.25,0.24-0.26c0,0,0,0,0,0c0.14-0.01,0.25,0.1,0.26,0.24c0,0,0,0,0,0
	l0,0l-0.1,2.78c0,0.08-0.07,0.15-0.15,0.15c0,0-0.01,0-0.01,0C62.53,105.13,62.46,105.07,62.45,105z"/>
<path class="st0" d="M72.82,86.7c-2.28,0-4.13-1.86-4.13-4.14s1.85-4.13,4.13-4.13c2.28,0,4.14,1.85,4.14,4.13S75.1,86.7,72.82,86.7
	z M72.82,79.17c-1.87,0-3.38,1.52-3.38,3.38c0,1.87,1.52,3.39,3.38,3.39c1.87,0,3.39-1.52,3.39-3.39
	C76.21,80.69,74.69,79.17,72.82,79.17z"/>
<path class="st0" d="M72.82,84.78c-1.22,0-2.21-0.99-2.21-2.22s0.99-2.21,2.21-2.21c1.22,0,2.22,0.99,2.22,2.21
	S74.04,84.78,72.82,84.78z M72.82,81.09c-0.81,0-1.46,0.66-1.46,1.46c0,0.81,0.66,1.47,1.46,1.47c0.81,0,1.47-0.66,1.47-1.47
	C74.29,81.75,73.63,81.09,72.82,81.09z"/>
<path class="st0" d="M112.92,60.42h-8.99c-1.34,0-2.44-1.09-2.44-2.43v-4.52c0-1.34,1.09-2.44,2.44-2.44h8.99
	c1.34,0,2.44,1.09,2.44,2.44v4.52C115.35,59.33,114.26,60.42,112.92,60.42z M103.93,51.79c-0.93,0-1.69,0.76-1.69,1.69v4.52
	c0,0.93,0.76,1.68,1.69,1.68h8.99c0.93,0,1.69-0.76,1.69-1.68v-4.52c0-0.93-0.76-1.69-1.69-1.69H103.93z"/>
<path class="st0" d="M65.36,22.25c-0.03,0-0.06,0-0.09-0.01c-0.11-0.03-0.2-0.1-0.25-0.2c-0.14-0.29-3.41-7.03-2.82-9.56
	c0.22-0.93,0.92-1.43,1.83-1.3c1.22,0.17,2.81,1.51,3.18,3.46c1.33-1.48,3.28-2.01,4.45-1.52c0.79,0.33,1.12,1.06,0.9,1.96
	c0,0,0,0,0,0c-0.63,2.48-6.73,6.91-6.99,7.09C65.51,22.23,65.44,22.25,65.36,22.25z M63.76,11.91c-0.43,0-0.71,0.25-0.83,0.74
	c-0.41,1.76,1.56,6.51,2.57,8.66c1.91-1.42,5.91-4.68,6.34-6.4c0.13-0.54-0.02-0.91-0.46-1.09c-0.97-0.4-3.02,0.18-4.15,2.05
	c-0.09,0.15-0.27,0.21-0.43,0.16c-0.16-0.05-0.27-0.2-0.27-0.37c0.09-2.05-1.49-3.58-2.61-3.73C63.88,11.92,63.82,11.91,63.76,11.91
	z M72.21,15L72.21,15L72.21,15z"/>
<path class="st0" d="M9.07,63.23c-0.08,0-0.16-0.03-0.23-0.08c-0.13-0.1-0.18-0.28-0.12-0.43c0.35-0.87,3.45-8.5,5.79-9.08
	c0.41-0.1,0.79-0.01,1.1,0.26c0.42,0.34,0.65,0.81,0.64,1.36c-0.06,2.81-6.25,7.38-6.96,7.89C9.22,63.2,9.15,63.23,9.07,63.23z
	 M14.83,54.34c-0.04,0-0.09,0.01-0.13,0.02c-1.29,0.32-3.39,4.26-4.74,7.34c2.17-1.72,5.51-4.73,5.54-6.46
	c0.01-0.32-0.11-0.57-0.36-0.77C15.03,54.38,14.94,54.34,14.83,54.34z"/>
<path class="st0" d="M9.07,63.17c-0.03,0-0.06,0-0.09-0.01c-0.17-0.04-0.29-0.19-0.29-0.36c-0.02-1.76-0.06-10.57,1.76-11.66
	c0.31-0.18,0.66-0.18,1,0c0.45,0.23,0.77,0.62,0.95,1.18c0.97,3.03-2.83,10.34-3,10.65C9.34,63.1,9.21,63.17,9.07,63.17z
	 M10.93,51.76c-0.04,0-0.07,0.01-0.09,0.03c-0.93,0.56-1.35,5.39-1.4,9.39c1.06-2.28,2.88-6.64,2.24-8.62
	c-0.12-0.36-0.31-0.6-0.58-0.74C11.03,51.77,10.98,51.76,10.93,51.76z"/>
<path class="st0" d="M9.19,63.31c-0.14,0-0.27-0.08-0.33-0.2c-0.08-0.15-0.04-0.34,0.08-0.45c0.26-0.23,6.33-5.68,9.42-5.41
	c0.58,0.05,1.04,0.28,1.37,0.69c0.32,0.37,0.29,0.74,0.21,0.99c-0.68,2.05-9.01,4-10.67,4.37C9.24,63.31,9.22,63.31,9.19,63.31z
	 M18.13,57.99c-1.94,0-5.42,2.5-7.52,4.23c3.62-0.91,8.25-2.41,8.62-3.52c0.02-0.07,0.04-0.15-0.07-0.28
	c-0.21-0.26-0.48-0.39-0.85-0.42C18.25,57.99,18.19,57.99,18.13,57.99z"/>
<path class="st0" d="M4.13,72.02c-0.33,0-0.66-0.12-0.95-0.34c-0.33-0.23-0.52-0.58-0.54-1.01c-0.13-2.52,5.84-7.86,6.52-8.46
	c0.13-0.11,0.31-0.12,0.45-0.03c0.14,0.09,0.21,0.26,0.16,0.42c-0.26,0.87-2.61,8.54-5.16,9.36C4.45,72,4.29,72.02,4.13,72.02z
	 M8.62,63.71c-2.09,1.98-5.31,5.37-5.23,6.91c0.01,0.2,0.08,0.34,0.23,0.45c0.25,0.19,0.49,0.24,0.75,0.16
	C5.93,70.73,7.69,66.42,8.62,63.71z"/>
<path class="st0" d="M0.94,68.88c-0.01,0-0.02,0-0.03,0c-0.59-0.01-1.08-0.22-1.44-0.64c-0.27-0.28-0.36-0.63-0.26-1
	c0.56-2.12,8.47-4.62,10.05-5.1c0.16-0.05,0.34,0.02,0.43,0.16c0.09,0.14,0.07,0.33-0.04,0.45C9.42,63,4.02,68.88,0.94,68.88z
	 M8.07,63.31c-3.44,1.15-7.82,2.97-8.13,4.13c-0.02,0.08-0.03,0.18,0.09,0.3c0.23,0.26,0.51,0.39,0.89,0.39c0.01,0,0.02,0,0.02,0
	C2.82,68.13,6.13,65.24,8.07,63.31z"/>
<path class="st0" d="M8.52,74.76c-0.15,0-0.31-0.04-0.46-0.12c-3.21-1.41,0.68-11.11,1.14-12.21c0.07-0.16,0.23-0.25,0.4-0.23
	c0.17,0.03,0.3,0.17,0.32,0.34c0.15,1.81,0.83,10.89-0.89,12.06C8.87,74.71,8.7,74.76,8.52,74.76z M9.29,64.28
	c-1.4,3.87-2.6,8.95-0.91,9.69c0.15,0.07,0.2,0.04,0.23,0.02C9.47,73.39,9.53,68.41,9.29,64.28z"/>
<path class="st0" d="M18.53,46.6c-0.2,0-0.36-0.15-0.37-0.35c-0.36-6.75,1.25-11.63,4.81-14.5c3.6-2.92,8.93-3.84,16.29-2.79
	c0.8,0.11,1.6,0.27,2.36,0.42c2,0.4,3.89,0.77,5.9,0.43c2.3-0.31,4.28-1.72,5.3-3.8c1.42-2.68,0.88-6.06-1.19-7.53
	c-1.7-1.2-4.07-0.81-5.3,0.87c-0.46,0.62-0.66,1.37-0.55,2.13s0.51,1.43,1.12,1.89c1.09,0.77,2.53,0.54,3.27-0.48
	c0.55-0.77,0.38-1.84-0.38-2.39c-0.6-0.43-1.44-0.29-1.87,0.31c-0.31,0.43-0.22,1.04,0.21,1.35c0.33,0.23,0.77,0.16,1-0.16
	c0.12-0.17,0.36-0.21,0.52-0.09c0.17,0.12,0.21,0.36,0.09,0.52c-0.47,0.65-1.39,0.81-2.04,0.34c-0.38-0.28-0.63-0.68-0.7-1.13
	c-0.07-0.45,0.04-0.91,0.31-1.28c0.67-0.93,1.98-1.14,2.91-0.47c1.1,0.8,1.35,2.34,0.56,3.44c-0.98,1.35-2.89,1.66-4.25,0.7
	c0,0-0.08-0.06-0.08-0.06c-0.77-0.58-1.27-1.43-1.41-2.39s0.11-1.91,0.69-2.69c1.47-2,4.31-2.46,6.34-1.03
	c2.37,1.68,3.01,5.49,1.43,8.48c-1.13,2.29-3.32,3.86-5.85,4.2c-2.13,0.36-4.18-0.04-6.16-0.43c-0.76-0.15-1.54-0.31-2.32-0.42
	c-7.14-1.02-12.28-0.16-15.71,2.63c-3.36,2.72-4.88,7.39-4.53,13.88c0.01,0.21-0.15,0.38-0.35,0.39
	C18.54,46.6,18.54,46.6,18.53,46.6z"/>
<path class="st0" d="M70.82,147.54H35.57c-0.18,0-0.34-0.13-0.37-0.31c-0.03-0.18,0.07-0.36,0.24-0.42
	c15.73-5.69,26.27-13.47,32.22-23.79c0.07-0.12,0.21-0.19,0.34-0.19c0.14,0.01,0.26,0.09,0.32,0.22c4.14,8.87,5.05,16.56,2.85,24.21
	C71.13,147.43,70.99,147.54,70.82,147.54z M37.65,146.79h32.88c1.99-7.19,1.17-14.45-2.59-22.77
	C62.1,133.77,52.17,141.23,37.65,146.79z"/>
<path class="st0" d="M132.52,56.96c-3.07,0-6.21-1.05-8.82-3.15c-2.71-2.13-4.51-5.17-5.06-8.57c-0.01-0.04-0.02-0.09-0.02-0.13
	c0-0.2,0.15-0.36,0.35-0.37c0.19-0.01,0.37,0.12,0.4,0.32c0,0,0,0.01,0,0.01c0.09,0.17,0.56,0.58,0.71,0.71l0.17,0.15
	c0.33,0.37,0.66,0.69,1,1c0.64,0.6,1.33,1.13,2.07,1.58c1.28,0.78,2.75,1.25,4.25,1.37c5.7,0.23,10.55-4.24,10.78-9.96l0-0.16
	c0-4.04-2.88-6.89-4.6-8.23c-0.95-0.73-1.97-1.39-3.03-1.97c-0.15-0.08-0.23-0.26-0.18-0.42c0.04-0.17,0.19-0.28,0.36-0.28
	c0.17,0,0.36,0,0.5-0.06c0.03-0.01,0.06-0.02,0.1-0.03c3.32-0.45,6.64,0.38,9.37,2.32c3.04,2.25,5.09,5.69,5.62,9.42
	c0.67,4.72-1.7,10.08-6.03,13.67C138.21,56.03,135.4,56.96,132.52,56.96z M119.66,46.4c0.72,2.7,2.3,5.09,4.52,6.83
	c4.78,3.84,11.43,3.99,15.82,0.37c4.14-3.42,6.4-8.52,5.77-12.99c-0.51-3.54-2.45-6.79-5.32-8.92c-2.44-1.74-5.4-2.53-8.38-2.23
	c0.75,0.45,1.47,0.95,2.16,1.47c1.83,1.43,4.89,4.47,4.89,8.84l-0.01,0.18c-0.12,2.97-1.39,5.72-3.58,7.73
	c-2.19,2.02-5.02,3.07-8,2.94c-1.63-0.13-3.21-0.64-4.59-1.47c-0.79-0.47-1.52-1.04-2.19-1.67c-0.35-0.32-0.69-0.66-1.02-1.02
	L119.66,46.4z"/>
<path class="st0" d="M141.8,91.38c-0.09,0-0.18-0.03-0.25-0.1c-12.22-11.09-15.45-20.61-13.28-24.77c0.75-1.42,2.13-2.06,3.7-1.69
	c4.6,1.06,9.75,9.71,10.2,26.17c0,0.15-0.08,0.29-0.22,0.35C141.91,91.36,141.85,91.38,141.8,91.38z M131.1,65.46
	c-0.93,0-1.68,0.48-2.16,1.39c-0.98,1.88-0.58,5.16,1.09,8.77c2.07,4.51,6,9.5,11.37,14.49c-0.28-7.3-1.52-13.52-3.61-18.03
	c-1.67-3.62-3.91-6.06-5.99-6.55C131.56,65.49,131.32,65.46,131.1,65.46z"/>
<path class="st0" d="M166.81,146.8h-14.7c-1.67,0-3.02-1.36-3.02-3.02v-36.96c0-1.67,1.36-3.03,3.02-3.03h14.7
	c1.67,0,3.02,1.36,3.02,3.03v36.96C169.83,145.45,168.48,146.8,166.81,146.8z M152.11,104.54c-1.25,0-2.27,1.02-2.27,2.28v36.96
	c0,1.25,1.02,2.27,2.27,2.27h14.7c1.25,0,2.27-1.02,2.27-2.27v-36.96c0-1.25-1.02-2.28-2.27-2.28H152.11z"/>
<path class="st0" d="M159.46,145.67c-1.19,0-2.15-0.97-2.15-2.16c0-1.19,0.97-2.15,2.15-2.15c1.19,0,2.16,0.97,2.16,2.15
	C161.62,144.7,160.65,145.67,159.46,145.67z M159.46,142.11c-0.77,0-1.4,0.63-1.4,1.4s0.63,1.41,1.4,1.41
	c0.77,0,1.41-0.63,1.41-1.41S160.23,142.11,159.46,142.11z"/>
<g>
	<circle class="st0" cx="159.65" cy="106.08" r="0.42"/>
	<path class="st0" d="M159.65,106.88c-0.44,0-0.79-0.36-0.79-0.79s0.36-0.79,0.79-0.79s0.79,0.36,0.79,0.79
		S160.09,106.88,159.65,106.88z M159.65,106.04c-0.03,0-0.04,0.02-0.04,0.04L159.65,106.04z"/>
</g>
<g>
	<circle class="st0" cx="156.88" cy="107.71" r="0.27"/>
	<path class="st0" d="M156.88,108.36c-0.36,0-0.65-0.29-0.65-0.65s0.29-0.64,0.65-0.64s0.65,0.29,0.65,0.64
		S157.24,108.36,156.88,108.36z M156.88,107.61c-0.06,0-0.1,0.05-0.1,0.1c0,0.12,0.21,0.12,0.21,0
		C156.98,107.65,156.94,107.61,156.88,107.61z"/>
</g>
<g>
	<path class="st0" d="M158.22,107.5h2.89c0.12,0,0.21,0.09,0.21,0.21l0,0c0,0.12-0.09,0.21-0.21,0.21h-2.89
		c-0.12,0-0.21-0.09-0.21-0.21l0,0C158.01,107.59,158.1,107.5,158.22,107.5z"/>
	<path class="st0" d="M161.11,108.29h-2.89c-0.32,0-0.59-0.26-0.59-0.58s0.26-0.58,0.59-0.58h2.89c0.32,0,0.58,0.26,0.58,0.58
		S161.43,108.29,161.11,108.29z"/>
</g>
<path class="st0" d="M168.01,141.13h-17.1c-0.36,0-0.65-0.29-0.65-0.64v-30.46c0-0.36,0.29-0.65,0.65-0.65h17.1
	c0.36,0,0.65,0.29,0.65,0.65v30.46C168.65,140.85,168.37,141.13,168.01,141.13z M151.02,140.38h16.89v-30.25h-16.89V140.38z
	 M168.01,110.13L168.01,110.13L168.01,110.13z"/>
<path class="st0" d="M176.39,118.33c-0.07,0-0.14-0.02-0.21-0.06c-0.17-0.12-0.22-0.35-0.1-0.52c5.5-8.23,3.75-21.07-1.03-28.26
	c-3.12-4.69-7.27-6.79-11.7-5.92c-4.53,0.69-8.15,4.39-8.08,8.25c0.08,3.17,2.73,5.72,5.89,5.72c0,0,0.09,0,0.1,0
	c2.46-0.05,4.42-2.08,4.37-4.54c-0.04-2-1.66-3.58-3.62-3.58c-0.02,0-0.05,0-0.07,0c-1.56,0.03-2.76,1.26-2.73,2.76
	c0.03,1.19,1,2.13,2.2,2.13c0.9,0,1.62-0.73,1.62-1.62c-0.01-0.67-0.57-1.22-1.25-1.22c-0.01,0-0.01,0-0.02,0
	c-0.21,0-0.37-0.17-0.38-0.37c0-0.21,0.16-0.38,0.37-0.38c1.11,0,2,0.87,2.02,1.96c0,1.32-1.07,2.38-2.38,2.38
	c-1.61,0-2.9-1.26-2.95-2.86c-0.03-1.92,1.5-3.5,3.41-3.53c2.49-0.06,4.47,1.87,4.52,4.29c0.05,2.9-2.24,5.28-5.11,5.33l-0.11,0
	c-0.01,0-0.02,0-0.03,0c-3.56,0-6.53-2.89-6.61-6.46c-0.08-4.23,3.82-8.27,8.7-9.01c4.73-0.92,9.16,1.29,12.45,6.25
	c4.92,7.39,6.71,20.61,1.03,29.09C176.63,118.28,176.51,118.33,176.39,118.33z"/>
<path class="st0" d="M165.59,30.29c-0.47,0-0.94-0.12-1.41-0.39c-0.18-0.1-0.24-0.33-0.13-0.51s0.33-0.24,0.51-0.13
	c1.49,0.87,3.19-0.42,5.35-2.05c1.93-1.46,4.1-3.1,6.73-3.64c-4.18-3.53-9.73-2.68-12.28-0.59c-1.78,1.46-2.1,3.36-0.89,5.24
	c0.11,0.17,0.06,0.41-0.11,0.52c-0.17,0.11-0.41,0.06-0.52-0.11c-1.42-2.2-1.03-4.52,1.04-6.22c3.32-2.72,9.68-2.91,13.84,1.15
	c0.1,0.1,0.14,0.25,0.09,0.39c-0.05,0.14-0.17,0.23-0.31,0.25c-2.79,0.32-5.1,2.08-7.15,3.62
	C168.63,29.12,167.08,30.29,165.59,30.29z"/>
<path class="st0" d="M155.83,42.44c-0.02,0-0.04,0-0.06,0c-0.2-0.03-0.34-0.22-0.31-0.43c1.05-6.69,6.44-13.67,10.98-16.84
	c0.17-0.12,0.4-0.08,0.52,0.09c0.12,0.17,0.08,0.4-0.09,0.52c-4.41,3.08-9.64,9.86-10.66,16.34
	C156.17,42.31,156.01,42.44,155.83,42.44z"/>
<path class="st0" d="M158.13,35.85c-0.05,0-0.1-0.01-0.15-0.03c-0.19-0.09-0.27-0.31-0.19-0.5c2.54-5.6,0.83-8.78-1.39-11.38
	c-0.13-0.16-0.12-0.39,0.04-0.53c0.16-0.13,0.39-0.12,0.53,0.04c2.27,2.66,4.23,6.18,1.51,12.18
	C158.41,35.76,158.27,35.85,158.13,35.85z"/>
<path class="st0" d="M156.77,28.33c-2.21,0-3.54-2.03-4.74-3.84c-0.93-1.42-1.82-2.76-3.01-3.23c-0.13-0.05-0.23-0.18-0.24-0.32
	c-0.01-0.14,0.06-0.28,0.19-0.35c3.95-2.22,8.7-0.81,10.66,1.91c1.24,1.72,1.07,3.57-0.46,4.97c-0.15,0.14-0.39,0.13-0.53-0.02
	c-0.14-0.15-0.13-0.39,0.02-0.53c1.24-1.13,1.37-2.57,0.36-3.97c-1.46-2.02-5.32-3.71-9.05-2.01c1.07,0.7,1.89,1.95,2.68,3.16
	c1.36,2.07,2.65,4.03,5.02,3.37c0.2-0.06,0.41,0.06,0.46,0.26c0.06,0.2-0.06,0.41-0.26,0.46C157.49,28.28,157.12,28.33,156.77,28.33
	z"/>
<path class="st0" d="M177.81,145.42c-0.08,0-0.16-0.03-0.23-0.08c-0.16-0.13-0.19-0.36-0.07-0.53l16.85-21.83
	c0.13-0.16,0.36-0.19,0.53-0.07s0.19,0.36,0.07,0.53l-16.85,21.83C178.03,145.38,177.92,145.42,177.81,145.42z"/>
<path class="st0" d="M190.7,128.71c-0.1,0-0.2-0.04-0.27-0.12c-0.14-0.15-0.13-0.39,0.02-0.53c1.5-1.4,3.54-2.14,5.59-2
	c0.21,0.01,0.36,0.19,0.35,0.4c-0.01,0.21-0.19,0.37-0.4,0.35c-1.86-0.12-3.68,0.54-5.03,1.8
	C190.88,128.68,190.79,128.71,190.7,128.71z"/>
<path class="st0" d="M187.07,133.42c-0.1,0-0.2-0.04-0.27-0.12c-0.14-0.15-0.13-0.39,0.02-0.53c1.5-1.4,3.54-2.14,5.59-2
	c0.21,0.01,0.36,0.19,0.35,0.4c-0.01,0.21-0.2,0.38-0.4,0.35c-1.87-0.11-3.68,0.54-5.03,1.8
	C187.25,133.39,187.16,133.42,187.07,133.42z"/>
<path class="st0" d="M190.7,128.71c-0.06,0-0.12-0.01-0.18-0.04c-0.18-0.1-0.25-0.33-0.15-0.51c0.88-1.62,1.05-3.56,0.47-5.31
	c-0.06-0.2,0.04-0.41,0.24-0.47c0.19-0.07,0.41,0.04,0.47,0.24c0.64,1.95,0.45,4.1-0.53,5.91
	C190.96,128.64,190.83,128.71,190.7,128.71z"/>
<path class="st0" d="M187.07,133.42c-0.06,0-0.12-0.01-0.18-0.04c-0.18-0.1-0.25-0.33-0.15-0.51c0.88-1.62,1.05-3.56,0.47-5.31
	c-0.06-0.2,0.04-0.41,0.24-0.47c0.2-0.06,0.41,0.04,0.47,0.24c0.64,1.95,0.45,4.1-0.53,5.91
	C187.33,133.35,187.2,133.42,187.07,133.42z"/>
<path class="st0" d="M185.05,136.05c-0.12,0-0.24-0.06-0.31-0.16c-2.97-4.38-3.33-9.57-0.93-13.54c2.75-4.56,8.51-6.69,15.81-5.87
	c0.21,0.02,0.35,0.21,0.33,0.42c-0.02,0.21-0.2,0.35-0.42,0.33c-7-0.79-12.49,1.22-15.08,5.52c-2.25,3.72-1.9,8.6,0.91,12.73
	c0.12,0.17,0.07,0.4-0.1,0.52C185.2,136.03,185.12,136.05,185.05,136.05z"/>
<path class="st0" d="M189.8,136.9c-0.27,0-0.55-0.01-0.82-0.02c-0.21-0.01-0.36-0.19-0.35-0.4c0.01-0.21,0.16-0.38,0.4-0.35
	c3.95,0.23,7.46-1.32,9.6-4.25c2.68-3.67,2.89-8.95,0.6-14.89c-0.08-0.19,0.02-0.41,0.21-0.48c0.19-0.08,0.41,0.02,0.48,0.21
	c2.39,6.18,2.14,11.72-0.69,15.6C197.08,135.25,193.68,136.9,189.8,136.9z"/>
<path class="st0" d="M262.84,78.93c-1.8,0-3.74-0.66-5.89-1.98c-0.15-0.09-0.21-0.27-0.16-0.43c2.08-6.45,7.65-9.72,16.55-9.72
	c0.16,0,0.32,0.04,0.4,0.17c0.07,0.11,0.08,0.24,0.03,0.36c-2.21,5.02-4.72,10.02-8.84,11.3C264.25,78.83,263.55,78.93,262.84,78.93
	z M257.59,76.46c2.71,1.61,5.04,2.08,7.11,1.44c3.68-1.14,6.06-5.68,8.14-10.36C264.61,67.66,259.61,70.58,257.59,76.46z"/>
<path class="st0" d="M272.43,147.54c-0.13,0-0.27-0.07-0.33-0.2c-14.96-28.67-19.83-51.16-15.32-70.8c0.05-0.2,0.24-0.33,0.45-0.28
	c0.2,0.05,0.33,0.25,0.28,0.45c-4.47,19.45,0.38,41.79,15.26,70.28c0.1,0.18,0.03,0.41-0.16,0.51
	C272.55,147.53,272.49,147.54,272.43,147.54z"/>
<path class="st0" d="M250,81.73c-3.99,0-8.03-3.29-11.85-6.69c-0.09-0.08-0.14-0.21-0.12-0.34c0.02-0.12,0.1-0.23,0.21-0.28
	c8.26-3.77,14.53-3.13,19.17,1.96c0.12,0.13,0.13,0.32,0.03,0.46c-1.97,2.94-4.11,4.52-6.57,4.84
	C250.59,81.71,250.29,81.73,250,81.73z M239.08,74.86c3.84,3.4,7.89,6.55,11.71,6.06c2.16-0.27,4.08-1.67,5.87-4.26
	C252.38,72.15,246.63,71.56,239.08,74.86z"/>
<path class="st0" d="M264.02,101.05c-2.7,0-5.5-1.2-8.52-3.65c-0.13-0.11-0.18-0.29-0.1-0.45c3.88-8.2,11.51-11.44,23.33-9.92
	c0.13,0.02,0.23,0.09,0.29,0.21c0.05,0.11,0.05,0.25-0.02,0.36c-3.73,6.2-7.83,12.33-13.4,13.32
	C265.07,101,264.54,101.05,264.02,101.05z M256.2,97c3.34,2.64,6.37,3.68,9.26,3.17c5.11-0.9,9.03-6.59,12.59-12.47
	C267.06,86.42,259.89,89.46,256.2,97z"/>
<path class="st0" d="M271.93,126.87c-3.42,0-6.98-1.53-10.82-4.63c-0.13-0.11-0.18-0.29-0.1-0.45
	c4.76-10.29,14.74-14.54,29.67-12.62c0.12,0.02,0.23,0.09,0.29,0.21c0.05,0.11,0.05,0.25-0.02,0.36
	c-4.74,7.9-9.95,15.71-17.03,16.96C273.26,126.81,272.6,126.87,271.93,126.87z M261.81,121.83c4.32,3.43,8.24,4.78,11.98,4.12
	c6.62-1.17,11.65-8.53,16.22-16.11C275.7,108.14,266.47,112.06,261.81,121.83z"/>
<path class="st0" d="M245.94,104.58c-4.88,0-10.22-3.38-15.33-6.93c-0.1-0.07-0.16-0.19-0.16-0.32c0-0.13,0.07-0.24,0.18-0.31
	c10.04-6.18,18.57-6.36,25.35-0.54c0.13,0.11,0.17,0.3,0.09,0.45c-2.09,4.15-4.63,6.55-7.77,7.35
	C247.53,104.48,246.74,104.58,245.94,104.58z M231.51,97.36c5.66,3.9,11.57,7.48,16.61,6.2c2.85-0.72,5.19-2.92,7.15-6.7
	C248.82,91.48,241.04,91.65,231.51,97.36z"/>
<path class="st0" d="M248.82,131.7c-6.21,0-12.99-4.32-19.48-8.83c-0.1-0.07-0.16-0.19-0.16-0.32s0.07-0.24,0.18-0.31
	c12.95-7.97,23.49-8.2,32.23-0.69c0.13,0.11,0.17,0.3,0.09,0.45c-2.66,5.28-5.89,8.33-9.87,9.34
	C250.83,131.58,249.83,131.7,248.82,131.7z M230.25,122.58c7.26,5.03,14.85,9.68,21.38,8.03c3.69-0.93,6.72-3.78,9.25-8.69
	C252.58,114.95,242.55,115.17,230.25,122.58z"/>
<path class="st0" d="M200.44,67.21c-0.13,0-0.26-0.07-0.33-0.2l-7.46-14.15c-0.1-0.18-0.03-0.41,0.16-0.51
	c0.18-0.1,0.41-0.03,0.51,0.16l7.46,14.15c0.1,0.18,0.03,0.41-0.16,0.51C200.56,67.2,200.5,67.21,200.44,67.21z"/>
<path class="st0" d="M193.11,62.3c-4.03,0-5.93-3.45-7.79-6.8c-1.41-2.55-2.74-4.97-4.96-5.93c-0.15-0.06-0.24-0.22-0.22-0.38
	c0.01-0.16,0.13-0.29,0.29-0.33l0.22-0.05c3.85-0.92,7.83-1.87,12.63,3.63c0.14,0.16,0.12,0.39-0.04,0.53
	c-0.16,0.14-0.39,0.12-0.53-0.04c-4.21-4.82-7.62-4.39-11.15-3.57c1.92,1.25,3.19,3.54,4.42,5.77c2.36,4.28,4.59,8.32,11.19,5.41
	c0.19-0.08,0.41,0,0.49,0.19c0.08,0.19,0,0.41-0.19,0.49C195.78,61.98,194.35,62.3,193.11,62.3z"/>
<path class="st0" d="M192.98,53.06c-0.17,0-0.32-0.11-0.36-0.28c-1.84-7.15,1.25-9.9,4.24-12.56l0.07-0.06
	c0.16-0.14,0.39-0.12,0.53,0.03c0.14,0.15,0.12,0.39-0.03,0.53l-0.07,0.06c-2.95,2.63-5.74,5.11-4.01,11.81
	c0.05,0.2-0.07,0.41-0.27,0.46C193.04,53.06,193.01,53.06,192.98,53.06z"/>
<path class="st0" d="M199.85,59.23c-0.09,0-0.18-0.03-0.25-0.1c-0.15-0.14-0.16-0.38-0.02-0.53c2.94-3.22,1.22-6.66-0.61-10.31
	c-1.31-2.61-2.66-5.3-2.15-7.92c0.04-0.2,0.24-0.34,0.44-0.3c0.2,0.04,0.34,0.24,0.3,0.44c-0.46,2.37,0.77,4.83,2.08,7.44
	c1.86,3.71,3.78,7.54,0.5,11.15C200.05,59.18,199.95,59.23,199.85,59.23z"/>
<path class="st0" d="M184.92,48.87c-0.11,0-0.22-0.05-0.29-0.14c-0.13-0.16-0.1-0.4,0.06-0.53c1.79-1.42,2.71-3.7,2.38-5.96
	c-0.03-0.21,0.11-0.4,0.32-0.42c0.2-0.04,0.39,0.11,0.42,0.32c0.36,2.53-0.66,5.08-2.66,6.66C185.08,48.84,185,48.87,184.92,48.87z"
	/>
<path class="st0" d="M192.04,44.35c-1.77,0-3.52-0.66-4.86-1.89c-0.15-0.14-0.16-0.38-0.02-0.53c0.14-0.15,0.38-0.16,0.53-0.02
	c1.68,1.55,4.08,2.08,6.26,1.4c0.2-0.06,0.41,0.05,0.47,0.25c0.06,0.2-0.05,0.41-0.25,0.47C193.48,44.24,192.76,44.35,192.04,44.35z
	"/>
<path class="st0" d="M232.91,146.26l-2.37-2.4c-0.1-0.1-0.09-0.26,0.01-0.35c0.1-0.1,0.26-0.09,0.35,0l0,0l2.23,2.53
	c0.06,0.06,0.06,0.16,0,0.22C233.07,146.32,232.98,146.32,232.91,146.26C232.92,146.27,232.91,146.26,232.91,146.26z"/>
<path class="st0" d="M234.89,146.25l2.4-2.37c0.1-0.1,0.25-0.1,0.35,0c0.1,0.1,0.1,0.25,0.01,0.35c0,0,0,0-0.01,0.01l0,0l-2.53,2.23
	c-0.06,0.06-0.16,0.06-0.22,0C234.83,146.41,234.83,146.32,234.89,146.25C234.88,146.26,234.89,146.25,234.89,146.25z"/>
<path class="st0" d="M233.86,145.86l-0.09-3.38c-0.01-0.13,0.1-0.24,0.23-0.25c0,0,0.01,0,0.01,0c0.14-0.01,0.25,0.1,0.26,0.24
	c0,0,0,0,0,0l0,0l-0.1,3.38c-0.01,0.08-0.08,0.15-0.16,0.15C233.93,146,233.87,145.94,233.86,145.86z"/>
<path class="st0" d="M246,146.26l-2.37-2.4c-0.11-0.08-0.13-0.24-0.05-0.35s0.24-0.13,0.35-0.05c0.02,0.01,0.04,0.03,0.05,0.05l0,0
	l2.23,2.53c0.06,0.06,0.06,0.16,0,0.22C246.15,146.32,246.06,146.32,246,146.26z"/>
<path class="st0" d="M248,146.26l2.4-2.37c0.11-0.08,0.27-0.06,0.35,0.05c0.07,0.09,0.07,0.21,0,0.3l0,0l-2.53,2.23
	c-0.06,0.06-0.16,0.06-0.22,0C247.94,146.41,247.94,146.32,248,146.26z"/>
<path class="st0" d="M247,145.86l-0.1-3.37c0-0.14,0.11-0.25,0.25-0.26c0.13,0,0.24,0.11,0.25,0.24l0,0l-0.09,3.37
	c-0.01,0.08-0.08,0.15-0.16,0.15C247.07,145.99,247.01,145.93,247,145.86z"/>
<path class="st0" d="M259,146.26l-2.37-2.4c-0.08-0.11-0.06-0.27,0.05-0.35c0.09-0.07,0.21-0.07,0.3,0l0,0l2.23,2.53
	c0.06,0.06,0.06,0.16,0,0.22c-0.05,0.06-0.14,0.06-0.2,0.01C259.01,146.27,259,146.26,259,146.26z"/>
<path class="st0" d="M260.92,146.26l2.41-2.37c0.09-0.1,0.24-0.1,0.34-0.01c0,0,0.01,0.01,0.01,0.01c0.1,0.1,0.1,0.25,0,0.35l0,0
	l-2.54,2.23c-0.05,0.06-0.14,0.06-0.2,0.01c0,0-0.01-0.01-0.01-0.01C260.87,146.41,260.87,146.32,260.92,146.26z"/>
<path class="st0" d="M259.9,145.86l-0.1-3.37c0-0.14,0.11-0.25,0.25-0.25s0.25,0.11,0.25,0.25l0,0l-0.1,3.37
	c0,0.08-0.07,0.15-0.15,0.15c0,0-0.01,0-0.01,0C259.96,146,259.9,145.94,259.9,145.86z"/>
<path class="st0" d="M171.25,69.23c-2.82,0-7.7-5.77-8.25-6.43c-0.11-0.13-0.12-0.31-0.02-0.45c0.09-0.14,0.27-0.2,0.43-0.15
	c0.89,0.29,8.69,2.89,9.43,5.19c0.13,0.4,0.06,0.78-0.18,1.11c-0.31,0.44-0.77,0.7-1.32,0.72
	C171.31,69.23,171.28,69.23,171.25,69.23z M164.5,63.37c1.84,2.03,5.01,5.11,6.75,5.11c0.02,0,0.04,0,0.06,0
	c0.32-0.01,0.56-0.14,0.74-0.41c0.11-0.15,0.13-0.28,0.08-0.45C171.71,66.35,167.66,64.52,164.5,63.37z"/>
<path class="st0" d="M172.41,65.45c-3.46,0-8.96-2.41-9.23-2.53c-0.16-0.07-0.25-0.24-0.22-0.41c0.03-0.17,0.17-0.3,0.34-0.31
	c1.75-0.14,10.55-0.75,11.75,0.99c0.2,0.29,0.22,0.65,0.06,1c-0.19,0.46-0.57,0.8-1.11,1.02C173.56,65.37,173.02,65.45,172.41,65.45
	z M164.98,62.84c2.34,0.91,6.82,2.43,8.75,1.66c0.35-0.14,0.58-0.34,0.7-0.63c0.07-0.15,0.04-0.21,0.01-0.26
	C173.82,62.72,168.97,62.62,164.98,62.84z"/>
<path class="st0" d="M168.17,73.19c-0.1,0-0.19-0.01-0.27-0.04c-2.09-0.55-4.59-8.72-5.07-10.35c-0.05-0.16,0.02-0.34,0.17-0.43
	c0.15-0.09,0.33-0.07,0.46,0.05c0.25,0.24,6.07,5.92,6.02,9.04c-0.01,0.58-0.21,1.06-0.6,1.41
	C168.64,73.12,168.39,73.19,168.17,73.19z M164.02,64.07c1.15,3.55,2.95,8.07,4.08,8.36c0.07,0.02,0.15,0.03,0.27-0.09
	c0.24-0.22,0.36-0.51,0.36-0.88C168.76,69.55,165.93,66.11,164.02,64.07z"/>
<path class="st0" d="M163.68,63.27c-0.03,0-0.06,0-0.08-0.01c-0.88-0.2-8.67-2.05-9.67-4.54c-0.19-0.49-0.14-0.99,0.16-1.44
	c0.21-0.34,0.55-0.55,0.97-0.6c2.51-0.3,8.24,5.31,8.88,5.96c0.12,0.12,0.15,0.3,0.06,0.45C163.94,63.19,163.81,63.27,163.68,63.27z
	 M155.29,57.4c-0.05,0-0.1,0-0.14,0.01c-0.2,0.02-0.33,0.1-0.43,0.26c-0.17,0.26-0.2,0.5-0.1,0.76c0.61,1.52,5.01,3,7.77,3.74
	C160.34,60.28,156.89,57.4,155.29,57.4z"/>
<path class="st0" d="M163.65,63.23c-0.08,0-0.17-0.03-0.23-0.08c-0.27-0.21-6.55-5.28-6.72-8.34c-0.03-0.58,0.15-1.07,0.53-1.45
	c0.27-0.29,0.61-0.4,0.99-0.33c2.17,0.43,5.2,8.15,5.79,9.69c0.06,0.16,0.01,0.34-0.13,0.44C163.8,63.2,163.73,63.23,163.65,63.23z
	 M158,53.75c-0.07,0-0.15,0.03-0.24,0.12c-0.24,0.24-0.34,0.52-0.32,0.89c0.1,1.87,3.23,5.01,5.3,6.83
	c-1.38-3.35-3.49-7.6-4.68-7.84C158.05,53.76,158.02,53.75,158,53.75z"/>
<path class="st0" d="M155.45,64.13c-1.85,0-3.4-0.2-3.89-0.82c-0.22-0.27-0.26-0.62-0.12-0.98c1.22-3.3,11.14-0.06,12.27,0.31
	c0.16,0.06,0.27,0.21,0.25,0.39s-0.15,0.31-0.32,0.34C162.52,63.55,158.56,64.13,155.45,64.13z M154.81,61.61
	c-1.38,0-2.4,0.28-2.67,0.99c-0.06,0.16-0.02,0.21,0,0.24c0.67,0.84,5.65,0.56,9.75,0.02C159.56,62.19,156.8,61.61,154.81,61.61z"/>
<path class="st0" d="M163.75,13.58c-0.08,0-0.15-0.02-0.22-0.07l-2.28-1.62c-0.11-0.08-0.17-0.21-0.16-0.34l0.26-2.79
	c0.01-0.13,0.1-0.25,0.22-0.31l2.54-1.17c0.12-0.06,0.26-0.04,0.37,0.04l2.28,1.62c0.11,0.08,0.17,0.21,0.16,0.34l-0.26,2.78
	c-0.01,0.13-0.09,0.25-0.22,0.31l-2.54,1.18C163.86,13.56,163.8,13.58,163.75,13.58z M161.86,11.4l1.93,1.37l2.15-1l0.22-2.35
	l-1.93-1.37l-2.15,0.99L161.86,11.4z"/>
<path class="st0" d="M175.69,12.33c-0.08,0-0.15-0.02-0.22-0.07l-3.26-2.31c-0.11-0.08-0.17-0.21-0.16-0.34l0.36-3.98
	c0.01-0.13,0.09-0.25,0.22-0.31l3.64-1.68c0.12-0.06,0.26-0.04,0.37,0.03l3.26,2.31c0.11,0.08,0.17,0.21,0.16,0.34l-0.36,3.99
	c-0.01,0.13-0.09,0.25-0.22,0.31l-3.64,1.67C175.8,12.32,175.74,12.33,175.69,12.33z M172.82,9.47l2.91,2.06l3.25-1.49l0.32-3.56
	l-2.91-2.06l-3.25,1.5L172.82,9.47z"/>
<path class="st0" d="M191.56,15.08c-0.08,0-0.15-0.02-0.22-0.07l-4.69-3.32c-0.11-0.08-0.17-0.21-0.16-0.34l0.53-5.72
	c0.01-0.13,0.09-0.25,0.22-0.31l5.21-2.4c0.12-0.06,0.26-0.04,0.37,0.03l4.69,3.31c0.11,0.08,0.17,0.21,0.16,0.34l-0.52,5.72
	c-0.01,0.13-0.09,0.25-0.22,0.31l-5.22,2.41C191.67,15.06,191.61,15.08,191.56,15.08z M187.26,11.2l4.34,3.07l4.83-2.23l0.48-5.29
	l-4.34-3.06l-4.82,2.22L187.26,11.2z"/>
<path class="st0" d="M153.14,15.25c-0.08,0-0.15-0.02-0.22-0.07l-1.42-1c-0.11-0.08-0.17-0.21-0.16-0.34l0.16-1.73
	c0.01-0.13,0.09-0.25,0.22-0.31l1.58-0.73c0.12-0.06,0.26-0.04,0.37,0.03l1.42,1c0.11,0.08,0.17,0.21,0.16,0.34l-0.16,1.73
	c-0.01,0.13-0.09,0.25-0.22,0.31l-1.58,0.73C153.25,15.23,153.19,15.25,153.14,15.25z M152.11,13.69l1.07,0.75l1.19-0.55l0.12-1.3
	l-1.07-0.75l-1.19,0.55L152.11,13.69z"/>
<path class="st0" d="M203.16,99.29c-0.16,0-0.3-0.1-0.35-0.25c-0.35-0.98-0.7-1.96-1.04-2.92c-1.86-5.25-3.62-10.22-5.65-12.9
	c-0.07-0.09-0.09-0.22-0.06-0.33c0.19-0.65-0.07-2.2-2.38-5.93c-0.11-0.17-0.06-0.39,0.11-0.51l3-2.06c0.13-0.09,0.3-0.09,0.42,0
	c1.21,0.84,2.86,0.98,4.28,0.39c1.3-0.54,2.17-1.63,2.41-2.97c0.03-0.16,0.16-0.29,0.32-0.31l3.57-0.48c0.2-0.03,0.38,0.11,0.42,0.3
	c0.82,4.29,1.67,5.62,2.25,5.98c0.1,0.06,0.16,0.17,0.17,0.28c0.35,3.45,2.51,8.51,4.8,13.87l0.98,2.3
	c0.07,0.17,0.01,0.38-0.16,0.47c-1.34,0.77-2.48,1.14-3.81,1.58c-0.94,0.3-1.9,0.62-3.07,1.11c-0.06,0.02-0.12,0.03-0.18,0.03
	c-0.79,0.31-1.48,0.62-2.14,0.93c-1.2,0.55-2.34,1.07-3.82,1.4C203.21,99.29,203.19,99.29,203.16,99.29z M196.82,82.92
	c2.05,2.8,3.8,7.74,5.65,12.96c0.3,0.86,0.61,1.73,0.92,2.6c1.25-0.31,2.22-0.76,3.35-1.28c0.88-0.41,1.88-0.87,3.13-1.3
	c0.02-0.01,0.04-0.01,0.05-0.01c0.85-0.33,1.6-0.57,2.29-0.79c1.19-0.39,2.23-0.72,3.38-1.35l-0.85-1.99
	c-2.28-5.33-4.43-10.36-4.84-13.92c-0.94-0.73-1.71-2.71-2.37-6.02l-2.96,0.4c-0.34,1.47-1.35,2.65-2.8,3.26
	c-1.58,0.66-3.38,0.54-4.78-0.32l-2.5,1.72C196.29,79.81,197.04,81.74,196.82,82.92z"/>
<path class="st0" d="M193.66,85.42c-0.01,0-0.01,0-0.02,0c-1.4-0.06-2.66-1.24-3.85-3.61c-0.07-0.13-0.05-0.29,0.04-0.4l3.87-4.88
	c0.13-0.16,0.37-0.19,0.53-0.06c0.16,0.13,0.19,0.36,0.06,0.53l-3.72,4.69c0.97,1.85,1.97,2.85,2.98,2.97l2.65-1.92
	c0.17-0.12,0.4-0.08,0.52,0.08c0.12,0.17,0.08,0.4-0.08,0.52l-2.76,2C193.82,85.4,193.74,85.42,193.66,85.42z"/>
<path class="st0" d="M193.88,85.29c-0.13,0-0.26-0.07-0.33-0.19c-0.78-1.4-1.95-2.52-3.38-3.24c-0.18-0.09-0.26-0.32-0.17-0.5
	c0.09-0.18,0.32-0.26,0.5-0.17c1.57,0.79,2.85,2.01,3.7,3.54c0.1,0.18,0.04,0.41-0.15,0.51C194,85.27,193.94,85.29,193.88,85.29z"/>
<path class="st0" d="M194.51,84.72c-0.14,0-0.28-0.08-0.34-0.22c-0.68-1.52-1.89-2.72-3.42-3.37c-0.19-0.08-0.28-0.3-0.2-0.49
	c0.08-0.19,0.3-0.28,0.49-0.2c1.71,0.72,3.06,2.06,3.82,3.75c0.08,0.19,0,0.41-0.19,0.5C194.61,84.71,194.56,84.72,194.51,84.72z"/>
<path class="st0" d="M210.23,78.03c-0.19,0-0.35-0.14-0.37-0.34c-0.02-0.21,0.13-0.39,0.33-0.41l3.28-0.35
	c0.66-0.75,0.73-2.19,0.19-4.2l-5.91-0.96c-0.2-0.03-0.34-0.23-0.31-0.43s0.22-0.35,0.43-0.31l6.15,1c0.14,0.02,0.26,0.13,0.3,0.27
	c0.72,2.53,0.58,4.3-0.41,5.26c-0.06,0.06-0.14,0.09-0.22,0.1l-3.42,0.36C210.26,78.02,210.24,78.03,210.23,78.03z"/>
<path class="st0" d="M213.38,77.64c-0.17,0-0.32-0.12-0.37-0.29c-0.4-1.7-0.29-3.47,0.32-5.11c0.07-0.19,0.29-0.29,0.48-0.22
	c0.19,0.07,0.29,0.29,0.22,0.48c-0.56,1.5-0.66,3.12-0.3,4.67c0.05,0.2-0.08,0.4-0.28,0.45C213.44,77.64,213.41,77.64,213.38,77.64z
	"/>
<path class="st0" d="M212.37,77.62c-0.16,0-0.3-0.1-0.36-0.26c-0.58-1.76-0.47-3.65,0.28-5.33c0.09-0.19,0.31-0.27,0.5-0.19
	c0.19,0.08,0.27,0.31,0.19,0.5c-0.68,1.51-0.77,3.21-0.25,4.79c0.06,0.2-0.04,0.41-0.24,0.47
	C212.45,77.61,212.41,77.62,212.37,77.62z"/>
<path class="st0" d="M196.97,75.1c-0.07,0-0.13-0.02-0.19-0.05c-0.18-0.11-0.23-0.34-0.13-0.51l0.6-1c0.06-0.11,0.18-0.17,0.3-0.18
	c2.03-0.12,3.96-0.84,5.57-2.08c0.1-0.08,0.23-0.1,0.35-0.06l0.89,0.31c0.2,0.07,0.3,0.28,0.23,0.48c-0.07,0.2-0.28,0.3-0.48,0.23
	l-0.7-0.24c-1.65,1.22-3.58,1.94-5.62,2.1l-0.5,0.83C197.22,75.04,197.1,75.1,196.97,75.1z"/>
<path class="st0" d="M199.32,74.99c-0.98,0-1.75-0.38-2.09-1.09c-0.09-0.19-0.01-0.41,0.18-0.5c0.18-0.09,0.41-0.01,0.5,0.18
	c0.4,0.83,1.67,0.77,2.64,0.46c1.32-0.41,2.59-1.42,2.43-2.4c-0.03-0.2,0.11-0.4,0.31-0.43c0.2-0.03,0.4,0.11,0.43,0.31
	c0.23,1.45-1.31,2.72-2.95,3.23C200.26,74.91,199.77,74.99,199.32,74.99z"/>
<path class="st0" d="M210.26,41.05l-3.14-2.8c-0.1-0.1-0.1-0.25-0.01-0.35c0,0,0,0,0.01-0.01c0.1-0.1,0.25-0.1,0.35,0l0,0l3,2.94
	c0.06,0.06,0.06,0.16,0,0.22C210.41,41.11,210.32,41.11,210.26,41.05z"/>
<path class="st0" d="M212.92,40.93l2.8-3.14c0.1-0.09,0.26-0.08,0.35,0.03c0.07,0.09,0.08,0.21,0.02,0.3l0,0l-2.94,3
	c-0.06,0.06-0.15,0.06-0.21,0C212.89,41.07,212.88,40.99,212.92,40.93z"/>
<path class="st0" d="M210.68,43.78l-2.8,3.15c-0.09,0.1-0.25,0.11-0.35,0.01c-0.1-0.09-0.11-0.25-0.01-0.35l0,0l2.93-3
	c0.06-0.06,0.16-0.06,0.22,0C210.71,43.64,210.72,43.72,210.68,43.78z"/>
<path class="st0" d="M213.13,43.3l3.15,2.8c0.1,0.09,0.11,0.26,0.02,0.36c-0.09,0.1-0.26,0.11-0.36,0.02l0,0l0,0l-3-2.94
	c-0.06-0.06-0.06-0.16,0-0.22C212.99,43.27,213.07,43.26,213.13,43.3z"/>
<path class="st0" d="M211.65,40.31l-0.1-4.21c0-0.14,0.11-0.25,0.25-0.26c0.14,0,0.25,0.11,0.25,0.25l0,0L212,40.31
	c-0.01,0.08-0.08,0.15-0.16,0.15c-0.09,0.02-0.17-0.04-0.19-0.13C211.65,40.33,211.65,40.32,211.65,40.31z"/>
<path class="st0" d="M212,44.05l0.09,4.21c0.01,0.13-0.08,0.24-0.21,0.25c-0.01,0-0.02,0-0.03,0c-0.14,0.01-0.25-0.1-0.26-0.24
	c0,0,0,0,0,0l0,0l0.1-4.21c0.01-0.08,0.08-0.15,0.16-0.15C211.93,43.91,211.99,43.97,212,44.05z"/>
<path class="st0" d="M242.58,47.88c-0.09,0-0.17-0.03-0.24-0.09c-3.24-2.77-6.72-5.32-10.34-7.6c-0.18-0.11-0.23-0.34-0.12-0.52
	c0.11-0.18,0.34-0.23,0.52-0.12c3.65,2.29,7.15,4.87,10.42,7.66c0.16,0.13,0.18,0.37,0.04,0.53
	C242.79,47.83,242.69,47.88,242.58,47.88z"/>
<path class="st0" d="M229.24,66.02c-2.32,0-6.52-2.92-8.86-4.97c-1.42-1.25-3.74-3.54-3.44-4.92c0.02-0.08,0.06-0.15,0.13-0.21
	c3.71-3.08,6.86-6.73,9.34-10.86c0.16-2.51,1.09-4.86,2.69-6.82c0.43-0.42,0.78-0.83,1.12-1.24c1.57-1.85,3.05-3.6,7.61-1.28
	c1.59,0.81,3.08,1.81,4.42,2.99c1.19,0.98,2.23,2.15,3.07,3.47c0.29,0.5,1.16,1.99,0.19,2.9c-0.08,0.08-0.18,0.15-0.28,0.21
	c0,0-0.01,0.01-0.01,0.01c-0.04,0.04-0.08,0.07-0.13,0.1c-7.27,7.44-12.16,14.09-14.95,20.31c-0.04,0.09-0.12,0.17-0.21,0.2
	C229.71,65.99,229.49,66.02,229.24,66.02z M217.67,56.4c0,0.64,0.97,2.1,3.21,4.08c3.33,2.93,7.2,5.05,8.64,4.76
	c2.81-6.21,7.67-12.81,14.84-20.18c-2.56-2.23-5.32-4.26-8.21-6.03c-3.44,0.02-4.58,1.56-5.91,3.34c-0.84,1.13-1.71,2.3-3.22,3.11
	C224.53,49.63,221.38,53.3,217.67,56.4z M236.22,38.29c0.08,0,0.16,0.01,0.23,0.05c3,1.83,5.85,3.93,8.49,6.24
	c0.01-0.01,0.03-0.02,0.04-0.04c0.36-0.34,0.25-0.99-0.31-1.96c-0.79-1.24-1.77-2.35-2.91-3.29c-1.3-1.15-2.74-2.12-4.27-2.9
	c-4.02-2.05-5.2-0.67-6.7,1.09c-0.36,0.42-0.72,0.85-1.15,1.26c-1.34,1.64-2.18,3.63-2.43,5.75c1.05-0.71,1.75-1.65,2.43-2.57
	C230.97,40.14,232.35,38.29,236.22,38.29z"/>
<path class="st0" d="M230.9,63.69c-0.03,0-0.06,0-0.1-0.01c-4.97-1.32-9.28-4.41-12.12-8.71c-0.11-0.17-0.07-0.41,0.11-0.52
	c0.17-0.11,0.4-0.07,0.52,0.11c2.74,4.14,6.89,7.12,11.68,8.4c0.2,0.05,0.32,0.26,0.27,0.46C231.22,63.57,231.07,63.69,230.9,63.69z
	"/>
<path class="st0" d="M233.85,61.6c-0.19,0-0.36-0.03-0.51-0.09c-0.46-0.19-0.93-0.7-0.56-2.09c0.05-0.2,0.25-0.32,0.46-0.27
	c0.2,0.05,0.32,0.26,0.27,0.46c-0.1,0.39-0.22,1.07,0.12,1.2c1.28,0.51,6.61-3.26,8.81-7.22c1.33-2.23,1.29-3.67,0.67-4.11
	c-0.57-0.41-1.79-0.09-2.92,1.27c-0.13,0.16-0.37,0.18-0.53,0.05c-0.16-0.13-0.18-0.37-0.05-0.53c1.29-1.55,2.91-2.13,3.93-1.4
	c0.88,0.62,1.22,2.29-0.45,5.09C241.06,57.6,236.1,61.6,233.85,61.6z"/>
<path class="st0" d="M233.88,64.19c-0.1,0-0.2,0-0.29-0.01c-1.18-0.09-2-0.77-2.37-1.97c-0.06-0.2,0.05-0.41,0.25-0.47
	c0.2-0.06,0.41,0.05,0.47,0.25c0.29,0.91,0.85,1.38,1.72,1.45c2.91,0.22,8.74-4.41,10.89-8.71c1.23-2.22,1.46-4.23,0.65-5.54
	c-0.54-0.87-1.5-1.33-2.58-1.28c-0.23,0.03-0.38-0.15-0.39-0.35c-0.01-0.21,0.15-0.38,0.35-0.39c1.38-0.07,2.58,0.54,3.26,1.63
	c0.57,0.91,1.24,2.94-0.62,6.29C243.14,59.19,237.49,64.18,233.88,64.19z"/>
<path class="st0" d="M263.15,44.74c-0.02,0-0.05,0-0.08,0c-0.17-0.01-0.33-0.16-0.36-0.33c-3.01-18.03-13.76-31.31-32.87-40.61
	c-0.16-0.08-0.24-0.25-0.2-0.42c0.04-0.17,0.19-0.29,0.37-0.29h57.46c0.19,0,0.35,0.15,0.37,0.34c0.02,0.19-0.11,0.37-0.3,0.4
	c-8.85,1.75-16.75,14.77-23.49,38.7C263.47,44.57,263.42,44.74,263.15,44.74z M231.6,3.83c17.94,9.11,28.3,21.89,31.59,38.98
	c0.04-0.16,0.09-0.32,0.14-0.49c6.22-22.09,13.5-35.01,21.67-38.49H231.6z"/>
<path class="st0" d="M216.73,116.91c-3.31,0-6.01-2.69-6.01-6s2.69-6.01,6.01-6.01s6,2.69,6,6.01S220.04,116.91,216.73,116.91z
	 M216.73,105.64c-2.9,0-5.26,2.36-5.26,5.26c0,2.9,2.36,5.25,5.26,5.25c2.9,0,5.25-2.36,5.25-5.25
	C221.99,108,219.63,105.64,216.73,105.64z"/>
<path class="st0" d="M211.2,111.93l-2,2c-0.11,0.08-0.27,0.06-0.35-0.05c-0.07-0.09-0.07-0.21,0-0.3l0,0l2.1-1.83
	c0.06-0.06,0.16-0.06,0.22,0C211.22,111.8,211.23,111.87,211.2,111.93z"/>
<path class="st0" d="M210.91,110.18l-2-2c-0.08-0.11-0.06-0.27,0.05-0.35c0.09-0.07,0.21-0.07,0.3,0l0,0l1.83,2.1
	c0.06,0.06,0.06,0.15,0.01,0.21c0,0-0.01,0.01-0.01,0.01C211.04,110.2,210.97,110.21,210.91,110.18z"/>
<path class="st0" d="M210.85,111.16l-2.78,0.09c-0.13,0.01-0.25-0.09-0.26-0.22c0-0.01,0-0.01,0-0.02c-0.01-0.14,0.1-0.25,0.24-0.26
	c0,0,0,0,0,0l0,0l2.78,0.1c0.08,0.01,0.15,0.08,0.15,0.16C210.98,111.08,210.92,111.15,210.85,111.16z"/>
<path class="st0" d="M222.46,111.4l2.1,1.83c0.1,0.09,0.1,0.24,0.01,0.34c0,0-0.01,0.01-0.01,0.01c-0.1,0.1-0.25,0.1-0.35,0.01
	c0,0,0,0-0.01-0.01l0,0l-2-2c-0.06-0.06-0.06-0.16,0-0.22c0.05-0.07,0.14-0.08,0.21-0.03C222.43,111.35,222.45,111.37,222.46,111.4z
	"/>
<path class="st0" d="M222.31,109.66l1.83-2.1c0.1-0.1,0.25-0.1,0.35,0c0.1,0.09,0.1,0.24,0.01,0.34c0,0-0.01,0.01-0.01,0.01l0,0
	l-2,2c-0.06,0.06-0.16,0.06-0.22,0c-0.06-0.05-0.07-0.15-0.01-0.21C222.27,109.68,222.29,109.67,222.31,109.66z"/>
<path class="st0" d="M222.6,110.54l2.78-0.09c0.13-0.01,0.25,0.09,0.26,0.22c0,0.01,0,0.01,0,0.02c0.01,0.14-0.1,0.25-0.24,0.26
	c0,0,0,0,0,0l0,0l-2.78-0.1c-0.08-0.01-0.15-0.08-0.15-0.16C222.48,110.62,222.53,110.56,222.6,110.54z"/>
<path class="st0" d="M217.84,116.32l2,2c0.1,0.1,0.1,0.25,0.01,0.35c0,0,0,0-0.01,0.01c-0.1,0.09-0.25,0.09-0.35,0l0,0l-1.83-2.1
	c-0.06-0.06-0.06-0.16,0-0.22C217.71,116.31,217.78,116.3,217.84,116.32z"/>
<path class="st0" d="M216.09,116.61l-2,2c-0.1,0.09-0.25,0.09-0.35,0c-0.1-0.1-0.1-0.25-0.01-0.35c0,0,0,0,0.01-0.01l0,0l2.1-1.83
	c0.06-0.06,0.16-0.06,0.22,0C216.11,116.47,216.13,116.55,216.09,116.61z"/>
<path class="st0" d="M217.07,116.67l0.09,2.79c0.01,0.13-0.1,0.24-0.23,0.25c0,0-0.01,0-0.01,0c-0.14,0.01-0.25-0.1-0.26-0.24
	c0,0,0,0,0,0l0,0l0.1-2.79c0.01-0.08,0.08-0.15,0.16-0.15C217,116.54,217.06,116.6,217.07,116.67z"/>
<path class="st0" d="M215.68,105.38l-2-2c-0.11-0.08-0.13-0.24-0.05-0.35c0.08-0.11,0.24-0.13,0.35-0.05
	c0.02,0.01,0.04,0.03,0.05,0.05l0,0l1.83,2.1c0.06,0.06,0.06,0.16,0,0.22C215.81,105.4,215.74,105.41,215.68,105.38z"/>
<path class="st0" d="M217.43,105.1l2-2c0.11-0.08,0.27-0.06,0.35,0.05c0.07,0.09,0.07,0.21,0,0.3l0,0l-2.1,1.83
	c-0.06,0.06-0.16,0.06-0.22,0C217.41,105.23,217.4,105.16,217.43,105.1z"/>
<path class="st0" d="M216.45,105l-0.09-2.78c-0.01-0.14,0.1-0.25,0.24-0.26c0,0,0,0,0,0c0.14-0.01,0.25,0.1,0.26,0.24c0,0,0,0,0,0
	l0,0l-0.1,2.78c0,0.08-0.07,0.15-0.15,0.15c0,0-0.01,0-0.01,0C216.53,105.13,216.46,105.07,216.45,105z"/>
<path class="st0" d="M226.82,86.7c-2.28,0-4.14-1.86-4.14-4.14s1.86-4.13,4.14-4.13s4.13,1.85,4.13,4.13S229.1,86.7,226.82,86.7z
	 M226.82,79.17c-1.87,0-3.39,1.52-3.39,3.38c0,1.87,1.52,3.39,3.39,3.39c1.87,0,3.38-1.52,3.38-3.39
	C230.21,80.69,228.69,79.17,226.82,79.17z"/>
<path class="st0" d="M226.82,84.78c-1.22,0-2.21-0.99-2.21-2.22s0.99-2.21,2.21-2.21s2.21,0.99,2.21,2.21S228.04,84.78,226.82,84.78
	z M226.82,81.09c-0.81,0-1.46,0.66-1.46,1.46c0,0.81,0.66,1.47,1.46,1.47s1.46-0.66,1.46-1.47
	C228.29,81.75,227.63,81.09,226.82,81.09z"/>
<path class="st0" d="M266.92,60.42h-8.99c-1.34,0-2.43-1.09-2.43-2.43v-4.52c0-1.34,1.09-2.44,2.43-2.44h8.99
	c1.34,0,2.44,1.09,2.44,2.44v4.52C269.36,59.33,268.26,60.42,266.92,60.42z M257.93,51.79c-0.93,0-1.68,0.76-1.68,1.69v4.52
	c0,0.93,0.76,1.68,1.68,1.68h8.99c0.93,0,1.69-0.76,1.69-1.68v-4.52c0-0.93-0.76-1.69-1.69-1.69H257.93z"/>
<path class="st0" d="M219.36,22.25c-0.03,0-0.06,0-0.09-0.01c-0.11-0.03-0.2-0.1-0.25-0.2c-0.14-0.29-3.41-7.03-2.82-9.56
	c0.22-0.93,0.93-1.43,1.83-1.3c1.22,0.17,2.81,1.51,3.18,3.46c1.33-1.47,3.28-2.01,4.46-1.52c0.79,0.33,1.12,1.06,0.9,1.96
	c0,0,0,0,0,0c-0.63,2.48-6.73,6.91-6.99,7.09C219.51,22.23,219.44,22.25,219.36,22.25z M217.76,11.91c-0.43,0-0.71,0.25-0.83,0.74
	c-0.41,1.76,1.56,6.51,2.57,8.66c1.91-1.42,5.91-4.68,6.34-6.4c0.13-0.54-0.02-0.91-0.46-1.09c-0.97-0.4-3.02,0.18-4.15,2.05
	c-0.09,0.15-0.26,0.21-0.43,0.16c-0.16-0.05-0.27-0.2-0.27-0.37c0.09-2.05-1.49-3.58-2.61-3.73
	C217.88,11.92,217.82,11.91,217.76,11.91z M226.21,15L226.21,15L226.21,15z"/>
<path class="st0" d="M163.07,63.23c-0.08,0-0.16-0.03-0.23-0.08c-0.13-0.1-0.18-0.28-0.12-0.43c0.35-0.87,3.45-8.5,5.79-9.08
	c0.41-0.1,0.79-0.01,1.1,0.26c0.42,0.34,0.65,0.81,0.64,1.36c-0.06,2.81-6.25,7.38-6.96,7.89C163.22,63.2,163.15,63.23,163.07,63.23
	z M168.83,54.34c-0.04,0-0.09,0.01-0.13,0.02c-1.29,0.32-3.39,4.26-4.74,7.34c2.17-1.72,5.51-4.73,5.54-6.46
	c0.01-0.32-0.11-0.57-0.36-0.77C169.03,54.38,168.94,54.34,168.83,54.34z"/>
<path class="st0" d="M163.07,63.17c-0.03,0-0.06,0-0.09-0.01c-0.17-0.04-0.29-0.19-0.29-0.36c-0.02-1.76-0.06-10.57,1.76-11.66
	c0.3-0.18,0.66-0.18,1,0c0.45,0.23,0.77,0.62,0.95,1.18c0.97,3.03-2.83,10.34-3,10.65C163.34,63.1,163.21,63.17,163.07,63.17z
	 M164.93,51.76c-0.04,0-0.07,0.01-0.09,0.03c-0.93,0.56-1.35,5.39-1.4,9.39c1.06-2.28,2.88-6.64,2.24-8.62
	c-0.12-0.36-0.31-0.6-0.58-0.74C165.03,51.77,164.98,51.76,164.93,51.76z"/>
<path class="st0" d="M163.19,63.31c-0.14,0-0.27-0.08-0.33-0.2c-0.08-0.15-0.04-0.34,0.08-0.45c0.26-0.23,6.31-5.68,9.42-5.41
	c0.58,0.05,1.04,0.28,1.37,0.69c0.32,0.37,0.29,0.74,0.21,0.99c-0.68,2.05-9.01,4-10.67,4.37
	C163.24,63.31,163.22,63.31,163.19,63.31z M172.13,57.99c-1.94,0-5.42,2.5-7.52,4.23c3.62-0.91,8.25-2.41,8.62-3.52
	c0.02-0.07,0.04-0.15-0.07-0.28c-0.21-0.26-0.48-0.39-0.85-0.42C172.25,57.99,172.19,57.99,172.13,57.99z"/>
<path class="st0" d="M158.13,72.02c-0.33,0-0.66-0.12-0.95-0.34c-0.33-0.23-0.52-0.58-0.54-1.01c-0.13-2.52,5.84-7.86,6.52-8.46
	c0.13-0.11,0.31-0.12,0.45-0.03c0.14,0.09,0.21,0.26,0.16,0.42c-0.26,0.87-2.61,8.54-5.16,9.36C158.45,72,158.29,72.02,158.13,72.02
	z M162.62,63.71c-2.09,1.98-5.31,5.37-5.23,6.91c0.01,0.2,0.08,0.34,0.23,0.45c0.25,0.19,0.49,0.24,0.75,0.16
	C159.93,70.73,161.69,66.42,162.62,63.71z"/>
<path class="st0" d="M154.94,68.88c-0.01,0-0.02,0-0.03,0c-0.59-0.01-1.08-0.22-1.44-0.64c-0.27-0.28-0.36-0.63-0.26-1
	c0.56-2.12,8.47-4.62,10.05-5.1c0.16-0.05,0.34,0.02,0.43,0.16c0.09,0.14,0.07,0.33-0.04,0.45C163.42,63,158.02,68.88,154.94,68.88z
	 M162.07,63.31c-3.44,1.15-7.82,2.97-8.13,4.13c-0.02,0.08-0.03,0.18,0.09,0.3c0.23,0.26,0.51,0.39,0.89,0.39c0.01,0,0.02,0,0.02,0
	C156.82,68.13,160.13,65.24,162.07,63.31z"/>
<path class="st0" d="M162.52,74.76c-0.15,0-0.31-0.04-0.46-0.12c-3.21-1.43,0.69-11.11,1.14-12.21c0.07-0.16,0.23-0.25,0.4-0.23
	c0.17,0.03,0.3,0.17,0.32,0.34c0.15,1.81,0.83,10.89-0.89,12.06C162.87,74.71,162.7,74.76,162.52,74.76z M163.29,64.28
	c-1.4,3.86-2.6,8.94-0.91,9.69c0.14,0.07,0.19,0.04,0.23,0.02C163.47,73.39,163.53,68.4,163.29,64.28z"/>
<path class="st0" d="M172.53,46.6c-0.2,0-0.36-0.15-0.37-0.35c-0.36-6.75,1.25-11.63,4.81-14.5c3.6-2.92,8.93-3.83,16.29-2.79
	c0.8,0.11,1.6,0.27,2.36,0.42c2,0.4,3.89,0.77,5.9,0.43c2.3-0.31,4.28-1.73,5.3-3.8c1.42-2.68,0.88-6.06-1.19-7.53
	c-1.7-1.19-4.07-0.81-5.3,0.87c-0.95,1.27-0.69,3.08,0.57,4.03c1.09,0.77,2.53,0.54,3.27-0.48c0.56-0.76,0.4-1.84-0.36-2.4
	c-0.62-0.44-1.46-0.3-1.89,0.29c-0.15,0.21-0.22,0.46-0.18,0.72c0.04,0.25,0.18,0.48,0.38,0.63c0.33,0.23,0.77,0.16,1-0.16
	c0.12-0.17,0.36-0.2,0.52-0.08c0.17,0.12,0.21,0.36,0.09,0.52c-0.47,0.65-1.39,0.8-2.04,0.34c-0.38-0.28-0.63-0.68-0.7-1.13
	c-0.07-0.45,0.04-0.91,0.31-1.28c0.67-0.93,1.98-1.14,2.91-0.47c0.56,0.41,0.9,0.99,1,1.64c0.1,0.65-0.06,1.3-0.46,1.83
	c-0.98,1.34-2.89,1.66-4.25,0.69c0,0-0.08-0.05-0.08-0.06c-1.6-1.2-1.92-3.48-0.73-5.07c1.46-2,4.31-2.46,6.34-1.03
	c2.37,1.68,3.01,5.49,1.43,8.48c-1.12,2.29-3.32,3.86-5.85,4.2c-2.13,0.36-4.18-0.04-6.16-0.43c-0.76-0.15-1.54-0.31-2.32-0.42
	c-7.14-1.01-12.28-0.15-15.71,2.63c-3.36,2.72-4.88,7.39-4.53,13.88c0.01,0.21-0.15,0.38-0.35,0.39
	C172.54,46.6,172.54,46.6,172.53,46.6z"/>
<path class="st0" d="M224.82,147.54h-35.25c-0.18,0-0.34-0.13-0.37-0.31c-0.03-0.18,0.07-0.36,0.24-0.42
	c15.73-5.69,26.27-13.47,32.22-23.79c0.07-0.12,0.18-0.19,0.34-0.19c0.14,0.01,0.26,0.09,0.32,0.22c4.14,8.87,5.05,16.56,2.85,24.21
	C225.13,147.43,224.99,147.54,224.82,147.54z M191.65,146.79h32.88c1.99-7.19,1.17-14.45-2.59-22.77
	C216.1,133.77,206.17,141.23,191.65,146.79z"/>
<path class="st0" d="M286.47,56.96c-3.07,0-6.21-1.05-8.82-3.15c-2.69-2.14-4.47-5.18-5.01-8.57c-0.01-0.04-0.02-0.09-0.02-0.13
	c0-0.2,0.15-0.36,0.35-0.37c0.19-0.01,0.37,0.12,0.4,0.32c0,0,0,0.01,0,0.01c0.07,0.13,0.41,0.46,0.56,0.6
	c0.13,0.12,0.24,0.23,0.3,0.29c0.31,0.34,0.63,0.66,0.97,0.97c0.63,0.6,1.33,1.13,2.07,1.58c1.28,0.78,2.75,1.25,4.25,1.37
	c2.76,0.11,5.41-0.86,7.45-2.74s3.22-4.44,3.33-7.21l0-0.15c0-4.04-2.88-6.9-4.6-8.24c-0.95-0.73-1.97-1.39-3.03-1.97
	c-0.15-0.08-0.23-0.26-0.18-0.42c0.04-0.17,0.19-0.28,0.36-0.28c0.17,0,0.36,0,0.5-0.06c0.03-0.01,0.06-0.02,0.1-0.03
	c3.32-0.44,6.64,0.38,9.37,2.32c3.04,2.25,5.09,5.69,5.62,9.42c0.67,4.72-1.7,10.08-6.03,13.67
	C292.17,56.03,289.35,56.96,286.47,56.96z M273.66,46.44c0.72,2.67,2.27,5.04,4.46,6.78c4.78,3.83,11.43,3.99,15.82,0.36
	c4.14-3.42,6.4-8.52,5.77-12.99c-0.51-3.54-2.45-6.79-5.32-8.92c-2.44-1.74-5.4-2.53-8.38-2.23c0.75,0.45,1.47,0.94,2.16,1.47
	c1.83,1.43,4.89,4.47,4.89,8.84l0,0.18c-0.25,6.14-5.46,10.92-11.57,10.68c-1.62-0.13-3.21-0.64-4.59-1.47
	c-0.79-0.48-1.53-1.04-2.19-1.67C274.35,47.16,274,46.81,273.66,46.44C273.67,46.45,273.67,46.45,273.66,46.44z"/>
<path class="st0" d="M295.8,91.38c-0.09,0-0.18-0.03-0.25-0.1c-12.22-11.09-15.45-20.61-13.28-24.77c0.75-1.42,2.13-2.06,3.7-1.69
	c4.6,1.06,9.75,9.71,10.21,26.17c0,0.15-0.08,0.29-0.22,0.35C295.91,91.36,295.85,91.38,295.8,91.38z M285.1,65.46
	c-0.93,0-1.68,0.48-2.16,1.39c-0.98,1.88-0.58,5.16,1.09,8.77c2.07,4.51,6,9.5,11.37,14.49c-0.28-7.3-1.52-13.52-3.61-18.03
	c-1.67-3.62-3.91-6.06-5.99-6.55C285.56,65.49,285.32,65.46,285.1,65.46z"/>
<path class="st0" d="M323.81,146.8h-14.7c-1.67,0-3.03-1.36-3.03-3.02v-36.96c0-1.67,1.36-3.03,3.03-3.03h14.7
	c1.67,0,3.03,1.36,3.03,3.03v36.96C326.83,145.45,325.48,146.8,323.81,146.8z M309.11,104.54c-1.25,0-2.28,1.02-2.28,2.28v36.96
	c0,1.25,1.02,2.27,2.28,2.27h14.7c1.25,0,2.28-1.02,2.28-2.27v-36.96c0-1.25-1.02-2.28-2.28-2.28H309.11z"/>
<path class="st0" d="M316.46,145.67c-1.19,0-2.16-0.97-2.16-2.16c0-1.19,0.97-2.15,2.16-2.15s2.16,0.97,2.16,2.15
	C318.62,144.7,317.65,145.67,316.46,145.67z M316.46,142.11c-0.77,0-1.41,0.63-1.41,1.4s0.63,1.41,1.41,1.41s1.41-0.63,1.41-1.41
	S317.23,142.11,316.46,142.11z"/>
<g>
	<circle class="st0" cx="316.65" cy="106.08" r="0.42"/>
	<path class="st0" d="M316.65,106.88c-0.44,0-0.79-0.36-0.79-0.79s0.36-0.79,0.79-0.79s0.79,0.36,0.79,0.79
		S317.09,106.88,316.65,106.88z M316.65,106.04c-0.03,0-0.04,0.02-0.04,0.04L316.65,106.04z"/>
</g>
<g>
	<circle class="st0" cx="313.88" cy="107.71" r="0.27"/>
	<path class="st0" d="M313.88,108.36c-0.36,0-0.64-0.29-0.64-0.65s0.29-0.64,0.64-0.64s0.65,0.29,0.65,0.64
		S314.24,108.36,313.88,108.36z M313.88,107.61c-0.06,0-0.1,0.05-0.1,0.1c0,0.12,0.21,0.12,0.21,0
		C313.99,107.65,313.94,107.61,313.88,107.61z"/>
</g>
<g>
	<path class="st0" d="M315.22,107.5h2.89c0.12,0,0.21,0.09,0.21,0.21l0,0c0,0.12-0.09,0.21-0.21,0.21h-2.89
		c-0.12,0-0.21-0.09-0.21-0.21l0,0C315.01,107.59,315.1,107.5,315.22,107.5z"/>
	<path class="st0" d="M318.11,108.29h-2.89c-0.32,0-0.58-0.26-0.58-0.58s0.26-0.58,0.58-0.58h2.89c0.32,0,0.58,0.26,0.58,0.58
		S318.43,108.29,318.11,108.29z"/>
</g>
<path class="st0" d="M325.01,141.13h-17.1c-0.36,0-0.65-0.29-0.65-0.64v-30.46c0-0.36,0.29-0.65,0.65-0.65h17.1
	c0.36,0,0.65,0.29,0.65,0.65v30.46C325.66,140.85,325.37,141.13,325.01,141.13z M308.01,140.38h16.89v-30.25h-16.89V140.38z
	 M325.01,110.13L325.01,110.13L325.01,110.13z"/>
<path class="st0" d="M333.39,118.33c-0.07,0-0.14-0.02-0.21-0.06c-0.17-0.12-0.22-0.35-0.1-0.52c5.5-8.23,3.75-21.07-1.03-28.26
	c-3.12-4.69-7.28-6.79-11.7-5.92c-4.53,0.69-8.15,4.39-8.08,8.25c0.08,3.16,2.7,5.72,5.86,5.72c0.01,0,0.02,0,0.03,0
	c0,0,0.09,0,0.1,0c2.46-0.05,4.42-2.08,4.37-4.54c-0.04-2-1.66-3.58-3.62-3.58c-0.02,0-0.05,0-0.07,0
	c-0.79,0.01-1.46,0.31-1.97,0.83c-0.5,0.52-0.78,1.21-0.76,1.93c0.03,1.19,1,2.13,2.19,2.13c0.9,0,1.62-0.73,1.62-1.62
	c-0.01-0.68-0.61-1.25-1.26-1.22c0,0,0,0,0,0c-0.21,0-0.37-0.17-0.38-0.37c0-0.21,0.16-0.38,0.37-0.38c0.01,0,0.02,0,0.02,0
	c1.08,0,1.98,0.87,2,1.96c0,1.32-1.07,2.38-2.38,2.38c-1.61,0-2.9-1.26-2.94-2.86c-0.02-0.93,0.33-1.81,0.97-2.47
	c0.64-0.66,1.51-1.04,2.43-1.05c2.45-0.08,4.47,1.87,4.52,4.29c0.05,2.9-2.24,5.28-5.11,5.33l-0.11,0c-0.01,0-0.02,0-0.03,0
	c-3.56,0-6.53-2.89-6.61-6.46c-0.08-4.23,3.82-8.27,8.7-9.01c4.74-0.92,9.16,1.29,12.46,6.25c4.92,7.39,6.71,20.61,1.03,29.09
	C333.63,118.28,333.51,118.33,333.39,118.33z"/>
<path class="st0" d="M322.59,30.29c-0.47,0-0.94-0.12-1.41-0.39c-0.18-0.1-0.24-0.33-0.13-0.51c0.1-0.18,0.33-0.24,0.51-0.13
	c1.49,0.87,3.19-0.42,5.35-2.05c1.93-1.46,4.1-3.1,6.73-3.64c-4.18-3.53-9.73-2.68-12.28-0.59c-1.78,1.46-2.1,3.36-0.89,5.24
	c0.11,0.17,0.06,0.41-0.11,0.52c-0.17,0.11-0.41,0.06-0.52-0.11c-1.42-2.2-1.03-4.52,1.04-6.22c3.32-2.72,9.68-2.91,13.84,1.15
	c0.1,0.1,0.14,0.25,0.09,0.39c-0.05,0.14-0.17,0.23-0.31,0.25c-2.79,0.32-5.1,2.08-7.15,3.62
	C325.63,29.12,324.08,30.29,322.59,30.29z"/>
<path class="st0" d="M312.83,42.44c-0.02,0-0.04,0-0.06,0c-0.2-0.03-0.34-0.22-0.31-0.43c1.05-6.69,6.44-13.67,10.98-16.84
	c0.17-0.12,0.4-0.08,0.52,0.09c0.12,0.17,0.08,0.4-0.09,0.52c-4.41,3.08-9.64,9.86-10.67,16.34
	C313.17,42.31,313.01,42.44,312.83,42.44z"/>
<path class="st0" d="M315.13,35.85c-0.05,0-0.1-0.01-0.16-0.03c-0.19-0.09-0.27-0.31-0.19-0.5c2.54-5.6,0.83-8.78-1.39-11.38
	c-0.13-0.16-0.12-0.39,0.04-0.53c0.16-0.13,0.39-0.12,0.53,0.04c2.27,2.66,4.23,6.18,1.51,12.18
	C315.41,35.76,315.27,35.85,315.13,35.85z"/>
<path class="st0" d="M313.77,28.33c-2.21,0-3.54-2.03-4.74-3.84c-0.93-1.42-1.82-2.76-3.01-3.23c-0.13-0.05-0.23-0.18-0.24-0.32
	s0.06-0.28,0.19-0.35c3.95-2.22,8.7-0.81,10.66,1.91c1.24,1.72,1.07,3.57-0.46,4.97c-0.15,0.14-0.39,0.13-0.53-0.02
	c-0.14-0.15-0.13-0.39,0.03-0.53c1.24-1.13,1.37-2.57,0.36-3.97c-1.46-2.02-5.32-3.71-9.05-2.01c1.07,0.7,1.89,1.95,2.68,3.16
	c1.36,2.07,2.65,4.02,5.02,3.38c0.2-0.06,0.41,0.06,0.46,0.26c0.06,0.2-0.06,0.41-0.26,0.46C314.49,28.28,314.12,28.33,313.77,28.33
	z"/>
<path class="st0" d="M334.81,145.42c-0.08,0-0.16-0.03-0.23-0.08c-0.16-0.13-0.19-0.36-0.07-0.53l16.85-21.83
	c0.13-0.16,0.36-0.19,0.53-0.07s0.19,0.36,0.07,0.53l-16.85,21.83C335.03,145.38,334.92,145.42,334.81,145.42z"/>
<path class="st0" d="M347.7,128.71c-0.1,0-0.2-0.04-0.27-0.12c-0.14-0.15-0.13-0.39,0.02-0.53c1.5-1.4,3.54-2.14,5.59-2
	c0.21,0.01,0.36,0.19,0.35,0.4c-0.01,0.21-0.2,0.37-0.4,0.35c-1.86-0.12-3.68,0.54-5.03,1.8
	C347.88,128.68,347.79,128.71,347.7,128.71z"/>
<path class="st0" d="M344.07,133.42c-0.1,0-0.2-0.04-0.27-0.12c-0.14-0.15-0.13-0.39,0.02-0.53c1.5-1.4,3.55-2.14,5.59-2
	c0.21,0.01,0.36,0.19,0.35,0.4c-0.01,0.21-0.19,0.38-0.4,0.35c-1.87-0.11-3.68,0.54-5.03,1.8
	C344.25,133.39,344.16,133.42,344.07,133.42z"/>
<path class="st0" d="M347.7,128.71c-0.06,0-0.12-0.01-0.18-0.04c-0.18-0.1-0.25-0.33-0.15-0.51c0.88-1.62,1.05-3.56,0.47-5.31
	c-0.06-0.2,0.04-0.41,0.24-0.47c0.2-0.07,0.41,0.04,0.47,0.24c0.64,1.95,0.45,4.1-0.53,5.91
	C347.96,128.64,347.83,128.71,347.7,128.71z"/>
<path class="st0" d="M344.07,133.42c-0.06,0-0.12-0.01-0.18-0.04c-0.18-0.1-0.25-0.33-0.15-0.51c0.88-1.62,1.05-3.56,0.47-5.31
	c-0.06-0.2,0.04-0.41,0.24-0.47c0.19-0.06,0.41,0.04,0.47,0.24c0.64,1.95,0.45,4.1-0.53,5.91
	C344.33,133.35,344.2,133.42,344.07,133.42z"/>
<path class="st0" d="M342.05,136.05c-0.12,0-0.24-0.06-0.31-0.16c-2.97-4.38-3.33-9.57-0.93-13.54c2.75-4.56,8.51-6.69,15.81-5.87
	c0.21,0.02,0.35,0.21,0.33,0.42c-0.02,0.21-0.2,0.35-0.42,0.33c-7-0.79-12.49,1.22-15.08,5.52c-2.25,3.72-1.9,8.6,0.91,12.73
	c0.12,0.17,0.07,0.4-0.1,0.52C342.2,136.03,342.12,136.05,342.05,136.05z"/>
<path class="st0" d="M346.8,136.9c-0.27,0-0.55-0.01-0.82-0.02c-0.21-0.01-0.36-0.19-0.35-0.4c0.01-0.21,0.16-0.38,0.4-0.35
	c3.96,0.23,7.46-1.32,9.6-4.25c2.68-3.67,2.89-8.95,0.6-14.89c-0.08-0.19,0.02-0.41,0.21-0.48c0.19-0.08,0.41,0.02,0.48,0.21
	c2.39,6.18,2.14,11.72-0.69,15.6C354.08,135.25,350.68,136.9,346.8,136.9z"/>
<path class="st0" d="M357.44,67.21c-0.13,0-0.26-0.07-0.33-0.2l-7.46-14.15c-0.1-0.18-0.03-0.41,0.16-0.51
	c0.18-0.1,0.41-0.03,0.51,0.16l7.46,14.15c0.1,0.18,0.03,0.41-0.16,0.51C357.56,67.2,357.5,67.21,357.44,67.21z"/>
<path class="st0" d="M350.11,62.3c-4.03,0-5.93-3.45-7.79-6.8c-1.41-2.55-2.74-4.97-4.96-5.93c-0.15-0.06-0.24-0.22-0.22-0.38
	c0.01-0.16,0.13-0.29,0.29-0.33l0.22-0.05c3.85-0.92,7.83-1.87,12.63,3.63c0.14,0.16,0.12,0.39-0.04,0.53
	c-0.16,0.14-0.39,0.12-0.53-0.04c-4.21-4.82-7.62-4.39-11.15-3.57c1.92,1.25,3.19,3.54,4.42,5.77c2.36,4.28,4.59,8.32,11.19,5.41
	c0.19-0.08,0.41,0,0.49,0.19c0.08,0.19,0,0.41-0.19,0.49C352.78,61.98,351.35,62.3,350.11,62.3z"/>
<path class="st0" d="M349.98,53.06c-0.17,0-0.32-0.11-0.36-0.28c-1.84-7.15,1.25-9.9,4.24-12.56l0.07-0.06
	c0.16-0.14,0.39-0.12,0.53,0.03c0.14,0.15,0.12,0.39-0.03,0.53l-0.07,0.06c-2.95,2.63-5.74,5.11-4.01,11.81
	c0.05,0.2-0.07,0.41-0.27,0.46C350.04,53.06,350.01,53.06,349.98,53.06z"/>
<path class="st0" d="M341.92,48.87c-0.11,0-0.22-0.05-0.29-0.14c-0.13-0.16-0.1-0.4,0.06-0.53c1.79-1.42,2.71-3.7,2.38-5.96
	c-0.03-0.21,0.11-0.4,0.32-0.42c0.2-0.04,0.39,0.11,0.42,0.32c0.36,2.53-0.66,5.08-2.66,6.66C342.08,48.84,342,48.87,341.92,48.87z"
	/>
<path class="st0" d="M349.04,44.35c-1.77,0-3.52-0.66-4.86-1.89c-0.15-0.14-0.16-0.38-0.02-0.53c0.14-0.15,0.38-0.16,0.53-0.02
	c1.68,1.55,4.08,2.08,6.26,1.4c0.2-0.06,0.41,0.05,0.47,0.25c0.06,0.2-0.05,0.41-0.25,0.47C350.48,44.24,349.76,44.35,349.04,44.35z
	"/>
<circle class="st0" cx="32.62" cy="110.09" r="1.4"/>
<circle class="st0" cx="33.51" cy="100.17" r="1.4"/>
<circle class="st0" cx="30.72" cy="90.62" r="1.4"/>
<circle class="st0" cx="25.78" cy="82.96" r="1.4"/>
<circle class="st0" cx="84.14" cy="17.7" r="1.4"/>
<circle class="st0" cx="90.56" cy="26.04" r="1.4"/>
<circle class="st0" cx="94.55" cy="34.78" r="1.4"/>
<circle class="st0" cx="127.55" cy="18.31" r="1.4"/>
<circle class="st0" cx="134.41" cy="11.09" r="1.4"/>
<circle class="st0" cx="143.42" cy="6.88" r="1.4"/>
<circle class="st0" cx="143.37" cy="95.07" r="1.21"/>
<circle class="st0" cx="186.62" cy="110.09" r="1.4"/>
<circle class="st0" cx="187.51" cy="100.17" r="1.4"/>
<circle class="st0" cx="184.72" cy="90.62" r="1.4"/>
<circle class="st0" cx="179.78" cy="82.96" r="1.4"/>
<circle class="st0" cx="238.14" cy="17.7" r="1.4"/>
<circle class="st0" cx="244.56" cy="26.04" r="1.4"/>
<circle class="st0" cx="248.55" cy="34.78" r="1.4"/>
<circle class="st0" cx="281.55" cy="18.31" r="1.4"/>
<circle class="st0" cx="288.41" cy="11.09" r="1.4"/>
<circle class="st0" cx="297.42" cy="6.88" r="1.4"/>
<circle class="st0" cx="297.37" cy="95.07" r="1.21"/>
<circle class="st0" cx="343.62" cy="110.09" r="1.4"/>
<circle class="st0" cx="344.51" cy="100.17" r="1.4"/>
<circle class="st0" cx="341.72" cy="90.62" r="1.4"/>
<circle class="st0" cx="336.78" cy="82.96" r="1.4"/>
<path class="st0" d="M328.25,69.23c-2.82,0-7.7-5.77-8.25-6.43c-0.11-0.13-0.12-0.31-0.02-0.45c0.09-0.14,0.27-0.2,0.43-0.15
	c0.89,0.29,8.69,2.89,9.43,5.19c0.13,0.4,0.06,0.78-0.18,1.12c-0.31,0.44-0.77,0.69-1.32,0.72
	C328.31,69.23,328.28,69.23,328.25,69.23z M321.5,63.37c1.84,2.03,5.01,5.11,6.75,5.11c0.02,0,0.04,0,0.06,0
	c0.32-0.01,0.56-0.14,0.74-0.41c0.11-0.15,0.13-0.28,0.08-0.45C328.71,66.35,324.66,64.52,321.5,63.37z"/>
<path class="st0" d="M329.41,65.45c-3.46,0-8.96-2.41-9.23-2.53c-0.16-0.07-0.25-0.24-0.22-0.41c0.03-0.17,0.17-0.3,0.34-0.31
	c1.75-0.14,10.55-0.75,11.75,0.99c0.2,0.29,0.22,0.65,0.06,1c-0.19,0.46-0.57,0.8-1.11,1.02C330.56,65.37,330.02,65.45,329.41,65.45
	z M321.98,62.84c2.34,0.91,6.82,2.43,8.75,1.66c0.35-0.14,0.58-0.34,0.7-0.63c0.07-0.15,0.04-0.21,0.01-0.26
	C330.82,62.72,325.97,62.62,321.98,62.84z"/>
<path class="st0" d="M325.17,73.19c-0.1,0-0.19-0.01-0.27-0.04c-2.09-0.55-4.59-8.72-5.07-10.35c-0.05-0.16,0.02-0.34,0.17-0.43
	c0.14-0.09,0.33-0.07,0.45,0.05c0.25,0.24,6.07,5.92,6.02,9.04c-0.01,0.58-0.21,1.06-0.6,1.41
	C325.64,73.12,325.39,73.19,325.17,73.19z M321.02,64.07c1.15,3.55,2.95,8.07,4.08,8.36c0.07,0.02,0.15,0.03,0.27-0.09
	c0.24-0.22,0.36-0.51,0.37-0.88C325.76,69.55,322.93,66.11,321.02,64.07z"/>
<path class="st0" d="M320.68,63.27c-0.03,0-0.06,0-0.08-0.01c-0.88-0.2-8.67-2.05-9.67-4.54c-0.2-0.49-0.14-0.99,0.16-1.44
	c0.21-0.34,0.55-0.55,0.97-0.6c2.51-0.29,8.24,5.31,8.88,5.96c0.12,0.12,0.14,0.3,0.06,0.45C320.94,63.19,320.81,63.27,320.68,63.27
	z M312.29,57.4c-0.05,0-0.1,0-0.14,0.01c-0.2,0.02-0.33,0.1-0.43,0.26c-0.17,0.26-0.2,0.5-0.1,0.76c0.61,1.51,5.01,3,7.77,3.74
	C317.34,60.28,313.89,57.4,312.29,57.4z"/>
<path class="st0" d="M320.65,63.23c-0.08,0-0.17-0.03-0.23-0.08c-0.27-0.21-6.55-5.28-6.72-8.34c-0.03-0.58,0.15-1.07,0.53-1.45
	c0.27-0.29,0.61-0.4,0.99-0.33c2.17,0.43,5.2,8.15,5.79,9.69c0.06,0.16,0.01,0.34-0.13,0.44C320.81,63.2,320.73,63.23,320.65,63.23z
	 M315,53.75c-0.07,0-0.15,0.03-0.24,0.12c-0.24,0.24-0.34,0.52-0.32,0.89c0.1,1.86,3.23,5.01,5.3,6.83
	c-1.38-3.35-3.49-7.6-4.68-7.84C315.05,53.76,315.02,53.75,315,53.75z"/>
<path class="st0" d="M312.45,64.13c-1.85,0-3.4-0.2-3.89-0.82c-0.22-0.27-0.26-0.62-0.12-0.98c1.22-3.3,11.14-0.06,12.27,0.31
	c0.16,0.06,0.27,0.21,0.25,0.39s-0.15,0.31-0.32,0.34C319.52,63.55,315.56,64.13,312.45,64.13z M311.81,61.61
	c-1.38,0-2.4,0.28-2.67,0.99c-0.06,0.16-0.02,0.21,0,0.24c0.67,0.84,5.65,0.56,9.75,0.02C316.56,62.19,313.8,61.61,311.81,61.61z"/>
<path class="st0" d="M320.75,13.58c-0.08,0-0.15-0.02-0.22-0.07l-2.28-1.62c-0.11-0.08-0.17-0.21-0.16-0.34l0.26-2.79
	c0.01-0.13,0.09-0.25,0.22-0.31l2.54-1.17c0.12-0.06,0.26-0.04,0.37,0.04l2.28,1.62c0.11,0.08,0.17,0.21,0.16,0.34l-0.25,2.78
	c-0.01,0.13-0.09,0.25-0.22,0.31l-2.55,1.18C320.86,13.56,320.8,13.58,320.75,13.58z M318.86,11.4l1.93,1.37l2.16-1l0.21-2.35
	l-1.93-1.37l-2.15,0.99L318.86,11.4z"/>
<path class="st0" d="M332.69,12.33c-0.08,0-0.15-0.02-0.22-0.07l-3.26-2.31c-0.11-0.08-0.17-0.21-0.16-0.34l0.36-3.98
	c0.01-0.13,0.09-0.25,0.22-0.31l3.64-1.68c0.12-0.06,0.26-0.04,0.37,0.03l3.26,2.31c0.11,0.08,0.17,0.21,0.16,0.34l-0.36,3.99
	c-0.01,0.13-0.09,0.25-0.22,0.31l-3.64,1.67C332.8,12.32,332.74,12.33,332.69,12.33z M329.82,9.47l2.91,2.06l3.25-1.49l0.32-3.56
	l-2.91-2.06l-3.25,1.5L329.82,9.47z"/>
<path class="st0" d="M348.56,15.08c-0.08,0-0.15-0.02-0.22-0.07l-4.69-3.32c-0.11-0.08-0.17-0.21-0.16-0.34l0.53-5.72
	c0.01-0.13,0.09-0.25,0.22-0.31l5.21-2.4c0.12-0.06,0.26-0.04,0.37,0.03l4.69,3.31c0.11,0.08,0.17,0.21,0.16,0.34l-0.52,5.72
	c-0.01,0.13-0.09,0.25-0.22,0.31l-5.22,2.41C348.67,15.06,348.61,15.08,348.56,15.08z M344.26,11.2l4.34,3.07l4.83-2.23l0.48-5.29
	l-4.34-3.06l-4.82,2.22L344.26,11.2z"/>
<path class="st0" d="M310.14,15.25c-0.08,0-0.15-0.02-0.22-0.07l-1.42-1c-0.11-0.08-0.17-0.21-0.16-0.34l0.16-1.73
	c0.01-0.13,0.09-0.25,0.22-0.31l1.58-0.73c0.12-0.06,0.26-0.04,0.37,0.03l1.42,1c0.11,0.08,0.17,0.21,0.16,0.34l-0.16,1.73
	c-0.01,0.13-0.09,0.25-0.22,0.31l-1.58,0.73C310.25,15.23,310.19,15.25,310.14,15.25z M309.11,13.69l1.07,0.75l1.19-0.55l0.12-1.3
	l-1.07-0.75l-1.19,0.55L309.11,13.69z"/>
<path class="st0" d="M320.07,63.23c-0.08,0-0.16-0.03-0.23-0.08c-0.13-0.1-0.18-0.28-0.12-0.43c0.35-0.87,3.45-8.5,5.79-9.08
	c0.4-0.1,0.78-0.01,1.1,0.26c0.42,0.34,0.65,0.81,0.64,1.36c-0.06,2.81-6.25,7.38-6.96,7.89C320.22,63.2,320.15,63.23,320.07,63.23z
	 M325.83,54.34c-0.04,0-0.09,0.01-0.13,0.02c-1.29,0.32-3.39,4.26-4.74,7.34c2.17-1.72,5.51-4.73,5.54-6.46
	c0.01-0.32-0.11-0.57-0.36-0.77C326.03,54.38,325.94,54.34,325.83,54.34z"/>
<path class="st0" d="M320.07,63.17c-0.03,0-0.06,0-0.09-0.01c-0.17-0.04-0.29-0.19-0.29-0.36c-0.03-1.76-0.06-10.57,1.76-11.66
	c0.31-0.18,0.66-0.18,1,0c0.45,0.23,0.77,0.62,0.95,1.18c0.97,3.03-2.83,10.34-3,10.65C320.34,63.1,320.21,63.17,320.07,63.17z
	 M321.93,51.76c-0.04,0-0.07,0.01-0.09,0.03c-0.93,0.56-1.35,5.39-1.39,9.39c1.06-2.28,2.88-6.64,2.24-8.62
	c-0.12-0.36-0.31-0.6-0.58-0.74C322.03,51.77,321.97,51.76,321.93,51.76z"/>
<path class="st0" d="M320.19,63.31c-0.14,0-0.27-0.08-0.33-0.2c-0.08-0.15-0.04-0.34,0.08-0.45c0.26-0.23,6.31-5.7,9.42-5.41
	c0.58,0.05,1.04,0.28,1.37,0.69c0.32,0.37,0.29,0.74,0.21,0.99c-0.68,2.05-9.01,4-10.67,4.37
	C320.25,63.31,320.22,63.31,320.19,63.31z M329.13,57.99c-1.94,0-5.42,2.5-7.52,4.23c3.62-0.91,8.25-2.41,8.62-3.52
	c0.02-0.07,0.04-0.15-0.08-0.28c-0.21-0.26-0.48-0.39-0.85-0.42C329.25,57.99,329.19,57.99,329.13,57.99z"/>
<path class="st0" d="M315.13,72.02c-0.33,0-0.66-0.12-0.95-0.34c-0.32-0.23-0.51-0.58-0.54-1.01c-0.13-2.52,5.84-7.86,6.52-8.46
	c0.13-0.11,0.31-0.12,0.45-0.03c0.14,0.09,0.21,0.26,0.16,0.42c-0.26,0.87-2.61,8.54-5.16,9.36C315.45,72,315.29,72.02,315.13,72.02
	z M319.62,63.71c-2.09,1.98-5.31,5.37-5.23,6.91c0.01,0.2,0.08,0.34,0.24,0.45c0.25,0.19,0.49,0.24,0.75,0.16
	C316.93,70.73,318.69,66.42,319.62,63.71z"/>
<path class="st0" d="M311.94,68.88c-0.01,0-0.02,0-0.03,0c-0.59-0.01-1.08-0.22-1.44-0.64c-0.27-0.28-0.36-0.63-0.26-1
	c0.56-2.12,8.47-4.62,10.05-5.1c0.16-0.05,0.34,0.02,0.43,0.16c0.09,0.14,0.07,0.33-0.04,0.45C320.42,63,315.02,68.88,311.94,68.88z
	 M319.07,63.31c-3.44,1.15-7.82,2.97-8.13,4.13c-0.02,0.08-0.03,0.18,0.09,0.3c0.23,0.26,0.51,0.39,0.89,0.39c0.01,0,0.01,0,0.02,0
	C313.82,68.13,317.13,65.24,319.07,63.31z"/>
<path class="st0" d="M319.52,74.76c-0.15,0-0.31-0.04-0.46-0.12c-3.21-1.43,0.69-11.11,1.14-12.21c0.07-0.16,0.23-0.26,0.4-0.23
	c0.17,0.03,0.3,0.17,0.32,0.34c0.15,1.81,0.83,10.88-0.89,12.06C319.87,74.71,319.7,74.76,319.52,74.76z M320.29,64.28
	c-1.4,3.86-2.6,8.94-0.91,9.69c0.15,0.07,0.19,0.04,0.23,0.02C320.47,73.39,320.53,68.4,320.29,64.28z"/>
<path class="st0" d="M329.53,46.6c-0.2,0-0.36-0.15-0.37-0.35c-0.37-6.75,1.25-11.63,4.81-14.5c3.6-2.92,8.93-3.83,16.29-2.79
	c0.8,0.11,1.6,0.27,2.36,0.42c2,0.4,3.9,0.77,5.9,0.43c2.3-0.31,4.28-1.73,5.3-3.8c1.42-2.68,0.88-6.06-1.19-7.53
	c-1.7-1.19-4.08-0.81-5.3,0.87c-0.95,1.27-0.69,3.08,0.57,4.03c1.09,0.77,2.53,0.54,3.27-0.48c0.56-0.76,0.4-1.84-0.36-2.4
	c-0.62-0.44-1.46-0.3-1.89,0.29c-0.15,0.21-0.22,0.46-0.18,0.72c0.04,0.25,0.18,0.48,0.38,0.63c0.33,0.23,0.77,0.16,1-0.16
	c0.12-0.17,0.36-0.2,0.52-0.08c0.17,0.12,0.21,0.36,0.09,0.52c-0.47,0.65-1.39,0.8-2.04,0.34c-0.38-0.28-0.63-0.68-0.7-1.13
	c-0.07-0.45,0.04-0.91,0.31-1.28c0.67-0.93,1.98-1.14,2.91-0.47c0.56,0.41,0.9,0.99,1,1.64c0.1,0.65-0.06,1.3-0.46,1.83
	c-0.98,1.35-2.89,1.66-4.25,0.69c0,0-0.08-0.05-0.08-0.06c-1.6-1.2-1.92-3.48-0.73-5.07c1.46-2,4.31-2.46,6.34-1.03
	c2.37,1.68,3.01,5.49,1.43,8.48c-1.12,2.29-3.32,3.86-5.85,4.2c-2.13,0.36-4.18-0.04-6.16-0.43c-0.76-0.15-1.54-0.31-2.32-0.42
	c-7.14-1.01-12.28-0.15-15.71,2.63c-3.36,2.72-4.88,7.39-4.53,13.88c0.01,0.21-0.15,0.38-0.35,0.39
	C329.54,46.6,329.54,46.6,329.53,46.6z"/>
</svg>
