<svg id="Layer_1" data-name="Layer 1" xmlns="http://www.w3.org/2000/svg" viewBox="0 0 350 150"><defs><style>.cls-1,.cls-2,.cls-4{fill:none;}.cls-1,.cls-2,.cls-4,.cls-5,.cls-6{stroke:#03e2b7;}.cls-1,.cls-2{stroke-linecap:round;stroke-linejoin:round;}.cls-1{stroke-width:0.4px;}.cls-2,.cls-4{stroke-width:0.5px;}.cls-3,.cls-5,.cls-6{fill:#03e2b7;}.cls-4,.cls-5,.cls-6{stroke-miterlimit:10;}.cls-6{stroke-width:0;}</style></defs><title>bg</title><path class="cls-1" d="M64.21,106.82c6.39-7.23,6.05-14.42-8.55-21.52C49.91,100.49,54.61,106,64.21,106.82Z"/><path class="cls-1" d="M62.46,89.31c-1.24-1.72-1.34-3.36,2-5.5-2.95,6.08,20.83,12.71-.11,23"/><path class="cls-1" d="M53.22,94.82c-.11-3-.76-5.11-5.55-4.09C54.06,93,41.88,114.44,64,106.92"/><path class="cls-1" d="M60.87,110.46c-2,4.94,2,7.33,9.27,8.29"/><path class="cls-1" d="M69.89,106.74a43.07,43.07,0,0,1-9,3.72"/><path class="cls-1" d="M69.88,106.75c4.87,2.11,3.37,6.41.26,12"/><path class="cls-1" d="M73.12,110.93c5.06,1.85,5.26-2.59,9.55-3.47-3.64-5-6.46-4.9-9.14-3.92a16.34,16.34,0,0,1-3.83,3.31"/><path class="cls-1" d="M61.34,115.79c-2.28,4.89-5.55,1.88-9.21,4.29-.94-6.1,1.12-8,3.71-9.24a16.14,16.14,0,0,0,5-.35"/><path class="cls-1" d="M27.81,38.32C11,54.42-1.82,69.1-1.39,80.05"/><path class="cls-1" d="M26.19,39.83s-2.83.21-3-.53,2.62-1.46,2.62-1.46S23.71,36,24.14,35.38s2.89.83,2.89.83-.22-2.84.52-3S29,35.87,29,35.87s1.85-2.15,2.46-1.71S30.65,37,30.65,37s2.83-.21,3,.53S31,39,31,39s2.15,1.85,1.72,2.46-2.89-.82-2.89-.82.22,2.83-.52,3S27.83,41,27.83,41"/><path class="cls-1" d="M20.68,45.41s4.47-.52,4.71.65-4.06,2.47-4.06,2.47,3.52,2.8,2.87,3.79-4.62-1.12-4.62-1.12.52,4.47-.65,4.71-2.47-4.06-2.47-4.06"/><path class="cls-1" d="M20.71,45.37s.5-4.48-.66-4.71-2.46,4.07-2.46,4.07-2.81-3.52-3.8-2.86,1.14,4.62,1.14,4.62-4.47-.5-4.71.66,4.08,2.46,4.08,2.46"/><path class="cls-1" d="M9.93,57s4.81-1.23,5.25,0-4.08,3.3-4.08,3.3,4.27,2.53,3.71,3.71-5.22-.54-5.22-.54,1.23,4.81,0,5.24-3.3-4.07-3.3-4.07"/><path class="cls-1" d="M9.84,57.12s.2-5-1.1-5.13-2.38,4.67-2.38,4.67S3,53,2,53.82s1.62,5,1.62,5-4.95-.19-5.12,1.11,4.67,2.38,4.67,2.38"/><path class="cls-1" d="M64.32,38c18.17.49,26.7,10.53,27.79,27.94"/><path class="cls-1" d="M74.26,39.51c-12.71,4.37-3.89,16.69,1.26.4"/><path class="cls-1" d="M73,39c-7.88-10.89,6.42-15.88,1.27.4"/><path class="cls-1" d="M83.49,44.62c-13.43-.45-9.58,14.2,1,.83"/><path class="cls-1" d="M89.19,52.7c-12.87-3.57-12.66,11.35.55,1.25"/><path class="cls-1" d="M67.27,38.2C54.73,43.05,64,55,68.55,38.55"/><path class="cls-1" d="M64.32,38c-16-8.89-14.22,9.84,0,0"/><path class="cls-1" d="M66.64,38.06c-11.28-7.3.25-17.13,1.33-.08"/><path class="cls-1" d="M81,42.51c-4.81-12.54,10.29-13.69,1.12.72"/><path class="cls-1" d="M86,47.18c-3.27-12.07,11.09-12,1.29,1.52"/><path class="cls-1" d="M89.71,53.68c2.44-13.21,15.92-6.33.59,1.2"/><path class="cls-1" d="M28.64,112.66c-1.2,19.23-13,15.15-20.35,22.86"/><path class="cls-1" d="M6.71,134l-.9-.86c15.44-24.37-18.19-24.93-7.53-10.41,3.47-6.47,12,2,6.25,9.18-2.79-.81-3.86-.06-2.63,2.8-.76.58-2.18,1.71-3.21,1.11-.76-.44-.86-1.38-1.33-2a1.72,1.72,0,0,0-1.79-.65,1.73,1.73,0,0,0-1.23,1.49,2.78,2.78,0,0,0,.86,1.94,4.42,4.42,0,0,0,3.23,1.33,7,7,0,0,0,4.63-2.09l.86.89A8.78,8.78,0,0,1-3,139.38a3.23,3.23,0,0,0,.27,2.94A5.18,5.18,0,0,0-4,146.76"/><path class="cls-1" d="M28.64,112.66c-19.16,2-14.56,13.66-21.93,21.35"/><path class="cls-1" d="M8.29,135.52l.89.86c23.66-16.51,25.71,17.06,10.74,7.06,6.3-3.76-2.5-11.86-9.45-5.84.93,2.75.23,3.85-2.68,2.75-.55.79-1.61,2.25-1,3.26.48.73,1.42.79,2.1,1.24a1.67,1.67,0,0,1-.7,3.05,2.81,2.81,0,0,1-2-.78A4.43,4.43,0,0,1,4.76,144a7.1,7.1,0,0,1,1.88-4.72l-.92-.82a8.79,8.79,0,0,0-2.37,7,3.24,3.24,0,0,1-2.95-.15A5.15,5.15,0,0,1-4,146.76"/><path class="cls-1" d="M86.36,19.09c-7.18,3.7-47,.67-49.64,2.89a1,1,0,0,0-1.44-.23,8.14,8.14,0,0,0,2,5.17c.17.76.07,1.2-.54,1.08A11.43,11.43,0,0,1,34,21.22a29.39,29.39,0,0,0-10.18-1c-6.32-1.57-5.05,2.72-8.42-.81a.37.37,0,0,1,0-.56c3.37-3.53,2.1.76,8.42-.82A29.13,29.13,0,0,0,34,17a11.43,11.43,0,0,1,2.77-6.78c.61-.13.71.32.54,1.07a8.14,8.14,0,0,0-2,5.17,1,1,0,0,0,1.44-.22c2.6,2.22,42.46-.81,49.64,2.89"/><path class="cls-1" d="M32.56,20.86a5,5,0,0,1,0-3.54"/><path class="cls-1" d="M23.78,20.18a2.55,2.55,0,0,1,0-2.19"/><path class="cls-2" d="M18.14,82.18a1.65,1.65,0,0,0,1.22,1.95,2,2,0,0,0,2.38-1.52,2.55,2.55,0,0,0-1.89-3,3.08,3.08,0,0,0-3.73,2.36,4,4,0,0,0,3,4.75A4.85,4.85,0,0,0,24.91,83a6.24,6.24,0,0,0-4.63-7.41c-4.12-1-8.57,2.08-10.21,6.37-5.5,12.84,13.16,28,28.36,14.93"/><path class="cls-3" d="M119.77,10.06l-3.14-2.8a.25.25,0,1,1,.33-.37h0l3,2.94a.14.14,0,0,1,0,.21A.15.15,0,0,1,119.77,10.06Z"/><path class="cls-3" d="M122.43,10l2.8-3.15a.25.25,0,0,1,.35,0,.26.26,0,0,1,0,.36h0l-2.94,3a.14.14,0,0,1-.21,0A.15.15,0,0,1,122.43,10Z"/><path class="cls-3" d="M120.19,12.8l-2.8,3.14a.25.25,0,1,1-.37-.33h0l2.94-3a.15.15,0,0,1,.22.21Z"/><path class="cls-3" d="M122.64,12.32l3.15,2.8a.25.25,0,0,1,0,.35.26.26,0,0,1-.36,0h0l-3-2.94a.15.15,0,0,1,.21-.22Z"/><path class="cls-3" d="M121.16,9.32l-.09-4.21a.23.23,0,0,1,.24-.25.25.25,0,0,1,.26.24h0l-.1,4.21a.15.15,0,0,1-.16.15A.15.15,0,0,1,121.16,9.32Z"/><path class="cls-3" d="M121.47,13.06l.1,4.21a.26.26,0,0,1-.25.26.25.25,0,0,1-.25-.25h0l.09-4.21a.16.16,0,0,1,.16-.15A.16.16,0,0,1,121.47,13.06Z"/><path class="cls-4" d="M46.23,133c-.55.66-3.23-1.18-3.23-1.18s0,3.25-.85,3.33S40.71,132,40.71,132s-2.3,2.3-3,1.75,1.19-3.22,1.19-3.22-3.25,0-3.33-.85,3.12-1.45,3.12-1.45-2.31-2.29-1.76-3,3.23,1.18,3.23,1.18,0-3.25.85-3.33,1.44,3.12,1.44,3.12,2.29-2.31,3-1.76-1.19,3.23-1.19,3.23,3.25,0,3.33.85S44.47,130,44.47,130,46.78,132.33,46.23,133Z"/><polygon class="cls-2" points="1.21 37.11 -1.1 38.68 -3.62 37.47 -3.83 34.67 -1.51 33.1 1 34.32 1.21 37.11"/><polygon class="cls-2" points="4.24 25.49 0.93 27.74 -2.67 26 -2.97 22.02 0.34 19.77 3.94 21.5 4.24 25.49"/><polygon class="cls-2" points="12.36 11.59 7.61 14.82 2.44 12.32 2.02 6.6 6.76 3.37 11.94 5.86 12.36 11.59"/><path class="cls-3" d="M128.68,23.29l-1.9-1.64a.25.25,0,0,1,0-.35.24.24,0,0,1,.35,0l0,0,1.76,1.77a.16.16,0,0,1,0,.22A.15.15,0,0,1,128.68,23.29Z"/><path class="cls-3" d="M130.25,23.13l1.64-1.89a.24.24,0,0,1,.35,0,.25.25,0,0,1,0,.35l0,0-1.77,1.76a.16.16,0,0,1-.22,0A.15.15,0,0,1,130.25,23.13Z"/><path class="cls-3" d="M129,24.91l-1.64,1.89a.24.24,0,0,1-.35,0,.25.25,0,0,1,0-.36h0l1.77-1.76a.16.16,0,0,1,.22,0A.15.15,0,0,1,129,24.91Z"/><path class="cls-3" d="M130.47,24.53l1.89,1.64a.24.24,0,0,1,0,.35.25.25,0,0,1-.36,0v0l-1.76-1.77a.16.16,0,0,1,0-.22A.17.17,0,0,1,130.47,24.53Z"/><path class="cls-3" d="M129.48,22.8l-.09-2.5a.25.25,0,0,1,.24-.26.25.25,0,0,1,.26.24v0l-.1,2.5a.15.15,0,0,1-.16.15A.16.16,0,0,1,129.48,22.8Z"/><path class="cls-3" d="M129.79,25l.1,2.5a.25.25,0,0,1-.24.26.24.24,0,0,1-.26-.24v0l.09-2.5a.15.15,0,0,1,.16-.14A.15.15,0,0,1,129.79,25Z"/><path class="cls-3" d="M133.17,13.72l-1.6-1.35a.25.25,0,1,1,.33-.38h0l1.47,1.5a.16.16,0,0,1,0,.22A.15.15,0,0,1,133.17,13.72Z"/><path class="cls-3" d="M134.49,13.56l1.36-1.6a.25.25,0,1,1,.38.33h0l-1.49,1.47a.16.16,0,0,1-.22,0A.15.15,0,0,1,134.49,13.56Z"/><path class="cls-3" d="M133.49,15.08l-1.36,1.6a.25.25,0,1,1-.38-.32l0,0,1.49-1.47a.16.16,0,0,1,.22,0A.14.14,0,0,1,133.49,15.08Z"/><path class="cls-3" d="M134.71,14.74l1.59,1.35a.25.25,0,0,1,0,.36.26.26,0,0,1-.35,0l0,0L134.5,15a.16.16,0,0,1,0-.22A.15.15,0,0,1,134.71,14.74Z"/><path class="cls-3" d="M133.84,13.3l-.1-2.09a.26.26,0,0,1,.24-.27.25.25,0,0,1,.26.24v0l-.09,2.09a.17.17,0,0,1-.16.15A.16.16,0,0,1,133.84,13.3Z"/><path class="cls-3" d="M134.15,15.16l.09,2.1a.25.25,0,0,1-.24.26.25.25,0,0,1-.26-.24v0l.1-2.1A.14.14,0,0,1,134,15,.16.16,0,0,1,134.15,15.16Z"/><circle class="cls-2" cx="60.74" cy="66.07" r="8.04"/><circle class="cls-2" cx="60.74" cy="66.07" r="3.94"/><path class="cls-3" d="M48.65,5.36,46.42,7.89a.25.25,0,0,1-.37-.33h0l2.37-2.4a.14.14,0,0,1,.21,0A.17.17,0,0,1,48.65,5.36Z"/><path class="cls-3" d="M50.62,4.93l2.53,2.23a.25.25,0,1,1-.33.37h0l-2.4-2.37a.16.16,0,0,1,0-.22A.17.17,0,0,1,50.62,4.93Z"/><path class="cls-3" d="M49.68,5.55l.1,3.37a.25.25,0,1,1-.5,0h0l.1-3.37a.15.15,0,0,1,.3,0Z"/><path class="cls-3" d="M61.76,5.35,59.53,7.88a.23.23,0,0,1-.35,0,.24.24,0,0,1,0-.35h0l2.37-2.4a.16.16,0,0,1,.22,0A.15.15,0,0,1,61.76,5.35Z"/><path class="cls-3" d="M63.72,4.92l2.53,2.23a.25.25,0,0,1,0,.36.26.26,0,0,1-.36,0h0l-2.4-2.37a.16.16,0,0,1,0-.22A.15.15,0,0,1,63.72,4.92Z"/><path class="cls-3" d="M62.79,5.54l.1,3.38a.25.25,0,0,1-.25.25.24.24,0,0,1-.25-.24h0l.09-3.38a.17.17,0,0,1,.16-.15A.16.16,0,0,1,62.79,5.54Z"/><path class="cls-3" d="M74.69,5.35,72.46,7.88a.25.25,0,0,1-.36,0,.25.25,0,0,1,0-.35h0l2.37-2.4a.16.16,0,0,1,.22,0A.15.15,0,0,1,74.69,5.35Z"/><path class="cls-3" d="M76.65,4.92l2.53,2.23a.26.26,0,0,1,0,.36.25.25,0,0,1-.35,0h0l-2.4-2.37a.16.16,0,0,1,0-.22A.15.15,0,0,1,76.65,4.92Z"/><path class="cls-3" d="M75.72,5.54l.09,3.38a.24.24,0,0,1-.24.25.25.25,0,0,1-.26-.24h0l.1-3.38a.16.16,0,0,1,.16-.15A.16.16,0,0,1,75.72,5.54Z"/><path class="cls-1" d="M85.12,82.1s4.21,5.06,5.38,3.39C91.49,84.17,85.12,82.1,85.12,82.1Z"/><path class="cls-1" d="M85.15,82.1s6,2.67,6.78.86C92.61,81.51,85.15,82.1,85.15,82.1Z"/><path class="cls-1" d="M85.07,82.18s4.69,4.54,3.22,5.87C87.13,89.19,85.07,82.18,85.07,82.18Z"/><path class="cls-1" d="M85.36,82.29s-6.62-1.51-5.5-3.2C80.72,77.69,85.36,82.29,85.36,82.29Z"/><path class="cls-1" d="M85.34,82.27s-5.06-4.06-3.65-5.47C82.81,75.61,85.34,82.27,85.34,82.27Z"/><path class="cls-1" d="M85.3,82.37s-6.32-2.13-7-.32C77.71,83.52,85.3,82.37,85.3,82.37Z"/><path class="cls-1" d="M85,82.27s5.33-3.87,3.74-5.14C87.47,76.06,85,82.27,85,82.27Z"/><path class="cls-1" d="M85,82.24s3-5.83,1.3-6.71C84.89,74.76,85,82.24,85,82.24Z"/><path class="cls-1" d="M85.07,82.32S89.91,78,91.14,79.5C92.2,80.74,85.07,82.32,85.07,82.32Z"/><path class="cls-1" d="M85.2,82.05s-1.94,6.5-3.56,5.28C80.3,86.37,85.2,82.05,85.2,82.05Z"/><path class="cls-1" d="M85.18,82.06s-4.39,4.79-5.7,3.29C78.36,84.15,85.18,82.06,85.18,82.06Z"/><path class="cls-1" d="M85.27,81.68s-2.54,6.17-.78,6.95C85.92,89.33,85.27,81.68,85.27,81.68Z"/><path class="cls-2" d="M45.38,145.11H80.62c2.49-8.67.66-16.47-2.82-24C71.41,132.23,60,139.81,45.38,145.11Z"/><path class="cls-2" d="M36.32,81.06c2.09-.86,4,2.56,5.75,1.94,2.65-1.15,3.17-6.13-1.9-9.32"/><path class="cls-2" d="M40.68,75.5c-1.47-4-1.91-13.22-.38-14.63,7.31-.8,1.74-12.6-2.14-6.41"/><path class="cls-2" d="M35.19,62.39a9.16,9.16,0,0,1-3-4.32,5.23,5.23,0,0,1,1.29-4.93,1.88,1.88,0,0,1,2.7,0c.89.72,1.9,2.27,3.24,1.86"/><path class="cls-2" d="M34.82,60.2c1.68,9.53,1.59,14.37.09,15.51-7.45,2.73.21,11.34,3,5.83"/><path class="cls-3" d="M12,28.88l-1.6-1.36a.25.25,0,1,1,.33-.38v0l1.47,1.5a.14.14,0,0,1,0,.21A.15.15,0,0,1,12,28.88Z"/><path class="cls-3" d="M13.28,28.71l1.36-1.59a.25.25,0,0,1,.38.32l0,0-1.49,1.46a.16.16,0,0,1-.22,0A.15.15,0,0,1,13.28,28.71Z"/><path class="cls-3" d="M12.28,30.24l-1.36,1.6a.26.26,0,0,1-.35,0,.25.25,0,0,1,0-.36h0L12.05,30a.16.16,0,0,1,.22,0A.15.15,0,0,1,12.28,30.24Z"/><path class="cls-3" d="M13.5,29.89l1.59,1.36a.25.25,0,1,1-.32.38h0l-1.46-1.5a.16.16,0,0,1,0-.22A.15.15,0,0,1,13.5,29.89Z"/><path class="cls-3" d="M12.63,28.46l-.1-2.1a.25.25,0,0,1,.24-.26.24.24,0,0,1,.26.24v0l-.09,2.1a.16.16,0,0,1-.31,0Z"/><path class="cls-3" d="M12.94,30.32,13,32.41a.26.26,0,0,1-.24.27.26.26,0,0,1-.26-.24v0l.1-2.09a.15.15,0,0,1,.16-.15A.17.17,0,0,1,12.94,30.32Z"/><path class="cls-2" d="M86.81,5.39h24.44V71.25C108.16,40.65,104.28,18.33,86.81,5.39Z"/><path class="cls-2" d="M112.71,123.29c-1.22-1.75-1.35-4.44-3.32-5.54-5.65.41-10,1.19-11,2.91a8.29,8.29,0,0,1,3.18,3.74l-2.07,2.27c-2.84,3.17-2.57,2.27-5.25-.42a6.58,6.58,0,0,0-5-1.85c0,3.6.9,6.43,3.82,7.49-2.53,1.4-3.95,3.83-3.82,7.69a6.78,6.78,0,0,0,5.85-3c1.35-2.37,2.42-1.72,4.43.49,2.58,2.75,5.36,4.82,8.63,5.18a6.92,6.92,0,0,1-2.22,3.52c4.09.62,8.08-1.75,8.85-5.18C125.36,134.64,127.86,128.81,112.71,123.29Z"/><circle class="cls-5" cx="117.03" cy="131.12" r="1.76"/><path class="cls-2" d="M96.68,104.93a1.64,1.64,0,0,1,2.26.39,2,2,0,0,1-.51,2.78,2.56,2.56,0,0,1-3.53-.61,3.1,3.1,0,0,1,.8-4.35,4,4,0,0,1,5.51,1A4.84,4.84,0,0,1,100,110.9a6.25,6.25,0,0,1-8.61-1.51c-2.44-3.45-1.29-8.73,2.08-11.85,9.83-9.93,43.16,5.47,38.31,46"/><path class="cls-2" d="M120.48,61.56c30.42-27.61,1.12-40.87,0,0"/><path class="cls-2" d="M133.32,75c2.14,5.17-3.2,22-3.2,22s-15.64-8.1-17.78-13.28,7.92-6.56,12.2-.21C123.81,75.65,131.18,69.85,133.32,75Z"/><path class="cls-1" d="M208.21,106.82c6.39-7.23,6-14.42-8.55-21.52C193.91,100.49,198.61,106,208.21,106.82Z"/><path class="cls-1" d="M206.46,89.31c-1.24-1.72-1.34-3.36,2-5.5-2.95,6.08,20.83,12.71-.11,23"/><path class="cls-1" d="M197.22,94.82c-.11-3-.76-5.11-5.55-4.09,6.39,2.23-5.79,23.71,16.28,16.19"/><path class="cls-1" d="M204.87,110.46c-2,4.94,2,7.33,9.27,8.29"/><path class="cls-1" d="M213.89,106.74a43.07,43.07,0,0,1-9,3.72"/><path class="cls-1" d="M213.88,106.75c4.87,2.11,3.37,6.41.26,12"/><path class="cls-1" d="M217.12,110.93c5.06,1.85,5.26-2.59,9.55-3.47-3.64-5-6.46-4.9-9.14-3.92a16.34,16.34,0,0,1-3.83,3.31"/><path class="cls-1" d="M205.34,115.79c-2.28,4.89-5.55,1.88-9.21,4.29-.94-6.1,1.12-8,3.71-9.24a16.14,16.14,0,0,0,5-.35"/><path class="cls-1" d="M171.81,38.32C155,54.42,142.18,69.1,142.61,80.05"/><path class="cls-1" d="M170.19,39.83s-2.83.21-2.95-.53,2.62-1.46,2.62-1.46-2.15-1.85-1.72-2.46,2.89.83,2.89.83-.22-2.84.52-3S173,35.87,173,35.87s1.85-2.15,2.46-1.71-.82,2.88-.82,2.88,2.83-.21,2.95.53S175,39,175,39s2.15,1.85,1.72,2.46-2.89-.82-2.89-.82.22,2.83-.52,3S171.83,41,171.83,41"/><path class="cls-1" d="M164.68,45.41s4.47-.52,4.71.65-4.06,2.47-4.06,2.47,3.52,2.8,2.87,3.79-4.62-1.12-4.62-1.12.52,4.47-.65,4.71-2.47-4.06-2.47-4.06"/><path class="cls-1" d="M164.71,45.37s.5-4.48-.66-4.71-2.46,4.07-2.46,4.07-2.81-3.52-3.8-2.86,1.14,4.62,1.14,4.62-4.47-.5-4.71.66,4.08,2.46,4.08,2.46"/><path class="cls-1" d="M153.93,57s4.81-1.23,5.25,0-4.08,3.3-4.08,3.3,4.27,2.53,3.71,3.71-5.22-.54-5.22-.54,1.23,4.81,0,5.24-3.3-4.07-3.3-4.07"/><path class="cls-1" d="M153.84,57.12s.2-5-1.1-5.13-2.38,4.67-2.38,4.67S147,53,146,53.82s1.62,5,1.62,5-4.95-.19-5.12,1.11,4.67,2.38,4.67,2.38"/><path class="cls-1" d="M208.32,38c18.17.49,26.7,10.53,27.79,27.94"/><path class="cls-1" d="M218.26,39.51c-12.71,4.37-3.89,16.69,1.26.4"/><path class="cls-1" d="M217,39c-7.88-10.89,6.42-15.88,1.27.4"/><path class="cls-1" d="M227.49,44.62c-13.43-.45-9.58,14.2,1,.83"/><path class="cls-1" d="M233.19,52.7c-12.87-3.57-12.66,11.35.55,1.25"/><path class="cls-1" d="M211.27,38.2c-12.54,4.85-3.26,16.82,1.28.35"/><path class="cls-1" d="M208.32,38c-16-8.89-14.22,9.84,0,0"/><path class="cls-1" d="M210.64,38.06c-11.28-7.3.25-17.13,1.33-.08"/><path class="cls-1" d="M225,42.51c-4.81-12.54,10.29-13.69,1.12.72"/><path class="cls-1" d="M230,47.18c-3.27-12.07,11.09-12,1.29,1.52"/><path class="cls-1" d="M233.71,53.68c2.44-13.21,15.92-6.33.59,1.2"/><path class="cls-1" d="M172.64,112.66c-1.2,19.23-13,15.15-20.35,22.86"/><path class="cls-1" d="M150.71,134l-.9-.86c15.44-24.37-18.19-24.93-7.53-10.41,3.47-6.47,12,2,6.25,9.18-2.79-.81-3.86-.06-2.63,2.8-.76.58-2.18,1.71-3.21,1.11-.76-.44-.86-1.38-1.33-2a1.66,1.66,0,0,0-3,.84,2.78,2.78,0,0,0,.86,1.94,4.42,4.42,0,0,0,3.23,1.33,7,7,0,0,0,4.63-2.09l.86.89a8.78,8.78,0,0,1-6.9,2.68,3.23,3.23,0,0,0,.27,2.94,5.18,5.18,0,0,0-1.27,4.44"/><path class="cls-1" d="M172.64,112.66c-19.16,2-14.56,13.66-21.93,21.35"/><path class="cls-1" d="M152.29,135.52l.89.86c23.66-16.51,25.71,17.06,10.74,7.06,6.3-3.76-2.5-11.86-9.45-5.84.93,2.75.23,3.85-2.68,2.75-.55.79-1.61,2.25-1,3.26.48.73,1.42.79,2.1,1.24a1.67,1.67,0,0,1-.7,3.05,2.81,2.81,0,0,1-2-.78,4.43,4.43,0,0,1-1.47-3.16,7.1,7.1,0,0,1,1.88-4.72l-.92-.82a8.79,8.79,0,0,0-2.37,7,3.24,3.24,0,0,1-2.95-.15,5.15,5.15,0,0,1-4.38,1.47"/><path class="cls-1" d="M230.36,19.09c-7.18,3.7-47,.67-49.64,2.89a1,1,0,0,0-1.44-.23,8.14,8.14,0,0,0,2,5.17c.17.76.07,1.2-.54,1.08A11.43,11.43,0,0,1,178,21.22a29.39,29.39,0,0,0-10.18-1c-6.32-1.57-5.05,2.72-8.42-.81a.37.37,0,0,1,0-.56c3.37-3.53,2.1.76,8.42-.82A29.13,29.13,0,0,0,178,17a11.43,11.43,0,0,1,2.77-6.78c.61-.13.71.32.54,1.07a8.14,8.14,0,0,0-2,5.17,1,1,0,0,0,1.44-.22c2.6,2.22,42.46-.81,49.64,2.89"/><path class="cls-1" d="M176.56,20.86a5,5,0,0,1,0-3.54"/><path class="cls-1" d="M167.78,20.18a2.55,2.55,0,0,1,0-2.19"/><path class="cls-2" d="M162.14,82.18a1.65,1.65,0,0,0,1.22,1.95,2,2,0,0,0,2.38-1.52,2.55,2.55,0,0,0-1.89-3,3.08,3.08,0,0,0-3.73,2.36,4,4,0,0,0,3,4.75,4.85,4.85,0,0,0,5.83-3.7,6.24,6.24,0,0,0-4.63-7.41c-4.12-1-8.57,2.08-10.21,6.37-5.5,12.84,13.16,28,28.36,14.93"/><path class="cls-3" d="M263.77,10.06l-3.14-2.8a.25.25,0,1,1,.33-.37h0l3,2.94a.14.14,0,0,1,0,.21A.15.15,0,0,1,263.77,10.06Z"/><path class="cls-3" d="M266.43,10l2.8-3.15a.25.25,0,0,1,.35,0,.26.26,0,0,1,0,.36h0l-2.94,3a.14.14,0,0,1-.21,0A.15.15,0,0,1,266.43,10Z"/><path class="cls-3" d="M264.19,12.8l-2.8,3.14a.25.25,0,1,1-.37-.33h0l2.94-3a.15.15,0,0,1,.22.21Z"/><path class="cls-3" d="M266.64,12.32l3.15,2.8a.25.25,0,0,1,0,.35.26.26,0,0,1-.36,0h0l-3-2.94a.15.15,0,0,1,.21-.22Z"/><path class="cls-3" d="M265.16,9.32l-.09-4.21a.23.23,0,0,1,.24-.25.25.25,0,0,1,.26.24h0l-.1,4.21a.15.15,0,0,1-.16.15A.15.15,0,0,1,265.16,9.32Z"/><path class="cls-3" d="M265.47,13.06l.1,4.21a.26.26,0,0,1-.25.26.25.25,0,0,1-.25-.25h0l.09-4.21a.16.16,0,0,1,.16-.15A.16.16,0,0,1,265.47,13.06Z"/><path class="cls-4" d="M190.23,133c-.55.66-3.23-1.18-3.23-1.18s0,3.25-.85,3.33-1.44-3.12-1.44-3.12-2.3,2.3-3,1.75,1.19-3.22,1.19-3.22-3.25,0-3.33-.85,3.12-1.45,3.12-1.45-2.31-2.29-1.76-3,3.23,1.18,3.23,1.18,0-3.25.85-3.33,1.44,3.12,1.44,3.12,2.29-2.31,3-1.76-1.19,3.23-1.19,3.23,3.25,0,3.33.85-3.12,1.44-3.12,1.44S190.78,132.33,190.23,133Z"/><polygon class="cls-2" points="145.21 37.11 142.9 38.68 140.38 37.47 140.17 34.67 142.49 33.1 145 34.32 145.21 37.11"/><polygon class="cls-2" points="148.24 25.49 144.93 27.74 141.33 26 141.03 22.02 144.34 19.77 147.94 21.5 148.24 25.49"/><polygon class="cls-2" points="156.36 11.59 151.61 14.82 146.44 12.32 146.02 6.6 150.76 3.37 155.94 5.86 156.36 11.59"/><path class="cls-3" d="M272.68,23.29l-1.9-1.64a.25.25,0,0,1,0-.35.24.24,0,0,1,.35,0l0,0,1.76,1.77a.16.16,0,0,1,0,.22A.15.15,0,0,1,272.68,23.29Z"/><path class="cls-3" d="M274.25,23.13l1.64-1.89a.24.24,0,0,1,.35,0,.25.25,0,0,1,0,.35l0,0-1.77,1.76a.16.16,0,0,1-.22,0A.15.15,0,0,1,274.25,23.13Z"/><path class="cls-3" d="M273,24.91l-1.64,1.89a.24.24,0,0,1-.35,0,.25.25,0,0,1,0-.36h0l1.77-1.76a.16.16,0,0,1,.22,0A.15.15,0,0,1,273,24.91Z"/><path class="cls-3" d="M274.47,24.53l1.89,1.64a.24.24,0,0,1,0,.35.25.25,0,0,1-.36,0v0l-1.76-1.77a.16.16,0,0,1,0-.22A.17.17,0,0,1,274.47,24.53Z"/><path class="cls-3" d="M273.48,22.8l-.09-2.5a.25.25,0,0,1,.24-.26.25.25,0,0,1,.26.24v0l-.1,2.5a.15.15,0,0,1-.16.15A.16.16,0,0,1,273.48,22.8Z"/><path class="cls-3" d="M273.79,25l.1,2.5a.25.25,0,0,1-.24.26.24.24,0,0,1-.26-.24v0l.09-2.5a.15.15,0,0,1,.16-.14A.15.15,0,0,1,273.79,25Z"/><path class="cls-3" d="M277.17,13.72l-1.6-1.35a.25.25,0,1,1,.33-.38h0l1.47,1.5a.16.16,0,0,1,0,.22A.15.15,0,0,1,277.17,13.72Z"/><path class="cls-3" d="M278.49,13.56l1.36-1.6a.25.25,0,1,1,.38.33h0l-1.49,1.47a.16.16,0,0,1-.22,0A.15.15,0,0,1,278.49,13.56Z"/><path class="cls-3" d="M277.49,15.08l-1.36,1.6a.25.25,0,0,1-.38-.32l0,0,1.49-1.47a.16.16,0,0,1,.22,0A.14.14,0,0,1,277.49,15.08Z"/><path class="cls-3" d="M278.71,14.74l1.59,1.35a.25.25,0,0,1,0,.36.26.26,0,0,1-.35,0l0,0L278.5,15a.16.16,0,0,1,0-.22A.15.15,0,0,1,278.71,14.74Z"/><path class="cls-3" d="M277.84,13.3l-.1-2.09a.26.26,0,0,1,.24-.27.25.25,0,0,1,.26.24v0l-.09,2.09a.17.17,0,0,1-.16.15A.16.16,0,0,1,277.84,13.3Z"/><path class="cls-3" d="M278.15,15.16l.09,2.1a.25.25,0,0,1-.24.26.25.25,0,0,1-.26-.24v0l.1-2.1A.14.14,0,0,1,278,15,.16.16,0,0,1,278.15,15.16Z"/><circle class="cls-2" cx="204.74" cy="66.07" r="8.04"/><circle class="cls-2" cx="204.74" cy="66.07" r="3.94"/><path class="cls-3" d="M192.65,5.36l-2.23,2.53a.25.25,0,0,1-.37-.33h0l2.37-2.4a.14.14,0,0,1,.21,0A.17.17,0,0,1,192.65,5.36Z"/><path class="cls-3" d="M194.62,4.93l2.53,2.23a.25.25,0,1,1-.33.37h0l-2.4-2.37a.15.15,0,0,1,0-.22A.17.17,0,0,1,194.62,4.93Z"/><path class="cls-3" d="M193.68,5.55l.1,3.37a.25.25,0,1,1-.5,0h0l.1-3.37a.15.15,0,0,1,.3,0Z"/><path class="cls-3" d="M205.76,5.35l-2.23,2.53a.23.23,0,0,1-.35,0,.24.24,0,0,1,0-.35h0l2.37-2.4a.16.16,0,0,1,.22,0A.15.15,0,0,1,205.76,5.35Z"/><path class="cls-3" d="M207.72,4.92l2.53,2.23a.25.25,0,0,1,0,.36.26.26,0,0,1-.36,0h0l-2.4-2.37a.16.16,0,0,1,0-.22A.15.15,0,0,1,207.72,4.92Z"/><path class="cls-3" d="M206.79,5.54l.1,3.38a.25.25,0,0,1-.25.25.24.24,0,0,1-.25-.24h0l.09-3.38a.17.17,0,0,1,.16-.15A.16.16,0,0,1,206.79,5.54Z"/><path class="cls-3" d="M218.69,5.35l-2.23,2.53a.25.25,0,0,1-.36,0,.25.25,0,0,1,0-.35h0l2.37-2.4a.16.16,0,0,1,.22,0A.15.15,0,0,1,218.69,5.35Z"/><path class="cls-3" d="M220.65,4.92l2.53,2.23a.26.26,0,0,1,0,.36.25.25,0,0,1-.35,0h0l-2.4-2.37a.16.16,0,0,1,0-.22A.15.15,0,0,1,220.65,4.92Z"/><path class="cls-3" d="M219.72,5.54l.09,3.38a.24.24,0,0,1-.24.25.25.25,0,0,1-.26-.24h0l.1-3.38a.16.16,0,0,1,.16-.15A.16.16,0,0,1,219.72,5.54Z"/><path class="cls-1" d="M229.12,82.1s4.21,5.06,5.38,3.39C235.49,84.17,229.12,82.1,229.12,82.1Z"/><path class="cls-1" d="M229.15,82.1s6,2.67,6.78.86C236.61,81.51,229.15,82.1,229.15,82.1Z"/><path class="cls-1" d="M229.07,82.18s4.69,4.54,3.22,5.87C231.13,89.19,229.07,82.18,229.07,82.18Z"/><path class="cls-1" d="M229.36,82.29s-6.62-1.51-5.5-3.2C224.72,77.69,229.36,82.29,229.36,82.29Z"/><path class="cls-1" d="M229.34,82.27s-5.06-4.06-3.65-5.47C226.81,75.61,229.34,82.27,229.34,82.27Z"/><path class="cls-1" d="M229.3,82.37s-6.32-2.13-7-.32C221.71,83.52,229.3,82.37,229.3,82.37Z"/><path class="cls-1" d="M229,82.27s5.33-3.87,3.74-5.14C231.47,76.06,229,82.27,229,82.27Z"/><path class="cls-1" d="M229,82.24s3.05-5.83,1.3-6.71C228.89,74.76,229,82.24,229,82.24Z"/><path class="cls-1" d="M229.07,82.32s4.84-4.37,6.07-2.82C236.2,80.74,229.07,82.32,229.07,82.32Z"/><path class="cls-1" d="M229.2,82.05s-1.94,6.5-3.56,5.28C224.3,86.37,229.2,82.05,229.2,82.05Z"/><path class="cls-1" d="M229.18,82.06s-4.39,4.79-5.7,3.29C222.36,84.15,229.18,82.06,229.18,82.06Z"/><path class="cls-1" d="M229.27,81.68s-2.54,6.17-.78,6.95C229.92,89.33,229.27,81.68,229.27,81.68Z"/><path class="cls-2" d="M189.38,145.11h35.24c2.49-8.67.66-16.47-2.82-24C215.41,132.23,204,139.81,189.38,145.11Z"/><path class="cls-2" d="M180.32,81.06c2.09-.86,4,2.56,5.75,1.94,2.65-1.15,3.17-6.13-1.9-9.32"/><path class="cls-2" d="M184.68,75.5c-1.47-4-1.91-13.22-.38-14.63,7.31-.8,1.74-12.6-2.14-6.41"/><path class="cls-2" d="M179.19,62.39a9.16,9.16,0,0,1-3-4.32,5.23,5.23,0,0,1,1.29-4.93,1.88,1.88,0,0,1,2.7,0c.89.72,1.9,2.27,3.24,1.86"/><path class="cls-2" d="M178.82,60.2c1.68,9.53,1.59,14.37.09,15.51-7.45,2.73.21,11.34,3,5.83"/><path class="cls-3" d="M156,28.88l-1.6-1.36a.25.25,0,1,1,.33-.38v0l1.47,1.5a.15.15,0,0,1,0,.21A.15.15,0,0,1,156,28.88Z"/><path class="cls-3" d="M157.28,28.71l1.36-1.59a.25.25,0,1,1,.38.32l0,0-1.49,1.46a.16.16,0,0,1-.22,0A.15.15,0,0,1,157.28,28.71Z"/><path class="cls-3" d="M156.28,30.24l-1.36,1.6a.26.26,0,0,1-.35,0,.25.25,0,0,1,0-.36h0L156.05,30a.16.16,0,0,1,.22,0A.15.15,0,0,1,156.28,30.24Z"/><path class="cls-3" d="M157.5,29.89l1.59,1.36a.25.25,0,0,1-.32.38h0l-1.46-1.5a.16.16,0,0,1,0-.22A.15.15,0,0,1,157.5,29.89Z"/><path class="cls-3" d="M156.63,28.46l-.1-2.1a.25.25,0,0,1,.24-.26.24.24,0,0,1,.26.24v0l-.09,2.1a.16.16,0,0,1-.31,0Z"/><path class="cls-3" d="M156.94,30.32l.09,2.09a.26.26,0,0,1-.24.27.26.26,0,0,1-.26-.24v0l.1-2.09a.15.15,0,0,1,.16-.15A.17.17,0,0,1,156.94,30.32Z"/><path class="cls-2" d="M230.81,5.39h24.44V71.25C252.16,40.65,248.28,18.33,230.81,5.39Z"/><path class="cls-2" d="M256.71,123.29c-1.22-1.75-1.35-4.44-3.32-5.54-5.65.41-10,1.19-11,2.91a8.29,8.29,0,0,1,3.18,3.74l-2.07,2.27c-2.84,3.17-2.57,2.27-5.25-.42a6.58,6.58,0,0,0-5-1.85c0,3.6.9,6.43,3.82,7.49-2.53,1.4-4,3.83-3.82,7.69a6.78,6.78,0,0,0,5.85-3c1.35-2.37,2.42-1.72,4.43.49,2.58,2.75,5.36,4.82,8.63,5.18a6.92,6.92,0,0,1-2.22,3.52c4.09.62,8.08-1.75,8.85-5.18C269.36,134.64,271.86,128.81,256.71,123.29Z"/><circle class="cls-5" cx="261.03" cy="131.12" r="1.76"/><path class="cls-2" d="M240.68,104.93a1.64,1.64,0,0,1,2.26.39,2,2,0,0,1-.51,2.78,2.56,2.56,0,0,1-3.53-.61,3.1,3.1,0,0,1,.8-4.35,4,4,0,0,1,5.51,1A4.84,4.84,0,0,1,244,110.9a6.25,6.25,0,0,1-8.61-1.51c-2.44-3.45-1.29-8.73,2.08-11.85,9.83-9.93,43.16,5.47,38.31,46"/><path class="cls-2" d="M264.48,61.56c30.42-27.61,1.12-40.87,0,0"/><path class="cls-2" d="M277.32,75c2.14,5.17-3.2,22-3.2,22s-15.64-8.1-17.78-13.28,7.92-6.56,12.2-.21C267.81,75.65,275.18,69.85,277.32,75Z"/><path class="cls-1" d="M354.21,106.82c6.39-7.23,6.05-14.42-8.55-21.52C339.91,100.49,344.61,106,354.21,106.82Z"/><path class="cls-1" d="M343.22,94.82c-.11-3-.76-5.11-5.55-4.09,6.39,2.23-5.79,23.71,16.28,16.19"/><path class="cls-1" d="M351.34,115.79c-2.28,4.89-5.55,1.88-9.21,4.29-.94-6.1,1.12-8,3.71-9.24a16.14,16.14,0,0,0,5.05-.35"/><path class="cls-1" d="M317.81,38.32C301,54.42,288.18,69.1,288.61,80.05"/><path class="cls-1" d="M316.19,39.83s-2.83.21-2.95-.53,2.62-1.46,2.62-1.46-2.15-1.85-1.72-2.46,2.89.83,2.89.83-.22-2.84.52-3S319,35.87,319,35.87s1.85-2.15,2.46-1.71-.82,2.88-.82,2.88,2.83-.21,3,.53S321,39,321,39s2.15,1.85,1.72,2.46-2.89-.82-2.89-.82.22,2.83-.52,3S317.83,41,317.83,41"/><path class="cls-1" d="M310.68,45.41s4.47-.52,4.71.65-4.06,2.47-4.06,2.47,3.52,2.8,2.87,3.79-4.62-1.12-4.62-1.12.52,4.47-.65,4.71-2.47-4.06-2.47-4.06"/><path class="cls-1" d="M310.71,45.37s.5-4.48-.66-4.71-2.46,4.07-2.46,4.07-2.81-3.52-3.8-2.86,1.14,4.62,1.14,4.62-4.47-.5-4.71.66,4.08,2.46,4.08,2.46"/><path class="cls-1" d="M299.93,57s4.81-1.23,5.25,0-4.08,3.3-4.08,3.3,4.27,2.53,3.71,3.71-5.22-.54-5.22-.54,1.23,4.81,0,5.24-3.3-4.07-3.3-4.07"/><path class="cls-1" d="M299.84,57.12s.2-5-1.1-5.13-2.38,4.67-2.38,4.67S293,53,292,53.82s1.62,5,1.62,5-4.95-.19-5.12,1.11,4.67,2.38,4.67,2.38"/><path class="cls-1" d="M354.32,38c-16-8.89-14.22,9.84,0,0"/><path class="cls-1" d="M318.64,112.66c-1.2,19.23-13,15.15-20.35,22.86"/><path class="cls-1" d="M296.71,134l-.9-.86c15.44-24.37-18.19-24.93-7.53-10.41,3.47-6.47,12,2,6.25,9.18-2.79-.81-3.86-.06-2.63,2.8-.76.58-2.18,1.71-3.21,1.11-.76-.44-.86-1.38-1.33-2a1.66,1.66,0,0,0-3,.84,2.78,2.78,0,0,0,.86,1.94,4.42,4.42,0,0,0,3.23,1.33,7,7,0,0,0,4.63-2.09l.86.89a8.78,8.78,0,0,1-6.9,2.68,3.23,3.23,0,0,0,.27,2.94,5.18,5.18,0,0,0-1.27,4.44"/><path class="cls-1" d="M318.64,112.66c-19.16,2-14.56,13.66-21.93,21.35"/><path class="cls-1" d="M298.29,135.52l.89.86c23.66-16.51,25.71,17.06,10.74,7.06,6.3-3.76-2.5-11.86-9.45-5.84.93,2.75.23,3.85-2.68,2.75-.55.79-1.61,2.25-1,3.26.48.73,1.42.79,2.1,1.24a1.67,1.67,0,0,1-.7,3.05,2.81,2.81,0,0,1-2-.78,4.43,4.43,0,0,1-1.47-3.16,7.1,7.1,0,0,1,1.88-4.72l-.92-.82a8.79,8.79,0,0,0-2.37,7,3.24,3.24,0,0,1-3-.15,5.15,5.15,0,0,1-4.38,1.47"/><path class="cls-1" d="M376.36,19.09c-7.18,3.7-47,.67-49.64,2.89a1,1,0,0,0-1.44-.23,8.14,8.14,0,0,0,2,5.17c.17.76.07,1.2-.54,1.08A11.43,11.43,0,0,1,324,21.22a29.39,29.39,0,0,0-10.18-1c-6.32-1.57-5,2.72-8.42-.81a.37.37,0,0,1,0-.56c3.37-3.53,2.1.76,8.42-.82A29.13,29.13,0,0,0,324,17a11.43,11.43,0,0,1,2.77-6.78c.61-.13.71.32.54,1.07a8.14,8.14,0,0,0-2,5.17,1,1,0,0,0,1.44-.22c2.6,2.22,42.46-.81,49.64,2.89"/><path class="cls-1" d="M322.56,20.86a5,5,0,0,1,0-3.54"/><path class="cls-1" d="M313.78,20.18a2.55,2.55,0,0,1,0-2.19"/><circle class="cls-6" cx="9.45" cy="106.45" r="1.4"/><circle class="cls-6" cx="1.39" cy="100.66" r="1.4"/><circle class="cls-6" cx="118.91" cy="65.67" r="1.21"/><circle class="cls-6" cx="153.45" cy="106.45" r="1.4"/><circle class="cls-6" cx="145.39" cy="100.66" r="1.4"/><circle class="cls-6" cx="142.58" cy="90.47" r="1.4"/><circle class="cls-6" cx="262.91" cy="65.67" r="1.21"/><circle class="cls-6" cx="299.45" cy="106.45" r="1.4"/><circle class="cls-6" cx="291.39" cy="100.66" r="1.4"/><circle class="cls-6" cx="288.58" cy="90.47" r="1.4"/><path class="cls-2" d="M308.14,82.18a1.65,1.65,0,0,0,1.22,1.95,2,2,0,0,0,2.38-1.52,2.55,2.55,0,0,0-1.89-3,3.08,3.08,0,0,0-3.73,2.36,4,4,0,0,0,3,4.75,4.85,4.85,0,0,0,5.83-3.7,6.24,6.24,0,0,0-4.63-7.41c-4.12-1-8.57,2.08-10.21,6.37-5.5,12.84,13.16,28,28.36,14.93"/><path class="cls-4" d="M336.23,133c-.55.66-3.23-1.18-3.23-1.18s0,3.25-.85,3.33-1.44-3.12-1.44-3.12-2.3,2.3-3,1.75,1.19-3.22,1.19-3.22-3.25,0-3.33-.85,3.12-1.45,3.12-1.45-2.31-2.29-1.76-3,3.23,1.18,3.23,1.18,0-3.25.85-3.33,1.44,3.12,1.44,3.12,2.29-2.31,3-1.76-1.19,3.23-1.19,3.23,3.25,0,3.33.85-3.12,1.44-3.12,1.44S336.78,132.33,336.23,133Z"/><polygon class="cls-2" points="291.21 37.11 288.9 38.68 286.38 37.47 286.17 34.67 288.49 33.1 291 34.32 291.21 37.11"/><polygon class="cls-2" points="294.24 25.49 290.93 27.74 287.33 26 287.03 22.02 290.34 19.77 293.94 21.5 294.24 25.49"/><polygon class="cls-2" points="302.36 11.59 297.61 14.82 292.44 12.32 292.02 6.6 296.76 3.37 301.94 5.86 302.36 11.59"/><circle class="cls-2" cx="350.74" cy="66.07" r="8.04"/><circle class="cls-2" cx="350.74" cy="66.07" r="3.94"/><path class="cls-3" d="M338.65,5.36l-2.23,2.53a.25.25,0,1,1-.37-.33h0l2.37-2.4a.14.14,0,0,1,.21,0A.17.17,0,0,1,338.65,5.36Z"/><path class="cls-3" d="M340.62,4.93l2.53,2.23a.25.25,0,0,1-.33.37h0l-2.4-2.37a.15.15,0,0,1,0-.22A.17.17,0,0,1,340.62,4.93Z"/><path class="cls-3" d="M339.68,5.55l.1,3.37a.25.25,0,1,1-.5,0h0l.1-3.37a.15.15,0,1,1,.3,0Z"/><path class="cls-3" d="M351.76,5.35l-2.23,2.53a.23.23,0,0,1-.35,0,.24.24,0,0,1,0-.35h0l2.37-2.4a.16.16,0,0,1,.22,0A.15.15,0,0,1,351.76,5.35Z"/><path class="cls-2" d="M335.38,145.11h35.24c2.49-8.67.66-16.47-2.82-24C361.41,132.23,350,139.81,335.38,145.11Z"/><path class="cls-2" d="M326.32,81.06c2.09-.86,4,2.56,5.75,1.94,2.65-1.15,3.17-6.13-1.9-9.32"/><path class="cls-2" d="M330.68,75.5c-1.47-4-1.91-13.22-.38-14.63,7.31-.8,1.74-12.6-2.14-6.41"/><path class="cls-2" d="M325.19,62.39a9.16,9.16,0,0,1-3-4.32,5.23,5.23,0,0,1,1.29-4.93,1.88,1.88,0,0,1,2.7,0c.89.72,1.9,2.27,3.24,1.86"/><path class="cls-2" d="M324.82,60.2c1.68,9.53,1.59,14.37.09,15.51-7.45,2.73.21,11.34,3,5.83"/><path class="cls-3" d="M302,28.88l-1.6-1.36a.25.25,0,1,1,.33-.38v0l1.47,1.5a.14.14,0,0,1,0,.21A.15.15,0,0,1,302,28.88Z"/><path class="cls-3" d="M303.28,28.71l1.36-1.59a.25.25,0,1,1,.38.32l0,0-1.49,1.46a.16.16,0,0,1-.22,0A.15.15,0,0,1,303.28,28.71Z"/><path class="cls-3" d="M302.28,30.24l-1.36,1.6a.26.26,0,0,1-.35,0,.25.25,0,0,1,0-.36h0L302.05,30a.16.16,0,0,1,.22,0A.15.15,0,0,1,302.28,30.24Z"/><path class="cls-3" d="M303.5,29.89l1.59,1.36a.25.25,0,1,1-.32.38h0l-1.46-1.5a.16.16,0,0,1,0-.22A.15.15,0,0,1,303.5,29.89Z"/><path class="cls-3" d="M302.63,28.46l-.1-2.1a.25.25,0,0,1,.24-.26.24.24,0,0,1,.26.24v0l-.09,2.1a.16.16,0,0,1-.31,0Z"/><path class="cls-3" d="M302.94,30.32l.09,2.09a.26.26,0,0,1-.24.27.26.26,0,0,1-.26-.24v0l.1-2.09a.15.15,0,0,1,.16-.15A.17.17,0,0,1,302.94,30.32Z"/></svg>