<svg id="Layer_1" data-name="Layer 1" xmlns="http://www.w3.org/2000/svg" viewBox="0 0 350 150"><defs><style>.cls-1,.cls-2,.cls-4{fill:none;}.cls-1,.cls-2,.cls-4,.cls-5,.cls-6{stroke:#03e2b7;}.cls-1,.cls-4{stroke-linecap:round;stroke-linejoin:round;}.cls-1{stroke-width:0.5px;}.cls-2,.cls-5,.cls-6{stroke-miterlimit:10;}.cls-2,.cls-4{stroke-width:0.4px;}.cls-3,.cls-6{fill:#03e2b7;}.cls-5{fill:#fff;}.cls-6{stroke-width:0;}</style></defs><title>bg</title><circle class="cls-1" cx="10.01" cy="66.28" r="14.74"/><ellipse class="cls-1" cx="5.81" cy="58.13" rx="3.32" ry="2.45" transform="translate(-33.9 15.27) rotate(-37.11)"/><path class="cls-1" d="M5.69,60.87Q2.65,71,10,81"/><path class="cls-1" d="M2.83,59.45a13.91,13.91,0,0,0-7.14,4"/><path class="cls-1" d="M8.34,59C14.71,61.81,20,65.8,23.66,71.87"/><path class="cls-1" d="M8.43,56.1a23.78,23.78,0,0,1,10.49-1.57"/><path class="cls-1" d="M3.82,56.61a6.06,6.06,0,0,1-3-1.88"/><path class="cls-1" d="M6.58,55.32a3.86,3.86,0,0,1,1.11-3.6"/><path class="cls-1" d="M60.1,133.74C55.32,117.67,43.86,110.05,27,109.32c-4.8-2.28-7.24-5.18-7.28-8.72,20,3.29,27-2.21,37.78,8.11,15.46,14.12,6.53,23,16.55,29.81C69.8,140.92,64.94,138.81,60.1,133.74Z"/><path class="cls-1" d="M35.28,110.33c-2.2,3.7,19,21.69,23.38,19.31"/><path class="cls-1" d="M42.56,102.05c-1.83,1.92-.46,9-2.84,9.49"/><path class="cls-1" d="M34.94,101.85c-1.17,2.71,1.11,7.89-1,8.22"/><path class="cls-1" d="M27.27,101.52c-.73,2.69,1.94,5.57,1.15,7.88"/><path class="cls-1" d="M62.05,114.21c-3.29,4.3-10.49,2.54-11.43,3.52"/><path class="cls-1" d="M54.62,106.31c-2.24,3.18-6.16,3.92-9,7.88"/><path class="cls-1" d="M55.2,123.13c4.62-2.11,8,1.09,12.17,2.63"/><path class="cls-1" d="M69,131.78c-4.48-.69-8.61-3.63-10.69-3"/><path class="cls-1" d="M71.4,136.25c-3.64,0-8.45-2.68-10.75-1.95"/><path class="cls-1" d="M47.67,119.25c-.54,3-1.91.89-2.68,3.41"/><path class="cls-1" d="M49.7,117.13c.12,2.44-.65,1.39-2,2.12"/><path class="cls-1" d="M45.18,117.05c-.54,3-1.91.88-2.68,3.4"/><path class="cls-1" d="M47.22,115.19c.05,2.09-.71,1.15-2,1.86"/><path class="cls-1" d="M42.71,114.78c-.54,3-1.91.89-2.68,3.41"/><path class="cls-1" d="M44.71,113.69c-.16,1.08-.88.5-2,1.09"/><path class="cls-1" d="M40.5,112.24c-.54,3-1.91.89-2.68,3.41"/><path class="cls-1" d="M41.06,112a3.08,3.08,0,0,0-.56.22"/><path class="cls-1" d="M38.18,111.05c-.65.91-1.6.11-2.2,2"/><path class="cls-1" d="M57.68,127.44c-.64.65-1.51.07-2.06,1.89"/><path class="cls-1" d="M53.11,123.13c-.55,3-1.92.89-2.68,3.41"/><path class="cls-1" d="M54.84,122.62c-.33.26-.93.08-1.73.51"/><path class="cls-1" d="M50.47,121.42c-.54,3-1.91.89-2.68,3.41"/><path class="cls-1" d="M52.52,119.72c0,1.89-.75,1-2.05,1.7"/><path class="cls-1" d="M55.54,124.72c-.54,3-1.91.89-2.67,3.41"/><path class="cls-1" d="M56.1,124.5a2.69,2.69,0,0,0-.56.22"/><path class="cls-1" d="M5.19,145.83c-.85-8.48.62-14.55,4.24-24-7.11,7.23-9,15-10.19,24Z"/><path class="cls-1" d="M11,126.41A20.19,20.19,0,0,1,21.46,133c-.63-4.16-3.19-7.54-6.93-10.44a7.32,7.32,0,0,1,5.88.52c-1.34-2.71-3.85-4.22-7.19-4.91.73-.76,2.07-1.26,4.21-1.4-3.44-2.63-6.82-2.27-10.12,1.31a12.25,12.25,0,0,0-11,0c2.17.1,3.79.81,4.65,2.37a12.79,12.79,0,0,0-8.16,5.62c2.71-1.9,9.47-2.63,12.54.17"/><path class="cls-1" d="M58.92,91.65a1.64,1.64,0,0,0-2.17-.74,2,2,0,0,0-.89,2.68,2.55,2.55,0,0,0,3.39,1.15,3.09,3.09,0,0,0,1.39-4.19,4,4,0,0,0-5.3-1.79,4.83,4.83,0,0,0-2.17,6.55,6.24,6.24,0,0,0,8.28,2.8c3.8-1.86,5.31-7,3.86-11.4C61.43,73.29,24.8,70.84,9.62,108.76"/><path class="cls-2" d="M1.53,102.22c-.38.46-2.23-.82-2.23-.82s0,2.25-.59,2.3-1-2.15-1-2.15-1.58,1.59-2,1.21.82-2.23.82-2.23-2.24,0-2.3-.58,2.16-1,2.16-1-1.6-1.59-1.22-2,2.23.81,2.23.81,0-2.24.59-2.29,1,2.15,1,2.15S.53,96,1,96.37.17,98.59.17,98.59s2.24,0,2.3.59-2.16,1-2.16,1S1.91,101.76,1.53,102.22Z"/><path class="cls-3" d="M18.73,145.72l-2.37-2.4a.25.25,0,0,1,0-.35.24.24,0,0,1,.35,0h0L19,145.51a.16.16,0,0,1,0,.22A.15.15,0,0,1,18.73,145.72Z"/><path class="cls-3" d="M20.71,145.71l2.4-2.37a.26.26,0,0,1,.36,0,.25.25,0,0,1,0,.35h0l-2.53,2.23a.16.16,0,0,1-.22,0A.15.15,0,0,1,20.71,145.71Z"/><path class="cls-3" d="M19.68,145.32,19.59,142a.24.24,0,0,1,.24-.26.25.25,0,0,1,.26.24v0l-.1,3.37a.16.16,0,0,1-.16.15A.17.17,0,0,1,19.68,145.32Z"/><path class="cls-3" d="M33.84,145.73l-2.37-2.41a.24.24,0,0,1,0-.35.25.25,0,0,1,.36,0h0l2.23,2.54a.15.15,0,0,1,0,.21A.15.15,0,0,1,33.84,145.73Z"/><path class="cls-3" d="M35.82,145.72l2.4-2.37a.25.25,0,1,1,.35.35h0L36,145.94a.16.16,0,0,1-.22,0A.15.15,0,0,1,35.82,145.72Z"/><path class="cls-3" d="M34.79,145.32l-.1-3.37a.26.26,0,0,1,.25-.26.25.25,0,0,1,.25.25h0l-.09,3.37a.15.15,0,0,1-.16.15A.15.15,0,0,1,34.79,145.32Z"/><path class="cls-3" d="M46.77,145.73l-2.37-2.41a.25.25,0,1,1,.35-.35h0L47,145.52a.14.14,0,0,1,0,.21A.15.15,0,0,1,46.77,145.73Z"/><path class="cls-3" d="M48.75,145.72l2.4-2.37a.25.25,0,1,1,.35.35h0L49,145.94a.16.16,0,0,1-.22,0A.14.14,0,0,1,48.75,145.72Z"/><path class="cls-3" d="M47.72,145.32l-.1-3.37a.26.26,0,0,1,.24-.26.26.26,0,0,1,.26.25h0l-.1,3.37a.15.15,0,1,1-.3,0Z"/><path class="cls-4" d="M11.37,13.42c0,9.51-.35,18.75-1.07,27.69-1.63,2.13-9.16,2.06-10.93,0a255.56,255.56,0,0,1-.78-28Z"/><path class="cls-4" d="M-.8,39C2,41.11,8,41.54,10.47,39"/><path class="cls-4" d="M-1.46,15c2.23-.81,7.46.64,12.82,0"/><path class="cls-4" d="M7.53,14.94,9.17,3.48c.51-1.66,1.61-1.89,3-1.42l9.73,2.48c-.81.46-.57,1.68-.57,1.68L12.94,3.78c-1.57-.51-2.51-.46-2.57,1.52l-1.1,9.85"/><path class="cls-4" d="M21.88,4.54c.85.43.47,2-.57,1.68"/><path class="cls-4" d="M-1.6,18.75A5.87,5.87,0,0,1-7.39,13a5.88,5.88,0,0,1,6-5.75,5.88,5.88,0,0,1,6,5.75"/><line class="cls-4" x1="-0.98" y1="12.21" x2="-0.04" y2="8.96"/><line class="cls-4" x1="-0.51" y1="12.49" x2="2.54" y2="10.59"/><path class="cls-4" d="M34.93,16.78s4.21,5,5.37,3.39C41.29,18.84,34.93,16.78,34.93,16.78Z"/><path class="cls-4" d="M35,16.78s6,2.66,6.78.86C42.42,16.18,35,16.78,35,16.78Z"/><path class="cls-4" d="M34.88,16.85s4.68,4.55,3.22,5.88C36.93,23.86,34.88,16.85,34.88,16.85Z"/><path class="cls-4" d="M35.16,17s-6.62-1.51-5.5-3.21C30.52,12.36,35.16,17,35.16,17Z"/><path class="cls-4" d="M35.15,16.94s-5.07-4.06-3.65-5.46C32.62,10.28,35.15,16.94,35.15,16.94Z"/><path class="cls-4" d="M35.11,17s-6.32-2.13-7-.32C27.51,18.2,35.11,17,35.11,17Z"/><path class="cls-4" d="M34.8,16.94s5.32-3.86,3.74-5.13C37.28,10.73,34.8,16.94,34.8,16.94Z"/><path class="cls-4" d="M34.8,16.92s3.06-5.83,1.31-6.71C34.7,9.43,34.8,16.92,34.8,16.92Z"/><path class="cls-4" d="M34.87,17s4.84-4.37,6.08-2.82C42,15.41,34.87,17,34.87,17Z"/><path class="cls-4" d="M35,16.73s-1.94,6.5-3.55,5.27C30.1,21.05,35,16.73,35,16.73Z"/><path class="cls-4" d="M35,16.74S30.6,21.53,29.28,20C28.17,18.83,35,16.74,35,16.74Z"/><path class="cls-4" d="M35.08,16.35s-2.55,6.17-.78,7C35.73,24,35.08,16.35,35.08,16.35Z"/><path class="cls-3" d="M36.39,90.09l-1.6-1.36a.25.25,0,0,1,0-.35.25.25,0,0,1,.36,0v0l1.47,1.5a.14.14,0,0,1,0,.21A.15.15,0,0,1,36.39,90.09Z"/><path class="cls-3" d="M37.71,89.93l1.36-1.6a.25.25,0,1,1,.38.32l0,0-1.5,1.47a.15.15,0,0,1-.21,0A.14.14,0,0,1,37.71,89.93Z"/><path class="cls-3" d="M36.71,91.45l-1.36,1.6a.25.25,0,1,1-.38-.33h0l1.5-1.47a.16.16,0,0,1,.22,0A.15.15,0,0,1,36.71,91.45Z"/><path class="cls-3" d="M37.93,91.1l1.59,1.36a.25.25,0,1,1-.32.38h0l-1.46-1.5a.16.16,0,0,1,0-.22A.15.15,0,0,1,37.93,91.1Z"/><path class="cls-3" d="M37.06,89.67l-.1-2.1a.25.25,0,0,1,.24-.26.24.24,0,0,1,.26.24v0l-.09,2.1a.16.16,0,0,1-.17.14A.14.14,0,0,1,37.06,89.67Z"/><path class="cls-3" d="M37.37,91.53l.09,2.09a.26.26,0,0,1-.24.27.26.26,0,0,1-.26-.24v0l.1-2.09a.16.16,0,0,1,.16-.15A.17.17,0,0,1,37.37,91.53Z"/><circle class="cls-4" cx="34.94" cy="130.22" r="4.02"/><circle class="cls-4" cx="34.94" cy="130.22" r="1.97"/><path class="cls-1" d="M98.77,3H134c2.49,8.67.66,16.48-2.83,24C124.81,15.85,113.43,8.26,98.77,3Z"/><polygon class="cls-1" points="80.99 7.22 81.51 4.47 79.39 2.65 76.75 3.58 76.23 6.32 78.35 8.15 80.99 7.22"/><polygon class="cls-1" points="68.88 14.94 69.63 11.01 66.59 8.4 62.82 9.72 62.08 13.66 65.11 16.26 68.88 14.94"/><polygon class="cls-1" points="59.32 31.23 61.18 25.8 57.4 21.48 51.76 22.59 49.91 28.02 53.69 32.35 59.32 31.23"/><polygon class="cls-1" points="91.7 5.33 92.02 3.62 90.71 2.49 89.07 3.06 88.75 4.77 90.06 5.9 91.7 5.33"/><path class="cls-1" d="M30.88,46.06c7.91,7.45,14,12.33,16.32,25.8"/><ellipse class="cls-1" cx="29.73" cy="41.3" rx="2.26" ry="4.86" transform="translate(-11.68 11.73) rotate(-18.72)"/><ellipse class="cls-1" cx="26.06" cy="47.12" rx="4.86" ry="2.26" transform="translate(-2.03 1.18) rotate(-2.5)"/><ellipse class="cls-1" cx="45.03" cy="41.98" rx="4.86" ry="2.26" transform="translate(-7.27 9.5) rotate(-11.15)"/><ellipse class="cls-1" cx="39.74" cy="37.57" rx="4.86" ry="2.26" transform="translate(-1.19 73.84) rotate(-84.93)"/><path class="cls-1" d="M40,42.44c-1.42,2.65-1.84,6.34-1.74,10.59"/><ellipse class="cls-1" cx="49.9" cy="58.75" rx="3.01" ry="1.4" transform="translate(-10.42 10.76) rotate(-11.15)"/><ellipse class="cls-1" cx="46.63" cy="56.03" rx="3.01" ry="1.4" transform="translate(-13.3 97.52) rotate(-84.93)"/><path class="cls-1" d="M46.77,59a13.59,13.59,0,0,0-1.08,6.55"/><path class="cls-4" d="M102.55,114.19c15.63-12.41-19.29-27.27-17.69-5.21l.77-.29a42.39,42.39,0,0,0,16.21,4.64Z"/><path class="cls-4" d="M82,110.49l-2.28-3.23-2.9,1.88,2.75,4.48c-3.07,5.14-2.59,9.65,2.67,13.13a26.65,26.65,0,0,0,6.57,2.55c2.85.74,5.82,1.52,9,1a8,8,0,0,0,4.88-3.56,12.3,12.3,0,0,0,1.36-3.08,17.08,17.08,0,0,0,.43-1.85q.09-.5.15-1c0-.21,0-.8.1-1C121.55,97.68,81.64,83.81,82.93,110"/><path class="cls-4" d="M85.63,108.69c3.13-4.31,16.35-1.15,16.21,4.64"/><ellipse class="cls-4" cx="95.48" cy="105.58" rx="1.71" ry="2.37" transform="translate(-30.78 171.33) rotate(-75.38)"/><path class="cls-4" d="M79.73,107.26a1.56,1.56,0,0,0-.94-2.1l-3.36,2a1.79,1.79,0,0,0,1.4,2"/><path class="cls-4" d="M104.7,120.13a12.76,12.76,0,0,0-2.15-5.94"/><path class="cls-4" d="M79.58,113.62A12.46,12.46,0,0,1,84.86,109"/><path class="cls-1" d="M103.49,144.63h24.45V78.77C124.85,109.37,121,131.69,103.49,144.63Z"/><path class="cls-4" d="M141.24,108.43l.51,28.28a4.7,4.7,0,0,1-3.79,0l.51-28.19A9.9,9.9,0,0,0,141.24,108.43Z"/><path class="cls-4" d="M138,135.73c-6.77,3.27,10.47,3,3.77,0"/><path class="cls-4" d="M136.36,137v6.29a10,10,0,0,0,7-.1V137"/><path class="cls-4" d="M140.07,107.51c-2.74.54-.21-5.68-.76-10.86"/><path class="cls-4" d="M139.86,108.57a1.47,1.47,0,0,0,.21-1.06"/><path class="cls-4" d="M140.07,107.49c2.79.15-.44-5.65-.64-10.85"/><path class="cls-2" d="M91,142.6c-.38.46-2.23-.82-2.23-.82s0,2.25-.59,2.3-1-2.15-1-2.15-1.58,1.59-2,1.21.82-2.23.82-2.23-2.24,0-2.3-.58,2.16-1,2.16-1-1.6-1.58-1.22-2,2.23.82,2.23.82,0-2.25.59-2.3,1,2.15,1,2.15,1.59-1.59,2-1.21S89.6,139,89.6,139s2.24,0,2.3.58-2.16,1-2.16,1S91.33,142.15,91,142.6Z"/><path class="cls-1" d="M120.85,70.35c-1.82,5.47-13.13,16.32-13.13,16.32s-2.59-15.46-.77-20.94,7-1,5.51,6.67C116.32,65.53,122.67,64.88,120.85,70.35Z"/><path class="cls-1" d="M117.06,36.38a6.51,6.51,0,0,0-3.81,1.22,3.31,3.31,0,0,1,1.52,2.81"/><path class="cls-1" d="M116.92,40c-.57-2.64.25-4.7,1.87-6.79.27.85.71,1.41,1.43,1.5"/><path class="cls-1" d="M118.42,40c-1.55-.25-3.56.36-5.62,1.09.22-.08,1,.52,1.23.64a9.12,9.12,0,0,1,1.1.84,11.66,11.66,0,0,1,1.75,2c.94,1.34,1.66,2.82,2.62,4.14a3.66,3.66,0,0,0,3.13,1.84,7.85,7.85,0,0,0,4.42-2.28c1.53-1.36,3.6-3.62,3.54-5.8a3.6,3.6,0,0,0-1.87-2.73c-2.51-1.74-5.66-2.83-7-5.84a6.47,6.47,0,0,1-.35-1,33.86,33.86,0,0,0-3.79,12.82"/><path class="cls-1" d="M136.38,85.79c6.37-11,3.91-23.65-8.63-38.18"/><path class="cls-1" d="M129.9,44.9a3.3,3.3,0,0,0,2.53.84,5.08,5.08,0,0,1-4.19,1.36"/><path class="cls-1" d="M125,50a3.22,3.22,0,0,1,.71,2.56,5,5,0,0,0,1.57-4.11"/><path class="cls-1" d="M133.46,55a3.26,3.26,0,0,0,1.69-2.07,5.05,5.05,0,0,1-.22,4.4"/><path class="cls-1" d="M138.68,65.39a3.27,3.27,0,0,0,2.22-1.47,5,5,0,0,1-1.51,4.13"/><path class="cls-1" d="M139.34,78.39a3.25,3.25,0,0,0,2.66-.07,5,5,0,0,1-3.48,2.7"/><path class="cls-1" d="M136.47,60.42a3.28,3.28,0,0,1-2.66.21A5,5,0,0,0,137.55,63"/><path class="cls-1" d="M139.57,72.43a3.24,3.24,0,0,1-2.57-.7,5.07,5.07,0,0,0,2.73,3.45"/><ellipse class="cls-4" cx="101.28" cy="21.64" rx="9.6" ry="7.68" transform="translate(56.25 114.91) rotate(-76.29)"/><polyline class="cls-4" points="98.01 30.72 96.77 32.02 100.64 32.96 100.06 31.22"/><path class="cls-4" d="M98.63,32.47c-7.27,6.59,6.27,16-1.09,36.88"/><path class="cls-4" d="M96.77,17c1.81-2.45,3.89-3.48,6.16-3.36"/><path class="cls-4" d="M80.84,52.68,79.43,43c.48-2.62,4.64-.86,5.47,3.68C85.65,51.85,83.22,56.09,80.84,52.68Z"/><path class="cls-4" d="M83.22,57.47c-2.83,1.26-3.56.79-3.65-3.72-.16-3.86-.79-6.34-2.45-5.75A2.15,2.15,0,0,1,77,46.76a6.75,6.75,0,0,0,.57-.41,1.31,1.31,0,0,0,.16-.7c0-.66-.16-1.32-.19-2a3.37,3.37,0,0,1,1.19-2.8,4.1,4.1,0,0,1,3.48-.5,4.26,4.26,0,0,1,2.09,1.14,8.28,8.28,0,0,1,2,4.94A13.4,13.4,0,0,1,86,52.25,17.33,17.33,0,0,1,83.22,57.47Z"/><path class="cls-4" d="M82.63,57.72a8.9,8.9,0,0,0-1.87,5.83l.5,6.67L82,90.93c.08,1.57-.56,1.94-1,.73a118.6,118.6,0,0,1-3.43-19.77C76.38,59.67,79,61.76,78.76,58.38l-1-10.45"/><path class="cls-4" d="M67.64,56.39,62,48.46c-2.15-1.56-3.94,2.59-1.4,6.44C63.59,59.13,68.28,60.5,67.64,56.39Z"/><path class="cls-4" d="M69.23,61.5c2.92-1,3.12-1.89.07-5.21-2.56-2.89-3.83-5.12-2.21-5.84a2.23,2.23,0,0,0-.76-1,4.5,4.5,0,0,1-.69.1,1.26,1.26,0,0,1-.6-.39c-.48-.46-.8-1.06-1.24-1.56A3.38,3.38,0,0,0,61,46.38a4.09,4.09,0,0,0-2.86,2.06,4.33,4.33,0,0,0-.73,2.26,8.28,8.28,0,0,0,1.95,5,13.14,13.14,0,0,0,4.23,4A17.23,17.23,0,0,0,69.23,61.5Z"/><path class="cls-4" d="M77.75,62c-2.54-2.1-3.22-1.2-4.67-2.94l-6.5-8.23"/><path class="cls-4" d="M81.31,71.43,93.24,84.84c1,1.19,1.74,1,1.2-.14a118.36,118.36,0,0,0-11.2-16.65c-.84-1.08-1.59-2-2.26-2.77"/><path class="cls-4" d="M69.83,61.27a9,9,0,0,1,5.39,2.92l2.06,2.51"/><circle class="cls-5" cx="79.33" cy="65.12" r="0.78"/><circle class="cls-4" cx="79.85" cy="25.8" r="3.43"/><path class="cls-3" d="M76.49,26.45l-1.18,1.21a.21.21,0,0,1-.29,0,.19.19,0,0,1,0-.28h0l1.3-1.1a.12.12,0,0,1,.17,0A.12.12,0,0,1,76.49,26.45Z"/><path class="cls-3" d="M76.28,25.38l-1.22-1.19a.2.2,0,0,1,.28-.29l0,0,1.1,1.29a.12.12,0,0,1,0,.17A.11.11,0,0,1,76.28,25.38Z"/><path class="cls-3" d="M76.26,26l-1.7.08a.2.2,0,0,1-.21-.19.21.21,0,0,1,.2-.21h0l1.7.08a.12.12,0,0,1,.12.13A.13.13,0,0,1,76.26,26Z"/><path class="cls-3" d="M83.36,26.08l1.29,1.1a.2.2,0,0,1,0,.29.2.2,0,0,1-.28,0h0l-1.19-1.22a.12.12,0,0,1,0-.17A.12.12,0,0,1,83.36,26.08Z"/><path class="cls-3" d="M83.23,25l1.1-1.29a.2.2,0,0,1,.3.26h0l-1.21,1.19a.13.13,0,0,1-.18,0A.14.14,0,0,1,83.23,25Z"/><path class="cls-3" d="M83.42,25.55l1.7-.08a.21.21,0,0,1,.21.19.2.2,0,0,1-.19.21h0l-1.7-.07a.12.12,0,0,1-.11-.13A.11.11,0,0,1,83.42,25.55Z"/><path class="cls-3" d="M80.55,29.08l1.21,1.19a.19.19,0,0,1,0,.28.2.2,0,0,1-.28,0v0l-1.11-1.29a.12.12,0,0,1,0-.17A.14.14,0,0,1,80.55,29.08Z"/><path class="cls-3" d="M79.47,29.3l-1.18,1.21a.22.22,0,0,1-.29,0,.21.21,0,0,1,0-.29h0l1.3-1.1a.12.12,0,0,1,.17,0A.12.12,0,0,1,79.47,29.3Z"/><path class="cls-3" d="M80.08,29.32,80.16,31a.2.2,0,0,1-.19.21.19.19,0,0,1-.21-.19v0l.07-1.69A.13.13,0,0,1,80,29.2.12.12,0,0,1,80.08,29.32Z"/><path class="cls-3" d="M79.18,22.45,78,21.27A.22.22,0,0,1,78,21a.21.21,0,0,1,.29,0h0l1.1,1.3a.12.12,0,0,1,0,.17A.12.12,0,0,1,79.18,22.45Z"/><path class="cls-3" d="M80.25,22.24,81.44,21a.2.2,0,0,1,.29.28l0,0-1.29,1.1a.12.12,0,0,1-.17,0A.11.11,0,0,1,80.25,22.24Z"/><path class="cls-3" d="M79.65,22.22l-.08-1.7a.2.2,0,0,1,.19-.21.21.21,0,0,1,.21.2h0l-.08,1.7a.12.12,0,0,1-.13.12A.13.13,0,0,1,79.65,22.22Z"/><circle class="cls-1" cx="167.01" cy="66.28" r="14.74"/><ellipse class="cls-1" cx="162.81" cy="58.13" rx="3.32" ry="2.45" transform="translate(-2.11 109.99) rotate(-37.11)"/><path class="cls-1" d="M162.69,60.87Q159.64,71,167,81"/><path class="cls-1" d="M159.83,59.45a13.91,13.91,0,0,0-7.14,4"/><path class="cls-1" d="M165.34,59c6.37,2.81,11.62,6.8,15.32,12.87"/><path class="cls-1" d="M165.43,56.1a23.78,23.78,0,0,1,10.49-1.57"/><path class="cls-1" d="M160.82,56.61a6.06,6.06,0,0,1-3-1.88"/><path class="cls-1" d="M163.58,55.32a3.86,3.86,0,0,1,1.11-3.6"/><path class="cls-1" d="M217.1,133.74c-4.78-16.07-16.24-23.69-33.13-24.42-4.8-2.28-7.24-5.18-7.28-8.72,20,3.29,27-2.21,37.78,8.11,15.46,14.12,6.53,23,16.55,29.81C226.8,140.92,221.94,138.81,217.1,133.74Z"/><path class="cls-1" d="M192.28,110.33c-2.2,3.7,19.05,21.69,23.38,19.31"/><path class="cls-1" d="M199.56,102.05c-1.83,1.92-.46,9-2.84,9.49"/><path class="cls-1" d="M191.94,101.85c-1.17,2.71,1.11,7.89-1,8.22"/><path class="cls-1" d="M184.27,101.52c-.73,2.69,1.94,5.57,1.15,7.88"/><path class="cls-1" d="M219.05,114.21c-3.29,4.3-10.49,2.54-11.43,3.52"/><path class="cls-1" d="M211.62,106.31c-2.24,3.18-6.16,3.92-9,7.88"/><path class="cls-1" d="M212.2,123.13c4.62-2.11,8,1.09,12.17,2.63"/><path class="cls-1" d="M226,131.78c-4.48-.69-8.61-3.63-10.69-3"/><path class="cls-1" d="M228.4,136.25c-3.64,0-8.45-2.68-10.75-1.95"/><path class="cls-1" d="M204.67,119.25c-.54,3-1.91.89-2.68,3.41"/><path class="cls-1" d="M206.7,117.13c.12,2.44-.65,1.39-2,2.12"/><path class="cls-1" d="M202.18,117.05c-.54,3-1.91.88-2.68,3.4"/><path class="cls-1" d="M204.22,115.19c.05,2.09-.71,1.15-2,1.86"/><path class="cls-1" d="M199.71,114.78c-.54,3-1.91.89-2.68,3.41"/><path class="cls-1" d="M201.71,113.69c-.16,1.08-.88.5-2,1.09"/><path class="cls-1" d="M197.5,112.24c-.54,3-1.91.89-2.68,3.41"/><path class="cls-1" d="M198.06,112a3.08,3.08,0,0,0-.56.22"/><path class="cls-1" d="M195.18,111.05c-.65.91-1.6.11-2.2,2"/><path class="cls-1" d="M214.68,127.44c-.64.65-1.51.07-2.06,1.89"/><path class="cls-1" d="M210.11,123.13c-.55,3-1.92.89-2.68,3.41"/><path class="cls-1" d="M211.84,122.62c-.33.26-.93.08-1.73.51"/><path class="cls-1" d="M207.47,121.42c-.54,3-1.91.89-2.68,3.41"/><path class="cls-1" d="M209.52,119.72c0,1.89-.75,1-2.05,1.7"/><path class="cls-1" d="M212.54,124.72c-.54,3-1.91.89-2.67,3.41"/><path class="cls-1" d="M213.1,124.5a2.69,2.69,0,0,0-.56.22"/><path class="cls-1" d="M162.19,145.83c-.85-8.48.62-14.55,4.24-24-7.11,7.23-9,15-10.19,24Z"/><path class="cls-1" d="M168,126.41A20.19,20.19,0,0,1,178.46,133c-.63-4.16-3.19-7.54-6.93-10.44a7.32,7.32,0,0,1,5.88.52c-1.34-2.71-3.85-4.22-7.19-4.91.73-.76,2.07-1.26,4.21-1.4-3.44-2.63-6.82-2.27-10.12,1.31a12.25,12.25,0,0,0-11,0c2.17.1,3.79.81,4.65,2.37a12.79,12.79,0,0,0-8.16,5.62c2.71-1.9,9.47-2.63,12.54.17"/><path class="cls-1" d="M215.92,91.65a1.64,1.64,0,0,0-2.17-.74,2,2,0,0,0-.89,2.68,2.55,2.55,0,0,0,3.39,1.15,3.09,3.09,0,0,0,1.39-4.19,4,4,0,0,0-5.3-1.79,4.83,4.83,0,0,0-2.17,6.55,6.24,6.24,0,0,0,8.28,2.8c3.8-1.86,5.31-7,3.86-11.4-3.88-13.42-40.51-15.87-55.69,22.05"/><path class="cls-2" d="M158.53,102.22c-.38.46-2.23-.82-2.23-.82s0,2.25-.59,2.3-1-2.15-1-2.15-1.58,1.59-2,1.21.82-2.23.82-2.23-2.24,0-2.3-.58,2.16-1,2.16-1-1.6-1.59-1.22-2,2.23.81,2.23.81,0-2.24.59-2.29,1,2.15,1,2.15,1.58-1.59,2-1.21-.82,2.22-.82,2.22,2.24,0,2.3.59-2.16,1-2.16,1S158.91,101.76,158.53,102.22Z"/><path class="cls-3" d="M175.73,145.72l-2.37-2.4a.25.25,0,0,1,0-.35.24.24,0,0,1,.35,0h0l2.23,2.53a.16.16,0,0,1,0,.22A.15.15,0,0,1,175.73,145.72Z"/><path class="cls-3" d="M177.71,145.71l2.4-2.37a.26.26,0,0,1,.36,0,.25.25,0,0,1,0,.35h0l-2.53,2.23a.16.16,0,0,1-.22,0A.15.15,0,0,1,177.71,145.71Z"/><path class="cls-3" d="M176.68,145.32l-.09-3.37a.24.24,0,0,1,.24-.26.25.25,0,0,1,.26.24v0l-.1,3.37a.16.16,0,0,1-.16.15A.17.17,0,0,1,176.68,145.32Z"/><path class="cls-3" d="M190.84,145.73l-2.37-2.41a.24.24,0,0,1,0-.35.25.25,0,0,1,.36,0h0l2.23,2.54a.15.15,0,0,1,0,.21A.15.15,0,0,1,190.84,145.73Z"/><path class="cls-3" d="M192.82,145.72l2.4-2.37a.25.25,0,0,1,.35.35h0L193,145.94a.16.16,0,0,1-.22,0A.15.15,0,0,1,192.82,145.72Z"/><path class="cls-3" d="M191.79,145.32l-.1-3.37a.26.26,0,0,1,.25-.26.25.25,0,0,1,.25.25h0l-.09,3.37a.15.15,0,0,1-.16.15A.15.15,0,0,1,191.79,145.32Z"/><path class="cls-3" d="M203.77,145.73l-2.37-2.41a.25.25,0,1,1,.35-.35h0l2.23,2.54a.14.14,0,0,1,0,.21A.15.15,0,0,1,203.77,145.73Z"/><path class="cls-3" d="M205.75,145.72l2.4-2.37a.25.25,0,0,1,.35.35h0L206,145.94a.16.16,0,0,1-.22,0A.14.14,0,0,1,205.75,145.72Z"/><path class="cls-3" d="M204.72,145.32l-.1-3.37a.26.26,0,0,1,.24-.26.26.26,0,0,1,.26.25h0l-.1,3.37a.15.15,0,0,1-.3,0Z"/><path class="cls-4" d="M168.37,13.42c0,9.51-.35,18.75-1.07,27.69-1.63,2.13-9.16,2.06-10.93,0a255.56,255.56,0,0,1-.78-28Z"/><path class="cls-4" d="M156.2,39c2.8,2.12,8.76,2.55,11.27,0"/><path class="cls-4" d="M155.54,15c2.23-.81,7.46.64,12.82,0"/><path class="cls-4" d="M164.53,14.94l1.64-11.46c.51-1.66,1.61-1.89,3-1.42l9.73,2.48c-.81.46-.57,1.68-.57,1.68l-8.37-2.44c-1.57-.51-2.51-.46-2.57,1.52l-1.1,9.85"/><path class="cls-4" d="M178.88,4.54c.85.43.47,2-.57,1.68"/><path class="cls-4" d="M155.4,18.75A5.87,5.87,0,0,1,149.61,13a6,6,0,0,1,12,0"/><path class="cls-4" d="M155.35,14.34a1.1,1.1,0,0,1-.77-1.06,1.12,1.12,0,0,1,2.2-.27"/><line class="cls-4" x1="156.02" y1="12.21" x2="156.96" y2="8.96"/><line class="cls-4" x1="155.37" y1="12.21" x2="154.58" y2="8.96"/><line class="cls-4" x1="154.73" y1="12.72" x2="151.72" y2="11.03"/><line class="cls-4" x1="156.49" y1="12.49" x2="159.54" y2="10.59"/><line class="cls-4" x1="154.58" y1="13.28" x2="151.17" y2="13.99"/><line class="cls-4" x1="154.98" y1="14.12" x2="153.72" y2="16.74"/><path class="cls-4" d="M191.93,16.78s4.21,5,5.37,3.39C198.29,18.84,191.93,16.78,191.93,16.78Z"/><path class="cls-4" d="M192,16.78s6,2.66,6.78.86C199.42,16.18,192,16.78,192,16.78Z"/><path class="cls-4" d="M191.88,16.85s4.68,4.55,3.22,5.88C193.93,23.86,191.88,16.85,191.88,16.85Z"/><path class="cls-4" d="M192.16,17s-6.62-1.51-5.5-3.21C187.52,12.36,192.16,17,192.16,17Z"/><path class="cls-4" d="M192.15,16.94s-5.07-4.06-3.65-5.46C189.62,10.28,192.15,16.94,192.15,16.94Z"/><path class="cls-4" d="M192.11,17s-6.32-2.13-7-.32C184.51,18.2,192.11,17,192.11,17Z"/><path class="cls-4" d="M191.8,16.94s5.32-3.86,3.74-5.13C194.28,10.73,191.8,16.94,191.8,16.94Z"/><path class="cls-4" d="M191.8,16.92s3.06-5.83,1.31-6.71C191.7,9.43,191.8,16.92,191.8,16.92Z"/><path class="cls-4" d="M191.87,17s4.84-4.37,6.08-2.82C199,15.41,191.87,17,191.87,17Z"/><path class="cls-4" d="M192,16.73s-1.94,6.5-3.55,5.27C187.1,21.05,192,16.73,192,16.73Z"/><path class="cls-4" d="M192,16.74s-4.38,4.79-5.7,3.28C185.17,18.83,192,16.74,192,16.74Z"/><path class="cls-4" d="M192.08,16.35s-2.55,6.17-.78,7C192.73,24,192.08,16.35,192.08,16.35Z"/><path class="cls-3" d="M193.39,90.09l-1.6-1.36a.25.25,0,0,1,0-.35.25.25,0,0,1,.36,0v0l1.47,1.5a.15.15,0,0,1,0,.21A.15.15,0,0,1,193.39,90.09Z"/><path class="cls-3" d="M194.71,89.93l1.36-1.6a.25.25,0,1,1,.38.32l0,0-1.5,1.47a.15.15,0,0,1-.21,0A.14.14,0,0,1,194.71,89.93Z"/><path class="cls-3" d="M193.71,91.45l-1.36,1.6a.25.25,0,1,1-.38-.33h0l1.5-1.47a.16.16,0,0,1,.22,0A.15.15,0,0,1,193.71,91.45Z"/><path class="cls-3" d="M194.93,91.1l1.59,1.36a.25.25,0,0,1-.32.38h0l-1.46-1.5a.16.16,0,0,1,0-.22A.15.15,0,0,1,194.93,91.1Z"/><path class="cls-3" d="M194.06,89.67l-.1-2.1a.25.25,0,0,1,.24-.26.24.24,0,0,1,.26.24v0l-.09,2.1a.16.16,0,0,1-.17.14A.14.14,0,0,1,194.06,89.67Z"/><path class="cls-3" d="M194.37,91.53l.09,2.09a.26.26,0,0,1-.24.27.26.26,0,0,1-.26-.24v0l.1-2.09a.16.16,0,0,1,.16-.15A.17.17,0,0,1,194.37,91.53Z"/><circle class="cls-4" cx="191.94" cy="130.22" r="4.02"/><circle class="cls-4" cx="191.94" cy="130.22" r="1.97"/><path class="cls-1" d="M255.77,3H291c2.49,8.67.66,16.48-2.83,24C281.81,15.85,270.43,8.26,255.77,3Z"/><polygon class="cls-1" points="237.99 7.22 238.51 4.47 236.38 2.65 233.75 3.58 233.23 6.32 235.35 8.15 237.99 7.22"/><polygon class="cls-1" points="225.88 14.94 226.63 11.01 223.59 8.4 219.82 9.72 219.07 13.66 222.11 16.26 225.88 14.94"/><polygon class="cls-1" points="216.32 31.23 218.18 25.8 214.4 21.48 208.76 22.59 206.91 28.02 210.69 32.35 216.32 31.23"/><polygon class="cls-1" points="248.7 5.33 249.02 3.62 247.71 2.49 246.07 3.06 245.75 4.77 247.06 5.9 248.7 5.33"/><path class="cls-1" d="M187.88,46.06c7.91,7.45,14,12.33,16.32,25.8"/><ellipse class="cls-1" cx="186.73" cy="41.3" rx="2.26" ry="4.86" transform="translate(-3.38 62.13) rotate(-18.72)"/><ellipse class="cls-1" cx="183.06" cy="47.12" rx="4.86" ry="2.26" transform="translate(-1.88 8.03) rotate(-2.5)"/><ellipse class="cls-1" cx="202.03" cy="41.98" rx="4.86" ry="2.26" transform="translate(-4.3 39.88) rotate(-11.15)"/><ellipse class="cls-1" cx="196.74" cy="37.57" rx="4.86" ry="2.26" transform="translate(141.94 230.22) rotate(-84.93)"/><path class="cls-1" d="M197,42.44c-1.42,2.65-1.84,6.34-1.74,10.59"/><ellipse class="cls-1" cx="206.9" cy="58.75" rx="3.01" ry="1.4" transform="translate(-7.46 41.14) rotate(-11.15)"/><ellipse class="cls-1" cx="203.63" cy="56.03" rx="3.01" ry="1.4" transform="translate(129.83 253.91) rotate(-84.93)"/><path class="cls-1" d="M203.77,59a13.59,13.59,0,0,0-1.08,6.55"/><path class="cls-4" d="M259.55,114.19c15.63-12.41-19.29-27.27-17.69-5.21l.77-.29a42.39,42.39,0,0,0,16.21,4.64Z"/><path class="cls-4" d="M239,110.49l-2.28-3.23-2.9,1.88,2.75,4.48c-3.07,5.14-2.59,9.65,2.67,13.13a26.65,26.65,0,0,0,6.57,2.55c2.85.74,5.82,1.52,9,1a8,8,0,0,0,4.88-3.56,12.3,12.3,0,0,0,1.36-3.08,17.08,17.08,0,0,0,.43-1.85q.09-.5.15-1c0-.21,0-.8.1-1,16.79-22.21-23.12-36.08-21.83-9.87"/><path class="cls-4" d="M242.63,108.69c3.13-4.31,16.35-1.15,16.21,4.64"/><ellipse class="cls-4" cx="252.48" cy="105.58" rx="1.71" ry="2.37" transform="translate(86.59 323.24) rotate(-75.38)"/><path class="cls-4" d="M236.73,107.26a1.56,1.56,0,0,0-.94-2.1l-3.36,2a1.79,1.79,0,0,0,1.4,2"/><path class="cls-4" d="M261.7,120.13a12.76,12.76,0,0,0-2.15-5.94"/><path class="cls-4" d="M236.58,113.62a12.46,12.46,0,0,1,5.28-4.64"/><path class="cls-1" d="M260.49,144.63h24.45V78.77C281.85,109.37,278,131.69,260.49,144.63Z"/><path class="cls-4" d="M298.24,108.43l.51,28.28a4.7,4.7,0,0,1-3.79,0l.51-28.19A9.9,9.9,0,0,0,298.24,108.43Z"/><path class="cls-4" d="M295,135.73c-6.77,3.27,10.47,3,3.77,0"/><path class="cls-4" d="M293.36,137v6.29a10,10,0,0,0,7-.1V137"/><path class="cls-4" d="M297.07,107.51c-2.74.54-.21-5.68-.76-10.86"/><path class="cls-4" d="M296.86,108.57a1.47,1.47,0,0,0,.21-1.06"/><path class="cls-4" d="M297.07,107.49c2.79.15-.44-5.65-.64-10.85"/><path class="cls-2" d="M248,142.6c-.38.46-2.23-.82-2.23-.82s0,2.25-.59,2.3-1-2.15-1-2.15-1.58,1.59-2,1.21.82-2.23.82-2.23-2.24,0-2.3-.58,2.16-1,2.16-1-1.6-1.58-1.22-2,2.23.82,2.23.82,0-2.25.59-2.3,1,2.15,1,2.15,1.59-1.59,2-1.21-.82,2.23-.82,2.23,2.24,0,2.3.58-2.16,1-2.16,1S248.33,142.15,248,142.6Z"/><path class="cls-1" d="M277.85,70.35c-1.82,5.47-13.13,16.32-13.13,16.32s-2.59-15.46-.77-20.94,7-1,5.51,6.67C273.32,65.53,279.67,64.88,277.85,70.35Z"/><path class="cls-1" d="M274.06,36.38a6.51,6.51,0,0,0-3.81,1.22,3.31,3.31,0,0,1,1.52,2.81"/><path class="cls-1" d="M273.92,40c-.57-2.64.25-4.7,1.87-6.79.27.85.71,1.41,1.43,1.5"/><path class="cls-1" d="M275.42,40c-1.55-.25-3.56.36-5.62,1.09.22-.08,1,.52,1.23.64a9.12,9.12,0,0,1,1.1.84,11.66,11.66,0,0,1,1.75,2c.94,1.34,1.66,2.82,2.62,4.14a3.66,3.66,0,0,0,3.13,1.84,7.85,7.85,0,0,0,4.42-2.28c1.53-1.36,3.6-3.62,3.54-5.8a3.6,3.6,0,0,0-1.87-2.73c-2.51-1.74-5.66-2.83-7-5.84a6.47,6.47,0,0,1-.35-1,33.86,33.86,0,0,0-3.79,12.82"/><path class="cls-1" d="M293.38,85.79c6.37-11,3.91-23.65-8.63-38.18"/><path class="cls-1" d="M286.9,44.9a3.3,3.3,0,0,0,2.53.84,5.08,5.08,0,0,1-4.19,1.36"/><path class="cls-1" d="M282,50a3.22,3.22,0,0,1,.71,2.56,5,5,0,0,0,1.57-4.11"/><path class="cls-1" d="M290.46,55a3.26,3.26,0,0,0,1.69-2.07,5.05,5.05,0,0,1-.22,4.4"/><path class="cls-1" d="M295.68,65.39a3.27,3.27,0,0,0,2.22-1.47,5,5,0,0,1-1.51,4.13"/><path class="cls-1" d="M296.34,78.39a3.25,3.25,0,0,0,2.66-.07,5,5,0,0,1-3.48,2.7"/><path class="cls-1" d="M293.47,60.42a3.28,3.28,0,0,1-2.66.21A5,5,0,0,0,294.55,63"/><path class="cls-1" d="M296.57,72.43a3.24,3.24,0,0,1-2.57-.7,5.07,5.07,0,0,0,2.73,3.45"/><ellipse class="cls-4" cx="258.28" cy="21.64" rx="9.6" ry="7.68" transform="translate(176.05 267.44) rotate(-76.29)"/><polyline class="cls-4" points="255.01 30.72 253.77 32.02 257.64 32.96 257.06 31.22"/><path class="cls-4" d="M255.63,32.47c-7.27,6.59,6.27,16-1.09,36.88"/><path class="cls-4" d="M253.77,17c1.81-2.45,3.89-3.48,6.16-3.36"/><path class="cls-4" d="M237.84,52.68,236.43,43c.48-2.62,4.64-.86,5.47,3.68C242.65,51.85,240.22,56.09,237.84,52.68Z"/><path class="cls-4" d="M240.22,57.47c-2.83,1.26-3.56.79-3.65-3.72-.16-3.86-.79-6.34-2.45-5.75a2.15,2.15,0,0,1-.15-1.24,6.75,6.75,0,0,0,.57-.41,1.31,1.31,0,0,0,.16-.7c0-.66-.16-1.32-.19-2a3.37,3.37,0,0,1,1.19-2.8,4.1,4.1,0,0,1,3.48-.5,4.26,4.26,0,0,1,2.09,1.14,8.28,8.28,0,0,1,2,4.94,13.4,13.4,0,0,1-.29,5.81A17.33,17.33,0,0,1,240.22,57.47Z"/><path class="cls-4" d="M239.63,57.72a8.9,8.9,0,0,0-1.87,5.83l.5,6.67L239,90.93c.08,1.57-.56,1.94-1,.73a118.6,118.6,0,0,1-3.43-19.77c-1.25-12.22,1.36-10.13,1.13-13.51l-1-10.45"/><path class="cls-4" d="M224.64,56.39,219,48.46c-2.15-1.56-3.94,2.59-1.4,6.44C220.59,59.13,225.28,60.5,224.64,56.39Z"/><path class="cls-4" d="M226.23,61.5c2.92-1,3.12-1.89.07-5.21-2.56-2.89-3.83-5.12-2.21-5.84a2.23,2.23,0,0,0-.76-1,4.5,4.5,0,0,1-.69.1,1.26,1.26,0,0,1-.6-.39c-.48-.46-.8-1.06-1.24-1.56A3.38,3.38,0,0,0,218,46.38a4.09,4.09,0,0,0-2.86,2.06,4.33,4.33,0,0,0-.73,2.26,8.28,8.28,0,0,0,2,5,13.14,13.14,0,0,0,4.23,4A17.23,17.23,0,0,0,226.23,61.5Z"/><path class="cls-4" d="M234.75,62c-2.54-2.1-3.22-1.2-4.67-2.94l-6.5-8.23"/><path class="cls-4" d="M238.31,71.43l11.93,13.41c1,1.19,1.74,1,1.2-.14a118.36,118.36,0,0,0-11.2-16.65c-.84-1.08-1.59-2-2.26-2.77"/><path class="cls-4" d="M226.83,61.27a9,9,0,0,1,5.39,2.92l2.06,2.51"/><circle class="cls-5" cx="236.33" cy="65.12" r="0.78"/><circle class="cls-4" cx="236.85" cy="25.8" r="3.43"/><path class="cls-3" d="M233.49,26.45l-1.18,1.21a.21.21,0,0,1-.29,0,.19.19,0,0,1,0-.28h0l1.3-1.1a.12.12,0,0,1,.17,0A.12.12,0,0,1,233.49,26.45Z"/><path class="cls-3" d="M233.28,25.38l-1.22-1.19a.2.2,0,0,1,.28-.29l0,0,1.1,1.29a.12.12,0,0,1,0,.17A.11.11,0,0,1,233.28,25.38Z"/><path class="cls-3" d="M233.26,26l-1.7.08a.2.2,0,0,1-.21-.19.21.21,0,0,1,.2-.21h0l1.7.08a.12.12,0,0,1,.12.13A.13.13,0,0,1,233.26,26Z"/><path class="cls-3" d="M240.36,26.08l1.29,1.1a.2.2,0,0,1,0,.29.2.2,0,0,1-.28,0h0l-1.19-1.22a.12.12,0,0,1,0-.17A.12.12,0,0,1,240.36,26.08Z"/><path class="cls-3" d="M240.23,25l1.1-1.29a.2.2,0,0,1,.3.26h0l-1.21,1.19a.13.13,0,0,1-.18,0A.14.14,0,0,1,240.23,25Z"/><path class="cls-3" d="M240.42,25.55l1.7-.08a.21.21,0,0,1,.21.19.2.2,0,0,1-.19.21h0l-1.7-.07a.12.12,0,0,1-.11-.13A.11.11,0,0,1,240.42,25.55Z"/><path class="cls-3" d="M237.55,29.08l1.21,1.19a.19.19,0,0,1,0,.28.2.2,0,0,1-.28,0v0l-1.11-1.29a.12.12,0,0,1,0-.17A.14.14,0,0,1,237.55,29.08Z"/><path class="cls-3" d="M236.47,29.3l-1.18,1.21a.22.22,0,0,1-.29,0,.21.21,0,0,1,0-.29h0l1.3-1.1a.12.12,0,0,1,.17,0A.12.12,0,0,1,236.47,29.3Z"/><path class="cls-3" d="M237.08,29.32l.08,1.69a.2.2,0,0,1-.19.21.19.19,0,0,1-.21-.19v0l.07-1.69a.13.13,0,0,1,.13-.12A.12.12,0,0,1,237.08,29.32Z"/><path class="cls-3" d="M236.18,22.45,235,21.27a.22.22,0,0,1,0-.29.21.21,0,0,1,.29,0h0l1.1,1.3a.12.12,0,0,1,0,.17A.12.12,0,0,1,236.18,22.45Z"/><path class="cls-3" d="M237.25,22.24,238.44,21a.2.2,0,0,1,.29.28l0,0-1.29,1.1a.12.12,0,0,1-.17,0A.11.11,0,0,1,237.25,22.24Z"/><path class="cls-3" d="M236.65,22.22l-.08-1.7a.2.2,0,0,1,.19-.21.21.21,0,0,1,.21.2h0l-.08,1.7a.12.12,0,0,1-.13.12A.13.13,0,0,1,236.65,22.22Z"/><circle class="cls-1" cx="325.01" cy="66.28" r="14.74"/><ellipse class="cls-1" cx="320.81" cy="58.13" rx="3.32" ry="2.45" transform="translate(29.88 205.31) rotate(-37.11)"/><path class="cls-1" d="M320.69,60.87Q317.65,71,325,81"/><path class="cls-1" d="M317.83,59.45a13.91,13.91,0,0,0-7.14,4"/><path class="cls-1" d="M323.34,59c6.37,2.81,11.62,6.8,15.32,12.87"/><path class="cls-1" d="M323.43,56.1a23.78,23.78,0,0,1,10.49-1.57"/><path class="cls-1" d="M318.82,56.61a6.06,6.06,0,0,1-3-1.88"/><path class="cls-1" d="M321.58,55.32a3.86,3.86,0,0,1,1.11-3.6"/><path class="cls-1" d="M375.1,133.74c-4.78-16.07-16.24-23.69-33.13-24.42-4.8-2.28-7.24-5.18-7.28-8.72,20,3.29,27-2.21,37.78,8.11,15.46,14.12,6.53,23,16.55,29.81C384.8,140.92,379.94,138.81,375.1,133.74Z"/><path class="cls-1" d="M350.28,110.33c-2.2,3.7,19.05,21.69,23.38,19.31"/><path class="cls-1" d="M349.94,101.85c-1.17,2.71,1.11,7.89-1,8.22"/><path class="cls-1" d="M342.27,101.52c-.73,2.69,1.94,5.57,1.15,7.88"/><path class="cls-1" d="M320.19,145.83c-.85-8.48.62-14.55,4.24-24-7.11,7.23-9,15-10.19,24Z"/><path class="cls-1" d="M326,126.41A20.19,20.19,0,0,1,336.46,133c-.63-4.16-3.19-7.54-6.93-10.44a7.32,7.32,0,0,1,5.88.52c-1.34-2.71-3.85-4.22-7.19-4.91.73-.76,2.07-1.26,4.21-1.4-3.44-2.63-6.82-2.27-10.12,1.31a12.25,12.25,0,0,0-11,0c2.17.1,3.79.81,4.65,2.37a12.79,12.79,0,0,0-8.16,5.62c2.71-1.9,9.47-2.63,12.54.17"/><circle class="cls-6" cx="5.81" cy="87.64" r="1.4"/><circle class="cls-6" cx="162.81" cy="87.64" r="1.4"/><circle class="cls-6" cx="155.33" cy="84.42" r="1.4"/><circle class="cls-6" cx="150.87" cy="78.34" r="1.4"/><circle class="cls-6" cx="320.81" cy="87.64" r="1.4"/><circle class="cls-6" cx="313.33" cy="84.42" r="1.4"/><circle class="cls-6" cx="308.87" cy="78.34" r="1.4"/><path class="cls-1" d="M373.92,91.65a1.64,1.64,0,0,0-2.17-.74,2,2,0,0,0-.89,2.68,2.55,2.55,0,0,0,3.39,1.15,3.09,3.09,0,0,0,1.39-4.19,4,4,0,0,0-5.3-1.79,4.83,4.83,0,0,0-2.17,6.55,6.24,6.24,0,0,0,8.28,2.8c3.8-1.86,5.31-7,3.86-11.4-3.88-13.42-40.51-15.87-55.69,22.05"/><path class="cls-2" d="M316.53,102.22c-.38.46-2.23-.82-2.23-.82s0,2.25-.59,2.3-1-2.15-1-2.15-1.58,1.59-2,1.21.82-2.23.82-2.23-2.24,0-2.3-.58,2.16-1,2.16-1-1.6-1.59-1.22-2,2.23.81,2.23.81,0-2.24.59-2.29,1,2.15,1,2.15,1.58-1.59,2-1.21-.82,2.22-.82,2.22,2.24,0,2.3.59-2.16,1-2.16,1S316.91,101.76,316.53,102.22Z"/><path class="cls-3" d="M333.73,145.72l-2.37-2.4a.25.25,0,0,1,0-.35.24.24,0,0,1,.35,0h0l2.23,2.53a.16.16,0,0,1,0,.22A.15.15,0,0,1,333.73,145.72Z"/><path class="cls-3" d="M335.71,145.71l2.4-2.37a.26.26,0,0,1,.36,0,.25.25,0,0,1,0,.35h0l-2.53,2.23a.16.16,0,0,1-.22,0A.15.15,0,0,1,335.71,145.71Z"/><path class="cls-3" d="M334.68,145.32l-.09-3.37a.24.24,0,0,1,.24-.26.25.25,0,0,1,.26.24v0l-.1,3.37a.16.16,0,0,1-.16.15A.17.17,0,0,1,334.68,145.32Z"/><path class="cls-3" d="M348.84,145.73l-2.37-2.41a.24.24,0,0,1,0-.35.25.25,0,0,1,.36,0h0l2.23,2.54a.15.15,0,0,1,0,.21A.15.15,0,0,1,348.84,145.73Z"/><path class="cls-3" d="M349.79,145.32l-.1-3.37a.26.26,0,0,1,.25-.26.25.25,0,0,1,.25.25h0l-.09,3.37a.15.15,0,0,1-.16.15A.15.15,0,0,1,349.79,145.32Z"/><path class="cls-4" d="M326.37,13.42c0,9.51-.35,18.75-1.07,27.69-1.63,2.13-9.16,2.06-10.93,0a255.56,255.56,0,0,1-.78-28Z"/><path class="cls-4" d="M314.2,39c2.8,2.12,8.76,2.55,11.27,0"/><path class="cls-4" d="M313.54,15c2.23-.81,7.46.64,12.82,0"/><path class="cls-4" d="M322.53,14.94l1.64-11.46c.51-1.66,1.61-1.89,3-1.42l9.73,2.48c-.81.46-.57,1.68-.57,1.68l-8.37-2.44c-1.57-.51-2.51-.46-2.57,1.52l-1.1,9.85"/><path class="cls-4" d="M336.88,4.54c.85.43.47,2-.57,1.68"/><path class="cls-4" d="M313.4,18.75A5.87,5.87,0,0,1,307.61,13a6,6,0,0,1,12,0"/><path class="cls-4" d="M313.35,14.34a1.1,1.1,0,0,1-.77-1.06,1.12,1.12,0,0,1,2.2-.27"/><line class="cls-4" x1="314.02" y1="12.21" x2="314.96" y2="8.96"/><line class="cls-4" x1="313.37" y1="12.21" x2="312.58" y2="8.96"/><line class="cls-4" x1="312.73" y1="12.72" x2="309.72" y2="11.03"/><line class="cls-4" x1="314.49" y1="12.49" x2="317.54" y2="10.59"/><line class="cls-4" x1="312.58" y1="13.28" x2="309.17" y2="13.99"/><line class="cls-4" x1="312.98" y1="14.12" x2="311.72" y2="16.74"/><path class="cls-4" d="M349.93,16.78s4.21,5,5.37,3.39C356.29,18.84,349.93,16.78,349.93,16.78Z"/><path class="cls-4" d="M350,16.78s6,2.66,6.78.86C357.42,16.18,350,16.78,350,16.78Z"/><path class="cls-4" d="M349.88,16.85s4.68,4.55,3.22,5.88C351.93,23.86,349.88,16.85,349.88,16.85Z"/><path class="cls-4" d="M350.16,17s-6.62-1.51-5.5-3.21C345.52,12.36,350.16,17,350.16,17Z"/><path class="cls-4" d="M350.15,16.94s-5.07-4.06-3.65-5.46C347.62,10.28,350.15,16.94,350.15,16.94Z"/><path class="cls-4" d="M350.11,17s-6.32-2.13-7-.32C342.51,18.2,350.11,17,350.11,17Z"/><path class="cls-4" d="M349.8,16.94s5.32-3.86,3.74-5.13C352.28,10.73,349.8,16.94,349.8,16.94Z"/><path class="cls-4" d="M349.8,16.92s3.06-5.83,1.31-6.71C349.7,9.43,349.8,16.92,349.8,16.92Z"/><path class="cls-4" d="M349.87,17s4.84-4.37,6.08-2.82C357,15.41,349.87,17,349.87,17Z"/><path class="cls-4" d="M350,16.73s-1.94,6.5-3.55,5.27C345.1,21.05,350,16.73,350,16.73Z"/><path class="cls-4" d="M350,16.74s-4.38,4.79-5.7,3.28C343.17,18.83,350,16.74,350,16.74Z"/><path class="cls-4" d="M350.08,16.35s-2.55,6.17-.78,7C350.73,24,350.08,16.35,350.08,16.35Z"/><circle class="cls-4" cx="349.94" cy="130.22" r="4.02"/><circle class="cls-4" cx="349.94" cy="130.22" r="1.97"/><path class="cls-1" d="M345.88,46.06c7.91,7.45,13.95,12.33,16.32,25.8"/><ellipse class="cls-1" cx="344.73" cy="41.3" rx="2.26" ry="4.86" transform="translate(4.99 112.85) rotate(-18.72)"/><ellipse class="cls-1" cx="341.06" cy="47.12" rx="4.86" ry="2.26" transform="translate(-1.73 14.93) rotate(-2.5)"/></svg>