<svg id="Layer_1" data-name="Layer 1" xmlns="http://www.w3.org/2000/svg" viewBox="0 0 350 150"><defs><style>.cls-1,.cls-2,.cls-4{fill:none;}.cls-1,.cls-2,.cls-4,.cls-5{stroke:#03e2b7;}.cls-1,.cls-2{stroke-linecap:round;stroke-linejoin:round;}.cls-1,.cls-4{stroke-width:0.4px;}.cls-2{stroke-width:0.5px;}.cls-3,.cls-5{fill:#03e2b7;}.cls-4,.cls-5{stroke-miterlimit:10;}.cls-5{stroke-width:0;}</style></defs><title>bg</title><circle class="cls-1" cx="27.2" cy="69.37" r="2.59"/><path class="cls-1" d="M29.83,69.11a27.5,27.5,0,0,1,5.63-.74,11,11,0,0,1,4.67.68,3.13,3.13,0,0,1,2,2.15c.26,1.27-1,1.87-2.05,2a11.11,11.11,0,0,1-4.1-.31,19.25,19.25,0,0,1-6.23-2.62"/><path class="cls-1" d="M29.14,71.23a27.7,27.7,0,0,1,4,4,11.28,11.28,0,0,1,2.29,4.13,3.13,3.13,0,0,1-.52,2.85c-.86,1-2.12.33-2.87-.39a11.17,11.17,0,0,1-2.23-3.46,19,19,0,0,1-1.69-6.54"/><path class="cls-1" d="M26.88,72.2a27.58,27.58,0,0,1-.27,5.67,11.24,11.24,0,0,1-1.51,4.48,3.14,3.14,0,0,1-2.46,1.54c-1.3,0-1.67-1.35-1.64-2.38a11,11,0,0,1,1.05-4,19.3,19.3,0,0,1,3.68-5.66"/><path class="cls-1" d="M24.77,68.31a28.62,28.62,0,0,1-5.31-2,11.33,11.33,0,0,1-3.79-2.82,3.12,3.12,0,0,1-.7-2.82c.37-1.24,1.79-1.16,2.77-.82a11,11,0,0,1,3.46,2.23,18.92,18.92,0,0,1,4.24,5.26"/><path class="cls-1" d="M26.39,66.68a28.57,28.57,0,0,1-1.61-5.44,11.21,11.21,0,0,1-.05-4.72,3.09,3.09,0,0,1,1.81-2.27c1.21-.46,2,.72,2.33,1.71a10.88,10.88,0,0,1,.33,4.1,19.32,19.32,0,0,1-1.61,6.56"/><path class="cls-1" d="M28.63,67a28,28,0,0,1,2.94-4.87A11.25,11.25,0,0,1,35,58.89a3.14,3.14,0,0,1,2.9-.19c1.16.59.83,2,.31,2.88a11,11,0,0,1-2.8,3,19.31,19.31,0,0,1-5.94,3.24"/><path class="cls-1" d="M24.67,70.72a28,28,0,0,1-5,2.67,11.32,11.32,0,0,1-4.61,1,3.14,3.14,0,0,1-2.59-1.33c-.69-1.1.31-2.11,1.21-2.62a10.91,10.91,0,0,1,4-1.15,19.14,19.14,0,0,1,6.75.27"/><path class="cls-1" d="M35.36,64.67a9.7,9.7,0,0,1,3.71-.73,3.11,3.11,0,0,1,2.63,1.22c.73,1.08-.22,2.13-1.11,2.67a7.94,7.94,0,0,1-1.78.8"/><path class="cls-1" d="M35.48,72.84a10.46,10.46,0,0,1,3.21,2.66,3.13,3.13,0,0,1,.62,2.83c-.41,1.23-1.83,1.11-2.8.74a8.27,8.27,0,0,1-1.44-.76"/><path class="cls-1" d="M30.36,79.59a8.84,8.84,0,0,1-.06,2.62,3.13,3.13,0,0,1-1.68,2.37c-1.19.52-2.05-.6-2.43-1.57a8.27,8.27,0,0,1-.46-1.84"/><path class="cls-1" d="M17.19,69.36a8.83,8.83,0,0,1-2.86-.94,3.12,3.12,0,0,1-1.74-2.33c-.14-1.29,1.2-1.77,2.24-1.82a8,8,0,0,1,1.54.07"/><path class="cls-1" d="M21.59,62.41A10.57,10.57,0,0,1,20,58.52a3.15,3.15,0,0,1,.8-2.8c.94-.89,2.13-.11,2.81.68a7.79,7.79,0,0,1,.91,1.35"/><path class="cls-1" d="M29.25,58.69a8.17,8.17,0,0,1,1.16-1.95A3.13,3.13,0,0,1,33,55.45c1.29.1,1.52,1.5,1.39,2.53A7.49,7.49,0,0,1,34,59.52"/><path class="cls-1" d="M16.37,74.39a8.27,8.27,0,0,0-1.21,1.23c-.64.82-1.16,2.14-.1,2.89a3.11,3.11,0,0,0,2.89.22A11.13,11.13,0,0,0,21.83,76a27.53,27.53,0,0,0,3.59-4.39"/><path class="cls-1" d="M23.34,75C12.41,85.87,7.47,98.79,7.73,111.47"/><path class="cls-1" d="M129,9.48c2.52.91,3.59,2.58,3.19,5-1.94-.27-3.51-1.17-3.91-4"/><path class="cls-1" d="M128.24,10.49q.07,4-3.54,4.76c-.43-1.92-.15-3.7,2.36-5.09"/><path class="cls-1" d="M127,10.13q-3.09,2.56-5.93.21c1.22-1.53,2.79-2.43,5.44-1.34"/><path class="cls-1" d="M126.51,9a4,4,0,0,1-1.65-5c1.87.6,3.27,1.75,3.19,4.61"/><path class="cls-1" d="M128,8.8q1-3.9,4.63-3.7c-.06,2-.79,3.61-3.56,4.32"/><path class="cls-1" d="M142.63,8q2.69-3,5.83-1.09c-1,1.7-2.4,2.81-5.18,2.13"/><path class="cls-1" d="M143.29,9.08q3.75,1.42,3.1,5.06c-1.94-.31-3.49-1.24-3.84-4.09"/><path class="cls-1" d="M142.51,10.07q1.22,3.82-2,5.58c-1-1.7-1.21-3.49.79-5.55"/><path class="cls-1" d="M141.31,10.14a4,4,0,0,1-5.3-.35c1.25-1.51,2.83-2.38,5.46-1.24"/><path class="cls-1" d="M141.64,8.68Q138.37,6.34,139.93,3c1.79.79,3,2.09,2.68,4.93"/><path class="cls-1" d="M135.87,24.64q2.87,2.82.81,5.88C135,29.46,134,28,134.8,25.24"/><path class="cls-1" d="M134.79,25.25c-1.08,2.46-2.81,3.41-5.21,2.86.41-1.92,1.41-3.43,4.27-3.64"/><path class="cls-1" d="M133.83,24.42c-2.59.7-4.41-.06-5.48-2.27,1.75-.89,3.55-1,5.51,1"/><path class="cls-1" d="M133.82,23.22a4,4,0,0,1,.6-5.28c1.45,1.32,2.24,2.95,1,5.52"/><path class="cls-1" d="M135.26,23.62q2.49-3.15,5.75-1.44c-.87,1.76-2.22,3-5,2.44"/><path class="cls-1" d="M47,45.24c-7.36.83.06,9.31,2,2.39,7.19-.67.19-9.52-2-2.43"/><path class="cls-1" d="M44.83,41.9a6.9,6.9,0,0,0-3.18,4.7,4.93,4.93,0,0,0,4.6,5.65,17.08,17.08,0,0,0,3.56-.43c1.83-.19,7.14,8.64,11.43,14.57-.65.61,1.17,2.85,1.74,2.19l.69,1L61,71.49l.47.62-1.33,1-.51-.65-1.33,1,1.27,1.65.63-.49,1,1.35-.64.5,2,2.55,1.22-1-.74-1,1.3-1,.69.9,2.61-2,1.74,2.11c1.38,0,2.32-.57,2.51-1.92l-6.25-8.41c.58-.67-.91-2.83-1.86-2.56l-3-3.77c-2.18-2.74-4.43-5.42-6.58-8.17a5.14,5.14,0,0,1-1.11-2.27,3.83,3.83,0,0,1,.75-2.62A4.74,4.74,0,0,0,54,42.92a4.83,4.83,0,0,0-3.61-2.43A8.1,8.1,0,0,0,44.83,41.9Z"/><path class="cls-1" d="M65.68,66.83A10.53,10.53,0,0,1,63,68.58l4.7,6.47"/><path class="cls-1" d="M63.82,64.27a10.59,10.59,0,0,0-2.58,2.12"/><path class="cls-1" d="M51.38,52.78a6.08,6.08,0,0,1-1.14-3.93,7.93,7.93,0,0,1,3.29,2.4"/><path class="cls-1" d="M132.84,45.22c1.69,8.33,8.82,14.71,14.68,16.23,2.51.66,8.76-3.88,9.08-6.25.71-7.29-3.49-14.05-10.1-19.31a1,1,0,0,1,0,.65,3.56,3.56,0,0,1-.46.86,8.81,8.81,0,0,1-.83,1c-.36.39-.74.75-1.13,1.11s-.89.77-1.36,1.14-1,.77-1.51,1.14-1,.73-1.58,1.07-1.06.65-1.6,1-1,.54-1.52.78a11.66,11.66,0,0,1-1.38.55,5.77,5.77,0,0,1-1.16.28,2,2,0,0,1-.94-.09.38.38,0,0,1-.18-.11c-.12-.15-.05-.43,0-.6a2.38,2.38,0,0,1,.24-.57,6,6,0,0,1,.7-1,13.77,13.77,0,0,1,1-1.11q.65-.62,1.32-1.17c.49-.41,1-.79,1.5-1.17s1.06-.75,1.61-1.11,1.07-.68,1.63-1,1-.58,1.56-.85.95-.44,1.43-.63a7.61,7.61,0,0,1,1.21-.36,2.54,2.54,0,0,1,.91-.05.9.9,0,0,1,.43.2"/><path class="cls-1" d="M149.79,38.85c3.58-5.23,11,0,5.37,7.71"/><path class="cls-1" d="M147.91,37.07c6.48-6.13,17.18,1.41,8.26,12.44"/><path class="cls-1" d="M145.82,35.6a3,3,0,0,1-.24.92,2.91,2.91,0,0,1-.48.7,9.26,9.26,0,0,1-.8.86c-.34.33-.7.65-1.06,1s-.84.68-1.26,1-.92.7-1.39,1-1,.66-1.45,1-.95.6-1.44.89-.9.51-1.36.75a12.12,12.12,0,0,1-1.22.56,5.42,5.42,0,0,1-1,.33,3.19,3.19,0,0,1-1.26,0"/><path class="cls-1" d="M110.27,75.9c-6.39,4-12.07,5.33-16.83,3.24-2.19-1-4.25-2.57-4.41-5.14a9.07,9.07,0,0,1,1.25-4.7,9.26,9.26,0,0,1,2.29-3.13c1.92-1.5,4.57-1.59,6.89-1.35a34.75,34.75,0,0,1,4.75,1,34.85,34.85,0,0,1,5.08,1.61,9.75,9.75,0,0,1,3.22,2,3.11,3.11,0,0,1,.87,1.48,4,4,0,0,1-.79,2.67A7.19,7.19,0,0,1,110.27,75.9Z"/><path class="cls-1" d="M110.75,68.08a81.53,81.53,0,0,0,13.68,2.74"/><path class="cls-1" d="M113.48,72.23a2.43,2.43,0,0,1,.77-1.06,5.6,5.6,0,0,1,3.81.84,1.51,1.51,0,0,1-.37,1.25"/><line class="cls-1" x1="83.42" y1="54.24" x2="88.56" y2="67.29"/><path class="cls-1" d="M90.81,68.34a2.14,2.14,0,0,1-1.35-.57c-.21-.24-.59-.63-.94-.46a1.07,1.07,0,0,0-.49.84.66.66,0,0,0,.63.77,1.86,1.86,0,0,0,1.37.74"/><path class="cls-1" d="M122.74,84.72a5.13,5.13,0,0,1-1.71-.43,6.18,6.18,0,0,1-3.15-4c-.77-2.35-1.36-5,.24-7.18a5.48,5.48,0,0,1,2.88-1.9,13.27,13.27,0,0,1,4.48-.39,32.71,32.71,0,0,1,6.61.94,5.19,5.19,0,0,1,3.27,2,2.86,2.86,0,0,1-.21,2.85,15.4,15.4,0,0,1-8.39,7.47A10.59,10.59,0,0,1,122.74,84.72Z"/><line class="cls-1" x1="128.46" y1="64.35" x2="132.09" y2="71.81"/><path class="cls-1" d="M135,76.86c.76.07,1,.53.67,1.37a3,3,0,0,1-1.73.6"/><path class="cls-1" d="M120,60.8c-1.44.94-2.22.8-2.35-.39-.07-1.7,1.19-1.3,2.69-1.73,3.4-.58,4.85-1.56,6.1.7l2.5,4.91c-.39-.19-.66,0-.84.35l-1.58-3c-1.44-3-1.83-3.43-5.28-1.51Z"/><path class="cls-1" d="M74.93,50.54c-1.44.93-2.22.79-2.35-.4-.08-1.69,1.19-1.3,2.69-1.72,3.4-.58,4.84-1.57,6.1.7l2.5,4.9c-.4-.18-.66,0-.84.36l-1.59-3c-1.43-3-1.82-3.43-5.27-1.51Z"/><path class="cls-1" d="M97.65,108a34.49,34.49,0,0,1,3.46-17.5l18.14,5.33c-4.8,8-7.92,15.77-8.55,23.24L97.65,108c-5.49.35-10.53,4.21-15.41,9.24l8.55,17c6.73-7,13.39-12.57,19.91-15.15"/><path class="cls-1" d="M110.72,119.09c-.46.7-.34,1.89.27,3.5L97.9,142l-1.25-3.9"/><polyline class="cls-1" points="114.02 121.24 112.13 123.93 98.73 142.92 97.31 143.34 91.64 133.38"/><path class="cls-1" d="M92.45,132.56l1.8,3.42c5.1-7.7,10.41-13.65,16.2-15.85"/><path class="cls-1" d="M94.63,135.41l1.58,3.37.44-.71c4.49-7.23,9.08-13.37,13.9-17"/><path class="cls-1" d="M110.8,119c.51-.66,1.67-1,3.39-.91l13.87-18.83-4.09.12"/><polyline class="cls-1" points="113.94 121.36 115.84 118.67 129.24 99.68 129.16 98.21 118.92 96.52"/><path class="cls-1" d="M118.52,97.39l2.68.4c-5.54,7.39-9.37,14.39-9.51,20.57"/><path class="cls-1" d="M120.79,98.34l3.7.36-.52.65c-5.31,6.66-9.55,13-11.33,18.78"/><path class="cls-1" d="M111,122.59a1.42,1.42,0,0,0,1.39,1"/><path class="cls-1" d="M114.19,118.06a1.73,1.73,0,0,1,1.39,1"/><path class="cls-2" d="M20.07,147.31H-4.38V81.45C-1.29,112.05,2.59,134.37,20.07,147.31Z"/><polygon class="cls-2" points="3.35 64.56 0.62 65.15 -1.26 63.08 -0.41 60.42 2.33 59.82 4.21 61.9 3.35 64.56"/><polygon class="cls-2" points="10.74 52.25 6.83 53.1 4.14 50.14 5.36 46.33 9.27 45.48 11.96 48.44 10.74 52.25"/><polygon class="cls-2" points="26.77 42.25 21.39 44.25 16.96 40.59 17.92 34.93 23.3 32.93 27.73 36.59 26.77 42.25"/><polygon class="cls-2" points="1.75 75.32 0.05 75.69 -1.12 74.4 -0.59 72.75 1.11 72.38 2.28 73.67 1.75 75.32"/><path class="cls-3" d="M-1.25,2.77,1.28,5a.26.26,0,0,1,0,.36.25.25,0,0,1-.35,0h0L-1.46,3a.15.15,0,0,1,0-.22A.16.16,0,0,1-1.25,2.77Z"/><path class="cls-3" d="M11.89,3.19,9.66,5.72a.25.25,0,0,1-.35,0,.24.24,0,0,1,0-.35h0L11.66,3a.16.16,0,0,1,.22,0A.15.15,0,0,1,11.89,3.19Z"/><path class="cls-3" d="M13.85,2.76,16.38,5a.24.24,0,0,1,0,.35.25.25,0,0,1-.36,0h0L13.64,3a.16.16,0,0,1,0-.22A.15.15,0,0,1,13.85,2.76Z"/><path class="cls-3" d="M12.92,3.38,13,6.75a.26.26,0,0,1-.25.26.25.25,0,0,1-.25-.24v0l.09-3.37a.17.17,0,0,1,.16-.15A.15.15,0,0,1,12.92,3.38Z"/><path class="cls-3" d="M24.82,3.19,22.59,5.72a.26.26,0,0,1-.36,0,.25.25,0,0,1,0-.35h0L24.59,3a.16.16,0,0,1,.22,0A.15.15,0,0,1,24.82,3.19Z"/><path class="cls-3" d="M26.78,2.76,29.31,5a.25.25,0,0,1,0,.35.24.24,0,0,1-.35,0h0L26.57,3a.16.16,0,0,1,0-.22A.15.15,0,0,1,26.78,2.76Z"/><path class="cls-3" d="M25.85,3.38l.09,3.37A.24.24,0,0,1,25.7,7a.25.25,0,0,1-.26-.24v0l.1-3.37a.16.16,0,0,1,.16-.15A.15.15,0,0,1,25.85,3.38Z"/><path class="cls-1" d="M78.92,28.43c-2.6,15.67-34.29,13.16-25-12Z"/><path class="cls-1" d="M55.61,17.26c-8,15.51,12.85,27.63,22,10.68"/><path class="cls-1" d="M56.5,31.76l7.31-7.2c.57-.86.49-1.41-.12-1.7"/><path class="cls-1" d="M64.21,21.38c.29.58.09,1.07-.52,1.48l-9.87,1.88"/><path class="cls-1" d="M63.81,24.56c.8-.21,1.21.07,1.29.74L63.49,36"/><path class="cls-1" d="M65.1,25.3a1.68,1.68,0,0,1,2.27-.73l4.21,10"/><path class="cls-1" d="M67.37,24.57c0-.79.32-1.18,1-1.18"/><path class="cls-1" d="M63.15,20.87c.25-4.22-1-7.23-3.33-9.35A226.09,226.09,0,0,1,38.59,27.93c4.06,5.53,9.24,7.47,15.86,4.77"/><path class="cls-1" d="M39.76,27.35c3.86,4.72,8.45,6.37,14,4.15"/><path class="cls-1" d="M59.08,12.17c2.07,2.63,3.07,5.32,2.79,8.08"/><line class="cls-1" x1="61.83" y1="18.11" x2="58.54" y2="18.66"/><path class="cls-1" d="M48.41,20.84c.58.45.87.92.73,1.41l-4.79,9"/><path class="cls-1" d="M49.14,22.25a1.77,1.77,0,0,1,1.63.19l1.63,5"/><path class="cls-1" d="M50.77,22.44c.19-.65.52-.93.93-1a1.19,1.19,0,0,1,.43-1.3l.7-.08"/><path class="cls-1" d="M51.48,18.52a2.26,2.26,0,0,0,.65,1.62"/><line class="cls-1" x1="51.7" y1="21.44" x2="52.34" y2="21.87"/><path class="cls-4" d="M88.66,101.39c-.46.55-2.7-1-2.7-1s0,2.72-.71,2.79S84,100.58,84,100.58s-1.92,1.92-2.47,1.46,1-2.7,1-2.7-2.72,0-2.79-.71,2.61-1.21,2.61-1.21S80.45,95.5,80.91,95s2.7,1,2.7,1,0-2.72.71-2.78,1.21,2.61,1.21,2.61S87.45,93.84,88,94.3,87,97,87,97s2.72,0,2.79.71-2.61,1.21-2.61,1.21S89.12,100.84,88.66,101.39Z"/><circle class="cls-5" cx="15.07" cy="106.51" r="1.4"/><circle class="cls-5" cx="16.15" cy="98.44" r="1.4"/><circle class="cls-5" cx="20.8" cy="92.5" r="1.4"/><path class="cls-1" d="M7,22.3c21.45,3.92,29.68-6.12,29.21-14.19"/><path class="cls-1" d="M9,22.57c-10.52-6.49-.16-16.26,2.09.27"/><path class="cls-1" d="M7,22.28c-16,8.88-14.21-9.84,0,0"/><path class="cls-1" d="M9.31,22.79c-11.28,7.3.25,17.13,1.32.08"/><path class="cls-2" d="M94.43,37.93a1.63,1.63,0,0,0-.58-2.21,2,2,0,0,0-2.73.74A2.55,2.55,0,0,0,92,39.92a3.09,3.09,0,0,0,4.26-1.16,4,4,0,0,0-1.43-5.41,4.84,4.84,0,0,0-6.66,1.81,6.24,6.24,0,0,0,2.24,8.45c3.64,2.14,8.8.54,11.63-3.08C111.13,29.9,93-2,53,6.28"/><path class="cls-1" d="M110,9.22q3.78,1.37,3.19,5c-1.94-.27-3.51-1.18-3.91-4"/><path class="cls-1" d="M109.31,10.22q.07,4-3.54,4.76c-.43-1.91-.15-3.69,2.36-5.08"/><path class="cls-1" d="M108.09,9.87q-3.09,2.57-5.92.21c1.22-1.54,2.79-2.43,5.44-1.34"/><path class="cls-1" d="M107.58,8.78a4,4,0,0,1-1.65-5c1.87.6,3.26,1.75,3.19,4.61"/><path class="cls-1" d="M109.06,8.54c.63-2.6,2.18-3.84,4.63-3.71-.06,2-.79,3.62-3.57,4.33"/><path class="cls-1" d="M119.51,20.36q2.86,2.81.81,5.87c-1.65-1.06-2.69-2.53-1.88-5.28"/><path class="cls-1" d="M118.43,21c-1.07,2.45-2.81,3.4-5.2,2.85.4-1.92,1.4-3.43,4.26-3.64"/><path class="cls-1" d="M117.47,20.13q-3.87,1.05-5.48-2.27c1.75-.89,3.56-1.05,5.51,1.05"/><path class="cls-1" d="M117.46,18.93a4,4,0,0,1,.6-5.27c1.45,1.32,2.24,2.94,1,5.52"/><path class="cls-1" d="M118.9,19.33q2.49-3.15,5.76-1.44c-.88,1.76-2.23,3-5,2.45"/><path class="cls-1" d="M120.33,34.26q3.3,2.3,1.78,5.66c-1.81-.77-3.09-2.05-2.74-4.9"/><path class="cls-1" d="M119.36,35c-.65,2.59-2.2,3.82-4.65,3.67.08-2,.82-3.61,3.6-4.3"/><path class="cls-1" d="M118.28,34.37c-2.43,1.12-4.36.67-5.78-1.33,1.58-1.17,3.33-1.62,5.61.12"/><path class="cls-1" d="M118.07,33.19a4,4,0,0,1-.28-5.3c1.65,1.06,2.7,2.53,1.88,5.28"/><path class="cls-1" d="M119.56,33.35Q121.49,29.83,125,31c-.57,1.88-1.71,3.29-4.57,3.25"/><path class="cls-1" d="M133.54,132.53s9.27,11.14,11.83,7.47C147.55,137.08,133.54,132.53,133.54,132.53Z"/><path class="cls-1" d="M133.6,132.53s13.25,5.87,14.93,1.9C150,131.22,133.6,132.53,133.6,132.53Z"/><path class="cls-1" d="M133.43,132.7s10.31,10,7.08,12.94C138,148.13,133.43,132.7,133.43,132.7Z"/><path class="cls-1" d="M134.05,133s-14.57-3.33-12.11-7.06C123.84,122.8,134.05,133,134.05,133Z"/><path class="cls-1" d="M134,132.9s-11.16-8.94-8-12C128.45,118.23,134,132.9,134,132.9Z"/><path class="cls-1" d="M133.93,133.12s-13.92-4.7-15.39-.71C117.2,135.65,133.93,133.12,133.93,133.12Z"/><path class="cls-1" d="M133.25,132.9s11.73-8.52,8.23-11.31C138.71,119.22,133.25,132.9,133.25,132.9Z"/><path class="cls-1" d="M133.26,132.84S140,120,136.13,118.06C133,116.35,133.26,132.84,133.26,132.84Z"/><path class="cls-1" d="M133.42,133s10.66-9.63,13.37-6.22C149.11,129.52,133.42,133,133.42,133Z"/><path class="cls-1" d="M133.71,132.42s-4.28,14.32-7.84,11.62C122.91,141.94,133.71,132.42,133.71,132.42Z"/><path class="cls-1" d="M133.65,132.44S124,143,121.11,139.67C118.65,137,133.65,132.44,133.65,132.44Z"/><path class="cls-1" d="M133.86,131.6s-5.6,13.58-1.71,15.31C135.3,148.46,133.86,131.6,133.86,131.6Z"/><path class="cls-2" d="M38.74,115.78c-4,5.55-19.86,14.38-19.86,14.38s3.38-17.83,7.38-23.38,7.57.89,3.06,8.92C36,109.17,42.75,110.23,38.74,115.78Z"/><path class="cls-1" d="M45.54,125.61c8.2-8,13.39-15.17,23.95-22.51.44,5.19-7.59,13.46-17.46,22.41-1.84.06-3.3.63-3.64,2.67"/><path class="cls-1" d="M46.94,129.45c.87,0,1.56.47,2.08,1.55.52.64.95.11.68-.76a17.75,17.75,0,0,0-6.33-6.06c-.68-.41-1,0-.11.83a2,2,0,0,1,1,2A10.41,10.41,0,0,1,46.94,129.45Z"/><path class="cls-1" d="M44.26,127a80.59,80.59,0,0,0-14.39,16.72,4.86,4.86,0,0,0,3.55,3.2c6.64-7.35,8.66-11.39,13.52-17.49"/><path class="cls-1" d="M31.21,141.7A9.23,9.23,0,0,0,35.15,145"/><path class="cls-1" d="M63.11,108c1.22,1-2.32,2.57-2.26,4.88,3.06,1.56-3.62,2.92-2.05,4.34.45.6-2.08,2.38-1.61,3.47"/><path class="cls-2" d="M80.41,77.3c-.13,5-1.35,10.73-5.78,13.78-4.62,3.18-11,2.6-16.14,1.44-2.79-.63-5.38-1.77-8.29-1.52a7.35,7.35,0,0,0-5.87,3.52c-1.66,2.62-1.51,6.26.67,8.1a4.23,4.23,0,0,0,5.89-.49,3.27,3.27,0,0,0-.36-4.65,2.68,2.68,0,0,0-3.76.32,2.09,2.09,0,0,0,.22,3,1.73,1.73,0,0,0,2.41-.2,1.33,1.33,0,0,0-.14-1.9,1.1,1.1,0,0,0-1.54.12"/><circle class="cls-5" cx="140.57" cy="112.27" r="1.05"/><path class="cls-2" d="M141.06,108.5c20-29.29-7.24-34.56,0,0"/><path class="cls-2" d="M44.61,147H79.86c2.49-8.67.66-16.47-2.83-23.95C70.65,134.13,59.27,141.71,44.61,147Z"/><circle class="cls-1" cx="194.2" cy="69.37" r="2.59"/><path class="cls-1" d="M196.83,69.11a27.5,27.5,0,0,1,5.63-.74,11,11,0,0,1,4.67.68,3.13,3.13,0,0,1,2,2.15c.26,1.27-1,1.87-2.05,2a11.11,11.11,0,0,1-4.1-.31,19.25,19.25,0,0,1-6.23-2.62"/><path class="cls-1" d="M196.14,71.23a27.7,27.7,0,0,1,4,4,11.28,11.28,0,0,1,2.29,4.13,3.13,3.13,0,0,1-.52,2.85c-.86,1-2.12.33-2.87-.39a11.17,11.17,0,0,1-2.23-3.46,19,19,0,0,1-1.69-6.54"/><path class="cls-1" d="M193.88,72.2a27.58,27.58,0,0,1-.27,5.67,11.24,11.24,0,0,1-1.51,4.48,3.14,3.14,0,0,1-2.46,1.54c-1.3,0-1.67-1.35-1.64-2.38a11,11,0,0,1,1.05-4,19.3,19.3,0,0,1,3.68-5.66"/><path class="cls-1" d="M191.77,68.31a28.62,28.62,0,0,1-5.31-2,11.33,11.33,0,0,1-3.79-2.82,3.12,3.12,0,0,1-.7-2.82c.37-1.24,1.79-1.16,2.77-.82a11,11,0,0,1,3.46,2.23,18.92,18.92,0,0,1,4.24,5.26"/><path class="cls-1" d="M193.39,66.68a28.57,28.57,0,0,1-1.61-5.44,11.21,11.21,0,0,1-.05-4.72,3.09,3.09,0,0,1,1.81-2.27c1.21-.46,2,.72,2.33,1.71a10.88,10.88,0,0,1,.33,4.1,19.32,19.32,0,0,1-1.61,6.56"/><path class="cls-1" d="M195.63,67a28,28,0,0,1,2.94-4.87A11.25,11.25,0,0,1,202,58.89a3.14,3.14,0,0,1,2.9-.19c1.16.59.83,2,.31,2.88a11,11,0,0,1-2.8,3,19.31,19.31,0,0,1-5.94,3.24"/><path class="cls-1" d="M191.67,70.72a28,28,0,0,1-5,2.67,11.32,11.32,0,0,1-4.61,1,3.14,3.14,0,0,1-2.59-1.33c-.69-1.1.31-2.11,1.21-2.62a10.91,10.91,0,0,1,4-1.15,19.14,19.14,0,0,1,6.75.27"/><path class="cls-1" d="M202.36,64.67a9.7,9.7,0,0,1,3.71-.73,3.11,3.11,0,0,1,2.63,1.22c.73,1.08-.22,2.13-1.11,2.67a7.94,7.94,0,0,1-1.78.8"/><path class="cls-1" d="M202.48,72.84a10.46,10.46,0,0,1,3.21,2.66,3.13,3.13,0,0,1,.62,2.83c-.41,1.23-1.83,1.11-2.8.74a8.27,8.27,0,0,1-1.44-.76"/><path class="cls-1" d="M197.36,79.59a8.84,8.84,0,0,1-.06,2.62,3.13,3.13,0,0,1-1.68,2.37c-1.19.52-2.05-.6-2.43-1.57a8.27,8.27,0,0,1-.46-1.84"/><path class="cls-1" d="M184.19,69.36a8.83,8.83,0,0,1-2.86-.94,3.12,3.12,0,0,1-1.74-2.33c-.14-1.29,1.2-1.77,2.24-1.82a8,8,0,0,1,1.54.07"/><path class="cls-1" d="M188.59,62.41A10.57,10.57,0,0,1,187,58.52a3.15,3.15,0,0,1,.8-2.8c.94-.89,2.13-.11,2.81.68a7.79,7.79,0,0,1,.91,1.35"/><path class="cls-1" d="M196.25,58.69a8.17,8.17,0,0,1,1.16-1.95,3.13,3.13,0,0,1,2.6-1.29c1.29.1,1.52,1.5,1.39,2.53a7.49,7.49,0,0,1-.36,1.54"/><path class="cls-1" d="M183.37,74.39a8.27,8.27,0,0,0-1.21,1.23c-.64.82-1.16,2.14-.1,2.89a3.11,3.11,0,0,0,2.89.22,11.13,11.13,0,0,0,3.88-2.7,27.53,27.53,0,0,0,3.59-4.39"/><path class="cls-1" d="M190.34,75c-10.93,10.86-15.87,23.78-15.61,36.46"/><path class="cls-1" d="M296,9.48c2.52.91,3.59,2.58,3.19,5-1.94-.27-3.51-1.17-3.91-4"/><path class="cls-1" d="M295.24,10.49q.08,4-3.54,4.76c-.43-1.92-.15-3.7,2.36-5.09"/><path class="cls-1" d="M294,10.13q-3.09,2.56-5.93.21c1.22-1.53,2.79-2.43,5.44-1.34"/><path class="cls-1" d="M293.51,9a4,4,0,0,1-1.65-5c1.87.6,3.27,1.75,3.19,4.61"/><path class="cls-1" d="M295,8.8q1-3.9,4.63-3.7c-.06,2-.79,3.61-3.56,4.32"/><path class="cls-1" d="M309.63,8q2.69-3,5.83-1.09c-1,1.7-2.4,2.81-5.18,2.13"/><path class="cls-1" d="M310.29,9.08q3.75,1.42,3.1,5.06c-1.94-.31-3.49-1.24-3.84-4.09"/><path class="cls-1" d="M309.51,10.07q1.22,3.82-2,5.58c-1-1.7-1.21-3.49.79-5.55"/><path class="cls-1" d="M308.31,10.14a4,4,0,0,1-5.3-.35c1.25-1.51,2.83-2.38,5.46-1.24"/><path class="cls-1" d="M308.64,8.68Q305.37,6.34,306.93,3c1.79.79,3.05,2.09,2.68,4.93"/><path class="cls-1" d="M302.87,24.64q2.86,2.82.81,5.88C302,29.46,301,28,301.8,25.24"/><path class="cls-1" d="M301.79,25.25c-1.08,2.46-2.81,3.41-5.21,2.86.41-1.92,1.41-3.43,4.27-3.64"/><path class="cls-1" d="M300.83,24.42c-2.59.7-4.41-.06-5.48-2.27,1.75-.89,3.55-1,5.51,1"/><path class="cls-1" d="M300.82,23.22a4,4,0,0,1,.6-5.28c1.45,1.32,2.24,2.95,1,5.52"/><path class="cls-1" d="M302.26,23.62q2.49-3.15,5.75-1.44c-.87,1.76-2.22,3-5,2.44"/><path class="cls-1" d="M214,45.24c-7.36.83.06,9.31,2,2.39,7.19-.67.19-9.52-2-2.43"/><path class="cls-1" d="M211.83,41.9a6.9,6.9,0,0,0-3.18,4.7,4.93,4.93,0,0,0,4.6,5.65,17.08,17.08,0,0,0,3.56-.43c1.83-.19,7.14,8.64,11.43,14.57-.65.61,1.17,2.85,1.74,2.19l.69,1L228,71.49l.47.62-1.33,1-.51-.65-1.33,1,1.27,1.65.63-.49,1,1.35-.64.5,2,2.55,1.22-1-.74-1,1.3-1,.69.9,2.61-2,1.74,2.11c1.38,0,2.32-.57,2.51-1.92l-6.25-8.41c.58-.67-.91-2.83-1.86-2.56l-3-3.77c-2.18-2.74-4.43-5.42-6.58-8.17a5.14,5.14,0,0,1-1.11-2.27,3.83,3.83,0,0,1,.75-2.62,4.74,4.74,0,0,0,.09-4.52,4.83,4.83,0,0,0-3.61-2.43A8.1,8.1,0,0,0,211.83,41.9Z"/><path class="cls-1" d="M232.68,66.83a10.53,10.53,0,0,1-2.7,1.75l4.7,6.47"/><path class="cls-1" d="M230.82,64.27a10.59,10.59,0,0,0-2.58,2.12"/><path class="cls-1" d="M218.38,52.78a6.08,6.08,0,0,1-1.14-3.93,7.93,7.93,0,0,1,3.29,2.4"/><path class="cls-1" d="M299.84,45.22c1.69,8.33,8.82,14.71,14.68,16.23,2.51.66,8.76-3.88,9.08-6.25.71-7.29-3.49-14.05-10.1-19.31a1,1,0,0,1,0,.65,3.56,3.56,0,0,1-.46.86,8.81,8.81,0,0,1-.83,1c-.36.39-.74.75-1.13,1.11s-.89.77-1.36,1.14-1,.77-1.51,1.14-1.05.73-1.58,1.07-1.06.65-1.6,1-1,.54-1.52.78a11.66,11.66,0,0,1-1.38.55,5.77,5.77,0,0,1-1.16.28,2,2,0,0,1-.94-.09.38.38,0,0,1-.18-.11c-.12-.15,0-.43,0-.6a2.38,2.38,0,0,1,.24-.57,6,6,0,0,1,.7-1,13.77,13.77,0,0,1,1.05-1.11q.65-.62,1.32-1.17c.49-.41,1-.79,1.5-1.17s1.06-.75,1.61-1.11,1.07-.68,1.63-1,1-.58,1.56-.85.95-.44,1.43-.63a7.61,7.61,0,0,1,1.21-.36,2.54,2.54,0,0,1,.91-.05.9.9,0,0,1,.43.2"/><path class="cls-1" d="M316.79,38.85c3.58-5.23,11,0,5.37,7.71"/><path class="cls-1" d="M314.91,37.07c6.48-6.13,17.18,1.41,8.26,12.44"/><path class="cls-1" d="M312.82,35.6a3,3,0,0,1-.24.92,2.91,2.91,0,0,1-.48.7,9.26,9.26,0,0,1-.8.86c-.34.33-.7.65-1.06,1s-.84.68-1.26,1-.92.7-1.39,1-1,.66-1.45,1-.95.6-1.44.89-.9.51-1.36.75a12.12,12.12,0,0,1-1.22.56,5.42,5.42,0,0,1-1,.33,3.19,3.19,0,0,1-1.26,0"/><path class="cls-1" d="M277.27,75.9c-6.39,4-12.07,5.33-16.83,3.24-2.19-1-4.25-2.57-4.41-5.14a9.07,9.07,0,0,1,1.25-4.7,9.26,9.26,0,0,1,2.29-3.13c1.92-1.5,4.57-1.59,6.89-1.35a47.35,47.35,0,0,1,9.83,2.57,9.75,9.75,0,0,1,3.22,2,3.11,3.11,0,0,1,.87,1.48,4,4,0,0,1-.79,2.67A7.19,7.19,0,0,1,277.27,75.9Z"/><path class="cls-1" d="M277.75,68.08a81.53,81.53,0,0,0,13.68,2.74"/><path class="cls-1" d="M280.48,72.23a2.43,2.43,0,0,1,.77-1.06,5.6,5.6,0,0,1,3.81.84,1.51,1.51,0,0,1-.37,1.25"/><line class="cls-1" x1="250.42" y1="54.24" x2="255.56" y2="67.29"/><path class="cls-1" d="M257.81,68.34a2.14,2.14,0,0,1-1.35-.57c-.21-.24-.59-.63-.94-.46a1.07,1.07,0,0,0-.49.84.66.66,0,0,0,.63.77,1.86,1.86,0,0,0,1.37.74"/><path class="cls-1" d="M289.74,84.72a5.13,5.13,0,0,1-1.71-.43,6.18,6.18,0,0,1-3.15-4c-.77-2.35-1.36-5,.24-7.18a5.48,5.48,0,0,1,2.88-1.9,13.27,13.27,0,0,1,4.48-.39,32.71,32.71,0,0,1,6.61.94,5.19,5.19,0,0,1,3.27,2,2.86,2.86,0,0,1-.21,2.85,15.4,15.4,0,0,1-8.39,7.47A10.59,10.59,0,0,1,289.74,84.72Z"/><line class="cls-1" x1="295.46" y1="64.35" x2="299.09" y2="71.81"/><path class="cls-1" d="M302,76.86c.76.07,1,.53.67,1.37a3,3,0,0,1-1.73.6"/><path class="cls-1" d="M287,60.8c-1.44.94-2.22.8-2.35-.39-.07-1.7,1.19-1.3,2.69-1.73,3.4-.58,4.85-1.56,6.1.7l2.5,4.91c-.39-.19-.66,0-.84.35l-1.58-3c-1.44-3-1.83-3.43-5.28-1.51Z"/><path class="cls-1" d="M241.93,50.54c-1.44.93-2.22.79-2.35-.4-.08-1.69,1.19-1.3,2.69-1.72,3.4-.58,4.84-1.57,6.1.7l2.5,4.9c-.4-.18-.66,0-.84.36l-1.59-3c-1.43-3-1.82-3.43-5.27-1.51Z"/><path class="cls-1" d="M264.65,108a34.49,34.49,0,0,1,3.46-17.5l18.14,5.33c-4.8,8-7.92,15.77-8.55,23.24L264.65,108c-5.49.35-10.53,4.21-15.41,9.24l8.55,17c6.73-7,13.39-12.57,19.91-15.15"/><path class="cls-1" d="M277.72,119.09c-.46.7-.34,1.89.27,3.5L264.9,142l-1.25-3.9"/><polyline class="cls-1" points="281.02 121.24 279.13 123.93 265.73 142.92 264.31 143.34 258.64 133.38"/><path class="cls-1" d="M259.45,132.56l1.8,3.42c5.1-7.7,10.41-13.65,16.2-15.85"/><path class="cls-1" d="M261.63,135.41l1.58,3.37.44-.71c4.49-7.23,9.08-13.37,13.9-17"/><path class="cls-1" d="M277.8,119c.51-.66,1.67-1,3.39-.91l13.87-18.83-4.09.12"/><polyline class="cls-1" points="280.94 121.36 282.84 118.67 296.24 99.68 296.16 98.21 285.92 96.52"/><path class="cls-1" d="M285.52,97.39l2.68.4c-5.54,7.39-9.37,14.39-9.51,20.57"/><path class="cls-1" d="M287.79,98.34l3.7.36-.52.65c-5.31,6.66-9.55,13-11.33,18.78"/><path class="cls-1" d="M278,122.59a1.42,1.42,0,0,0,1.39,1"/><path class="cls-1" d="M281.19,118.06a1.73,1.73,0,0,1,1.39,1"/><path class="cls-2" d="M187.07,147.31H162.62V81.45C165.71,112.05,169.59,134.37,187.07,147.31Z"/><polygon class="cls-2" points="170.35 64.56 167.62 65.15 165.74 63.08 166.59 60.42 169.32 59.82 171.21 61.9 170.35 64.56"/><polygon class="cls-2" points="177.74 52.25 173.83 53.1 171.14 50.14 172.36 46.33 176.27 45.48 178.96 48.44 177.74 52.25"/><polygon class="cls-2" points="193.77 42.25 188.39 44.25 183.96 40.59 184.92 34.93 190.3 32.93 194.73 36.59 193.77 42.25"/><polygon class="cls-2" points="168.75 75.32 167.05 75.69 165.88 74.4 166.41 72.75 168.11 72.38 169.28 73.67 168.75 75.32"/><path class="cls-3" d="M163.78,3.19l-2.23,2.53a.24.24,0,0,1-.35,0,.26.26,0,0,1,0-.36h0L163.56,3a.15.15,0,0,1,.21,0A.15.15,0,0,1,163.78,3.19Z"/><path class="cls-3" d="M165.75,2.77,168.28,5a.26.26,0,0,1,0,.36.25.25,0,0,1-.35,0h0L165.54,3a.15.15,0,0,1,0-.22A.16.16,0,0,1,165.75,2.77Z"/><path class="cls-3" d="M164.81,3.39l.1,3.37a.24.24,0,0,1-.24.25.24.24,0,0,1-.26-.24h0l.1-3.37a.15.15,0,0,1,.3,0Z"/><path class="cls-3" d="M178.89,3.19l-2.23,2.53a.25.25,0,0,1-.35,0,.24.24,0,0,1,0-.35h0L178.66,3a.16.16,0,0,1,.22,0A.15.15,0,0,1,178.89,3.19Z"/><path class="cls-3" d="M180.85,2.76,183.38,5a.24.24,0,0,1,0,.35.25.25,0,0,1-.36,0h0L180.64,3a.16.16,0,0,1,0-.22A.15.15,0,0,1,180.85,2.76Z"/><path class="cls-3" d="M179.92,3.38l.1,3.37a.26.26,0,0,1-.25.26.25.25,0,0,1-.25-.24v0l.09-3.37a.17.17,0,0,1,.16-.15A.15.15,0,0,1,179.92,3.38Z"/><path class="cls-3" d="M191.82,3.19l-2.23,2.53a.26.26,0,0,1-.36,0,.25.25,0,0,1,0-.35h0L191.59,3a.16.16,0,0,1,.22,0A.15.15,0,0,1,191.82,3.19Z"/><path class="cls-3" d="M193.78,2.76,196.31,5a.25.25,0,0,1,0,.35.24.24,0,0,1-.35,0h0L193.57,3a.16.16,0,0,1,0-.22A.15.15,0,0,1,193.78,2.76Z"/><path class="cls-3" d="M192.85,3.38l.09,3.37a.24.24,0,0,1-.24.26.25.25,0,0,1-.26-.24v0l.1-3.37a.16.16,0,0,1,.16-.15A.15.15,0,0,1,192.85,3.38Z"/><path class="cls-1" d="M245.92,28.43c-2.6,15.67-34.29,13.16-25-12Z"/><path class="cls-1" d="M222.61,17.26c-8,15.51,12.85,27.63,22,10.68"/><path class="cls-1" d="M223.5,31.76l7.31-7.2c.57-.86.49-1.41-.12-1.7"/><path class="cls-1" d="M231.21,21.38c.29.58.09,1.07-.52,1.48l-9.87,1.88"/><path class="cls-1" d="M230.81,24.56c.8-.21,1.21.07,1.29.74L230.49,36"/><path class="cls-1" d="M232.1,25.3a1.68,1.68,0,0,1,2.27-.73l4.21,10"/><path class="cls-1" d="M234.37,24.57c0-.79.32-1.18,1-1.18"/><path class="cls-1" d="M230.15,20.87c.25-4.22-1-7.23-3.33-9.35a226.09,226.09,0,0,1-21.23,16.41c4.06,5.53,9.24,7.47,15.86,4.77"/><path class="cls-1" d="M206.76,27.35c3.86,4.72,8.45,6.37,14,4.15"/><path class="cls-1" d="M226.08,12.17c2.07,2.63,3.07,5.32,2.79,8.08"/><line class="cls-1" x1="228.83" y1="18.11" x2="225.54" y2="18.66"/><path class="cls-1" d="M215.41,20.84c.58.45.87.92.73,1.41l-4.79,9"/><path class="cls-1" d="M216.14,22.25a1.77,1.77,0,0,1,1.63.19l1.63,5"/><path class="cls-1" d="M217.77,22.44c.19-.65.52-.93.93-1a1.19,1.19,0,0,1,.43-1.3l.7-.08"/><path class="cls-1" d="M218.48,18.52a2.26,2.26,0,0,0,.65,1.62"/><line class="cls-1" x1="218.7" y1="21.44" x2="219.34" y2="21.87"/><path class="cls-4" d="M255.66,101.39c-.46.55-2.7-1-2.7-1s0,2.72-.71,2.79-1.21-2.61-1.21-2.61-1.92,1.92-2.47,1.46,1-2.7,1-2.7-2.72,0-2.79-.71,2.61-1.21,2.61-1.21-1.93-1.92-1.47-2.47,2.7,1,2.7,1,0-2.72.71-2.78,1.21,2.61,1.21,2.61,1.92-1.93,2.47-1.47-1,2.7-1,2.7,2.72,0,2.79.71-2.61,1.21-2.61,1.21S256.12,100.84,255.66,101.39Z"/><circle class="cls-5" cx="182.07" cy="106.51" r="1.4"/><circle class="cls-5" cx="183.15" cy="98.44" r="1.4"/><circle class="cls-5" cx="187.8" cy="92.5" r="1.4"/><path class="cls-1" d="M174,22.3c21.45,3.92,29.68-6.12,29.21-14.19"/><path class="cls-1" d="M176,22.57c-10.52-6.49-.16-16.26,2.09.27"/><path class="cls-1" d="M174,22.28c-16,8.88-14.21-9.84,0,0"/><path class="cls-1" d="M176.31,22.79c-11.28,7.3.25,17.13,1.32.08"/><path class="cls-2" d="M261.43,37.93a1.63,1.63,0,0,0-.58-2.21,2,2,0,0,0-2.73.74,2.55,2.55,0,0,0,.92,3.46,3.09,3.09,0,0,0,4.26-1.16,4,4,0,0,0-1.43-5.41,4.84,4.84,0,0,0-6.66,1.81,6.24,6.24,0,0,0,2.24,8.45c3.64,2.14,8.8.54,11.63-3.08C278.13,29.9,260-2,220,6.28"/><path class="cls-1" d="M277,9.22q3.78,1.37,3.19,5c-1.94-.27-3.51-1.18-3.91-4"/><path class="cls-1" d="M276.31,10.22q.07,4-3.54,4.76c-.43-1.91-.15-3.69,2.36-5.08"/><path class="cls-1" d="M275.09,9.87q-3.09,2.57-5.92.21c1.22-1.54,2.79-2.43,5.44-1.34"/><path class="cls-1" d="M274.58,8.78a4,4,0,0,1-1.65-5c1.87.6,3.26,1.75,3.19,4.61"/><path class="cls-1" d="M276.06,8.54c.63-2.6,2.18-3.84,4.63-3.71-.06,2-.79,3.62-3.57,4.33"/><path class="cls-1" d="M286.51,20.36q2.87,2.81.81,5.87c-1.65-1.06-2.69-2.53-1.88-5.28"/><path class="cls-1" d="M285.43,21c-1.07,2.45-2.81,3.4-5.2,2.85.4-1.92,1.4-3.43,4.26-3.64"/><path class="cls-1" d="M284.47,20.13q-3.87,1.05-5.48-2.27c1.75-.89,3.56-1.05,5.51,1.05"/><path class="cls-1" d="M284.46,18.93a4,4,0,0,1,.6-5.27c1.45,1.32,2.24,2.94,1,5.52"/><path class="cls-1" d="M285.9,19.33q2.49-3.15,5.76-1.44c-.88,1.76-2.23,3-5.05,2.45"/><path class="cls-1" d="M287.33,34.26q3.3,2.3,1.78,5.66c-1.81-.77-3.09-2.05-2.74-4.9"/><path class="cls-1" d="M286.36,35c-.65,2.59-2.2,3.82-4.65,3.67.08-2,.82-3.61,3.6-4.3"/><path class="cls-1" d="M285.28,34.37c-2.43,1.12-4.36.67-5.78-1.33,1.58-1.17,3.33-1.62,5.61.12"/><path class="cls-1" d="M285.07,33.19a4,4,0,0,1-.28-5.3c1.65,1.06,2.7,2.53,1.88,5.28"/><path class="cls-1" d="M286.56,33.35Q288.5,29.83,292,31c-.57,1.88-1.71,3.29-4.57,3.25"/><path class="cls-1" d="M300.54,132.53s9.27,11.14,11.83,7.47C314.55,137.08,300.54,132.53,300.54,132.53Z"/><path class="cls-1" d="M300.6,132.53s13.25,5.87,14.93,1.9C317,131.22,300.6,132.53,300.6,132.53Z"/><path class="cls-1" d="M300.43,132.7s10.31,10,7.08,12.94C305,148.13,300.43,132.7,300.43,132.7Z"/><path class="cls-1" d="M301.05,133s-14.57-3.33-12.11-7.06C290.84,122.8,301.05,133,301.05,133Z"/><path class="cls-1" d="M301,132.9s-11.16-8.94-8-12C295.45,118.23,301,132.9,301,132.9Z"/><path class="cls-1" d="M300.93,133.12s-13.92-4.7-15.39-.71C284.2,135.65,300.93,133.12,300.93,133.12Z"/><path class="cls-1" d="M300.25,132.9s11.73-8.52,8.23-11.31C305.71,119.22,300.25,132.9,300.25,132.9Z"/><path class="cls-1" d="M300.26,132.84S307,120,303.13,118.06C300,116.35,300.26,132.84,300.26,132.84Z"/><path class="cls-1" d="M300.42,133s10.66-9.63,13.37-6.22C316.11,129.52,300.42,133,300.42,133Z"/><path class="cls-1" d="M300.71,132.42s-4.28,14.32-7.84,11.62C289.91,141.94,300.71,132.42,300.71,132.42Z"/><path class="cls-1" d="M300.65,132.44S291,143,288.11,139.67C285.65,137,300.65,132.44,300.65,132.44Z"/><path class="cls-1" d="M300.86,131.6s-5.6,13.58-1.71,15.31C302.3,148.46,300.86,131.6,300.86,131.6Z"/><path class="cls-2" d="M205.74,115.78c-4,5.55-19.86,14.38-19.86,14.38s3.38-17.83,7.38-23.38,7.57.89,3.06,8.92C203,109.17,209.75,110.23,205.74,115.78Z"/><path class="cls-1" d="M212.54,125.61c8.2-8,13.39-15.17,24-22.51.44,5.19-7.59,13.46-17.46,22.41-1.84.06-3.3.63-3.64,2.67"/><path class="cls-1" d="M213.94,129.45c.87,0,1.56.47,2.08,1.55.52.64.95.11.68-.76a17.75,17.75,0,0,0-6.33-6.06c-.68-.41-1,0-.11.83a2,2,0,0,1,1,2A10.41,10.41,0,0,1,213.94,129.45Z"/><path class="cls-1" d="M211.26,127a80.59,80.59,0,0,0-14.39,16.72,4.86,4.86,0,0,0,3.55,3.2c6.64-7.35,8.66-11.39,13.52-17.49"/><path class="cls-1" d="M198.21,141.7a9.23,9.23,0,0,0,3.94,3.33"/><path class="cls-1" d="M230.11,108c1.22,1-2.32,2.57-2.26,4.88,3.06,1.56-3.62,2.92-2,4.34.45.6-2.08,2.38-1.61,3.47"/><path class="cls-2" d="M247.41,77.3c-.13,5-1.35,10.73-5.78,13.78-4.62,3.18-11,2.6-16.14,1.44-2.79-.63-5.38-1.77-8.29-1.52a7.35,7.35,0,0,0-5.87,3.52c-1.66,2.62-1.51,6.26.67,8.1a4.23,4.23,0,0,0,5.89-.49,3.27,3.27,0,0,0-.36-4.65,2.68,2.68,0,0,0-3.76.32,2.09,2.09,0,0,0,.22,3,1.73,1.73,0,0,0,2.41-.2,1.33,1.33,0,0,0-.14-1.9,1.1,1.1,0,0,0-1.54.12"/><circle class="cls-5" cx="307.57" cy="112.27" r="1.05"/><path class="cls-2" d="M308.06,108.5c20-29.29-7.24-34.56,0,0"/><path class="cls-2" d="M211.61,147h35.25c2.49-8.67.66-16.47-2.83-23.95C237.65,134.13,226.27,141.71,211.61,147Z"/><path class="cls-1" d="M358.77,68.31a28.62,28.62,0,0,1-5.31-2,11.33,11.33,0,0,1-3.79-2.82,3.12,3.12,0,0,1-.7-2.82c.37-1.24,1.79-1.16,2.77-.82a11,11,0,0,1,3.46,2.23,18.92,18.92,0,0,1,4.24,5.26"/><path class="cls-1" d="M358.67,70.72a28,28,0,0,1-5,2.67,11.32,11.32,0,0,1-4.61,1,3.14,3.14,0,0,1-2.59-1.33c-.69-1.1.31-2.11,1.21-2.62a10.91,10.91,0,0,1,3.95-1.15,19.14,19.14,0,0,1,6.75.27"/><path class="cls-1" d="M351.19,69.36a8.83,8.83,0,0,1-2.86-.94,3.12,3.12,0,0,1-1.74-2.33c-.14-1.29,1.2-1.77,2.24-1.82a8,8,0,0,1,1.54.07"/><path class="cls-1" d="M350.37,74.39a8.27,8.27,0,0,0-1.21,1.23c-.64.82-1.16,2.14-.1,2.89a3.11,3.11,0,0,0,2.89.22,11.13,11.13,0,0,0,3.88-2.7,27.53,27.53,0,0,0,3.59-4.39"/><path class="cls-1" d="M357.34,75c-10.93,10.86-15.87,23.78-15.61,36.46"/><path class="cls-2" d="M354.07,147.31H329.62V81.45C332.71,112.05,336.59,134.37,354.07,147.31Z"/><polygon class="cls-2" points="337.35 64.56 334.62 65.15 332.74 63.08 333.59 60.42 336.32 59.82 338.2 61.9 337.35 64.56"/><polygon class="cls-2" points="344.74 52.25 340.83 53.1 338.14 50.14 339.36 46.33 343.27 45.48 345.96 48.44 344.74 52.25"/><polygon class="cls-2" points="335.75 75.32 334.05 75.69 332.88 74.4 333.41 72.75 335.11 72.38 336.28 73.67 335.75 75.32"/><path class="cls-3" d="M330.78,3.19l-2.23,2.53a.24.24,0,0,1-.35,0,.26.26,0,0,1,0-.36h0L330.56,3a.15.15,0,0,1,.21,0A.15.15,0,0,1,330.78,3.19Z"/><path class="cls-3" d="M332.75,2.77,335.28,5a.26.26,0,0,1,0,.36.25.25,0,0,1-.35,0h0L332.54,3a.15.15,0,0,1,0-.22A.16.16,0,0,1,332.75,2.77Z"/><path class="cls-3" d="M331.81,3.39l.1,3.37a.24.24,0,0,1-.24.25.24.24,0,0,1-.26-.24h0l.1-3.37a.15.15,0,0,1,.3,0Z"/><path class="cls-3" d="M345.89,3.19l-2.23,2.53a.25.25,0,0,1-.35,0,.24.24,0,0,1,0-.35h0L345.66,3a.16.16,0,0,1,.22,0A.15.15,0,0,1,345.89,3.19Z"/><path class="cls-3" d="M347.85,2.76,350.38,5a.24.24,0,0,1,0,.35.25.25,0,0,1-.36,0h0L347.64,3a.16.16,0,0,1,0-.22A.15.15,0,0,1,347.85,2.76Z"/><path class="cls-3" d="M346.92,3.38l.1,3.37a.26.26,0,0,1-.25.26.25.25,0,0,1-.25-.24v0l.09-3.37a.17.17,0,0,1,.16-.15A.15.15,0,0,1,346.92,3.38Z"/><circle class="cls-5" cx="349.07" cy="106.51" r="1.4"/><circle class="cls-5" cx="350.15" cy="98.44" r="1.4"/><path class="cls-1" d="M341,22.3c21.45,3.92,29.68-6.12,29.21-14.19"/><path class="cls-1" d="M343,22.57c-10.52-6.49-.16-16.26,2.09.27"/><path class="cls-1" d="M341,22.28c-16,8.88-14.21-9.84,0,0"/><path class="cls-1" d="M343.31,22.79c-11.28,7.3.25,17.13,1.32.08"/></svg>