<svg id="Layer_1" data-name="Layer 1" xmlns="http://www.w3.org/2000/svg" viewBox="0 0 350 150"><defs><style>.cls-1,.cls-2,.cls-3,.cls-5{fill:none;}.cls-1,.cls-2,.cls-3,.cls-5,.cls-6,.cls-7{stroke:#03e2b7;}.cls-1,.cls-2,.cls-3{stroke-linecap:round;stroke-linejoin:round;}.cls-1,.cls-5{stroke-width:0.4px;}.cls-2{stroke-width:0.3px;}.cls-3{stroke-width:0.5px;}.cls-4,.cls-7{fill:#03e2b7;}.cls-5,.cls-6,.cls-7{stroke-miterlimit:10;}.cls-6{fill:#fff;}.cls-6,.cls-7{stroke-width:0;}</style></defs><title>bg</title><path class="cls-1" d="M68,18.74c7-.36,10.26,3.46,12.16,8.7C74.61,27.34,70,25.55,68,18.76"/><path class="cls-1" d="M75.18,16Q53,21.9,48.23,44.09"/><path class="cls-1" d="M57.51,26.25c6.88-1.59,10.7,1.61,13.49,6.44-5.51.88-10.4-.08-13.5-6.42"/><path class="cls-1" d="M50.43,37.06C56.79,34,61.23,36.24,65,40.33c-5.17,2.08-10.15,2.24-14.59-3.25"/><path class="cls-1" d="M68,18.58C73.42,14,73.15,9,71,3.92c-4,3.88-6.17,8.36-3,14.65"/><path class="cls-1" d="M57.38,26c4.25-5.64,2.88-10.43-.4-14.94-3,4.67-4.16,9.53.37,14.94"/><path class="cls-1" d="M50.28,37.17c2-6.77-.92-10.78-5.56-13.87-1.23,5.43-.59,10.38,5.54,13.88"/><path class="cls-1" d="M75.19,16c6.73,2.13,10.8-.75,14-5.34-5.42-1.32-10.37-.76-14,5.32"/><path class="cls-1" d="M132.06,53.27C120,56,116.8,62.76,116.76,71,126.47,70.56,121.57,55.83,132.06,53.27Z"/><path class="cls-1" d="M120,64.29q-4.71,19.29-43.25,4.07"/><path class="cls-1" d="M118.06,55.51c-12.15,2.25-15.59,8.92-15.94,17.17C111.84,72.58,107.49,57.68,118.06,55.51Z"/><path class="cls-1" d="M97.29,74.44c4.45-1,8-2.84,8.78-7.08"/><path class="cls-1" d="M100,50.1c-12.11,2.47-15.43,9.2-15.62,17.46C94.13,67.28,89.51,52.46,100,50.1Z"/><path class="cls-1" d="M79.62,69.41c4.44-1.1,7.93-3,8.65-7.24"/><path class="cls-1" d="M126.78,95c-12-2.9-15.08-9.76-15-18C121.5,77.61,116.34,92.25,126.78,95Z"/><path class="cls-1" d="M107.07,75c4.39,1.26,7.82,3.28,8.39,7.55"/><path class="cls-1" d="M102.48,95.64C91.3,90.39,89.65,83.06,91.4,75,100.78,77.55,92.8,90.86,102.48,95.64Z"/><path class="cls-1" d="M87.17,72.07c4,2.11,7,4.77,6.71,9.07"/><path class="cls-1" d="M46.78,104.45c-3.22,3-6.83,2.92-10.66.92a4.42,4.42,0,0,1,3.24-3.15,10.53,10.53,0,0,1-3.89-7.78,5.51,5.51,0,0,1,5.19,0c.43-3.39,2.29-6.59,6.12-9.55,3.83,3,5.68,6.16,6.11,9.55a5.51,5.51,0,0,1,5.19,0,10.49,10.49,0,0,1-3.89,7.78,4.4,4.4,0,0,1,3.24,3.15c-3.83,2-7.43,2.13-10.65-.92"/><path class="cls-1" d="M46.78,97.92c2.4,16.91-5.51,29.58-21.55,38.93"/><path class="cls-1" d="M33.47,120.06c-1.13,2.33-3.12,3-5.62,2.71A2.59,2.59,0,0,1,29,120.38,6.13,6.13,0,0,1,25.23,117a3.2,3.2,0,0,1,2.83-1.08,8.34,8.34,0,0,1,1.35-6.47,8.32,8.32,0,0,1,5.31,3.94,3.22,3.22,0,0,1,2.83-1.08,6.1,6.1,0,0,1-.51,5,2.58,2.58,0,0,1,2.43,1c-1.68,1.88-3.62,2.71-6,1.71"/><path class="cls-1" d="M32.35,116.7c1.29,3.27,2.08,7.66,2.18,13.55"/><path class="cls-1" d="M51.84,117.83c0,2.22,1.35,3.47,3.41,4.14a2.22,2.22,0,0,0,0-2.27,5.28,5.28,0,0,0,4.15-1.34,2.76,2.76,0,0,0-1.82-1.86A7.18,7.18,0,0,0,58.83,111a7.15,7.15,0,0,0-5.56,1.16,2.74,2.74,0,0,0-1.83-1.85A5.26,5.26,0,0,0,50,114.39a2.22,2.22,0,0,0-2.27,0c.63,2.07,1.85,3.41,4.08,3.49"/><path class="cls-1" d="M41.59,122.72c5.64-1.63,11.29-4.37,13-7.36"/><path class="cls-1" d="M113.46,138.54a1.73,1.73,0,0,0,.32-1.91,32.14,32.14,0,0,0-3-4.85c-1.34-1.95-2.75-3.86-4.17-5.76a3,3,0,0,0-2.69-1.47c-9.67,1.9-12.3-8.13-17.13-16.79a27,27,0,0,0,10.43-7.43c6.6,7.4,15.21,13.17,10.25,21.69a2.93,2.93,0,0,0,.5,3c1.33,2,2.67,3.92,4.08,5.83a32.3,32.3,0,0,0,3.6,4.4,1.75,1.75,0,0,0,1.91.32"/><path class="cls-1" d="M113.9,137a10.59,10.59,0,0,0-3.29,3.17c-.35.57-1,1.81-.33,2.38a1.61,1.61,0,0,0,1.29.15,9,9,0,0,0,2.44-.92,26.2,26.2,0,0,0,7-5.14c.52-.55,2.1-2.17,1.24-3s-2.3-.2-3.09.09a11.12,11.12,0,0,0-3.16,1.79"/><path class="cls-1" d="M86.82,107.76a31.09,31.09,0,0,1,10.43-7.43"/><path class="cls-1" d="M104.55,124.58a8.36,8.36,0,0,0,2.65-1.89"/><path class="cls-1" d="M95.71,122.5c12.52-8,5.73-19.27,4.17-15.54.45-3.11,3.22-.89,7.64,5.09"/><path class="cls-2" d="M99.52,108.67c-.29.93,1.35.52.52-.25"/><path class="cls-2" d="M99.22,111.76c-.78.57.78,1.21.57.11"/><path class="cls-2" d="M97,109.55c-.8,0-.2,1.17.34.55"/><circle class="cls-1" cx="9.99" cy="94.45" r="4.84"/><path class="cls-1" d="M-.1,103.45c4.38,5.1,6.78,4.16,10.71,3.57a4.35,4.35,0,0,0,7.29-.65c4.09-1.64,3.24-4.15,1.76-7.36a9.75,9.75,0,0,0,.49-8.34,24.19,24.19,0,0,1-3.64-5.36c-11-9.22-13.12,3.86-18,4.08C-7.87,89.37-5.13,101.07-.1,103.45Z"/><path class="cls-1" d="M6.37,93.33A4.82,4.82,0,0,1,12,91.07"/><path class="cls-1" d="M10.77,47a43.1,43.1,0,0,0-5-10.56,14.18,14.18,0,0,1-3.35.27A18.47,18.47,0,0,1,0,36.52c-2.63,2.79-4,6.68-4.85,11.08C.67,50,5.9,49.92,10.77,47Z"/><path class="cls-1" d="M3.67,43.86a22.4,22.4,0,0,1-1.29-7.11"/><path class="cls-1" d="M10.59,21.46A42.81,42.81,0,0,1,5.7,32.1a13.81,13.81,0,0,0-3.36-.23,20.59,20.59,0,0,0-2.42.27c-2.66-2.76-4.12-6.63-5-11C.45,18.65,5.69,18.65,10.59,21.46Z"/><path class="cls-1" d="M3.54,24.74a22.75,22.75,0,0,0-1.2,7.13"/><path class="cls-1" d="M0,36.52a9,9,0,0,1,0-4.38"/><path class="cls-1" d="M5.73,36.48a10.77,10.77,0,0,0,0-4.38"/><path class="cls-1" d="M11.88,137.81a11.59,11.59,0,1,0-13.59-.55C-5.95,139.78,15.05,141.2,11.88,137.81Z"/><path class="cls-1" d="M-1.55,138.64l0,.65c-4.21,2.45,17.49,3.56,13.07.42l0-.51"/><path class="cls-1" d="M-2,139.71A8.68,8.68,0,0,0-5.9,142.1c-.1,2.94,21.21,3.21,21.54.69A8.74,8.74,0,0,0,12,140.16"/><path class="cls-1" d="M15.64,142.79l-.06,1.64c-1.61,3.13-20.37,2.78-21.53-.7l0-1.63"/><path class="cls-1" d="M-1.71,137.26a48.69,48.69,0,0,0,13.59.55"/><path class="cls-1" d="M-3.62,124.84q2.7-5.59,9.78-6.55"/><path class="cls-1" d="M12.94,134.43a8.08,8.08,0,0,0,2.38-6.61"/><path class="cls-1" d="M64.37,87.38a12.37,12.37,0,0,1,1.22-1.65l1.53-2.09c.54-.73,1.07-1.47,1.62-2.19.42-.54.73-1.27,1.37-1.6a2.82,2.82,0,0,1,1.92,0c.75.14,1.51.24,2.26.37q2.31.39,4.62.81A1.88,1.88,0,0,1,80,81.6a7.22,7.22,0,0,1,.73,1.34c.37.63.71,1.28,1.06,1.93.71,1.3,1.42,2.61,2.11,3.92a1.6,1.6,0,0,1,.17,1.29A7.09,7.09,0,0,1,83,91.6L81.6,93.39c-.52.69-1.07,1.35-1.6,2s-.89,1.53-1.68,1.93a3.5,3.5,0,0,1-1.79.15l-2.18,0-2.57-.06A9.07,9.07,0,0,1,69,97.24a2,2,0,0,1-.86-.73,27.37,27.37,0,0,1-1.78-3.6l-1.09-2.24a11,11,0,0,1-1-2.17,1.67,1.67,0,0,1,0-.5A1.78,1.78,0,0,1,64.37,87.38Z"/><polyline class="cls-1" points="79.76 81.37 78.82 83.53 68.06 88.34 68.43 96.83 78.03 95.39 78.82 83.53 70.11 79.85 68.06 88.34 64.18 88"/><polyline class="cls-1" points="68.06 88.34 78.03 95.39 78.32 97.35"/><line class="cls-1" x1="78.03" y1="95.39" x2="83.66" y2="90.71"/><line class="cls-1" x1="78.82" y1="83.53" x2="83.93" y2="88.79"/><polygon class="cls-3" points="48.14 138.09 47.65 140.84 49.78 142.65 52.41 141.7 52.91 138.94 50.77 137.14 48.14 138.09"/><polygon class="cls-3" points="60.17 130.26 59.47 134.2 62.52 136.78 66.29 135.43 66.99 131.49 63.94 128.91 60.17 130.26"/><polygon class="cls-3" points="69.59 113.89 67.78 119.34 71.6 123.63 77.22 122.46 79.03 117.01 75.21 112.72 69.59 113.89"/><polygon class="cls-3" points="35.44 141.08 35.14 142.79 36.46 143.91 38.1 143.32 38.4 141.61 37.08 140.49 35.44 141.08"/><path class="cls-1" d="M87.31,136.42s4.91,5.9,6.27,4C94.74,138.83,87.31,136.42,87.31,136.42Z"/><path class="cls-1" d="M87.34,136.42s7,3.11,7.92,1C96.05,135.72,87.34,136.42,87.34,136.42Z"/><path class="cls-1" d="M87.25,136.51s5.47,5.3,3.75,6.86C89.65,144.69,87.25,136.51,87.25,136.51Z"/><path class="cls-1" d="M87.58,136.64s-7.73-1.77-6.42-3.74C82.16,131.26,87.58,136.64,87.58,136.64Z"/><path class="cls-1" d="M87.56,136.61s-5.92-4.74-4.26-6.39C84.61,128.83,87.56,136.61,87.56,136.61Z"/><path class="cls-1" d="M87.51,136.73s-7.38-2.49-8.16-.38C78.64,138.07,87.51,136.73,87.51,136.73Z"/><path class="cls-1" d="M87.15,136.61s6.22-4.52,4.37-6C90.05,129.36,87.15,136.61,87.15,136.61Z"/><path class="cls-1" d="M87.16,136.58s3.56-6.81,1.52-7.84C87,127.84,87.16,136.58,87.16,136.58Z"/><path class="cls-1" d="M87.24,136.68s5.66-5.11,7.09-3.3C95.57,134.82,87.24,136.68,87.24,136.68Z"/><path class="cls-1" d="M87.39,136.36s-2.26,7.59-4.15,6.16C81.67,141.41,87.39,136.36,87.39,136.36Z"/><path class="cls-1" d="M87.37,136.37s-5.12,5.59-6.66,3.83C79.41,138.81,87.37,136.37,87.37,136.37Z"/><path class="cls-1" d="M87.48,135.92s-3,7.2-.91,8.12C88.24,144.86,87.48,135.92,87.48,135.92Z"/><path class="cls-1" d="M-4.12,4.33c18.2,8.85,29.93,22,33.07,40.88.18,1,8.47-37.74,24.38-40.88Z"/><path class="cls-1" d="M115.07,6.38c4.14-.29,20.6.33,34.2.55,2.53,0,2,1.53.2,1.58-14.15,0-29.26,1.27-34.38.52A3.15,3.15,0,0,0,115.07,6.38Z"/><path class="cls-1" d="M115.09,9a1.22,1.22,0,0,0-1.17-.13,88.66,88.66,0,0,1-10.4-.25,3.23,3.23,0,0,0,0-2,87.53,87.53,0,0,1,10.38-.12,1.16,1.16,0,0,0,1.15-.12"/><path class="cls-1" d="M103.59,8.42c-3.85,1.14-7.31.61-8.3-1,.92-1.55,4.52-2,8.24-.4"/><path class="cls-1" d="M113.54,8.92a3.84,3.84,0,0,0,0-2.46"/><path class="cls-1" d="M103.69,7.43a24.93,24.93,0,0,0-8.4,0,19.6,19.6,0,0,0,8.37.65"/><path class="cls-3" d="M62,56a1.63,1.63,0,0,1-2.25.42,2,2,0,0,1-.5-2.78A2.55,2.55,0,0,1,62.73,53a3.09,3.09,0,0,1,.79,4.35,4,4,0,0,1-5.5,1A4.83,4.83,0,0,1,56.8,51.6,6.24,6.24,0,0,1,65.39,50c3.49,2.38,4.26,7.72,2.21,11.83-5.72,12.74-42.34,10-52-29.66"/><path class="cls-4" d="M124.85,145.93l-2.37-2.4a.25.25,0,0,1,0-.36.25.25,0,0,1,.35,0h0l2.23,2.53a.16.16,0,0,1,0,.22A.15.15,0,0,1,124.85,145.93Z"/><path class="cls-4" d="M126.83,145.92l2.4-2.37a.25.25,0,0,1,.35,0,.25.25,0,0,1,0,.36h0L127,146.15a.16.16,0,0,1-.22,0A.15.15,0,0,1,126.83,145.92Z"/><path class="cls-4" d="M125.8,145.53l-.1-3.38a.25.25,0,0,1,.24-.25.24.24,0,0,1,.26.24h0l-.1,3.38a.15.15,0,0,1-.3,0Z"/><path class="cls-4" d="M140,145.93l-2.37-2.4a.25.25,0,0,1,0-.35.24.24,0,0,1,.35,0h0l2.23,2.53a.16.16,0,0,1,0,.22A.15.15,0,0,1,140,145.93Z"/><path class="cls-4" d="M141.93,145.93l2.4-2.37a.25.25,0,0,1,.36,0,.25.25,0,0,1,0,.35h0l-2.53,2.23a.14.14,0,0,1-.21,0A.15.15,0,0,1,141.93,145.93Z"/><path class="cls-4" d="M140.9,145.53l-.09-3.37a.25.25,0,0,1,.24-.26.26.26,0,0,1,.26.24v0l-.1,3.37a.15.15,0,0,1-.16.15A.16.16,0,0,1,140.9,145.53Z"/><path class="cls-4" d="M152.88,145.93l-2.37-2.4a.24.24,0,0,1,0-.35.25.25,0,0,1,.36,0h0l2.23,2.53a.16.16,0,0,1,0,.22A.15.15,0,0,1,152.88,145.93Z"/><path class="cls-4" d="M154.86,145.93l2.4-2.37a.25.25,0,0,1,.35.35h0l-2.53,2.23a.16.16,0,0,1-.22,0A.15.15,0,0,1,154.86,145.93Z"/><path class="cls-4" d="M153.83,145.53l-.1-3.37a.26.26,0,0,1,.25-.26.25.25,0,0,1,.25.24v0l-.09,3.37a.16.16,0,0,1-.16.15A.15.15,0,0,1,153.83,145.53Z"/><path class="cls-1" d="M-5.65,61c5-1.37,8.33,2.67,11,7.31C.05,67.6-5,66.07-5.65,61Z"/><path class="cls-1" d="M5.32,68.37A7.14,7.14,0,0,1-6,67.72a6.91,6.91,0,0,1,3.42-1.83"/><path class="cls-1" d="M5.31,68.29C7.47,63.4,4.47,58.55.53,57.93a6.9,6.9,0,0,0-.36,3.86"/><path class="cls-1" d="M4.42,60.29a4.56,4.56,0,0,1,1-2c3.6,1.6,3.52,7.19-.08,10-1.15,4.4-6.25,6.64-9.14,3.95a5,5,0,0,1,1.51-1.76"/><path class="cls-1" d="M2.14,72.53c6.18-3.53,5.14-2.09,5.69-8"/><path class="cls-1" d="M7.09,69.8c10.16,2.07,17.43,8.33,22,18.54"/><path class="cls-1" d="M16,73.09a7.26,7.26,0,0,0,0-4.82A10.49,10.49,0,0,1,20.11,76"/><path class="cls-3" d="M44.51,75.76c-1.13,2.38-8.65,5.79-8.65,5.79s-2.1-8-1-10.36,4.77.69,3.91,4.18C41.3,72.65,45.64,73.39,44.51,75.76Z"/><path class="cls-3" d="M155,70c6.15,16.34-4.94,32.26-23.68,34.07a18.76,18.76,0,0,0-8.1,2.3,7.3,7.3,0,0,0-3.71,5.75c-.34,3.08,1.41,6.29,4.18,7a4.22,4.22,0,0,0,5.06-3,3.27,3.27,0,0,0-2.37-4,2.7,2.7,0,0,0-3.24,1.94,2.09,2.09,0,0,0,1.51,2.57,1.73,1.73,0,0,0,2.08-1.24,1.35,1.35,0,0,0-1-1.65,1.11,1.11,0,0,0-1.33.8"/><path class="cls-1" d="M104.65,45.45a14.58,14.58,0,0,0,14.86-4.34c2.49-2.8,2.75-5.9,1.45-9.29-1.46-3.85-4.06-7.26-6.67-10.4-.3-1.78-1-3.16-2.5-3.71-6.34-2.11-9.82-2.28-14.07,1.42-6,5.12-3.94,9.41-4.56,12.81-.57.79-1.38,1.3-1,2.14,2,3.26,7.69,9.37,9.93,12C102.69,47,103.87,45.93,104.65,45.45Z"/><path class="cls-1" d="M115.61,40.92c1-5.07-5.23-17.2-16.33-19.39"/><path class="cls-1" d="M101.18,18.24c-2.55,2-2.33,4.27-1.35,6.7.47.55,2.49.66,3.75,2.36"/><path class="cls-1" d="M106,30.15c2.69,3.08,6.45,6.9,6,7.82q-.07,3.06,3.58,3c2-.24,3.18-.52,4.41-1.8"/><ellipse class="cls-1" cx="104.42" cy="29.05" rx="1.47" ry="1.87" transform="translate(6.07 74.59) rotate(-40.4)"/><path class="cls-1" d="M104.74,45.37l4.46-3.8a2.34,2.34,0,0,0,.22-3.3L101,28.39a2.35,2.35,0,0,0-3.3-.32l-4.46,3.8"/><rect class="cls-1" x="107.72" y="31.39" width="1.63" height="5.67" rx="0.81" transform="translate(3.69 78.49) rotate(-40.4)"/><polyline class="cls-1" points="101.03 33.15 100.75 36.92 99.3 37.02"/><path class="cls-5" d="M85.46,43.52c-.46.56-2.7-1-2.7-1s0,2.72-.71,2.79-1.21-2.61-1.21-2.61-1.92,1.93-2.47,1.47,1-2.7,1-2.7-2.72,0-2.79-.71,2.61-1.21,2.61-1.21-1.93-1.92-1.47-2.47,2.7,1,2.7,1,0-2.72.71-2.79,1.21,2.61,1.21,2.61S84.25,36,84.8,36.43s-1,2.7-1,2.7,2.72,0,2.79.71S84,41.05,84,41.05,85.92,43,85.46,43.52Z"/><circle class="cls-6" cx="135.87" cy="87.75" r="1.05"/><path class="cls-3" d="M136.36,84c20-29.29-7.24-34.56,0,0"/><path class="cls-3" d="M123.28,15c7.35,9.2,10.23,19.05,7.17,29.75-.15.56,13.88-17.72,23-15.39Z"/><circle class="cls-1" cx="151.98" cy="47.93" r="7.55"/><circle class="cls-1" cx="151.98" cy="47.93" r="3.7"/><path class="cls-1" d="M154.92,123.79l-3.62-.69L139.92,132l.56-14.43-3.3-3.11c-.71,7.29,1.85,16.64,2.63,17.75a17.67,17.67,0,0,0,4.17-1.33l.28-.11A43.8,43.8,0,0,0,155.75,124l-.16,0Z"/><polyline class="cls-1" points="155.71 124.03 156.53 118.85 152.13 117.92 151.3 123.1 140.48 117.56 144.19 113.86 140.87 110.83 137.15 114.53"/><line class="cls-1" x1="152.13" y1="117.93" x2="144.19" y2="113.86"/><polyline class="cls-1" points="140.86 110.85 144.95 111.39 153.69 115.87 156.52 118.87"/><path class="cls-1" d="M238,18.74c7-.36,10.26,3.46,12.16,8.7-5.57-.1-10.23-1.89-12.17-8.68"/><path class="cls-1" d="M245.18,16q-22.16,5.88-27,28.07"/><path class="cls-1" d="M227.51,26.25c6.88-1.59,10.7,1.61,13.49,6.44-5.51.88-10.4-.08-13.5-6.42"/><path class="cls-1" d="M220.43,37.06c6.36-3.08,10.8-.82,14.59,3.27-5.17,2.08-10.15,2.24-14.59-3.25"/><path class="cls-1" d="M238,18.58C243.42,14,243.15,9,241,3.92c-4,3.88-6.17,8.36-3,14.65"/><path class="cls-1" d="M227.38,26c4.25-5.64,2.88-10.43-.4-14.94-3,4.67-4.16,9.53.37,14.94"/><path class="cls-1" d="M220.28,37.17c2-6.77-.92-10.78-5.56-13.87-1.23,5.43-.59,10.38,5.54,13.88"/><path class="cls-1" d="M245.19,16c6.73,2.13,10.8-.75,14-5.34-5.42-1.32-10.37-.76-14,5.32"/><path class="cls-1" d="M302.06,53.27C290,56,286.8,62.76,286.76,71,296.47,70.56,291.57,55.83,302.06,53.27Z"/><path class="cls-1" d="M290,64.29q-4.71,19.29-43.25,4.07"/><path class="cls-1" d="M288.06,55.51c-12.15,2.25-15.59,8.92-15.94,17.17C281.84,72.58,277.49,57.68,288.06,55.51Z"/><path class="cls-1" d="M267.29,74.44c4.45-1,8-2.84,8.78-7.08"/><path class="cls-1" d="M270,50.1c-12.11,2.47-15.43,9.2-15.62,17.46C264.13,67.28,259.51,52.46,270,50.1Z"/><path class="cls-1" d="M249.62,69.41c4.44-1.1,7.93-3,8.65-7.24"/><path class="cls-1" d="M296.78,95c-12-2.9-15.08-9.76-15-18C291.5,77.61,286.34,92.25,296.78,95Z"/><path class="cls-1" d="M277.07,75c4.39,1.26,7.82,3.28,8.39,7.55"/><path class="cls-1" d="M272.48,95.64C261.3,90.39,259.65,83.06,261.4,75,270.78,77.55,262.8,90.86,272.48,95.64Z"/><path class="cls-1" d="M257.17,72.07c4.05,2.11,7,4.77,6.71,9.07"/><path class="cls-1" d="M216.78,104.45c-3.22,3-6.83,2.92-10.66.92a4.42,4.42,0,0,1,3.24-3.15,10.53,10.53,0,0,1-3.89-7.78,5.51,5.51,0,0,1,5.19,0c.43-3.39,2.29-6.59,6.12-9.55,3.83,3,5.68,6.16,6.11,9.55a5.51,5.51,0,0,1,5.19,0,10.49,10.49,0,0,1-3.89,7.78,4.4,4.4,0,0,1,3.24,3.15c-3.83,2-7.43,2.13-10.65-.92"/><path class="cls-1" d="M216.78,97.92c2.4,16.91-5.51,29.58-21.55,38.93"/><path class="cls-1" d="M203.47,120.06c-1.13,2.33-3.12,3-5.62,2.71a2.59,2.59,0,0,1,1.11-2.39,6.13,6.13,0,0,1-3.73-3.43,3.2,3.2,0,0,1,2.83-1.08,8.34,8.34,0,0,1,1.35-6.47,8.32,8.32,0,0,1,5.31,3.94,3.22,3.22,0,0,1,2.83-1.08,6.1,6.1,0,0,1-.51,5,2.58,2.58,0,0,1,2.43,1c-1.68,1.88-3.62,2.71-6,1.71"/><path class="cls-1" d="M202.35,116.7c1.29,3.27,2.08,7.66,2.18,13.55"/><path class="cls-1" d="M221.84,117.83c0,2.22,1.35,3.47,3.41,4.14a2.22,2.22,0,0,0,0-2.27,5.28,5.28,0,0,0,4.15-1.34,2.76,2.76,0,0,0-1.82-1.86,7.18,7.18,0,0,0,1.26-5.54,7.15,7.15,0,0,0-5.56,1.16,2.74,2.74,0,0,0-1.83-1.85,5.26,5.26,0,0,0-1.41,4.12,2.22,2.22,0,0,0-2.27,0c.63,2.07,1.85,3.41,4.08,3.49"/><path class="cls-1" d="M211.59,122.72c5.64-1.63,11.29-4.37,13-7.36"/><path class="cls-1" d="M283.46,138.54a1.73,1.73,0,0,0,.32-1.91,32.14,32.14,0,0,0-3-4.85c-1.34-1.95-2.75-3.86-4.17-5.76a3,3,0,0,0-2.69-1.47c-9.67,1.9-12.3-8.13-17.13-16.79a27,27,0,0,0,10.43-7.43c6.6,7.4,15.21,13.17,10.25,21.69a2.93,2.93,0,0,0,.5,3c1.33,2,2.67,3.92,4.08,5.83a32.3,32.3,0,0,0,3.6,4.4,1.75,1.75,0,0,0,1.91.32"/><path class="cls-1" d="M283.9,137a10.59,10.59,0,0,0-3.29,3.17c-.35.57-1,1.81-.33,2.38a1.61,1.61,0,0,0,1.29.15,9,9,0,0,0,2.44-.92,26.2,26.2,0,0,0,7-5.14c.52-.55,2.1-2.17,1.24-3s-2.3-.2-3.09.09a11.12,11.12,0,0,0-3.16,1.79"/><path class="cls-1" d="M256.82,107.76a31.09,31.09,0,0,1,10.43-7.43"/><path class="cls-1" d="M274.55,124.58a8.36,8.36,0,0,0,2.65-1.89"/><path class="cls-1" d="M265.71,122.5c12.52-8,5.73-19.27,4.17-15.54.45-3.11,3.22-.89,7.64,5.09"/><path class="cls-2" d="M269.52,108.67c-.29.93,1.35.52.52-.25"/><path class="cls-2" d="M269.22,111.76c-.78.57.78,1.21.57.11"/><path class="cls-2" d="M267,109.55c-.8,0-.2,1.17.34.55"/><circle class="cls-1" cx="179.99" cy="94.45" r="4.84"/><path class="cls-1" d="M169.9,103.45c4.38,5.1,6.78,4.16,10.71,3.57a4.35,4.35,0,0,0,7.29-.65c4.09-1.64,3.24-4.15,1.76-7.36a9.75,9.75,0,0,0,.49-8.34,24.19,24.19,0,0,1-3.64-5.36c-11-9.22-13.12,3.86-18,4.08C162.13,89.37,164.87,101.07,169.9,103.45Z"/><path class="cls-1" d="M176.37,93.33A4.82,4.82,0,0,1,182,91.07"/><path class="cls-1" d="M180.77,47a43.1,43.1,0,0,0-5-10.56,14.18,14.18,0,0,1-3.35.27,18.47,18.47,0,0,1-2.43-.23c-2.63,2.79-4,6.68-4.85,11.08C170.67,50,175.9,49.92,180.77,47Z"/><path class="cls-1" d="M173.67,43.86a22.4,22.4,0,0,1-1.29-7.11"/><path class="cls-1" d="M180.59,21.46A42.81,42.81,0,0,1,175.7,32.1a13.81,13.81,0,0,0-3.36-.23,20.59,20.59,0,0,0-2.42.27c-2.66-2.76-4.12-6.63-5-11C170.45,18.65,175.69,18.65,180.59,21.46Z"/><path class="cls-1" d="M173.54,24.74a22.75,22.75,0,0,0-1.2,7.13"/><path class="cls-1" d="M170,36.52a9,9,0,0,1,0-4.38"/><path class="cls-1" d="M175.73,36.48a10.77,10.77,0,0,0,0-4.38"/><path class="cls-1" d="M181.88,137.81a11.59,11.59,0,1,0-13.59-.55C164.05,139.78,185.05,141.2,181.88,137.81Z"/><path class="cls-1" d="M168.45,138.64l0,.65c-4.21,2.45,17.49,3.56,13.07.42l0-.51"/><path class="cls-1" d="M168,139.71a8.68,8.68,0,0,0-3.85,2.39c-.1,2.94,21.21,3.21,21.54.69a8.74,8.74,0,0,0-3.69-2.63"/><path class="cls-1" d="M185.64,142.79l-.06,1.64c-1.61,3.13-20.37,2.78-21.53-.7l0-1.63"/><path class="cls-1" d="M168.29,137.26a48.69,48.69,0,0,0,13.59.55"/><path class="cls-1" d="M166.38,124.84q2.7-5.59,9.78-6.55"/><path class="cls-1" d="M182.94,134.43a8.08,8.08,0,0,0,2.38-6.61"/><path class="cls-1" d="M234.37,87.38a12.37,12.37,0,0,1,1.22-1.65l1.53-2.09c.54-.73,1.07-1.47,1.62-2.19.42-.54.73-1.27,1.37-1.6a2.82,2.82,0,0,1,1.92,0c.75.14,1.51.24,2.26.37q2.31.39,4.62.81a1.88,1.88,0,0,1,1.12.54,7.22,7.22,0,0,1,.73,1.34c.37.63.71,1.28,1.06,1.93.71,1.3,1.42,2.61,2.11,3.92a1.6,1.6,0,0,1,.17,1.29A7.09,7.09,0,0,1,253,91.6l-1.38,1.79c-.52.69-1.07,1.35-1.6,2s-.89,1.53-1.68,1.93a3.5,3.5,0,0,1-1.79.15l-2.18,0-2.57-.06a9.07,9.07,0,0,1-2.81-.16,2,2,0,0,1-.86-.73,27.37,27.37,0,0,1-1.78-3.6l-1.09-2.24a11,11,0,0,1-1-2.17,1.67,1.67,0,0,1,0-.5A1.78,1.78,0,0,1,234.37,87.38Z"/><polyline class="cls-1" points="249.76 81.37 248.82 83.53 238.06 88.34 238.43 96.83 248.03 95.39 248.82 83.53 240.11 79.85 238.06 88.34 234.18 88"/><polyline class="cls-1" points="238.06 88.34 248.03 95.39 248.32 97.35"/><line class="cls-1" x1="248.03" y1="95.39" x2="253.66" y2="90.71"/><line class="cls-1" x1="248.82" y1="83.53" x2="253.93" y2="88.79"/><polygon class="cls-3" points="218.14 138.09 217.65 140.84 219.78 142.65 222.41 141.7 222.91 138.94 220.77 137.14 218.14 138.09"/><polygon class="cls-3" points="230.17 130.26 229.47 134.2 232.52 136.78 236.29 135.43 236.99 131.49 233.94 128.91 230.17 130.26"/><polygon class="cls-3" points="239.59 113.89 237.78 119.34 241.6 123.63 247.22 122.46 249.03 117.01 245.21 112.72 239.59 113.89"/><polygon class="cls-3" points="205.44 141.08 205.14 142.79 206.46 143.91 208.1 143.32 208.4 141.61 207.08 140.49 205.44 141.08"/><path class="cls-1" d="M257.31,136.42s4.91,5.9,6.27,4C264.74,138.83,257.31,136.42,257.31,136.42Z"/><path class="cls-1" d="M257.34,136.42s7,3.11,7.92,1C266.05,135.72,257.34,136.42,257.34,136.42Z"/><path class="cls-1" d="M257.25,136.51s5.47,5.3,3.75,6.86C259.65,144.69,257.25,136.51,257.25,136.51Z"/><path class="cls-1" d="M257.58,136.64s-7.73-1.77-6.42-3.74C252.16,131.26,257.58,136.64,257.58,136.64Z"/><path class="cls-1" d="M257.56,136.61s-5.92-4.74-4.26-6.39C254.61,128.83,257.56,136.61,257.56,136.61Z"/><path class="cls-1" d="M257.51,136.73s-7.38-2.49-8.16-.38C248.64,138.07,257.51,136.73,257.51,136.73Z"/><path class="cls-1" d="M257.15,136.61s6.22-4.52,4.37-6C260.05,129.36,257.15,136.61,257.15,136.61Z"/><path class="cls-1" d="M257.16,136.58s3.56-6.81,1.52-7.84C257,127.84,257.16,136.58,257.16,136.58Z"/><path class="cls-1" d="M257.24,136.68s5.66-5.11,7.09-3.3C265.57,134.82,257.24,136.68,257.24,136.68Z"/><path class="cls-1" d="M257.39,136.36s-2.26,7.59-4.15,6.16C251.67,141.41,257.39,136.36,257.39,136.36Z"/><path class="cls-1" d="M257.37,136.37s-5.12,5.59-6.66,3.83C249.41,138.81,257.37,136.37,257.37,136.37Z"/><path class="cls-1" d="M257.48,135.92s-3,7.2-.91,8.12C258.24,144.86,257.48,135.92,257.48,135.92Z"/><path class="cls-1" d="M165.88,4.33c18.2,8.85,29.93,22,33.07,40.88.18,1,8.47-37.74,24.38-40.88Z"/><path class="cls-1" d="M285.07,6.38c4.14-.29,20.6.33,34.2.55,2.53,0,2,1.53.2,1.58-14.15,0-29.26,1.27-34.38.52A3.15,3.15,0,0,0,285.07,6.38Z"/><path class="cls-1" d="M285.09,9a1.22,1.22,0,0,0-1.17-.13,88.66,88.66,0,0,1-10.4-.25,3.23,3.23,0,0,0,0-2,87.53,87.53,0,0,1,10.38-.12,1.16,1.16,0,0,0,1.15-.12"/><path class="cls-1" d="M273.59,8.42c-3.85,1.14-7.31.61-8.3-1,.92-1.55,4.52-2,8.24-.4"/><path class="cls-1" d="M283.54,8.92a3.84,3.84,0,0,0,0-2.46"/><path class="cls-1" d="M273.69,7.43a24.93,24.93,0,0,0-8.4,0,19.6,19.6,0,0,0,8.37.65"/><path class="cls-3" d="M232,56a1.63,1.63,0,0,1-2.25.42,2,2,0,0,1-.5-2.78,2.55,2.55,0,0,1,3.51-.66,3.09,3.09,0,0,1,.79,4.35,4,4,0,0,1-5.5,1,4.83,4.83,0,0,1-1.22-6.79A6.24,6.24,0,0,1,235.39,50c3.49,2.38,4.26,7.72,2.21,11.83-5.72,12.74-42.34,10-52-29.66"/><circle class="cls-7" cx="47.07" cy="61.71" r="1.4"/><circle class="cls-7" cx="39.62" cy="58.42" r="1.4"/><circle class="cls-7" cx="35.22" cy="52.3" r="1.4"/><circle class="cls-7" cx="217.07" cy="61.71" r="1.4"/><circle class="cls-7" cx="209.62" cy="58.42" r="1.4"/><circle class="cls-7" cx="205.22" cy="52.3" r="1.4"/><path class="cls-4" d="M294.85,145.93l-2.37-2.4a.25.25,0,0,1,0-.36.25.25,0,0,1,.35,0h0l2.23,2.53a.16.16,0,0,1,0,.22A.15.15,0,0,1,294.85,145.93Z"/><path class="cls-4" d="M296.83,145.92l2.4-2.37a.25.25,0,0,1,.35,0,.25.25,0,0,1,0,.36h0L297,146.15a.16.16,0,0,1-.22,0A.15.15,0,0,1,296.83,145.92Z"/><path class="cls-4" d="M295.8,145.53l-.1-3.38a.25.25,0,0,1,.24-.25.24.24,0,0,1,.26.24h0l-.1,3.38a.15.15,0,0,1-.3,0Z"/><path class="cls-4" d="M310,145.93l-2.37-2.4a.25.25,0,0,1,0-.35.24.24,0,0,1,.35,0h0l2.23,2.53a.16.16,0,0,1,0,.22A.15.15,0,0,1,310,145.93Z"/><path class="cls-4" d="M311.93,145.93l2.4-2.37a.25.25,0,0,1,.36,0,.25.25,0,0,1,0,.35h0l-2.53,2.23a.14.14,0,0,1-.21,0A.15.15,0,0,1,311.93,145.93Z"/><path class="cls-4" d="M310.9,145.53l-.09-3.37a.25.25,0,0,1,.24-.26.26.26,0,0,1,.26.24v0l-.1,3.37a.15.15,0,0,1-.16.15A.16.16,0,0,1,310.9,145.53Z"/><path class="cls-4" d="M322.88,145.93l-2.37-2.4a.24.24,0,0,1,0-.35.25.25,0,0,1,.36,0h0l2.23,2.53a.16.16,0,0,1,0,.22A.15.15,0,0,1,322.88,145.93Z"/><path class="cls-4" d="M324.86,145.93l2.4-2.37a.25.25,0,0,1,.35.35h0l-2.53,2.23a.16.16,0,0,1-.22,0A.15.15,0,0,1,324.86,145.93Z"/><path class="cls-4" d="M323.83,145.53l-.1-3.37a.26.26,0,0,1,.25-.26.25.25,0,0,1,.25.24v0l-.09,3.37a.16.16,0,0,1-.16.15A.15.15,0,0,1,323.83,145.53Z"/><path class="cls-1" d="M164.35,61c5-1.37,8.33,2.67,11,7.31C170.05,67.6,165,66.07,164.35,61Z"/><path class="cls-1" d="M175.32,68.37A7.14,7.14,0,0,1,164,67.72a6.91,6.91,0,0,1,3.42-1.83"/><path class="cls-1" d="M175.31,68.29c2.16-4.89-.84-9.74-4.78-10.36a6.9,6.9,0,0,0-.36,3.86"/><path class="cls-1" d="M174.42,60.29a4.56,4.56,0,0,1,1-2c3.6,1.6,3.52,7.19-.08,10-1.15,4.4-6.25,6.64-9.14,3.95a5,5,0,0,1,1.51-1.76"/><path class="cls-1" d="M172.14,72.53c6.18-3.53,5.14-2.09,5.69-8"/><path class="cls-1" d="M177.09,69.8c10.16,2.07,17.43,8.33,22,18.54"/><path class="cls-1" d="M186,73.09a7.26,7.26,0,0,0,0-4.82A10.49,10.49,0,0,1,190.11,76"/><path class="cls-3" d="M214.51,75.76c-1.13,2.38-8.65,5.79-8.65,5.79s-2.1-8-1-10.36,4.77.69,3.91,4.18C211.3,72.65,215.64,73.39,214.51,75.76Z"/><path class="cls-3" d="M325,70c6.15,16.34-4.94,32.26-23.68,34.07a18.76,18.76,0,0,0-8.1,2.3,7.3,7.3,0,0,0-3.71,5.75c-.34,3.08,1.41,6.29,4.18,7a4.22,4.22,0,0,0,5.06-3,3.27,3.27,0,0,0-2.37-4,2.7,2.7,0,0,0-3.24,1.94,2.09,2.09,0,0,0,1.51,2.57,1.73,1.73,0,0,0,2.08-1.24,1.35,1.35,0,0,0-1-1.65,1.11,1.11,0,0,0-1.33.8"/><path class="cls-1" d="M274.65,45.45a14.58,14.58,0,0,0,14.86-4.34c2.49-2.8,2.75-5.9,1.45-9.29-1.46-3.85-4.06-7.26-6.67-10.4-.3-1.78-1-3.16-2.5-3.71-6.34-2.11-9.82-2.28-14.07,1.42-6,5.12-3.94,9.41-4.56,12.81-.57.79-1.38,1.3-1,2.14,2,3.26,7.69,9.37,9.93,12C272.69,47,273.87,45.93,274.65,45.45Z"/><path class="cls-1" d="M285.61,40.92c1-5.07-5.23-17.2-16.33-19.39"/><path class="cls-1" d="M271.18,18.24c-2.55,2-2.33,4.27-1.35,6.7.47.55,2.49.66,3.75,2.36"/><path class="cls-1" d="M276,30.15c2.69,3.08,6.45,6.9,6,7.82q-.07,3.06,3.58,3c2-.24,3.18-.52,4.41-1.8"/><ellipse class="cls-1" cx="274.42" cy="29.05" rx="1.47" ry="1.87" transform="translate(46.6 184.76) rotate(-40.4)"/><path class="cls-1" d="M274.74,45.37l4.46-3.8a2.34,2.34,0,0,0,.22-3.3L271,28.39a2.35,2.35,0,0,0-3.3-.32l-4.46,3.8"/><rect class="cls-1" x="277.72" y="31.39" width="1.63" height="5.67" rx="0.81" transform="translate(44.22 188.66) rotate(-40.4)"/><polyline class="cls-1" points="271.03 33.15 270.75 36.92 269.3 37.02"/><path class="cls-5" d="M255.46,43.52c-.46.56-2.7-1-2.7-1s0,2.72-.71,2.79-1.21-2.61-1.21-2.61-1.92,1.93-2.47,1.47,1-2.7,1-2.7-2.72,0-2.79-.71,2.61-1.21,2.61-1.21-1.93-1.92-1.47-2.47,2.7,1,2.7,1,0-2.72.71-2.79,1.21,2.61,1.21,2.61,1.92-1.93,2.47-1.47-1,2.7-1,2.7,2.72,0,2.79.71S254,41.05,254,41.05,255.92,43,255.46,43.52Z"/><circle class="cls-6" cx="305.87" cy="87.75" r="1.05"/><path class="cls-3" d="M306.36,84c20-29.29-7.24-34.56,0,0"/><path class="cls-3" d="M293.28,15c7.35,9.2,10.23,19.05,7.17,29.75-.15.56,13.88-17.72,23-15.39Z"/><circle class="cls-1" cx="321.98" cy="47.93" r="7.55"/><circle class="cls-1" cx="321.98" cy="47.93" r="3.7"/><path class="cls-1" d="M324.92,123.79l-3.62-.69L309.92,132l.56-14.43-3.3-3.11c-.71,7.29,1.85,16.64,2.63,17.75a17.67,17.67,0,0,0,4.17-1.33l.28-.11A43.8,43.8,0,0,0,325.75,124l-.16,0Z"/><polyline class="cls-1" points="325.71 124.03 326.53 118.85 322.13 117.92 321.3 123.1 310.48 117.56 314.19 113.86 310.87 110.83 307.15 114.53"/><line class="cls-1" x1="322.13" y1="117.93" x2="314.19" y2="113.86"/><polyline class="cls-1" points="310.86 110.85 314.95 111.39 323.69 115.87 326.52 118.87"/><circle class="cls-1" cx="351.99" cy="94.45" r="4.84"/><path class="cls-1" d="M341.9,103.45c4.38,5.1,6.78,4.16,10.71,3.57a4.35,4.35,0,0,0,7.29-.65c4.09-1.64,3.24-4.15,1.76-7.36a9.75,9.75,0,0,0,.49-8.34,24.19,24.19,0,0,1-3.64-5.36c-11-9.22-13.12,3.86-18,4.08C334.13,89.37,336.87,101.07,341.9,103.45Z"/><path class="cls-1" d="M348.37,93.33A4.82,4.82,0,0,1,354,91.07"/><path class="cls-1" d="M352.77,47a43.1,43.1,0,0,0-5-10.56,14.18,14.18,0,0,1-3.35.27,18.47,18.47,0,0,1-2.43-.23c-2.63,2.79-4,6.68-4.85,11.08C342.67,50,347.9,49.92,352.77,47Z"/><path class="cls-1" d="M345.67,43.86a22.4,22.4,0,0,1-1.29-7.11"/><path class="cls-1" d="M352.59,21.46A42.81,42.81,0,0,1,347.7,32.1a13.81,13.81,0,0,0-3.36-.23,20.59,20.59,0,0,0-2.42.27c-2.66-2.76-4.12-6.63-5-11C342.45,18.65,347.69,18.65,352.59,21.46Z"/><path class="cls-1" d="M345.54,24.74a22.75,22.75,0,0,0-1.2,7.13"/><path class="cls-1" d="M342,36.52a9,9,0,0,1,0-4.38"/><path class="cls-1" d="M347.73,36.48a10.77,10.77,0,0,0,0-4.38"/><path class="cls-1" d="M353.88,137.81a11.59,11.59,0,1,0-13.59-.55C336.05,139.78,357.05,141.2,353.88,137.81Z"/><path class="cls-1" d="M340.45,138.64l0,.65c-4.21,2.45,17.49,3.56,13.07.42l0-.51"/><path class="cls-1" d="M340,139.71a8.68,8.68,0,0,0-3.85,2.39c-.1,2.94,21.21,3.21,21.54.69a8.74,8.74,0,0,0-3.69-2.63"/><path class="cls-1" d="M357.64,142.79l-.06,1.64c-1.61,3.13-20.37,2.78-21.53-.7l.05-1.63"/><path class="cls-1" d="M340.29,137.26a48.69,48.69,0,0,0,13.59.55"/><path class="cls-1" d="M338.38,124.84q2.7-5.59,9.78-6.55"/><path class="cls-1" d="M337.88,4.33c18.2,8.85,29.93,22,33.07,40.88.18,1,8.47-37.74,24.38-40.88Z"/><path class="cls-1" d="M336.35,61c5-1.37,8.33,2.67,11,7.31C342.05,67.6,337,66.07,336.35,61Z"/><path class="cls-1" d="M347.32,68.37A7.14,7.14,0,0,1,336,67.72a6.91,6.91,0,0,1,3.42-1.83"/><path class="cls-1" d="M347.31,68.29c2.16-4.89-.84-9.74-4.78-10.36a6.9,6.9,0,0,0-.36,3.86"/><path class="cls-1" d="M346.42,60.29a4.56,4.56,0,0,1,1-2c3.6,1.6,3.52,7.19-.08,10-1.15,4.4-6.25,6.64-9.14,3.95a5,5,0,0,1,1.51-1.76"/><path class="cls-1" d="M344.14,72.53c6.18-3.53,5.14-2.09,5.69-8"/><path class="cls-1" d="M349.09,69.8c10.16,2.07,17.43,8.33,22,18.54"/></svg>