<svg xmlns="http://www.w3.org/2000/svg" xmlns:xlink="http://www.w3.org/1999/xlink" viewBox="0 0 350 150"><defs><style>.cls-1{fill:none;}.cls-2{fill:#00131e;}.cls-3{clip-path:url(#clip-path);}.cls-4{fill:#303030;}.cls-21,.cls-27,.cls-5{fill:#fff;}.cls-6{clip-path:url(#clip-path-2);}.cls-7{fill:#93b4d8;}.cls-12,.cls-13,.cls-8{font-size:3.57px;letter-spacing:0.04em;}.cls-10,.cls-11,.cls-16,.cls-18,.cls-31,.cls-8{fill:#1c6fd1;}.cls-12,.cls-19,.cls-28,.cls-34,.cls-35,.cls-37,.cls-39,.cls-8{font-family:OpenSans, Open Sans;}.cls-9{fill:#f0f9ff;}.cls-10{font-size:4.46px;letter-spacing:0.02em;}.cls-10,.cls-13,.cls-16,.cls-18,.cls-21,.cls-27,.cls-31,.cls-33,.cls-36{font-family:OpenSans-Bold, Open Sans;font-weight:700;}.cls-12,.cls-13,.cls-33,.cls-35,.cls-36,.cls-37{fill:#363a41;}.cls-14{fill:#ff9d28;}.cls-15{fill:#ffbc6b;}.cls-16{font-size:4.46px;letter-spacing:0.02em;}.cls-17{clip-path:url(#clip-path-3);}.cls-18,.cls-27{font-size:4.46px;}.cls-18{letter-spacing:0.02em;}.cls-19,.cls-21{font-size:3.56px;}.cls-19,.cls-34{fill:#617682;}.cls-19{letter-spacing:0.04em;}.cls-20{fill:#ff6200;}.cls-21{letter-spacing:0.18em;}.cls-22{clip-path:url(#clip-path-4);}.cls-23{fill:#f47575;}.cls-24{fill:#a2dffa;}.cls-25{clip-path:url(#clip-path-6);}.cls-26{fill:#002e47;}.cls-27{letter-spacing:0.18em;}.cls-28{font-size:3.12px;letter-spacing:0.04em;}.cls-28,.cls-29{fill:#a3b9c3;}.cls-30{clip-path:url(#clip-path-8);}.cls-31{font-size:4.48px;letter-spacing:0.02em;}.cls-32{fill:#044d80;}.cls-33,.cls-34,.cls-35{font-size:3.58px;letter-spacing:0.04em;}.cls-36{font-size:3.14px;letter-spacing:0.18em;}.cls-37,.cls-39{font-size:3.58px;letter-spacing:0.04em;}.cls-38{fill:#21ac21;}.cls-39{fill:#607480;}</style><clipPath id="clip-path"><rect class="cls-1" width="350" height="150"/></clipPath><clipPath id="clip-path-2"><path class="cls-1" d="M142.26,201.88a9.06,9.06,0,0,1-9-9.06V29.27a9.07,9.07,0,0,1,9-9.06h8.45a1.64,1.64,0,0,1,1.64,1.59l0,1a4.1,4.1,0,0,0,4.11,4h37.11a4.1,4.1,0,0,0,4.12-4l0-1a1.64,1.64,0,0,1,1.64-1.59h8.44a9.07,9.07,0,0,1,9.06,9.06V192.82a9.06,9.06,0,0,1-9.06,9.06Z"/></clipPath><clipPath id="clip-path-3"><path class="cls-1" d="M34.7,201.88a9.06,9.06,0,0,1-9.05-9.06V29.27a9.07,9.07,0,0,1,9.05-9.06h8.45a1.64,1.64,0,0,1,1.64,1.59l0,1a4.1,4.1,0,0,0,4.11,4H86.06a4.1,4.1,0,0,0,4.11-4l0-1a1.64,1.64,0,0,1,1.64-1.59h8.45a9.07,9.07,0,0,1,9,9.06V192.82a9.06,9.06,0,0,1-9,9.06Z"/></clipPath><clipPath id="clip-path-4"><rect class="cls-1" x="30.02" y="52.41" width="13.37" height="13.37"/></clipPath><clipPath id="clip-path-6"><rect class="cls-1" x="30.02" y="91.96" width="13.37" height="13.37"/></clipPath><clipPath id="clip-path-8"><path class="cls-1" d="M249.7,201.88a9.06,9.06,0,0,1-9-9.06V29.27a9.07,9.07,0,0,1,9-9.06h8.45a1.64,1.64,0,0,1,1.64,1.59l0,1a4.1,4.1,0,0,0,4.11,4h37.12a4.1,4.1,0,0,0,4.11-4l0-1a1.64,1.64,0,0,1,1.64-1.59h8.45a9.07,9.07,0,0,1,9.05,9.06V192.82a9.06,9.06,0,0,1-9.05,9.06Z"/></clipPath></defs><title>bg</title><g id="Layer_2" data-name="Layer 2"><rect class="cls-2" width="350" height="150"/></g><g id="Layer_1" data-name="Layer 1"><g class="cls-3"><path class="cls-4" d="M129.37,41h0a0,0,0,0,1,0,0v7.13a0,0,0,0,1,0,0h0a2.2,2.2,0,0,1-2.2-2.2V43.23a2.2,2.2,0,0,1,2.2-2.2Z"/><path class="cls-4" d="M129.37,54.76h0a0,0,0,0,1,0,0V68.48a0,0,0,0,1,0,0h0a2.2,2.2,0,0,1-2.2-2.2V57a2.2,2.2,0,0,1,2.2-2.2Z"/><path class="cls-4" d="M220.75,59.15h0a2.2,2.2,0,0,1,2.2,2.2V78.92a2.2,2.2,0,0,1-2.2,2.2h0a0,0,0,0,1,0,0v-22A0,0,0,0,1,220.75,59.15Z"/><path class="cls-4" d="M129.37,72.05h0a0,0,0,0,1,0,0V85.78a0,0,0,0,1,0,0h0a2.2,2.2,0,0,1-2.2-2.2V74.25a2.2,2.2,0,0,1,2.2-2.2Z"/><path class="cls-4" d="M207.85,15H142.26A14.27,14.27,0,0,0,128,29.27V192.82a14.27,14.27,0,0,0,14.27,14.27h65.59a14.27,14.27,0,0,0,14.27-14.27V29.27A14.27,14.27,0,0,0,207.85,15ZM218,192.82A10.17,10.17,0,0,1,207.85,203H142.26a10.17,10.17,0,0,1-10.15-10.16V29.27a10.16,10.16,0,0,1,10.15-10.15h65.59A10.17,10.17,0,0,1,218,29.27Z"/><rect x="82.03" y="67" width="186.05" height="88.09" rx="10.35" transform="translate(286.1 -64.01) rotate(90)"/><path class="cls-5" d="M142.26,201.88a9.06,9.06,0,0,1-9-9.06V29.27a9.07,9.07,0,0,1,9-9.06h8.45a1.64,1.64,0,0,1,1.64,1.59l0,1a4.1,4.1,0,0,0,4.11,4h37.11a4.1,4.1,0,0,0,4.12-4l0-1a1.64,1.64,0,0,1,1.64-1.59h8.44a9.07,9.07,0,0,1,9.06,9.06V192.82a9.06,9.06,0,0,1-9.06,9.06Z"/><circle class="cls-4" cx="185.49" cy="22.96" r="1.65"/><path class="cls-4" d="M180,23.78h-9.88a.82.82,0,0,1-.82-.82h0a.81.81,0,0,1,.82-.82H180a.82.82,0,0,1,.82.82h0A.82.82,0,0,1,180,23.78Z"/><g class="cls-6"><rect class="cls-7" x="135.97" y="83.85" width="78.09" height="0.11"/><text class="cls-8" transform="translate(135.97 77.85)">See all ratings +</text><rect class="cls-9" x="133.3" y="36.31" width="83.67" height="15.39"/><text class="cls-10" transform="translate(135.97 45.95)">Reviews</text><rect class="cls-7" x="133.3" y="36.09" width="83.67" height="0.22"/><path class="cls-11" d="M213.78,45.46a.21.21,0,0,1-.16-.07l-1.85-1.85-1.85,1.85a.22.22,0,1,1-.31-.31l2-2a.22.22,0,0,1,.32,0l2,2a.23.23,0,0,1-.16.38Z"/><rect class="cls-7" x="133.3" y="51.71" width="83.67" height="0.22"/><text class="cls-12" transform="translate(135.97 107.02)">Ease of Use</text><text class="cls-13" transform="translate(135.97 60.67)">QuickBooks Enterprise</text><text class="cls-12" transform="translate(135.97 67.93)">Overall Rating</text><text class="cls-12" transform="translate(199.86 67.93)">(14,122)</text><rect class="cls-7" x="135.97" y="144.54" width="78.09" height="0.11"/><text class="cls-8" transform="translate(135.97 138.53)">Hide ratings -</text><text class="cls-13" transform="translate(135.97 92.58)">NetSuite</text><text class="cls-12" transform="translate(135.97 99.84)">Overall Rating</text><text class="cls-12" transform="translate(205.47 99.84)">(416)</text><polygon class="cls-14" points="180.59 96.32 181.22 97.64 182.6 97.85 181.6 98.88 181.84 100.33 180.59 99.65 179.35 100.33 179.59 98.88 178.59 97.85 179.97 97.64 180.59 96.32"/><path class="cls-14" d="M181.84,100.45l-.06,0-1.19-.65-1.18.65a.11.11,0,0,1-.17-.11l.23-1.4-1-1a.11.11,0,0,1,0-.11.12.12,0,0,1,.09-.08l1.33-.2.59-1.27a.12.12,0,0,1,.21,0l.59,1.27,1.33.2a.12.12,0,0,1,.09.08.11.11,0,0,1,0,.11l-1,1,.23,1.4a.16.16,0,0,1,0,.11Zm-1.25-.91h.06l1,.58-.2-1.23a.1.1,0,0,1,0-.1l.85-.87-1.17-.18a.15.15,0,0,1-.09-.06l-.52-1.11-.51,1.11a.15.15,0,0,1-.09.06l-1.17.18.85.87a.1.1,0,0,1,0,.1l-.2,1.23,1-.58Z"/><polygon class="cls-14" points="200.68 96.32 201.29 97.64 202.68 97.85 201.68 98.88 201.92 100.33 200.68 99.65 199.43 100.33 199.67 98.88 198.67 97.85 200.05 97.64 200.68 96.32"/><path class="cls-14" d="M201.92,100.45l-.06,0-1.19-.65-1.18.65a.11.11,0,0,1-.17-.11l.23-1.4-1-1a.11.11,0,0,1,0-.11.12.12,0,0,1,.09-.08l1.33-.2.59-1.27a.12.12,0,0,1,.21,0l.59,1.27,1.33.2a.12.12,0,0,1,.09.08.11.11,0,0,1,0,.11l-1,1,.23,1.4a.16.16,0,0,1-.05.11Zm-1.25-.91h.06l1,.58-.2-1.23a.1.1,0,0,1,0-.1l.85-.87-1.17-.18a.15.15,0,0,1-.09-.06l-.52-1.11-.52,1.11a.1.1,0,0,1-.08.06l-1.17.18.85.87a.1.1,0,0,1,0,.1l-.2,1.23,1-.58Z"/><polygon class="cls-14" points="190.63 96.32 191.25 97.64 192.64 97.85 191.64 98.88 191.88 100.33 190.63 99.65 189.39 100.33 189.63 98.88 188.63 97.85 190.01 97.64 190.63 96.32"/><path class="cls-14" d="M191.88,100.45l-.06,0-1.19-.65-1.18.65a.11.11,0,0,1-.17-.11l.23-1.4-1-1a.11.11,0,0,1,0-.11.12.12,0,0,1,.09-.08l1.33-.2.59-1.27a.12.12,0,0,1,.21,0l.59,1.27,1.33.2a.12.12,0,0,1,.09.08.11.11,0,0,1,0,.11l-1,1,.23,1.4a.16.16,0,0,1-.05.11Zm-1.25-.91h.06l1,.58-.2-1.23a.1.1,0,0,1,0-.1l.85-.87-1.17-.18a.15.15,0,0,1-.09-.06l-.52-1.11-.52,1.11a.1.1,0,0,1-.08.06l-1.17.18.85.87a.1.1,0,0,1,0,.1l-.2,1.23,1-.58Z"/><polygon class="cls-14" points="195.66 96.32 196.28 97.64 197.66 97.85 196.66 98.88 196.9 100.33 195.66 99.65 194.41 100.33 194.65 98.88 193.65 97.85 195.03 97.64 195.66 96.32"/><path class="cls-14" d="M196.9,100.45l-.06,0-1.19-.65-1.18.65a.11.11,0,0,1-.17-.11l.23-1.4-1-1a.11.11,0,0,1,0-.11.12.12,0,0,1,.09-.08l1.33-.2.59-1.27a.12.12,0,0,1,.21,0l.59,1.27,1.33.2a.12.12,0,0,1,.09.08.11.11,0,0,1,0,.11l-1,1,.23,1.4a.16.16,0,0,1,0,.11Zm-1.25-.91h.06l1,.58-.2-1.23a.1.1,0,0,1,0-.1l.85-.87-1.17-.18a.15.15,0,0,1-.09-.06l-.52-1.11-.52,1.11a.1.1,0,0,1-.08.06l-1.17.18.85.87a.1.1,0,0,1,0,.1l-.2,1.23,1-.58Z"/><polygon class="cls-14" points="185.62 96.32 186.24 97.64 187.62 97.85 186.62 98.88 186.86 100.33 185.62 99.65 184.37 100.33 184.61 98.88 183.61 97.85 184.99 97.64 185.62 96.32"/><path class="cls-14" d="M186.86,100.45l-.06,0-1.19-.65-1.18.65a.11.11,0,0,1-.17-.11l.23-1.4-1-1a.11.11,0,0,1,0-.11.12.12,0,0,1,.09-.08l1.33-.2.59-1.27a.12.12,0,0,1,.21,0l.59,1.27,1.33.2a.12.12,0,0,1,.09.08.11.11,0,0,1,0,.11l-1,1,.23,1.4a.16.16,0,0,1-.05.11Zm-1.25-.91h.06l1,.58-.2-1.23a.1.1,0,0,1,0-.1l.85-.87-1.17-.18a.15.15,0,0,1-.09-.06l-.52-1.11-.51,1.11a.15.15,0,0,1-.09.06l-1.17.18.85.87a.1.1,0,0,1,0,.1l-.2,1.23,1-.58Z"/><polygon class="cls-14" points="175.09 64.38 175.71 65.71 177.1 65.92 176.09 66.95 176.33 68.4 175.09 67.71 173.85 68.4 174.09 66.95 173.08 65.92 174.47 65.71 175.09 64.38"/><path class="cls-14" d="M176.33,68.51h-.05l-1.19-.66-1.19.66a.09.09,0,0,1-.11,0,.1.1,0,0,1,0-.11L174,67l-1-1a.11.11,0,0,1,0-.12.09.09,0,0,1,.09-.07l1.32-.2.6-1.27a.12.12,0,0,1,.1-.07h0a.12.12,0,0,1,.1.07l.6,1.27,1.33.2a.08.08,0,0,1,.08.07.11.11,0,0,1,0,.12l-1,1,.23,1.4a.11.11,0,0,1,0,.11A.1.1,0,0,1,176.33,68.51Zm-3-2.51.86.87a.15.15,0,0,1,0,.1l-.2,1.22,1-.57a.09.09,0,0,1,.1,0l1,.57L176,67a.15.15,0,0,1,0-.1l.86-.87-1.18-.18a.13.13,0,0,1-.08-.07l-.52-1.1-.52,1.1a.11.11,0,0,1-.08.07Z"/><polygon class="cls-14" points="195.17 64.38 195.79 65.71 197.18 65.92 196.17 66.95 196.41 68.4 195.17 67.71 193.93 68.4 194.17 66.95 193.16 65.92 194.55 65.71 195.17 64.38"/><path class="cls-14" d="M196.41,68.51h0l-1.19-.66L194,68.5a.11.11,0,0,1-.12,0,.11.11,0,0,1,0-.11l.23-1.4-1-1a.11.11,0,0,1,0-.12.09.09,0,0,1,.09-.07l1.32-.2.6-1.27a.12.12,0,0,1,.1-.07h0a.12.12,0,0,1,.1.07l.6,1.27,1.32.2a.09.09,0,0,1,.09.07.11.11,0,0,1,0,.12l-1,1,.23,1.4a.11.11,0,0,1,0,.11A.1.1,0,0,1,196.41,68.51Zm-3-2.51.86.87a.15.15,0,0,1,0,.1l-.2,1.22,1-.57a.09.09,0,0,1,.1,0l1,.57-.2-1.22a.15.15,0,0,1,0-.1L197,66l-1.18-.18a.13.13,0,0,1-.08-.07l-.52-1.1-.52,1.1a.13.13,0,0,1-.08.07Z"/><polygon class="cls-14" points="185.13 64.38 185.75 65.71 187.14 65.92 186.13 66.95 186.37 68.4 185.13 67.71 183.89 68.4 184.13 66.95 183.12 65.92 184.51 65.71 185.13 64.38"/><path class="cls-14" d="M186.37,68.51h-.05l-1.19-.66-1.19.66a.09.09,0,0,1-.11,0,.1.1,0,0,1-.05-.11L184,67l-1-1a.11.11,0,0,1,0-.12.09.09,0,0,1,.09-.07l1.32-.2.6-1.27a.12.12,0,0,1,.1-.07h0a.12.12,0,0,1,.1.07l.6,1.27,1.33.2a.08.08,0,0,1,.08.07.11.11,0,0,1,0,.12l-1,1,.23,1.4a.11.11,0,0,1,0,.11A.1.1,0,0,1,186.37,68.51Zm-3-2.51.86.87a.15.15,0,0,1,0,.1l-.2,1.22,1-.57a.09.09,0,0,1,.1,0l1,.57L186,67a.15.15,0,0,1,0-.1l.86-.87-1.18-.18a.13.13,0,0,1-.08-.07l-.52-1.1-.52,1.1a.11.11,0,0,1-.08.07Z"/><polygon class="cls-14" points="190.15 64.38 190.77 65.71 192.16 65.92 191.15 66.95 191.39 68.4 190.15 67.71 188.91 68.4 189.15 66.95 188.14 65.92 189.53 65.71 190.15 64.38"/><path class="cls-14" d="M191.39,68.51h0l-1.19-.66L189,68.5a.11.11,0,0,1-.12,0,.11.11,0,0,1,0-.11L189,67l-1-1a.11.11,0,0,1,0-.12.09.09,0,0,1,.09-.07l1.32-.2.6-1.27a.12.12,0,0,1,.1-.07h0a.12.12,0,0,1,.1.07l.6,1.27,1.33.2a.08.08,0,0,1,.08.07.11.11,0,0,1,0,.12l-1,1,.23,1.4a.11.11,0,0,1,0,.11A.1.1,0,0,1,191.39,68.51Zm-3-2.51.86.87a.15.15,0,0,1,0,.1l-.2,1.22,1-.57a.09.09,0,0,1,.1,0l1,.57L191,67a.15.15,0,0,1,0-.1l.86-.87-1.18-.18a.13.13,0,0,1-.08-.07l-.52-1.1-.52,1.1a.13.13,0,0,1-.08.07Z"/><polygon class="cls-14" points="180.11 64.38 180.73 65.71 182.12 65.92 181.11 66.95 181.35 68.4 180.11 67.71 178.87 68.4 179.11 66.95 178.1 65.92 179.49 65.71 180.11 64.38"/><path class="cls-14" d="M181.35,68.51h0l-1.19-.66-1.19.66a.09.09,0,0,1-.11,0,.1.1,0,0,1-.05-.11L179,67l-1-1a.11.11,0,0,1,0-.12.09.09,0,0,1,.09-.07l1.32-.2.6-1.27a.12.12,0,0,1,.1-.07h0a.12.12,0,0,1,.1.07l.6,1.27,1.33.2a.08.08,0,0,1,.08.07.11.11,0,0,1,0,.12l-1,1,.23,1.4a.11.11,0,0,1,0,.11A.1.1,0,0,1,181.35,68.51Zm-3-2.51.86.87a.15.15,0,0,1,0,.1l-.2,1.22,1-.57a.09.09,0,0,1,.1,0l1,.57L181,67a.15.15,0,0,1,0-.1l.86-.87-1.18-.18a.13.13,0,0,1-.08-.07l-.52-1.1-.52,1.1a.11.11,0,0,1-.08.07Z"/><text class="cls-12" transform="translate(205.39 107.02)">4.5/5</text><text class="cls-12" transform="translate(135.97 114.19)">Customer Support</text><text class="cls-12" transform="translate(205.39 114.19)">4.0/5</text><text class="cls-12" transform="translate(135.97 121.36)">Features &amp; Functionality</text><text class="cls-12" transform="translate(205.39 121.36)">4.5/5</text><text class="cls-12" transform="translate(135.97 128.54)">Value for Money</text><text class="cls-12" transform="translate(205.39 128.54)">4.0/5</text><polygon class="cls-15" points="187.96 104.21 188.37 105.09 189.3 105.23 188.63 105.92 188.78 106.89 187.96 106.43 187.13 106.89 187.29 105.92 186.62 105.23 187.54 105.09 187.96 104.21"/><path class="cls-15" d="M188.78,107l-.05,0-.77-.42-.78.42a.11.11,0,0,1-.11,0,.11.11,0,0,1,0-.11l.15-.92-.63-.64a.13.13,0,0,1,0-.12.16.16,0,0,1,.09-.07l.87-.13.39-.83a.11.11,0,0,1,.2,0l.39.83.86.13a.13.13,0,0,1,.09.07.13.13,0,0,1,0,.12l-.63.64.14.92a.12.12,0,0,1,0,.11Zm-.82-.68h0l.63.35-.12-.75a.08.08,0,0,1,0-.09l.51-.53-.71-.11a.16.16,0,0,1-.08-.06l-.31-.67-.32.67a.1.1,0,0,1-.08.06l-.71.11.52.53a.14.14,0,0,1,0,.09l-.12.75.62-.35Z"/><polygon class="cls-15" points="191.3 104.21 191.72 105.09 192.64 105.23 191.97 105.92 192.13 106.89 191.3 106.43 190.48 106.89 190.63 105.92 189.97 105.23 190.89 105.09 191.3 104.21"/><path class="cls-15" d="M192.13,107l0,0-.78-.42-.77.42a.13.13,0,0,1-.12,0,.12.12,0,0,1,0-.11l.15-.92-.63-.64a.11.11,0,0,1,.06-.19l.86-.13.39-.83a.11.11,0,0,1,.2,0l.39.83.87.13a.11.11,0,0,1,.06.19l-.63.64.15.92a.12.12,0,0,1,0,.11Zm-.83-.68h.06l.62.35-.12-.75a.14.14,0,0,1,0-.09l.52-.53-.71-.11a.1.1,0,0,1-.08-.06l-.32-.67-.31.67s-.05,0-.08.06l-.71.11.51.53a.08.08,0,0,1,0,.09l-.12.75.63-.35Z"/><polygon class="cls-15" points="194.65 104.21 195.06 105.09 195.99 105.23 195.32 105.92 195.48 106.89 194.65 106.43 193.82 106.89 193.98 105.92 193.31 105.23 194.24 105.09 194.65 104.21"/><path class="cls-15" d="M195.48,107l-.06,0-.77-.42-.77.42a.11.11,0,0,1-.17-.11l.15-.92-.63-.64a.11.11,0,0,1,0-.12.11.11,0,0,1,.09-.07l.86-.13.39-.83a.11.11,0,0,1,.2,0l.39.83.87.13a.11.11,0,0,1,.08.07.11.11,0,0,1,0,.12l-.63.64.15.92a.13.13,0,0,1-.05.11Zm-.83-.68h0l.63.35-.12-.75a.1.1,0,0,1,0-.09l.52-.53-.71-.11a.15.15,0,0,1-.09-.06l-.31-.67-.31.67a.15.15,0,0,1-.09.06l-.71.11.52.53a.08.08,0,0,1,0,.09l-.12.75.63-.35Z"/><polygon class="cls-15" points="198 104.21 198.41 105.09 199.34 105.23 198.67 105.92 198.82 106.89 198 106.43 197.17 106.89 197.33 105.92 196.66 105.23 197.58 105.09 198 104.21"/><path class="cls-15" d="M198.82,107l0,0-.77-.42-.78.42a.11.11,0,0,1-.11,0,.11.11,0,0,1-.05-.11l.15-.92-.63-.64a.13.13,0,0,1,0-.12.16.16,0,0,1,.09-.07l.87-.13.39-.83a.11.11,0,0,1,.2,0l.39.83.86.13a.13.13,0,0,1,.09.07.13.13,0,0,1,0,.12l-.63.64.14.92a.12.12,0,0,1,0,.11Zm-.82-.68h.05l.63.35-.12-.75a.08.08,0,0,1,0-.09l.51-.53-.71-.11a.16.16,0,0,1-.08-.06l-.31-.67-.32.67a.1.1,0,0,1-.08.06l-.71.11.52.53a.14.14,0,0,1,0,.09l-.12.75.62-.35Z"/><path class="cls-15" d="M202.17,107l0,0-.78-.42-.77.42a.13.13,0,0,1-.12,0,.12.12,0,0,1,0-.11l.15-.92-.63-.64a.11.11,0,0,1,.06-.19l.86-.13.39-.83a.11.11,0,0,1,.2,0l.39.83.87.13a.11.11,0,0,1,.06.19l-.63.64.15.92a.12.12,0,0,1,0,.11Zm-.83-.68h.06l.62.35-.12-.75a.14.14,0,0,1,0-.09l.52-.53-.71-.11a.1.1,0,0,1-.08-.06l-.32-.67-.31.67s-.05,0-.08.06l-.71.11.51.53a.08.08,0,0,1,0,.09l-.12.75.63-.35Z"/><polyline class="cls-15" points="201.34 106.43 200.52 106.89 200.68 105.92 200 105.23 200.93 105.09 201.34 104.21"/><path class="cls-15" d="M200.52,107l-.07,0a.12.12,0,0,1,0-.11l.15-.92-.63-.64a.11.11,0,0,1,.06-.19l.86-.13.39-.83a.11.11,0,0,1,.15,0,.1.1,0,0,1,.05.15l-.41.88s-.05,0-.08.06l-.71.11.51.53a.08.08,0,0,1,0,.09l-.12.75.63-.35a.11.11,0,0,1,.15,0,.12.12,0,0,1,0,.16l-.83.45Z"/><polygon class="cls-15" points="187.96 118.51 188.37 119.39 189.3 119.53 188.63 120.22 188.78 121.19 187.96 120.73 187.13 121.19 187.29 120.22 186.62 119.53 187.54 119.39 187.96 118.51"/><path class="cls-15" d="M188.78,121.3l-.05,0-.77-.43-.78.43a.11.11,0,0,1-.11,0,.11.11,0,0,1,0-.11l.15-.92-.63-.64a.13.13,0,0,1,0-.12.16.16,0,0,1,.09-.07l.87-.13.39-.83a.11.11,0,0,1,.2,0l.39.83.86.13a.13.13,0,0,1,.09.07.16.16,0,0,1,0,.12l-.63.64.14.92a.12.12,0,0,1,0,.11Zm-.82-.68h0l.63.35-.12-.75a.08.08,0,0,1,0-.09l.51-.53-.71-.11a.16.16,0,0,1-.08-.06l-.31-.67-.32.67a.1.1,0,0,1-.08.06l-.71.11.52.53a.14.14,0,0,1,0,.09l-.12.75.62-.35Z"/><polygon class="cls-15" points="191.3 118.51 191.72 119.39 192.64 119.53 191.97 120.22 192.13 121.19 191.3 120.73 190.48 121.19 190.63 120.22 189.97 119.53 190.89 119.39 191.3 118.51"/><path class="cls-15" d="M192.13,121.3l0,0-.78-.43-.77.43a.13.13,0,0,1-.12,0,.12.12,0,0,1,0-.11l.15-.92-.63-.64a.11.11,0,0,1,.06-.19l.86-.13.39-.83a.11.11,0,0,1,.2,0l.39.83.87.13a.11.11,0,0,1,.06.19l-.63.64.15.92a.12.12,0,0,1,0,.11Zm-.83-.68h.06l.62.35-.12-.75a.14.14,0,0,1,0-.09l.52-.53-.71-.11a.1.1,0,0,1-.08-.06l-.32-.67-.31.67s-.05,0-.08.06l-.71.11.51.53a.08.08,0,0,1,0,.09l-.12.75.63-.35Z"/><polygon class="cls-15" points="194.65 118.51 195.06 119.39 195.99 119.53 195.32 120.22 195.48 121.19 194.65 120.73 193.82 121.19 193.98 120.22 193.31 119.53 194.24 119.39 194.65 118.51"/><path class="cls-15" d="M195.48,121.3l-.06,0-.77-.43-.77.43a.11.11,0,0,1-.17-.11l.15-.92-.63-.64a.11.11,0,0,1,0-.12.11.11,0,0,1,.09-.07l.86-.13.39-.83a.11.11,0,0,1,.2,0l.39.83.87.13a.16.16,0,0,1,.09.07.13.13,0,0,1,0,.12l-.63.64.15.92a.13.13,0,0,1-.05.11Zm-.83-.68h0l.63.35-.12-.75a.1.1,0,0,1,0-.09l.52-.53-.71-.11a.15.15,0,0,1-.09-.06l-.31-.67-.31.67a.15.15,0,0,1-.09.06l-.71.11.52.53a.08.08,0,0,1,0,.09L194,121l.63-.35Z"/><polygon class="cls-15" points="198 118.51 198.41 119.39 199.34 119.53 198.67 120.22 198.82 121.19 198 120.73 197.17 121.19 197.33 120.22 196.66 119.53 197.58 119.39 198 118.51"/><path class="cls-15" d="M198.82,121.3l0,0-.77-.43-.78.43a.11.11,0,0,1-.11,0,.11.11,0,0,1-.05-.11l.15-.92-.63-.64a.13.13,0,0,1,0-.12.16.16,0,0,1,.09-.07l.87-.13.39-.83a.11.11,0,0,1,.2,0l.39.83.86.13a.13.13,0,0,1,.09.07.16.16,0,0,1,0,.12l-.63.64.14.92a.12.12,0,0,1,0,.11Zm-.82-.68h.05l.63.35-.12-.75a.08.08,0,0,1,0-.09l.51-.53-.71-.11a.16.16,0,0,1-.08-.06l-.31-.67-.32.67a.1.1,0,0,1-.08.06l-.71.11.52.53a.14.14,0,0,1,0,.09l-.12.75.62-.35Z"/><path class="cls-15" d="M202.17,121.3l0,0-.78-.43-.77.43a.13.13,0,0,1-.12,0,.12.12,0,0,1,0-.11l.15-.92-.63-.64a.11.11,0,0,1,.06-.19l.86-.13.39-.83a.11.11,0,0,1,.2,0l.39.83.87.13a.11.11,0,0,1,.06.19l-.63.64.15.92a.12.12,0,0,1,0,.11Zm-.83-.68h.06l.62.35-.12-.75a.14.14,0,0,1,0-.09l.52-.53-.71-.11a.1.1,0,0,1-.08-.06l-.32-.67-.31.67s-.05,0-.08.06l-.71.11.51.53a.08.08,0,0,1,0,.09l-.12.75.63-.35Z"/><polyline class="cls-15" points="201.34 120.73 200.52 121.19 200.68 120.22 200 119.53 200.93 119.39 201.34 118.51"/><path class="cls-15" d="M200.52,121.3l-.07,0a.12.12,0,0,1,0-.11l.15-.92-.63-.64a.11.11,0,0,1,.06-.19l.86-.13.39-.83a.11.11,0,0,1,.15,0,.1.1,0,0,1,.05.14l-.41.89s-.05,0-.08.06l-.71.11.51.53a.08.08,0,0,1,0,.09l-.12.75.63-.35a.11.11,0,0,1,.15,0,.12.12,0,0,1,0,.16l-.83.45Z"/><polygon class="cls-15" points="187.96 111.36 188.37 112.24 189.3 112.38 188.63 113.07 188.78 114.03 187.96 113.58 187.13 114.03 187.29 113.07 186.62 112.38 187.54 112.24 187.96 111.36"/><path class="cls-15" d="M188.78,114.15l-.05,0-.77-.42-.78.42a.11.11,0,0,1-.11,0,.11.11,0,0,1,0-.11l.15-.92-.63-.64a.13.13,0,0,1,0-.12.16.16,0,0,1,.09-.07l.87-.13.39-.83a.11.11,0,0,1,.2,0l.39.83.86.13a.13.13,0,0,1,.09.07.16.16,0,0,1,0,.12l-.63.64.14.92a.12.12,0,0,1,0,.11Zm-.82-.68h0l.63.35-.12-.75a.08.08,0,0,1,0-.09l.51-.53-.71-.11a.16.16,0,0,1-.08-.06l-.31-.67-.32.67a.1.1,0,0,1-.08.06l-.71.11.52.53a.14.14,0,0,1,0,.09l-.12.75.62-.35Z"/><polygon class="cls-15" points="191.3 111.36 191.72 112.24 192.64 112.38 191.97 113.07 192.13 114.03 191.3 113.58 190.48 114.03 190.63 113.07 189.97 112.38 190.89 112.24 191.3 111.36"/><path class="cls-15" d="M192.13,114.15l0,0-.78-.42-.77.42a.13.13,0,0,1-.12,0,.12.12,0,0,1,0-.11l.15-.92-.63-.64a.11.11,0,0,1,.06-.19l.86-.13.39-.83a.11.11,0,0,1,.2,0l.39.83.87.13a.11.11,0,0,1,.06.19l-.63.64.15.92a.12.12,0,0,1,0,.11Zm-.83-.68h.06l.62.35-.12-.75a.14.14,0,0,1,0-.09l.52-.53-.71-.11a.1.1,0,0,1-.08-.06l-.32-.67-.31.67s-.05,0-.08.06l-.71.11.51.53a.08.08,0,0,1,0,.09l-.12.75.63-.35Z"/><polygon class="cls-15" points="194.65 111.36 195.06 112.24 195.99 112.38 195.32 113.07 195.48 114.03 194.65 113.58 193.82 114.03 193.98 113.07 193.31 112.38 194.24 112.24 194.65 111.36"/><path class="cls-15" d="M195.48,114.15l-.06,0-.77-.42-.77.42a.11.11,0,0,1-.17-.11l.15-.92-.63-.64a.11.11,0,0,1,0-.12.11.11,0,0,1,.09-.07l.86-.13.39-.83a.11.11,0,0,1,.2,0l.39.83.87.13a.16.16,0,0,1,.09.07.13.13,0,0,1,0,.12l-.63.64.15.92a.13.13,0,0,1-.05.11Zm-.83-.68h0l.63.35-.12-.75a.1.1,0,0,1,0-.09l.52-.53-.71-.11a.15.15,0,0,1-.09-.06l-.31-.67-.31.67a.15.15,0,0,1-.09.06l-.71.11.52.53a.08.08,0,0,1,0,.09l-.12.75.63-.35Z"/><polygon class="cls-15" points="198 111.36 198.41 112.24 199.34 112.38 198.67 113.07 198.82 114.03 198 113.58 197.17 114.03 197.33 113.07 196.66 112.38 197.58 112.24 198 111.36"/><path class="cls-15" d="M198.82,114.15l0,0-.77-.42-.78.42a.11.11,0,0,1-.11,0,.11.11,0,0,1-.05-.11l.15-.92-.63-.64a.13.13,0,0,1,0-.12.16.16,0,0,1,.09-.07l.87-.13.39-.83a.11.11,0,0,1,.2,0l.39.83.86.13a.13.13,0,0,1,.09.07.16.16,0,0,1,0,.12l-.63.64.14.92a.12.12,0,0,1,0,.11Zm-.82-.68h.05l.63.35-.12-.75a.08.08,0,0,1,0-.09l.51-.53-.71-.11a.16.16,0,0,1-.08-.06l-.31-.67-.32.67a.1.1,0,0,1-.08.06l-.71.11.52.53a.14.14,0,0,1,0,.09l-.12.75.62-.35Z"/><path class="cls-15" d="M202.17,114.15l0,0-.78-.42-.77.42a.13.13,0,0,1-.12,0,.12.12,0,0,1,0-.11l.15-.92-.63-.64a.11.11,0,0,1,.06-.19l.86-.13.39-.83a.11.11,0,0,1,.2,0l.39.83.87.13a.11.11,0,0,1,.06.19l-.63.64.15.92a.12.12,0,0,1,0,.11Zm-.83-.68h.06l.62.35-.12-.75a.14.14,0,0,1,0-.09l.52-.53-.71-.11a.1.1,0,0,1-.08-.06l-.32-.67-.31.67s-.05,0-.08.06l-.71.11.51.53a.08.08,0,0,1,0,.09l-.12.75.63-.35Z"/><polygon class="cls-15" points="187.96 125.66 188.37 126.54 189.3 126.68 188.63 127.37 188.78 128.34 187.96 127.88 187.13 128.34 187.29 127.37 186.62 126.68 187.54 126.54 187.96 125.66"/><path class="cls-15" d="M188.78,128.45l-.05,0L188,128l-.78.43a.11.11,0,0,1-.11,0,.11.11,0,0,1,0-.11l.15-.92-.63-.64a.13.13,0,0,1,0-.12.16.16,0,0,1,.09-.07l.87-.13.39-.83a.11.11,0,0,1,.2,0l.39.83.86.13a.13.13,0,0,1,.09.07.16.16,0,0,1,0,.12l-.63.64.14.92a.12.12,0,0,1,0,.11Zm-.82-.68h0l.63.35-.12-.75a.08.08,0,0,1,0-.09l.51-.53-.71-.11a.16.16,0,0,1-.08-.06l-.31-.67-.32.67a.1.1,0,0,1-.08.06l-.71.11.52.53a.14.14,0,0,1,0,.09l-.12.75.62-.35Z"/><polygon class="cls-15" points="191.3 125.66 191.72 126.54 192.64 126.68 191.97 127.37 192.13 128.34 191.3 127.88 190.48 128.34 190.63 127.37 189.97 126.68 190.89 126.54 191.3 125.66"/><path class="cls-15" d="M192.13,128.45l0,0-.78-.43-.77.43a.13.13,0,0,1-.12,0,.12.12,0,0,1,0-.11l.15-.92-.63-.64a.11.11,0,0,1,.06-.19l.86-.13.39-.83a.11.11,0,0,1,.2,0l.39.83.87.13a.11.11,0,0,1,.06.19l-.63.64.15.92a.12.12,0,0,1,0,.11Zm-.83-.68h.06l.62.35-.12-.75a.14.14,0,0,1,0-.09l.52-.53-.71-.11a.1.1,0,0,1-.08-.06l-.32-.67-.31.67s-.05,0-.08.06l-.71.11.51.53a.08.08,0,0,1,0,.09l-.12.75.63-.35Z"/><polygon class="cls-15" points="194.65 125.66 195.06 126.54 195.99 126.68 195.32 127.37 195.48 128.34 194.65 127.88 193.82 128.34 193.98 127.37 193.31 126.68 194.24 126.54 194.65 125.66"/><path class="cls-15" d="M195.48,128.45l-.06,0-.77-.43-.77.43a.11.11,0,0,1-.17-.11l.15-.92-.63-.64a.11.11,0,0,1,0-.12.11.11,0,0,1,.09-.07l.86-.13.39-.83a.11.11,0,0,1,.2,0l.39.83.87.13a.16.16,0,0,1,.09.07.13.13,0,0,1,0,.12l-.63.64.15.92a.13.13,0,0,1-.05.11Zm-.83-.68h0l.63.35-.12-.75a.1.1,0,0,1,0-.09l.52-.53-.71-.11a.15.15,0,0,1-.09-.06l-.31-.67-.31.67a.15.15,0,0,1-.09.06l-.71.11.52.53a.08.08,0,0,1,0,.09l-.12.75.63-.35Z"/><polygon class="cls-15" points="198 125.66 198.41 126.54 199.34 126.68 198.67 127.37 198.82 128.34 198 127.88 197.17 128.34 197.33 127.37 196.66 126.68 197.58 126.54 198 125.66"/><path class="cls-15" d="M198.82,128.45l0,0L198,128l-.78.43a.11.11,0,0,1-.11,0,.11.11,0,0,1-.05-.11l.15-.92-.63-.64a.13.13,0,0,1,0-.12.16.16,0,0,1,.09-.07l.87-.13.39-.83a.11.11,0,0,1,.2,0l.39.83.86.13a.13.13,0,0,1,.09.07.16.16,0,0,1,0,.12l-.63.64.14.92a.12.12,0,0,1,0,.11Zm-.82-.68h.05l.63.35-.12-.75a.08.08,0,0,1,0-.09l.51-.53-.71-.11a.16.16,0,0,1-.08-.06l-.31-.67-.32.67a.1.1,0,0,1-.08.06l-.71.11.52.53a.14.14,0,0,1,0,.09l-.12.75.62-.35Z"/><path class="cls-15" d="M202.17,128.45l0,0-.78-.43-.77.43a.13.13,0,0,1-.12,0,.12.12,0,0,1,0-.11l.15-.92-.63-.64a.11.11,0,0,1,.06-.19l.86-.13.39-.83a.11.11,0,0,1,.2,0l.39.83.87.13a.11.11,0,0,1,.06.19l-.63.64.15.92a.12.12,0,0,1,0,.11Zm-.83-.68h.06l.62.35-.12-.75a.14.14,0,0,1,0-.09l.52-.53-.71-.11a.1.1,0,0,1-.08-.06l-.32-.67-.31.67s-.05,0-.08.06l-.71.11.51.53a.08.08,0,0,1,0,.09l-.12.75.63-.35Z"/><rect class="cls-9" x="133.32" y="-10.52" width="83.67" height="15.39"/><text class="cls-16" transform="translate(136 -0.88)">Ideal User</text><rect class="cls-9" x="133.32" y="5.1" width="83.67" height="15.39"/><text class="cls-16" transform="translate(136 14.73)">Screenshots</text><rect class="cls-7" x="133.32" y="4.87" width="83.67" height="0.22"/><path class="cls-11" d="M211.8,14.24a.25.25,0,0,1-.16-.06l-2-2a.23.23,0,0,1,0-.31.22.22,0,0,1,.32,0l1.85,1.85,1.85-1.85a.22.22,0,0,1,.32,0,.23.23,0,0,1,0,.31l-2,2A.25.25,0,0,1,211.8,14.24Z"/><rect class="cls-9" x="133.32" y="20.71" width="83.67" height="15.39"/><text class="cls-16" transform="translate(136 30.35)">Features</text><rect class="cls-7" x="133.32" y="20.49" width="83.67" height="0.22"/><path class="cls-11" d="M211.8,29.86a.25.25,0,0,1-.16-.06l-2-2a.23.23,0,0,1,.32-.32l1.85,1.85,1.85-1.85a.23.23,0,0,1,.32.32l-2,2A.25.25,0,0,1,211.8,29.86Z"/><rect class="cls-9" x="133.21" y="144.3" width="83.67" height="15.39"/><text class="cls-16" transform="translate(135.89 153.94)">Awards</text><rect class="cls-7" x="133.21" y="144.16" width="83.67" height="0.22"/></g><path class="cls-4" d="M21.81,41h0a0,0,0,0,1,0,0v7.13a0,0,0,0,1,0,0h0a2.2,2.2,0,0,1-2.2-2.2V43.23A2.2,2.2,0,0,1,21.81,41Z"/><path class="cls-4" d="M21.81,54.76h0a0,0,0,0,1,0,0V68.48a0,0,0,0,1,0,0h0a2.2,2.2,0,0,1-2.2-2.2V57A2.2,2.2,0,0,1,21.81,54.76Z"/><path class="cls-4" d="M113.19,59.15h0a2.2,2.2,0,0,1,2.2,2.2V78.92a2.2,2.2,0,0,1-2.2,2.2h0a0,0,0,0,1,0,0v-22A0,0,0,0,1,113.19,59.15Z"/><path class="cls-4" d="M21.81,72.05h0a0,0,0,0,1,0,0V85.78a0,0,0,0,1,0,0h0a2.2,2.2,0,0,1-2.2-2.2V74.25A2.2,2.2,0,0,1,21.81,72.05Z"/><path class="cls-4" d="M100.3,15H34.7A14.26,14.26,0,0,0,20.44,29.27V192.82A14.26,14.26,0,0,0,34.7,207.09h65.6a14.26,14.26,0,0,0,14.26-14.27V29.27A14.26,14.26,0,0,0,100.3,15Zm10.15,177.82A10.17,10.17,0,0,1,100.3,203H34.7a10.17,10.17,0,0,1-10.15-10.16V29.27A10.16,10.16,0,0,1,34.7,19.12h65.6a10.16,10.16,0,0,1,10.15,10.15Z"/><rect x="-25.53" y="67" width="186.05" height="88.09" rx="9.96" transform="translate(178.55 43.55) rotate(90)"/><path class="cls-5" d="M34.7,201.88a9.06,9.06,0,0,1-9.05-9.06V29.27a9.07,9.07,0,0,1,9.05-9.06h8.45a1.64,1.64,0,0,1,1.64,1.59l0,1a4.1,4.1,0,0,0,4.11,4H86.06a4.1,4.1,0,0,0,4.11-4l0-1a1.64,1.64,0,0,1,1.64-1.59h8.45a9.07,9.07,0,0,1,9,9.06V192.82a9.06,9.06,0,0,1-9,9.06Z"/><circle class="cls-4" cx="77.93" cy="22.96" r="1.65"/><path class="cls-4" d="M72.44,23.78H62.56a.82.82,0,0,1-.82-.82h0a.82.82,0,0,1,.82-.82h9.88a.82.82,0,0,1,.82.82h0A.82.82,0,0,1,72.44,23.78Z"/><g class="cls-17"><rect class="cls-9" x="25.68" y="124.46" width="83.55" height="15.37"/><text class="cls-18" transform="translate(28.35 134.09)">Starting Price</text><rect class="cls-7" x="25.68" y="124.24" width="83.55" height="0.22"/><path class="cls-11" d="M104.05,133.6a.23.23,0,0,1-.16-.07l-2-2a.22.22,0,0,1,0-.32.23.23,0,0,1,.31,0l1.85,1.85,1.85-1.85a.23.23,0,0,1,.31,0,.22.22,0,0,1,0,.32l-2,2A.2.2,0,0,1,104.05,133.6Z"/><rect class="cls-9" x="25.68" y="140.06" width="83.55" height="15.37"/><text class="cls-18" transform="translate(28.35 149.68)">Ideal User</text><rect class="cls-7" x="25.68" y="139.84" width="83.55" height="0.22"/><path class="cls-11" d="M104.05,149.2a.28.28,0,0,1-.16-.07l-2-2a.22.22,0,0,1,.31-.31l1.85,1.85,1.85-1.85a.22.22,0,1,1,.31.31l-2,2A.24.24,0,0,1,104.05,149.2Z"/><text class="cls-18" transform="translate(46.18 57.58)">QuickBooks Enterprise</text><text class="cls-19" transform="translate(46.18 64.93)">by Intuit</text><rect class="cls-20" x="28.35" y="69.35" width="78.21" height="9.8" rx="4.9"/><text class="cls-21" transform="translate(51.26 76.07)">VISIT WEBSITE</text><rect class="cls-7" x="28.47" y="84.44" width="77.98" height="0.11"/><g id="Logo_1" data-name="Logo 1"><g class="cls-22"><rect class="cls-9" x="30.02" y="52.41" width="13.37" height="13.37"/><polygon class="cls-23" points="36.08 62.74 33.77 65.78 38.39 65.78 43.01 65.78 40.7 62.74 38.39 59.69 36.08 62.74"/><polygon class="cls-24" points="31.9 63.38 30.08 65.78 33.72 65.78 37.36 65.78 35.54 63.38 33.72 60.98 31.9 63.38"/><g class="cls-22"><path class="cls-15" d="M36.17,56.32a1.91,1.91,0,1,1-1.91-1.9,1.91,1.91,0,0,1,1.91,1.9"/></g></g></g><path class="cls-7" d="M43.51,65.89H29.91V52.3h13.6Zm-13.37-.22H43.28V52.52H30.14Z"/><circle class="cls-11" cx="30.92" cy="53.3" r="2.67"/><path class="cls-5" d="M32.3,54.35a.23.23,0,0,1,0,.34.22.22,0,0,1-.17.07.23.23,0,0,1-.17-.07l-1-1-1.05,1a.22.22,0,0,1-.17.07.23.23,0,0,1-.17-.07.23.23,0,0,1,0-.34l1-1-1-1.05a.24.24,0,0,1,.34-.34l1.05,1,1-1a.24.24,0,0,1,.34.34l-1,1.05Z"/><text class="cls-18" transform="translate(46.18 97.13)">NetSuite</text><text class="cls-19" transform="translate(46.18 104.47)">by NetSuite</text><rect class="cls-20" x="28.35" y="108.89" width="78.21" height="9.8" rx="4.9"/><text class="cls-21" transform="translate(51.26 115.62)">VISIT WEBSITE</text><g id="Logo_1-2" data-name="Logo 1"><g class="cls-25"><rect class="cls-9" x="30.02" y="91.96" width="13.37" height="13.37"/><polygon class="cls-23" points="36.08 102.29 33.77 105.33 38.39 105.33 43.01 105.33 40.7 102.29 38.39 99.24 36.08 102.29"/><polygon class="cls-24" points="31.9 102.93 30.08 105.33 33.72 105.33 37.36 105.33 35.54 102.93 33.72 100.53 31.9 102.93"/><g class="cls-25"><path class="cls-15" d="M36.17,95.87A1.91,1.91,0,1,1,34.26,94a1.92,1.92,0,0,1,1.91,1.9"/></g></g></g><path class="cls-7" d="M43.51,105.44H29.91V91.85h13.6Zm-13.37-.22H43.28V92.07H30.14Z"/><circle class="cls-11" cx="30.92" cy="92.85" r="2.67"/><path class="cls-5" d="M32.3,93.9a.23.23,0,0,1,0,.34.22.22,0,0,1-.17.07.23.23,0,0,1-.17-.07l-1-1-1.05,1a.22.22,0,0,1-.17.07.23.23,0,0,1-.17-.07.23.23,0,0,1,0-.34l1-1.05-1-1a.24.24,0,0,1,.34-.34l1.05,1,1-1a.24.24,0,0,1,.34.34l-1,1Z"/><rect class="cls-9" x="25.74" y="29.52" width="83.55" height="15.37"/><text class="cls-18" transform="translate(28.41 39.15)">Compared Products</text><rect class="cls-7" x="25.74" y="29.3" width="83.55" height="0.22"/><path class="cls-11" d="M106.11,38.66a.23.23,0,0,1-.15-.07l-1.85-1.85-1.85,1.85a.22.22,0,0,1-.32,0,.23.23,0,0,1,0-.31l2-2a.22.22,0,0,1,.32,0l2,2a.21.21,0,0,1,0,.31A.24.24,0,0,1,106.11,38.66Z"/><rect class="cls-7" x="25.74" y="44.89" width="83.55" height="0.22"/><rect class="cls-26" x="25.68" y="-19.91" width="83.55" height="49.32"/><text class="cls-27" transform="translate(49.06 -9.36)">QUICKBOOKS <tspan x="-16.95" y="7.13" xml:space="preserve">ENTERPRISE     NETSUITE</tspan></text><text class="cls-27" transform="translate(59.05 5.65)">BQE CORE</text><text class="cls-27" transform="translate(47.57 13.79)">FINANCIAL FORCE</text><text class="cls-27" transform="translate(48.8 21.93)">ACCOUNTING</text><text class="cls-28" transform="translate(52.41 5.14)">vs</text><path class="cls-29" d="M53.78,6.88h0a3.5,3.5,0,0,1-.45-.07.11.11,0,0,1-.08-.14.1.1,0,0,1,.13-.08,3.07,3.07,0,0,0,.42.07.11.11,0,0,1,.1.12A.1.1,0,0,1,53.78,6.88Zm.44,0a.12.12,0,0,1-.11-.1.11.11,0,0,1,.1-.12,2.83,2.83,0,0,0,.42-.07.11.11,0,0,1,.14.08.11.11,0,0,1-.08.13,2.33,2.33,0,0,1-.46.08Zm-1.29-.21h0a3.11,3.11,0,0,1-.4-.22.11.11,0,0,1,0-.16.11.11,0,0,1,.15,0,1.9,1.9,0,0,0,.37.2A.11.11,0,0,1,53,6.6.12.12,0,0,1,52.93,6.67Zm2.15,0A.11.11,0,0,1,55,6.6.12.12,0,0,1,55,6.45a2.18,2.18,0,0,0,.37-.2.12.12,0,0,1,.16,0,.12.12,0,0,1,0,.16,2.52,2.52,0,0,1-.4.21Zm-2.89-.47a.11.11,0,0,1-.07,0,3.4,3.4,0,0,1-.32-.34.14.14,0,0,1,0-.16.11.11,0,0,1,.16,0,2.13,2.13,0,0,0,.29.31.11.11,0,0,1,0,.16A.12.12,0,0,1,52.19,6.19Zm3.62,0a.11.11,0,0,1-.08,0,.11.11,0,0,1,0-.16A2.7,2.7,0,0,0,56,5.68a.11.11,0,0,1,.16,0,.1.1,0,0,1,0,.15,3.39,3.39,0,0,1-.31.34A.11.11,0,0,1,55.81,6.18Zm-4.16-.69a.11.11,0,0,1-.1-.06A2.65,2.65,0,0,1,51.37,5a.11.11,0,0,1,.21-.07,2.2,2.2,0,0,0,.17.39.11.11,0,0,1,0,.15Zm4.7,0-.05,0a.12.12,0,0,1,0-.15,1.84,1.84,0,0,0,.17-.38.12.12,0,0,1,.15-.07.12.12,0,0,1,.07.14,3.89,3.89,0,0,1-.19.42A.11.11,0,0,1,56.35,5.49Zm-5-.83a.12.12,0,0,1-.11-.09c0-.15,0-.31,0-.46A.11.11,0,0,1,51.33,4h0a.11.11,0,0,1,.11.11,3,3,0,0,0,0,.42.11.11,0,0,1-.09.13Zm5.28,0h0a.1.1,0,0,1-.09-.12,3,3,0,0,0,0-.43A.11.11,0,0,1,56.67,4c.07,0,.12,0,.12.1v0a2.27,2.27,0,0,1,0,.45A.12.12,0,0,1,56.64,4.66Zm-5.28-.88h0a.11.11,0,0,1-.09-.13,3.15,3.15,0,0,1,.11-.44.11.11,0,0,1,.14-.07.11.11,0,0,1,.07.14,2.73,2.73,0,0,0-.1.41A.11.11,0,0,1,51.36,3.78Zm5.28,0c-.06,0-.11,0-.11-.09a3.11,3.11,0,0,0-.11-.41.11.11,0,1,1,.21-.07,3.17,3.17,0,0,1,.12.44.11.11,0,0,1-.1.13Zm-5-.81h-.06a.12.12,0,0,1,0-.16,2.26,2.26,0,0,1,.25-.38.1.1,0,0,1,.15,0,.11.11,0,0,1,0,.16c-.08.11-.16.23-.23.35A.11.11,0,0,1,51.65,3Zm4.7,0a.12.12,0,0,1-.1-.05A3.17,3.17,0,0,0,56,2.52a.1.1,0,0,1,0-.15.1.1,0,0,1,.15,0,1.92,1.92,0,0,1,.25.38.11.11,0,0,1,0,.15Zm-4.17-.68a.11.11,0,0,1-.08,0,.11.11,0,0,1,0-.16,2.48,2.48,0,0,1,.36-.28.11.11,0,1,1,.12.18,4.19,4.19,0,0,0-.33.26A.11.11,0,0,1,52.18,2.25Zm3.62,0a.11.11,0,0,1-.07,0c-.11-.09-.22-.18-.34-.26a.11.11,0,0,1,0-.15.11.11,0,0,1,.16,0,3.17,3.17,0,0,1,.36.28.12.12,0,0,1,0,.16A.16.16,0,0,1,55.8,2.24Zm-2.88-.47a.1.1,0,0,1-.1-.07.1.1,0,0,1,0-.14,1.76,1.76,0,0,1,.44-.15.1.1,0,0,1,.13.08.1.1,0,0,1-.08.13,3.17,3.17,0,0,0-.4.14Zm2.15,0h0a2.67,2.67,0,0,0-.4-.13.11.11,0,0,1-.08-.14.11.11,0,0,1,.13-.08,3.26,3.26,0,0,1,.44.15.11.11,0,0,1,.06.15A.11.11,0,0,1,55.07,1.76Zm-1.3-.21a.1.1,0,0,1-.11-.1.11.11,0,0,1,.1-.12,3.53,3.53,0,0,1,.46,0,.11.11,0,0,1,.1.12.1.1,0,0,1-.12.1,2.94,2.94,0,0,0-.42,0Z"/><text class="cls-28" transform="translate(40.84 13.3)">vs</text><path class="cls-29" d="M42.15,15h0a2.34,2.34,0,0,1-.45-.07.1.1,0,0,1-.08-.13.11.11,0,0,1,.13-.09,2,2,0,0,0,.42.07.11.11,0,0,1,.1.12A.1.1,0,0,1,42.15,15Zm.44,0a.11.11,0,0,1-.11-.1.12.12,0,0,1,.1-.12,2,2,0,0,0,.42-.07.12.12,0,0,1,.14.08.13.13,0,0,1-.08.14,2.44,2.44,0,0,1-.46.07Zm-1.29-.21h0a2.24,2.24,0,0,1-.4-.22.11.11,0,0,1,.12-.18c.12.07.24.14.37.2a.11.11,0,0,1,.06.14A.1.1,0,0,1,41.3,14.83Zm2.14,0a.12.12,0,0,1-.1-.07.11.11,0,0,1,.06-.14,2.71,2.71,0,0,0,.37-.21.12.12,0,0,1,.16,0,.1.1,0,0,1,0,.15,2.56,2.56,0,0,1-.4.22Zm-2.88-.48a.09.09,0,0,1-.07,0,2.58,2.58,0,0,1-.32-.34.11.11,0,0,1,0-.15.11.11,0,0,1,.16,0,2.81,2.81,0,0,0,.29.31.11.11,0,0,1,0,.15A.09.09,0,0,1,40.56,14.35Zm3.62,0a.12.12,0,0,1-.08,0,.12.12,0,0,1,0-.16,1.7,1.7,0,0,0,.29-.31.11.11,0,0,1,.18.14c-.1.12-.2.23-.31.34A.13.13,0,0,1,44.18,14.35ZM40,13.66a.11.11,0,0,1-.1-.06,3.79,3.79,0,0,1-.18-.42A.11.11,0,0,1,39.8,13a.12.12,0,0,1,.15.07,1.84,1.84,0,0,0,.17.38.11.11,0,0,1,0,.15Zm4.7,0h0a.11.11,0,0,1-.05-.15,2.2,2.2,0,0,0,.17-.39.11.11,0,0,1,.14-.07.11.11,0,0,1,.07.14,2.65,2.65,0,0,1-.18.42A.11.11,0,0,1,44.72,13.65Zm-5-.82a.12.12,0,0,1-.11-.1,3.42,3.42,0,0,1,0-.46.11.11,0,0,1,.11-.11h0a.11.11,0,0,1,.11.11,3,3,0,0,0,0,.43.1.1,0,0,1-.09.12Zm5.28,0h0a.11.11,0,0,1-.09-.13,3,3,0,0,0,0-.42.12.12,0,0,1,.11-.12.11.11,0,0,1,.11.11h0a3.55,3.55,0,0,1,0,.46A.12.12,0,0,1,45,12.82ZM39.73,12h0a.1.1,0,0,1-.09-.12,2.46,2.46,0,0,1,.11-.45.11.11,0,0,1,.21.07,3.06,3.06,0,0,0-.1.41A.12.12,0,0,1,39.73,12Zm5.27,0a.12.12,0,0,1-.11-.09,1.89,1.89,0,0,0-.1-.41.12.12,0,0,1,.07-.15.11.11,0,0,1,.14.07,2.46,2.46,0,0,1,.11.45.11.11,0,0,1-.09.13Zm-5-.82h0a.11.11,0,0,1,0-.15,2,2,0,0,1,.25-.39.11.11,0,0,1,.15,0,.11.11,0,0,1,0,.16c-.08.11-.16.23-.23.35A.11.11,0,0,1,40,11.11Zm4.71,0a.11.11,0,0,1-.1-.06c-.07-.12-.15-.24-.23-.35a.12.12,0,0,1,0-.16.11.11,0,0,1,.16,0,3.11,3.11,0,0,1,.25.38.11.11,0,0,1,0,.15Zm-4.17-.68a.09.09,0,0,1-.08,0,.11.11,0,0,1,0-.16,3.44,3.44,0,0,1,.36-.28A.11.11,0,0,1,41,10a.11.11,0,0,1,0,.16,1.64,1.64,0,0,0-.33.26A.11.11,0,0,1,40.55,10.42Zm3.62,0a.11.11,0,0,1-.07,0,2,2,0,0,0-.34-.26.12.12,0,0,1,0-.16.11.11,0,0,1,.15,0,3.27,3.27,0,0,1,.37.28.11.11,0,0,1,0,.16A.12.12,0,0,1,44.17,10.41Zm-2.88-.48a.09.09,0,0,1-.1-.06.11.11,0,0,1,.05-.15,3.26,3.26,0,0,1,.44-.15.1.1,0,0,1,.13.08.11.11,0,0,1-.08.14,3.1,3.1,0,0,0-.4.13Zm2.14,0h0a2.7,2.7,0,0,0-.4-.14.11.11,0,1,1,0-.21,2.25,2.25,0,0,1,.44.14.12.12,0,0,1,.06.15A.12.12,0,0,1,43.43,9.93Zm-1.29-.21a.12.12,0,0,1,0-.23h.46a.11.11,0,0,1,.1.12.11.11,0,0,1-.12.1,2,2,0,0,0-.42,0Z"/></g><path class="cls-4" d="M236.81,41h0a0,0,0,0,1,0,0v7.13a0,0,0,0,1,0,0h0a2.2,2.2,0,0,1-2.2-2.2V43.23A2.2,2.2,0,0,1,236.81,41Z"/><path class="cls-4" d="M236.81,54.76h0a0,0,0,0,1,0,0V68.48a0,0,0,0,1,0,0h0a2.2,2.2,0,0,1-2.2-2.2V57A2.2,2.2,0,0,1,236.81,54.76Z"/><path class="cls-4" d="M328.19,59.15h0a2.2,2.2,0,0,1,2.2,2.2V78.92a2.2,2.2,0,0,1-2.2,2.2h0a0,0,0,0,1,0,0v-22A0,0,0,0,1,328.19,59.15Z"/><path class="cls-4" d="M236.81,72.05h0a0,0,0,0,1,0,0V85.78a0,0,0,0,1,0,0h0a2.2,2.2,0,0,1-2.2-2.2V74.25A2.2,2.2,0,0,1,236.81,72.05Z"/><path class="cls-4" d="M315.3,15H249.7a14.26,14.26,0,0,0-14.26,14.27V192.82a14.26,14.26,0,0,0,14.26,14.27h65.6a14.26,14.26,0,0,0,14.26-14.27V29.27A14.26,14.26,0,0,0,315.3,15Zm10.15,177.82A10.17,10.17,0,0,1,315.3,203H249.7a10.17,10.17,0,0,1-10.15-10.16V29.27A10.16,10.16,0,0,1,249.7,19.12h65.6a10.16,10.16,0,0,1,10.15,10.15Z"/><rect x="189.47" y="67" width="186.05" height="88.09" rx="9.96" transform="translate(393.55 -171.45) rotate(90)"/><path class="cls-5" d="M249.7,201.88a9.06,9.06,0,0,1-9-9.06V29.27a9.07,9.07,0,0,1,9-9.06h8.45a1.64,1.64,0,0,1,1.64,1.59l0,1a4.1,4.1,0,0,0,4.11,4h37.12a4.1,4.1,0,0,0,4.11-4l0-1a1.64,1.64,0,0,1,1.64-1.59h8.45a9.07,9.07,0,0,1,9.05,9.06V192.82a9.06,9.06,0,0,1-9.05,9.06Z"/><circle class="cls-4" cx="292.93" cy="22.96" r="1.65"/><path class="cls-4" d="M287.44,23.78h-9.88a.82.82,0,0,1-.82-.82h0a.82.82,0,0,1,.82-.82h9.88a.82.82,0,0,1,.82.82h0A.82.82,0,0,1,287.44,23.78Z"/><g class="cls-30"><rect class="cls-9" x="240.41" y="70.99" width="84" height="15.46"/><text class="cls-31" transform="translate(243.1 80.67)">Company Details</text><rect class="cls-7" x="240.41" y="70.76" width="84" height="0.22"/><rect class="cls-7" x="240.41" y="86.44" width="84" height="0.22"/><path class="cls-11" d="M321.22,80.17a.23.23,0,0,1-.16-.06l-1.86-1.86-1.85,1.86a.24.24,0,0,1-.32,0,.22.22,0,0,1,0-.32l2-2a.23.23,0,0,1,.31,0l2,2a.22.22,0,0,1,0,.32A.25.25,0,0,1,321.22,80.17Z"/><path class="cls-32" d="M245.12,142.21a2,2,0,1,0,2,2A2,2,0,0,0,245.12,142.21Zm0,3.63a1.61,1.61,0,1,1,1.61-1.61A1.62,1.62,0,0,1,245.12,145.84Zm-.05-2.62h0a.15.15,0,0,0-.14.15v.95a.19.19,0,0,0,.09.17l.84.5a.15.15,0,0,0,.2,0,.15.15,0,0,0-.05-.2l-.78-.47v-.91A.15.15,0,0,0,245.07,143.22Z"/><rect class="cls-7" x="243.1" y="115.62" width="78.4" height="0.11"/><text class="cls-33" transform="translate(243.1 95.44)">QuickBooks Enterprise</text><text class="cls-34" transform="translate(243.1 102.61)">by Intuit</text><text class="cls-35" transform="translate(249.93 109.78)">United States</text><path class="cls-32" d="M245.12,135.12a1.57,1.57,0,0,0-1.57,1.57,5.57,5.57,0,0,0,1.4,2.71.22.22,0,0,0,.34,0,5.57,5.57,0,0,0,1.4-2.71A1.57,1.57,0,0,0,245.12,135.12Zm0,2.13a.56.56,0,1,1,.56-.56A.56.56,0,0,1,245.12,137.25Z"/><path class="cls-32" d="M245.12,106.23a1.56,1.56,0,0,0-1.57,1.56,5.56,5.56,0,0,0,1.4,2.72.23.23,0,0,0,.34,0,5.56,5.56,0,0,0,1.4-2.72A1.57,1.57,0,0,0,245.12,106.23Zm0,2.12a.56.56,0,1,1,.56-.56A.56.56,0,0,1,245.12,108.35Z"/><text class="cls-33" transform="translate(243.1 124.56)">NetSuite</text><text class="cls-34" transform="translate(243.1 131.73)">by NetSuite</text><text class="cls-35" transform="translate(249.71 138.9)">United States</text><text class="cls-35" transform="translate(249.71 146.29)">Founded in 1998</text><text class="cls-36" transform="translate(242.94 4.15)">SUPPORT</text><text class="cls-37" transform="translate(251.07 11.39)">24/7 Live Rep</text><text class="cls-37" transform="translate(251.07 25.52)">Business Hours</text><circle class="cls-38" cx="245.63" cy="23.97" r="2.69"/><path class="cls-5" d="M245.36,25.46a.2.2,0,0,1-.16-.07l-1-1.05a.21.21,0,0,1,0-.31.22.22,0,0,1,.31,0l.85.88,1.74-2.05a.23.23,0,0,1,.31,0,.22.22,0,0,1,0,.31l-1.9,2.24a.19.19,0,0,1-.16.08Z"/><text class="cls-37" transform="translate(251.07 18.39)">Online</text><circle class="cls-38" cx="245.63" cy="16.84" r="2.69"/><path class="cls-5" d="M245.36,18.33a.23.23,0,0,1-.16-.06l-1-1.06a.21.21,0,0,1,0-.31.22.22,0,0,1,.31,0l.85.88,1.74-2.06a.22.22,0,0,1,.33.29l-1.9,2.24a.22.22,0,0,1-.16.07Z"/><circle class="cls-38" cx="245.63" cy="9.74" r="2.69"/><path class="cls-5" d="M245.36,11.23a.2.2,0,0,1-.16-.07l-1-1.05a.21.21,0,0,1,0-.31.22.22,0,0,1,.31,0l.85.88,1.74-2.06a.22.22,0,0,1,.31,0,.21.21,0,0,1,0,.3l-1.9,2.24a.19.19,0,0,1-.16.08Z"/><text class="cls-36" transform="translate(242.94 34.82)">TRAINING</text><text class="cls-37" transform="translate(251.07 42.06)">In Person</text><text class="cls-39" transform="translate(251.07 49.24)">Live Online</text><text class="cls-37" transform="translate(251.07 63.75)">Webinars</text><circle class="cls-38" cx="245.63" cy="62.2" r="2.69"/><path class="cls-5" d="M245.36,63.69a.23.23,0,0,1-.16-.06l-1-1.06a.21.21,0,0,1,0-.31.22.22,0,0,1,.31,0l.85.88,1.74-2.06a.22.22,0,0,1,.33.29l-1.9,2.24a.22.22,0,0,1-.16.07Z"/><text class="cls-39" transform="translate(251.07 56.52)">Documentation</text><circle class="cls-38" cx="245.63" cy="40.29" r="2.69"/><path class="cls-5" d="M245.36,41.78a.2.2,0,0,1-.16-.07l-1-1.05a.21.21,0,0,1,0-.31.22.22,0,0,1,.31,0l.85.88,1.74-2.06a.22.22,0,0,1,.31,0,.21.21,0,0,1,0,.3l-1.9,2.24a.19.19,0,0,1-.16.08Z"/><circle class="cls-29" cx="245.63" cy="54.9" r="2.69"/><path class="cls-5" d="M244.51,56.24a.22.22,0,0,1-.16-.38l2.24-2.24a.23.23,0,0,1,.32.32l-2.24,2.24A.23.23,0,0,1,244.51,56.24Z"/><path class="cls-5" d="M246.75,56.24a.25.25,0,0,1-.16-.06l-2.24-2.24a.24.24,0,0,1,0-.32.22.22,0,0,1,.32,0l2.24,2.24a.22.22,0,0,1,0,.32A.23.23,0,0,1,246.75,56.24Z"/><circle class="cls-29" cx="245.63" cy="47.59" r="2.69"/><path class="cls-5" d="M244.51,48.94a.21.21,0,0,1-.16-.07.24.24,0,0,1,0-.32l2.24-2.24a.24.24,0,0,1,.32,0,.22.22,0,0,1,0,.32l-2.24,2.24A.2.2,0,0,1,244.51,48.94Z"/><path class="cls-5" d="M246.75,48.94a.21.21,0,0,1-.16-.07l-2.24-2.24a.23.23,0,1,1,.32-.32l2.24,2.24a.22.22,0,0,1,0,.32A.2.2,0,0,1,246.75,48.94Z"/></g></g></g></svg>