<?xml version="1.0" encoding="utf-8"?>
<!-- Generator: Adobe Illustrator 24.0.3, SVG Export Plug-In . SVG Version: 6.00 Build 0)  -->
<svg version="1.1" id="Layer_1" xmlns="http://www.w3.org/2000/svg" xmlns:xlink="http://www.w3.org/1999/xlink" x="0px" y="0px"
	 viewBox="0 0 350 200" style="enable-background:new 0 0 350 200;" xml:space="preserve">
<style type="text/css">
	.st0{fill:#303030;}
	.st1{fill:#FFFFFF;}
	.st2{clip-path:url(#SVGID_2_);}
	.st3{fill:#93B4D8;}
	.st4{fill:#1C6FD1;}
	.st5{font-family:'OpenSans';}
	.st6{font-size:3.57px;}
	.st7{fill:#F0F9FF;}
	.st8{font-family:'OpenSans-Bold';}
	.st9{font-size:4.46px;}
	.st10{fill:#363A41;}
	.st11{fill:#FF9D28;}
	.st12{fill:#FFBC6B;}
	.st13{fill:#607480;}
	.st14{fill:#F89B2D;}
	.st15{fill:#F5F9FC;}
	.st16{clip-path:url(#SVGID_4_);}
	.st17{fill:#617682;}
	.st18{font-size:3.56px;}
	.st19{fill:#FF6200;}
	.st20{clip-path:url(#SVGID_6_);}
	.st21{fill:#F47575;}
	.st22{fill:#A2DFFA;}
	.st23{clip-path:url(#SVGID_8_);}
	.st24{clip-path:url(#SVGID_10_);}
	.st25{clip-path:url(#SVGID_12_);}
	.st26{fill:#002E47;}
	.st27{fill:#A3B9C3;}
	.st28{font-size:3.12px;}
	.st29{clip-path:url(#SVGID_14_);fill:#002E47;}
	.st30{clip-path:url(#SVGID_16_);fill:#F0F9FF;}
	.st31{clip-path:url(#SVGID_18_);enable-background:new    ;}
	.st32{font-size:4.48px;}
	.st33{clip-path:url(#SVGID_20_);fill:#93B4D8;}
	.st34{clip-path:url(#SVGID_22_);fill:#93B4D8;}
	.st35{clip-path:url(#SVGID_24_);fill:#93B4D8;}
	.st36{clip-path:url(#SVGID_26_);fill:#1C6FD1;}
	.st37{clip-path:url(#SVGID_28_);fill:#044D80;}
	.st38{clip-path:url(#SVGID_30_);fill:#93B4D8;}
	.st39{clip-path:url(#SVGID_32_);enable-background:new    ;}
	.st40{font-size:3.58px;}
	.st41{clip-path:url(#SVGID_34_);enable-background:new    ;}
	.st42{clip-path:url(#SVGID_36_);enable-background:new    ;}
	.st43{clip-path:url(#SVGID_38_);fill:#044D80;}
	.st44{clip-path:url(#SVGID_40_);fill:#044D80;}
	.st45{clip-path:url(#SVGID_42_);enable-background:new    ;}
	.st46{clip-path:url(#SVGID_44_);enable-background:new    ;}
	.st47{clip-path:url(#SVGID_46_);enable-background:new    ;}
	.st48{clip-path:url(#SVGID_48_);enable-background:new    ;}
	.st49{clip-path:url(#SVGID_50_);fill:#1C6FD1;}
	.st50{clip-path:url(#SVGID_52_);enable-background:new    ;}
	.st51{clip-path:url(#SVGID_54_);fill:#D9F4FC;}
	.st52{clip-path:url(#SVGID_56_);fill:#D9F4FC;}
	.st53{clip-path:url(#SVGID_58_);fill:#D9F4FC;}
	.st54{clip-path:url(#SVGID_60_);}
	.st55{clip-path:url(#SVGID_62_);}
	.st56{clip-path:url(#SVGID_64_);}
	.st57{clip-path:url(#SVGID_68_);fill:#D9F4FC;}
	.st58{clip-path:url(#SVGID_72_);fill:#D9F4FC;}
	.st59{clip-path:url(#SVGID_74_);fill:#1C6FD1;}
	.st60{clip-path:url(#SVGID_76_);enable-background:new    ;}
	.st61{clip-path:url(#SVGID_78_);enable-background:new    ;}
	.st62{clip-path:url(#SVGID_80_);fill:#21AC21;}
	.st63{clip-path:url(#SVGID_82_);fill:#FFFFFF;}
	.st64{clip-path:url(#SVGID_84_);enable-background:new    ;}
	.st65{clip-path:url(#SVGID_86_);fill:#21AC21;}
	.st66{clip-path:url(#SVGID_88_);fill:#FFFFFF;}
	.st67{clip-path:url(#SVGID_90_);fill:#21AC21;}
	.st68{clip-path:url(#SVGID_92_);fill:#FFFFFF;}
	.st69{clip-path:url(#SVGID_94_);enable-background:new    ;}
	.st70{font-size:3.14px;}
	.st71{clip-path:url(#SVGID_96_);enable-background:new    ;}
	.st72{clip-path:url(#SVGID_98_);enable-background:new    ;}
	.st73{clip-path:url(#SVGID_100_);enable-background:new    ;}
	.st74{clip-path:url(#SVGID_102_);fill:#21AC21;}
	.st75{clip-path:url(#SVGID_104_);fill:#FFFFFF;}
	.st76{clip-path:url(#SVGID_106_);enable-background:new    ;}
	.st77{clip-path:url(#SVGID_108_);fill:#21AC21;}
	.st78{clip-path:url(#SVGID_110_);fill:#FFFFFF;}
	.st79{clip-path:url(#SVGID_112_);fill:#A3B9C3;}
	.st80{clip-path:url(#SVGID_114_);fill:#FFFFFF;}
	.st81{clip-path:url(#SVGID_116_);fill:#FFFFFF;}
	.st82{clip-path:url(#SVGID_118_);fill:#A3B9C3;}
	.st83{clip-path:url(#SVGID_120_);fill:#FFFFFF;}
	.st84{clip-path:url(#SVGID_122_);fill:#FFFFFF;}
</style>
<title>home</title>
<path class="st0" d="M129.37,30L129.37,30L129.37,30v7.13l0,0l0,0c-1.22,0-2.2-0.98-2.2-2.2v-2.75c0-1.22,0.98-2.2,2.2-2.2V30z"/>
<path class="st0" d="M129.37,43.71L129.37,43.71L129.37,43.71v13.73l0,0l0,0c-1.22,0-2.2-0.98-2.2-2.2v-9.33
	C127.17,44.69,128.15,43.71,129.37,43.71z"/>
<path class="st0" d="M220.75,48.11L220.75,48.11c1.22,0,2.2,0.98,2.2,2.2v17.56c0,1.22-0.98,2.2-2.2,2.2l0,0l0,0v-22V48.11z"/>
<path class="st0" d="M129.37,61L129.37,61L129.37,61v13.73l0,0l0,0c-1.22,0-2.2-0.98-2.2-2.2V63.2C127.17,61.98,128.15,61,129.37,61
	z"/>
<path class="st0" d="M207.85,4h-65.59c-7.86,0.01-14.23,6.36-14.26,14.22v163.56c0,7.88,6.39,14.27,14.27,14.27l0,0h65.59
	c7.88,0,14.27-6.39,14.27-14.27l0,0V18.22C222.1,10.35,215.72,3.99,207.85,4z M218,181.78c-0.01,5.61-4.55,10.14-10.16,10.15h-65.58
	c-5.6-0.01-10.14-4.55-10.15-10.15V18.22c0.01-5.6,4.55-10.14,10.15-10.15h65.59c5.6,0.01,10.14,4.55,10.15,10.15L218,181.78
	L218,181.78z"/>
<path d="M219.11,17.32v165.35c0,5.72-4.63,10.35-10.35,10.35h-67.39c-5.72,0-10.35-4.63-10.35-10.35V17.32
	c0-5.72,4.63-10.35,10.35-10.35h67.39C214.48,6.97,219.11,11.6,219.11,17.32z"/>
<path class="st1" d="M142.26,190.83c-4.98-0.03-8.99-4.07-9-9.05V18.22c0.03-4.96,4.04-8.97,9-9h8.45c0.88-0.01,1.61,0.7,1.64,1.58
	v1c0.05,2.23,1.88,4.01,4.11,4h37.11c2.23,0.01,4.07-1.77,4.12-4v-1c0.03-0.88,0.76-1.59,1.64-1.58h8.44c4.98,0,9.03,4.02,9.06,9
	v163.56c-0.01,5-4.06,9.05-9.06,9.05H142.26z"/>
<circle class="st0" cx="185.49" cy="11.91" r="1.65"/>
<path class="st0" d="M180,12.74h-9.88c-0.45,0-0.82-0.37-0.82-0.82v-0.01l0,0c0-0.45,0.37-0.82,0.82-0.82l0,0H180
	c0.45,0,0.82,0.37,0.82,0.82l0,0l0,0C180.82,12.36,180.45,12.73,180,12.74z"/>
<g>
	<g>
		<defs>
			<path id="SVGID_1_" d="M142.26,190.83c-4.98-0.03-8.99-4.07-9-9.05V18.22c0.03-4.96,4.04-8.97,9-9h8.45
				c0.88-0.01,1.61,0.7,1.64,1.58v1c0.05,2.23,1.88,4.01,4.11,4h37.11c2.23,0.01,4.07-1.77,4.12-4v-1c0.03-0.88,0.76-1.59,1.64-1.58
				h8.44c4.98,0,9.03,4.02,9.06,9v163.56c-0.01,5-4.06,9.05-9.06,9.05H142.26z"/>
		</defs>
		<clipPath id="SVGID_2_">
			<use xlink:href="#SVGID_1_"  style="overflow:visible;"/>
		</clipPath>
		<g class="st2">
			<rect x="135.97" y="72.81" class="st3" width="78.09" height="0.11"/>
			<text transform="matrix(1 0 0 1 135.97 66.8)" class="st4 st5 st6">See all ratings +</text>
			<rect x="133.3" y="25.27" class="st7" width="83.67" height="15.39"/>
			<text transform="matrix(1 0 0 1 135.97 34.9)" class="st4 st8 st9">Reviews</text>
			<rect x="133.3" y="25.04" class="st3" width="83.67" height="0.22"/>
			<path class="st4" d="M213.78,34.41c-0.06,0-0.12-0.02-0.16-0.06l-1.85-1.85l-1.85,1.85c-0.08,0.09-0.21,0.09-0.3,0.01l-0.01-0.01
				c-0.09-0.08-0.09-0.22-0.01-0.31l0.01-0.01l2-2c0.09-0.08,0.23-0.08,0.32,0l2,2c0.09,0.08,0.09,0.22,0.01,0.31l-0.01,0.01
				C213.89,34.39,213.84,34.41,213.78,34.41z"/>
			<rect x="133.3" y="40.66" class="st3" width="83.67" height="0.22"/>
			<text transform="matrix(1 0 0 1 135.97 95.97)" class="st10 st5 st6">Ease of Use</text>
			<text transform="matrix(1 0 0 1 135.97 49.63)" class="st10 st8 st6">QuickBooks Enterprise</text>
			<text transform="matrix(1 0 0 1 135.97 56.89)" class="st10 st5 st6">Overall Rating</text>
			<text transform="matrix(1 0 0 1 199.86 56.89)" class="st10 st5 st6">(14,122)</text>
			<rect x="135.97" y="133.49" class="st3" width="78.09" height="0.11"/>
			<text transform="matrix(1 0 0 1 135.97 127.48)" class="st4 st5 st6">Hide ratings -</text>
			<text transform="matrix(1 0 0 1 135.97 81.53)" class="st10 st8 st6">NetSuite</text>
			<text transform="matrix(1 0 0 1 135.97 88.79)" class="st10 st5 st6">Overall Rating</text>
			<text transform="matrix(1 0 0 1 205.47 88.79)" class="st10 st5 st6">(416)</text>
			<polygon class="st11" points="180.59,85.27 181.22,86.59 182.6,86.81 181.6,87.83 181.84,89.29 180.59,88.6 179.35,89.29 
				179.59,87.83 178.59,86.81 179.97,86.59 			"/>
			<path class="st11" d="M181.84,89.4h-0.06l-1.19-0.66l-1.18,0.66c-0.06,0.03-0.13,0-0.16-0.06c-0.01-0.02-0.01-0.04-0.01-0.06
				l0.23-1.4l-1-1c-0.02-0.03-0.02-0.08,0-0.11c0.01-0.04,0.05-0.07,0.09-0.07l1.33-0.21l0.59-1.27c0.04-0.06,0.12-0.07,0.18-0.03
				c0.01,0.01,0.02,0.02,0.03,0.03l0.59,1.27l1.33,0.21c0.04,0,0.08,0.03,0.09,0.07c0.02,0.03,0.02,0.08,0,0.11l-1,1l0.23,1.4
				c0.01,0.04,0.01,0.07,0,0.11L181.84,89.4z M180.59,88.49h0.06l1,0.58l-0.2-1.23c-0.02-0.03-0.02-0.06,0-0.09l0.85-0.88
				l-1.17-0.18c-0.04,0-0.07-0.02-0.09-0.06l-0.52-1.11l-0.51,1.11c-0.02,0.04-0.05,0.06-0.09,0.06l-1.17,0.18l0.85,0.88
				c0.02,0.03,0.02,0.06,0,0.09l-0.2,1.23l1-0.58H180.59z"/>
			<polygon class="st11" points="200.68,85.27 201.29,86.59 202.68,86.81 201.68,87.83 201.92,89.29 200.68,88.6 199.43,89.29 
				199.67,87.83 198.67,86.81 200.05,86.59 			"/>
			<path class="st11" d="M201.92,89.4h-0.06l-1.19-0.66l-1.18,0.66c-0.06,0.03-0.13,0-0.16-0.06c-0.01-0.02-0.01-0.04-0.01-0.06
				l0.23-1.4l-1-1c-0.02-0.03-0.02-0.08,0-0.11c0.01-0.04,0.05-0.07,0.09-0.07l1.33-0.21l0.59-1.27c0.04-0.06,0.12-0.07,0.18-0.03
				c0.01,0.01,0.02,0.02,0.03,0.03l0.59,1.27l1.33,0.21c0.04,0,0.08,0.03,0.09,0.07c0.02,0.03,0.02,0.08,0,0.11l-1,1l0.23,1.4
				c0,0.04-0.02,0.08-0.05,0.11L201.92,89.4z M200.67,88.49h0.06l1,0.58l-0.2-1.23c-0.02-0.03-0.02-0.06,0-0.09l0.85-0.88
				l-1.17-0.18c-0.04,0-0.07-0.02-0.09-0.06l-0.52-1.11l-0.52,1.11c-0.01,0.04-0.04,0.06-0.08,0.06l-1.17,0.18l0.85,0.88
				c0.02,0.03,0.02,0.06,0,0.09l-0.2,1.23l1-0.58H200.67z"/>
			<polygon class="st11" points="190.63,85.27 191.25,86.59 192.64,86.81 191.64,87.83 191.88,89.29 190.63,88.6 189.39,89.29 
				189.63,87.83 188.63,86.81 190.01,86.59 			"/>
			<path class="st11" d="M191.88,89.4h-0.06l-1.19-0.66l-1.18,0.66c-0.06,0.03-0.13,0-0.16-0.06c-0.01-0.02-0.01-0.04-0.01-0.06
				l0.23-1.4l-1-1c-0.02-0.03-0.02-0.08,0-0.11c0.01-0.04,0.05-0.07,0.09-0.07l1.33-0.21l0.59-1.27c0.04-0.06,0.12-0.07,0.18-0.03
				c0.01,0.01,0.02,0.02,0.03,0.03l0.59,1.27l1.33,0.21c0.04,0,0.08,0.03,0.09,0.07c0.02,0.03,0.02,0.08,0,0.11l-1,1l0.23,1.4
				c0,0.04-0.02,0.08-0.05,0.11L191.88,89.4z M190.63,88.49h0.06l1,0.58l-0.2-1.23c-0.02-0.03-0.02-0.06,0-0.09l0.85-0.88
				l-1.17-0.18c-0.04,0-0.07-0.02-0.09-0.06l-0.52-1.11l-0.52,1.11c-0.01,0.04-0.04,0.06-0.08,0.06l-1.17,0.18l0.85,0.88
				c0.02,0.03,0.02,0.06,0,0.09l-0.2,1.23l1-0.58H190.63z"/>
			<polygon class="st11" points="195.66,85.27 196.28,86.59 197.66,86.81 196.66,87.83 196.9,89.29 195.66,88.6 194.41,89.29 
				194.65,87.83 193.65,86.81 195.03,86.59 			"/>
			<path class="st11" d="M196.9,89.4h-0.06l-1.19-0.66l-1.18,0.66c-0.06,0.03-0.13,0-0.16-0.06c-0.01-0.02-0.01-0.04-0.01-0.06
				l0.23-1.4l-1-1c-0.02-0.03-0.02-0.08,0-0.11c0.01-0.04,0.05-0.07,0.09-0.07l1.33-0.21l0.59-1.27c0.04-0.06,0.12-0.07,0.18-0.03
				c0.01,0.01,0.02,0.02,0.03,0.03l0.59,1.27l1.33,0.21c0.04,0,0.08,0.03,0.09,0.07c0.02,0.03,0.02,0.08,0,0.11l-1,1l0.23,1.4
				c0.01,0.04,0.01,0.07,0,0.11L196.9,89.4z M195.65,88.49h0.06l1,0.58l-0.2-1.23c-0.02-0.03-0.02-0.06,0-0.09l0.85-0.88l-1.17-0.18
				c-0.04,0-0.07-0.02-0.09-0.06l-0.52-1.11l-0.52,1.11c-0.01,0.04-0.04,0.06-0.08,0.06l-1.17,0.18l0.85,0.88
				c0.02,0.03,0.02,0.06,0,0.09l-0.2,1.23l1-0.58H195.65z"/>
			<polygon class="st11" points="185.62,85.27 186.24,86.59 187.62,86.81 186.62,87.83 186.86,89.29 185.62,88.6 184.37,89.29 
				184.61,87.83 183.61,86.81 184.99,86.59 			"/>
			<path class="st11" d="M186.86,89.4h-0.06l-1.19-0.66l-1.18,0.66c-0.06,0.03-0.13,0-0.16-0.06c-0.01-0.02-0.01-0.04-0.01-0.06
				l0.23-1.4l-1-1c-0.02-0.03-0.02-0.08,0-0.11c0.01-0.04,0.05-0.07,0.09-0.07l1.33-0.21l0.59-1.27c0.04-0.06,0.12-0.07,0.18-0.03
				c0.01,0.01,0.02,0.02,0.03,0.03l0.59,1.27l1.33,0.21c0.04,0,0.08,0.03,0.09,0.07c0.02,0.03,0.02,0.08,0,0.11l-1,1l0.23,1.4
				c0,0.04-0.02,0.08-0.05,0.11L186.86,89.4z M185.61,88.49h0.06l1,0.58l-0.2-1.23c-0.02-0.03-0.02-0.06,0-0.09l0.85-0.88
				l-1.17-0.18c-0.04,0-0.07-0.02-0.09-0.06l-0.52-1.11l-0.51,1.11c-0.02,0.04-0.05,0.06-0.09,0.06l-1.17,0.18l0.85,0.88
				c0.02,0.03,0.02,0.06,0,0.09l-0.2,1.23l1-0.58H185.61z"/>
			<polygon class="st11" points="175.09,53.34 175.71,54.66 177.1,54.87 176.09,55.9 176.33,57.35 175.09,56.67 173.85,57.35 
				174.09,55.9 173.08,54.87 174.47,54.66 			"/>
			<path class="st11" d="M176.33,57.47h-0.05l-1.19-0.65l-1.19,0.65c-0.03,0.02-0.08,0.02-0.11,0c-0.02-0.03-0.02-0.08,0-0.11
				l0.23-1.4l-1-1c-0.03-0.03-0.03-0.08,0-0.11c0.01-0.04,0.05-0.07,0.09-0.08l1.32-0.2l0.6-1.27c0.02-0.04,0.06-0.06,0.1-0.06l0,0
				c0.04,0,0.08,0.02,0.1,0.06l0.6,1.27l1.33,0.2c0.04,0.01,0.07,0.04,0.08,0.08c0.03,0.03,0.03,0.08,0,0.11l-1,1l0.23,1.4
				c0.02,0.03,0.02,0.08,0,0.11H176.33z M173.33,54.95l0.86,0.87c0.01,0.03,0.01,0.07,0,0.1l-0.2,1.23l1-0.58
				c0.03-0.02,0.07-0.02,0.1,0l1,0.58l-0.2-1.23c-0.01-0.03-0.01-0.07,0-0.1l0.86-0.87l-1.18-0.18c0,0-0.06,0-0.08-0.06l-0.52-1.11
				l-0.52,1.11c-0.01,0.03-0.04,0.06-0.08,0.06L173.33,54.95z"/>
			<polygon class="st11" points="195.17,53.34 195.79,54.66 197.18,54.87 196.17,55.9 196.41,57.35 195.17,56.67 193.93,57.35 
				194.17,55.9 193.16,54.87 194.55,54.66 			"/>
			<path class="st11" d="M196.41,57.47L196.41,57.47l-1.19-0.65l-1.19,0.65c-0.04,0.02-0.08,0.02-0.12,0
				c-0.02-0.03-0.02-0.08,0-0.11l0.23-1.4l-1-1c-0.03-0.03-0.03-0.08,0-0.11c0.01-0.04,0.05-0.07,0.09-0.08l1.32-0.2l0.6-1.27
				c0.02-0.04,0.06-0.06,0.1-0.06l0,0c0.04,0,0.08,0.02,0.1,0.06l0.6,1.27l1.32,0.2c0.04,0.01,0.08,0.04,0.09,0.08
				c0.03,0.03,0.03,0.08,0,0.11l-1,1l0.23,1.4c0.02,0.03,0.02,0.08,0,0.11H196.41z M193.41,54.95l0.86,0.87
				c0.01,0.03,0.01,0.07,0,0.1l-0.2,1.23l1-0.58c0.03-0.02,0.07-0.02,0.1,0l1,0.58l-0.2-1.23c-0.01-0.03-0.01-0.07,0-0.1L197,55
				l-1.18-0.18c0,0-0.06,0-0.08-0.06l-0.52-1.11l-0.52,1.11c0,0-0.05,0.06-0.08,0.06L193.41,54.95z"/>
			<polygon class="st11" points="185.13,53.34 185.75,54.66 187.14,54.87 186.13,55.9 186.37,57.35 185.13,56.67 183.89,57.35 
				184.13,55.9 183.12,54.87 184.51,54.66 			"/>
			<path class="st11" d="M186.37,57.47h-0.05l-1.19-0.65l-1.19,0.65c-0.03,0.02-0.08,0.02-0.11,0c-0.04-0.02-0.06-0.07-0.05-0.11
				l0.23-1.4l-1-1c-0.03-0.03-0.03-0.08,0-0.11c0.01-0.04,0.05-0.07,0.09-0.08l1.32-0.2l0.6-1.27c0.02-0.04,0.06-0.06,0.1-0.06l0,0
				c0.04,0,0.08,0.02,0.1,0.06l0.6,1.27l1.33,0.2c0.04,0.01,0.07,0.04,0.08,0.08c0.03,0.03,0.03,0.08,0,0.11l-1,1l0.23,1.4
				c0.02,0.03,0.02,0.08,0,0.11H186.37z M183.37,54.95l0.86,0.87c0.01,0.03,0.01,0.07,0,0.1l-0.2,1.23l1-0.58
				c0.03-0.02,0.07-0.02,0.1,0l1,0.58l-0.2-1.23c-0.01-0.03-0.01-0.07,0-0.1l0.86-0.87l-1.18-0.18c0,0-0.06,0-0.08-0.06l-0.52-1.11
				l-0.52,1.11c-0.01,0.03-0.04,0.06-0.08,0.06L183.37,54.95z"/>
			<polygon class="st11" points="190.15,53.34 190.77,54.66 192.16,54.87 191.15,55.9 191.39,57.35 190.15,56.67 188.91,57.35 
				189.15,55.9 188.14,54.87 189.53,54.66 			"/>
			<path class="st11" d="M191.39,57.47L191.39,57.47l-1.19-0.65l-1.19,0.65c-0.04,0.02-0.08,0.02-0.12,0
				c-0.02-0.03-0.02-0.08,0-0.11l0.23-1.4l-1-1c-0.03-0.03-0.03-0.08,0-0.11c0.01-0.04,0.05-0.07,0.09-0.08l1.32-0.2l0.6-1.27
				c0.02-0.04,0.06-0.06,0.1-0.06l0,0c0.04,0,0.08,0.02,0.1,0.06l0.6,1.27l1.33,0.2c0.04,0.01,0.07,0.04,0.08,0.08
				c0.03,0.03,0.03,0.08,0,0.11l-1,1l0.23,1.4c0.02,0.03,0.02,0.08,0,0.11H191.39z M188.39,54.95l0.86,0.87
				c0.01,0.03,0.01,0.07,0,0.1l-0.2,1.23l1-0.58c0.03-0.02,0.07-0.02,0.1,0l1,0.58l-0.2-1.23c-0.01-0.03-0.01-0.07,0-0.1l0.86-0.87
				l-1.18-0.18c0,0-0.06,0-0.08-0.06l-0.52-1.11l-0.52,1.11c0,0,0,0.06-0.08,0.06L188.39,54.95z"/>
			<polygon class="st11" points="180.11,53.34 180.73,54.66 182.12,54.87 181.11,55.9 181.35,57.35 180.11,56.67 178.87,57.35 
				179.11,55.9 178.1,54.87 179.49,54.66 			"/>
			<path class="st11" d="M181.35,57.47L181.35,57.47l-1.19-0.65l-1.19,0.65c-0.03,0.02-0.08,0.02-0.11,0
				c-0.04-0.02-0.06-0.07-0.05-0.11l0.23-1.4l-1-1c-0.03-0.03-0.03-0.08,0-0.11c0.01-0.04,0.05-0.07,0.09-0.08l1.32-0.2l0.6-1.27
				c0.02-0.04,0.06-0.06,0.1-0.06l0,0c0.04,0,0.08,0.02,0.1,0.06l0.6,1.27l1.33,0.2c0.04,0.01,0.07,0.04,0.08,0.08
				c0.03,0.03,0.03,0.08,0,0.11l-1,1l0.23,1.4c0.02,0.03,0.02,0.08,0,0.11H181.35z M178.35,54.95l0.86,0.87
				c0.01,0.03,0.01,0.07,0,0.1l-0.2,1.23l1-0.58c0.03-0.02,0.07-0.02,0.1,0l1,0.58l-0.2-1.23c-0.01-0.03-0.01-0.07,0-0.1l0.86-0.87
				l-1.18-0.18c0,0-0.06,0-0.08-0.06l-0.52-1.11l-0.52,1.11c-0.01,0.03-0.04,0.06-0.08,0.06L178.35,54.95z"/>
			<text transform="matrix(1 0 0 1 205.39 95.97)" class="st10 st5 st6">4.5/5</text>
			<text transform="matrix(1 0 0 1 135.97 103.15)" class="st10 st5 st6">Customer Support</text>
			<text transform="matrix(1 0 0 1 205.39 103.15)" class="st10 st5 st6">4.0/5</text>
			<text transform="matrix(1 0 0 1 135.97 110.32)" class="st10 st5 st6">Features &amp; Functionality</text>
			<text transform="matrix(1 0 0 1 205.39 110.32)" class="st10 st5 st6">4.5/5</text>
			<text transform="matrix(1 0 0 1 135.97 117.49)" class="st10 st5 st6">Value for Money</text>
			<text transform="matrix(1 0 0 1 205.39 117.49)" class="st10 st5 st6">4.0/5</text>
			<polygon class="st12" points="187.96,93.16 188.37,94.04 189.3,94.18 188.63,94.87 188.78,95.84 187.96,95.38 187.13,95.84 
				187.29,94.87 186.62,94.18 187.54,94.04 			"/>
			<path class="st12" d="M188.78,96h-0.05l-0.77-0.43L187.18,96c-0.03,0.03-0.08,0.03-0.11,0c-0.02-0.03-0.02-0.08,0-0.11l0.15-0.91
				l-0.63-0.65c-0.02-0.03-0.02-0.08,0-0.11c0.02-0.04,0.05-0.07,0.09-0.08l0.87-0.13l0.39-0.83c0.04-0.06,0.11-0.07,0.17-0.03
				c0.01,0.01,0.02,0.02,0.03,0.03l0.39,0.83l0.86,0.13c0.04,0.01,0.08,0.04,0.09,0.08c0.02,0.03,0.02,0.08,0,0.11l-0.63,0.65
				l0.14,0.91c0.02,0.03,0.02,0.08,0,0.11H188.78z M187.96,95.32L187.96,95.32l0.63,0.35l-0.12-0.74c-0.02-0.03-0.02-0.07,0-0.1
				l0.51-0.53l-0.71-0.11c0,0-0.06,0-0.08-0.06l-0.31-0.67l-0.32,0.67c-0.01,0.03-0.04,0.06-0.08,0.06l-0.71,0.11l0.52,0.53
				c0.01,0.03,0.01,0.07,0,0.1l-0.12,0.74l0.62-0.35H187.96z"/>
			<polygon class="st12" points="191.3,93.16 191.72,94.04 192.64,94.18 191.97,94.87 192.13,95.84 191.3,95.38 190.48,95.84 
				190.63,94.87 189.97,94.18 190.89,94.04 			"/>
			<path class="st12" d="M192.13,96L192.13,96l-0.78-0.43L190.58,96c-0.04,0.02-0.08,0.02-0.12,0c-0.02-0.03-0.02-0.08,0-0.11
				l0.15-0.91l-0.63-0.65c-0.02-0.03-0.02-0.08,0-0.11c0.01-0.04,0.05-0.07,0.09-0.08l0.86-0.13l0.39-0.83
				c0.04-0.06,0.11-0.07,0.17-0.03c0.01,0.01,0.02,0.02,0.03,0.03l0.39,0.83l0.87,0.13c0.04,0.01,0.08,0.04,0.09,0.08
				c0.02,0.03,0.02,0.08,0,0.11l-0.63,0.65l0.15,0.91c0.02,0.03,0.02,0.08,0,0.11H192.13z M191.3,95.32h0.06l0.62,0.35l-0.12-0.74
				c-0.01-0.03-0.01-0.07,0-0.1l0.52-0.53l-0.71-0.11c-0.04,0-0.07-0.03-0.08-0.06l-0.32-0.67l-0.31,0.67
				c-0.01,0.03-0.04,0.06-0.08,0.06l-0.71,0.11l0.51,0.53c0.02,0.03,0.02,0.07,0,0.1l-0.12,0.74l0.63-0.35H191.3z"/>
			<polygon class="st12" points="194.65,93.16 195.06,94.04 195.99,94.18 195.32,94.87 195.48,95.84 194.65,95.38 193.82,95.84 
				193.98,94.87 193.31,94.18 194.24,94.04 			"/>
			<path class="st12" d="M195.48,96h-0.06l-0.77-0.43L193.88,96c-0.04,0.03-0.08,0.03-0.12,0c-0.02-0.03-0.02-0.08,0-0.11l0.15-0.91
				l-0.63-0.65c-0.03-0.03-0.03-0.08,0-0.11c0.01-0.04,0.05-0.07,0.09-0.08l0.86-0.13l0.39-0.83c0.04-0.06,0.11-0.07,0.17-0.03
				c0.01,0.01,0.02,0.02,0.03,0.03l0.39,0.83l0.87,0.13c0.04,0.01,0.07,0.04,0.08,0.08c0.03,0.03,0.03,0.08,0,0.11l-0.63,0.65
				l0.15,0.91c0,0.04-0.01,0.09-0.05,0.11H195.48z M194.65,95.32L194.65,95.32l0.63,0.35l-0.12-0.74c-0.01-0.03-0.01-0.07,0-0.1
				l0.52-0.53l-0.71-0.11c-0.04,0-0.07-0.03-0.09-0.06l-0.31-0.67l-0.31,0.67c-0.02,0.03-0.05,0.06-0.09,0.06l-0.71,0.11l0.52,0.53
				c0.02,0.03,0.02,0.07,0,0.1l-0.12,0.74l0.63-0.35H194.65z"/>
			<polygon class="st12" points="198,93.16 198.41,94.04 199.34,94.18 198.67,94.87 198.82,95.84 198,95.38 197.17,95.84 
				197.33,94.87 196.66,94.18 197.58,94.04 			"/>
			<path class="st12" d="M198.82,96L198.82,96l-0.77-0.43L197.27,96c-0.03,0.03-0.08,0.03-0.11,0c-0.04-0.02-0.06-0.07-0.05-0.11
				l0.15-0.91l-0.63-0.65c-0.02-0.03-0.02-0.08,0-0.11c0.02-0.04,0.05-0.07,0.09-0.08l0.87-0.13l0.39-0.83
				c0.04-0.06,0.11-0.07,0.17-0.03c0.01,0.01,0.02,0.02,0.03,0.03l0.39,0.83l0.86,0.13c0.04,0.01,0.08,0.04,0.09,0.08
				c0.02,0.03,0.02,0.08,0,0.11l-0.63,0.65l0.14,0.91c0.02,0.03,0.02,0.08,0,0.11H198.82z M198,95.32h0.05l0.63,0.35l-0.12-0.74
				c-0.02-0.03-0.02-0.07,0-0.1l0.51-0.53l-0.71-0.11c0,0-0.06,0-0.08-0.06l-0.31-0.67l-0.32,0.67c-0.01,0.03-0.04,0.06-0.08,0.06
				l-0.71,0.11l0.52,0.53c0.01,0.03,0.01,0.07,0,0.1l-0.12,0.74l0.62-0.35H198z"/>
			<path class="st12" d="M202.17,96L202.17,96l-0.78-0.43L200.62,96c-0.04,0.02-0.08,0.02-0.12,0c-0.02-0.03-0.02-0.08,0-0.11
				l0.15-0.91l-0.63-0.65c-0.02-0.03-0.02-0.08,0-0.11c0.01-0.04,0.05-0.07,0.09-0.08l0.86-0.13l0.39-0.83
				c0.04-0.06,0.11-0.07,0.17-0.03c0.01,0.01,0.02,0.02,0.03,0.03l0.39,0.83l0.87,0.13c0.04,0.01,0.08,0.04,0.09,0.08
				c0.02,0.03,0.02,0.08,0,0.11l-0.63,0.65l0.15,0.91c0.02,0.03,0.02,0.08,0,0.11H202.17z M201.34,95.32h0.06l0.62,0.35l-0.12-0.74
				c-0.01-0.03-0.01-0.07,0-0.1l0.52-0.53l-0.71-0.11c-0.04,0-0.07-0.03-0.08-0.06l-0.32-0.67L201,94.13
				c-0.01,0.03-0.04,0.06-0.08,0.06l-0.71,0.11l0.51,0.53c0.02,0.03,0.02,0.07,0,0.1l-0.12,0.74l0.63-0.35
				C201.23,95.32,201.34,95.32,201.34,95.32z"/>
			<polyline class="st12" points="201.34,95.38 200.52,95.84 200.68,94.87 200,94.18 200.93,94.04 201.34,93.16 			"/>
			<path class="st12" d="M200.52,96h-0.07c-0.02-0.03-0.02-0.08,0-0.11l0.15-0.91l-0.63-0.65c-0.02-0.03-0.02-0.08,0-0.11
				c0.01-0.04,0.05-0.07,0.09-0.08l0.86-0.13l0.39-0.83c0.04-0.04,0.11-0.04,0.15,0c0.05,0.03,0.08,0.09,0.05,0.15l0,0l-0.41,0.88
				c-0.01,0.03-0.04,0.06-0.08,0.06l-0.71,0.11l0.51,0.53c0.02,0.03,0.02,0.07,0,0.1l-0.12,0.74l0.63-0.35
				c0.04-0.04,0.11-0.04,0.15,0s0.04,0.11,0,0.15l-0.83,0.46L200.52,96z"/>
			<polygon class="st12" points="187.96,107.46 188.37,108.34 189.3,108.48 188.63,109.17 188.78,110.14 187.96,109.68 
				187.13,110.14 187.29,109.17 186.62,108.48 187.54,108.34 			"/>
			<path class="st12" d="M188.78,110.25h-0.05l-0.77-0.43l-0.78,0.43c-0.03,0.02-0.08,0.02-0.11,0c-0.02-0.03-0.02-0.08,0-0.11
				l0.15-0.91l-0.63-0.65c-0.02-0.03-0.02-0.08,0-0.11c0.02-0.04,0.05-0.07,0.09-0.08l0.87-0.13l0.39-0.83
				c0.04-0.06,0.11-0.07,0.17-0.03c0.01,0.01,0.02,0.02,0.03,0.03l0.39,0.83l0.86,0.13c0.04,0.01,0.08,0.04,0.09,0.08
				c0.02,0.04,0.02,0.07,0,0.11l-0.63,0.65l0.14,0.91c0.02,0.03,0.02,0.08,0,0.11H188.78z M187.96,109.57L187.96,109.57l0.63,0.35
				l-0.12-0.74c-0.02-0.03-0.02-0.07,0-0.1l0.51-0.53l-0.71-0.11c0,0-0.06,0-0.08-0.06l-0.31-0.67l-0.32,0.67
				c-0.01,0.03-0.04,0.06-0.08,0.06l-0.71,0.11l0.52,0.53c0.01,0.03,0.01,0.07,0,0.1l-0.12,0.74l0.62-0.35H187.96z"/>
			<polygon class="st12" points="191.3,107.46 191.72,108.34 192.64,108.48 191.97,109.17 192.13,110.14 191.3,109.68 
				190.48,110.14 190.63,109.17 189.97,108.48 190.89,108.34 			"/>
			<path class="st12" d="M192.13,110.25L192.13,110.25l-0.78-0.43l-0.77,0.43c-0.04,0.02-0.08,0.02-0.12,0
				c-0.02-0.03-0.02-0.08,0-0.11l0.15-0.91l-0.63-0.65c-0.02-0.03-0.02-0.08,0-0.11c0.01-0.04,0.05-0.07,0.09-0.08l0.86-0.13
				l0.39-0.83c0.04-0.06,0.11-0.07,0.17-0.03c0.01,0.01,0.02,0.02,0.03,0.03l0.39,0.83l0.87,0.13c0.04,0.01,0.08,0.04,0.09,0.08
				c0.02,0.03,0.02,0.08,0,0.11l-0.63,0.65l0.15,0.91c0.02,0.03,0.02,0.08,0,0.11H192.13z M191.3,109.57h0.06l0.62,0.35l-0.12-0.74
				c-0.01-0.03-0.01-0.07,0-0.1l0.52-0.53l-0.71-0.11c-0.04,0-0.07-0.03-0.08-0.06l-0.32-0.67l-0.31,0.67
				c-0.01,0.03-0.04,0.06-0.08,0.06l-0.71,0.11l0.51,0.53c0.02,0.03,0.02,0.07,0,0.1l-0.12,0.74l0.63-0.35H191.3z"/>
			<polygon class="st12" points="194.65,107.46 195.06,108.34 195.99,108.48 195.32,109.17 195.48,110.14 194.65,109.68 
				193.82,110.14 193.98,109.17 193.31,108.48 194.24,108.34 			"/>
			<path class="st12" d="M195.48,110.25h-0.06l-0.77-0.43l-0.77,0.43c-0.04,0.02-0.08,0.02-0.12,0c-0.02-0.03-0.02-0.08,0-0.11
				l0.15-0.91l-0.63-0.65c-0.03-0.03-0.03-0.08,0-0.11c0.01-0.04,0.05-0.07,0.09-0.08l0.86-0.13l0.39-0.83
				c0.04-0.06,0.11-0.07,0.17-0.03c0.01,0.01,0.02,0.02,0.03,0.03l0.39,0.83l0.87,0.13c0.04,0.01,0.07,0.04,0.09,0.08
				c0.02,0.03,0.02,0.08,0,0.11l-0.63,0.65l0.15,0.91c0,0.04-0.01,0.09-0.05,0.11H195.48z M194.65,109.57L194.65,109.57l0.63,0.35
				l-0.12-0.74c-0.01-0.03-0.01-0.07,0-0.1l0.52-0.53l-0.71-0.11c-0.04,0-0.07-0.03-0.09-0.06l-0.31-0.67l-0.31,0.67
				c-0.02,0.03-0.05,0.06-0.09,0.06l-0.71,0.11l0.52,0.53c0.02,0.03,0.02,0.07,0,0.1l-0.12,0.74l0.63-0.35H194.65z"/>
			<polygon class="st12" points="198,107.46 198.41,108.34 199.34,108.48 198.67,109.17 198.82,110.14 198,109.68 197.17,110.14 
				197.33,109.17 196.66,108.48 197.58,108.34 			"/>
			<path class="st12" d="M198.82,110.25L198.82,110.25l-0.77-0.43l-0.78,0.43c-0.03,0.02-0.08,0.02-0.11,0
				c-0.04-0.02-0.06-0.07-0.05-0.11l0.15-0.91l-0.63-0.65c-0.02-0.03-0.02-0.08,0-0.11c0.02-0.04,0.05-0.07,0.09-0.08l0.87-0.13
				l0.39-0.83c0.04-0.06,0.11-0.07,0.17-0.03c0.01,0.01,0.02,0.02,0.03,0.03l0.39,0.83l0.86,0.13c0.04,0.01,0.08,0.04,0.09,0.08
				c0.02,0.04,0.02,0.07,0,0.11l-0.63,0.65l0.14,0.91c0.02,0.03,0.02,0.08,0,0.11H198.82z M198,109.57h0.05l0.63,0.35l-0.12-0.74
				c-0.02-0.03-0.02-0.07,0-0.1l0.51-0.53l-0.71-0.11c0,0-0.06,0-0.08-0.06l-0.31-0.67l-0.32,0.67c-0.01,0.03-0.04,0.06-0.08,0.06
				l-0.71,0.11l0.52,0.53c0.01,0.03,0.01,0.07,0,0.1l-0.12,0.74l0.62-0.35H198z"/>
			<path class="st12" d="M202.17,110.25L202.17,110.25l-0.78-0.43l-0.77,0.43c-0.04,0.02-0.08,0.02-0.12,0
				c-0.02-0.03-0.02-0.08,0-0.11l0.15-0.91l-0.63-0.65c-0.02-0.03-0.02-0.08,0-0.11c0.01-0.04,0.05-0.07,0.09-0.08l0.86-0.13
				l0.39-0.83c0.04-0.06,0.11-0.07,0.17-0.03c0.01,0.01,0.02,0.02,0.03,0.03l0.39,0.83l0.87,0.13c0.04,0.01,0.08,0.04,0.09,0.08
				c0.02,0.03,0.02,0.08,0,0.11l-0.63,0.65l0.15,0.91c0.02,0.03,0.02,0.08,0,0.11H202.17z M201.34,109.57h0.06l0.62,0.35l-0.12-0.74
				c-0.01-0.03-0.01-0.07,0-0.1l0.52-0.53l-0.71-0.11c-0.04,0-0.07-0.03-0.08-0.06l-0.32-0.67l-0.31,0.67
				c-0.01,0.03-0.04,0.06-0.08,0.06l-0.71,0.11l0.51,0.53c0.02,0.03,0.02,0.07,0,0.1l-0.12,0.74l0.63-0.35H201.34z"/>
			<polyline class="st12" points="201.34,109.68 200.52,110.14 200.68,109.17 200,108.48 200.93,108.34 201.34,107.46 			"/>
			<path class="st12" d="M200.52,110.25h-0.07c-0.02-0.03-0.02-0.08,0-0.11l0.15-0.91l-0.63-0.65c-0.02-0.03-0.02-0.08,0-0.11
				c0.01-0.04,0.05-0.07,0.09-0.08l0.86-0.13l0.39-0.83c0.04-0.04,0.11-0.04,0.15,0c0.05,0.03,0.08,0.09,0.05,0.15l0,0l-0.41,0.88
				c-0.01,0.03-0.04,0.06-0.08,0.06l-0.71,0.11l0.51,0.53c0.02,0.03,0.02,0.07,0,0.1L200.7,110l0.63-0.35
				c0.04-0.04,0.11-0.04,0.15,0s0.04,0.11,0,0.15l-0.83,0.46L200.52,110.25z"/>
			<polygon class="st12" points="187.96,100.31 188.37,101.19 189.3,101.33 188.63,102.02 188.78,102.99 187.96,102.53 
				187.13,102.99 187.29,102.02 186.62,101.33 187.54,101.19 			"/>
			<path class="st12" d="M188.78,103.1h-0.05l-0.77-0.43l-0.78,0.43c-0.03,0.03-0.08,0.03-0.11,0c-0.02-0.03-0.02-0.08,0-0.11
				l0.15-0.91l-0.63-0.65c-0.02-0.03-0.02-0.08,0-0.11c0.02-0.04,0.05-0.07,0.09-0.08l0.87-0.13l0.39-0.83
				c0.04-0.06,0.11-0.07,0.17-0.03c0.01,0.01,0.02,0.02,0.03,0.03l0.39,0.83l0.86,0.13c0.04,0.01,0.08,0.04,0.09,0.08
				c0.02,0.04,0.02,0.07,0,0.11l-0.63,0.65l0.14,0.91c0.02,0.03,0.02,0.08,0,0.11H188.78z M187.96,102.42L187.96,102.42l0.63,0.35
				l-0.12-0.74c-0.02-0.03-0.02-0.07,0-0.1l0.51-0.53l-0.71-0.11c0,0-0.06,0-0.08-0.06l-0.31-0.67l-0.32,0.67
				c-0.01,0.03-0.04,0.06-0.08,0.06l-0.71,0.11l0.52,0.53c0.01,0.03,0.01,0.07,0,0.1l-0.12,0.74l0.62-0.35H187.96z"/>
			<polygon class="st12" points="191.3,100.31 191.72,101.19 192.64,101.33 191.97,102.02 192.13,102.99 191.3,102.53 
				190.48,102.99 190.63,102.02 189.97,101.33 190.89,101.19 			"/>
			<path class="st12" d="M192.13,103.1L192.13,103.1l-0.78-0.43l-0.77,0.43c-0.04,0.02-0.08,0.02-0.12,0
				c-0.02-0.03-0.02-0.08,0-0.11l0.15-0.91l-0.63-0.65c-0.02-0.03-0.02-0.08,0-0.11c0.01-0.04,0.05-0.07,0.09-0.08l0.86-0.13
				l0.39-0.83c0.04-0.06,0.11-0.07,0.17-0.03c0.01,0.01,0.02,0.02,0.03,0.03l0.39,0.83l0.87,0.13c0.04,0.01,0.08,0.04,0.09,0.08
				c0.02,0.03,0.02,0.08,0,0.11l-0.63,0.65l0.15,0.91c0.02,0.03,0.02,0.08,0,0.11H192.13z M191.3,102.42h0.06l0.62,0.35l-0.12-0.74
				c-0.01-0.03-0.01-0.07,0-0.1l0.52-0.53l-0.71-0.11c-0.04,0-0.07-0.03-0.08-0.06l-0.32-0.67l-0.31,0.67
				c-0.01,0.03-0.04,0.06-0.08,0.06l-0.71,0.11l0.51,0.53c0.02,0.03,0.02,0.07,0,0.1l-0.12,0.74l0.63-0.35H191.3z"/>
			<polygon class="st12" points="194.65,100.31 195.06,101.19 195.99,101.33 195.32,102.02 195.48,102.99 194.65,102.53 
				193.82,102.99 193.98,102.02 193.31,101.33 194.24,101.19 			"/>
			<path class="st12" d="M195.48,103.1h-0.06l-0.77-0.43l-0.77,0.43c-0.04,0.03-0.08,0.03-0.12,0c-0.02-0.03-0.02-0.08,0-0.11
				l0.15-0.91l-0.63-0.65c-0.03-0.03-0.03-0.08,0-0.11c0.01-0.04,0.05-0.07,0.09-0.08l0.86-0.13l0.39-0.83
				c0.04-0.06,0.11-0.07,0.17-0.03c0.01,0.01,0.02,0.02,0.03,0.03l0.39,0.83l0.87,0.13c0.04,0.01,0.07,0.04,0.09,0.08
				c0.02,0.03,0.02,0.08,0,0.11l-0.63,0.65l0.15,0.91c0,0.04-0.01,0.09-0.05,0.11H195.48z M194.65,102.42L194.65,102.42l0.63,0.35
				l-0.12-0.74c-0.01-0.03-0.01-0.07,0-0.1l0.52-0.53l-0.71-0.11c-0.04,0-0.07-0.03-0.09-0.06l-0.31-0.67l-0.31,0.67
				c-0.02,0.03-0.05,0.06-0.09,0.06l-0.71,0.11l0.52,0.53c0.02,0.03,0.02,0.07,0,0.1l-0.12,0.74l0.63-0.35H194.65z"/>
			<polygon class="st12" points="198,100.31 198.41,101.19 199.34,101.33 198.67,102.02 198.82,102.99 198,102.53 197.17,102.99 
				197.33,102.02 196.66,101.33 197.58,101.19 			"/>
			<path class="st12" d="M198.82,103.1L198.82,103.1l-0.77-0.43l-0.78,0.43c-0.03,0.03-0.08,0.03-0.11,0
				c-0.04-0.02-0.06-0.07-0.05-0.11l0.15-0.91l-0.63-0.65c-0.02-0.03-0.02-0.08,0-0.11c0.02-0.04,0.05-0.07,0.09-0.08l0.87-0.13
				l0.39-0.83c0.04-0.06,0.11-0.07,0.17-0.03c0.01,0.01,0.02,0.02,0.03,0.03l0.39,0.83l0.86,0.13c0.04,0.01,0.08,0.04,0.09,0.08
				c0.02,0.04,0.02,0.07,0,0.11l-0.63,0.65l0.14,0.91c0.02,0.03,0.02,0.08,0,0.11H198.82z M198,102.42h0.05l0.63,0.35l-0.12-0.74
				c-0.02-0.03-0.02-0.07,0-0.1l0.51-0.53l-0.71-0.11c0,0-0.06,0-0.08-0.06l-0.31-0.67l-0.32,0.67c-0.01,0.03-0.04,0.06-0.08,0.06
				l-0.71,0.11l0.52,0.53c0.01,0.03,0.01,0.07,0,0.1l-0.12,0.74l0.62-0.35H198z"/>
			<path class="st12" d="M202.17,103.1L202.17,103.1l-0.78-0.43l-0.77,0.43c-0.04,0.02-0.08,0.02-0.12,0
				c-0.02-0.03-0.02-0.08,0-0.11l0.15-0.91l-0.63-0.65c-0.02-0.03-0.02-0.08,0-0.11c0.01-0.04,0.05-0.07,0.09-0.08l0.86-0.13
				l0.39-0.83c0.04-0.06,0.11-0.07,0.17-0.03c0.01,0.01,0.02,0.02,0.03,0.03l0.39,0.83l0.87,0.13c0.04,0.01,0.08,0.04,0.09,0.08
				c0.02,0.03,0.02,0.08,0,0.11l-0.63,0.65l0.15,0.91c0.02,0.03,0.02,0.08,0,0.11H202.17z M201.34,102.42h0.06l0.62,0.35l-0.12-0.74
				c-0.01-0.03-0.01-0.07,0-0.1l0.52-0.53l-0.71-0.11c-0.04,0-0.07-0.03-0.08-0.06l-0.32-0.67l-0.31,0.67
				c-0.01,0.03-0.04,0.06-0.08,0.06l-0.71,0.11l0.51,0.53c0.02,0.03,0.02,0.07,0,0.1l-0.12,0.74l0.63-0.35H201.34z"/>
			<polygon class="st12" points="187.96,114.61 188.37,115.49 189.3,115.63 188.63,116.32 188.78,117.29 187.96,116.83 
				187.13,117.29 187.29,116.32 186.62,115.63 187.54,115.49 			"/>
			<path class="st12" d="M188.78,117.4h-0.05L188,117l-0.78,0.43c-0.03,0.02-0.08,0.02-0.11,0c-0.02-0.03-0.02-0.08,0-0.11
				l0.15-0.91l-0.63-0.65c-0.02-0.03-0.02-0.08,0-0.11c0.02-0.04,0.05-0.07,0.09-0.08l0.87-0.13l0.39-0.83
				c0.04-0.06,0.11-0.07,0.17-0.03c0.01,0.01,0.02,0.02,0.03,0.03l0.39,0.83l0.86,0.13c0.04,0.01,0.08,0.04,0.09,0.08
				c0.02,0.04,0.02,0.07,0,0.11l-0.63,0.65l0.14,0.91c0.02,0.03,0.02,0.08,0,0.11L188.78,117.4z M187.96,116.72L187.96,116.72
				l0.63,0.35l-0.12-0.74c-0.02-0.03-0.02-0.07,0-0.1l0.51-0.53l-0.71-0.11c0,0-0.06,0-0.08-0.06l-0.31-0.67l-0.32,0.67
				c-0.01,0.03-0.04,0.06-0.08,0.06l-0.71,0.11l0.52,0.53c0.01,0.03,0.01,0.07,0,0.1l-0.12,0.74l0.62-0.35H187.96z"/>
			<polygon class="st12" points="191.3,114.61 191.72,115.49 192.64,115.63 191.97,116.32 192.13,117.29 191.3,116.83 
				190.48,117.29 190.63,116.32 189.97,115.63 190.89,115.49 			"/>
			<path class="st12" d="M192.13,117.4L192.13,117.4l-0.78-0.43l-0.77,0.43c-0.04,0.02-0.08,0.02-0.12,0
				c-0.02-0.03-0.02-0.08,0-0.11l0.15-0.91l-0.63-0.65c-0.02-0.03-0.02-0.08,0-0.11c0.01-0.04,0.05-0.07,0.09-0.08l0.86-0.13
				l0.39-0.83c0.04-0.06,0.11-0.07,0.17-0.03c0.01,0.01,0.02,0.02,0.03,0.03l0.39,0.83l0.87,0.13c0.04,0.01,0.08,0.04,0.09,0.08
				c0.02,0.03,0.02,0.08,0,0.11l-0.63,0.65l0.15,0.91c0.02,0.03,0.02,0.08,0,0.11H192.13z M191.3,116.72h0.06l0.62,0.35l-0.12-0.74
				c-0.01-0.03-0.01-0.07,0-0.1l0.52-0.53l-0.71-0.11c-0.04,0-0.07-0.03-0.08-0.06l-0.32-0.67l-0.31,0.67
				c-0.01,0.03-0.04,0.06-0.08,0.06l-0.71,0.11l0.51,0.53c0.02,0.03,0.02,0.07,0,0.1l-0.12,0.74l0.63-0.35H191.3z"/>
			<polygon class="st12" points="194.65,114.61 195.06,115.49 195.99,115.63 195.32,116.32 195.48,117.29 194.65,116.83 
				193.82,117.29 193.98,116.32 193.31,115.63 194.24,115.49 			"/>
			<path class="st12" d="M195.48,117.4h-0.06l-0.77-0.43l-0.77,0.43c-0.04,0.02-0.08,0.02-0.12,0c-0.02-0.03-0.02-0.08,0-0.11
				l0.15-0.91l-0.63-0.65c-0.03-0.03-0.03-0.08,0-0.11c0.01-0.04,0.05-0.07,0.09-0.08l0.86-0.13l0.39-0.83
				c0.04-0.06,0.11-0.07,0.17-0.03c0.01,0.01,0.02,0.02,0.03,0.03l0.39,0.83l0.87,0.13c0.04,0.01,0.07,0.04,0.09,0.08
				c0.02,0.03,0.02,0.08,0,0.11l-0.63,0.65l0.15,0.91c0,0.04-0.01,0.09-0.05,0.11H195.48z M194.65,116.72L194.65,116.72l0.63,0.35
				l-0.12-0.74c-0.01-0.03-0.01-0.07,0-0.1l0.52-0.53l-0.71-0.11c-0.04,0-0.07-0.03-0.09-0.06l-0.31-0.67l-0.31,0.67
				c-0.02,0.03-0.05,0.06-0.09,0.06l-0.71,0.11l0.52,0.53c0.02,0.03,0.02,0.07,0,0.1l-0.12,0.74l0.63-0.35H194.65z"/>
			<polygon class="st12" points="198,114.61 198.41,115.49 199.34,115.63 198.67,116.32 198.82,117.29 198,116.83 197.17,117.29 
				197.33,116.32 196.66,115.63 197.58,115.49 			"/>
			<path class="st12" d="M198.82,117.4L198.82,117.4L198,117l-0.78,0.43c-0.03,0.02-0.08,0.02-0.11,0
				c-0.04-0.02-0.06-0.07-0.05-0.11l0.15-0.91l-0.63-0.65c-0.02-0.03-0.02-0.08,0-0.11c0.02-0.04,0.05-0.07,0.09-0.08l0.87-0.13
				l0.39-0.83c0.04-0.06,0.11-0.07,0.17-0.03c0.01,0.01,0.02,0.02,0.03,0.03l0.39,0.83l0.86,0.13c0.04,0.01,0.08,0.04,0.09,0.08
				c0.02,0.04,0.02,0.07,0,0.11l-0.63,0.65l0.14,0.91c0.02,0.03,0.02,0.08,0,0.11L198.82,117.4z M198,116.72h0.05l0.63,0.35
				l-0.12-0.74c-0.02-0.03-0.02-0.07,0-0.1l0.51-0.53l-0.71-0.11c0,0-0.06,0-0.08-0.06l-0.31-0.67l-0.32,0.67
				c-0.01,0.03-0.04,0.06-0.08,0.06l-0.71,0.11l0.52,0.53c0.01,0.03,0.01,0.07,0,0.1l-0.12,0.74l0.62-0.35H198z"/>
			<path class="st12" d="M202.17,117.4L202.17,117.4l-0.78-0.43l-0.77,0.43c-0.04,0.02-0.08,0.02-0.12,0
				c-0.02-0.03-0.02-0.08,0-0.11l0.15-0.91l-0.63-0.65c-0.02-0.03-0.02-0.08,0-0.11c0.01-0.04,0.05-0.07,0.09-0.08l0.86-0.13
				l0.39-0.83c0.04-0.06,0.11-0.07,0.17-0.03c0.01,0.01,0.02,0.02,0.03,0.03l0.39,0.83l0.87,0.13c0.04,0.01,0.08,0.04,0.09,0.08
				c0.02,0.03,0.02,0.08,0,0.11l-0.63,0.65l0.15,0.91c0.02,0.03,0.02,0.08,0,0.11H202.17z M201.34,116.72h0.06l0.62,0.35l-0.12-0.74
				c-0.01-0.03-0.01-0.07,0-0.1l0.52-0.53l-0.71-0.11c-0.04,0-0.07-0.03-0.08-0.06l-0.32-0.67l-0.31,0.67
				c-0.01,0.03-0.04,0.06-0.08,0.06l-0.71,0.11l0.51,0.53c0.02,0.03,0.02,0.07,0,0.1l-0.12,0.74l0.63-0.35H201.34z"/>
			<rect x="133.32" y="-5.95" class="st7" width="83.67" height="15.39"/>
			<text transform="matrix(1 0 0 1 136 3.69)" class="st4 st8 st9">Screenshots</text>
			<path class="st4" d="M211.8,3.2c-0.06,0-0.12-0.02-0.16-0.07l-2-2c-0.08-0.09-0.08-0.22,0-0.31s0.22-0.09,0.31-0.01l0.01,0.01
				l1.85,1.85l1.84-1.86c0.08-0.09,0.22-0.09,0.31-0.01l0.01,0.01c0.08,0.09,0.08,0.22,0,0.31l-2,2
				C211.93,3.17,211.87,3.2,211.8,3.2z"/>
			<rect x="133.32" y="9.67" class="st7" width="83.67" height="15.39"/>
			<text transform="matrix(1 0 0 1 136 19.31)" class="st4 st8 st9">Features</text>
			<rect x="133.32" y="9.44" class="st3" width="83.67" height="0.22"/>
			<path class="st4" d="M211.8,18.82c-0.06,0-0.12-0.03-0.16-0.07l-2-2c-0.08-0.09-0.08-0.22,0-0.31s0.22-0.09,0.31-0.01l0.01,0.01
				l1.85,1.85l1.85-1.85c0.08-0.09,0.22-0.09,0.31-0.01l0.01,0.01c0.08,0.09,0.08,0.22,0,0.31l-2,2
				C211.93,18.8,211.87,18.82,211.8,18.82z"/>
			<text transform="matrix(1 0 0 1 135.89 157.72)" class="st10 st8 st6">QuickBooks Enterprise</text>
			<text transform="matrix(1 0 0 1 135.89 164.86)" class="st13 st5 st6">--</text>
			<text transform="matrix(1 0 0 1 135.89 179.36)" class="st10 st8 st6">NetSuite</text>
			<text transform="matrix(1 0 0 1 141.57 186.5)" class="st4 st5 st6">Most Popular Accounting Software</text>
			<rect x="135.88" y="170.46" class="st3" width="78.09" height="0.11"/>
			<rect x="135.88" y="192.1" class="st3" width="78.09" height="0.11"/>
			<rect x="133.21" y="133.26" class="st7" width="83.67" height="15.39"/>
			<text transform="matrix(1 0 0 1 135.89 142.89)" class="st4 st8 st9">Awards</text>
			<path class="st4" d="M213.69,142.4c-0.06,0-0.12-0.02-0.16-0.06l-1.85-1.85l-1.85,1.85c-0.09,0.08-0.22,0.08-0.31,0
				s-0.09-0.22-0.01-0.31l0.01-0.01l2-2c0.09-0.08,0.22-0.08,0.31,0l2,2c0.09,0.08,0.09,0.22,0.01,0.31l-0.01,0.01
				C213.79,142.38,213.74,142.4,213.69,142.4z"/>
			<rect x="133.21" y="148.65" class="st3" width="83.67" height="0.22"/>
			<rect x="133.21" y="133.12" class="st3" width="83.67" height="0.22"/>
			<path class="st14" d="M137.45,183.06c-0.51-0.01-1.02,0.09-1.49,0.29c-0.05,0.02-0.08,0.07-0.08,0.12v1.29
				c0,0.34,0.04,0.67,0.12,1c0.17,0.77,1.16,1.23,1.4,1.33c0.03,0.01,0.07,0.01,0.1,0c0.25-0.1,1.23-0.56,1.4-1.33
				c0.09-0.33,0.13-0.66,0.13-1v-1.29c0-0.05-0.03-0.1-0.08-0.12C138.48,183.15,137.97,183.05,137.45,183.06L137.45,183.06z"/>
			<path class="st15" d="M138.17,184.57h-0.32c-0.05-0.01-0.09-0.04-0.11-0.08l-0.15-0.29c-0.03-0.07-0.11-0.11-0.18-0.08
				c-0.04,0.01-0.06,0.04-0.08,0.08l-0.14,0.29c-0.03,0.04-0.07,0.07-0.11,0.08h-0.33c-0.08,0.02-0.13,0.1-0.12,0.18
				c0.01,0.03,0.02,0.05,0.04,0.07l0.23,0.23c0.02,0.04,0.02,0.09,0,0.13l-0.06,0.32c-0.02,0.08,0.03,0.15,0.11,0.17
				c0.04,0.01,0.07,0,0.1-0.02l0.29-0.15c0.04-0.02,0.1-0.02,0.14,0l0.29,0.15c0.07,0.04,0.15,0.02,0.19-0.05
				c0.02-0.03,0.03-0.07,0.02-0.1l-0.05-0.32c-0.03-0.04-0.03-0.09,0-0.13l0.23-0.23c0.07-0.04,0.09-0.14,0.05-0.21
				C138.2,184.6,138.19,184.58,138.17,184.57z"/>
		</g>
	</g>
</g>
<path class="st0" d="M21.81,30L21.81,30L21.81,30v7.13l0,0l0,0c-1.22,0-2.2-0.98-2.2-2.2l0,0v-2.75c0-1.22,0.98-2.2,2.2-2.2l0,0V30z
	"/>
<path class="st0" d="M21.81,43.71L21.81,43.71L21.81,43.71v13.73l0,0l0,0c-1.22,0-2.2-0.98-2.2-2.2l0,0v-9.33
	C19.61,44.69,20.59,43.71,21.81,43.71L21.81,43.71z"/>
<path class="st0" d="M113.19,48.11L113.19,48.11c1.22,0,2.2,0.98,2.2,2.2v17.56c0,1.22-0.98,2.2-2.2,2.2l0,0l0,0v-22V48.11z"/>
<path class="st0" d="M21.81,61L21.81,61L21.81,61v13.73l0,0l0,0c-1.22,0-2.2-0.98-2.2-2.2V63.2C19.61,61.98,20.59,61,21.81,61
	L21.81,61z"/>
<path class="st0" d="M100.3,4H34.7c-7.86,0-14.24,6.36-14.26,14.22v163.56c-0.01,7.88,6.37,14.26,14.25,14.27h0.01h65.6
	c7.88,0,14.26-6.38,14.26-14.26v-0.01V18.22C114.54,10.36,108.16,4,100.3,4z M110.45,181.83c-0.01,5.6-4.55,10.14-10.15,10.15H34.7
	c-5.6-0.01-10.14-4.55-10.15-10.15V18.22c0.01-5.6,4.55-10.14,10.15-10.15h65.6c5.6,0.01,10.14,4.55,10.15,10.15
	C110.45,18.22,110.45,181.83,110.45,181.83z"/>
<path d="M111.55,16.93v166.13c0,5.5-4.46,9.96-9.96,9.96H33.42c-5.5,0-9.96-4.46-9.96-9.96V16.93c0-5.5,4.46-9.96,9.96-9.96h68.17
	C107.09,6.97,111.55,11.43,111.55,16.93z"/>
<path class="st1" d="M34.7,190.83c-5-0.01-9.04-4.05-9.05-9.05V18.22c0.03-4.98,4.07-8.99,9.05-9h8.45c0.88-0.01,1.61,0.7,1.64,1.58
	v1c0.05,2.23,1.88,4.01,4.11,4h37.16c2.23,0.01,4.06-1.77,4.11-4v-1c0.03-0.88,0.76-1.59,1.64-1.58h8.45c4.96,0.03,8.97,4.04,9,9
	v163.56c-0.01,4.98-4.02,9.02-9,9.05H34.7z"/>
<circle class="st0" cx="77.93" cy="11.91" r="1.65"/>
<path class="st0" d="M72.44,12.74h-9.88c-0.45-0.01-0.82-0.38-0.82-0.83l0,0c0-0.45,0.37-0.82,0.82-0.82h9.88
	c0.45,0,0.82,0.37,0.82,0.82l0,0C73.26,12.36,72.89,12.73,72.44,12.74z"/>
<g>
	<g>
		<defs>
			<path id="SVGID_3_" d="M34.7,190.83c-5-0.01-9.04-4.05-9.05-9.05V18.22c0.03-4.98,4.07-8.99,9.05-9h8.45
				c0.88-0.01,1.61,0.7,1.64,1.58v1c0.05,2.23,1.88,4.01,4.11,4h37.16c2.23,0.01,4.06-1.77,4.11-4v-1c0.03-0.88,0.76-1.59,1.64-1.58
				h8.45c4.96,0.03,8.97,4.04,9,9v163.56c-0.01,4.98-4.02,9.02-9,9.05H34.7z"/>
		</defs>
		<clipPath id="SVGID_4_">
			<use xlink:href="#SVGID_3_"  style="overflow:visible;"/>
		</clipPath>
		<g class="st16">
			<rect x="25.68" y="113.42" class="st7" width="83.55" height="15.37"/>
			<text transform="matrix(1 0 0 1 28.35 123.04)" class="st4 st8 st9">Starting Price</text>
			<rect x="25.68" y="113.19" class="st3" width="83.55" height="0.22"/>
			<path class="st4" d="M104.05,122.55c-0.06,0-0.11-0.02-0.16-0.06l-2-2c-0.08-0.09-0.07-0.23,0.03-0.31c0.08-0.07,0.2-0.07,0.28,0
				l1.85,1.84l1.85-1.84c0.08-0.09,0.22-0.1,0.31-0.03c0.09,0.08,0.1,0.22,0.03,0.31c-0.01,0.01-0.02,0.02-0.03,0.03l-2,2
				C104.17,122.53,104.11,122.55,104.05,122.55z"/>
			<rect x="25.68" y="129.01" class="st7" width="83.55" height="15.37"/>
			<text transform="matrix(1 0 0 1 28.35 138.64)" class="st4 st8 st9">Ideal User</text>
			<rect x="25.68" y="128.79" class="st3" width="83.55" height="0.22"/>
			<path class="st4" d="M104.05,138.15c-0.06,0-0.12-0.03-0.16-0.07l-2-2c-0.09-0.08-0.09-0.22-0.01-0.31l0.01-0.01
				c0.09-0.08,0.22-0.08,0.31,0l1.85,1.85l1.85-1.85c0.09-0.08,0.22-0.08,0.31,0s0.09,0.22,0.01,0.31l-0.01,0.01l-2,2
				C104.17,138.13,104.11,138.15,104.05,138.15z"/>
			<rect x="25.68" y="144.61" class="st7" width="83.55" height="15.37"/>
			<text transform="matrix(1 0 0 1 28.35 154.24)" class="st4 st8 st9">Screenshots</text>
			<rect x="25.68" y="144.39" class="st3" width="83.55" height="0.22"/>
			<path class="st4" d="M104.05,153.75c-0.06-0.01-0.12-0.03-0.16-0.07l-2-2c-0.09-0.08-0.09-0.22-0.01-0.31l0.01-0.01
				c0.08-0.09,0.21-0.09,0.3-0.01l0.01,0.01l1.85,1.85l1.85-1.85c0.08-0.09,0.21-0.09,0.3-0.01l0.01,0.01
				c0.09,0.08,0.09,0.22,0.01,0.31l-0.01,0.01l-2,2C104.17,153.72,104.11,153.75,104.05,153.75z"/>
			<rect x="25.68" y="160.21" class="st7" width="83.55" height="15.37"/>
			<text transform="matrix(1 0 0 1 28.35 169.83)" class="st4 st8 st9">Features</text>
			<rect x="25.68" y="159.99" class="st3" width="83.55" height="0.22"/>
			<path class="st4" d="M104.05,169.34c-0.06,0-0.11-0.02-0.16-0.06l-2-2c-0.08-0.09-0.07-0.23,0.03-0.31c0.08-0.07,0.2-0.07,0.28,0
				l1.85,1.85l1.85-1.82c0.08-0.09,0.22-0.1,0.31-0.03s0.1,0.22,0.03,0.31c-0.01,0.01-0.02,0.02-0.03,0.03l-2,2
				C104.16,169.34,104.11,169.35,104.05,169.34z"/>
			<rect x="25.68" y="175.8" class="st7" width="83.55" height="15.37"/>
			<text transform="matrix(1 0 0 1 28.35 185.43)" class="st4 st8 st9">Reviews</text>
			<rect x="25.68" y="175.58" class="st3" width="83.55" height="0.22"/>
			<path class="st4" d="M104.05,184.94c-0.06,0-0.12-0.03-0.16-0.07l-2-2c-0.09-0.08-0.09-0.22-0.01-0.31l0.01-0.01
				c0.09-0.08,0.22-0.08,0.31,0l1.85,1.85l1.85-1.85c0.09-0.08,0.22-0.08,0.31,0s0.09,0.22,0.01,0.31l-0.01,0.01l-2,2
				C104.17,184.92,104.11,184.94,104.05,184.94z"/>
			<rect x="25.68" y="191.4" class="st7" width="83.55" height="15.37"/>
			<text transform="matrix(1 0 0 1 28.35 201.03)" class="st4 st8 st9">Awards</text>
			<rect x="25.68" y="191.18" class="st3" width="83.55" height="0.22"/>
			<path class="st4" d="M104.05,200.54c-0.06,0-0.12-0.03-0.16-0.07l-2-2c-0.09-0.08-0.09-0.22-0.01-0.31l0.01-0.01
				c0.08-0.09,0.21-0.09,0.3-0.01l0.01,0.01l1.85,1.85l1.85-1.85c0.08-0.09,0.21-0.09,0.3-0.01l0.01,0.01
				c0.09,0.08,0.09,0.22,0.01,0.31l-0.01,0.01l-2,2C104.17,200.52,104.11,200.54,104.05,200.54z"/>
			<text transform="matrix(1 0 0 1 46.18 46.53)" class="st4 st8 st9">QuickBooks Enterprise</text>
			<text transform="matrix(1 0 0 1 46.18 53.88)" class="st17 st5 st18">by Intuit</text>
			<path class="st19" d="M33.25,58.3h68.41c2.71,0,4.9,2.19,4.9,4.9l0,0c0,2.71-2.19,4.9-4.9,4.9H33.25c-2.71,0-4.9-2.19-4.9-4.9
				l0,0C28.35,60.49,30.54,58.3,33.25,58.3z"/>
			<text transform="matrix(1 0 0 1 51.27 65.02)" class="st1 st8 st18">VISIT WEBSITE</text>
			<rect x="28.47" y="73.39" class="st3" width="77.98" height="0.11"/>
			<g id="Logo_1">
				<g>
					<g>
						<defs>
							<rect id="SVGID_5_" x="30.02" y="41.37" width="13.37" height="13.37"/>
						</defs>
						<clipPath id="SVGID_6_">
							<use xlink:href="#SVGID_5_"  style="overflow:visible;"/>
						</clipPath>
						<g class="st20">
							<rect x="30.02" y="41.37" class="st7" width="13.37" height="13.37"/>
							<polygon class="st21" points="36.08,51.69 33.77,54.73 38.39,54.73 43.01,54.73 40.7,51.69 38.39,48.65 							"/>
							<polygon class="st22" points="31.9,52.34 30.08,54.73 33.72,54.73 37.36,54.73 35.54,52.34 33.72,49.94 							"/>
							<g>
								<g>
									<defs>
										<rect id="SVGID_7_" x="30.02" y="41.37" width="13.37" height="13.37"/>
									</defs>
									<clipPath id="SVGID_8_">
										<use xlink:href="#SVGID_7_"  style="overflow:visible;"/>
									</clipPath>
									<g class="st23">
										<path class="st12" d="M36.17,45.28c0.01,1.05-0.85,1.91-1.9,1.92c-1.05,0.01-1.91-0.85-1.92-1.9
											c-0.01-1.05,0.85-1.91,1.9-1.92h0.01C35.31,43.38,36.16,44.23,36.17,45.28"/>
									</g>
								</g>
							</g>
						</g>
					</g>
				</g>
			</g>
			<path class="st3" d="M43.51,54.85h-13.6v-13.6h13.6V54.85z M30.14,54.62h13.14V41.48H30.14V54.62z"/>
			<circle class="st4" cx="30.92" cy="42.26" r="2.67"/>
			<path class="st1" d="M32.3,43.3c0.1,0.09,0.1,0.24,0.01,0.34l-0.01,0.01c-0.05,0.04-0.11,0.07-0.17,0.07
				c-0.06,0-0.12-0.03-0.17-0.07l-1-1l-1.05,1c-0.05,0.04-0.11,0.07-0.17,0.07s-0.12-0.03-0.17-0.07c-0.1-0.09-0.1-0.24-0.01-0.34
				l0.01-0.01l1-1l-1-1c-0.1-0.09-0.1-0.24-0.01-0.34l0.01-0.01c0.1-0.09,0.24-0.09,0.34,0L30.96,42l1-1.05
				c0.1-0.09,0.24-0.09,0.34,0s0.1,0.24,0.01,0.34L32.3,41.3l-1,1L32.3,43.3z"/>
			<text transform="matrix(1 0 0 1 46.18 86.08)" class="st4 st8 st9">NetSuite</text>
			<text transform="matrix(1 0 0 1 46.18 93.43)" class="st17 st5 st18">by NetSuite</text>
			<path class="st19" d="M33.25,97.85h68.41c2.71,0,4.9,2.19,4.9,4.9l0,0c0,2.71-2.19,4.9-4.9,4.9H33.25c-2.71,0-4.9-2.19-4.9-4.9
				l0,0C28.35,100.04,30.54,97.85,33.25,97.85z"/>
			<text transform="matrix(1 0 0 1 51.27 104.57)" class="st1 st8 st18">VISIT WEBSITE</text>
			<g id="Logo_1-2">
				<g>
					<g>
						<defs>
							<rect id="SVGID_9_" x="30.02" y="80.91" width="13.37" height="13.37"/>
						</defs>
						<clipPath id="SVGID_10_">
							<use xlink:href="#SVGID_9_"  style="overflow:visible;"/>
						</clipPath>
						<g class="st24">
							<rect x="30.02" y="80.91" class="st7" width="13.37" height="13.37"/>
							<polygon class="st21" points="36.08,91.24 33.77,94.28 38.39,94.28 43.01,94.28 40.7,91.24 38.39,88.2 							"/>
							<polygon class="st22" points="31.9,91.89 30.08,94.28 33.72,94.28 37.36,94.28 35.54,91.89 33.72,89.49 							"/>
							<g>
								<g>
									<defs>
										<rect id="SVGID_11_" x="30.02" y="80.91" width="13.37" height="13.37"/>
									</defs>
									<clipPath id="SVGID_12_">
										<use xlink:href="#SVGID_11_"  style="overflow:visible;"/>
									</clipPath>
									<g class="st25">
										<path class="st12" d="M36.17,84.83c0.01,1.05-0.85,1.91-1.9,1.92c-1.05,0.01-1.91-0.85-1.92-1.9s0.85-1.91,1.9-1.92h0.01
											C35.31,82.93,36.16,83.78,36.17,84.83"/>
									</g>
								</g>
							</g>
						</g>
					</g>
				</g>
			</g>
			<path class="st3" d="M43.51,94.39h-13.6V80.8h13.6V94.39z M30.14,94.17h13.14V81H30.14V94.17z"/>
			<circle class="st4" cx="30.92" cy="81.81" r="2.67"/>
			<path class="st1" d="M32.3,82.85c0.1,0.09,0.1,0.24,0.01,0.34L32.3,83.2c-0.05,0.04-0.11,0.07-0.17,0.07
				c-0.05-0.01-0.09-0.04-0.13-0.07l-1-1l-1.05,1c-0.05,0.04-0.11,0.07-0.17,0.07s-0.12-0.03-0.17-0.07
				c-0.1-0.09-0.1-0.24-0.01-0.34l0.01-0.01l1-1l-1-1c-0.09-0.09-0.1-0.23-0.02-0.32c0-0.01,0.01-0.01,0.02-0.02
				c0.1-0.09,0.24-0.09,0.34,0l1.05,1l1-1c0.1-0.09,0.24-0.09,0.34,0c0.09,0.09,0.1,0.23,0.02,0.32c0,0.01-0.01,0.01-0.02,0.02l-1,1
				L32.3,82.85z"/>
			<rect x="25.74" y="18.47" class="st7" width="83.55" height="15.37"/>
			<text transform="matrix(1 0 0 1 28.41 28.1)" class="st4 st8 st9">Compared Products</text>
			<rect x="25.74" y="18.25" class="st3" width="83.55" height="0.22"/>
			<path class="st4" d="M106.11,27.61c-0.06,0-0.11-0.02-0.15-0.07l-1.85-1.84l-1.85,1.84c-0.08,0.09-0.22,0.09-0.31,0.01
				l-0.01-0.01c-0.08-0.09-0.08-0.22,0-0.31l2-2c0.09-0.08,0.23-0.08,0.32,0l2,2c0.09,0.08,0.09,0.21,0.01,0.3l-0.01,0.01
				C106.22,27.58,106.17,27.61,106.11,27.61z"/>
			<rect x="25.74" y="33.85" class="st3" width="83.55" height="0.22"/>
			<rect x="25.68" y="-30.95" class="st26" width="83.55" height="49.32"/>
			<text transform="matrix(1 0 0 1 47.57 2.74)" class="st1 st8 st9">FINANCIAL FORCE</text>
			<text transform="matrix(1 0 0 1 48.81 10.88)" class="st1 st8 st9">ACCOUNTING</text>
			<text transform="matrix(1 0 0 1 40.84 2.26)" class="st27 st5 st28">vs</text>
			<path class="st27" d="M42.15,4L42.15,4C42,3.99,41.85,3.96,41.7,3.92c-0.06-0.03-0.08-0.09-0.05-0.15
				c0.02-0.04,0.06-0.07,0.1-0.06c0.14,0.03,0.28,0.06,0.42,0.07c0.06,0.01,0.11,0.06,0.1,0.12l0,0C42.26,3.96,42.21,4.01,42.15,4
				L42.15,4z M42.59,4c-0.06,0-0.1-0.05-0.11-0.1c0-0.07,0-0.12,0.1-0.12L43,3.71c0.06-0.02,0.12,0,0.14,0.06s0,0.12-0.06,0.14
				c-0.01,0-0.02,0.01-0.03,0.01C42.91,3.96,42.76,3.99,42.59,4L42.59,4z M41.3,3.78L41.3,3.78c-0.14-0.06-0.27-0.13-0.4-0.21
				c-0.04-0.04-0.05-0.11,0-0.16l0,0c0.04-0.04,0.11-0.04,0.15,0c0.12,0.08,0.24,0.14,0.37,0.2c0.06,0.03,0.08,0.09,0.06,0.15
				c-0.03,0.05-0.1,0.07-0.15,0.04C41.32,3.8,41.31,3.79,41.3,3.78z M43.44,3.78c-0.04,0-0.08-0.02-0.1-0.06
				c-0.03-0.05,0-0.12,0.05-0.15h0.01c0.13-0.06,0.25-0.13,0.37-0.2c0.04-0.04,0.11-0.05,0.16,0l0,0c0.04,0.04,0.05,0.1,0.01,0.14
				l-0.01,0.01c-0.12,0.09-0.26,0.16-0.4,0.22L43.44,3.78z M40.56,3.3c-0.02,0.01-0.05,0.01-0.07,0c-0.12-0.1-0.22-0.21-0.32-0.33
				c-0.04-0.05-0.04-0.11,0-0.16c0.04-0.04,0.11-0.05,0.16,0l0,0c0.09,0.11,0.19,0.21,0.29,0.31c0.04,0.05,0.04,0.11,0,0.16
				C40.6,3.29,40.58,3.3,40.56,3.3z M44.18,3.3c-0.03,0.01-0.05,0.01-0.08,0c-0.04-0.04-0.04-0.11,0-0.15
				c0.11-0.09,0.2-0.2,0.29-0.31c0.04-0.04,0.11-0.05,0.16,0l0,0c0.04,0.04,0.05,0.1,0.01,0.14l-0.01,0.01
				c-0.1,0.12-0.2,0.23-0.31,0.34C44.22,3.33,44.2,3.32,44.18,3.3z M40,2.61c-0.04,0-0.08-0.02-0.1-0.06
				c-0.07-0.13-0.13-0.28-0.18-0.42C39.71,2.07,39.74,2.01,39.8,2c0.06-0.02,0.13,0.01,0.15,0.07c0.04,0.14,0.1,0.27,0.17,0.39
				c0.04,0.04,0.04,0.11,0,0.15L40,2.61z M44.7,2.61L44.7,2.61c-0.05-0.03-0.08-0.09-0.05-0.15l0,0c0.07-0.12,0.13-0.25,0.17-0.39
				C44.84,2.03,44.88,2,44.93,2c0.06,0.02,0.09,0.09,0.07,0.15c-0.05,0.14-0.11,0.28-0.18,0.42c-0.03,0.03-0.06,0.04-0.1,0.04
				C44.72,2.61,44.7,2.61,44.7,2.61z M39.7,1.78c-0.05,0-0.1-0.04-0.11-0.09c-0.01-0.15-0.01-0.31,0-0.46
				c0-0.06,0.05-0.11,0.11-0.11l0,0l0,0c0.06,0,0.11,0.05,0.11,0.11l0,0c-0.01,0.14-0.01,0.28,0,0.42c0.01,0.06-0.03,0.12-0.09,0.13
				l0,0L39.7,1.78z M44.98,1.78L44.98,1.78c-0.06-0.01-0.1-0.07-0.09-0.13l0,0c0.01-0.14,0.01-0.28,0-0.42
				c-0.01-0.06,0.04-0.11,0.1-0.12H45c0.05-0.01,0.1,0.03,0.11,0.09v0.01l0,0c0.01,0.15,0.01,0.31,0,0.46
				c-0.01,0.05-0.05,0.1-0.11,0.1L44.98,1.78z M39.73,0.9L39.73,0.9c-0.06-0.01-0.1-0.07-0.09-0.13l0,0
				c0.02-0.15,0.06-0.3,0.11-0.45c0.03-0.05,0.08-0.08,0.14-0.07c0.06,0.02,0.09,0.09,0.07,0.15c-0.04,0.13-0.08,0.27-0.1,0.41
				C39.85,0.87,39.79,0.91,39.73,0.9z M45,0.88c-0.05,0-0.1-0.04-0.11-0.09c-0.02-0.14-0.05-0.28-0.1-0.41
				c-0.02-0.06,0.01-0.12,0.07-0.14S44.98,0.25,45,0.31c0.05,0.14,0.09,0.29,0.11,0.44c0.01,0.06-0.03,0.12-0.09,0.13
				C45.01,0.88,45.01,0.88,45,0.88z M40,0.07L40,0.07c-0.04-0.04-0.04-0.11,0-0.15c0.07-0.13,0.15-0.26,0.25-0.38
				c0.04-0.04,0.1-0.05,0.14-0.01l0.01,0.01c0.04,0.04,0.05,0.1,0.01,0.14L40.4-0.31c-0.08,0.12-0.16,0.23-0.23,0.36
				c-0.03,0.05-0.1,0.07-0.15,0.03C40.01,0.08,40.01,0.08,40,0.07z M44.71,0.07c-0.04,0-0.08-0.02-0.1-0.06
				c-0.07-0.12-0.15-0.24-0.23-0.35c-0.04-0.05-0.04-0.11,0-0.16c0.05-0.04,0.11-0.04,0.16,0c0.09,0.12,0.18,0.25,0.25,0.39
				c0.04,0.04,0.04,0.11,0,0.15L44.71,0.07z M40.55-0.63c-0.03,0.01-0.05,0.01-0.08,0c-0.04-0.04-0.05-0.11,0-0.16l0,0
				c0.11-0.11,0.23-0.2,0.36-0.29c0.04-0.04,0.1-0.05,0.14-0.01l0.01,0.01c0.04,0.04,0.05,0.1,0.01,0.14l-0.01,0.01
				c-0.12,0.08-0.23,0.17-0.33,0.26C40.63-0.64,40.59-0.62,40.55-0.63z M44.17-0.63c-0.02,0.01-0.05,0.01-0.07,0
				c-0.11-0.09-0.22-0.18-0.34-0.26c-0.04-0.04-0.04-0.11,0-0.15s0.1-0.05,0.14-0.01l0.01,0.01c0.13,0.08,0.26,0.17,0.37,0.28
				c0.04,0.04,0.05,0.1,0.01,0.14l-0.01,0.01C44.24-0.59,44.19-0.61,44.17-0.63L44.17-0.63z M41.29-1.1c-0.05,0-0.09-0.03-0.1-0.07
				c-0.02-0.06,0-0.12,0.05-0.15c0.14-0.06,0.29-0.11,0.44-0.15c0.06-0.01,0.12,0.02,0.13,0.08c0.02,0.06-0.01,0.12-0.07,0.14h-0.01
				c-0.14,0.03-0.27,0.08-0.4,0.14L41.29-1.1z M43.43-1.1L43.43-1.1c-0.13-0.05-0.26-0.1-0.4-0.13c-0.06-0.01-0.1-0.07-0.08-0.13
				v-0.01C42.94-1.41,42.96-1.46,43-1.48c0.15,0.04,0.3,0.09,0.44,0.15c0.05,0.02,0.08,0.08,0.06,0.14
				c-0.01,0.03-0.04,0.06-0.07,0.07V-1.1z M42.14-1.31c-0.05,0.01-0.1-0.03-0.11-0.09v-0.01c-0.01-0.06,0.04-0.11,0.1-0.12l0,0
				c0.15-0.02,0.31-0.02,0.46,0c0.06,0,0.1,0.04,0.1,0.1c0,0.01,0,0.01,0,0.02c-0.01,0.06-0.06,0.11-0.12,0.1l0,0
				C42.43-1.32,42.29-1.32,42.14-1.31L42.14-1.31z"/>
		</g>
	</g>
</g>
<path class="st0" d="M236.81,30L236.81,30L236.81,30v7.13l0,0l0,0c-1.22,0-2.2-0.98-2.2-2.2v-2.75c0-1.22,0.98-2.2,2.2-2.2V30z"/>
<path class="st0" d="M236.81,43.71L236.81,43.71L236.81,43.71v13.73l0,0l0,0c-1.22,0-2.2-0.98-2.2-2.2v-9.33
	C234.61,44.69,235.59,43.71,236.81,43.71z"/>
<path class="st0" d="M328.19,48.11L328.19,48.11c1.22,0,2.2,0.98,2.2,2.2l0,0v17.56c0,1.22-0.98,2.2-2.2,2.2l0,0l0,0l0,0v-22V48.11z
	"/>
<path class="st0" d="M236.81,61L236.81,61L236.81,61v13.73l0,0l0,0c-1.22,0-2.2-0.98-2.2-2.2V63.2C234.61,61.98,235.59,61,236.81,61
	z"/>
<path class="st0" d="M315.3,4h-65.6c-7.88,0-14.26,6.38-14.26,14.26v0.01v163.51c-0.01,7.88,6.37,14.26,14.25,14.27h0.01h65.6
	c7.88,0,14.26-6.38,14.26-14.26v-0.01V18.22C329.54,10.36,323.16,4,315.3,4z M325.45,181.83c-0.01,5.6-4.55,10.14-10.15,10.15h-65.6
	c-5.6-0.01-10.14-4.55-10.15-10.15V18.22c0.01-5.6,4.55-10.14,10.15-10.15h65.6c5.6,0.01,10.14,4.55,10.15,10.15V181.83z"/>
<path d="M326.55,16.93v166.13c0,5.5-4.46,9.96-9.96,9.96h-68.17c-5.5,0-9.96-4.46-9.96-9.96V16.93c0-5.5,4.46-9.96,9.96-9.96h68.17
	C322.09,6.97,326.55,11.43,326.55,16.93z"/>
<path class="st1" d="M249.7,190.83c-4.98-0.03-8.99-4.07-9-9.05V18.22c0.03-4.96,4.04-8.97,9-9h8.45c0.88-0.01,1.61,0.7,1.64,1.58v1
	c0.05,2.23,1.88,4.01,4.11,4h37.12c2.23,0.01,4.06-1.77,4.11-4v-1c0.03-0.88,0.76-1.59,1.64-1.58h8.45c4.98,0.01,9.02,4.02,9.05,9
	v163.56c-0.01,5-4.05,9.04-9.05,9.05H249.7z"/>
<circle class="st0" cx="292.93" cy="11.91" r="1.65"/>
<path class="st0" d="M287.44,12.74h-9.88c-0.45-0.01-0.82-0.38-0.82-0.83l0,0c0-0.45,0.37-0.82,0.82-0.82l0,0h9.88
	c0.45,0,0.82,0.37,0.82,0.82l0,0l0,0C288.26,12.36,287.89,12.73,287.44,12.74z"/>
<g>
	<g>
		<defs>
			<path id="SVGID_13_" d="M249.7,190.83c-4.98-0.03-8.99-4.07-9-9.05V18.22c0.03-4.96,4.04-8.97,9-9h8.45
				c0.88-0.01,1.61,0.7,1.64,1.58v1c0.05,2.23,1.88,4.01,4.11,4h37.12c2.23,0.01,4.06-1.77,4.11-4v-1c0.03-0.88,0.76-1.59,1.64-1.58
				h8.45c4.98,0.01,9.02,4.02,9.05,9v163.56c-0.01,5-4.05,9.04-9.05,9.05H249.7z"/>
		</defs>
		<clipPath id="SVGID_14_">
			<use xlink:href="#SVGID_13_"  style="overflow:visible;"/>
		</clipPath>
		<rect x="240.53" y="183.08" class="st29" width="83.78" height="91.84"/>
	</g>
	<g>
		<defs>
			<path id="SVGID_15_" d="M249.7,190.83c-4.98-0.03-8.99-4.07-9-9.05V18.22c0.03-4.96,4.04-8.97,9-9h8.45
				c0.88-0.01,1.61,0.7,1.64,1.58v1c0.05,2.23,1.88,4.01,4.11,4h37.12c2.23,0.01,4.06-1.77,4.11-4v-1c0.03-0.88,0.76-1.59,1.64-1.58
				h8.45c4.98,0.01,9.02,4.02,9.05,9v163.56c-0.01,5-4.05,9.04-9.05,9.05H249.7z"/>
		</defs>
		<clipPath id="SVGID_16_">
			<use xlink:href="#SVGID_15_"  style="overflow:visible;"/>
		</clipPath>
		<rect x="240.41" y="59.94" class="st30" width="84" height="15.46"/>
	</g>
	<g>
		<defs>
			<path id="SVGID_17_" d="M249.7,190.83c-4.98-0.03-8.99-4.07-9-9.05V18.22c0.03-4.96,4.04-8.97,9-9h8.45
				c0.88-0.01,1.61,0.7,1.64,1.58v1c0.05,2.23,1.88,4.01,4.11,4h37.12c2.23,0.01,4.06-1.77,4.11-4v-1c0.03-0.88,0.76-1.59,1.64-1.58
				h8.45c4.98,0.01,9.02,4.02,9.05,9v163.56c-0.01,5-4.05,9.04-9.05,9.05H249.7z"/>
		</defs>
		<clipPath id="SVGID_18_">
			<use xlink:href="#SVGID_17_"  style="overflow:visible;"/>
		</clipPath>
		<g class="st31">
			<text transform="matrix(1 0 0 1 243.1 69.62)" class="st4 st8 st32">Company Details</text>
		</g>
	</g>
	<g>
		<defs>
			<path id="SVGID_19_" d="M249.7,190.83c-4.98-0.03-8.99-4.07-9-9.05V18.22c0.03-4.96,4.04-8.97,9-9h8.45
				c0.88-0.01,1.61,0.7,1.64,1.58v1c0.05,2.23,1.88,4.01,4.11,4h37.12c2.23,0.01,4.06-1.77,4.11-4v-1c0.03-0.88,0.76-1.59,1.64-1.58
				h8.45c4.98,0.01,9.02,4.02,9.05,9v163.56c-0.01,5-4.05,9.04-9.05,9.05H249.7z"/>
		</defs>
		<clipPath id="SVGID_20_">
			<use xlink:href="#SVGID_19_"  style="overflow:visible;"/>
		</clipPath>
		<rect x="240.41" y="59.72" class="st33" width="84" height="0.22"/>
	</g>
	<g>
		<defs>
			<path id="SVGID_21_" d="M249.7,190.83c-4.98-0.03-8.99-4.07-9-9.05V18.22c0.03-4.96,4.04-8.97,9-9h8.45
				c0.88-0.01,1.61,0.7,1.64,1.58v1c0.05,2.23,1.88,4.01,4.11,4h37.12c2.23,0.01,4.06-1.77,4.11-4v-1c0.03-0.88,0.76-1.59,1.64-1.58
				h8.45c4.98,0.01,9.02,4.02,9.05,9v163.56c-0.01,5-4.05,9.04-9.05,9.05H249.7z"/>
		</defs>
		<clipPath id="SVGID_22_">
			<use xlink:href="#SVGID_21_"  style="overflow:visible;"/>
		</clipPath>
		<rect x="240.41" y="75.4" class="st34" width="84" height="0.22"/>
	</g>
	<g>
		<defs>
			<path id="SVGID_23_" d="M249.7,190.83c-4.98-0.03-8.99-4.07-9-9.05V18.22c0.03-4.96,4.04-8.97,9-9h8.45
				c0.88-0.01,1.61,0.7,1.64,1.58v1c0.05,2.23,1.88,4.01,4.11,4h37.12c2.23,0.01,4.06-1.77,4.11-4v-1c0.03-0.88,0.76-1.59,1.64-1.58
				h8.45c4.98,0.01,9.02,4.02,9.05,9v163.56c-0.01,5-4.05,9.04-9.05,9.05H249.7z"/>
		</defs>
		<clipPath id="SVGID_24_">
			<use xlink:href="#SVGID_23_"  style="overflow:visible;"/>
		</clipPath>
		<rect x="240.41" y="140.74" class="st35" width="84" height="0.22"/>
	</g>
	<g>
		<defs>
			<path id="SVGID_25_" d="M249.7,190.83c-4.98-0.03-8.99-4.07-9-9.05V18.22c0.03-4.96,4.04-8.97,9-9h8.45
				c0.88-0.01,1.61,0.7,1.64,1.58v1c0.05,2.23,1.88,4.01,4.11,4h37.12c2.23,0.01,4.06-1.77,4.11-4v-1c0.03-0.88,0.76-1.59,1.64-1.58
				h8.45c4.98,0.01,9.02,4.02,9.05,9v163.56c-0.01,5-4.05,9.04-9.05,9.05H249.7z"/>
		</defs>
		<clipPath id="SVGID_26_">
			<use xlink:href="#SVGID_25_"  style="overflow:visible;"/>
		</clipPath>
		<path class="st36" d="M321.22,69.13c-0.06,0-0.12-0.03-0.16-0.07l-1.86-1.86l-1.85,1.86c-0.07,0.1-0.22,0.13-0.32,0.06
			s-0.13-0.22-0.06-0.32c0.02-0.02,0.04-0.04,0.06-0.06l2-2c0.08-0.09,0.21-0.09,0.3-0.01l0.01,0.01l2,2
			c0.09,0.08,0.09,0.22,0.01,0.31l-0.01,0.01C321.31,69.09,321.27,69.12,321.22,69.13z"/>
	</g>
	<g>
		<defs>
			<path id="SVGID_27_" d="M249.7,190.83c-4.98-0.03-8.99-4.07-9-9.05V18.22c0.03-4.96,4.04-8.97,9-9h8.45
				c0.88-0.01,1.61,0.7,1.64,1.58v1c0.05,2.23,1.88,4.01,4.11,4h37.12c2.23,0.01,4.06-1.77,4.11-4v-1c0.03-0.88,0.76-1.59,1.64-1.58
				h8.45c4.98,0.01,9.02,4.02,9.05,9v163.56c-0.01,5-4.05,9.04-9.05,9.05H249.7z"/>
		</defs>
		<clipPath id="SVGID_28_">
			<use xlink:href="#SVGID_27_"  style="overflow:visible;"/>
		</clipPath>
		<path class="st37" d="M245.12,131.17c-1.1,0-2,0.9-2,2s0.9,2,2,2s2-0.9,2-2S246.22,131.17,245.12,131.17z M245.12,134.8
			c-0.89,0.01-1.62-0.72-1.63-1.61s0.72-1.62,1.61-1.63s1.62,0.72,1.63,1.61v0.01C246.73,134.07,246.01,134.79,245.12,134.8z
			 M245.07,132.18L245.07,132.18c-0.08,0-0.14,0.06-0.14,0.14v1c0,0.07,0.03,0.14,0.09,0.18l0.84,0.5c0.06,0.06,0.15,0.06,0.21,0
			c0.06-0.06,0.06-0.15,0-0.21c-0.02-0.02-0.04-0.03-0.06-0.04l-0.78-0.46v-0.92c0.02-0.08-0.02-0.16-0.1-0.19
			C245.11,132.18,245.09,132.18,245.07,132.18L245.07,132.18z"/>
	</g>
	<g>
		<defs>
			<path id="SVGID_29_" d="M249.7,190.83c-4.98-0.03-8.99-4.07-9-9.05V18.22c0.03-4.96,4.04-8.97,9-9h8.45
				c0.88-0.01,1.61,0.7,1.64,1.58v1c0.05,2.23,1.88,4.01,4.11,4h37.12c2.23,0.01,4.06-1.77,4.11-4v-1c0.03-0.88,0.76-1.59,1.64-1.58
				h8.45c4.98,0.01,9.02,4.02,9.05,9v163.56c-0.01,5-4.05,9.04-9.05,9.05H249.7z"/>
		</defs>
		<clipPath id="SVGID_30_">
			<use xlink:href="#SVGID_29_"  style="overflow:visible;"/>
		</clipPath>
		<rect x="243.1" y="104.57" class="st38" width="78.4" height="0.11"/>
	</g>
	<g>
		<defs>
			<path id="SVGID_31_" d="M249.7,190.83c-4.98-0.03-8.99-4.07-9-9.05V18.22c0.03-4.96,4.04-8.97,9-9h8.45
				c0.88-0.01,1.61,0.7,1.64,1.58v1c0.05,2.23,1.88,4.01,4.11,4h37.12c2.23,0.01,4.06-1.77,4.11-4v-1c0.03-0.88,0.76-1.59,1.64-1.58
				h8.45c4.98,0.01,9.02,4.02,9.05,9v163.56c-0.01,5-4.05,9.04-9.05,9.05H249.7z"/>
		</defs>
		<clipPath id="SVGID_32_">
			<use xlink:href="#SVGID_31_"  style="overflow:visible;"/>
		</clipPath>
		<g class="st39">
			<text transform="matrix(1 0 0 1 243.1 84.39)" class="st10 st8 st40">QuickBooks Enterprise</text>
		</g>
	</g>
	<g>
		<defs>
			<path id="SVGID_33_" d="M249.7,190.83c-4.98-0.03-8.99-4.07-9-9.05V18.22c0.03-4.96,4.04-8.97,9-9h8.45
				c0.88-0.01,1.61,0.7,1.64,1.58v1c0.05,2.23,1.88,4.01,4.11,4h37.12c2.23,0.01,4.06-1.77,4.11-4v-1c0.03-0.88,0.76-1.59,1.64-1.58
				h8.45c4.98,0.01,9.02,4.02,9.05,9v163.56c-0.01,5-4.05,9.04-9.05,9.05H249.7z"/>
		</defs>
		<clipPath id="SVGID_34_">
			<use xlink:href="#SVGID_33_"  style="overflow:visible;"/>
		</clipPath>
		<g class="st41">
			<text transform="matrix(1 0 0 1 243.1 91.56)" class="st17 st5 st40">by Intuit</text>
		</g>
	</g>
	<g>
		<defs>
			<path id="SVGID_35_" d="M249.7,190.83c-4.98-0.03-8.99-4.07-9-9.05V18.22c0.03-4.96,4.04-8.97,9-9h8.45
				c0.88-0.01,1.61,0.7,1.64,1.58v1c0.05,2.23,1.88,4.01,4.11,4h37.12c2.23,0.01,4.06-1.77,4.11-4v-1c0.03-0.88,0.76-1.59,1.64-1.58
				h8.45c4.98,0.01,9.02,4.02,9.05,9v163.56c-0.01,5-4.05,9.04-9.05,9.05H249.7z"/>
		</defs>
		<clipPath id="SVGID_36_">
			<use xlink:href="#SVGID_35_"  style="overflow:visible;"/>
		</clipPath>
		<g class="st42">
			<text transform="matrix(1 0 0 1 249.93 98.73)" class="st10 st5 st40">United States</text>
		</g>
	</g>
	<g>
		<defs>
			<path id="SVGID_37_" d="M249.7,190.83c-4.98-0.03-8.99-4.07-9-9.05V18.22c0.03-4.96,4.04-8.97,9-9h8.45
				c0.88-0.01,1.61,0.7,1.64,1.58v1c0.05,2.23,1.88,4.01,4.11,4h37.12c2.23,0.01,4.06-1.77,4.11-4v-1c0.03-0.88,0.76-1.59,1.64-1.58
				h8.45c4.98,0.01,9.02,4.02,9.05,9v163.56c-0.01,5-4.05,9.04-9.05,9.05H249.7z"/>
		</defs>
		<clipPath id="SVGID_38_">
			<use xlink:href="#SVGID_37_"  style="overflow:visible;"/>
		</clipPath>
		<path class="st43" d="M245.12,124.08c-0.86-0.01-1.56,0.69-1.57,1.55v0.01c0.2,1.02,0.69,1.96,1.4,2.72
			c0.09,0.09,0.23,0.1,0.32,0.02c0.01,0,0.01-0.01,0.02-0.02c0.71-0.76,1.2-1.7,1.4-2.72C246.68,124.78,245.98,124.08,245.12,124.08
			z M245.12,126.2c-0.31,0-0.56-0.25-0.56-0.56s0.25-0.56,0.56-0.56s0.56,0.25,0.56,0.56l0,0
			C245.68,125.95,245.43,126.2,245.12,126.2z"/>
	</g>
	<g>
		<defs>
			<path id="SVGID_39_" d="M249.7,190.83c-4.98-0.03-8.99-4.07-9-9.05V18.22c0.03-4.96,4.04-8.97,9-9h8.45
				c0.88-0.01,1.61,0.7,1.64,1.58v1c0.05,2.23,1.88,4.01,4.11,4h37.12c2.23,0.01,4.06-1.77,4.11-4v-1c0.03-0.88,0.76-1.59,1.64-1.58
				h8.45c4.98,0.01,9.02,4.02,9.05,9v163.56c-0.01,5-4.05,9.04-9.05,9.05H249.7z"/>
		</defs>
		<clipPath id="SVGID_40_">
			<use xlink:href="#SVGID_39_"  style="overflow:visible;"/>
		</clipPath>
		<path class="st44" d="M245.12,95.18c-0.87,0-1.57,0.7-1.57,1.57l0,0c0.21,1.02,0.69,1.95,1.4,2.71c0.08,0.09,0.22,0.11,0.31,0.03
			c0.01-0.01,0.02-0.02,0.03-0.03c0.71-0.76,1.19-1.69,1.4-2.71C246.69,95.88,245.99,95.18,245.12,95.18z M245.12,97.31
			c-0.31,0-0.56-0.25-0.56-0.56s0.25-0.56,0.56-0.56s0.56,0.25,0.56,0.56l0,0C245.68,97.06,245.43,97.31,245.12,97.31z"/>
	</g>
	<g>
		<defs>
			<path id="SVGID_41_" d="M249.7,190.83c-4.98-0.03-8.99-4.07-9-9.05V18.22c0.03-4.96,4.04-8.97,9-9h8.45
				c0.88-0.01,1.61,0.7,1.64,1.58v1c0.05,2.23,1.88,4.01,4.11,4h37.12c2.23,0.01,4.06-1.77,4.11-4v-1c0.03-0.88,0.76-1.59,1.64-1.58
				h8.45c4.98,0.01,9.02,4.02,9.05,9v163.56c-0.01,5-4.05,9.04-9.05,9.05H249.7z"/>
		</defs>
		<clipPath id="SVGID_42_">
			<use xlink:href="#SVGID_41_"  style="overflow:visible;"/>
		</clipPath>
		<g class="st45">
			<text transform="matrix(1 0 0 1 243.1 113.51)" class="st10 st8 st40">NetSuite</text>
		</g>
	</g>
	<g>
		<defs>
			<path id="SVGID_43_" d="M249.7,190.83c-4.98-0.03-8.99-4.07-9-9.05V18.22c0.03-4.96,4.04-8.97,9-9h8.45
				c0.88-0.01,1.61,0.7,1.64,1.58v1c0.05,2.23,1.88,4.01,4.11,4h37.12c2.23,0.01,4.06-1.77,4.11-4v-1c0.03-0.88,0.76-1.59,1.64-1.58
				h8.45c4.98,0.01,9.02,4.02,9.05,9v163.56c-0.01,5-4.05,9.04-9.05,9.05H249.7z"/>
		</defs>
		<clipPath id="SVGID_44_">
			<use xlink:href="#SVGID_43_"  style="overflow:visible;"/>
		</clipPath>
		<g class="st46">
			<text transform="matrix(1 0 0 1 243.1 120.68)" class="st17 st5 st40">by NetSuite</text>
		</g>
	</g>
	<g>
		<defs>
			<path id="SVGID_45_" d="M249.7,190.83c-4.98-0.03-8.99-4.07-9-9.05V18.22c0.03-4.96,4.04-8.97,9-9h8.45
				c0.88-0.01,1.61,0.7,1.64,1.58v1c0.05,2.23,1.88,4.01,4.11,4h37.12c2.23,0.01,4.06-1.77,4.11-4v-1c0.03-0.88,0.76-1.59,1.64-1.58
				h8.45c4.98,0.01,9.02,4.02,9.05,9v163.56c-0.01,5-4.05,9.04-9.05,9.05H249.7z"/>
		</defs>
		<clipPath id="SVGID_46_">
			<use xlink:href="#SVGID_45_"  style="overflow:visible;"/>
		</clipPath>
		<g class="st47">
			<text transform="matrix(1 0 0 1 249.71 127.85)" class="st10 st5 st40">United States</text>
		</g>
	</g>
	<g>
		<defs>
			<path id="SVGID_47_" d="M249.7,190.83c-4.98-0.03-8.99-4.07-9-9.05V18.22c0.03-4.96,4.04-8.97,9-9h8.45
				c0.88-0.01,1.61,0.7,1.64,1.58v1c0.05,2.23,1.88,4.01,4.11,4h37.12c2.23,0.01,4.06-1.77,4.11-4v-1c0.03-0.88,0.76-1.59,1.64-1.58
				h8.45c4.98,0.01,9.02,4.02,9.05,9v163.56c-0.01,5-4.05,9.04-9.05,9.05H249.7z"/>
		</defs>
		<clipPath id="SVGID_48_">
			<use xlink:href="#SVGID_47_"  style="overflow:visible;"/>
		</clipPath>
		<g class="st48">
			<text transform="matrix(1 0 0 1 249.71 135.24)" class="st10 st5 st40">Founded in 1998</text>
		</g>
	</g>
	<g>
		<defs>
			<path id="SVGID_49_" d="M249.7,190.83c-4.98-0.03-8.99-4.07-9-9.05V18.22c0.03-4.96,4.04-8.97,9-9h8.45
				c0.88-0.01,1.61,0.7,1.64,1.58v1c0.05,2.23,1.88,4.01,4.11,4h37.12c2.23,0.01,4.06-1.77,4.11-4v-1c0.03-0.88,0.76-1.59,1.64-1.58
				h8.45c4.98,0.01,9.02,4.02,9.05,9v163.56c-0.01,5-4.05,9.04-9.05,9.05H249.7z"/>
		</defs>
		<clipPath id="SVGID_50_">
			<use xlink:href="#SVGID_49_"  style="overflow:visible;"/>
		</clipPath>
		<path class="st49" d="M247.86,149.48h68.66c2.69,0,4.87,2.18,4.87,4.87v0.12c0,2.69-2.18,4.87-4.87,4.87h-68.66
			c-2.69,0-4.87-2.18-4.87-4.87v-0.12C242.99,151.66,245.17,149.48,247.86,149.48z"/>
	</g>
	<g>
		<defs>
			<path id="SVGID_51_" d="M249.7,190.83c-4.98-0.03-8.99-4.07-9-9.05V18.22c0.03-4.96,4.04-8.97,9-9h8.45
				c0.88-0.01,1.61,0.7,1.64,1.58v1c0.05,2.23,1.88,4.01,4.11,4h37.12c2.23,0.01,4.06-1.77,4.11-4v-1c0.03-0.88,0.76-1.59,1.64-1.58
				h8.45c4.98,0.01,9.02,4.02,9.05,9v163.56c-0.01,5-4.05,9.04-9.05,9.05H249.7z"/>
		</defs>
		<clipPath id="SVGID_52_">
			<use xlink:href="#SVGID_51_"  style="overflow:visible;"/>
		</clipPath>
		<g class="st50">
			<text transform="matrix(1 0 0 1 275.24 155.79)" class="st1 st8 st40">SHARE</text>
		</g>
	</g>
	<g>
		<defs>
			<path id="SVGID_53_" d="M249.7,190.83c-4.98-0.03-8.99-4.07-9-9.05V18.22c0.03-4.96,4.04-8.97,9-9h8.45
				c0.88-0.01,1.61,0.7,1.64,1.58v1c0.05,2.23,1.88,4.01,4.11,4h37.12c2.23,0.01,4.06-1.77,4.11-4v-1c0.03-0.88,0.76-1.59,1.64-1.58
				h8.45c4.98,0.01,9.02,4.02,9.05,9v163.56c-0.01,5-4.05,9.04-9.05,9.05H249.7z"/>
		</defs>
		<clipPath id="SVGID_54_">
			<use xlink:href="#SVGID_53_"  style="overflow:visible;"/>
		</clipPath>
		<circle class="st51" cx="248.13" cy="169.82" r="4.93"/>
	</g>
	<g>
		<defs>
			<path id="SVGID_55_" d="M249.7,190.83c-4.98-0.03-8.99-4.07-9-9.05V18.22c0.03-4.96,4.04-8.97,9-9h8.45
				c0.88-0.01,1.61,0.7,1.64,1.58v1c0.05,2.23,1.88,4.01,4.11,4h37.12c2.23,0.01,4.06-1.77,4.11-4v-1c0.03-0.88,0.76-1.59,1.64-1.58
				h8.45c4.98,0.01,9.02,4.02,9.05,9v163.56c-0.01,5-4.05,9.04-9.05,9.05H249.7z"/>
		</defs>
		<clipPath id="SVGID_56_">
			<use xlink:href="#SVGID_55_"  style="overflow:visible;"/>
		</clipPath>
		<circle class="st52" cx="265.33" cy="169.82" r="4.93"/>
	</g>
	<g>
		<defs>
			<path id="SVGID_57_" d="M249.7,190.83c-4.98-0.03-8.99-4.07-9-9.05V18.22c0.03-4.96,4.04-8.97,9-9h8.45
				c0.88-0.01,1.61,0.7,1.64,1.58v1c0.05,2.23,1.88,4.01,4.11,4h37.12c2.23,0.01,4.06-1.77,4.11-4v-1c0.03-0.88,0.76-1.59,1.64-1.58
				h8.45c4.98,0.01,9.02,4.02,9.05,9v163.56c-0.01,5-4.05,9.04-9.05,9.05H249.7z"/>
		</defs>
		<clipPath id="SVGID_58_">
			<use xlink:href="#SVGID_57_"  style="overflow:visible;"/>
		</clipPath>
		<circle class="st53" cx="282.52" cy="169.82" r="4.93"/>
	</g>
	<g>
		<defs>
			<path id="SVGID_59_" d="M249.7,190.83c-4.98-0.03-8.99-4.07-9-9.05V18.22c0.03-4.96,4.04-8.97,9-9h8.45
				c0.88-0.01,1.61,0.7,1.64,1.58v1c0.05,2.23,1.88,4.01,4.11,4h37.12c2.23,0.01,4.06-1.77,4.11-4v-1c0.03-0.88,0.76-1.59,1.64-1.58
				h8.45c4.98,0.01,9.02,4.02,9.05,9v163.56c-0.01,5-4.05,9.04-9.05,9.05H249.7z"/>
		</defs>
		<clipPath id="SVGID_60_">
			<use xlink:href="#SVGID_59_"  style="overflow:visible;"/>
		</clipPath>
		<g class="st54">
			<g>
				<defs>
					<rect id="SVGID_61_" x="280.11" y="167.41" width="4.82" height="4.82"/>
				</defs>
				<clipPath id="SVGID_62_">
					<use xlink:href="#SVGID_61_"  style="overflow:visible;"/>
				</clipPath>
				<g class="st55">
					<g>
						<defs>
							<rect id="SVGID_63_" x="280.11" y="167.41" width="4.82" height="4.82"/>
						</defs>
						<clipPath id="SVGID_64_">
							<use xlink:href="#SVGID_63_"  style="overflow:visible;"/>
						</clipPath>
						<g class="st56">
							<g>
								<defs>
									<rect id="SVGID_65_" x="282.91" y="169.08" width="0.05" height="0.05"/>
								</defs>
								<clipPath id="SVGID_66_">
									<use xlink:href="#SVGID_65_"  style="overflow:visible;"/>
								</clipPath>
							</g>
						</g>
					</g>
				</g>
			</g>
		</g>
	</g>
	<g>
		<defs>
			<path id="SVGID_67_" d="M249.7,190.83c-4.98-0.03-8.99-4.07-9-9.05V18.22c0.03-4.96,4.04-8.97,9-9h8.45
				c0.88-0.01,1.61,0.7,1.64,1.58v1c0.05,2.23,1.88,4.01,4.11,4h37.12c2.23,0.01,4.06-1.77,4.11-4v-1c0.03-0.88,0.76-1.59,1.64-1.58
				h8.45c4.98,0.01,9.02,4.02,9.05,9v163.56c-0.01,5-4.05,9.04-9.05,9.05H249.7z"/>
		</defs>
		<clipPath id="SVGID_68_">
			<use xlink:href="#SVGID_67_"  style="overflow:visible;"/>
		</clipPath>
		<circle class="st57" cx="299.71" cy="169.82" r="4.93"/>
	</g>
	<g>
		<defs>
			<path id="SVGID_69_" d="M249.7,190.83c-4.98-0.03-8.99-4.07-9-9.05V18.22c0.03-4.96,4.04-8.97,9-9h8.45
				c0.88-0.01,1.61,0.7,1.64,1.58v1c0.05,2.23,1.88,4.01,4.11,4h37.12c2.23,0.01,4.06-1.77,4.11-4v-1c0.03-0.88,0.76-1.59,1.64-1.58
				h8.45c4.98,0.01,9.02,4.02,9.05,9v163.56c-0.01,5-4.05,9.04-9.05,9.05H249.7z"/>
		</defs>
		<clipPath id="SVGID_70_">
			<use xlink:href="#SVGID_69_"  style="overflow:visible;"/>
		</clipPath>
	</g>
	<g>
		<defs>
			<path id="SVGID_71_" d="M249.7,190.83c-4.98-0.03-8.99-4.07-9-9.05V18.22c0.03-4.96,4.04-8.97,9-9h8.45
				c0.88-0.01,1.61,0.7,1.64,1.58v1c0.05,2.23,1.88,4.01,4.11,4h37.12c2.23,0.01,4.06-1.77,4.11-4v-1c0.03-0.88,0.76-1.59,1.64-1.58
				h8.45c4.98,0.01,9.02,4.02,9.05,9v163.56c-0.01,5-4.05,9.04-9.05,9.05H249.7z"/>
		</defs>
		<clipPath id="SVGID_72_">
			<use xlink:href="#SVGID_71_"  style="overflow:visible;"/>
		</clipPath>
		<circle class="st58" cx="316.91" cy="169.82" r="4.93"/>
	</g>
	<g>
		<defs>
			<path id="SVGID_73_" d="M249.7,190.83c-4.98-0.03-8.99-4.07-9-9.05V18.22c0.03-4.96,4.04-8.97,9-9h8.45
				c0.88-0.01,1.61,0.7,1.64,1.58v1c0.05,2.23,1.88,4.01,4.11,4h37.12c2.23,0.01,4.06-1.77,4.11-4v-1c0.03-0.88,0.76-1.59,1.64-1.58
				h8.45c4.98,0.01,9.02,4.02,9.05,9v163.56c-0.01,5-4.05,9.04-9.05,9.05H249.7z"/>
		</defs>
		<clipPath id="SVGID_74_">
			<use xlink:href="#SVGID_73_"  style="overflow:visible;"/>
		</clipPath>
		<path class="st59" d="M318.66,168.07h-3.5c-0.24,0-0.44,0.2-0.44,0.44l0,0v2.63c0,0.24,0.2,0.44,0.44,0.44l0,0h3.5
			c0.24,0,0.44-0.2,0.44-0.44l0,0v-2.63C319.1,168.27,318.9,168.07,318.66,168.07L318.66,168.07z M318.66,168.95l-1.75,1.05l-1.75-1
			v-0.44l1.75,1.09l1.75-1.09V168.95z"/>
	</g>
	<g>
		<defs>
			<path id="SVGID_75_" d="M249.7,190.83c-4.98-0.03-8.99-4.07-9-9.05V18.22c0.03-4.96,4.04-8.97,9-9h8.45
				c0.88-0.01,1.61,0.7,1.64,1.58v1c0.05,2.23,1.88,4.01,4.11,4h37.12c2.23,0.01,4.06-1.77,4.11-4v-1c0.03-0.88,0.76-1.59,1.64-1.58
				h8.45c4.98,0.01,9.02,4.02,9.05,9v163.56c-0.01,5-4.05,9.04-9.05,9.05H249.7z"/>
		</defs>
		<clipPath id="SVGID_76_">
			<use xlink:href="#SVGID_75_"  style="overflow:visible;"/>
		</clipPath>
		<g class="st60">
			<text transform="matrix(1 0 0 1 251.07 0.35)" class="st10 st5 st40">24/7 Live Rep</text>
		</g>
	</g>
	<g>
		<defs>
			<path id="SVGID_77_" d="M249.7,190.83c-4.98-0.03-8.99-4.07-9-9.05V18.22c0.03-4.96,4.04-8.97,9-9h8.45
				c0.88-0.01,1.61,0.7,1.64,1.58v1c0.05,2.23,1.88,4.01,4.11,4h37.12c2.23,0.01,4.06-1.77,4.11-4v-1c0.03-0.88,0.76-1.59,1.64-1.58
				h8.45c4.98,0.01,9.02,4.02,9.05,9v163.56c-0.01,5-4.05,9.04-9.05,9.05H249.7z"/>
		</defs>
		<clipPath id="SVGID_78_">
			<use xlink:href="#SVGID_77_"  style="overflow:visible;"/>
		</clipPath>
		<g class="st61">
			<text transform="matrix(1 0 0 1 251.07 14.47)" class="st10 st5 st40">Business Hours</text>
		</g>
	</g>
	<g>
		<defs>
			<path id="SVGID_79_" d="M249.7,190.83c-4.98-0.03-8.99-4.07-9-9.05V18.22c0.03-4.96,4.04-8.97,9-9h8.45
				c0.88-0.01,1.61,0.7,1.64,1.58v1c0.05,2.23,1.88,4.01,4.11,4h37.12c2.23,0.01,4.06-1.77,4.11-4v-1c0.03-0.88,0.76-1.59,1.64-1.58
				h8.45c4.98,0.01,9.02,4.02,9.05,9v163.56c-0.01,5-4.05,9.04-9.05,9.05H249.7z"/>
		</defs>
		<clipPath id="SVGID_80_">
			<use xlink:href="#SVGID_79_"  style="overflow:visible;"/>
		</clipPath>
		<circle class="st62" cx="245.63" cy="12.92" r="2.69"/>
	</g>
	<g>
		<defs>
			<path id="SVGID_81_" d="M249.7,190.83c-4.98-0.03-8.99-4.07-9-9.05V18.22c0.03-4.96,4.04-8.97,9-9h8.45
				c0.88-0.01,1.61,0.7,1.64,1.58v1c0.05,2.23,1.88,4.01,4.11,4h37.12c2.23,0.01,4.06-1.77,4.11-4v-1c0.03-0.88,0.76-1.59,1.64-1.58
				h8.45c4.98,0.01,9.02,4.02,9.05,9v163.56c-0.01,5-4.05,9.04-9.05,9.05H249.7z"/>
		</defs>
		<clipPath id="SVGID_82_">
			<use xlink:href="#SVGID_81_"  style="overflow:visible;"/>
		</clipPath>
		<path class="st63" d="M245.36,14.41c-0.06,0-0.12-0.02-0.16-0.06l-1-1.06c-0.09-0.08-0.09-0.21-0.01-0.3l0.01-0.01
			c0.09-0.09,0.22-0.09,0.31,0l0.85,0.88l1.74-2.06c0.09-0.09,0.22-0.09,0.31,0c0.08,0.08,0.09,0.2,0.02,0.29l-1.9,2.24
			c-0.04,0.04-0.1,0.07-0.16,0.07L245.36,14.41z"/>
	</g>
	<g>
		<defs>
			<path id="SVGID_83_" d="M249.7,190.83c-4.98-0.03-8.99-4.07-9-9.05V18.22c0.03-4.96,4.04-8.97,9-9h8.45
				c0.88-0.01,1.61,0.7,1.64,1.58v1c0.05,2.23,1.88,4.01,4.11,4h37.12c2.23,0.01,4.06-1.77,4.11-4v-1c0.03-0.88,0.76-1.59,1.64-1.58
				h8.45c4.98,0.01,9.02,4.02,9.05,9v163.56c-0.01,5-4.05,9.04-9.05,9.05H249.7z"/>
		</defs>
		<clipPath id="SVGID_84_">
			<use xlink:href="#SVGID_83_"  style="overflow:visible;"/>
		</clipPath>
		<g class="st64">
			<text transform="matrix(1 0 0 1 251.07 7.35)" class="st10 st5 st40">Online</text>
		</g>
	</g>
	<g>
		<defs>
			<path id="SVGID_85_" d="M249.7,190.83c-4.98-0.03-8.99-4.07-9-9.05V18.22c0.03-4.96,4.04-8.97,9-9h8.45
				c0.88-0.01,1.61,0.7,1.64,1.58v1c0.05,2.23,1.88,4.01,4.11,4h37.12c2.23,0.01,4.06-1.77,4.11-4v-1c0.03-0.88,0.76-1.59,1.64-1.58
				h8.45c4.98,0.01,9.02,4.02,9.05,9v163.56c-0.01,5-4.05,9.04-9.05,9.05H249.7z"/>
		</defs>
		<clipPath id="SVGID_86_">
			<use xlink:href="#SVGID_85_"  style="overflow:visible;"/>
		</clipPath>
		<circle class="st65" cx="245.63" cy="5.8" r="2.69"/>
	</g>
	<g>
		<defs>
			<path id="SVGID_87_" d="M249.7,190.83c-4.98-0.03-8.99-4.07-9-9.05V18.22c0.03-4.96,4.04-8.97,9-9h8.45
				c0.88-0.01,1.61,0.7,1.64,1.58v1c0.05,2.23,1.88,4.01,4.11,4h37.12c2.23,0.01,4.06-1.77,4.11-4v-1c0.03-0.88,0.76-1.59,1.64-1.58
				h8.45c4.98,0.01,9.02,4.02,9.05,9v163.56c-0.01,5-4.05,9.04-9.05,9.05H249.7z"/>
		</defs>
		<clipPath id="SVGID_88_">
			<use xlink:href="#SVGID_87_"  style="overflow:visible;"/>
		</clipPath>
		<path class="st66" d="M245.36,7.29c-0.06,0-0.12-0.03-0.16-0.07l-1-1c-0.09-0.08-0.09-0.21-0.01-0.3l0.01-0.01
			c0.09-0.09,0.22-0.09,0.31,0l0.85,0.88l1.74-2c0.06-0.11,0.2-0.14,0.3-0.08s0.14,0.2,0.08,0.3c-0.01,0.02-0.03,0.04-0.05,0.06
			l-1.9,2.24c-0.04,0.05-0.1,0.08-0.16,0.08L245.36,7.29z"/>
	</g>
	<g>
		<defs>
			<path id="SVGID_89_" d="M249.7,190.83c-4.98-0.03-8.99-4.07-9-9.05V18.22c0.03-4.96,4.04-8.97,9-9h8.45
				c0.88-0.01,1.61,0.7,1.64,1.58v1c0.05,2.23,1.88,4.01,4.11,4h37.12c2.23,0.01,4.06-1.77,4.11-4v-1c0.03-0.88,0.76-1.59,1.64-1.58
				h8.45c4.98,0.01,9.02,4.02,9.05,9v163.56c-0.01,5-4.05,9.04-9.05,9.05H249.7z"/>
		</defs>
		<clipPath id="SVGID_90_">
			<use xlink:href="#SVGID_89_"  style="overflow:visible;"/>
		</clipPath>
		<circle class="st67" cx="245.63" cy="-1.31" r="2.69"/>
	</g>
	<g>
		<defs>
			<path id="SVGID_91_" d="M249.7,190.83c-4.98-0.03-8.99-4.07-9-9.05V18.22c0.03-4.96,4.04-8.97,9-9h8.45
				c0.88-0.01,1.61,0.7,1.64,1.58v1c0.05,2.23,1.88,4.01,4.11,4h37.12c2.23,0.01,4.06-1.77,4.11-4v-1c0.03-0.88,0.76-1.59,1.64-1.58
				h8.45c4.98,0.01,9.02,4.02,9.05,9v163.56c-0.01,5-4.05,9.04-9.05,9.05H249.7z"/>
		</defs>
		<clipPath id="SVGID_92_">
			<use xlink:href="#SVGID_91_"  style="overflow:visible;"/>
		</clipPath>
		<path class="st68" d="M245.36,0.19c-0.06,0-0.12-0.03-0.16-0.07l-1-1.06c-0.09-0.08-0.09-0.21-0.01-0.3l0.01-0.01
			c0.09-0.09,0.22-0.09,0.31,0l0.85,0.88l1.74-2.06c0.09-0.09,0.22-0.09,0.31,0s0.09,0.22,0,0.31l-1.89,2.23
			C245.48,0.16,245.42,0.19,245.36,0.19z"/>
	</g>
	<g>
		<defs>
			<path id="SVGID_93_" d="M249.7,190.83c-4.98-0.03-8.99-4.07-9-9.05V18.22c0.03-4.96,4.04-8.97,9-9h8.45
				c0.88-0.01,1.61,0.7,1.64,1.58v1c0.05,2.23,1.88,4.01,4.11,4h37.12c2.23,0.01,4.06-1.77,4.11-4v-1c0.03-0.88,0.76-1.59,1.64-1.58
				h8.45c4.98,0.01,9.02,4.02,9.05,9v163.56c-0.01,5-4.05,9.04-9.05,9.05H249.7z"/>
		</defs>
		<clipPath id="SVGID_94_">
			<use xlink:href="#SVGID_93_"  style="overflow:visible;"/>
		</clipPath>
		<g class="st69">
			<text transform="matrix(1 0 0 1 242.94 23.77)" class="st10 st8 st70">TRAINING</text>
		</g>
	</g>
	<g>
		<defs>
			<path id="SVGID_95_" d="M249.7,190.83c-4.98-0.03-8.99-4.07-9-9.05V18.22c0.03-4.96,4.04-8.97,9-9h8.45
				c0.88-0.01,1.61,0.7,1.64,1.58v1c0.05,2.23,1.88,4.01,4.11,4h37.12c2.23,0.01,4.06-1.77,4.11-4v-1c0.03-0.88,0.76-1.59,1.64-1.58
				h8.45c4.98,0.01,9.02,4.02,9.05,9v163.56c-0.01,5-4.05,9.04-9.05,9.05H249.7z"/>
		</defs>
		<clipPath id="SVGID_96_">
			<use xlink:href="#SVGID_95_"  style="overflow:visible;"/>
		</clipPath>
		<g class="st71">
			<text transform="matrix(1 0 0 1 251.07 31.01)" class="st10 st5 st40">In Person</text>
		</g>
	</g>
	<g>
		<defs>
			<path id="SVGID_97_" d="M249.7,190.83c-4.98-0.03-8.99-4.07-9-9.05V18.22c0.03-4.96,4.04-8.97,9-9h8.45
				c0.88-0.01,1.61,0.7,1.64,1.58v1c0.05,2.23,1.88,4.01,4.11,4h37.12c2.23,0.01,4.06-1.77,4.11-4v-1c0.03-0.88,0.76-1.59,1.64-1.58
				h8.45c4.98,0.01,9.02,4.02,9.05,9v163.56c-0.01,5-4.05,9.04-9.05,9.05H249.7z"/>
		</defs>
		<clipPath id="SVGID_98_">
			<use xlink:href="#SVGID_97_"  style="overflow:visible;"/>
		</clipPath>
		<g class="st72">
			<text transform="matrix(1 0 0 1 251.07 38.2)" class="st13 st5 st40">Live Online</text>
		</g>
	</g>
	<g>
		<defs>
			<path id="SVGID_99_" d="M249.7,190.83c-4.98-0.03-8.99-4.07-9-9.05V18.22c0.03-4.96,4.04-8.97,9-9h8.45
				c0.88-0.01,1.61,0.7,1.64,1.58v1c0.05,2.23,1.88,4.01,4.11,4h37.12c2.23,0.01,4.06-1.77,4.11-4v-1c0.03-0.88,0.76-1.59,1.64-1.58
				h8.45c4.98,0.01,9.02,4.02,9.05,9v163.56c-0.01,5-4.05,9.04-9.05,9.05H249.7z"/>
		</defs>
		<clipPath id="SVGID_100_">
			<use xlink:href="#SVGID_99_"  style="overflow:visible;"/>
		</clipPath>
		<g class="st73">
			<text transform="matrix(1 0 0 1 251.07 52.71)" class="st10 st5 st40">Webinars</text>
		</g>
	</g>
	<g>
		<defs>
			<path id="SVGID_101_" d="M249.7,190.83c-4.98-0.03-8.99-4.07-9-9.05V18.22c0.03-4.96,4.04-8.97,9-9h8.45
				c0.88-0.01,1.61,0.7,1.64,1.58v1c0.05,2.23,1.88,4.01,4.11,4h37.12c2.23,0.01,4.06-1.77,4.11-4v-1c0.03-0.88,0.76-1.59,1.64-1.58
				h8.45c4.98,0.01,9.02,4.02,9.05,9v163.56c-0.01,5-4.05,9.04-9.05,9.05H249.7z"/>
		</defs>
		<clipPath id="SVGID_102_">
			<use xlink:href="#SVGID_101_"  style="overflow:visible;"/>
		</clipPath>
		<circle class="st74" cx="245.63" cy="51.16" r="2.69"/>
	</g>
	<g>
		<defs>
			<path id="SVGID_103_" d="M249.7,190.83c-4.98-0.03-8.99-4.07-9-9.05V18.22c0.03-4.96,4.04-8.97,9-9h8.45
				c0.88-0.01,1.61,0.7,1.64,1.58v1c0.05,2.23,1.88,4.01,4.11,4h37.12c2.23,0.01,4.06-1.77,4.11-4v-1c0.03-0.88,0.76-1.59,1.64-1.58
				h8.45c4.98,0.01,9.02,4.02,9.05,9v163.56c-0.01,5-4.05,9.04-9.05,9.05H249.7z"/>
		</defs>
		<clipPath id="SVGID_104_">
			<use xlink:href="#SVGID_103_"  style="overflow:visible;"/>
		</clipPath>
		<path class="st75" d="M245.36,52.65c-0.06,0-0.12-0.03-0.16-0.07l-1-1c-0.08-0.09-0.07-0.23,0.03-0.31c0.08-0.07,0.2-0.07,0.28,0
			l0.85,0.88l1.74-2.05c0.08-0.09,0.21-0.09,0.3-0.01l0.01,0.01c0.09,0.09,0.09,0.22,0,0.31l-1.9,2.24
			c-0.04,0.05-0.1,0.08-0.16,0.08L245.36,52.65z"/>
	</g>
	<g>
		<defs>
			<path id="SVGID_105_" d="M249.7,190.83c-4.98-0.03-8.99-4.07-9-9.05V18.22c0.03-4.96,4.04-8.97,9-9h8.45
				c0.88-0.01,1.61,0.7,1.64,1.58v1c0.05,2.23,1.88,4.01,4.11,4h37.12c2.23,0.01,4.06-1.77,4.11-4v-1c0.03-0.88,0.76-1.59,1.64-1.58
				h8.45c4.98,0.01,9.02,4.02,9.05,9v163.56c-0.01,5-4.05,9.04-9.05,9.05H249.7z"/>
		</defs>
		<clipPath id="SVGID_106_">
			<use xlink:href="#SVGID_105_"  style="overflow:visible;"/>
		</clipPath>
		<g class="st76">
			<text transform="matrix(1 0 0 1 251.07 45.48)" class="st13 st5 st40">Documentation</text>
		</g>
	</g>
	<g>
		<defs>
			<path id="SVGID_107_" d="M249.7,190.83c-4.98-0.03-8.99-4.07-9-9.05V18.22c0.03-4.96,4.04-8.97,9-9h8.45
				c0.88-0.01,1.61,0.7,1.64,1.58v1c0.05,2.23,1.88,4.01,4.11,4h37.12c2.23,0.01,4.06-1.77,4.11-4v-1c0.03-0.88,0.76-1.59,1.64-1.58
				h8.45c4.98,0.01,9.02,4.02,9.05,9v163.56c-0.01,5-4.05,9.04-9.05,9.05H249.7z"/>
		</defs>
		<clipPath id="SVGID_108_">
			<use xlink:href="#SVGID_107_"  style="overflow:visible;"/>
		</clipPath>
		<circle class="st77" cx="245.63" cy="29.24" r="2.69"/>
	</g>
	<g>
		<defs>
			<path id="SVGID_109_" d="M249.7,190.83c-4.98-0.03-8.99-4.07-9-9.05V18.22c0.03-4.96,4.04-8.97,9-9h8.45
				c0.88-0.01,1.61,0.7,1.64,1.58v1c0.05,2.23,1.88,4.01,4.11,4h37.12c2.23,0.01,4.06-1.77,4.11-4v-1c0.03-0.88,0.76-1.59,1.64-1.58
				h8.45c4.98,0.01,9.02,4.02,9.05,9v163.56c-0.01,5-4.05,9.04-9.05,9.05H249.7z"/>
		</defs>
		<clipPath id="SVGID_110_">
			<use xlink:href="#SVGID_109_"  style="overflow:visible;"/>
		</clipPath>
		<path class="st78" d="M245.36,30.74c-0.06,0-0.12-0.03-0.16-0.07l-1-1.06c-0.09-0.08-0.09-0.21-0.01-0.3l0.01-0.01
			c0.09-0.09,0.22-0.09,0.31,0l0.85,0.88l1.74-2.06c0.09-0.09,0.22-0.09,0.31,0c0.08,0.08,0.09,0.2,0.02,0.29l-1.9,2.24
			c-0.04,0.05-0.1,0.08-0.16,0.08L245.36,30.74z"/>
	</g>
	<g>
		<defs>
			<path id="SVGID_111_" d="M249.7,190.83c-4.98-0.03-8.99-4.07-9-9.05V18.22c0.03-4.96,4.04-8.97,9-9h8.45
				c0.88-0.01,1.61,0.7,1.64,1.58v1c0.05,2.23,1.88,4.01,4.11,4h37.12c2.23,0.01,4.06-1.77,4.11-4v-1c0.03-0.88,0.76-1.59,1.64-1.58
				h8.45c4.98,0.01,9.02,4.02,9.05,9v163.56c-0.01,5-4.05,9.04-9.05,9.05H249.7z"/>
		</defs>
		<clipPath id="SVGID_112_">
			<use xlink:href="#SVGID_111_"  style="overflow:visible;"/>
		</clipPath>
		<circle class="st79" cx="245.63" cy="43.85" r="2.69"/>
	</g>
	<g>
		<defs>
			<path id="SVGID_113_" d="M249.7,190.83c-4.98-0.03-8.99-4.07-9-9.05V18.22c0.03-4.96,4.04-8.97,9-9h8.45
				c0.88-0.01,1.61,0.7,1.64,1.58v1c0.05,2.23,1.88,4.01,4.11,4h37.12c2.23,0.01,4.06-1.77,4.11-4v-1c0.03-0.88,0.76-1.59,1.64-1.58
				h8.45c4.98,0.01,9.02,4.02,9.05,9v163.56c-0.01,5-4.05,9.04-9.05,9.05H249.7z"/>
		</defs>
		<clipPath id="SVGID_114_">
			<use xlink:href="#SVGID_113_"  style="overflow:visible;"/>
		</clipPath>
		<path class="st80" d="M244.51,45.2c-0.06,0-0.12-0.03-0.16-0.07c-0.08-0.09-0.08-0.23,0-0.32l2.24-2.24
			c0.09-0.08,0.23-0.08,0.32,0c0.09,0.08,0.09,0.22,0.01,0.31l-0.01,0.01l-2.24,2.24C244.63,45.17,244.57,45.2,244.51,45.2z"/>
	</g>
	<g>
		<defs>
			<path id="SVGID_115_" d="M249.7,190.83c-4.98-0.03-8.99-4.07-9-9.05V18.22c0.03-4.96,4.04-8.97,9-9h8.45
				c0.88-0.01,1.61,0.7,1.64,1.58v1c0.05,2.23,1.88,4.01,4.11,4h37.12c2.23,0.01,4.06-1.77,4.11-4v-1c0.03-0.88,0.76-1.59,1.64-1.58
				h8.45c4.98,0.01,9.02,4.02,9.05,9v163.56c-0.01,5-4.05,9.04-9.05,9.05H249.7z"/>
		</defs>
		<clipPath id="SVGID_116_">
			<use xlink:href="#SVGID_115_"  style="overflow:visible;"/>
		</clipPath>
		<path class="st81" d="M246.75,45.2c-0.06,0-0.12-0.03-0.16-0.07l-2.24-2.24c-0.07-0.1-0.05-0.25,0.06-0.32
			c0.08-0.05,0.18-0.05,0.26,0l2.24,2.24c0.09,0.08,0.09,0.22,0.01,0.31l-0.01,0.01C246.87,45.17,246.81,45.2,246.75,45.2z"/>
	</g>
	<g>
		<defs>
			<path id="SVGID_117_" d="M249.7,190.83c-4.98-0.03-8.99-4.07-9-9.05V18.22c0.03-4.96,4.04-8.97,9-9h8.45
				c0.88-0.01,1.61,0.7,1.64,1.58v1c0.05,2.23,1.88,4.01,4.11,4h37.12c2.23,0.01,4.06-1.77,4.11-4v-1c0.03-0.88,0.76-1.59,1.64-1.58
				h8.45c4.98,0.01,9.02,4.02,9.05,9v163.56c-0.01,5-4.05,9.04-9.05,9.05H249.7z"/>
		</defs>
		<clipPath id="SVGID_118_">
			<use xlink:href="#SVGID_117_"  style="overflow:visible;"/>
		</clipPath>
		<circle class="st82" cx="245.63" cy="36.55" r="2.69"/>
	</g>
	<g>
		<defs>
			<path id="SVGID_119_" d="M249.7,190.83c-4.98-0.03-8.99-4.07-9-9.05V18.22c0.03-4.96,4.04-8.97,9-9h8.45
				c0.88-0.01,1.61,0.7,1.64,1.58v1c0.05,2.23,1.88,4.01,4.11,4h37.12c2.23,0.01,4.06-1.77,4.11-4v-1c0.03-0.88,0.76-1.59,1.64-1.58
				h8.45c4.98,0.01,9.02,4.02,9.05,9v163.56c-0.01,5-4.05,9.04-9.05,9.05H249.7z"/>
		</defs>
		<clipPath id="SVGID_120_">
			<use xlink:href="#SVGID_119_"  style="overflow:visible;"/>
		</clipPath>
		<path class="st83" d="M244.51,37.89c-0.12,0.01-0.22-0.09-0.23-0.21c0-0.06,0.02-0.13,0.07-0.17l2.24-2.24
			c0.1-0.07,0.25-0.05,0.32,0.06c0.05,0.08,0.05,0.18,0,0.26l-2.24,2.24C244.63,37.87,244.57,37.89,244.51,37.89z"/>
	</g>
	<g>
		<defs>
			<path id="SVGID_121_" d="M249.7,190.83c-4.98-0.03-8.99-4.07-9-9.05V18.22c0.03-4.96,4.04-8.97,9-9h8.45
				c0.88-0.01,1.61,0.7,1.64,1.58v1c0.05,2.23,1.88,4.01,4.11,4h37.12c2.23,0.01,4.06-1.77,4.11-4v-1c0.03-0.88,0.76-1.59,1.64-1.58
				h8.45c4.98,0.01,9.02,4.02,9.05,9v163.56c-0.01,5-4.05,9.04-9.05,9.05H249.7z"/>
		</defs>
		<clipPath id="SVGID_122_">
			<use xlink:href="#SVGID_121_"  style="overflow:visible;"/>
		</clipPath>
		<path class="st84" d="M246.75,37.89c-0.06,0-0.12-0.02-0.16-0.06l-2.24-2.24c-0.08-0.09-0.08-0.23,0-0.32s0.22-0.09,0.31-0.01
			l0.01,0.01l2.24,2.24c0.09,0.08,0.09,0.22,0.01,0.31l-0.01,0.01C246.87,37.87,246.81,37.89,246.75,37.89z"/>
	</g>
</g>
<path class="st4" d="M264.2,167.82c0,0.28-0.23,0.51-0.51,0.51s-0.51-0.23-0.51-0.51s0.23-0.51,0.51-0.51S264.2,167.54,264.2,167.82
	z M264.22,168.7h-1.01v3.17h1.01V168.7z M265.82,168.7h-1.01v3.17h1v-1.66c0-0.93,1.21-1.01,1.21,0v1.66h1v-2.01
	c0-1.56-1.79-1.5-2.21-0.74L265.82,168.7z"/>
<path class="st4" d="M248.47,170.14h0.6l0.24-0.96h-0.84v-0.48c0-0.25,0-0.48,0.48-0.48h0.36v-0.81c-0.08-0.01-0.38-0.03-0.69-0.03
	c-0.65,0-1.12,0.4-1.12,1.13v0.67h-0.72v0.96h0.72v2.05h0.96L248.47,170.14L248.47,170.14z"/>
<path class="st4" d="M285.47,168.09c-0.22,0.1-0.46,0.16-0.7,0.19c0.25-0.15,0.44-0.39,0.54-0.67c-0.24,0.14-0.5,0.24-0.77,0.3
	c-0.46-0.49-1.23-0.52-1.72-0.06c-0.32,0.3-0.45,0.74-0.35,1.17c-0.98-0.05-1.89-0.51-2.51-1.27c-0.11,0.19-0.16,0.4-0.16,0.61
	c0,0.42,0.21,0.79,0.54,1.01c-0.19-0.01-0.38-0.06-0.55-0.15v0.02c0,0.58,0.41,1.08,0.98,1.19c-0.18,0.05-0.37,0.06-0.55,0.02
	c0.16,0.5,0.62,0.84,1.14,0.84c-0.51,0.4-1.16,0.58-1.8,0.5c0.56,0.36,1.2,0.55,1.86,0.55c2.24,0,3.46-1.85,3.46-3.46
	c0-0.05,0-0.11,0-0.16C285.1,168.55,285.31,168.33,285.47,168.09L285.47,168.09z"/>
<path class="st4" d="M302.43,169.4c-0.21-0.39-0.7-0.53-1.09-0.31c-0.4-0.24-0.85-0.39-1.29-0.43l0.17-0.79l0.8,0.17
	c0.03,0.08,0.08,0.16,0.14,0.22c0.21,0.19,0.52,0.17,0.71-0.04c0.19-0.21,0.17-0.52-0.04-0.71c-0.21-0.19-0.52-0.17-0.71,0.04
	l-0.8-0.17c0,0,0,0,0,0c-0.27-0.06-0.54,0.12-0.59,0.39l-0.19,0.89c-0.47,0.02-0.93,0.16-1.34,0.41c-0.35-0.19-0.79-0.1-1.03,0.22
	c-0.27,0.35-0.19,0.85,0.16,1.12c0,0.02,0,0.03,0,0.05c0,0.98,1.1,1.74,2.43,1.74c1.34,0,2.46-0.76,2.46-1.76c0-0.01,0-0.02,0-0.03
	c0.19-0.15,0.31-0.39,0.3-0.64v-0.01C302.52,169.63,302.49,169.51,302.43,169.4z M298.51,170.08c0-0.21,0.17-0.38,0.38-0.38
	c0.21,0,0.38,0.17,0.38,0.38c0,0.21-0.17,0.38-0.38,0.38C298.67,170.46,298.51,170.29,298.51,170.08z M300.74,171.07
	c-0.17,0.2-0.62,0.29-0.97,0.29s-0.69-0.09-0.97-0.3c-0.04-0.05-0.03-0.11,0.01-0.15c0.04-0.03,0.1-0.03,0.14,0
	c0.24,0.17,0.53,0.25,0.82,0.25c0.29,0,0.58-0.07,0.82-0.24c0.04-0.04,0.11-0.04,0.16,0c0.01,0.01,0.02,0.03,0.03,0.05
	C300.77,171.01,300.76,171.05,300.74,171.07z M300.64,170.46c-0.21,0-0.38-0.17-0.38-0.38c0-0.21,0.17-0.38,0.38-0.38
	c0.21,0,0.38,0.17,0.38,0.38C301.01,170.29,300.84,170.46,300.64,170.46z"/>
</svg>
