<svg id="Layer_1" data-name="Layer 1" xmlns="http://www.w3.org/2000/svg" xmlns:xlink="http://www.w3.org/1999/xlink" viewBox="0 0 350 208"><defs><style>.cls-1{fill:none;}.cls-2{fill:#1a0;}.cls-3{fill:#303030;}.cls-16,.cls-4{fill:#fff;}.cls-5{fill:#232323;}.cls-6{fill:#515151;}.cls-7{fill:#1e1e1e;}.cls-8{fill:#9b9b9b;}.cls-9{clip-path:url(#clip-path);}.cls-10{clip-path:url(#clip-path-2);}.cls-11,.cls-15{fill:#2b2b2b;}.cls-11{fill-opacity:0.08;}.cls-12{clip-path:url(#clip-path-3);}.cls-13{clip-path:url(#clip-path-4);}.cls-14{fill:#f5f5f5;}.cls-16,.cls-20,.cls-22,.cls-23{fill-rule:evenodd;}.cls-17,.cls-23{fill:#757575;}.cls-18{opacity:0.4;}.cls-19{fill:#e5e5e5;}.cls-21,.cls-22{fill:#4657ce;}.cls-24{fill:#d6d6d6;}.cls-25{fill:#0dd6cc;}.cls-26{fill:#b5b5b5;}</style><clipPath id="clip-path"><rect class="cls-1" x="52" y="-200" width="237" height="150"/></clipPath><clipPath id="clip-path-2"><rect class="cls-1" x="52" y="-200" width="237" height="251.62"/></clipPath><clipPath id="clip-path-3"><rect class="cls-1" x="52" y="17" width="238" height="151.64"/></clipPath><clipPath id="clip-path-4"><rect class="cls-1" x="52" y="17" width="238" height="269.73"/></clipPath></defs><path class="cls-2" d="M300,191.81a8.65,8.65,0,0,0,6.8-8.49V18.67A8.6,8.6,0,0,0,298.3,10H59.7a8.6,8.6,0,0,0-8.52,8.67V183.32a8.65,8.65,0,0,0,6.8,8.49H21v3.06S30.81,202,64,202H294c33.2,0,43-7.13,43-7.13v-3.06Z"/><path id="Bottom" class="cls-3" d="M43.18,178.32A8.6,8.6,0,0,0,51.7,187H290.3a8.6,8.6,0,0,0,8.52-8.67v-3.21H43.18Z"/><path id="Border" d="M290.3,5H51.7a8.6,8.6,0,0,0-8.52,8.67V175.11H298.82V13.67A8.6,8.6,0,0,0,290.3,5Z"/><rect id="_YOUR_SCREEN_HERE_" data-name="[YOUR SCREEN HERE]" class="cls-4" x="52.21" y="17.43" width="237.57" height="151.16"/><path class="cls-5" d="M290,168.79H52V17.23H290Zm-237.57-.4H289.59V17.63H52.41Z"/><polygon class="cls-6" points="329 186.81 171 186.81 13 186.81 13 189.87 329 189.87 329 186.81"/><path class="cls-7" d="M171,197H286c33.2,0,43-7.13,43-7.13H13S22.81,197,56,197Z"/><path class="cls-8" d="M171,186.81H141v2.77c2.08.87,6.28,1.31,12.14,1.31h35.72c5.86,0,10.06-.44,12.14-1.31v-2.77Z"/><path class="cls-3" d="M172.77,11.59H163a.84.84,0,0,1-.82-.83.82.82,0,0,1,.82-.82h9.8a.82.82,0,0,1,.81.82A.84.84,0,0,1,172.77,11.59Z"/><path class="cls-3" d="M178.21,12.41a1.65,1.65,0,1,1,1.64-1.65A1.65,1.65,0,0,1,178.21,12.41Z"/><g class="cls-9"><g class="cls-10"><rect class="cls-4" x="52" y="-200" width="237" height="251.62"/><rect class="cls-4" x="197.73" y="-6.84" width="57.66" height="9.48"/><rect class="cls-4" x="197.73" y="2.64" width="57.66" height="9.48"/><path d="M202.22,8.26h.29l-.84-1,.77-.88h-.29l-.81,1v-1h-.23V8.26h.23V7.64l.18-.21Zm.64-1.56a.14.14,0,0,0,.14-.14.13.13,0,0,0-.14-.13.14.14,0,0,0-.14.13A.14.14,0,0,0,202.86,6.7Zm-.1,1.56H203V6.93h-.21Zm2.23,0h.21v-1c0-.27-.13-.4-.37-.4a.55.55,0,0,0-.45.24A.35.35,0,0,0,204,6.9a.57.57,0,0,0-.43.22V6.93h-.21V8.26h.21v-1a.45.45,0,0,1,.35-.21c.17,0,.25.11.25.28v.9h.2v-1a.49.49,0,0,1,.36-.2c.17,0,.24.11.24.28Zm1.34,0H207a.92.92,0,1,0,0-1.84h-.64Zm.23-.2V6.62H207a.67.67,0,0,1,.7.72.68.68,0,0,1-.7.72Zm1.8-1.36a.14.14,0,1,0,0-.27.13.13,0,0,0-.13.13A.13.13,0,0,0,208.36,6.7Zm-.1,1.56h.21V6.93h-.21Zm1.49,0H210l-.51-.68.48-.65h-.24l-.37.51L209,6.93h-.24l.48.65-.51.68H209l.4-.54Zm1,0a.67.67,0,0,0,.66-.71.67.67,0,1,0-1.33,0A.67.67,0,0,0,210.73,8.3Zm0-.19a.47.47,0,0,1-.45-.52.45.45,0,1,1,.89,0A.47.47,0,0,1,210.73,8.11Zm1.9.15h.2V7.33a.37.37,0,0,0-.42-.43.68.68,0,0,0-.48.22V6.93h-.21V8.26h.21v-1a.51.51,0,0,1,.4-.21c.18,0,.3.08.3.31Z"/><rect class="cls-4" x="197.73" y="21.6" width="57.66" height="9.48"/><path d="M200.92,27a.61.61,0,0,0,.48.22.55.55,0,0,0,.59-.59V25.38h-.23v1.28a.36.36,0,0,1-.37.39.43.43,0,0,1-.35-.18Zm2.07.22a.67.67,0,0,0,.67-.71.67.67,0,1,0-1.33,0A.67.67,0,0,0,203,27.26Zm0-.19a.52.52,0,1,1,.45-.52A.47.47,0,0,1,203,27.07Zm.89,0a.72.72,0,0,0,.54.21c.34,0,.52-.18.52-.41s-.27-.36-.5-.41-.32-.09-.32-.21.11-.21.29-.21a.55.55,0,0,1,.4.17l.1-.14a.68.68,0,0,0-.5-.19c-.32,0-.5.17-.5.38s.26.34.49.39.34.09.34.24-.11.22-.32.22a.58.58,0,0,1-.43-.19Zm1.32-.5a.67.67,0,0,0,.68.71.73.73,0,0,0,.53-.21l-.1-.13a.61.61,0,0,1-.41.17.47.47,0,0,1-.48-.47h1.08v-.05a.64.64,0,0,0-.64-.71A.67.67,0,0,0,205.2,26.55Zm.66-.52a.44.44,0,0,1,.44.44h-.88A.44.44,0,0,1,205.86,26Zm1.18,1.7V27a.56.56,0,0,0,.45.24c.36,0,.6-.27.6-.71s-.24-.69-.6-.69a.56.56,0,0,0-.45.23v-.2h-.2v1.84Zm.83-1.18c0,.3-.16.52-.43.52a.53.53,0,0,1-.4-.21v-.61a.53.53,0,0,1,.4-.21C207.71,26,207.87,26.26,207.87,26.55Zm1.46.67h.21v-.94a.37.37,0,0,0-.43-.42.68.68,0,0,0-.48.22v-.7h-.21v1.84h.21v-1A.53.53,0,0,1,209,26c.18,0,.3.07.3.3Zm1.23-.26a.92.92,0,0,0,.71.3c.5,0,.68-.28.68-.55s-.34-.48-.65-.56-.44-.12-.44-.3.15-.29.38-.29a.71.71,0,0,1,.53.22l.14-.17a.9.9,0,0,0-.66-.26c-.36,0-.63.21-.63.51s.33.45.62.53.47.12.47.34-.1.32-.43.32a.76.76,0,0,1-.58-.26Zm3.34.26h.2v-1c0-.27-.13-.4-.37-.4a.58.58,0,0,0-.45.24.34.34,0,0,0-.36-.24.61.61,0,0,0-.43.22v-.19h-.21v1.33h.21v-1a.47.47,0,0,1,.35-.21c.18,0,.25.11.25.28v.9h.21v-1a.45.45,0,0,1,.35-.2c.17,0,.25.11.25.28Zm.72-1.56a.14.14,0,0,0,.14-.14.14.14,0,0,0-.28,0A.14.14,0,0,0,214.62,25.66Zm-.1,1.56h.2V25.89h-.2Zm.95,0a.32.32,0,0,0,.25-.09l-.06-.15a.2.2,0,0,1-.14.05c-.09,0-.13-.07-.13-.17v-.83h.27v-.18h-.27v-.37h-.21v.37H215v.18h.22V27A.27.27,0,0,0,215.47,27.26Zm1.38,0h.21v-.94a.37.37,0,0,0-.42-.42.64.64,0,0,0-.48.22v-.7H216v1.84h.21v-1a.51.51,0,0,1,.39-.21c.18,0,.3.07.3.3Z"/><rect class="cls-4" x="197.73" y="12.12" width="57.66" height="9.48"/><path d="M202.43,17.74h.26l-.75-1.84h-.28l-.74,1.84h.25l.16-.41h.94Zm-.63-1.64.4,1h-.8Zm2.73,1.64h.21v-1c0-.27-.13-.4-.38-.4a.54.54,0,0,0-.44.24.35.35,0,0,0-.36-.24.57.57,0,0,0-.43.22v-.19h-.21v1.33h.21v-1a.45.45,0,0,1,.35-.21c.17,0,.24.11.24.28v.9h.21v-1a.49.49,0,0,1,.35-.2c.18,0,.25.11.25.28Zm.58.34,0,.19h.15a.38.38,0,0,0,.39-.27l.67-1.6h-.23l-.44,1.09-.44-1.09H205l.56,1.35-.09.2a.19.19,0,0,1-.2.14Zm3.44-.34h.26l-.75-1.84h-.28L207,17.74h.25l.17-.41h.93Zm-.63-1.64.4,1h-.8ZM209,17.74h.21V15.9H209Zm.68,0h.21V16.59h.27v-.18h-.27v-.1c0-.17.07-.27.21-.27a.53.53,0,0,1,.12,0l.05-.15a.42.42,0,0,0-.2-.05c-.24,0-.39.16-.39.44v.1h-.22v.18h.22Zm.83-1.56a.14.14,0,0,0,.14-.14.14.14,0,0,0-.14-.13.13.13,0,0,0-.14.13A.14.14,0,0,0,210.55,16.18Zm-.11,1.56h.21V16.41h-.21Zm.55-.67a.66.66,0,0,0,.68.71.73.73,0,0,0,.53-.21l-.1-.13a.63.63,0,0,1-.41.17.47.47,0,0,1-.48-.47h1.08v-.05a.64.64,0,0,0-.64-.71A.66.66,0,0,0,211,17.07Zm.65-.52a.42.42,0,0,1,.44.44h-.87A.44.44,0,0,1,211.64,16.55Zm1,1.19h.21V16.8a.5.5,0,0,1,.36-.22h.09v-.21a.57.57,0,0,0-.45.24v-.21h-.21Zm1-1.56a.14.14,0,0,0,.14-.14.14.14,0,0,0-.28,0A.14.14,0,0,0,213.64,16.18Zm-.1,1.56h.2V16.41h-.2Z"/><rect class="cls-4" x="197.73" y="31.08" width="57.66" height="9.48"/><path d="M200.92,36.52a.61.61,0,0,0,.48.22.55.55,0,0,0,.59-.59V34.86h-.23v1.28a.36.36,0,0,1-.37.39.43.43,0,0,1-.35-.18Zm2.07.22a.67.67,0,0,0,.67-.71.67.67,0,1,0-1.33,0A.67.67,0,0,0,203,36.74Zm0-.19a.52.52,0,1,1,.45-.52A.47.47,0,0,1,203,36.55Zm.89,0a.72.72,0,0,0,.54.21c.34,0,.52-.18.52-.41s-.27-.36-.5-.41-.32-.09-.32-.21.11-.21.29-.21a.55.55,0,0,1,.4.17l.1-.14a.68.68,0,0,0-.5-.19c-.32,0-.5.17-.5.38s.26.34.49.39.34.09.34.24-.11.22-.32.22a.58.58,0,0,1-.43-.19Zm1.32-.5a.67.67,0,0,0,.68.71.73.73,0,0,0,.53-.21l-.1-.13a.61.61,0,0,1-.41.17.47.47,0,0,1-.48-.47h1.08v-.05a.64.64,0,0,0-.64-.71A.67.67,0,0,0,205.2,36Zm.66-.52a.44.44,0,0,1,.44.44h-.88A.44.44,0,0,1,205.86,35.51Zm1.18,1.7V36.5a.56.56,0,0,0,.45.24c.36,0,.6-.27.6-.71s-.24-.69-.6-.69a.56.56,0,0,0-.45.23v-.2h-.2v1.84Zm.83-1.18c0,.3-.16.52-.43.52a.53.53,0,0,1-.4-.21v-.61a.53.53,0,0,1,.4-.21C207.71,35.52,207.87,35.74,207.87,36Zm1.46.67h.21v-.94a.37.37,0,0,0-.43-.42.68.68,0,0,0-.48.22v-.7h-.21V36.7h.21v-1a.53.53,0,0,1,.4-.21c.18,0,.3.07.3.3Zm1.23-.26a.92.92,0,0,0,.71.3c.5,0,.68-.28.68-.55s-.34-.48-.65-.56-.44-.12-.44-.3.15-.29.38-.29a.71.71,0,0,1,.53.22l.14-.17a.9.9,0,0,0-.66-.26c-.36,0-.63.21-.63.51s.33.45.62.53.47.12.47.34-.1.32-.43.32a.76.76,0,0,1-.58-.26Zm3.34.26h.2v-1c0-.27-.13-.4-.37-.4a.58.58,0,0,0-.45.24.34.34,0,0,0-.36-.24.61.61,0,0,0-.43.22v-.19h-.21V36.7h.21v-1a.47.47,0,0,1,.35-.21c.18,0,.25.11.25.28v.9h.21v-1a.45.45,0,0,1,.35-.2c.17,0,.25.11.25.28Zm.72-1.56a.14.14,0,0,0,.14-.14.14.14,0,0,0-.28,0A.14.14,0,0,0,214.62,35.14Zm-.1,1.56h.2V35.37h-.2Zm.95,0a.32.32,0,0,0,.25-.09l-.06-.15a.2.2,0,0,1-.14,0c-.09,0-.13-.07-.13-.17v-.83h.27v-.18h-.27V35h-.21v.37H215v.18h.22v.88A.27.27,0,0,0,215.47,36.74Zm1.38,0h.21v-.94a.37.37,0,0,0-.42-.42.64.64,0,0,0-.48.22v-.7H216V36.7h.21v-1a.51.51,0,0,1,.39-.21c.18,0,.3.07.3.3Z"/><rect class="cls-4" x="255.39" y="-6.84" width="22.95" height="9.48"/><rect class="cls-11" x="256.77" y="-5.26" width="19.95" height="6.32" rx="0.59"/><rect class="cls-4" x="255.39" y="2.64" width="22.95" height="9.48"/><rect class="cls-11" x="256.77" y="4.22" width="19.95" height="6.32" rx="0.59"/><path d="M259.26,8a1,1,0,0,0,.75.3c.5,0,.71-.27.71-.57s-.36-.5-.66-.57-.41-.11-.41-.25.12-.23.31-.23a.74.74,0,0,1,.54.21l.18-.24a.94.94,0,0,0-.69-.26.6.6,0,0,0-.67.54c0,.39.35.48.65.55s.42.11.42.28-.1.25-.37.25a.79.79,0,0,1-.58-.26Zm2.9.26h.31l.41-1.33h-.3l-.28,1-.32-1h-.25l-.32,1-.28-1h-.31l.42,1.33h.3l.31-1Zm1.07-1.55a.18.18,0,1,0-.18-.18A.18.18,0,0,0,263.23,6.71Zm-.15,1.55h.29V6.93h-.29Zm1.07,0a.4.4,0,0,0,.28-.09L264.36,8a.19.19,0,0,1-.13,0c-.09,0-.13-.07-.13-.16v-.7h.27V6.93h-.27V6.56h-.29v.37h-.22v.25h.22V8A.31.31,0,0,0,264.15,8.3Zm.4-.71a.68.68,0,0,0,.69.71.58.58,0,0,0,.51-.24l-.19-.18a.35.35,0,0,1-.31.16.45.45,0,0,1,0-.89.37.37,0,0,1,.31.16l.19-.18a.61.61,0,0,0-.51-.23A.67.67,0,0,0,264.55,7.59Zm2.36.67h.29V7.32a.38.38,0,0,0-.43-.42.65.65,0,0,0-.47.21V6.42H266V8.26h.29V7.33a.44.44,0,0,1,.34-.18.24.24,0,0,1,.27.27Zm1.78,0a.36.36,0,0,0,.27-.09L268.89,8a.16.16,0,0,1-.13,0c-.08,0-.12-.07-.12-.16v-.7h.27V6.93h-.27V6.56h-.29v.37h-.22v.25h.22V8A.31.31,0,0,0,268.69,8.3Zm.4-.71a.67.67,0,0,0,.7.71.77.77,0,0,0,.54-.2l-.13-.19a.55.55,0,0,1-.38.15.42.42,0,0,1-.43-.37h1V7.62a.66.66,0,0,0-.66-.72A.67.67,0,0,0,269.09,7.59Zm.68-.46a.35.35,0,0,1,.37.36h-.75A.37.37,0,0,1,269.77,7.13Zm1.76,1.13h.29V7.38c0-.36-.26-.48-.56-.48a.78.78,0,0,0-.56.21l.12.2a.56.56,0,0,1,.4-.17c.18,0,.31.1.31.25v.2a.56.56,0,0,0-.43-.17.43.43,0,0,0-.47.43.45.45,0,0,0,.47.45.59.59,0,0,0,.43-.18Zm0-.3a.4.4,0,0,1-.32.14.26.26,0,0,1-.29-.24.26.26,0,0,1,.29-.24.4.4,0,0,1,.32.14Zm2.3.3h.29v-1a.35.35,0,0,0-.38-.4.58.58,0,0,0-.46.24.33.33,0,0,0-.36-.24.61.61,0,0,0-.44.21V6.93h-.29V8.26h.29V7.33a.4.4,0,0,1,.31-.18c.16,0,.22.1.22.24v.87h.29V7.33a.4.4,0,0,1,.31-.18c.16,0,.22.1.22.24Z"/><rect class="cls-4" x="255.39" y="12.12" width="22.95" height="9.48"/><rect class="cls-11" x="256.77" y="13.7" width="19.95" height="6.32" rx="0.59"/><path d="M259.26,17.48a1,1,0,0,0,.75.3c.5,0,.71-.27.71-.57s-.36-.5-.66-.57-.41-.11-.41-.25.12-.23.31-.23a.74.74,0,0,1,.54.21l.18-.24a.94.94,0,0,0-.69-.26.6.6,0,0,0-.67.54c0,.39.35.48.65.55s.42.11.42.28-.1.25-.37.25a.79.79,0,0,1-.58-.26Zm2.9.26h.31l.41-1.33h-.3l-.28,1-.32-1h-.25l-.32,1-.28-1h-.31l.42,1.33h.3l.31-1Zm1.07-1.55a.18.18,0,1,0-.18-.18A.18.18,0,0,0,263.23,16.19Zm-.15,1.55h.29V16.41h-.29Zm1.07,0a.4.4,0,0,0,.28-.09l-.07-.22a.19.19,0,0,1-.13.05c-.09,0-.13-.07-.13-.16v-.7h.27v-.25h-.27V16h-.29v.37h-.22v.25h.22v.77A.31.31,0,0,0,264.15,17.78Zm.4-.71a.68.68,0,0,0,.69.71.58.58,0,0,0,.51-.24l-.19-.18a.35.35,0,0,1-.31.16.45.45,0,0,1,0-.89.37.37,0,0,1,.31.16l.19-.18a.61.61,0,0,0-.51-.23A.67.67,0,0,0,264.55,17.07Zm2.36.67h.29V16.8a.38.38,0,0,0-.43-.42.65.65,0,0,0-.47.21V15.9H266v1.84h.29v-.93a.44.44,0,0,1,.34-.18.24.24,0,0,1,.27.27Zm1.78,0a.36.36,0,0,0,.27-.09l-.07-.22a.16.16,0,0,1-.13.05c-.08,0-.12-.07-.12-.16v-.7h.27v-.25h-.27V16h-.29v.37h-.22v.25h.22v.77A.31.31,0,0,0,268.69,17.78Zm.4-.71a.67.67,0,0,0,.7.71.77.77,0,0,0,.54-.2l-.13-.19a.55.55,0,0,1-.38.15.42.42,0,0,1-.43-.37h1V17.1a.66.66,0,0,0-.66-.72A.67.67,0,0,0,269.09,17.07Zm.68-.46a.35.35,0,0,1,.37.36h-.75A.37.37,0,0,1,269.77,16.61Zm1.76,1.13h.29v-.88c0-.36-.26-.48-.56-.48a.78.78,0,0,0-.56.21l.12.2a.56.56,0,0,1,.4-.17c.18,0,.31.1.31.25v.2a.56.56,0,0,0-.43-.17.43.43,0,0,0-.47.43.45.45,0,0,0,.47.45.59.59,0,0,0,.43-.18Zm0-.3a.4.4,0,0,1-.32.14.26.26,0,0,1-.29-.24.26.26,0,0,1,.29-.24.4.4,0,0,1,.32.14Zm2.3.3h.29v-1a.35.35,0,0,0-.38-.4.58.58,0,0,0-.46.24.33.33,0,0,0-.36-.24.61.61,0,0,0-.44.21v-.18h-.29v1.33h.29v-.93a.4.4,0,0,1,.31-.18c.16,0,.22.1.22.24v.87h.29v-.93a.4.4,0,0,1,.31-.18c.16,0,.22.1.22.24Z"/><rect class="cls-4" x="255.39" y="31.08" width="22.95" height="9.48"/><rect class="cls-11" x="256.77" y="32.66" width="19.95" height="6.32" rx="0.59"/><path d="M259.26,36.44a1,1,0,0,0,.75.3c.5,0,.71-.27.71-.57s-.36-.5-.66-.57-.41-.11-.41-.25.12-.23.31-.23a.74.74,0,0,1,.54.21l.18-.24a.94.94,0,0,0-.69-.26.6.6,0,0,0-.67.54c0,.39.35.48.65.55s.42.11.42.28-.1.25-.37.25a.79.79,0,0,1-.58-.26Zm2.9.26h.31l.41-1.33h-.3l-.28,1-.32-1h-.25l-.32,1-.28-1h-.31l.42,1.33h.3l.31-1Zm1.07-1.55a.18.18,0,1,0-.18-.18A.18.18,0,0,0,263.23,35.15Zm-.15,1.55h.29V35.37h-.29Zm1.07,0a.4.4,0,0,0,.28-.09l-.07-.22a.19.19,0,0,1-.13,0c-.09,0-.13-.07-.13-.16v-.7h.27v-.25h-.27V35h-.29v.37h-.22v.25h.22v.77A.31.31,0,0,0,264.15,36.74Zm.4-.71a.68.68,0,0,0,.69.71.58.58,0,0,0,.51-.24l-.19-.18a.35.35,0,0,1-.31.16.45.45,0,0,1,0-.89.37.37,0,0,1,.31.16l.19-.18a.61.61,0,0,0-.51-.23A.67.67,0,0,0,264.55,36Zm2.36.67h.29v-.94a.38.38,0,0,0-.43-.42.65.65,0,0,0-.47.21v-.69H266V36.7h.29v-.93a.44.44,0,0,1,.34-.18.24.24,0,0,1,.27.27Zm1.78,0a.36.36,0,0,0,.27-.09l-.07-.22a.16.16,0,0,1-.13,0c-.08,0-.12-.07-.12-.16v-.7h.27v-.25h-.27V35h-.29v.37h-.22v.25h.22v.77A.31.31,0,0,0,268.69,36.74Zm.4-.71a.67.67,0,0,0,.7.71.77.77,0,0,0,.54-.2l-.13-.19a.55.55,0,0,1-.38.15.42.42,0,0,1-.43-.37h1v-.07a.66.66,0,0,0-.66-.72A.67.67,0,0,0,269.09,36Zm.68-.46a.35.35,0,0,1,.37.36h-.75A.37.37,0,0,1,269.77,35.57Zm1.76,1.13h.29v-.88c0-.36-.26-.48-.56-.48a.78.78,0,0,0-.56.21l.12.2a.56.56,0,0,1,.4-.17c.18,0,.31.1.31.25V36a.56.56,0,0,0-.43-.17.43.43,0,0,0-.47.43.45.45,0,0,0,.47.45.59.59,0,0,0,.43-.18Zm0-.3a.4.4,0,0,1-.32.14.26.26,0,0,1-.29-.24.26.26,0,0,1,.29-.24.4.4,0,0,1,.32.14Zm2.3.3h.29v-1a.35.35,0,0,0-.38-.4.58.58,0,0,0-.46.24.33.33,0,0,0-.36-.24.61.61,0,0,0-.44.21v-.18h-.29V36.7h.29v-.93a.4.4,0,0,1,.31-.18c.16,0,.22.1.22.24v.87h.29v-.93a.4.4,0,0,1,.31-.18c.16,0,.22.1.22.24Z"/><rect class="cls-4" x="255.39" y="21.6" width="22.95" height="9.48"/><rect class="cls-4" x="110.46" y="-6.84" width="87.27" height="9.48"/><rect class="cls-4" x="110.46" y="2.64" width="87.27" height="9.48"/><path d="M114.7,8.3a.83.83,0,0,0,.71-.37l-.19-.11a.63.63,0,0,1-.52.27.71.71,0,0,1-.7-.75.71.71,0,0,1,.7-.75.66.66,0,0,1,.52.27l.19-.11a.84.84,0,0,0-.71-.36,1,1,0,0,0,0,1.91Zm1,0h.2V6.42h-.2Zm1.2,0a.66.66,0,0,0,.66-.71.66.66,0,1,0-1.32,0A.66.66,0,0,0,116.9,8.3Zm0-.19a.47.47,0,0,1-.44-.52.46.46,0,0,1,.44-.51.46.46,0,0,1,.44.51C117.34,7.87,117.19,8.11,116.9,8.11Zm1,.15h.21V7.32a.48.48,0,0,1,.36-.22h.08V6.9a.55.55,0,0,0-.44.24V6.93h-.21Zm1.5,0a.67.67,0,0,0,.66-.71.67.67,0,1,0-1.33,0A.67.67,0,0,0,119.4,8.3Zm0-.19a.47.47,0,0,1-.45-.52.45.45,0,1,1,.89,0A.47.47,0,0,1,119.4,8.11Zm1.77.15h.24l-.51-.68.48-.65h-.24l-.37.51-.37-.51h-.24l.49.65-.52.68h.24l.4-.54Z"/><rect class="cls-4" x="110.46" y="21.6" width="87.27" height="9.48"/><path d="M113.84,26.51a.75.75,0,1,0,1.5,0V25.38h-.23V26.5a.52.52,0,1,1-1,0V25.38h-.23Zm2.82.71h.21v-.93a.37.37,0,0,0-.42-.43.66.66,0,0,0-.48.22v-.19h-.21v1.33H116v-1a.51.51,0,0,1,.4-.21c.18,0,.29.08.29.31Zm.73-1.56a.14.14,0,0,0,.14-.14.14.14,0,0,0-.28,0A.14.14,0,0,0,117.39,25.66Zm-.1,1.56h.2V25.89h-.2Zm.95,0a.32.32,0,0,0,.25-.09l-.06-.15a.18.18,0,0,1-.14.05c-.09,0-.13-.07-.13-.17v-.83h.27v-.18h-.27v-.37H118v.37h-.22v.18H118V27A.27.27,0,0,0,118.24,27.26Zm.4-.71a.67.67,0,0,0,.68.71.73.73,0,0,0,.53-.21l-.1-.13a.61.61,0,0,1-.41.17.47.47,0,0,1-.48-.47h1.08v-.05a.64.64,0,0,0-.64-.71A.67.67,0,0,0,118.64,26.55Zm.66-.52a.44.44,0,0,1,.44.44h-.88A.44.44,0,0,1,119.3,26Zm2,1.19h.2V25.38h-.2v.71a.56.56,0,0,0-.45-.23c-.36,0-.6.27-.6.7a.62.62,0,0,0,.6.7.57.57,0,0,0,.45-.24Zm0-.36a.51.51,0,0,1-.41.21c-.26,0-.42-.22-.42-.51s.16-.52.42-.52a.51.51,0,0,1,.41.22Zm1.23.1a.92.92,0,0,0,.71.3c.49,0,.68-.28.68-.55s-.35-.48-.65-.56-.45-.12-.45-.3.16-.29.38-.29a.72.72,0,0,1,.54.22l.14-.17a.9.9,0,0,0-.66-.26c-.36,0-.63.21-.63.51s.33.45.62.53.47.12.47.34-.11.32-.43.32a.8.8,0,0,1-.59-.26Zm2,.3a.34.34,0,0,0,.25-.09l-.06-.15a.2.2,0,0,1-.14.05c-.09,0-.14-.07-.14-.17v-.83h.28v-.18h-.28v-.37h-.2v.37H124v.18h.22V27A.27.27,0,0,0,124.49,27.26Zm1.31,0H126v-.91c0-.33-.23-.45-.52-.45a.69.69,0,0,0-.53.22l.1.14a.53.53,0,0,1,.41-.19.3.3,0,0,1,.33.29v.24a.53.53,0,0,0-.44-.19.45.45,0,1,0,0,.89.58.58,0,0,0,.44-.19Zm0-.28a.45.45,0,0,1-.36.17.3.3,0,0,1-.33-.29.3.3,0,0,1,.33-.3.45.45,0,0,1,.36.17Zm1,.32a.32.32,0,0,0,.25-.09L127,27a.2.2,0,0,1-.14.05c-.09,0-.13-.07-.13-.17v-.83H127v-.18h-.27v-.37h-.21v.37h-.22v.18h.22V27A.27.27,0,0,0,126.76,27.26Zm.4-.71a.67.67,0,0,0,.68.71.73.73,0,0,0,.53-.21l-.1-.13a.61.61,0,0,1-.41.17.47.47,0,0,1-.48-.47h1.08v-.05a.64.64,0,0,0-.64-.71A.67.67,0,0,0,127.16,26.55Zm.66-.52a.44.44,0,0,1,.44.44h-.88A.44.44,0,0,1,127.82,26Zm.86,1a.73.73,0,0,0,.54.21c.35,0,.53-.18.53-.41s-.27-.36-.5-.41-.33-.09-.33-.21.11-.21.29-.21a.53.53,0,0,1,.4.17l.1-.14a.68.68,0,0,0-.5-.19c-.31,0-.49.17-.49.38s.25.34.48.39.34.09.34.24-.11.22-.31.22a.62.62,0,0,1-.44-.19Zm2.12.17H131v-.73h.51a.56.56,0,1,0,0-1.11h-.74Zm1.08-1.28a.34.34,0,0,1-.36.35H131v-.71h.49A.34.34,0,0,1,131.88,25.94ZM133,27.26a.67.67,0,0,0,.66-.71.66.66,0,1,0-.66.71Zm0-.19a.52.52,0,0,1,0-1,.52.52,0,0,1,0,1Zm.88,0a.72.72,0,0,0,.54.21c.34,0,.52-.18.52-.41s-.26-.36-.5-.41-.32-.09-.32-.21.11-.21.29-.21a.55.55,0,0,1,.4.17l.1-.14a.68.68,0,0,0-.5-.19c-.31,0-.49.17-.49.38s.25.34.48.39.34.09.34.24-.11.22-.31.22a.6.6,0,0,1-.44-.19Zm1.74.21a.36.36,0,0,0,.25-.09l-.06-.15a.22.22,0,0,1-.14.05c-.1,0-.14-.07-.14-.17v-.83h.27v-.18h-.27v-.37h-.21v.37h-.22v.18h.22V27A.28.28,0,0,0,135.59,27.26Zm1.31,0h.21v-.91c0-.33-.24-.45-.52-.45a.68.68,0,0,0-.53.22l.09.14a.53.53,0,0,1,.41-.19.3.3,0,0,1,.34.29v.24a.55.55,0,0,0-.44-.19.45.45,0,1,0,0,.89.58.58,0,0,0,.44-.19Zm0-.28a.45.45,0,0,1-.37.17.3.3,0,0,1-.33-.29.31.31,0,0,1,.33-.3.45.45,0,0,1,.37.17Zm.62.28h.21V25.38h-.21Zm1.23-.26a.94.94,0,0,0,.71.3c.5,0,.68-.28.68-.55s-.34-.48-.64-.56-.45-.12-.45-.3.16-.29.38-.29a.71.71,0,0,1,.53.22l.14-.17a.89.89,0,0,0-.66-.26c-.36,0-.63.21-.63.51s.33.45.63.53.46.12.46.34-.1.32-.43.32a.76.76,0,0,1-.58-.26Zm1.65-.41a.66.66,0,0,0,.68.71.73.73,0,0,0,.53-.21l-.1-.13a.63.63,0,0,1-.41.17.47.47,0,0,1-.48-.47h1.08v-.05a.64.64,0,0,0-.64-.71A.66.66,0,0,0,140.4,26.55Zm.65-.52a.42.42,0,0,1,.44.44h-.87A.44.44,0,0,1,141.05,26Zm1,1.19h.21v-.94a.5.5,0,0,1,.36-.22h.09v-.21a.57.57,0,0,0-.45.24v-.21H142Zm1.27,0h.23l.56-1.33h-.23L143.42,27,143,25.89h-.22Zm1.1-1.56a.14.14,0,1,0,0-.27.13.13,0,0,0-.13.13A.13.13,0,0,0,144.4,25.66Zm-.1,1.56h.21V25.89h-.21Zm.55-.67a.66.66,0,0,0,.66.71A.55.55,0,0,0,146,27l-.14-.12a.4.4,0,0,1-.34.17.52.52,0,0,1,0-1,.4.4,0,0,1,.34.17l.14-.12a.54.54,0,0,0-.49-.23A.65.65,0,0,0,144.85,26.55Zm1.36,0a.67.67,0,0,0,.68.71.77.77,0,0,0,.54-.21l-.1-.13a.63.63,0,0,1-.42.17.48.48,0,0,1-.48-.47h1.08v-.05a.64.64,0,0,0-.64-.71A.67.67,0,0,0,146.21,26.55Zm.66-.52a.43.43,0,0,1,.44.44h-.88A.44.44,0,0,1,146.87,26Z"/><rect class="cls-4" x="110.46" y="12.12" width="87.27" height="9.48"/><path d="M113.84,17.74h.23V16.9h1v-.2h-1v-.6h1v-.2h-1.2Zm1.43-.67a.66.66,0,0,0,.68.71.73.73,0,0,0,.53-.21l-.1-.13a.61.61,0,0,1-.41.17.47.47,0,0,1-.48-.47h1.08v-.05a.64.64,0,0,0-.64-.71A.67.67,0,0,0,115.27,17.07Zm.66-.52a.44.44,0,0,1,.44.44h-.88A.44.44,0,0,1,115.93,16.55Zm1.94,1.19h.21V15.9h-.21v.71a.53.53,0,0,0-.45-.23c-.35,0-.59.27-.59.7s.24.7.59.7a.55.55,0,0,0,.45-.24Zm0-.36a.47.47,0,0,1-.4.21c-.27,0-.43-.22-.43-.51s.16-.52.43-.52a.48.48,0,0,1,.4.22Zm.55-.31a.66.66,0,0,0,.68.71.73.73,0,0,0,.53-.21l-.1-.13a.61.61,0,0,1-.41.17.47.47,0,0,1-.48-.47h1.08v-.05a.64.64,0,0,0-.64-.71A.67.67,0,0,0,118.42,17.07Zm.65-.52a.42.42,0,0,1,.44.44h-.87A.44.44,0,0,1,119.07,16.55Zm1.76,1.19h.24l-.51-.68.48-.65h-.24l-.37.51-.37-.51h-.24l.48.65-.51.68H120l.4-.54Z"/><rect class="cls-4" x="110.46" y="31.08" width="87.27" height="9.48"/><path d="M113.75,36.7h1.35v-.2h-1l1-1.45v-.19h-1.33v.2h1l-1,1.45Zm1.8-1.56a.14.14,0,0,0,.14-.14.14.14,0,0,0-.14-.13.13.13,0,0,0-.14.13A.14.14,0,0,0,115.55,35.14Zm-.11,1.56h.21V35.37h-.21Zm.63,0h.2V34.86h-.2Zm.62,0h.2V34.86h-.2Zm1.2,0a.66.66,0,0,0,.66-.71.66.66,0,1,0-1.32,0A.66.66,0,0,0,117.89,36.74Zm0-.19a.52.52,0,0,1,0-1,.46.46,0,0,1,.44.51C118.33,36.31,118.18,36.55,117.89,36.55Zm2.16.15h.2l.43-1.33h-.22l-.32,1.06-.35-1.06h-.18l-.35,1.06-.33-1.06h-.21l.42,1.33h.21l.35-1.07Z"/></g></g><g class="cls-12"><g class="cls-13"><rect class="cls-14" x="52" y="17" width="238" height="269.73"/><rect class="cls-4" x="240.42" y="26.92" width="49.58" height="259.82" rx="0.5"/><rect class="cls-15" x="52" y="17" width="238" height="9.92"/><path class="cls-16" d="M56,19.31v2l2.63,2.64,2.64-2.64v-2L58.6,22Zm5.29,5.29v-2l-2,2ZM56,24.6h2l-2-2Zm6.48-5.29a.45.45,0,1,0,.44.45A.46.46,0,0,0,62.45,19.31Zm.22.7-.14-.2a.17.17,0,0,0-.05-.33h-.22V20h.1v-.17h.07l.12.19h.12a.39.39,0,0,1-.22.09.34.34,0,0,1-.34-.34.34.34,0,0,1,.34-.34.34.34,0,0,1,.34.34A.35.35,0,0,1,62.67,20Zm-.19-.29h-.12v-.13h.12s.07,0,.07.06A.08.08,0,0,1,62.48,19.72Z"/><path class="cls-4" d="M66.78,23h1.51v-.34H67.17V22h1.1v-.34h-1.1v-.57h1.12v-.34H66.78Zm2.87,0H70V21.89c0-.43-.31-.58-.67-.58a1,1,0,0,0-.67.26l.15.24a.65.65,0,0,1,.47-.2c.22,0,.37.11.37.3v.24a.64.64,0,0,0-.51-.21.52.52,0,0,0-.56.52.54.54,0,0,0,.56.53.68.68,0,0,0,.51-.21Zm0-.36a.46.46,0,0,1-.38.16.29.29,0,1,1,0-.57.47.47,0,0,1,.38.17Zm.66.15A1,1,0,0,0,71,23c.43,0,.67-.22.67-.5S71.32,22,71,22s-.35-.09-.35-.21.12-.18.3-.18a.62.62,0,0,1,.47.19l.15-.24a.92.92,0,0,0-.62-.23c-.41,0-.63.23-.63.49s.33.43.6.49.37.09.37.23-.11.2-.32.2a.79.79,0,0,1-.54-.23Zm1.68.52,0,.31a.63.63,0,0,0,.19,0,.54.54,0,0,0,.55-.36l.77-1.89h-.37l-.47,1.2-.46-1.2h-.37L72.43,23l-.08.18a.21.21,0,0,1-.23.14A.31.31,0,0,1,72,23.26ZM73.67,23H74v-.22a.63.63,0,0,0,.51.26c.41,0,.71-.31.71-.84a.75.75,0,0,0-.71-.84.64.64,0,0,0-.51.26v-.82h-.35Zm.35-.48v-.63a.51.51,0,0,1,.41-.22c.28,0,.45.22.45.53s-.17.53-.45.53A.51.51,0,0,1,74,22.47Zm2.55.48h.34V21.89c0-.43-.31-.58-.66-.58a1,1,0,0,0-.67.26l.14.24a.67.67,0,0,1,.47-.2c.22,0,.38.11.38.3v.24a.66.66,0,0,0-.52-.21.51.51,0,0,0-.55.52.53.53,0,0,0,.55.53.71.71,0,0,0,.52-.21Zm0-.36a.46.46,0,0,1-.38.16c-.2,0-.34-.11-.34-.28s.14-.29.34-.29a.47.47,0,0,1,.38.17Zm1.85.36h.44l-.68-.87.66-.73h-.42l-.71.77V20.75h-.35V23h.35v-.43l.22-.23Zm.5-.8a.8.8,0,0,0,.84.84.91.91,0,0,0,.64-.23l-.15-.23a.72.72,0,0,1-.46.18.49.49,0,0,1-.51-.44h1.24v-.09a.79.79,0,0,0-.79-.87A.81.81,0,0,0,78.92,22.15Zm.81-.55a.43.43,0,0,1,.45.42h-.9A.44.44,0,0,1,79.73,21.6Z"/><rect class="cls-14" x="55.97" y="32.21" width="180.48" height="33.55"/><path class="cls-17" d="M181.88,35.51h.78v-.15H182V34.19h-.16Zm1.57,0h.15v-.66c0-.23-.17-.32-.37-.32a.49.49,0,0,0-.38.16l.07.1a.37.37,0,0,1,.29-.13c.14,0,.24.07.24.2V35a.37.37,0,0,0-.31-.13.32.32,0,1,0,0,.63.37.37,0,0,0,.31-.13Zm0-.2a.3.3,0,0,1-.26.12.21.21,0,1,1,0-.42.3.3,0,0,1,.26.12Zm.37.07a.49.49,0,0,0,.39.15c.24,0,.37-.12.37-.28s-.19-.26-.36-.3-.23-.06-.23-.15.08-.15.21-.15a.39.39,0,0,1,.29.12l.07-.1a.5.5,0,0,0-.36-.14c-.23,0-.36.13-.36.28s.19.24.35.27.25.07.25.18-.08.15-.23.15a.43.43,0,0,1-.31-.13Zm1.25.15a.21.21,0,0,0,.17-.06l0-.11a.15.15,0,0,1-.1,0c-.07,0-.1,0-.1-.12v-.6h.2v-.13H185v-.26h-.15v.26h-.16v.13h.16v.63A.2.2,0,0,0,185.07,35.53Zm.76-.15a.49.49,0,0,0,.39.15c.25,0,.38-.12.38-.28s-.19-.26-.36-.3-.23-.06-.23-.15.08-.15.21-.15a.35.35,0,0,1,.28.12l.07-.1a.47.47,0,0,0-.35-.14c-.23,0-.36.13-.36.28s.18.24.35.27.24.07.24.18-.08.15-.22.15a.47.47,0,0,1-.32-.13Zm1.61.13h.15v-.66c0-.23-.17-.32-.37-.32a.51.51,0,0,0-.39.16l.07.1a.39.39,0,0,1,.3-.13c.14,0,.24.07.24.2V35a.41.41,0,0,0-.32-.13.32.32,0,1,0,0,.63.41.41,0,0,0,.32-.13Zm0-.2a.32.32,0,0,1-.26.12.21.21,0,1,1,0-.42.32.32,0,0,1,.26.12Zm.7.2h.16l.4-1h-.16l-.32.79-.32-.79h-.16Zm.66-.48a.48.48,0,0,0,.49.5.52.52,0,0,0,.38-.14l-.07-.1a.42.42,0,0,1-.3.12.34.34,0,0,1-.34-.33h.77v0a.47.47,0,0,0-.46-.51A.48.48,0,0,0,188.8,35Zm.47-.38a.31.31,0,0,1,.32.32H189A.32.32,0,0,1,189.27,34.65Zm1.4.86h.15V34.19h-.15v.51a.39.39,0,0,0-.32-.17.51.51,0,0,0,0,1,.39.39,0,0,0,.32-.16Zm0-.26a.36.36,0,0,1-.29.15c-.19,0-.31-.15-.31-.37a.33.33,0,0,1,.31-.37.35.35,0,0,1,.29.16Zm.91-.4c0,.32.14.68.51.68s.5-.36.5-.68-.14-.68-.5-.68S191.58,34.53,191.58,34.85Zm.84,0c0,.26-.08.54-.33.54s-.34-.28-.34-.54.08-.53.34-.53S192.42,34.59,192.42,34.85Zm2.09.66h.15v-.69c0-.19-.09-.29-.27-.29a.39.39,0,0,0-.32.18.25.25,0,0,0-.26-.18.42.42,0,0,0-.31.16v-.14h-.15v1h.15v-.7a.33.33,0,0,1,.25-.15c.13,0,.18.08.18.2v.65h.15v-.7a.32.32,0,0,1,.25-.15c.13,0,.18.08.18.2Zm.52-1.12a.1.1,0,0,0,.1-.1.1.1,0,1,0-.2,0A.1.1,0,0,0,195,34.39ZM195,35.51h.14v-1H195Zm1.09,0h.15v-.67a.28.28,0,0,0-.31-.31.48.48,0,0,0-.34.16v-.14h-.15v1h.15v-.7a.36.36,0,0,1,.28-.15.2.2,0,0,1,.22.22Zm1.09,0h.15v-1h-.15v.71a.4.4,0,0,1-.28.14c-.13,0-.22,0-.22-.22v-.63h-.15v.68c0,.21.11.3.31.3a.47.47,0,0,0,.34-.15Zm.69,0a.24.24,0,0,0,.18-.06l0-.11a.15.15,0,0,1-.1,0c-.06,0-.1,0-.1-.12v-.6h.2v-.13h-.2v-.26h-.14v.26h-.16v.13h.16v.63A.19.19,0,0,0,197.83,35.53Zm.28-.5a.48.48,0,0,0,.49.5.52.52,0,0,0,.38-.14l-.07-.1a.42.42,0,0,1-.3.12.34.34,0,0,1-.34-.33H199v0a.47.47,0,0,0-.46-.51A.48.48,0,0,0,198.11,35Zm.47-.38a.31.31,0,0,1,.32.32h-.63A.32.32,0,0,1,198.58,34.65Zm.62.73a.49.49,0,0,0,.39.15c.25,0,.38-.12.38-.28s-.2-.26-.36-.3-.24-.06-.24-.15.08-.15.22-.15a.37.37,0,0,1,.28.12l.07-.1a.47.47,0,0,0-.35-.14c-.23,0-.36.13-.36.28s.18.24.35.27.24.07.24.18-.08.15-.22.15a.43.43,0,0,1-.32-.13Zm2.12.13h.15v-.66c0-.23-.17-.32-.37-.32a.51.51,0,0,0-.39.16l.07.1a.39.39,0,0,1,.3-.13c.14,0,.24.07.24.2V35a.41.41,0,0,0-.32-.13.32.32,0,1,0,0,.63.41.41,0,0,0,.32-.13Zm0-.2a.33.33,0,0,1-.27.12.21.21,0,1,1,0-.42.33.33,0,0,1,.27.12Zm.44.45a.51.51,0,0,0,.39.14.4.4,0,0,0,.46-.42v-.93h-.15v.15a.4.4,0,0,0-.32-.17c-.26,0-.43.19-.43.5a.43.43,0,0,0,.43.49.4.4,0,0,0,.32-.17v.14a.28.28,0,0,1-.31.29.37.37,0,0,1-.31-.13Zm.7-.52a.36.36,0,0,1-.29.15.32.32,0,0,1-.31-.36c0-.22.12-.37.31-.37a.35.35,0,0,1,.29.16Zm.86.29a.5.5,0,0,0,0-1,.5.5,0,0,0,0,1Zm0-.13A.34.34,0,0,1,203,35a.34.34,0,0,1,.32-.37.33.33,0,0,1,.32.37A.33.33,0,0,1,203.32,35.4Z"/><g class="cls-18"><rect class="cls-19" x="206.53" y="32.21" width="12.4" height="5.29" rx="0.5"/><rect x="209.62" y="33.86" width="0.44" height="0.44"/><rect x="209.4" y="35.29" width="0.88" height="0.55"/><path class="cls-20" d="M210.83,34.63V34.3l-.44-.44h-.11v.66h-.88v-.66H209l-.11.11v1.87h.33v-.77h1.32v.77h.33V34.63Z"/><path d="M211.92,35.38a.82.82,0,0,0,.62.24c.42,0,.6-.22.6-.48s-.3-.41-.56-.47-.34-.09-.34-.21.11-.19.26-.19a.62.62,0,0,1,.45.17l.16-.2a.81.81,0,0,0-.58-.21c-.34,0-.56.19-.56.45s.29.4.54.46.36.09.36.23-.09.21-.31.21a.66.66,0,0,1-.49-.21Zm2.15.21h.24v-.74c0-.3-.22-.4-.47-.4a.69.69,0,0,0-.47.18l.1.17a.45.45,0,0,1,.33-.14c.16,0,.27.08.27.2V35a.47.47,0,0,0-.36-.14.35.35,0,0,0-.39.36.37.37,0,0,0,.39.37.48.48,0,0,0,.36-.15Zm0-.25a.32.32,0,0,1-.27.11c-.14,0-.24-.07-.24-.19a.21.21,0,0,1,.24-.21.33.33,0,0,1,.27.12Zm.85.25h.26l.46-1.11h-.27l-.32.83-.33-.83h-.26Zm.8-.56a.56.56,0,0,0,.58.59.65.65,0,0,0,.46-.16l-.11-.16a.47.47,0,0,1-.32.12.34.34,0,0,1-.36-.31h.87v0a.56.56,0,1,0-1.12,0Zm.57-.38a.29.29,0,0,1,.31.29H216A.31.31,0,0,1,216.29,34.65Z"/></g><rect class="cls-21" x="221.57" y="32.21" width="14.88" height="5.29" rx="0.5"/><path class="cls-4" d="M224.33,35.73a.66.66,0,1,1,0-1.32h0a.66.66,0,0,1,1.31.11.49.49,0,0,1,0,.12.55.55,0,0,1-.1,1.09H225V35l.25.25.16-.16-.52-.52-.52.52.16.16.25-.25v.72Z"/><path class="cls-4" d="M227,35.59h.27V35h.4a.49.49,0,1,0,0-1H227Zm.9-1.06a.24.24,0,0,1-.26.25h-.37v-.49h.37A.24.24,0,0,1,227.94,34.53Zm1.25,1.06h.24V34.48h-.24v.78a.36.36,0,0,1-.29.15c-.13,0-.22-.06-.22-.23v-.7h-.24v.79a.31.31,0,0,0,.35.35.53.53,0,0,0,.4-.17Zm.56,0H230v-.15a.47.47,0,0,0,.36.18.51.51,0,0,0,.5-.58.52.52,0,0,0-.5-.59.44.44,0,0,0-.36.18v-.58h-.24Zm.24-.33v-.44a.37.37,0,0,1,.29-.16.34.34,0,0,1,.32.38.34.34,0,0,1-.32.37A.4.4,0,0,1,230,35.26Zm1.1.33h.25V34.05h-.25Zm.68-1.3a.15.15,0,1,0,0-.3.15.15,0,1,0,0,.3Zm-.12,1.3h.24V34.48h-.24Zm.46-.14a.7.7,0,0,0,.48.17c.3,0,.47-.15.47-.35s-.24-.31-.44-.36-.24-.06-.24-.14.08-.13.21-.13a.44.44,0,0,1,.33.14l.1-.17a.62.62,0,0,0-.43-.16c-.29,0-.44.16-.44.34s.23.3.42.34.25.07.25.16-.07.14-.22.14a.6.6,0,0,1-.38-.16Zm1.95.14h.24V34.8a.32.32,0,0,0-.36-.35.54.54,0,0,0-.4.18v-.58h-.24v1.54h.24v-.78a.41.41,0,0,1,.29-.15.2.2,0,0,1,.23.23Z"/><path class="cls-21" d="M56.45,35.51h.16V34.33H57v-.14H56v.14h.42Zm.63,0h.15v-.68a.37.37,0,0,1,.26-.15h.06v-.16a.41.41,0,0,0-.32.18v-.16h-.15Zm1.25,0h.15v-.66c0-.23-.17-.32-.37-.32a.48.48,0,0,0-.38.16l.07.1a.36.36,0,0,1,.29-.13c.14,0,.24.07.24.2V35A.39.39,0,0,0,58,34.9a.32.32,0,1,0,0,.63.41.41,0,0,0,.32-.13Zm0-.2a.32.32,0,0,1-.26.12.21.21,0,1,1,0-.42.32.32,0,0,1,.26.12Zm.39-.28a.47.47,0,0,0,.48.5.41.41,0,0,0,.35-.16l-.1-.09a.29.29,0,0,1-.24.12.37.37,0,0,1,0-.74.27.27,0,0,1,.24.13l.1-.09a.39.39,0,0,0-.35-.17A.48.48,0,0,0,58.72,35Zm1.69.48h.19L60.18,35l.42-.44h-.19l-.5.51v-.87h-.15v1.32h.15v-.27l.16-.16Zm.27-.48a.47.47,0,0,0,.49.5.56.56,0,0,0,.38-.14l-.08-.1a.38.38,0,0,1-.29.12.34.34,0,0,1-.35-.33h.78v0a.47.47,0,0,0-.46-.51A.48.48,0,0,0,60.68,35Zm.47-.38a.31.31,0,0,1,.31.32h-.63A.32.32,0,0,1,61.15,34.65Zm.7.86H62v-.68a.37.37,0,0,1,.26-.15h.06v-.16a.42.42,0,0,0-.32.18v-.16h-.15Zm.57-.13a.49.49,0,0,0,.39.15c.25,0,.38-.12.38-.28S63,35,62.83,35s-.24-.06-.24-.15.08-.15.21-.15a.37.37,0,0,1,.29.12l.07-.1a.48.48,0,0,0-.36-.14c-.22,0-.35.13-.35.28s.18.24.34.27.25.07.25.18-.08.15-.23.15a.43.43,0,0,1-.31-.13Z"/><path class="cls-17" d="M64.73,35.55h.11l.47-1.4H65.2Z"/><path class="cls-21" d="M66.86,35.51h.61a.34.34,0,0,0,.38-.36.33.33,0,0,0-.26-.32.31.31,0,0,0,.23-.3.33.33,0,0,0-.37-.34h-.59Zm.17-.75v-.43h.4a.21.21,0,0,1,.22.22.2.2,0,0,1-.22.21Zm0,.6v-.45h.4a.23.23,0,0,1,.25.23c0,.14-.09.22-.25.22Zm1.08.15h.14v-.68a.39.39,0,0,1,.26-.15h.06v-.16a.42.42,0,0,0-.32.18v-.16h-.14Zm1.25,0h.15v-.66c0-.23-.17-.32-.37-.32a.51.51,0,0,0-.39.16l.07.1a.39.39,0,0,1,.3-.13c.14,0,.24.07.24.2V35A.41.41,0,0,0,69,34.9a.32.32,0,1,0,0,.63.41.41,0,0,0,.32-.13Zm0-.2a.32.32,0,0,1-.26.12.21.21,0,1,1,0-.42.32.32,0,0,1,.26.12Zm1.09.2h.15v-.67c0-.21-.1-.31-.3-.31a.44.44,0,0,0-.34.16v-.14h-.15v1H70v-.7a.34.34,0,0,1,.28-.15c.13,0,.21.06.21.22Zm1.14,0h.15V34.19h-.15v.51a.37.37,0,0,0-.32-.17.45.45,0,0,0-.43.5.44.44,0,0,0,.43.5.39.39,0,0,0,.32-.16Zm0-.26a.36.36,0,0,1-.28.15c-.2,0-.31-.15-.31-.37s.11-.37.31-.37a.34.34,0,0,1,.28.16Zm1.29.26h.17V34.33h.42v-.14h-1v.14h.41Zm.63,0h.15v-.68a.39.39,0,0,1,.26-.15H74v-.16a.42.42,0,0,0-.32.18v-.16h-.15Zm1.26,0h.15v-.66c0-.23-.17-.32-.37-.32a.51.51,0,0,0-.39.16l.07.1a.39.39,0,0,1,.3-.13c.13,0,.24.07.24.2V35a.41.41,0,0,0-.32-.13.32.32,0,1,0,0,.63.41.41,0,0,0,.32-.13Zm0-.2a.33.33,0,0,1-.27.12.21.21,0,1,1,0-.42.33.33,0,0,1,.27.12Zm.39-.28a.47.47,0,0,0,.48.5.43.43,0,0,0,.35-.16l-.1-.09a.32.32,0,0,1-.25.12.37.37,0,0,1,0-.74.3.3,0,0,1,.25.13l.1-.09a.41.41,0,0,0-.35-.17A.47.47,0,0,0,75.16,35Zm1.69.48H77L76.61,35l.43-.44h-.19l-.51.51v-.87H76.2v1.32h.14v-.27l.16-.16Zm.26-.48a.48.48,0,0,0,.49.5.52.52,0,0,0,.38-.14l-.07-.1a.42.42,0,0,1-.3.12.34.34,0,0,1-.34-.33H78v0a.47.47,0,0,0-.46-.51A.48.48,0,0,0,77.11,35Zm.47-.38a.31.31,0,0,1,.32.32h-.63A.32.32,0,0,1,77.58,34.65Zm.71.86h.14v-.68a.39.39,0,0,1,.26-.15h.06v-.16a.42.42,0,0,0-.32.18v-.16h-.14Z"/><path class="cls-17" d="M80.26,35.55h.12l.47-1.4h-.12Z"/><path class="cls-17" d="M83.41,35.51h.18L84,34.19h-.19l-.29,1.1-.3-1.1h-.14l-.3,1.1-.29-1.1h-.19l.38,1.32h.18l.29-1.07Zm1.26,0h.14v-.66c0-.23-.16-.32-.37-.32a.49.49,0,0,0-.38.16l.07.1a.37.37,0,0,1,.29-.13c.14,0,.25.07.25.2V35a.41.41,0,0,0-.32-.13.32.32,0,1,0,0,.63.41.41,0,0,0,.32-.13Zm0-.2a.33.33,0,0,1-.27.12.21.21,0,1,1,0-.42.33.33,0,0,1,.27.12Zm.7.2h.16l.4-1h-.16l-.32.79-.32-.79H85ZM86,35a.47.47,0,0,0,.49.5.56.56,0,0,0,.38-.14l-.07-.1a.42.42,0,0,1-.3.12.33.33,0,0,1-.34-.33H87v0a.47.47,0,0,0-.46-.51A.48.48,0,0,0,86,35Zm.47-.38a.31.31,0,0,1,.31.32h-.62A.31.31,0,0,1,86.5,34.65Zm1.42.86h.16V34.19h-.14l-.33.34.1.1.21-.22Zm1,0h.87v-.15h-.7v-.45h.69v-.15h-.69v-.43h.7v-.14H88.9Zm1.82,0h.15V34.19h-.15v.51a.39.39,0,0,0-.32-.17.51.51,0,0,0,0,1,.39.39,0,0,0,.32-.16Zm0-.26a.36.36,0,0,1-.29.15c-.19,0-.31-.15-.31-.37a.33.33,0,0,1,.31-.37.35.35,0,0,1,.29.16Zm.52-.86a.09.09,0,0,0,.1-.1.1.1,0,0,0-.1-.1.11.11,0,0,0-.1.1A.1.1,0,0,0,91.24,34.39Zm-.07,1.12h.15v-1h-.15Zm.68,0a.23.23,0,0,0,.18-.06l0-.11a.15.15,0,0,1-.1,0c-.07,0-.1,0-.1-.12v-.6H92v-.13h-.19v-.26h-.15v.26h-.16v.13h.16v.63A.19.19,0,0,0,91.85,35.53Zm.76,0a.5.5,0,1,0-.47-.5A.47.47,0,0,0,92.61,35.53Zm0-.13a.34.34,0,0,1-.32-.37.34.34,0,0,1,.32-.37.33.33,0,0,1,.32.37A.33.33,0,0,1,92.61,35.4Zm.72.11h.15v-.68a.37.37,0,0,1,.26-.15h.06v-.16a.42.42,0,0,0-.32.18v-.16h-.15Z"/><path class="cls-17" d="M56.11,44.6H57v-.2h-.67V44H57v-.2h-.66v-.35H57v-.2h-.9Zm1.39,0H58a.66.66,0,1,0,0-1.32H57.5Zm.23-.2v-.92H58a.44.44,0,0,1,.46.46.44.44,0,0,1-.46.46Zm1.43.2h.23V43.28h-.23Zm1.07,0h.23V43.48h.41v-.2h-1v.2h.4Zm1-.66a.68.68,0,1,0,.68-.68A.66.66,0,0,0,61.2,43.94Zm1.11,0a.44.44,0,1,1-.43-.48A.44.44,0,0,1,62.31,43.94Zm1.47.66h.27l-.33-.52a.37.37,0,0,0,.32-.39.4.4,0,0,0-.43-.41H63V44.6h.24v-.49h.23Zm0-.91a.21.21,0,0,1-.23.21h-.31v-.42h.31A.22.22,0,0,1,63.8,43.69Z"/><path d="M58.66,50.88h.57l.88-3.08h-.6l-.6,2.37-.64-2.37h-.43l-.64,2.37-.6-2.37H56l.89,3.08h.58l.59-2.27Zm3,0h.49V49.4c0-.6-.44-.81-.93-.81a1.35,1.35,0,0,0-.94.36l.2.34a.9.9,0,0,1,.66-.28c.31,0,.52.16.52.41v.34a.92.92,0,0,0-.72-.29.72.72,0,0,0-.78.73.74.74,0,0,0,.78.74.93.93,0,0,0,.72-.3Zm0-.51a.63.63,0,0,1-.53.23c-.27,0-.48-.15-.48-.39a.43.43,0,0,1,.48-.41.64.64,0,0,1,.53.24Zm1.71.51h.52l.91-2.23h-.52l-.66,1.67L63,48.65h-.52ZM65,49.76a1.13,1.13,0,0,0,1.17,1.18,1.26,1.26,0,0,0,.9-.33l-.22-.32a.93.93,0,0,1-.63.25.67.67,0,0,1-.71-.62h1.72v-.11a1.11,1.11,0,0,0-1.1-1.22A1.13,1.13,0,0,0,65,49.76ZM66.08,49a.6.6,0,0,1,.63.59H65.45A.61.61,0,0,1,66.08,49Zm3.34,1.89H70V47.8h-.47l-.89.89.32.33.5-.52Z"/><path class="cls-17" d="M58.39,55.26a1.1,1.1,0,1,1-1.1-1.1A1.1,1.1,0,0,1,58.39,55.26Z"/><path class="cls-17" d="M59.44,56H60a.78.78,0,1,0,0-1.55h-.57Zm.27-.24V54.7H60a.54.54,0,0,1,0,1.07Zm1.36.24h.25v-.77a.38.38,0,0,1,.28-.14h.08v-.24a.48.48,0,0,0-.36.19v-.16h-.25Zm1.49,0h.24v-.74c0-.31-.22-.41-.47-.41a.65.65,0,0,0-.46.18l.09.17a.45.45,0,0,1,.34-.14c.15,0,.26.08.26.21v.16a.47.47,0,0,0-.36-.14.36.36,0,0,0-.39.36.37.37,0,0,0,.39.37.51.51,0,0,0,.36-.14Zm0-.26a.33.33,0,0,1-.27.12c-.14,0-.24-.08-.24-.2s.1-.2.24-.2a.35.35,0,0,1,.27.11Zm.61.26h.25V55.1h.22v-.21h-.22v-.06c0-.13.06-.19.15-.19a.16.16,0,0,1,.1,0l0-.18a.53.53,0,0,0-.19,0,.35.35,0,0,0-.36.39v.06H63v.21h.18Zm1,0a.31.31,0,0,0,.23-.07l-.06-.18a.14.14,0,0,1-.11,0c-.06,0-.1-.06-.1-.13V55.1h.23v-.21h-.23v-.31h-.24v.31h-.19v.21h.19v.65A.25.25,0,0,0,64.16,56Z"/><path class="cls-22" d="M56.74,62.92h1l.44.44v1.43a.33.33,0,0,1-.33.33h-1.1a.33.33,0,0,1-.33-.33V63.25A.33.33,0,0,1,56.74,62.92Zm1.1.66h-1.1v.22h1.1Zm-1.1.44h1.1v.22h-1.1Zm1.1.44h-1.1v.22h1.1Z"/><path class="cls-21" d="M61.17,64.77h.27V63.22h-.28v1.1l-.78-1.1H60.1v1.55h.27V63.64Zm1.27,0h.24V64c0-.3-.22-.4-.46-.4a.67.67,0,0,0-.47.18l.1.17a.42.42,0,0,1,.33-.14c.15,0,.26.08.26.21v.16a.47.47,0,0,0-.36-.14.36.36,0,0,0-.39.36.37.37,0,0,0,.39.37.45.45,0,0,0,.36-.15Zm0-.26a.33.33,0,0,1-.27.12.22.22,0,0,1-.24-.2c0-.13.11-.2.24-.2a.35.35,0,0,1,.27.11Zm.89.28a.31.31,0,0,0,.23-.07l-.06-.18a.16.16,0,0,1-.11,0c-.06,0-.1-.06-.1-.13v-.59h.22v-.21h-.22v-.31h-.24v.31h-.19v.21h.19v.65A.25.25,0,0,0,63.33,64.79Zm.53-1.33a.15.15,0,0,0,.15-.15.15.15,0,0,0-.15-.15.15.15,0,0,0-.15.15A.14.14,0,0,0,63.86,63.46Zm-.12,1.31H64V63.65h-.24Zm1.06,0a.55.55,0,0,0,.57-.58.56.56,0,0,0-.57-.59.56.56,0,0,0-.58.59A.56.56,0,0,0,64.8,64.79Zm0-.21a.33.33,0,0,1-.32-.37.32.32,0,1,1,.64,0A.33.33,0,0,1,64.8,64.58Zm1.57.19h.25V64a.32.32,0,0,0-.36-.36.54.54,0,0,0-.4.18v-.15h-.24v1.12h.24V64a.36.36,0,0,1,.29-.15c.14,0,.22,0,.22.23Zm1.25,0h.24V64c0-.3-.22-.4-.47-.4a.69.69,0,0,0-.47.18L67,64a.45.45,0,0,1,.33-.14c.16,0,.27.08.27.21v.16a.51.51,0,0,0-.37-.14.36.36,0,0,0-.38.36.36.36,0,0,0,.38.37.48.48,0,0,0,.37-.15Zm0-.26a.33.33,0,0,1-.27.12c-.14,0-.24-.08-.24-.2s.1-.2.24-.2a.35.35,0,0,1,.27.11Zm.55.26h.25V63.22h-.25Zm1.53,0H70V63.46h.47v-.24H69.23v.24h.47Zm.65-.56a.56.56,0,0,0,.58.58.65.65,0,0,0,.46-.16l-.11-.16a.47.47,0,0,1-.32.12.34.34,0,0,1-.36-.3h.87v-.06a.56.56,0,1,0-1.12,0Zm.56-.39a.31.31,0,0,1,.32.3H70.6A.31.31,0,0,1,70.91,63.82Zm2.17.95h.24V64a.3.3,0,0,0-.32-.34.45.45,0,0,0-.38.21.29.29,0,0,0-.31-.21.46.46,0,0,0-.36.18v-.15h-.24v1.12H72V64a.32.32,0,0,1,.26-.15c.13,0,.18.08.18.2v.73h.24V64a.34.34,0,0,1,.26-.14.18.18,0,0,1,.19.2Zm.8.42v-.58a.42.42,0,0,0,.35.18.51.51,0,0,0,.5-.58c0-.37-.21-.59-.5-.59a.44.44,0,0,0-.35.18v-.15h-.25v1.54Zm.6-1a.34.34,0,0,1-.32.37.36.36,0,0,1-.28-.15V64a.33.33,0,0,1,.6.22Zm.5.56h.24V63.22H75Zm1.24,0h.24V64c0-.3-.22-.4-.47-.4a.69.69,0,0,0-.47.18l.1.17a.45.45,0,0,1,.33-.14c.16,0,.27.08.27.21v.16a.5.5,0,0,0-.37-.14.36.36,0,0,0-.38.36.36.36,0,0,0,.38.37.48.48,0,0,0,.37-.15Zm0-.26a.33.33,0,0,1-.27.12c-.14,0-.24-.08-.24-.2s.1-.2.24-.2a.35.35,0,0,1,.27.11Zm.89.28a.35.35,0,0,0,.23-.07l-.06-.18a.16.16,0,0,1-.11,0c-.07,0-.1-.06-.1-.13v-.59h.22v-.21h-.22v-.31h-.25v.31h-.18v.21h.18v.65A.26.26,0,0,0,77.11,64.79Zm.33-.58a.56.56,0,0,0,.59.58.62.62,0,0,0,.45-.16l-.11-.16a.47.47,0,0,1-.32.12.33.33,0,0,1-.35-.3h.86v-.06a.55.55,0,0,0-.55-.61A.57.57,0,0,0,77.44,64.21Zm.57-.39a.29.29,0,0,1,.31.3H77.7A.3.3,0,0,1,78,63.82Z"/><path class="cls-22" d="M85.17,63.58l-.56-.44v.33H83v.22h1.65V64ZM83,64.46l.55-.44v.33h1.66v.22H83.51v.33Z"/><path class="cls-21" d="M86.87,64.77h.58a.78.78,0,1,0,0-1.55h-.58Zm.27-.24V63.46h.31A.5.5,0,0,1,88,64a.51.51,0,0,1-.53.54ZM88.5,65l0,.21.14,0A.37.37,0,0,0,89,65l.54-1.32h-.26l-.33.84-.32-.84h-.26l.45,1.13,0,.13a.15.15,0,0,1-.16.09Zm1.93-.22h.24V64a.32.32,0,0,0-.36-.36.5.5,0,0,0-.39.18v-.15h-.25v1.12h.25V64a.34.34,0,0,1,.28-.15c.14,0,.23,0,.23.23Zm1.24,0h.24V64c0-.3-.22-.4-.46-.4a.67.67,0,0,0-.47.18l.1.17a.42.42,0,0,1,.33-.14c.15,0,.26.08.26.21v.16a.47.47,0,0,0-.36-.14.36.36,0,0,0-.39.36.37.37,0,0,0,.39.37.48.48,0,0,0,.36-.15Zm0-.26a.33.33,0,0,1-.27.12.22.22,0,0,1-.24-.2c0-.13.11-.2.24-.2a.35.35,0,0,1,.27.11Zm1.93.26h.24V64a.3.3,0,0,0-.32-.34.45.45,0,0,0-.38.21.29.29,0,0,0-.31-.21.46.46,0,0,0-.36.18v-.15h-.24v1.12h.24V64a.32.32,0,0,1,.26-.15c.13,0,.18.08.18.2v.73h.24V64a.34.34,0,0,1,.26-.14.18.18,0,0,1,.19.2Zm.67-1.31a.14.14,0,0,0,.15-.15.15.15,0,0,0-.15-.15.15.15,0,0,0-.15.15A.15.15,0,0,0,94.27,63.46Zm-.12,1.31h.25V63.65h-.25Zm.49-.56a.56.56,0,0,0,.58.58.5.5,0,0,0,.43-.2l-.16-.14a.32.32,0,0,1-.26.13.34.34,0,0,1-.34-.37.34.34,0,0,1,.34-.37.29.29,0,0,1,.26.13l.16-.15a.5.5,0,0,0-.43-.2A.56.56,0,0,0,94.64,64.21Zm2.15.58a.33.33,0,0,0,.23-.07L97,64.54a.16.16,0,0,1-.11,0c-.07,0-.1-.06-.1-.13v-.59H97v-.21h-.22v-.31H96.5v.31h-.18v.21h.18v.65A.26.26,0,0,0,96.79,64.79Zm.34-.58a.56.56,0,0,0,.58.58.62.62,0,0,0,.45-.16l-.11-.16a.47.47,0,0,1-.31.12.34.34,0,0,1-.36-.3h.86v-.06a.55.55,0,0,0-.55-.61A.56.56,0,0,0,97.13,64.21Zm.56-.39a.31.31,0,0,1,.32.3h-.63A.3.3,0,0,1,97.69,63.82Zm1.41.95h.27L99,64.19l.38-.54h-.27l-.26.38-.27-.38h-.27l.38.54-.41.58h.27l.3-.42Zm.77,0a.31.31,0,0,0,.23-.07l-.06-.18a.13.13,0,0,1-.1,0,.12.12,0,0,1-.11-.13v-.59h.23v-.21h-.23v-.31h-.24v.31H99.4v.21h.19v.65A.25.25,0,0,0,99.87,64.79Z"/><path class="cls-21" d="M106.2,64.14a.09.09,0,0,0-.15.06v.19h-.19l-.71-.93a.12.12,0,0,0-.1-.05h-.37a.12.12,0,0,0-.12.13.12.12,0,0,0,.12.12H105l.71.92a.12.12,0,0,0,.1,0h.25v.18a.1.1,0,0,0,.16.07l.3-.31a.09.09,0,0,0,0-.13Zm-.34-.48h.19v.18a.09.09,0,0,0,.15.06l.31-.3a.09.09,0,0,0,0-.13l-.31-.3a.09.09,0,0,0-.16.06v.18h-.24a.12.12,0,0,0-.1.05l-.16.21.16.2Zm-.87.73h-.31a.12.12,0,0,0-.12.12.12.12,0,0,0,.12.12h.37a.12.12,0,0,0,.1,0l.16-.2-.15-.21Z"/><path class="cls-21" d="M109.24,64.77h.31l-.37-.61a.43.43,0,0,0,.36-.45.47.47,0,0,0-.5-.49h-.68v1.55h.27v-.58h.27Zm0-1.06A.24.24,0,0,1,109,64h-.37v-.49H109A.24.24,0,0,1,109.26,63.71Zm1.18,1.06h.25V64c0-.3-.22-.4-.47-.4a.67.67,0,0,0-.47.18l.1.17a.45.45,0,0,1,.33-.14c.16,0,.26.08.26.21v.16a.47.47,0,0,0-.36-.14.36.36,0,0,0-.39.36.37.37,0,0,0,.39.37.45.45,0,0,0,.36-.15Zm0-.26a.31.31,0,0,1-.26.12c-.14,0-.24-.08-.24-.2s.1-.2.24-.2a.33.33,0,0,1,.26.11Zm1.31.26H112V64a.32.32,0,0,0-.36-.36.54.54,0,0,0-.4.18v-.15H111v1.12h.24V64a.36.36,0,0,1,.29-.15c.14,0,.22,0,.22.23Zm1.35,0h.24V63.22h-.24v.58a.44.44,0,0,0-.36-.18.52.52,0,0,0-.5.59c0,.37.21.58.5.58a.47.47,0,0,0,.36-.18Zm0-.34a.38.38,0,0,1-.29.15.33.33,0,0,1-.31-.37c0-.22.12-.37.31-.37a.35.35,0,0,1,.29.15Zm1.06.36a.56.56,0,0,0,.58-.58.58.58,0,1,0-1.15,0A.55.55,0,0,0,114.16,64.79Zm0-.21a.34.34,0,0,1-.32-.37.33.33,0,1,1,.65,0A.34.34,0,0,1,114.16,64.58Zm2.19.19h.25V64a.3.3,0,0,0-.32-.34.45.45,0,0,0-.38.21.29.29,0,0,0-.31-.21.46.46,0,0,0-.36.18v-.15H115v1.12h.25V64a.32.32,0,0,1,.25-.15c.14,0,.19.08.19.2v.73h.24V64a.34.34,0,0,1,.26-.14c.13,0,.18.08.18.2Zm.68-1.31a.15.15,0,0,0,.15-.15.15.15,0,0,0-.3,0A.15.15,0,0,0,117,63.46Zm-.12,1.31h.24V63.65h-.24Zm.51,0h.88v-.22h-.56l.56-.72v-.18h-.88v.21H118l-.55.72Zm1.08-.56a.56.56,0,0,0,.59.58.64.64,0,0,0,.45-.16l-.11-.16a.47.47,0,0,1-.32.12.32.32,0,0,1-.35-.3h.86v-.06a.56.56,0,0,0-.55-.61A.57.57,0,0,0,118.5,64.21Zm.57-.39a.29.29,0,0,1,.31.3h-.63A.31.31,0,0,1,119.07,63.82Zm1.38.95h.25v-.16a.44.44,0,0,0,.35.18c.29,0,.5-.21.5-.58a.52.52,0,0,0-.5-.59.41.41,0,0,0-.35.18v-.58h-.25Zm.25-.34V64a.33.33,0,0,1,.28-.15c.2,0,.32.15.32.37s-.12.37-.32.37A.36.36,0,0,1,120.7,64.43Zm1.1.34H122V63.22h-.24Zm1.06,0a.56.56,0,0,0,.58-.58.58.58,0,1,0-1.15,0A.55.55,0,0,0,122.86,64.79Zm0-.21a.33.33,0,0,1-.32-.37.32.32,0,1,1,.64,0A.33.33,0,0,1,122.86,64.58Zm.75-.37a.56.56,0,0,0,.58.58.5.5,0,0,0,.43-.2l-.16-.14a.32.32,0,0,1-.26.13.34.34,0,0,1-.34-.37.34.34,0,0,1,.34-.37.29.29,0,0,1,.26.13l.16-.15a.5.5,0,0,0-.43-.2A.56.56,0,0,0,123.61,64.21Zm2,.56h.31l-.48-.62.47-.5h-.3l-.5.54v-1h-.24v1.55h.24v-.31l.16-.16Zm.36-.15a.7.7,0,0,0,.48.17c.3,0,.46-.15.46-.34s-.23-.32-.43-.37-.24-.06-.24-.14.08-.13.21-.13a.44.44,0,0,1,.33.14l.1-.17a.65.65,0,0,0-.44-.16c-.28,0-.44.16-.44.34s.23.3.43.34.25.07.25.16-.07.14-.22.14a.58.58,0,0,1-.38-.16Z"/><path class="cls-21" d="M133.18,63l-.07,0a.92.92,0,0,1-.4.1c-.23,0-.36-.12-.62-.12a1.22,1.22,0,0,0-.51.13h0a.12.12,0,0,0-.12-.12.13.13,0,0,0-.13.12V65s0,.06.07.06h.12a.06.06,0,0,0,.06-.06v-.43a1.09,1.09,0,0,1,.5-.13c.27,0,.47.13.74.13a1.22,1.22,0,0,0,.42-.09.13.13,0,0,0,.08-.11V63.15A.13.13,0,0,0,133.18,63Zm-.11.55a1.4,1.4,0,0,1-.31.09V64a1.25,1.25,0,0,0,.31-.07v.32a.77.77,0,0,1-.25,0h-.06V64h0a1,1,0,0,1-.26,0v.26l-.31,0v-.29h0a.92.92,0,0,0-.26,0v.27a1.44,1.44,0,0,0-.25.08V64l.1,0,.15-.06v-.31a1.77,1.77,0,0,0-.25.08v-.25l.1,0,.15-.05v.26a.92.92,0,0,1,.26,0h0v-.27l.21,0,.1,0v.26a.71.71,0,0,0,.26.05h0V63.4a1.25,1.25,0,0,0,.31-.07Zm-.93,0v.31a.58.58,0,0,1,.21,0l.1,0v-.32A1.29,1.29,0,0,0,132.14,63.55Z"/><path class="cls-21" d="M135.5,64.77h.27V63.46h.47v-.24H135v.24h.47Zm.65-.56a.56.56,0,0,0,.58.58.65.65,0,0,0,.46-.16l-.11-.16a.47.47,0,0,1-.32.12.34.34,0,0,1-.36-.3h.87v-.06a.56.56,0,1,0-1.12,0Zm.57-.39a.29.29,0,0,1,.31.3h-.63A.31.31,0,0,1,136.72,63.82Zm.79.95h.24V64a.4.4,0,0,1,.29-.14h.07v-.24a.5.5,0,0,0-.36.19v-.16h-.24Zm2.17,0h.24V64c0-.23-.11-.34-.32-.34a.45.45,0,0,0-.38.21.29.29,0,0,0-.31-.21.5.5,0,0,0-.36.18v-.15h-.24v1.12h.24V64a.32.32,0,0,1,.26-.15c.13,0,.18.08.18.2v.73h.25V64a.32.32,0,0,1,.26-.14c.12,0,.18.08.18.2Zm.68-1.31a.15.15,0,0,0,.15-.15.15.15,0,0,0-.3,0A.15.15,0,0,0,140.36,63.46Zm-.12,1.31h.24V63.65h-.24Zm1.31,0h.24V64a.32.32,0,0,0-.36-.36.5.5,0,0,0-.39.18v-.15h-.25v1.12H141V64a.34.34,0,0,1,.28-.15c.14,0,.23,0,.23.23Zm1.24,0H143V64c0-.3-.22-.4-.46-.4a.67.67,0,0,0-.47.18l.1.17a.42.42,0,0,1,.33-.14c.15,0,.26.08.26.21v.16a.47.47,0,0,0-.36-.14.36.36,0,0,0-.39.36.37.37,0,0,0,.39.37.45.45,0,0,0,.36-.15Zm0-.26a.33.33,0,0,1-.27.12.22.22,0,0,1-.24-.2c0-.13.11-.2.24-.2a.35.35,0,0,1,.27.11Zm.89.28a.31.31,0,0,0,.23-.07l-.06-.18a.13.13,0,0,1-.1,0,.12.12,0,0,1-.11-.13v-.59h.23v-.21h-.23v-.31h-.24v.31h-.19v.21h.19v.65A.25.25,0,0,0,143.68,64.79Zm.53-1.33a.15.15,0,0,0,.15-.15.15.15,0,0,0-.3,0A.15.15,0,0,0,144.21,63.46Zm-.12,1.31h.24V63.65h-.24Zm1.06,0a.56.56,0,0,0,.58-.58.56.56,0,0,0-.58-.59.56.56,0,0,0-.57.59A.55.55,0,0,0,145.15,64.79Zm0-.21a.33.33,0,0,1-.32-.37.32.32,0,1,1,.64,0A.33.33,0,0,1,145.15,64.58Zm1.58.19H147V64a.32.32,0,0,0-.36-.36.54.54,0,0,0-.4.18v-.15H146v1.12h.24V64a.38.38,0,0,1,.29-.15c.14,0,.23,0,.23.23Zm1.15,0h.24V63.22h-.24Zm1.06,0a.56.56,0,0,0,.58-.58.58.58,0,1,0-1.15,0A.55.55,0,0,0,148.94,64.79Zm0-.21a.33.33,0,0,1-.32-.37.32.32,0,1,1,.64,0A.33.33,0,0,1,148.94,64.58Zm.81.47a.62.62,0,0,0,.47.17c.27,0,.57-.11.57-.51V63.65h-.24v.15a.44.44,0,0,0-.36-.18.5.5,0,0,0-.5.57c0,.37.21.58.5.58a.48.48,0,0,0,.36-.19v.14a.29.29,0,0,1-.33.3.45.45,0,0,1-.36-.14Zm.8-.65a.36.36,0,0,1-.29.15c-.19,0-.31-.14-.31-.36a.31.31,0,0,1,.31-.35.36.36,0,0,1,.29.15Zm.68-.94a.15.15,0,0,0,.15-.15.15.15,0,0,0-.15-.15.16.16,0,0,0-.16.15A.15.15,0,0,0,151.23,63.46Zm-.13,1.31h.25V63.65h-.25Zm.49-.56a.56.56,0,0,0,.58.58.5.5,0,0,0,.43-.2l-.16-.14a.32.32,0,0,1-.26.13.34.34,0,0,1-.33-.37.33.33,0,0,1,.33-.37.29.29,0,0,1,.26.13l.16-.15a.5.5,0,0,0-.43-.2A.56.56,0,0,0,151.59,64.21Z"/><rect class="cls-4" x="55.97" y="68.4" width="180.48" height="113.05" rx="0.5"/><path class="cls-23" d="M62.16,74.45l-.74,1.12-.74-1.12Z"/><path class="cls-17" d="M64.41,75.67h.19V74.13h-.19Zm1.3,0h.18v-.78a.32.32,0,0,0-.36-.36.56.56,0,0,0-.4.19v-.16H65v1.11h.17v-.81a.46.46,0,0,1,.33-.18c.15,0,.25.07.25.26Zm.8,0a.27.27,0,0,0,.21-.07l0-.13a.15.15,0,0,1-.12,0c-.07,0-.11-.06-.11-.15v-.69h.23v-.15h-.23v-.31h-.17v.31h-.19v.15h.19v.73C66.27,75.61,66.35,75.7,66.51,75.7Zm.4,0h.18v-.79a.4.4,0,0,1,.3-.18h.07v-.18a.48.48,0,0,0-.37.21v-.18h-.18Zm1.25,0a.59.59,0,0,0,0-1.17.59.59,0,0,0,0,1.17Zm0-.15a.44.44,0,0,1,0-.87.44.44,0,0,1,0,.87Zm1.44.12h.71a.4.4,0,0,0,.44-.41.37.37,0,0,0-.3-.38.35.35,0,0,0,.27-.36.38.38,0,0,0-.43-.39H69.6Zm.2-.87v-.5h.46a.25.25,0,1,1,0,.5Zm0,.7V75h.47a.26.26,0,0,1,.28.27.25.25,0,0,1-.28.26Zm1.25.17h.18V74.13h-.18Zm1,0a.59.59,0,1,0-.55-.59A.55.55,0,0,0,72.06,75.7Zm0-.15a.44.44,0,1,1,.37-.44A.39.39,0,0,1,72.06,75.55Zm.77-.44a.55.55,0,0,0,.56.59.49.49,0,0,0,.41-.19l-.12-.11a.33.33,0,0,1-.28.15.44.44,0,0,1,0-.87.33.33,0,0,1,.28.15l.12-.11a.49.49,0,0,0-.41-.19A.55.55,0,0,0,72.83,75.11Zm2,.56H75l-.5-.61.49-.5H74.8l-.58.59v-1H74v1.54h.18v-.32l.18-.18Z"/><rect class="cls-24" x="77.78" y="73.19" width="0.17" height="3.47"/><path class="cls-17" d="M80.49,75.45a.66.66,0,0,0,.55.25c.34,0,.55-.19.55-.44a.39.39,0,0,0-.36-.38.39.39,0,0,0,.34-.36c0-.26-.23-.41-.53-.41a.63.63,0,0,0-.52.24l.1.12a.52.52,0,0,1,.41-.19c.19,0,.34.09.34.26s-.16.26-.35.26h-.16V75H81c.22,0,.38.08.38.27s-.14.29-.36.29a.54.54,0,0,1-.43-.2ZM84,74.9a.74.74,0,1,0-.35.69l.15.16.14-.12-.15-.16A.79.79,0,0,0,84,74.9Zm-.76.63a.57.57,0,0,1-.57-.63.57.57,0,1,1,1.13,0,.67.67,0,0,1-.14.43l-.22-.23-.13.11.22.24A.55.55,0,0,1,83.2,75.53Zm1.81.14h.17V74.56H85v.82a.43.43,0,0,1-.33.17c-.15,0-.25-.06-.25-.26v-.73h-.17v.79a.31.31,0,0,0,.35.35.58.58,0,0,0,.4-.18Zm.45-.56a.56.56,0,0,0,.57.59.61.61,0,0,0,.45-.17l-.09-.11a.46.46,0,0,1-.34.14.39.39,0,0,1-.4-.39h.9v0a.54.54,0,0,0-.53-.6A.56.56,0,0,0,85.46,75.11Zm.55-.44a.36.36,0,0,1,.37.37h-.73A.37.37,0,0,1,86,74.67Zm.73.86a.57.57,0,0,0,.45.17c.29,0,.44-.15.44-.34s-.23-.3-.42-.34-.27-.07-.27-.18.09-.17.24-.17a.45.45,0,0,1,.34.14l.08-.12a.58.58,0,0,0-.42-.16c-.26,0-.41.15-.41.32s.21.28.4.33.29.07.29.2-.09.18-.27.18a.47.47,0,0,1-.36-.16Zm1.45.17a.29.29,0,0,0,.21-.07l-.05-.13a.15.15,0,0,1-.12,0c-.08,0-.11-.06-.11-.15v-.69h.22v-.15h-.22v-.31h-.18v.31h-.18v.15h.18v.73A.23.23,0,0,0,88.19,75.7Zm.48-1.33a.12.12,0,0,0,.12-.12.12.12,0,0,0-.12-.12.12.12,0,0,0-.11.12A.11.11,0,0,0,88.67,74.37Zm-.08,1.3h.17V74.56h-.17Zm1,0a.59.59,0,1,0-.56-.59A.55.55,0,0,0,89.6,75.7Zm0-.15a.44.44,0,0,1,0-.87.44.44,0,0,1,0,.87Zm1.59.12h.17v-.78a.32.32,0,0,0-.36-.36.56.56,0,0,0-.39.19v-.16h-.18v1.11h.18v-.81a.42.42,0,0,1,.33-.18c.15,0,.25.07.25.26Zm.42-.14a.59.59,0,0,0,.45.17c.29,0,.44-.15.44-.34s-.22-.3-.42-.34-.27-.07-.27-.18.09-.17.25-.17a.44.44,0,0,1,.33.14l.08-.12a.55.55,0,0,0-.41-.16c-.27,0-.42.15-.42.32s.22.28.41.33.28.07.28.2-.09.18-.26.18a.49.49,0,0,1-.37-.16Z"/><rect class="cls-4" x="59.93" y="80.63" width="172.55" height="16.69" rx="0.5"/><path d="M63,86.58h.27V85h-.23l-.45.45.16.16.25-.26Zm.56-.13a.16.16,0,0,0,.32,0,.16.16,0,1,0-.32,0Z"/><rect class="cls-19" x="65.39" y="83.77" width="4.63" height="4.3" rx="0.5"/><path d="M67.13,86.58h.25l-.52-1.32h-.29l-.52,1.32h.25l.1-.25H67Zm-.41-1.12.24.66h-.49Zm.8,1.12h.24v-.49h.35a.42.42,0,1,0,0-.83h-.59Zm.78-.91a.21.21,0,0,1-.23.21h-.31v-.42h.31A.22.22,0,0,1,68.3,85.67Zm.67.91h.23V85.26H69l-.38.38.13.14.22-.22Z"/><path d="M63.94,93.69h.21l.44-1.54h-.22L64,93.43l-.35-1.28h-.16l-.35,1.28-.35-1.28h-.21l.44,1.54h.21l.34-1.25Zm.7-.56a.55.55,0,0,0,.57.59.6.6,0,0,0,.44-.17l-.08-.12a.5.5,0,0,1-.35.14.38.38,0,0,1-.4-.38h.9v0a.54.54,0,0,0-.53-.6A.56.56,0,0,0,64.64,93.13Zm.55-.44a.35.35,0,0,1,.36.37h-.73A.37.37,0,0,1,65.19,92.69Zm.82,1h.17V92.15H66Zm.45-.56a.55.55,0,0,0,.56.59.5.5,0,0,0,.41-.2l-.12-.1a.32.32,0,0,1-.28.14.43.43,0,0,1,0-.86.32.32,0,0,1,.28.14l.12-.1a.5.5,0,0,0-.41-.2A.55.55,0,0,0,66.46,93.13Zm1.7.59a.59.59,0,1,0-.55-.59A.55.55,0,0,0,68.16,93.72Zm0-.16a.43.43,0,1,1,.37-.43A.39.39,0,0,1,68.16,93.56Zm2.18.13h.18v-.81a.3.3,0,0,0-.32-.34.47.47,0,0,0-.37.21.29.29,0,0,0-.3-.21.46.46,0,0,0-.36.19v-.16H69v1.12h.18v-.82a.39.39,0,0,1,.29-.17c.15,0,.21.09.21.23v.76h.17v-.82a.39.39,0,0,1,.3-.17c.14,0,.2.09.2.23Zm.46-.56a.56.56,0,0,0,.57.59.6.6,0,0,0,.44-.17l-.08-.12a.5.5,0,0,1-.35.14.39.39,0,0,1-.4-.38h.91v0a.55.55,0,0,0-.54-.6A.56.56,0,0,0,70.8,93.13Zm.55-.44a.35.35,0,0,1,.36.37H71A.37.37,0,0,1,71.35,92.69Zm1.7,1a.23.23,0,0,0,.2-.08l0-.12a.18.18,0,0,1-.11,0c-.08,0-.12-.06-.12-.14v-.7h.23v-.15H73v-.3H72.8v.3h-.19v.15h.19v.74A.23.23,0,0,0,73.05,93.72Zm.88,0a.56.56,0,0,0,.56-.59.55.55,0,0,0-.56-.59.59.59,0,0,0,0,1.18Zm0-.16a.43.43,0,1,1,.37-.43A.39.39,0,0,1,73.93,93.56Zm2.78.13h.18v-.81a.3.3,0,0,0-.32-.34.47.47,0,0,0-.37.21.29.29,0,0,0-.3-.21.46.46,0,0,0-.36.19v-.16h-.18v1.12h.18v-.82a.39.39,0,0,1,.29-.17c.15,0,.21.09.21.23v.76h.17v-.82a.39.39,0,0,1,.3-.17c.14,0,.2.09.2.23Zm.49.28,0,.16h.13a.33.33,0,0,0,.33-.22l.56-1.35H78l-.37.92-.38-.92h-.18l.46,1.13-.07.17a.17.17,0,0,1-.17.12Zm1.67-.43a.6.6,0,0,0,.45.18c.29,0,.44-.15.44-.34s-.23-.3-.42-.35-.27-.07-.27-.18.09-.17.24-.17a.42.42,0,0,1,.34.15l.08-.12a.58.58,0,0,0-.42-.17c-.26,0-.41.15-.41.33s.21.28.4.32.29.08.29.2-.09.19-.26.19a.51.51,0,0,1-.37-.16Zm1.92.15H81V92.57h-.18v.82a.41.41,0,0,1-.33.17.22.22,0,0,1-.25-.25v-.74H80v.79a.32.32,0,0,0,.36.36.52.52,0,0,0,.39-.19Zm.52,0h.18V92.9a.4.4,0,0,1,.3-.18h.07v-.18a.46.46,0,0,0-.37.2v-.18h-.18Zm1.07,0h.19L83,92.57h-.19l-.37.92-.37-.92h-.19Zm.77-.56a.56.56,0,0,0,.57.59.6.6,0,0,0,.44-.17l-.08-.12a.5.5,0,0,1-.35.14.38.38,0,0,1-.4-.38h.91v0a.55.55,0,0,0-.54-.6A.56.56,0,0,0,83.15,93.13Zm.55-.44a.35.35,0,0,1,.36.37h-.73A.37.37,0,0,1,83.7,92.69ZM84.48,94l0,.16h.13a.33.33,0,0,0,.33-.22l.56-1.35h-.19l-.37.92-.37-.92h-.19l.47,1.13-.08.17a.16.16,0,0,1-.16.12Zm1.19-.71h.15l0-1.11h-.22Zm0,.32a.12.12,0,0,0,.12.13.13.13,0,0,0,.13-.13.13.13,0,0,0-.13-.12A.12.12,0,0,0,85.62,93.58Z"/><rect class="cls-4" x="59.93" y="99.97" width="172.55" height="48.92" rx="0.5"/><path d="M62.69,105.92h1.12v-.24h-.68c.41-.31.67-.57.67-.85a.5.5,0,0,0-.56-.48.77.77,0,0,0-.57.25l.16.18a.56.56,0,0,1,.42-.19.25.25,0,0,1,.28.24c0,.22-.24.42-.84.88Zm1.38-.14a.17.17,0,0,0,.17.16.16.16,0,0,0,.16-.16.17.17,0,0,0-.16-.16A.17.17,0,0,0,64.07,105.78Z"/><rect class="cls-19" x="65.88" y="103.11" width="5.12" height="4.3" rx="0.5"/><path d="M67.62,105.92h.26l-.52-1.32h-.29l-.52,1.32h.25l.1-.25h.62Zm-.41-1.13.25.67H67Zm.81,1.13h.23v-.49h.35a.42.42,0,1,0,0-.83H68Zm.78-.91a.21.21,0,0,1-.23.21h-.32v-.42h.32A.21.21,0,0,1,68.8,105Zm.38.91h1v-.2h-.58c.35-.27.57-.49.57-.73a.42.42,0,0,0-.48-.41.61.61,0,0,0-.48.21l.13.15a.49.49,0,0,1,.36-.16.22.22,0,0,1,.24.21c0,.19-.2.36-.72.75Z"/><path d="M227.85,105.38a.09.09,0,0,0-.16.06v.18h-.18l-.71-.92a.12.12,0,0,0-.1,0h-.37a.12.12,0,1,0,0,.24h.31l.7.93a.16.16,0,0,0,.1.05h.25v.18a.09.09,0,0,0,.16.06l.31-.3a.09.09,0,0,0,0-.13Zm-.34-.49h.18v.19a.09.09,0,0,0,.16.06l.3-.3a.09.09,0,0,0,0-.13l-.3-.31a.1.1,0,0,0-.16.07v.18h-.25a.16.16,0,0,0-.1,0l-.15.2.15.21Zm-.87.73h-.31a.13.13,0,0,0-.13.12.13.13,0,0,0,.13.13h.37a.14.14,0,0,0,.1-.05l.15-.21-.15-.2Z"/><path d="M63.85,113H64v-1.55h-.19v.67H63v-.67h-.19V113H63v-.71h.9Zm1,0a.59.59,0,0,0,0-1.17.59.59,0,0,0,0,1.17Zm0-.15a.43.43,0,0,1,0-.86.43.43,0,0,1,0,.86Zm1.8.13h.17l.36-1.12H67l-.27.89-.3-.89h-.15l-.29.89-.27-.89h-.18l.35,1.12h.18l.29-.9Zm1.38,0h.17v-1h.23v-.15h-.23v-.09c0-.14.06-.22.18-.22a.17.17,0,0,1,.1,0l0-.13a.29.29,0,0,0-.17,0,.32.32,0,0,0-.32.36v.09h-.19v.15h.19Zm.6,0h.18v-.79a.37.37,0,0,1,.3-.18h.07v-.17a.46.46,0,0,0-.37.2v-.18h-.18Zm.7-.56a.55.55,0,0,0,.57.58.63.63,0,0,0,.45-.17l-.09-.11a.46.46,0,0,1-.34.14.39.39,0,0,1-.4-.39h.9v0a.54.54,0,0,0-.54-.6A.56.56,0,0,0,69.37,112.47Zm.55-.45a.36.36,0,0,1,.37.38h-.73A.37.37,0,0,1,69.92,112Zm1.8,1.43v-1.54h-.17v.17a.46.46,0,0,0-.38-.2c-.29,0-.49.22-.49.59s.2.58.49.58a.47.47,0,0,0,.38-.19v.59Zm-.17-.73a.41.41,0,0,1-.33.18c-.23,0-.36-.19-.36-.43s.13-.43.36-.43a.43.43,0,0,1,.33.17Zm1.27.31H73v-1.12h-.18v.82a.41.41,0,0,1-.33.17c-.15,0-.25-.06-.25-.26v-.73h-.17v.79c0,.24.12.35.36.35a.52.52,0,0,0,.39-.18Zm.46-.56a.55.55,0,0,0,.57.58.6.6,0,0,0,.44-.17l-.08-.11a.49.49,0,0,1-.34.14.4.4,0,0,1-.41-.39h.91v0a.54.54,0,0,0-.54-.6A.56.56,0,0,0,73.28,112.47Zm.55-.45a.38.38,0,0,1,.37.38h-.74A.38.38,0,0,1,73.83,112Zm1.57,1h.18v-.79a.32.32,0,0,0-.36-.36.56.56,0,0,0-.4.19v-.16h-.17V113h.17v-.82a.45.45,0,0,1,.33-.17c.15,0,.25.06.25.26Zm.81,0a.27.27,0,0,0,.2-.07l0-.13a.15.15,0,0,1-.12.05c-.07,0-.11-.06-.11-.14v-.7h.23v-.15h-.23v-.31H76v.31h-.19v.15H76v.73C76,113,76,113.05,76.21,113.05Zm.39,0h.18v-1.55H76.6Zm.49.28,0,.15.13,0a.33.33,0,0,0,.33-.23l.56-1.34h-.19l-.37.92-.38-.92H77l.46,1.13-.07.17a.16.16,0,0,1-.17.11Zm2.57-.28h.18v-1.55h-.18v.6a.46.46,0,0,0-.37-.2c-.3,0-.5.23-.5.59s.2.58.5.58a.47.47,0,0,0,.37-.19Zm0-.31a.4.4,0,0,1-.33.18c-.23,0-.36-.18-.36-.43s.13-.43.36-.43a.4.4,0,0,1,.33.18Zm1,.33a.59.59,0,1,0-.55-.58A.54.54,0,0,0,80.67,113.05Zm0-.15a.43.43,0,1,1,.37-.43A.39.39,0,0,1,80.67,112.9Zm1.4.41,0,.15.13,0a.33.33,0,0,0,.33-.23l.56-1.34h-.19l-.37.92-.37-.92h-.19l.47,1.13-.08.17a.15.15,0,0,1-.16.11Zm1.66-.26a.59.59,0,0,0,0-1.17.59.59,0,0,0,0,1.17Zm0-.15a.43.43,0,1,1,.37-.43A.39.39,0,0,1,83.73,112.9Zm1.59.13h.17v-1.12h-.17v.82a.45.45,0,0,1-.33.17c-.15,0-.25-.06-.25-.26v-.73h-.18v.79a.32.32,0,0,0,.36.35.54.54,0,0,0,.4-.18Zm1.4,0a.31.31,0,0,0,.21-.07l-.06-.13a.13.13,0,0,1-.11.05c-.08,0-.12-.06-.12-.14v-.7h.23v-.15h-.23v-.31h-.17v.31h-.19v.15h.19v.73C86.47,113,86.55,113.05,86.72,113.05Zm1.09,0H88v-.77c0-.27-.2-.38-.44-.38a.56.56,0,0,0-.44.19l.08.12a.44.44,0,0,1,.34-.16.25.25,0,0,1,.28.24v.2a.44.44,0,0,0-.37-.15.36.36,0,0,0-.39.36.37.37,0,0,0,.39.37.48.48,0,0,0,.37-.15Zm0-.24a.36.36,0,0,1-.3.14.25.25,0,1,1,0-.49.36.36,0,0,1,.3.14Zm1.29.24h.22l-.5-.61.5-.51H89.1l-.59.59v-1h-.17V113h.17v-.32l.18-.19Zm.3-.56a.55.55,0,0,0,.57.58.61.61,0,0,0,.45-.17l-.09-.11a.46.46,0,0,1-.34.14.39.39,0,0,1-.4-.39h.9v0a.54.54,0,0,0-.53-.6A.57.57,0,0,0,89.4,112.47ZM90,112a.36.36,0,0,1,.37.38h-.73A.37.37,0,0,1,90,112Zm1.32.86a.6.6,0,0,0,.45.17c.29,0,.44-.15.44-.33s-.22-.31-.42-.35-.27-.07-.27-.18.1-.17.25-.17a.43.43,0,0,1,.33.14l.08-.12a.55.55,0,0,0-.41-.16c-.27,0-.42.15-.42.32s.22.28.41.33.28.08.28.2-.09.18-.26.18a.51.51,0,0,1-.37-.16Zm1.93.15h.17v-1.12H93.2v.82a.43.43,0,0,1-.33.17c-.15,0-.25-.06-.25-.26v-.73h-.17v.79a.31.31,0,0,0,.35.35.54.54,0,0,0,.4-.18Zm.52,0h.17v-.79a.39.39,0,0,1,.31-.18h.07v-.17a.47.47,0,0,0-.38.2v-.18h-.17Zm1.06,0H95l.47-1.12h-.19l-.37.92-.38-.92h-.18Zm.77-.56a.55.55,0,0,0,.57.58.61.61,0,0,0,.45-.17l-.09-.11a.46.46,0,0,1-.34.14.39.39,0,0,1-.4-.39h.9v0a.54.54,0,0,0-.54-.6A.56.56,0,0,0,95.55,112.47Zm.55-.45a.36.36,0,0,1,.37.38h-.73A.37.37,0,0,1,96.1,112Zm.79,1.29,0,.15.13,0a.33.33,0,0,0,.33-.23l.56-1.34h-.19l-.37.92-.38-.92h-.18l.46,1.13-.07.17a.16.16,0,0,1-.17.11Zm1.07-.43a.59.59,0,0,0,.45.17c.29,0,.44-.15.44-.33s-.22-.31-.42-.35-.27-.07-.27-.18.09-.17.25-.17a.44.44,0,0,1,.33.14l.08-.12a.55.55,0,0,0-.41-.16c-.27,0-.42.15-.42.32s.21.28.4.33.29.08.29.2-.09.18-.26.18a.48.48,0,0,1-.37-.16Zm1.28-.47a.25.25,0,0,0,.09.19l.14-.06a.16.16,0,0,1-.06-.12c0-.1.09-.16.19-.23a.45.45,0,0,0,.26-.37c0-.2-.18-.36-.46-.36a.59.59,0,0,0-.5.24l.12.12a.42.42,0,0,1,.36-.19c.19,0,.28.1.28.22s-.1.18-.2.25A.38.38,0,0,0,99.24,112.41Zm0,.51a.13.13,0,0,0,.13.13.13.13,0,0,0,0-.26A.13.13,0,0,0,99.25,112.92Z"/><rect class="cls-19" x="62.58" y="117.24" width="2.15" height="4.3" rx="0.5"/><path d="M63.62,120.05h.23v-1.32h-.2l-.38.38.13.14.22-.22Z"/><rect class="cls-4" x="65.39" y="116.66" width="164.45" height="5.45" rx="0.5"/><path d="M66.89,120.13h.53a.77.77,0,1,0,0-1.54h-.53Zm.19-.17v-1.2h.34a.6.6,0,0,1,0,1.2Zm2.12.17h.18v-.76c0-.28-.2-.38-.44-.38a.59.59,0,0,0-.44.18l.08.12a.46.46,0,0,1,.34-.15c.16,0,.28.08.28.23v.21a.46.46,0,0,0-.37-.16.37.37,0,0,0-.39.37.37.37,0,0,0,.39.37.48.48,0,0,0,.37-.15Zm0-.23a.37.37,0,0,1-.31.14.25.25,0,0,1-.27-.25.25.25,0,0,1,.27-.24.34.34,0,0,1,.31.14Zm.61-1.07a.12.12,0,0,0,.12-.12.12.12,0,0,0-.24,0A.12.12,0,0,0,69.81,118.83Zm-.09,1.3h.18V119h-.18Zm.52,0h.18v-1.54h-.18Zm.49.28,0,.16.13,0a.35.35,0,0,0,.33-.23l.56-1.34h-.19l-.37.91-.38-.91H70.6l.46,1.12-.07.17a.16.16,0,0,1-.17.12Z"/><rect class="cls-19" x="62.58" y="123.36" width="2.64" height="4.3" rx="0.5"/><path d="M63.34,126.17h1V126h-.59c.35-.27.58-.48.58-.73a.44.44,0,0,0-.48-.41.61.61,0,0,0-.49.22l.14.15a.43.43,0,0,1,.35-.16c.12,0,.24.06.24.2s-.2.36-.71.75Z"/><rect class="cls-4" x="65.88" y="122.78" width="163.96" height="5.45" rx="0.5"/><path d="M68.57,126.25h.2l.44-1.54H69L68.66,126l-.35-1.28h-.16L67.79,126l-.34-1.28h-.21l.44,1.54h.21l.34-1.25Zm.69-.56a.56.56,0,0,0,.57.59.61.61,0,0,0,.45-.17l-.09-.12a.46.46,0,0,1-.34.14.38.38,0,0,1-.4-.38h.9v0a.55.55,0,0,0-.53-.6A.57.57,0,0,0,69.26,125.69Zm.55-.44a.36.36,0,0,1,.37.37h-.73A.37.37,0,0,1,69.81,125.25Zm.76.44a.56.56,0,0,0,.57.59.6.6,0,0,0,.44-.17L71.5,126a.5.5,0,0,1-.35.14.38.38,0,0,1-.4-.38h.91v0a.55.55,0,0,0-.54-.6A.56.56,0,0,0,70.57,125.69Zm.55-.44a.35.35,0,0,1,.36.37h-.73A.37.37,0,0,1,71.12,125.25Zm1.58,1h.22l-.5-.61.5-.51H72.7l-.59.6v-1h-.17v1.54h.17v-.32l.19-.18Zm.43,0h.17v-1.54h-.17Zm.48.28,0,.16h.13a.33.33,0,0,0,.33-.22l.56-1.35h-.19l-.37.92-.37-.92h-.19l.47,1.13-.08.17a.16.16,0,0,1-.16.12Z"/><rect class="cls-19" x="62.58" y="129.47" width="2.48" height="4.3" rx="0.5"/><path d="M63.29,132.09a.61.61,0,0,0,.5.22c.3,0,.49-.17.49-.39a.33.33,0,0,0-.3-.32.32.32,0,0,0,.28-.3c0-.23-.19-.36-.47-.36a.64.64,0,0,0-.49.21l.12.14a.5.5,0,0,1,.34-.15c.15,0,.27.07.27.19s-.11.18-.27.18h-.15v.21h.15c.19,0,.29.06.29.19s-.1.2-.27.2a.51.51,0,0,1-.37-.16Z"/><rect class="cls-4" x="65.72" y="128.89" width="164.12" height="5.45" rx="0.5"/><path d="M68.54,132.36h.19v-1.54h-.27L68,132l-.48-1.18h-.28v1.54h.19v-1.28l.53,1.28H68l.53-1.28Zm1,0a.59.59,0,0,0,0-1.17.59.59,0,0,0,0,1.17Zm0-.15a.44.44,0,1,1,.37-.44A.39.39,0,0,1,69.57,132.24Zm1.59.12h.18v-.78a.32.32,0,0,0-.36-.36.56.56,0,0,0-.4.19v-.16h-.17v1.11h.17v-.81a.46.46,0,0,1,.33-.18c.15,0,.25.07.25.26Zm.81,0a.27.27,0,0,0,.2-.07l0-.13a.14.14,0,0,1-.11.05c-.08,0-.12-.06-.12-.15v-.69h.23v-.15h-.23v-.31h-.17v.31h-.19v.15h.19v.73C71.72,132.3,71.8,132.39,72,132.39Zm1.15,0h.17v-.79a.31.31,0,0,0-.35-.35.56.56,0,0,0-.4.19v-.59h-.18v1.54h.18v-.81a.42.42,0,0,1,.33-.18c.15,0,.25.06.25.26Zm.52,0h.17v-1.54h-.17Zm.49.28,0,.16.12,0a.33.33,0,0,0,.33-.23l.56-1.34h-.19l-.37.91-.37-.91H74l.47,1.13-.07.16a.16.16,0,0,1-.17.12A.13.13,0,0,1,74.13,132.64Z"/><rect class="cls-19" x="62.58" y="135.5" width="2.64" height="4.3" rx="0.5"/><path d="M64,138.31h.23V138h.18v-.2h-.18V137h-.32l-.54.84V138H64Zm0-1.11v.61h-.4Z"/><rect class="cls-4" x="66.54" y="135.01" width="163.29" height="5.29" rx="0.5"/><path d="M68.17,138.31h.19v-.65l.6-.89h-.22l-.48.72-.48-.72h-.22l.61.89Zm.63-.56a.56.56,0,0,0,.57.59.6.6,0,0,0,.44-.17l-.08-.11a.5.5,0,0,1-.35.14.4.4,0,0,1-.4-.39h.91v0a.54.54,0,0,0-.54-.6A.56.56,0,0,0,68.8,137.75Zm.55-.44a.37.37,0,0,1,.37.37H69A.37.37,0,0,1,69.35,137.31Zm1.52,1H71v-.76c0-.28-.2-.38-.43-.38a.61.61,0,0,0-.45.18l.08.12a.46.46,0,0,1,.34-.15c.17,0,.29.08.29.23v.21a.46.46,0,0,0-.37-.16.37.37,0,0,0-.39.37.37.37,0,0,0,.39.37.5.5,0,0,0,.37-.15Zm0-.23a.4.4,0,0,1-.31.14.26.26,0,0,1-.28-.25.25.25,0,0,1,.28-.24.37.37,0,0,1,.31.14Zm.52.23h.17v-.79a.42.42,0,0,1,.31-.18h.06v-.18a.48.48,0,0,0-.37.21v-.18h-.17Zm.76,0h.18v-1.54h-.18Zm.49.28,0,.16.13,0a.35.35,0,0,0,.33-.23l.56-1.34h-.19l-.37.91-.38-.91h-.18l.46,1.13-.07.16a.16.16,0,0,1-.17.12A.13.13,0,0,1,72.64,138.59Z"/><rect class="cls-19" x="62.58" y="141.45" width="2.64" height="4.3" rx="0.5"/><path d="M63.35,144.08a.6.6,0,0,0,.49.21.45.45,0,0,0,.51-.45.41.41,0,0,0-.43-.43.43.43,0,0,0-.3.12v-.38h.64v-.21h-.87v.74l.17,0a.38.38,0,0,1,.29-.12.24.24,0,1,1,0,.47.44.44,0,0,1-.36-.16Z"/><rect class="cls-4" x="66.54" y="140.96" width="163.29" height="5.29" rx="0.5"/><path d="M68.81,144.26H69v-1.54H68.8v1.22l-.89-1.22h-.19v1.54h.19V143Zm.47-.56a.56.56,0,0,0,.57.59.61.61,0,0,0,.45-.17l-.09-.11a.46.46,0,0,1-.34.14.39.39,0,0,1-.4-.39h.9v0a.54.54,0,0,0-.54-.6A.56.56,0,0,0,69.28,143.7Zm.55-.44a.36.36,0,0,1,.37.37h-.73A.37.37,0,0,1,69.83,143.26Zm1.12,1h.19l.47-1.11h-.19l-.37.91-.38-.91h-.18Zm.77-.56a.56.56,0,0,0,.57.59.6.6,0,0,0,.44-.17l-.08-.11a.49.49,0,0,1-.34.14.41.41,0,0,1-.41-.39h.91v0a.54.54,0,0,0-.54-.6A.56.56,0,0,0,71.72,143.7Zm.55-.44a.37.37,0,0,1,.37.37H71.9A.37.37,0,0,1,72.27,143.26Zm.82,1h.17v-.79a.42.42,0,0,1,.31-.18h.07v-.18a.48.48,0,0,0-.38.21v-.18h-.17Z"/><path class="cls-25" d="M232,148.89H60.43a.5.5,0,0,1-.5-.49V100.47a.5.5,0,0,1,.5-.5H232a.49.49,0,0,1,.49.5V148.4A.49.49,0,0,1,232,148.89ZM60.43,100.3a.17.17,0,0,0-.17.17V148.4a.17.17,0,0,0,.17.16H232a.16.16,0,0,0,.16-.16V100.47a.16.16,0,0,0-.16-.17Z"/><rect class="cls-4" x="59.93" y="151.54" width="172.55" height="25.95" rx="0.5"/><path d="M62.63,157.26a.73.73,0,0,0,.59.25c.35,0,.58-.18.58-.45a.39.39,0,0,0-.36-.37.37.37,0,0,0,.33-.35c0-.26-.22-.42-.55-.42a.72.72,0,0,0-.57.24l.14.17a.54.54,0,0,1,.4-.17c.17,0,.31.07.31.22s-.13.2-.31.2H63v.24h.18c.22,0,.34.06.34.22s-.12.23-.32.23a.59.59,0,0,1-.43-.18Zm1.4.09a.16.16,0,1,0,.16-.16A.16.16,0,0,0,64,157.35Z"/><rect class="cls-19" x="65.88" y="154.68" width="5.95" height="4.3" rx="0.5"/><path d="M67.62,157.49h.26l-.52-1.33h-.29l-.52,1.33h.25l.1-.26h.62Zm-.41-1.13.25.67H67Zm.81,1.13h.23V157h.35a.42.42,0,1,0,0-.83H68Zm.78-.91a.22.22,0,0,1-.23.21h-.32v-.42h.32A.21.21,0,0,1,68.8,156.58Zm.67.91h.23v-1.33h-.2l-.38.39.13.14.22-.23Zm.45-.66c0,.36.16.68.55.68a.45.45,0,0,0,.48-.44.41.41,0,0,0-.44-.43.43.43,0,0,0-.35.18,0,0,0,0,1,0,0c0-.24.13-.44.35-.44a.34.34,0,0,1,.28.12l.1-.18a.49.49,0,0,0-.38-.15C70.12,156.14,69.92,156.44,69.92,156.83Zm.8.24a.24.24,0,0,1-.27.23.29.29,0,0,1-.29-.31.36.36,0,0,1,.29-.15C70.59,156.84,70.72,156.91,70.72,157.07Z"/><path class="cls-20" d="M226.64,156.82h-.22v.78h1.32v.33l.56-.44-.56-.44v.33h-1.1Z"/><path d="M226.53,156.6a.44.44,0,0,1-.44-.44.44.44,0,0,1,.44-.44.44.44,0,0,1,.44.44A.43.43,0,0,1,226.53,156.6Zm0-.55a.11.11,0,1,0,.11.11A.11.11,0,0,0,226.53,156.05Z"/><path d="M63.85,164.59H64v-1.54h-.19v.66H63v-.66h-.19v1.54H63v-.7h.9Zm1,0a.59.59,0,1,0-.56-.59A.55.55,0,0,0,64.89,164.62Zm0-.15a.44.44,0,0,1,0-.87.44.44,0,0,1,0,.87Zm1.8.12h.17l.36-1.11H67l-.27.89-.3-.89h-.15l-.29.89-.27-.89h-.18l.35,1.11h.18l.29-.89Zm2.14,0H69v-1.54h-.17v.59a.47.47,0,0,0-.38-.19.52.52,0,0,0-.5.59.51.51,0,0,0,.5.58.47.47,0,0,0,.38-.19Zm0-.3a.41.41,0,0,1-.34.18.38.38,0,0,1-.36-.43c0-.25.14-.44.36-.44a.44.44,0,0,1,.34.18Zm1,.33a.59.59,0,1,0-.56-.59A.55.55,0,0,0,69.84,164.62Zm0-.15a.44.44,0,1,1,.37-.44A.39.39,0,0,1,69.84,164.47Zm.77-.44a.56.56,0,0,0,.57.59.6.6,0,0,0,.44-.17l-.08-.11a.5.5,0,0,1-.35.14.4.4,0,0,1-.4-.39h.91v0a.54.54,0,0,0-.54-.6A.56.56,0,0,0,70.61,164Zm.55-.44a.37.37,0,0,1,.37.37h-.74A.37.37,0,0,1,71.16,163.59Zm.72.85a.56.56,0,0,0,.45.18c.29,0,.44-.15.44-.34s-.22-.3-.42-.34-.27-.07-.27-.18.09-.17.25-.17a.44.44,0,0,1,.33.14l.08-.12a.55.55,0,0,0-.41-.16c-.27,0-.42.15-.42.32s.22.28.41.33.28.07.28.19-.09.19-.26.19a.49.49,0,0,1-.37-.16Zm2.05.18a.29.29,0,0,0,.21-.07l0-.13a.19.19,0,0,1-.12.05c-.08,0-.11-.06-.11-.15v-.69h.22v-.15h-.22v-.31h-.18v.31H73.5v.15h.18v.73A.23.23,0,0,0,73.93,164.62Zm1.1,0h.17v-.77c0-.27-.19-.37-.43-.37a.61.61,0,0,0-.45.18l.08.12a.47.47,0,0,1,.35-.15c.16,0,.28.08.28.23V164a.46.46,0,0,0-.37-.16.37.37,0,0,0-.39.37.37.37,0,0,0,.39.37.48.48,0,0,0,.37-.15Zm0-.23a.4.4,0,0,1-.31.14.25.25,0,0,1-.27-.25.25.25,0,0,1,.27-.24.37.37,0,0,1,.31.14Zm1.28.23h.22L76,164l.49-.5h-.22l-.59.59v-1h-.17v1.54h.17v-.32l.19-.18Zm.51-1.3a.12.12,0,1,0,0-.24.12.12,0,0,0,0,.24Zm-.08,1.3h.17v-1.11h-.17Zm1.27,0h.18v-.78a.32.32,0,0,0-.36-.36.53.53,0,0,0-.4.19v-.16h-.17v1.11h.17v-.81a.46.46,0,0,1,.33-.18c.15,0,.25.07.25.26Zm.52.29a.57.57,0,0,0,.45.17.47.47,0,0,0,.53-.49v-1.08h-.17v.16a.45.45,0,0,0-.37-.19c-.3,0-.5.22-.5.58s.2.58.5.58a.48.48,0,0,0,.37-.2v.16a.32.32,0,0,1-.36.33.42.42,0,0,1-.36-.15Zm.81-.61a.4.4,0,0,1-.33.18c-.23,0-.36-.18-.36-.42s.13-.43.36-.43a.42.42,0,0,1,.33.18Zm1.4.35a.31.31,0,0,0,.21-.07l0-.13a.22.22,0,0,1-.12.05c-.08,0-.11-.06-.11-.15v-.69h.22v-.15h-.22v-.31h-.18v.31h-.18v.15h.18v.73A.23.23,0,0,0,80.74,164.62Zm1.15,0h.18v-.79c0-.24-.12-.35-.36-.35a.53.53,0,0,0-.4.19v-.59h-.17v1.54h.17v-.81a.46.46,0,0,1,.33-.18c.15,0,.25.06.25.26Zm.61-1.3a.12.12,0,1,0,0-.24.12.12,0,1,0,0,.24Zm-.09,1.3h.18v-1.11h-.18Zm.43-.15a.56.56,0,0,0,.45.18c.29,0,.44-.15.44-.34s-.23-.3-.42-.34-.27-.07-.27-.18.09-.17.24-.17a.45.45,0,0,1,.34.14l.08-.12a.58.58,0,0,0-.42-.16c-.26,0-.41.15-.41.32s.21.28.4.33.29.07.29.19-.09.19-.26.19a.48.48,0,0,1-.37-.16Zm1.67,0a.56.56,0,0,0,.45.18c.29,0,.44-.15.44-.34s-.22-.3-.42-.34-.27-.07-.27-.18.09-.17.25-.17a.44.44,0,0,1,.33.14l.08-.12a.55.55,0,0,0-.41-.16c-.27,0-.42.15-.42.32s.21.28.4.33.29.07.29.19-.09.19-.26.19a.48.48,0,0,1-.37-.16Zm1.93.15h.17v-1.11h-.17v.82a.45.45,0,0,1-.33.17c-.15,0-.25-.06-.25-.26v-.73h-.18v.78a.31.31,0,0,0,.36.36.58.58,0,0,0,.4-.18Zm.52,0h.17v-.79a.42.42,0,0,1,.3-.18h.07v-.18a.48.48,0,0,0-.37.21v-.18H87Zm1.06,0h.19l.46-1.11h-.19l-.37.91-.37-.91h-.19Zm.77-.56a.56.56,0,0,0,.57.59.6.6,0,0,0,.44-.17l-.08-.11a.49.49,0,0,1-.34.14.4.4,0,0,1-.41-.39h.91v0a.54.54,0,0,0-.54-.6A.56.56,0,0,0,88.79,164Zm.55-.44a.37.37,0,0,1,.37.37H89A.37.37,0,0,1,89.34,163.59Zm.78,1.28,0,.16.12,0a.35.35,0,0,0,.33-.23l.56-1.34h-.19l-.37.91-.37-.91H90l.47,1.12-.07.17a.16.16,0,0,1-.17.12Zm3.12-.28h.17v-.8c0-.23-.11-.34-.31-.34a.47.47,0,0,0-.38.21.27.27,0,0,0-.3-.21.5.5,0,0,0-.36.19v-.16h-.17v1.11h.17v-.81a.4.4,0,0,1,.3-.18c.14,0,.2.09.2.23v.76h.18v-.82a.4.4,0,0,1,.29-.17c.15,0,.21.09.21.23Zm1.22,0h.17v-.77c0-.27-.2-.37-.43-.37a.61.61,0,0,0-.45.18l.08.12a.46.46,0,0,1,.34-.15c.17,0,.29.08.29.23V164a.46.46,0,0,0-.37-.16.37.37,0,0,0-.39.37.37.37,0,0,0,.39.37.5.5,0,0,0,.37-.15Zm0-.23a.4.4,0,0,1-.31.14.26.26,0,0,1-.28-.25.25.25,0,0,1,.28-.24.37.37,0,0,1,.31.14Zm1.28.23H96l-.5-.61.5-.5h-.22l-.59.59v-1H95v1.54h.17v-.32l.19-.18Zm.31-.56a.56.56,0,0,0,.57.59.6.6,0,0,0,.44-.17l-.08-.11a.5.5,0,0,1-.35.14.39.39,0,0,1-.4-.39h.91v0a.54.54,0,0,0-.54-.6A.56.56,0,0,0,96.05,164Zm.55-.44A.36.36,0,0,1,97,164h-.73A.37.37,0,0,1,96.6,163.59ZM98,164.87l0,.16.13,0a.35.35,0,0,0,.33-.23l.56-1.34h-.19l-.37.91-.38-.91h-.18l.46,1.12-.07.17a.16.16,0,0,1-.17.12Zm1.66-.25a.59.59,0,1,0-.56-.59A.55.55,0,0,0,99.64,164.62Zm0-.15a.44.44,0,0,1,0-.87.44.44,0,0,1,0,.87Zm1.59.12h.17v-1.11h-.17v.82a.45.45,0,0,1-.33.17c-.16,0-.25-.06-.25-.26v-.73h-.18v.78a.31.31,0,0,0,.36.36.6.6,0,0,0,.4-.18Zm1.16,0h.17v-1h.23v-.15h-.23v-.09c0-.14.07-.22.18-.22a.17.17,0,0,1,.1,0l0-.13a.27.27,0,0,0-.16,0,.32.32,0,0,0-.33.36v.09h-.18v.15h.18Zm.54-.56a.56.56,0,0,0,.57.59.61.61,0,0,0,.45-.17l-.09-.11a.46.46,0,0,1-.34.14.39.39,0,0,1-.4-.39h.9v0a.54.54,0,0,0-.54-.6A.56.56,0,0,0,102.93,164Zm.55-.44a.36.36,0,0,1,.37.37h-.73A.37.37,0,0,1,103.48,163.59Zm.76.44a.56.56,0,0,0,.57.59.6.6,0,0,0,.44-.17l-.08-.11a.5.5,0,0,1-.35.14.39.39,0,0,1-.4-.39h.9v0a.53.53,0,0,0-.53-.6A.56.56,0,0,0,104.24,164Zm.55-.44a.36.36,0,0,1,.36.37h-.73A.37.37,0,0,1,104.79,163.59Zm.82,1h.17v-1.54h-.17Zm.72-.61a.23.23,0,0,0,.09.18l.14-.06a.14.14,0,0,1-.06-.11c0-.1.09-.16.19-.23s.26-.18.26-.37-.17-.36-.45-.36a.63.63,0,0,0-.51.23l.12.13a.41.41,0,0,1,.37-.19c.18,0,.27.1.27.21s-.09.19-.2.26S106.33,163.82,106.33,164Zm0,.51a.13.13,0,1,0,.13-.13A.13.13,0,0,0,106.34,164.49Z"/><rect class="cls-4" x="62.66" y="168.31" width="167.1" height="6.45" rx="0.41"/><path class="cls-24" d="M229.34,174.84H63.07a.49.49,0,0,1-.49-.5v-5.61a.49.49,0,0,1,.49-.5H229.34a.5.5,0,0,1,.5.5v5.61A.5.5,0,0,1,229.34,174.84ZM63.07,168.39a.34.34,0,0,0-.33.34v5.61a.34.34,0,0,0,.33.34H229.34a.33.33,0,0,0,.33-.34v-5.61a.33.33,0,0,0-.33-.34Z"/><path class="cls-26" d="M64,171.59a.77.77,0,1,0,.76-.8A.75.75,0,0,0,64,171.59Zm1.33,0a.57.57,0,1,1-.57-.63A.57.57,0,0,1,65.35,171.59Zm.67,1.2v-.6a.44.44,0,0,0,.37.2c.3,0,.5-.23.5-.59s-.2-.58-.5-.58a.47.47,0,0,0-.37.19v-.17h-.18v1.55Zm.69-1c0,.25-.14.43-.36.43a.4.4,0,0,1-.33-.18v-.5a.4.4,0,0,1,.33-.18C66.57,171.37,66.71,171.55,66.71,171.8Zm.4,0a.56.56,0,0,0,.57.59.6.6,0,0,0,.44-.17L68,172.1a.51.51,0,0,1-.35.15.39.39,0,0,1-.4-.39h.9v0a.53.53,0,0,0-.53-.6A.56.56,0,0,0,67.11,171.8Zm.55-.44a.36.36,0,0,1,.36.37h-.73A.37.37,0,0,1,67.66,171.36Zm1.57,1h.17v-.78c0-.25-.12-.36-.35-.36a.53.53,0,0,0-.4.19v-.17h-.17v1.12h.17v-.82a.41.41,0,0,1,.33-.17c.15,0,.25.06.25.26Zm1-.56a.56.56,0,0,0,.57.59.64.64,0,0,0,.45-.17l-.09-.12a.5.5,0,0,1-.34.15.41.41,0,0,1-.41-.39h.91v0a.54.54,0,0,0-.54-.6A.56.56,0,0,0,70.28,171.8Zm.55-.44a.37.37,0,0,1,.37.37h-.74A.37.37,0,0,1,70.83,171.36Zm1.57,1h.18v-.78a.31.31,0,0,0-.36-.36.55.55,0,0,0-.4.19v-.17h-.17v1.12h.17v-.82a.45.45,0,0,1,.33-.17c.16,0,.25.06.25.26Zm1.33,0h.18v-1.54h-.18v.59a.45.45,0,0,0-.37-.19.51.51,0,0,0-.5.58c0,.37.21.59.5.59a.45.45,0,0,0,.37-.2Zm0-.3a.39.39,0,0,1-.33.17c-.23,0-.36-.18-.36-.43s.13-.43.36-.43a.4.4,0,0,1,.33.18Zm1.4.33a.27.27,0,0,0,.21-.07l0-.13a.19.19,0,0,1-.12,0c-.07,0-.11-.06-.11-.14v-.69h.23v-.16h-.23v-.3h-.17v.3H74.7v.16h.19v.73C74.89,172.29,75,172.39,75.13,172.39Zm.34-.59a.56.56,0,0,0,.57.59.6.6,0,0,0,.44-.17l-.08-.12a.51.51,0,0,1-.35.15.39.39,0,0,1-.4-.39h.9v0a.53.53,0,0,0-.53-.6A.56.56,0,0,0,75.47,171.8Zm.55-.44a.36.36,0,0,1,.36.37h-.73A.37.37,0,0,1,76,171.36Zm1.47,1h.2l-.43-.57.4-.55h-.2l-.31.43-.31-.43h-.2l.4.55-.42.57h.19l.34-.46Zm.68,0a.31.31,0,0,0,.21-.07l0-.13a.21.21,0,0,1-.12,0c-.08,0-.11-.06-.11-.14v-.69h.22v-.16H78.1v-.3h-.18v.3h-.18v.16h.18v.73A.23.23,0,0,0,78.17,172.39Zm1,0h.18v-1h.22v-.16h-.22v-.08c0-.14.06-.22.17-.22l.1,0,0-.13a.47.47,0,0,0-.17,0,.33.33,0,0,0-.33.37v.08H79v.16h.18Zm.69-1.3a.12.12,0,0,0,.12-.12.12.12,0,0,0-.12-.12.11.11,0,0,0-.11.12A.12.12,0,0,0,79.9,171.06Zm-.08,1.3H80v-1.12h-.17Zm.45-.56a.56.56,0,0,0,.57.59.61.61,0,0,0,.45-.17l-.09-.12a.47.47,0,0,1-.34.15.39.39,0,0,1-.4-.39h.9v0a.54.54,0,0,0-.54-.6A.56.56,0,0,0,80.27,171.8Zm.55-.44a.36.36,0,0,1,.37.37h-.73A.37.37,0,0,1,80.82,171.36Zm.82,1h.18v-1.54h-.18Zm1.33,0h.18v-1.54H83v.59a.46.46,0,0,0-.38-.19c-.29,0-.49.23-.49.58s.2.59.49.59a.46.46,0,0,0,.38-.2Zm0-.3a.39.39,0,0,1-.33.17c-.23,0-.36-.18-.36-.43s.13-.43.36-.43a.4.4,0,0,1,.33.18Z"/><rect class="cls-24" x="243.06" y="37.33" width="44.29" height="0.17"/><path d="M245.45,34.71a.72.72,0,0,0,.63-.34l-.23-.12a.46.46,0,0,1-.4.22.56.56,0,0,1,0-1.11.46.46,0,0,1,.4.22l.23-.12a.7.7,0,0,0-.63-.34.8.8,0,1,0,0,1.59Zm1.34,0a.59.59,0,1,0-.57-.59A.56.56,0,0,0,246.79,34.71Zm0-.21a.34.34,0,0,1-.32-.38.33.33,0,1,1,.65,0A.35.35,0,0,1,246.79,34.5Zm1.58.18h.24V33.9a.32.32,0,0,0-.36-.36.53.53,0,0,0-.39.18v-.15h-.24v1.11h.24V33.9a.39.39,0,0,1,.29-.15c.13,0,.22.06.22.24Zm1.39-1.3a.15.15,0,0,0,0-.3.15.15,0,1,0,0,.3Zm-.77,1.3h.24v-.9h.23v-.21h-.23V33.5c0-.12.06-.18.16-.18l.09,0,.06-.18a.4.4,0,0,0-.2,0,.34.34,0,0,0-.35.38v.07h-.19v.21H249Zm.65,0h.25V33.57h-.25Zm.55.29a.59.59,0,0,0,.46.17c.28,0,.58-.11.58-.51V33.57H251v.15a.42.42,0,0,0-.35-.18.5.5,0,0,0-.5.57c0,.37.21.58.5.58a.45.45,0,0,0,.35-.19v.14a.29.29,0,0,1-.33.3.45.45,0,0,1-.35-.14Zm.79-.65a.36.36,0,0,1-.28.15.32.32,0,0,1-.32-.36.33.33,0,0,1,.32-.36.36.36,0,0,1,.28.15Zm1.32.36h.24V33.57h-.24v.78a.38.38,0,0,1-.29.15c-.14,0-.22-.06-.22-.23v-.7h-.25v.79a.32.32,0,0,0,.36.35.53.53,0,0,0,.4-.17Zm.56,0h.24v-.76a.37.37,0,0,1,.28-.14h.08v-.24a.45.45,0,0,0-.36.19v-.16h-.24Zm.73-.56a.56.56,0,0,0,.58.59.65.65,0,0,0,.46-.16l-.11-.16a.47.47,0,0,1-.32.12.34.34,0,0,1-.36-.3h.86v-.06a.56.56,0,1,0-1.11,0Zm.56-.38a.3.3,0,0,1,.32.29h-.63A.31.31,0,0,1,254.15,33.74Z"/><rect class="cls-25" x="243.06" y="37.16" width="13.55" height="0.33"/><path class="cls-17" d="M258.66,34.68h1.06v-.23h-.79V34h.77v-.24h-.77v-.4h.79v-.24h-1.06Zm1.33,0h.24v-.76a.39.39,0,0,1,.29-.14h.07v-.24a.46.46,0,0,0-.36.19v-.16H260Zm.8,0H261v-.76a.39.39,0,0,1,.29-.14h.08v-.24a.48.48,0,0,0-.37.19v-.16h-.24Zm1.31,0a.59.59,0,0,0,0-1.17.59.59,0,0,0,0,1.17Zm0-.21a.34.34,0,0,1-.32-.38.32.32,0,1,1,.64,0A.34.34,0,0,1,262.1,34.5Zm.82.18h.24v-.76a.39.39,0,0,1,.29-.14h.08v-.24a.47.47,0,0,0-.37.19v-.16h-.24Zm.7-.14a.7.7,0,0,0,.48.17c.3,0,.47-.15.47-.34s-.24-.32-.43-.37-.25-.06-.25-.14.08-.13.21-.13a.44.44,0,0,1,.33.14l.1-.17a.62.62,0,0,0-.43-.16c-.28,0-.44.16-.44.34s.23.3.42.34.25.07.25.16-.07.14-.22.14a.55.55,0,0,1-.37-.16Zm2.08.61.15-.12a1.72,1.72,0,0,1-.24-.91,1.74,1.74,0,0,1,.24-.91l-.15-.11a1.66,1.66,0,0,0-.35,1A1.69,1.69,0,0,0,265.7,35.15Zm.28-1.24c0,.39.19.8.62.8s.62-.41.62-.8-.19-.79-.62-.79S266,33.53,266,33.91Zm1,0c0,.3-.09.56-.34.56s-.34-.26-.34-.56.09-.55.34-.55S266.94,33.62,266.94,33.91Zm.65.21a1.72,1.72,0,0,1-.24.91l.15.12a1.69,1.69,0,0,0,.36-1,1.66,1.66,0,0,0-.36-1l-.15.11A1.74,1.74,0,0,1,267.59,34.12Z"/><path class="cls-17" d="M275,34.68h.27V33.14H275Zm1.34,0h.25V33.9a.32.32,0,0,0-.36-.36.54.54,0,0,0-.4.18v-.15h-.24v1.11h.24V33.9a.39.39,0,0,1,.29-.15c.14,0,.22.06.22.24Zm.62,0h.24v-.9h.23v-.21h-.23V33.5c0-.12.06-.18.16-.18a.18.18,0,0,1,.1,0l.05-.18a.4.4,0,0,0-.2,0,.34.34,0,0,0-.35.38v.07h-.19v.21h.19Zm1.16,0a.59.59,0,0,0,0-1.17.59.59,0,0,0,0,1.17Zm0-.21a.34.34,0,0,1-.32-.38.32.32,0,1,1,.64,0A.34.34,0,0,1,278.09,34.5Z"/><rect class="cls-24" x="240.42" y="37.33" width="49.58" height="0.17"/><rect class="cls-4" x="55.97" y="184.1" width="180.48" height="93.38" rx="0.5"/><path class="cls-23" d="M62.16,190.15l-.74,1.12-.74-1.12Z"/><path class="cls-17" d="M64.41,191.37h.19v-.71h.81v-.17H64.6V190h.82v-.18h-1Zm1.75,0a.56.56,0,0,0,.56-.59.55.55,0,0,0-.56-.59.59.59,0,0,0,0,1.18Zm0-.16a.43.43,0,0,1,0-.86.43.43,0,0,1,0,.86Zm1.33.16a.59.59,0,1,0-.55-.59A.55.55,0,0,0,67.49,191.4Zm0-.16a.43.43,0,1,1,.37-.43A.39.39,0,0,1,67.49,191.24Zm1.64.13h.18v-1.55h-.18v.6a.46.46,0,0,0-.37-.2c-.3,0-.5.23-.5.59a.52.52,0,0,0,.5.59.45.45,0,0,0,.37-.2Zm0-.3a.41.41,0,0,1-.33.17c-.23,0-.36-.18-.36-.43s.13-.43.36-.43a.4.4,0,0,1,.33.18Zm1.13.3H71a.41.41,0,0,0,.45-.42.4.4,0,0,0-.3-.38.35.35,0,0,0,.27-.35.4.4,0,0,0-.43-.4h-.69Zm.19-.88V190h.46a.24.24,0,0,1,.27.25c0,.14-.09.24-.27.24Zm0,.71v-.54h.47a.27.27,0,0,1,.29.27.26.26,0,0,1-.29.27Zm1.26.17h.17v-1.55h-.17Zm1,0a.59.59,0,1,0-.56-.59A.56.56,0,0,0,72.72,191.4Zm0-.16a.43.43,0,1,1,.37-.43A.39.39,0,0,1,72.72,191.24Zm.77-.43a.55.55,0,0,0,.55.59.47.47,0,0,0,.41-.2l-.11-.1a.37.37,0,0,1-.29.14.43.43,0,0,1,0-.86.34.34,0,0,1,.29.14l.11-.1a.47.47,0,0,0-.41-.2A.55.55,0,0,0,73.49,190.81Zm2,.56h.22l-.5-.61.5-.51h-.22l-.59.6v-1H74.7v1.55h.17v-.32l.19-.18Z"/><rect class="cls-24" x="78.44" y="188.89" width="0.17" height="3.47"/><path class="cls-17" d="M81.5,191.37h.19v-1.55h-.17l-.38.4.11.12.25-.26Zm2.62-.77a.77.77,0,1,0-.77.8.83.83,0,0,0,.42-.12l.15.16.13-.12-.14-.15A.87.87,0,0,0,84.12,190.6Zm-.77.62a.56.56,0,0,1-.56-.62.57.57,0,1,1,1.13,0,.67.67,0,0,1-.14.43l-.22-.24-.13.12.22.24A.58.58,0,0,1,83.35,191.22Zm1.82.15h.17v-1.12h-.17v.82a.45.45,0,0,1-.33.17.22.22,0,0,1-.25-.25v-.74h-.18V191a.32.32,0,0,0,.36.36.55.55,0,0,0,.4-.19Zm.45-.56a.56.56,0,0,0,.57.59.61.61,0,0,0,.45-.18l-.09-.11a.49.49,0,0,1-.34.14.4.4,0,0,1-.41-.38h.91v-.05a.55.55,0,0,0-.54-.6A.56.56,0,0,0,85.62,190.81Zm.55-.44a.36.36,0,0,1,.37.37H85.8A.37.37,0,0,1,86.17,190.37Zm.72.85a.61.61,0,0,0,.45.18c.29,0,.44-.15.44-.34s-.22-.31-.41-.35-.28-.07-.28-.18.1-.17.25-.17a.4.4,0,0,1,.33.15l.08-.13a.55.55,0,0,0-.41-.16c-.27,0-.42.15-.42.32s.22.29.41.33.29.08.29.2-.1.18-.27.18a.55.55,0,0,1-.37-.15Zm1.46.18a.27.27,0,0,0,.21-.08l0-.13a.17.17,0,0,1-.12.05c-.08,0-.12-.06-.12-.14v-.7h.23v-.15h-.23V190H88.1v.3h-.18v.15h.18v.74A.23.23,0,0,0,88.35,191.4Zm.48-1.34A.11.11,0,0,0,89,190a.12.12,0,0,0-.12-.12.11.11,0,0,0-.11.12A.11.11,0,0,0,88.83,190.06Zm-.08,1.31h.17v-1.12h-.17Zm1,0a.56.56,0,0,0,.56-.59.55.55,0,0,0-.56-.59.59.59,0,0,0,0,1.18Zm0-.16a.43.43,0,0,1,0-.86.43.43,0,0,1,0,.86Zm1.59.13h.18v-.79a.32.32,0,0,0-.36-.36.59.59,0,0,0-.4.19v-.16h-.17v1.12h.17v-.82a.45.45,0,0,1,.33-.17c.16,0,.25.06.25.26Z"/><rect class="cls-4" x="59.93" y="196.33" width="172.55" height="77.18" rx="0.5"/><path d="M63.38,202.28h.27v-.35h.21v-.24h-.21v-1h-.37l-.64,1v.22h.74Zm0-1.3v.71h-.47Zm.66,1.16a.16.16,0,1,0,.16-.16A.16.16,0,0,0,64,202.14Z"/><rect class="cls-19" x="65.88" y="199.47" width="5.12" height="4.3" rx="0.5"/><path d="M67.62,202.28h.26L67.36,201h-.29l-.52,1.33h.25l.1-.26h.62Zm-.41-1.13.25.67H67Zm.81,1.13h.23v-.5h.35a.42.42,0,1,0,0-.83H68Zm.78-.91a.22.22,0,0,1-.23.21h-.32v-.42h.32A.21.21,0,0,1,68.8,201.37Zm.33.72a.62.62,0,0,0,.5.21c.31,0,.5-.16.5-.38a.34.34,0,0,0-.31-.33.31.31,0,0,0,.29-.3c0-.22-.19-.36-.48-.36a.6.6,0,0,0-.48.21l.12.15a.46.46,0,0,1,.34-.15c.15,0,.27.06.27.19s-.12.17-.27.17h-.16v.21h.16c.19,0,.29.06.29.19s-.1.2-.27.2a.47.47,0,0,1-.37-.16Z"/><path class="cls-20" d="M220.86,201.62h-.22v.77H222v.33l.55-.44-.55-.44v.33h-1.1Z"/><path d="M220.75,201.39a.44.44,0,0,1-.44-.44.44.44,0,0,1,.88,0A.44.44,0,0,1,220.75,201.39Zm0-.55a.11.11,0,0,0-.11.11.11.11,0,0,0,.22,0A.11.11,0,0,0,220.75,200.84Z"/><path d="M227.85,201.73a.1.1,0,0,0-.16.07V202h-.18l-.71-.92a.12.12,0,0,0-.1-.05h-.37a.12.12,0,1,0,0,.24h.31l.7.92a.12.12,0,0,0,.1.05h.25v.19a.09.09,0,0,0,.16.06l.31-.3a.09.09,0,0,0,0-.13Zm-.34-.48h.18v.18a.1.1,0,0,0,.16.07l.3-.31a.09.09,0,0,0,0-.13l-.3-.3a.09.09,0,0,0-.16.07V201h-.25a.16.16,0,0,0-.1.05l-.15.2.15.2Zm-.87.73h-.31a.13.13,0,0,0-.13.12.12.12,0,0,0,.13.12h.37a.11.11,0,0,0,.1-.05l.15-.2-.15-.2Z"/><path d="M63.85,209.38H64v-1.54h-.19v.66H63v-.66h-.19v1.54H63v-.7h.9Zm1,0a.59.59,0,1,0-.56-.59A.55.55,0,0,0,64.89,209.41Zm0-.15a.44.44,0,0,1,0-.87.44.44,0,0,1,0,.87Zm1.8.12h.17l.36-1.11H67l-.27.89-.3-.89h-.15l-.29.89-.27-.89h-.18l.35,1.11h.18l.29-.89Zm1.38,0h.17v-1h.23v-.15h-.23v-.09c0-.14.06-.22.18-.22a.17.17,0,0,1,.1,0l0-.13a.29.29,0,0,0-.17,0,.32.32,0,0,0-.32.36v.09h-.19v.15h.19Zm.6,0h.18v-.79a.4.4,0,0,1,.3-.18h.07v-.18a.48.48,0,0,0-.37.21v-.18h-.18Zm.7-.56a.56.56,0,0,0,.57.59.63.63,0,0,0,.45-.17l-.09-.11a.46.46,0,0,1-.34.14.39.39,0,0,1-.4-.39h.9v0a.54.54,0,0,0-.54-.6A.56.56,0,0,0,69.37,208.82Zm.55-.44a.36.36,0,0,1,.37.37h-.73A.36.36,0,0,1,69.92,208.38Zm1.8,1.43v-1.54h-.17v.16a.47.47,0,0,0-.38-.19c-.29,0-.49.22-.49.58s.2.59.49.59a.46.46,0,0,0,.38-.2v.6Zm-.17-.73a.44.44,0,0,1-.33.18c-.23,0-.36-.19-.36-.44s.13-.43.36-.43a.41.41,0,0,1,.33.18Zm1.27.3H73v-1.11h-.18v.82a.41.41,0,0,1-.33.17c-.15,0-.25-.06-.25-.26v-.73h-.17v.78a.31.31,0,0,0,.36.36.55.55,0,0,0,.39-.18Zm.46-.56a.56.56,0,0,0,.57.59.6.6,0,0,0,.44-.17l-.08-.11a.49.49,0,0,1-.34.14.4.4,0,0,1-.41-.39h.91v0a.54.54,0,0,0-.54-.6A.56.56,0,0,0,73.28,208.82Zm.55-.44a.37.37,0,0,1,.37.37h-.74A.37.37,0,0,1,73.83,208.38Zm1.57,1h.18v-.78a.32.32,0,0,0-.36-.36.56.56,0,0,0-.4.19v-.16h-.17v1.11h.17v-.81a.46.46,0,0,1,.33-.18c.15,0,.25.07.25.26Zm.81,0a.27.27,0,0,0,.2-.07l0-.13a.19.19,0,0,1-.12,0c-.07,0-.11-.06-.11-.15v-.69h.23v-.15h-.23V208H76v.31h-.19v.15H76v.73C76,209.32,76,209.41,76.21,209.41Zm.39,0h.18v-1.54H76.6Zm.49.28,0,.16.13,0a.35.35,0,0,0,.33-.23l.56-1.34h-.19l-.37.91-.38-.91H77l.46,1.12-.07.17a.16.16,0,0,1-.17.12Zm2.57-.28h.18v-1.54h-.18v.59a.45.45,0,0,0-.37-.19c-.3,0-.5.23-.5.59s.2.58.5.58a.47.47,0,0,0,.37-.19Zm0-.3a.4.4,0,0,1-.33.18c-.23,0-.36-.19-.36-.43s.13-.44.36-.44a.42.42,0,0,1,.33.18Zm1,.33a.59.59,0,0,0,0-1.17.59.59,0,0,0,0,1.17Zm0-.15a.44.44,0,1,1,.37-.44A.39.39,0,0,1,80.67,209.26Zm1.4.4,0,.16.13,0a.35.35,0,0,0,.33-.23l.56-1.34h-.19l-.37.91-.37-.91h-.19l.47,1.12-.08.17c0,.1-.09.12-.16.12Zm1.66-.25a.59.59,0,1,0-.56-.59A.55.55,0,0,0,83.73,209.41Zm0-.15a.44.44,0,1,1,.37-.44A.39.39,0,0,1,83.73,209.26Zm1.59.12h.17v-1.11h-.17v.82a.45.45,0,0,1-.33.17c-.15,0-.25-.06-.25-.26v-.73h-.18v.78a.32.32,0,0,0,.36.36.58.58,0,0,0,.4-.18Zm1.4,0a.31.31,0,0,0,.21-.07l-.06-.13a.16.16,0,0,1-.11,0c-.08,0-.12-.06-.12-.15v-.69h.23v-.15h-.23V208h-.17v.31h-.19v.15h.19v.73C86.47,209.32,86.55,209.41,86.72,209.41Zm1.09,0H88v-.77c0-.27-.2-.37-.44-.37a.59.59,0,0,0-.44.18l.08.12a.46.46,0,0,1,.34-.15c.16,0,.28.08.28.23v.21a.44.44,0,0,0-.37-.16.37.37,0,0,0-.39.37.37.37,0,0,0,.39.37.48.48,0,0,0,.37-.15Zm0-.23a.36.36,0,0,1-.3.14.25.25,0,1,1,0-.49.34.34,0,0,1,.3.14Zm1.29.23h.22l-.5-.61.5-.5H89.1l-.59.59v-1h-.17v1.54h.17v-.32l.18-.18Zm.3-.56a.56.56,0,0,0,.57.59.61.61,0,0,0,.45-.17l-.09-.11a.46.46,0,0,1-.34.14.39.39,0,0,1-.4-.39h.9v0a.54.54,0,0,0-.53-.6A.56.56,0,0,0,89.4,208.82Zm.55-.44a.36.36,0,0,1,.37.37h-.73A.37.37,0,0,1,90,208.38Zm1.32.85a.57.57,0,0,0,.45.18c.29,0,.44-.15.44-.34s-.22-.3-.42-.34-.27-.07-.27-.18.1-.17.25-.17a.43.43,0,0,1,.33.14l.08-.12a.55.55,0,0,0-.41-.16c-.27,0-.42.15-.42.32s.22.28.41.33.28.07.28.19-.09.19-.26.19a.51.51,0,0,1-.37-.16Zm1.93.15h.17v-1.11H93.2v.82a.43.43,0,0,1-.33.17c-.15,0-.25-.06-.25-.26v-.73h-.17v.78c0,.25.12.36.35.36a.58.58,0,0,0,.4-.18Zm.52,0h.17v-.79a.42.42,0,0,1,.31-.18h.07v-.18a.48.48,0,0,0-.38.21v-.18h-.17Zm1.06,0H95l.47-1.11h-.19l-.37.91-.38-.91h-.18Zm.77-.56a.56.56,0,0,0,.57.59.61.61,0,0,0,.45-.17l-.09-.11a.46.46,0,0,1-.34.14.39.39,0,0,1-.4-.39h.9v0a.54.54,0,0,0-.54-.6A.56.56,0,0,0,95.55,208.82Zm.55-.44a.36.36,0,0,1,.37.37h-.73A.37.37,0,0,1,96.1,208.38Zm.79,1.28,0,.16.13,0a.36.36,0,0,0,.33-.23l.56-1.34h-.19l-.37.91-.38-.91h-.18l.46,1.12-.07.17a.16.16,0,0,1-.17.12Zm1.07-.43a.56.56,0,0,0,.45.18c.29,0,.44-.15.44-.34s-.22-.3-.42-.34-.27-.07-.27-.18.09-.17.25-.17a.44.44,0,0,1,.33.14l.08-.12a.55.55,0,0,0-.41-.16c-.27,0-.42.15-.42.32s.21.28.4.33.29.07.29.19-.09.19-.26.19a.48.48,0,0,1-.37-.16Zm1.28-.46a.26.26,0,0,0,.09.19l.14-.06a.17.17,0,0,1-.06-.12c0-.1.09-.16.19-.23s.26-.18.26-.37-.18-.36-.46-.36a.61.61,0,0,0-.5.23l.12.13a.4.4,0,0,1,.36-.19c.19,0,.28.1.28.21s-.1.19-.2.26A.37.37,0,0,0,99.24,208.77Zm0,.51a.13.13,0,0,0,.13.13.13.13,0,0,0,0-.26A.13.13,0,0,0,99.25,209.28Z"/><path class="cls-17" d="M243.62,42.62h.19V41.25h.5v-.18h-1.17v.18h.48Zm.71.28,0,.16h.12a.32.32,0,0,0,.33-.23l.56-1.34h-.19l-.37.92-.37-.92h-.19l.47,1.13-.07.17a.17.17,0,0,1-.17.12Zm1.35.14v-.59a.46.46,0,0,0,.37.2c.3,0,.5-.23.5-.59s-.2-.59-.5-.59a.45.45,0,0,0-.37.2V41.5h-.18V43Zm.69-1c0,.25-.14.43-.36.43a.4.4,0,0,1-.33-.18v-.5a.4.4,0,0,1,.33-.18C246.23,41.63,246.37,41.81,246.37,42.06Zm.4,0a.56.56,0,0,0,.57.59.57.57,0,0,0,.44-.18l-.08-.11a.5.5,0,0,1-.35.14.38.38,0,0,1-.4-.38h.9v0a.54.54,0,0,0-.53-.6A.56.56,0,0,0,246.77,42.06Zm.55-.44a.35.35,0,0,1,.36.37H247A.37.37,0,0,1,247.32,41.62Z"/><rect class="cls-4" x="243.14" y="44.35" width="44.13" height="6.45" rx="0.41"/><path class="cls-24" d="M286.86,50.88h-43.3a.49.49,0,0,1-.5-.49V44.77a.5.5,0,0,1,.5-.5h43.3a.5.5,0,0,1,.5.5v5.62A.5.5,0,0,1,286.86,50.88Zm-43.3-6.44a.32.32,0,0,0-.33.33v5.62a.33.33,0,0,0,.33.33h43.3a.33.33,0,0,0,.33-.33V44.77a.33.33,0,0,0-.33-.33Z"/><path d="M245.88,48.4h.19V46.86h-.27L245.32,48l-.48-1.17h-.28V48.4h.2V47.12l.52,1.28h.08l.52-1.28Zm1.3,0h.18V47.29h-.18v.82a.41.41,0,0,1-.33.17c-.15,0-.25-.06-.25-.26v-.73h-.17v.78c0,.25.12.36.35.36a.56.56,0,0,0,.4-.18Zm.52,0h.18V46.86h-.18Zm.8,0a.27.27,0,0,0,.21-.07l-.05-.13a.19.19,0,0,1-.12.05c-.07,0-.11-.06-.11-.15v-.69h.23v-.15h-.23V47h-.17v.31h-.19v.15h.19v.73C248.26,48.34,248.34,48.43,248.5,48.43ZM249,47.1a.13.13,0,0,0,.12-.12.12.12,0,0,0-.24,0A.13.13,0,0,0,249,47.1Zm-.09,1.3h.18V47.29h-.18Zm.7.43v-.6a.44.44,0,0,0,.37.2c.3,0,.5-.23.5-.59s-.2-.58-.5-.58a.47.47,0,0,0-.37.19v-.16h-.18v1.54Zm.69-1c0,.25-.14.44-.36.44a.42.42,0,0,1-.33-.18v-.51a.4.4,0,0,1,.33-.18A.38.38,0,0,1,250.29,47.84Zm.46.56h.17V46.86h-.17Zm.46-.56a.55.55,0,0,0,.56.59.61.61,0,0,0,.45-.17l-.08-.11a.5.5,0,0,1-.35.14.39.39,0,0,1-.4-.39h.9v0a.54.54,0,0,0-.53-.6A.56.56,0,0,0,251.21,47.84Zm.54-.44a.36.36,0,0,1,.37.37h-.73A.37.37,0,0,1,251.75,47.4Zm1.36.44a.55.55,0,0,0,.55.59.46.46,0,0,0,.41-.19l-.11-.11a.35.35,0,0,1-.29.15.44.44,0,0,1,0-.87.35.35,0,0,1,.29.15l.11-.11a.46.46,0,0,0-.41-.19A.54.54,0,0,0,253.11,47.84Zm2,.56h.18v-.79a.32.32,0,0,0-.36-.35.53.53,0,0,0-.4.19v-.59h-.17V48.4h.17v-.81a.46.46,0,0,1,.33-.18c.15,0,.25.06.25.26Zm1,0a.59.59,0,1,0-.55-.59A.55.55,0,0,0,256.08,48.43Zm0-.15a.44.44,0,1,1,.37-.44A.39.39,0,0,1,256.08,48.28ZM257,47.1a.12.12,0,0,0,.12-.12.12.12,0,0,0-.12-.12.11.11,0,0,0-.11.12A.12.12,0,0,0,257,47.1Zm-.08,1.3h.17V47.29h-.17Zm.45-.56a.55.55,0,0,0,.56.59.49.49,0,0,0,.41-.19l-.12-.11a.32.32,0,0,1-.28.15.44.44,0,0,1,0-.87.32.32,0,0,1,.28.15l.12-.11a.49.49,0,0,0-.41-.19A.55.55,0,0,0,257.37,47.84Zm1.15,0a.56.56,0,0,0,.57.59.6.6,0,0,0,.44-.17l-.08-.11a.5.5,0,0,1-.35.14.39.39,0,0,1-.4-.39h.91v0a.54.54,0,0,0-.54-.6A.56.56,0,0,0,258.52,47.84Zm.55-.44a.36.36,0,0,1,.36.37h-.73A.37.37,0,0,1,259.07,47.4Z"/><path class="cls-20" d="M285.29,47.17l.16.15-.74.74-.74-.74.16-.15.58.58Z"/><path class="cls-17" d="M243.24,57.33h.91v-.17h-.72V55.78h-.19Zm1.84,0h.17v-.77c0-.27-.19-.38-.43-.38a.56.56,0,0,0-.44.19l.08.12a.43.43,0,0,1,.34-.16.25.25,0,0,1,.28.24v.2a.48.48,0,0,0-.37-.15.37.37,0,0,0-.39.37.37.37,0,0,0,.39.37.49.49,0,0,0,.37-.16Zm0-.24a.38.38,0,0,1-.31.14.25.25,0,1,1,0-.49.38.38,0,0,1,.31.14Zm.52.24h.18v-.17a.48.48,0,0,0,.37.2.6.6,0,0,0,0-1.18.46.46,0,0,0-.37.2v-.6h-.18Zm.18-.31v-.5a.4.4,0,0,1,.33-.18c.23,0,.36.18.36.43s-.13.43-.36.43A.4.4,0,0,1,245.78,57Zm1.09-.25a.56.56,0,0,0,.57.59.57.57,0,0,0,.44-.18l-.08-.11a.5.5,0,0,1-.35.14.39.39,0,0,1-.4-.38H248v0a.55.55,0,0,0-.54-.6A.56.56,0,0,0,246.87,56.77Zm.55-.44a.35.35,0,0,1,.36.37h-.73A.37.37,0,0,1,247.42,56.33Zm.82,1h.17V55.78h-.17Z"/><rect class="cls-4" x="243.14" y="59.06" width="44.13" height="6.45" rx="0.41"/><path class="cls-24" d="M286.86,65.59h-43.3a.49.49,0,0,1-.5-.49V59.48a.5.5,0,0,1,.5-.5h43.3a.5.5,0,0,1,.5.5V65.1A.5.5,0,0,1,286.86,65.59Zm-43.3-6.44a.32.32,0,0,0-.33.33V65.1a.33.33,0,0,0,.33.33h43.3a.33.33,0,0,0,.33-.33V59.48a.33.33,0,0,0-.33-.33Z"/><path d="M245.67,63.11h.22l-.63-1.54H245l-.62,1.54h.22l.13-.34h.79Zm-.52-1.37.33.86h-.67Zm.94,1.37h.19V62.5h.43a.45.45,0,0,0,.48-.47.45.45,0,0,0-.48-.46h-.62ZM247,62a.29.29,0,0,1-.31.3h-.4v-.59h.4A.28.28,0,0,1,247,62Zm.4,1.08h1.06v-.17h-.76c.43-.34.75-.63.75-.94a.47.47,0,0,0-.52-.45.65.65,0,0,0-.53.24l.12.12a.5.5,0,0,1,.41-.19.29.29,0,0,1,.33.28c0,.27-.3.52-.86,1Z"/><path class="cls-17" d="M243.15,71.82a.78.78,0,0,0,.59.25c.42,0,.57-.23.57-.46s-.29-.4-.54-.47-.37-.1-.37-.25.13-.25.31-.25a.6.6,0,0,1,.45.19l.12-.14a.73.73,0,0,0-.55-.22c-.31,0-.53.17-.53.43s.27.37.52.44.39.1.39.29-.09.26-.36.26a.63.63,0,0,1-.49-.22Zm1.38-.34a.55.55,0,0,0,.57.59.57.57,0,0,0,.44-.18l-.08-.11a.5.5,0,0,1-.35.14.38.38,0,0,1-.4-.38h.9v-.05a.55.55,0,0,0-.53-.6A.56.56,0,0,0,244.53,71.48Zm.54-.44a.36.36,0,0,1,.37.37h-.73A.37.37,0,0,1,245.07,71Zm.82,1h.18V70.49h-.18Zm.46-.56a.56.56,0,0,0,.57.59.57.57,0,0,0,.44-.18l-.08-.11a.49.49,0,0,1-.34.14.39.39,0,0,1-.41-.38h.91v-.05a.55.55,0,0,0-.54-.6A.56.56,0,0,0,246.35,71.48Zm.55-.44a.37.37,0,0,1,.37.37h-.74A.37.37,0,0,1,246.9,71Zm.75.44a.56.56,0,0,0,.56.59.48.48,0,0,0,.41-.2l-.11-.11a.35.35,0,0,1-.29.15.43.43,0,0,1,0-.86.34.34,0,0,1,.29.14l.11-.1a.48.48,0,0,0-.41-.2A.56.56,0,0,0,247.65,71.48Zm1.49.59a.24.24,0,0,0,.21-.08l0-.13a.15.15,0,0,1-.12,0c-.07,0-.11-.06-.11-.14v-.7h.23v-.15h-.23v-.31h-.17v.31h-.19v.15h.19v.73C248.9,72,249,72.07,249.14,72.07Zm1.49,0a.59.59,0,1,0-.55-.59A.55.55,0,0,0,250.63,72.07Zm0-.16a.43.43,0,1,1,.37-.43A.39.39,0,0,1,250.63,71.91Zm1,.55v-.59a.46.46,0,0,0,.37.2c.3,0,.5-.23.5-.59s-.2-.59-.5-.59a.45.45,0,0,0-.37.2v-.17h-.18v1.54Zm.69-1c0,.25-.13.43-.36.43a.4.4,0,0,1-.33-.18v-.5a.4.4,0,0,1,.33-.18C252.2,71.05,252.33,71.23,252.33,71.48Zm.75.59a.23.23,0,0,0,.2-.08l-.05-.13a.15.15,0,0,1-.12,0c-.07,0-.11-.06-.11-.14v-.7h.23v-.15H253v-.31h-.17v.31h-.19v.15h.19v.73C252.83,72,252.91,72.07,253.08,72.07Zm.48-1.34a.12.12,0,0,0,.12-.12.12.12,0,0,0-.24,0A.12.12,0,0,0,253.56,70.73ZM253.47,72h.18V70.92h-.18Zm1,0a.59.59,0,1,0-.55-.59A.55.55,0,0,0,254.48,72.07Zm0-.16a.43.43,0,1,1,.37-.43A.39.39,0,0,1,254.48,71.91Zm1.59.13h.18v-.79a.32.32,0,0,0-.36-.36.56.56,0,0,0-.4.19v-.16h-.17V72h.17v-.82a.45.45,0,0,1,.33-.17c.15,0,.25.06.25.26Zm.42-.15a.62.62,0,0,0,.46.18c.29,0,.44-.16.44-.34s-.23-.31-.42-.35-.28-.07-.28-.18.1-.17.25-.17a.43.43,0,0,1,.33.14l.08-.12a.54.54,0,0,0-.41-.16c-.26,0-.42.15-.42.32s.22.29.41.33.29.08.29.2-.1.18-.27.18a.51.51,0,0,1-.37-.16Z"/><rect class="cls-4" x="243.14" y="73.77" width="44.13" height="6.45" rx="0.41"/><path class="cls-24" d="M286.86,80.3h-43.3a.49.49,0,0,1-.5-.49V74.19a.5.5,0,0,1,.5-.5h43.3a.5.5,0,0,1,.5.5v5.62A.5.5,0,0,1,286.86,80.3Zm-43.3-6.44a.32.32,0,0,0-.33.33v5.62a.33.33,0,0,0,.33.33h43.3a.33.33,0,0,0,.33-.33V74.19a.33.33,0,0,0-.33-.33Z"/><path d="M244.47,77.6a.74.74,0,0,0,.59.25c.42,0,.57-.23.57-.45s-.28-.41-.54-.47-.37-.1-.37-.26.13-.24.32-.24a.57.57,0,0,1,.44.18l.12-.14a.71.71,0,0,0-.55-.21c-.3,0-.53.17-.53.42s.27.38.52.44.39.11.39.29-.08.27-.36.27a.69.69,0,0,1-.49-.22Zm1.38-.34a.56.56,0,0,0,.57.59.6.6,0,0,0,.44-.17l-.08-.11a.5.5,0,0,1-.35.14.39.39,0,0,1-.4-.39h.91v0a.54.54,0,0,0-.54-.6A.56.56,0,0,0,245.85,77.26Zm.55-.44a.36.36,0,0,1,.36.37H246A.37.37,0,0,1,246.4,76.82Zm.82,1h.17V76.28h-.17Zm.45-.56a.56.56,0,0,0,.57.59.64.64,0,0,0,.45-.17l-.09-.11a.49.49,0,0,1-.34.14.41.41,0,0,1-.41-.39h.91v0a.54.54,0,0,0-.54-.6A.56.56,0,0,0,247.67,77.26Zm.55-.44a.37.37,0,0,1,.37.37h-.74A.37.37,0,0,1,248.22,76.82Zm.75.44a.55.55,0,0,0,.56.59.46.46,0,0,0,.41-.19l-.11-.11a.34.34,0,0,1-.29.14.43.43,0,0,1,0-.86.35.35,0,0,1,.29.15l.11-.11a.46.46,0,0,0-.41-.19A.55.55,0,0,0,249,77.26Zm1.5.59a.31.31,0,0,0,.21-.07l-.05-.13a.21.21,0,0,1-.12,0c-.08,0-.12-.06-.12-.14v-.69h.23V76.7h-.23v-.3h-.17v.3H250v.16h.18v.73C250.22,77.76,250.3,77.85,250.47,77.85Zm1.48,0a.59.59,0,1,0-.55-.59A.55.55,0,0,0,252,77.85Zm0-.16a.39.39,0,0,1-.37-.43.37.37,0,1,1,.74,0A.39.39,0,0,1,252,77.69Zm1.59.13h.17V77c0-.25-.12-.36-.35-.36a.53.53,0,0,0-.4.19V76.7h-.17v1.12H253V77a.42.42,0,0,1,.33-.18c.15,0,.25.06.25.26Zm.46-.56a.55.55,0,0,0,.57.59.6.6,0,0,0,.44-.17l-.08-.11a.5.5,0,0,1-.35.14.39.39,0,0,1-.4-.39h.9v0a.53.53,0,0,0-.53-.6A.56.56,0,0,0,254,77.26Zm.54-.44a.36.36,0,0,1,.37.37h-.73A.37.37,0,0,1,254.54,76.82Z"/><path class="cls-20" d="M285.29,76.59l.16.15-.74.74-.74-.74.16-.15.58.58Z"/><path class="cls-17" d="M244,86.77a.68.68,0,0,0,.59-.3l-.16-.09a.53.53,0,0,1-.43.22.63.63,0,0,1,0-1.25.53.53,0,0,1,.43.22l.16-.09a.69.69,0,0,0-.59-.3.8.8,0,0,0,0,1.59Zm1.59,0h.17V86a.32.32,0,0,0-.36-.36.56.56,0,0,0-.4.19V85.2h-.17v1.55H245v-.82a.45.45,0,0,1,.33-.17c.15,0,.26,0,.26.25Zm1,0a.59.59,0,1,0-.55-.58A.54.54,0,0,0,246.56,86.77Zm0-.15a.43.43,0,0,1,0-.86.43.43,0,0,1,0,.86Zm.93-1.18a.11.11,0,0,0,.11-.12.11.11,0,0,0-.11-.11.11.11,0,0,0-.12.11A.12.12,0,0,0,247.49,85.44Zm-.09,1.31h.17V85.63h-.17Zm.45-.56a.55.55,0,0,0,.56.58.46.46,0,0,0,.41-.19l-.11-.11a.35.35,0,0,1-.29.15.39.39,0,0,1-.39-.43.39.39,0,0,1,.39-.43.34.34,0,0,1,.29.14l.11-.1a.47.47,0,0,0-.41-.2A.56.56,0,0,0,247.85,86.19Zm1.15,0a.55.55,0,0,0,.57.58.6.6,0,0,0,.44-.17l-.08-.11a.5.5,0,0,1-.35.14.39.39,0,0,1-.4-.38h.91v0a.55.55,0,0,0-.54-.6A.56.56,0,0,0,249,86.19Zm.55-.44a.37.37,0,0,1,.37.37h-.74A.37.37,0,0,1,249.55,85.75Zm1.41,1h.18V86a.4.4,0,0,1,.3-.18h.07v-.17a.46.46,0,0,0-.37.2v-.18H251Zm1.47,0h.17V86c0-.27-.2-.38-.43-.38a.58.58,0,0,0-.45.19l.08.12a.44.44,0,0,1,.34-.16c.17,0,.29.09.29.24v.2a.48.48,0,0,0-.37-.15.36.36,0,0,0-.39.36.37.37,0,0,0,.39.37.5.5,0,0,0,.37-.15Zm0-.24a.4.4,0,0,1-.31.14.25.25,0,1,1,0-.49.4.4,0,0,1,.31.14Zm1.27.24h.18V86a.32.32,0,0,0-.36-.36.56.56,0,0,0-.4.19v-.16H253v1.12h.17v-.82a.45.45,0,0,1,.33-.17c.15,0,.25.06.25.26Zm1.33,0h.18V85.2H255v.6a.46.46,0,0,0-.37-.2c-.3,0-.5.23-.5.59s.2.58.5.58a.47.47,0,0,0,.37-.19Zm0-.31a.4.4,0,0,1-.33.18c-.23,0-.36-.18-.36-.43s.13-.43.36-.43a.4.4,0,0,1,.33.18Zm1,.33a.59.59,0,1,0-.55-.58A.54.54,0,0,0,256,86.77Zm0-.15a.43.43,0,1,1,.37-.43A.39.39,0,0,1,256,86.62Zm2.19.13h.17v-.81c0-.22-.11-.34-.31-.34a.5.5,0,0,0-.38.21.28.28,0,0,0-.3-.21.5.5,0,0,0-.36.19v-.16h-.17v1.12h.17v-.82a.39.39,0,0,1,.3-.17c.14,0,.2.09.2.23v.76h.17v-.82a.4.4,0,0,1,.3-.17c.14,0,.21.09.21.23Zm.6-1.31a.12.12,0,0,0,.12-.12.11.11,0,0,0-.12-.11.11.11,0,0,0-.11.11A.11.11,0,0,0,258.83,85.44Zm-.08,1.31h.17V85.63h-.17Zm.46,0h.85V86.6h-.62l.62-.84v-.13h-.85v.15h.62l-.62.83Zm1.85,0h.17V86c0-.27-.2-.38-.43-.38a.58.58,0,0,0-.45.19l.08.12a.44.44,0,0,1,.35-.16.25.25,0,0,1,.28.24v.2a.48.48,0,0,0-.37-.15.36.36,0,0,0-.39.36.37.37,0,0,0,.39.37.5.5,0,0,0,.37-.15Zm0-.24a.4.4,0,0,1-.31.14.25.25,0,1,1,0-.49.4.4,0,0,1,.31.14Zm.8.26a.29.29,0,0,0,.21-.07l-.05-.13a.15.15,0,0,1-.12.05c-.08,0-.11-.06-.11-.14v-.7H262v-.15h-.22v-.31h-.18v.31h-.18v.15h.18v.73A.23.23,0,0,0,261.86,86.77Zm.48-1.33a.12.12,0,0,0,.12-.12.11.11,0,0,0-.12-.11.11.11,0,0,0-.11.11A.11.11,0,0,0,262.34,85.44Zm-.08,1.31h.17V85.63h-.17Zm1,0a.59.59,0,0,0,0-1.17.59.59,0,0,0,0,1.17Zm0-.15a.43.43,0,1,1,.37-.43A.39.39,0,0,1,263.27,86.62Zm1.59.13H265V86a.32.32,0,0,0-.36-.36.56.56,0,0,0-.39.19v-.16h-.18v1.12h.18v-.82a.41.41,0,0,1,.33-.17c.15,0,.25.06.25.26Z"/><rect class="cls-4" x="243.14" y="88.48" width="44.13" height="6.45" rx="0.41"/><path class="cls-24" d="M286.86,95h-43.3a.49.49,0,0,1-.5-.49V88.9a.5.5,0,0,1,.5-.5h43.3a.5.5,0,0,1,.5.5v5.62A.5.5,0,0,1,286.86,95Zm-43.3-6.44a.32.32,0,0,0-.33.33v5.62a.33.33,0,0,0,.33.33h43.3a.33.33,0,0,0,.33-.33V88.9a.33.33,0,0,0-.33-.33Z"/><path d="M245.46,92.53h.22l-.41-.63a.43.43,0,0,0,.4-.45.45.45,0,0,0-.49-.46h-.62v1.54h.2v-.61h.3Zm0-1.08a.29.29,0,0,1-.31.3h-.4v-.59h.4A.29.29,0,0,1,245.47,91.45Zm1.15,1.08h.17v-.77c0-.27-.2-.37-.43-.37a.61.61,0,0,0-.45.18l.08.12a.47.47,0,0,1,.35-.15c.16,0,.28.08.28.23V92a.48.48,0,0,0-.37-.15.37.37,0,0,0-.39.37.37.37,0,0,0,.39.37.46.46,0,0,0,.37-.16Zm0-.23a.39.39,0,0,1-.31.13.24.24,0,1,1,0-.48.37.37,0,0,1,.31.14Zm1.27.23h.18v-.78a.31.31,0,0,0-.36-.36.55.55,0,0,0-.4.19v-.17h-.17v1.12h.17v-.81a.43.43,0,0,1,.33-.18c.15,0,.25.06.25.26Zm1.33,0h.18V91h-.18v.59a.45.45,0,0,0-.37-.19.51.51,0,0,0-.5.58c0,.37.2.59.5.59a.47.47,0,0,0,.37-.19Zm0-.3a.39.39,0,0,1-.33.17c-.23,0-.36-.18-.36-.43s.13-.43.36-.43a.4.4,0,0,1,.33.18Zm1,.33a.59.59,0,0,0,0-1.17.59.59,0,0,0,0,1.17Zm0-.16a.39.39,0,0,1-.37-.43.37.37,0,1,1,.74,0A.39.39,0,0,1,250.23,92.4Zm2.19.13h.17v-.81c0-.22-.11-.33-.31-.33a.46.46,0,0,0-.37.2.31.31,0,0,0-.31-.2.47.47,0,0,0-.36.19v-.17h-.17v1.12h.17v-.81a.37.37,0,0,1,.3-.18c.14,0,.2.09.2.23v.76h.18v-.82a.37.37,0,0,1,.29-.17c.15,0,.21.09.21.23Zm.52,0h.17V91h-.17Zm.48.28,0,.16.12,0a.35.35,0,0,0,.33-.23l.56-1.35h-.19l-.37.92-.37-.92h-.19l.47,1.13-.07.17a.17.17,0,0,1-.17.12Zm1.82-.28h.17v-1h.23v-.16h-.23v-.08c0-.14.06-.22.18-.22l.1,0,0-.13a.4.4,0,0,0-.17,0,.32.32,0,0,0-.32.36v.08h-.19v.16h.19Zm.6,0H256V91h-.18Zm.61-1.3a.13.13,0,0,0,.12-.12.12.12,0,0,0-.24,0A.13.13,0,0,0,256.45,91.23Zm-.09,1.3h.18V91.41h-.18Zm.7.43v-.6a.44.44,0,0,0,.37.2c.3,0,.5-.23.5-.59s-.2-.58-.5-.58a.47.47,0,0,0-.37.19v-.17h-.18V93Zm.69-1c0,.25-.14.43-.36.43a.4.4,0,0,1-.33-.18v-.5a.4.4,0,0,1,.33-.18C257.61,91.54,257.75,91.72,257.75,92Zm.29.61h.14l.54-1.64h-.13Zm.86,0h.17v-.79a.42.42,0,0,1,.3-.18h.07v-.18a.49.49,0,0,0-.37.2v-.18h-.17Zm1.25,0a.59.59,0,1,0-.55-.59A.55.55,0,0,0,260.15,92.56Zm0-.16a.39.39,0,0,1-.37-.43.37.37,0,1,1,.74,0A.39.39,0,0,1,260.15,92.4Zm1.12.16a.27.27,0,0,0,.2-.07l-.05-.13a.18.18,0,0,1-.11,0c-.08,0-.12-.06-.12-.14v-.69h.23v-.16h-.23v-.3H261v.3h-.19v.16H261v.73A.23.23,0,0,0,261.27,92.56Zm1.09,0h.18v-.77c0-.27-.2-.37-.44-.37a.59.59,0,0,0-.44.18l.08.12a.46.46,0,0,1,.34-.15c.16,0,.28.08.28.23V92a.47.47,0,0,0-.37-.15.37.37,0,0,0-.39.37.37.37,0,0,0,.39.37.46.46,0,0,0,.37-.16Zm0-.23a.35.35,0,0,1-.3.13.24.24,0,1,1,0-.48.34.34,0,0,1,.3.14Zm.81.26a.31.31,0,0,0,.21-.07l-.06-.13a.18.18,0,0,1-.11,0c-.08,0-.12-.06-.12-.14v-.69h.23v-.16h-.23v-.3h-.17v.3h-.19v.16h.19v.73A.23.23,0,0,0,263.17,92.56Zm.33-.59a.56.56,0,0,0,.57.59.6.6,0,0,0,.44-.17l-.08-.11a.49.49,0,0,1-.34.14.4.4,0,0,1-.41-.39h.91v0a.54.54,0,0,0-.54-.6A.56.56,0,0,0,263.5,92Zm.55-.44a.37.37,0,0,1,.37.37h-.74A.37.37,0,0,1,264.05,91.53Zm2.11,1h.18v-.77c0-.27-.2-.37-.43-.37a.6.6,0,0,0-.45.18l.08.12a.46.46,0,0,1,.34-.15c.16,0,.28.08.28.23V92a.47.47,0,0,0-.37-.15.37.37,0,0,0-.39.37.38.38,0,0,0,.39.37.46.46,0,0,0,.37-.16Zm0-.23a.35.35,0,0,1-.3.13.24.24,0,1,1,0-.48.34.34,0,0,1,.3.14Zm.53.23h.17V91h-.17Zm.51,0h.18V91h-.18Z"/><path class="cls-20" d="M285.29,91.3l.16.15-.74.74-.74-.74.16-.15.58.58Z"/><rect class="cls-19" x="243.06" y="100.3" width="44.29" height="6.61" rx="0.5"/><path class="cls-20" d="M257.44,103.61h-.33v1.15h2v.5l.83-.66-.83-.66v.49h-1.65Z"/><path d="M257.28,103.28a.67.67,0,1,1,.66-.67A.67.67,0,0,1,257.28,103.28Zm0-1a.34.34,0,0,0-.34.33.34.34,0,0,0,.67,0A.33.33,0,0,0,257.28,102.28Z"/><path d="M261.12,104.35h.58a.77.77,0,1,0,0-1.54h-.58Zm.27-.24V103h.31a.54.54,0,0,1,0,1.07Zm1.49-1.06a.15.15,0,0,0,.15-.15.15.15,0,1,0-.3,0A.15.15,0,0,0,262.88,103.05Zm-.12,1.3H263v-1.12h-.24Zm.46-.15a.66.66,0,0,0,.48.18c.3,0,.46-.15.46-.35s-.23-.32-.43-.36-.24-.06-.24-.15.08-.12.21-.12a.5.5,0,0,1,.33.13l.1-.17a.65.65,0,0,0-.44-.16c-.28,0-.44.16-.44.34s.23.3.43.35.25.06.25.16-.07.14-.22.14a.6.6,0,0,1-.38-.16Zm1.43.58v-.59a.45.45,0,0,0,.36.19c.29,0,.5-.22.5-.59s-.21-.59-.5-.59a.45.45,0,0,0-.36.18v-.15h-.24v1.55Zm.6-1c0,.22-.12.37-.31.37a.36.36,0,0,1-.29-.15v-.44a.36.36,0,0,1,.29-.15C265.13,103.42,265.25,103.57,265.25,103.79Zm.5.56H266v-1.54h-.24Zm1.24,0h.24v-.74c0-.3-.21-.41-.46-.41a.67.67,0,0,0-.47.18l.1.17a.47.47,0,0,1,.33-.14c.16,0,.26.08.26.21v.17a.45.45,0,0,0-.36-.15.37.37,0,0,0-.39.37.38.38,0,0,0,.39.37.48.48,0,0,0,.36-.15Zm0-.26a.31.31,0,0,1-.26.12c-.14,0-.24-.08-.24-.2s.1-.2.24-.2a.31.31,0,0,1,.26.12Zm.55.48,0,.22h.14a.36.36,0,0,0,.38-.25l.54-1.32h-.26l-.33.84-.32-.84h-.26l.46,1.13-.06.13a.15.15,0,0,1-.16.1Zm1.77-.22h.24v-1.54h-.24Zm1.06,0a.59.59,0,1,0-.57-.59A.56.56,0,0,0,270.37,104.38Zm0-.22a.37.37,0,0,1,0-.74.37.37,0,0,1,0,.74Zm.81.48a.66.66,0,0,0,.47.16c.27,0,.57-.11.57-.51v-1.06H272v.16a.45.45,0,0,0-.36-.19.51.51,0,0,0-.5.58.5.5,0,0,0,.5.57.47.47,0,0,0,.36-.18v.13a.29.29,0,0,1-.33.3.45.45,0,0,1-.36-.14Zm.8-.65a.4.4,0,0,1-.29.15.33.33,0,0,1-.32-.36.32.32,0,0,1,.32-.36.4.4,0,0,1,.29.15Zm.67-.94a.15.15,0,0,0,.15-.15.14.14,0,0,0-.15-.15.15.15,0,0,0-.15.15A.15.15,0,0,0,272.65,103.05Zm-.11,1.3h.24v-1.12h-.24Zm.48-.56a.56.56,0,0,0,.58.59.52.52,0,0,0,.43-.2l-.16-.15a.29.29,0,0,1-.26.13.37.37,0,0,1,0-.74.29.29,0,0,1,.26.13l.16-.15a.52.52,0,0,0-.43-.2A.56.56,0,0,0,273,103.79Z"/></g></g></svg>