<svg id="Layer_1" data-name="Layer 1" xmlns="http://www.w3.org/2000/svg" xmlns:xlink="http://www.w3.org/1999/xlink" viewBox="0 0 700 428"><defs><style>.cls-1{fill:none;}.cls-2{fill:#1a0;}.cls-3{fill:#303030;}.cls-13,.cls-4{fill:#fff;}.cls-5{fill:#232323;}.cls-6{fill:#515151;}.cls-7{fill:#1e1e1e;}.cls-8{fill:#9b9b9b;}.cls-9{clip-path:url(#clip-path);}.cls-10{clip-path:url(#clip-path-2);}.cls-11{fill:#f5f5f5;}.cls-12{fill:#2b2b2b;}.cls-13,.cls-17,.cls-19,.cls-20{fill-rule:evenodd;}.cls-14,.cls-20{fill:#757575;}.cls-15{opacity:0.4;}.cls-16{fill:#e5e5e5;}.cls-18,.cls-19{fill:#4657ce;}.cls-21{fill:#d6d6d6;}.cls-22{fill:#0dd6cc;}.cls-23{fill:#b5b5b5;}</style><clipPath id="clip-path"><rect class="cls-1" x="87.81" y="31.43" width="506" height="322"/></clipPath><clipPath id="clip-path-2"><rect class="cls-1" x="87.81" y="31.43" width="506" height="573.47"/></clipPath></defs><path class="cls-2" d="M616.25,402.84a18.42,18.42,0,0,0,14.47-18.09V34.11a18.32,18.32,0,0,0-18.13-18.46H104.45A18.32,18.32,0,0,0,86.32,34.11V384.75a18.42,18.42,0,0,0,14.46,18.09H22v6.51s20.9,15.19,91.6,15.19H603.4c70.7,0,91.6-15.19,91.6-15.19v-6.51Z"/><path id="Bottom" class="cls-3" d="M69.28,374.11a18.32,18.32,0,0,0,18.13,18.46H595.55a18.32,18.32,0,0,0,18.13-18.46v-6.85H69.28Z"/><path id="Border" d="M595.55,5H87.41A18.32,18.32,0,0,0,69.28,23.47V367.26h544.4V23.47A18.32,18.32,0,0,0,595.55,5Z"/><rect id="_YOUR_SCREEN_HERE_" data-name="[YOUR SCREEN HERE]" class="cls-4" x="88.51" y="31.47" width="505.94" height="321.91"/><path class="cls-5" d="M594.87,353.82H88.09V31H594.87ZM88.94,353H594V31.9H88.94Z"/><polygon class="cls-6" points="677.96 392.19 341.48 392.19 5 392.19 5 398.7 677.96 398.7 677.96 392.19"/><path class="cls-7" d="M341.48,413.89H586.36c70.7,0,91.6-15.19,91.6-15.19H5s20.9,15.19,91.6,15.19Z"/><path class="cls-8" d="M341.48,392.19H277.59v5.89c4.43,1.86,13.38,2.79,25.86,2.79h76.07c12.47,0,21.42-.93,25.85-2.79v-5.89Z"/><path class="cls-3" d="M345.24,19H324.37a1.78,1.78,0,0,1-1.73-1.76,1.75,1.75,0,0,1,1.73-1.75h20.87A1.75,1.75,0,0,1,347,17.27,1.78,1.78,0,0,1,345.24,19Z"/><path class="cls-3" d="M356.84,20.78a3.52,3.52,0,1,1,3.48-3.51A3.5,3.5,0,0,1,356.84,20.78Z"/><g class="cls-9"><g class="cls-10"><rect class="cls-11" x="87.81" y="31.43" width="506" height="573.47"/><rect class="cls-4" x="488.39" y="52.51" width="105.42" height="552.38" rx="1.05"/><rect class="cls-12" x="87.81" y="31.43" width="506" height="21.08"/><path class="cls-13" d="M96.24,36.35v4.23l5.61,5.6,5.6-5.6V36.35l-5.6,5.6Zm11.25,11.24V43.36l-4.23,4.23Zm-11.25,0h4.24l-4.24-4.23ZM110,36.35a.94.94,0,1,0,.94.94A1,1,0,0,0,110,36.35Zm.47,1.48-.29-.43a.36.36,0,0,0,.25-.33.36.36,0,0,0-.36-.36h-.47v1.08h.22v-.36H110l.26.4h.25A.74.74,0,0,1,110,38a.72.72,0,0,1-.72-.72.72.72,0,1,1,1.44,0A.78.78,0,0,1,110.49,37.83Zm-.4-.61h-.25v-.29h.25a.16.16,0,0,1,.15.14A.17.17,0,0,1,110.09,37.22Z"/><path class="cls-4" d="M119.23,44.08h3.21v-.73h-2.38v-1.3h2.34v-.72h-2.34V40.11h2.38v-.72h-3.21Zm6.11,0h.74V41.83c0-.91-.66-1.23-1.41-1.23a2,2,0,0,0-1.43.55l.3.51a1.4,1.4,0,0,1,1-.43c.47,0,.79.24.79.63v.51a1.39,1.39,0,0,0-1.1-.43,1.09,1.09,0,0,0-1.18,1.1,1.13,1.13,0,0,0,1.18,1.12,1.43,1.43,0,0,0,1.1-.45Zm0-.77a1,1,0,0,1-.81.35.62.62,0,1,1,0-1.22,1,1,0,0,1,.81.35Zm1.4.33a2.08,2.08,0,0,0,1.46.52c.91,0,1.41-.45,1.41-1,0-.8-.73-1-1.32-1.1-.4-.09-.73-.18-.73-.44s.24-.38.63-.38a1.36,1.36,0,0,1,1,.41l.31-.52a1.9,1.9,0,0,0-1.32-.48c-.86,0-1.33.48-1.33,1,0,.76.69.92,1.28,1,.41.09.77.2.77.49s-.23.42-.67.42a1.74,1.74,0,0,1-1.15-.48Zm3.58,1.11-.12.66a3,3,0,0,0,.42.05,1.13,1.13,0,0,0,1.16-.77l1.64-4h-.79l-1,2.55-1-2.55h-.79l1.39,3.44-.17.39a.46.46,0,0,1-.48.29A.82.82,0,0,1,130.32,44.75Zm3.57-.67h.73v-.47a1.36,1.36,0,0,0,1.09.55c.87,0,1.51-.66,1.51-1.78a1.58,1.58,0,0,0-1.51-1.78,1.35,1.35,0,0,0-1.09.56V39.39h-.73Zm.73-1V41.72a1.1,1.1,0,0,1,.87-.47,1.14,1.14,0,0,1,0,2.26A1.11,1.11,0,0,1,134.62,43.06Zm5.42,1h.74V41.83c0-.91-.66-1.23-1.41-1.23a2,2,0,0,0-1.43.55l.3.51a1.4,1.4,0,0,1,1-.43c.47,0,.79.24.79.63v.51a1.38,1.38,0,0,0-1.09-.43,1.1,1.1,0,0,0-1.19,1.1A1.13,1.13,0,0,0,139,44.16a1.41,1.41,0,0,0,1.09-.45Zm0-.77a1,1,0,0,1-.81.35.62.62,0,1,1,0-1.22,1,1,0,0,1,.81.35Zm4,.77h.92l-1.44-1.86,1.41-1.54H144l-1.5,1.64V39.39h-.73v4.69h.73v-.92l.48-.48Zm1.06-1.7a1.7,1.7,0,0,0,1.77,1.78,2,2,0,0,0,1.38-.49l-.34-.48a1.45,1.45,0,0,1-1,.37,1,1,0,0,1-1.08-.94h2.62v-.17a1.68,1.68,0,0,0-1.67-1.85A1.71,1.71,0,0,0,145.05,42.38Zm1.72-1.18a.9.9,0,0,1,.95.9h-1.91A1,1,0,0,1,146.77,41.2Z"/><rect class="cls-11" x="96.24" y="63.76" width="383.72" height="71.33"/><path class="cls-14" d="M363.94,70.78h1.66v-.31h-1.31V68h-.35Zm3.35,0h.32v-1.4c0-.49-.36-.68-.79-.68A1.11,1.11,0,0,0,366,69l.15.22a.82.82,0,0,1,.63-.28c.29,0,.51.16.51.43v.37a.85.85,0,0,0-.67-.28.67.67,0,0,0-.72.67.68.68,0,0,0,.72.67.86.86,0,0,0,.67-.28Zm0-.43a.68.68,0,0,1-.56.26.46.46,0,0,1-.5-.45.45.45,0,0,1,.5-.44.68.68,0,0,1,.56.25Zm.77.16a1.09,1.09,0,0,0,.83.32c.52,0,.8-.27.8-.61s-.41-.55-.77-.63-.49-.13-.49-.33.17-.31.45-.31a.77.77,0,0,1,.6.26l.15-.22a1,1,0,0,0-.75-.29c-.49,0-.76.27-.76.58s.39.52.74.6.52.14.52.36-.17.34-.48.34a.93.93,0,0,1-.67-.29Zm2.66.32a.53.53,0,0,0,.38-.13l-.1-.23a.31.31,0,0,1-.21.08c-.14,0-.21-.11-.21-.26V69H371v-.28h-.41v-.56h-.32v.56h-.33V69h.33v1.33A.42.42,0,0,0,370.72,70.83Zm1.63-.32a1.08,1.08,0,0,0,.82.32c.53,0,.8-.27.8-.61s-.41-.55-.76-.63-.5-.13-.5-.33.18-.31.45-.31a.78.78,0,0,1,.61.26l.15-.22a1.06,1.06,0,0,0-.76-.29c-.48,0-.75.27-.75.58s.39.52.73.6.53.14.53.36-.17.34-.48.34a.93.93,0,0,1-.67-.29Zm3.41.27h.32v-1.4c0-.49-.36-.68-.79-.68a1.07,1.07,0,0,0-.81.33l.14.22a.82.82,0,0,1,.63-.28c.29,0,.51.16.51.43v.37a.83.83,0,0,0-.67-.28.67.67,0,0,0-.72.67.68.68,0,0,0,.72.67.86.86,0,0,0,.67-.28Zm0-.43a.68.68,0,0,1-.56.26.46.46,0,0,1-.5-.45.45.45,0,0,1,.5-.44.68.68,0,0,1,.56.25Zm1.5.43h.34l.85-2h-.35l-.67,1.67-.68-1.67h-.34Zm1.4-1a1,1,0,0,0,1,1.07,1.09,1.09,0,0,0,.81-.31l-.15-.2a.91.91,0,0,1-.63.25.72.72,0,0,1-.74-.7h1.65v-.08a1,1,0,0,0-1-1.09A1,1,0,0,0,378.66,69.76Zm1-.8a.66.66,0,0,1,.67.68H379A.69.69,0,0,1,379.66,69Zm3,1.82H383V68h-.32v1.09a.83.83,0,0,0-.69-.36c-.53,0-.9.42-.9,1.07s.37,1.06.9,1.06a.84.84,0,0,0,.69-.35Zm0-.55a.75.75,0,0,1-.61.32c-.41,0-.65-.33-.65-.78s.24-.79.65-.79a.75.75,0,0,1,.61.33Zm1.94-.85c0,.68.3,1.45,1.07,1.45s1.08-.77,1.08-1.45-.31-1.45-1.08-1.45S384.57,68.69,384.57,69.38Zm1.79,0c0,.56-.18,1.14-.72,1.14s-.72-.58-.72-1.14.19-1.14.72-1.14S386.36,68.82,386.36,69.38Zm4.43,1.4h.32V69.31c0-.41-.2-.61-.57-.61a.84.84,0,0,0-.68.38.53.53,0,0,0-.55-.38.89.89,0,0,0-.66.34v-.29h-.31v2h.31V69.3a.7.7,0,0,1,.54-.32c.26,0,.37.16.37.42v1.38h.32V69.29a.7.7,0,0,1,.54-.31c.26,0,.37.16.37.42Zm1.11-2.37a.21.21,0,0,0,.21-.22.21.21,0,1,0-.42,0A.21.21,0,0,0,391.9,68.41Zm-.16,2.37h.32v-2h-.32Zm2.32,0h.32V69.35a.57.57,0,0,0-.65-.65A1,1,0,0,0,393,69v-.29h-.31v2H393V69.3a.79.79,0,0,1,.61-.32c.27,0,.45.11.45.47Zm2.33,0h.31v-2h-.31v1.49a.78.78,0,0,1-.61.31c-.27,0-.45-.1-.45-.46V68.75H395v1.44a.57.57,0,0,0,.65.64,1,1,0,0,0,.73-.33Zm1.46,0a.51.51,0,0,0,.38-.13l-.1-.23a.31.31,0,0,1-.21.08c-.14,0-.21-.11-.21-.26V69h.42v-.28h-.42v-.56h-.31v.56h-.34V69h.34v1.33A.41.41,0,0,0,397.85,70.83Zm.6-1.07a1,1,0,0,0,1,1.07,1.06,1.06,0,0,0,.81-.31l-.15-.2a.91.91,0,0,1-.63.25.71.71,0,0,1-.73-.7h1.65v-.08a1,1,0,0,0-1-1.09A1,1,0,0,0,398.45,69.76Zm1-.8a.65.65,0,0,1,.67.68h-1.33A.67.67,0,0,1,399.45,69Zm1.32,1.55a1.08,1.08,0,0,0,.82.32c.53,0,.81-.27.81-.61s-.41-.55-.77-.63-.5-.13-.5-.33.18-.31.46-.31a.77.77,0,0,1,.6.26l.15-.22a1,1,0,0,0-.75-.29c-.49,0-.76.27-.76.58s.39.52.73.6.53.14.53.36-.17.34-.48.34a.93.93,0,0,1-.67-.29Zm4.5.27h.32v-1.4c0-.49-.36-.68-.79-.68A1.09,1.09,0,0,0,404,69l.15.22a.82.82,0,0,1,.63-.28c.29,0,.51.16.51.43v.37a.85.85,0,0,0-.67-.28.67.67,0,0,0-.72.67.68.68,0,0,0,.72.67.86.86,0,0,0,.67-.28Zm0-.43a.68.68,0,0,1-.56.26.46.46,0,0,1-.5-.45.45.45,0,0,1,.5-.44.68.68,0,0,1,.56.25Zm1,1a1,1,0,0,0,.82.3c.5,0,1-.21,1-.88v-2h-.32v.31a.82.82,0,0,0-.68-.36c-.54,0-.91.4-.91,1.06a.93.93,0,0,0,.91,1,.86.86,0,0,0,.68-.36v.29a.58.58,0,0,1-.65.61.77.77,0,0,1-.66-.28Zm1.47-1.11a.74.74,0,0,1-.61.33.68.68,0,0,1-.65-.77c0-.46.25-.78.65-.78a.74.74,0,0,1,.61.33Zm1.84.63a1.07,1.07,0,1,0-1-1.07A1,1,0,0,0,409.53,70.83Zm0-.28a.79.79,0,0,1,0-1.57.79.79,0,0,1,0,1.57Z"/><g class="cls-15"><rect class="cls-16" x="416.36" y="63.76" width="26.35" height="11.24" rx="1.05"/><rect x="422.92" y="67.27" width="0.94" height="0.94"/><rect x="422.45" y="70.32" width="1.87" height="1.17"/><path class="cls-17" d="M425.5,68.91v-.7l-.94-.94h-.23v1.41h-1.88V67.27h-.94l-.23.23v4h.7V69.85h2.81v1.64h.71V68.91Z"/><path d="M427.8,70.5a1.76,1.76,0,0,0,1.34.52c.88,0,1.27-.47,1.27-1,0-.72-.65-.89-1.19-1s-.72-.18-.72-.44.21-.41.55-.41a1.34,1.34,0,0,1,.95.37l.33-.42a1.68,1.68,0,0,0-1.23-.46c-.72,0-1.19.42-1.19,1s.63.85,1.16,1,.75.19.75.49-.19.45-.66.45a1.39,1.39,0,0,1-1-.46Zm4.57.46h.52V69.39c0-.64-.46-.87-1-.87a1.43,1.43,0,0,0-1,.39l.21.36a1,1,0,0,1,.71-.3c.33,0,.55.16.55.44v.35a1,1,0,0,0-.77-.3.77.77,0,0,0-.82.77.79.79,0,0,0,.82.79,1,1,0,0,0,.77-.32Zm0-.54a.7.7,0,0,1-.56.24c-.29,0-.51-.16-.51-.42a.46.46,0,0,1,.51-.43.71.71,0,0,1,.56.25Zm1.81.54h.56l1-2.38h-.56l-.69,1.78-.69-1.78h-.56Zm1.71-1.19A1.19,1.19,0,0,0,437.13,71a1.35,1.35,0,0,0,1-.35l-.23-.33a1,1,0,0,1-.68.26.72.72,0,0,1-.75-.66h1.83v-.12a1.18,1.18,0,0,0-1.17-1.3A1.2,1.2,0,0,0,435.89,69.77Zm1.2-.82a.64.64,0,0,1,.67.63h-1.34A.66.66,0,0,1,437.09,69Z"/></g><rect class="cls-18" x="448.34" y="63.76" width="31.63" height="11.24" rx="1.05"/><path class="cls-4" d="M454.19,71.25a1.41,1.41,0,0,1,0-2.81h0a1.41,1.41,0,0,1,2.8.24,2.13,2.13,0,0,1,0,.25,1.17,1.17,0,0,1-.21,2.32H455.6V69.71l.54.54.33-.33-1.11-1.11-1.1,1.11.33.33.54-.54v1.54Z"/><path class="cls-4" d="M460,71h.57V69.73h.87a1,1,0,1,0,0-2H460Zm1.92-2.25a.52.52,0,0,1-.56.52h-.79v-1h.79A.52.52,0,0,1,461.87,68.71ZM464.53,71h.52V68.58h-.52v1.67a.79.79,0,0,1-.61.31c-.29,0-.48-.11-.48-.48v-1.5h-.52v1.69a.68.68,0,0,0,.77.75,1.11,1.11,0,0,0,.84-.38Zm1.19,0h.51v-.32A1,1,0,0,0,467,71c.6,0,1.05-.46,1.05-1.25A1.11,1.11,0,0,0,467,68.52a1,1,0,0,0-.77.39V67.68h-.51Zm.51-.71v-.94a.78.78,0,0,1,.61-.33.8.8,0,0,1,0,1.58A.8.8,0,0,1,466.23,70.25Zm2.34.71h.52V67.68h-.52ZM470,68.19a.32.32,0,1,0-.32-.32A.32.32,0,0,0,470,68.19ZM469.76,71h.52V68.58h-.52Zm1-.31a1.47,1.47,0,0,0,1,.37c.64,0,1-.32,1-.74s-.51-.68-.92-.77-.52-.12-.52-.31.17-.26.44-.26a1,1,0,0,1,.71.28l.21-.36a1.35,1.35,0,0,0-.92-.34c-.6,0-.94.34-.94.73s.49.64.9.73.54.13.54.34-.16.29-.47.29a1.22,1.22,0,0,1-.8-.33Zm4.14.31h.51V69.28a.68.68,0,0,0-.77-.76,1.14,1.14,0,0,0-.84.39V67.68h-.51V71h.51V69.3a.82.82,0,0,1,.62-.32.42.42,0,0,1,.48.48Z"/><path class="cls-18" d="M97.27,70.78h.35v-2.5h.89V68H96.38v.31h.89Zm1.34,0h.31V69.34a.77.77,0,0,1,.56-.32h.12v-.32a.86.86,0,0,0-.68.37v-.33h-.31Zm2.66,0h.32v-1.4c0-.49-.36-.68-.79-.68A1.09,1.09,0,0,0,100,69l.14.22a.84.84,0,0,1,.63-.28c.29,0,.51.16.51.43v.37a.83.83,0,0,0-.67-.28.66.66,0,0,0-.71.67.67.67,0,0,0,.71.67.86.86,0,0,0,.67-.28Zm0-.43a.67.67,0,0,1-.56.26.46.46,0,0,1-.5-.45.45.45,0,0,1,.5-.44.66.66,0,0,1,.56.25Zm.84-.59a1,1,0,0,0,1,1.07.89.89,0,0,0,.75-.35l-.21-.19a.62.62,0,0,1-.52.26.72.72,0,0,1-.71-.79.71.71,0,0,1,.71-.78.61.61,0,0,1,.52.27l.21-.2a.89.89,0,0,0-.75-.35A1,1,0,0,0,102.11,69.76Zm3.59,1h.4l-.9-1.11.9-.92h-.4l-1.07,1.08V68h-.32v2.81h.32V70.2l.33-.33Zm.56-1a1,1,0,0,0,1,1.07,1.09,1.09,0,0,0,.81-.31l-.15-.2a.93.93,0,0,1-.63.25.72.72,0,0,1-.74-.7h1.65v-.08a1,1,0,0,0-1-1.09A1,1,0,0,0,106.26,69.76Zm1-.8a.66.66,0,0,1,.67.68h-1.34A.69.69,0,0,1,107.26,69Zm1.49,1.82h.32V69.34a.75.75,0,0,1,.55-.32h.13v-.32a.84.84,0,0,0-.68.37v-.33h-.32Zm1.22-.27a1.08,1.08,0,0,0,.82.32c.53,0,.8-.27.8-.61s-.41-.55-.76-.63-.5-.13-.5-.33.17-.31.45-.31a.79.79,0,0,1,.61.26l.15-.22a1.06,1.06,0,0,0-.76-.29c-.48,0-.76.27-.76.58s.4.52.74.6.52.14.52.36-.16.34-.48.34a1,1,0,0,1-.67-.29Z"/><path class="cls-14" d="M114.87,70.87h.25l1-3h-.25Z"/><path class="cls-18" d="M119.41,70.78h1.29a.73.73,0,0,0,.81-.75.71.71,0,0,0-.55-.7.64.64,0,0,0,.5-.64.71.71,0,0,0-.79-.72h-1.26Zm.35-1.59v-.91h.85a.45.45,0,0,1,.48.46.43.43,0,0,1-.48.45Zm0,1.28v-1h.86a.48.48,0,0,1,.53.49.47.47,0,0,1-.53.48Zm2.29.31h.32V69.34a.75.75,0,0,1,.55-.32h.13v-.32a.84.84,0,0,0-.68.37v-.33h-.32Zm2.67,0H125v-1.4c0-.49-.35-.68-.78-.68a1.09,1.09,0,0,0-.82.33l.15.22a.82.82,0,0,1,.62-.28c.3,0,.52.16.52.43v.37a.87.87,0,0,0-.68-.28.66.66,0,0,0-.71.67.68.68,0,0,0,.71.67.87.87,0,0,0,.68-.28Zm0-.43a.68.68,0,0,1-.56.26.46.46,0,0,1-.5-.45.45.45,0,0,1,.5-.44.68.68,0,0,1,.56.25Zm2.32.43h.32V69.35a.57.57,0,0,0-.65-.65A1,1,0,0,0,126,69v-.29h-.32v2H126V69.3a.75.75,0,0,1,.6-.32c.27,0,.45.11.45.47Zm2.43,0h.31V68h-.31v1.09a.85.85,0,0,0-.69-.36,1.08,1.08,0,0,0,0,2.13.84.84,0,0,0,.69-.35Zm0-.55a.76.76,0,0,1-.61.32c-.41,0-.66-.33-.66-.78s.25-.79.66-.79a.77.77,0,0,1,.61.33Zm2.74.55h.35v-2.5h.9V68h-2.14v.31h.89Zm1.34,0h.32V69.34a.75.75,0,0,1,.55-.32h.13v-.32a.84.84,0,0,0-.68.37v-.33h-.32Zm2.67,0h.31v-1.4c0-.49-.36-.68-.79-.68a1.09,1.09,0,0,0-.81.33l.15.22a.82.82,0,0,1,.62-.28c.3,0,.52.16.52.43v.37a.87.87,0,0,0-.68-.28.66.66,0,0,0-.71.67.68.68,0,0,0,.71.67.87.87,0,0,0,.68-.28Zm0-.43a.7.7,0,0,1-.57.26.46.46,0,0,1-.5-.45.45.45,0,0,1,.5-.44.7.7,0,0,1,.57.25Zm.83-.59a1,1,0,0,0,1,1.07.88.88,0,0,0,.75-.35l-.21-.19a.62.62,0,0,1-.52.26.71.71,0,0,1-.7-.79.71.71,0,0,1,.7-.78.61.61,0,0,1,.52.27l.21-.2a.88.88,0,0,0-.75-.35A1,1,0,0,0,137.05,69.76Zm3.59,1h.41l-.91-1.11.9-.92h-.4l-1.07,1.08V68h-.32v2.81h.32V70.2l.34-.33Zm.56-1a1,1,0,0,0,1,1.07,1.08,1.08,0,0,0,.81-.31l-.15-.2a.91.91,0,0,1-.63.25.71.71,0,0,1-.73-.7h1.64v-.08a1,1,0,0,0-1-1.09A1,1,0,0,0,141.2,69.76Zm1-.8a.65.65,0,0,1,.67.68h-1.33A.67.67,0,0,1,142.2,69Zm1.5,1.82H144V69.34a.77.77,0,0,1,.56-.32h.12v-.32a.86.86,0,0,0-.68.37v-.33h-.31Z"/><path class="cls-14" d="M147.9,70.87h.25l1-3h-.25Z"/><path class="cls-14" d="M154.6,70.78H155l.81-2.81h-.39l-.62,2.35L154.12,68h-.29l-.64,2.35L152.56,68h-.39l.81,2.81h.38l.62-2.26Zm2.66,0h.32v-1.4c0-.49-.36-.68-.79-.68A1.09,1.09,0,0,0,156,69l.15.22a.82.82,0,0,1,.62-.28c.3,0,.52.16.52.43v.37a.87.87,0,0,0-.68-.28.66.66,0,0,0-.71.67.68.68,0,0,0,.71.67.87.87,0,0,0,.68-.28Zm0-.43a.68.68,0,0,1-.56.26.46.46,0,0,1-.5-.45.45.45,0,0,1,.5-.44.68.68,0,0,1,.56.25Zm1.49.43h.35l.85-2h-.35l-.67,1.67-.68-1.67h-.34Zm1.41-1a1,1,0,0,0,1,1.07,1.09,1.09,0,0,0,.81-.31l-.16-.2a.89.89,0,0,1-.62.25.72.72,0,0,1-.74-.7h1.65v-.08a1,1,0,0,0-1-1.09A1,1,0,0,0,160.16,69.76Zm1-.8a.66.66,0,0,1,.67.68h-1.34A.68.68,0,0,1,161.16,69Zm3,1.82h.35V68h-.3l-.71.73.21.21.45-.47Zm2.1,0h1.84v-.31h-1.49v-1h1.46v-.31h-1.46v-.91h1.49V68h-1.84Zm3.86,0h.32V68h-.32v1.09a.83.83,0,0,0-.69-.36c-.53,0-.9.42-.9,1.07s.37,1.06.9,1.06a.84.84,0,0,0,.69-.35Zm0-.55a.75.75,0,0,1-.61.32c-.41,0-.65-.33-.65-.78s.24-.79.65-.79a.75.75,0,0,1,.61.33Zm1.11-1.82a.21.21,0,0,0,.21-.22.21.21,0,1,0-.42,0A.21.21,0,0,0,171.24,68.41Zm-.16,2.37h.32v-2h-.32Zm1.46,0a.49.49,0,0,0,.38-.13l-.09-.23a.33.33,0,0,1-.21.08c-.14,0-.21-.11-.21-.26V69h.41v-.28h-.41v-.56h-.32v.56h-.34V69h.34v1.33A.41.41,0,0,0,172.54,70.83Zm1.62,0a1.07,1.07,0,1,0-1-1.07A1,1,0,0,0,174.16,70.83Zm0-.28a.79.79,0,1,1,.67-.79A.71.71,0,0,1,174.16,70.55Zm1.52.23H176V69.34a.75.75,0,0,1,.55-.32h.13v-.32a.84.84,0,0,0-.68.37v-.33h-.32Z"/><path class="cls-14" d="M96.54,90.11h1.93v-.43H97V88.9h1.4v-.44H97v-.73h1.43V87.3H96.54Zm3,0h1a1.41,1.41,0,1,0,0-2.81h-1Zm.49-.43v-2h.55a.92.92,0,0,1,1,1,.93.93,0,0,1-1,1Zm3,.43h.49V87.3H103Zm2.28,0h.5V87.73h.85V87.3h-2.2v.43h.85Zm2.06-1.4a1.44,1.44,0,1,0,1.44-1.46A1.39,1.39,0,0,0,107.37,88.71Zm2.37,0a.93.93,0,1,1-.93-1A.94.94,0,0,1,109.74,88.71Zm3.12,1.4h.56l-.68-1.1a.8.8,0,0,0,.66-.83.85.85,0,0,0-.92-.88h-1.23v2.81h.49v-1h.49Zm0-1.93a.44.44,0,0,1-.48.45h-.68v-.9h.68A.44.44,0,0,1,112.9,88.18Z"/><path d="M102,103.46h1.23l1.87-6.56h-1.29L102.5,102l-1.36-5.06h-.91L98.87,102,97.59,96.9H96.3l1.88,6.56h1.23l1.27-4.84Zm6.35,0h1v-3.15c0-1.27-.92-1.72-2-1.72a2.84,2.84,0,0,0-2,.77l.42.72a2,2,0,0,1,1.41-.6c.66,0,1.11.33,1.11.88v.71a2,2,0,0,0-1.53-.61,1.54,1.54,0,0,0-1.66,1.55,1.58,1.58,0,0,0,1.66,1.57,2,2,0,0,0,1.53-.63Zm0-1.08a1.38,1.38,0,0,1-1.13.49.86.86,0,1,1,0-1.7,1.41,1.41,0,0,1,1.13.49Zm3.62,1.08H113L115,98.71h-1.11l-1.39,3.56-1.38-3.56H110Zm3.41-2.38a2.39,2.39,0,0,0,2.49,2.5,2.72,2.72,0,0,0,1.92-.69l-.47-.68a2,2,0,0,1-1.35.53,1.45,1.45,0,0,1-1.51-1.31h3.67v-.25a2.36,2.36,0,0,0-2.34-2.59A2.4,2.4,0,0,0,115.34,101.08Zm2.41-1.64a1.27,1.27,0,0,1,1.33,1.26h-2.67A1.31,1.31,0,0,1,117.75,99.44Zm7.1,4H126V96.9h-1l-1.89,1.91.67.7,1.07-1.11Z"/><path class="cls-14" d="M101.4,112.78a2.35,2.35,0,1,1-2.34-2.35A2.34,2.34,0,0,1,101.4,112.78Z"/><path class="cls-14" d="M103.62,114.36h1.22a1.64,1.64,0,1,0,0-3.28h-1.22Zm.58-.51v-2.27h.64a1.06,1.06,0,0,1,1.13,1.14,1.08,1.08,0,0,1-1.13,1.13Zm2.9.51h.52v-1.62a.8.8,0,0,1,.61-.32l.16,0v-.51a1,1,0,0,0-.77.4V112h-.52Zm3.16,0h.51v-1.58c0-.64-.46-.86-1-.86a1.4,1.4,0,0,0-1,.38l.21.36a1,1,0,0,1,.7-.3c.33,0,.56.17.56.45v.35a1,1,0,0,0-.77-.3.76.76,0,0,0-.83.77.8.8,0,0,0,.83.79,1,1,0,0,0,.77-.32Zm0-.54a.7.7,0,0,1-.57.24.43.43,0,1,1,0-.85.68.68,0,0,1,.57.25Zm1.31.54h.51v-1.93h.48V112h-.48v-.13c0-.27.13-.4.33-.4a.36.36,0,0,1,.21,0l.11-.38a.83.83,0,0,0-.41-.09.73.73,0,0,0-.75.82V112h-.4v.45h.4Zm2.1.06a.7.7,0,0,0,.49-.16l-.13-.39a.31.31,0,0,1-.23.09c-.15,0-.22-.12-.22-.28v-1.25h.48V112h-.48v-.65h-.52V112h-.39v.45h.39v1.38A.55.55,0,0,0,113.67,114.42Z"/><path class="cls-19" d="M97.88,129.06H100l.94.93v3a.7.7,0,0,1-.7.7H97.88a.7.7,0,0,1-.7-.7v-3.28A.7.7,0,0,1,97.88,129.06Zm2.35,1.4H97.88v.47h2.35Zm-2.35.94h2.35v.47H97.88Zm2.35.94H97.88v.46h2.35Z"/><path class="cls-18" d="M107.32,133h.55V129.7h-.57V132l-1.68-2.33H105V133h.57v-2.39Zm2.68,0h.52v-1.57c0-.64-.46-.87-1-.87a1.43,1.43,0,0,0-1,.39l.22.36a1,1,0,0,1,.7-.3c.33,0,.55.16.55.44v.35a1,1,0,0,0-.76-.3.77.77,0,0,0-.83.77.79.79,0,0,0,.83.79,1,1,0,0,0,.76-.32Zm0-.54a.67.67,0,0,1-.56.24c-.29,0-.51-.16-.51-.42a.46.46,0,0,1,.51-.43.68.68,0,0,1,.56.25Zm1.9.6a.66.66,0,0,0,.49-.15l-.12-.39a.35.35,0,0,1-.23.08c-.15,0-.23-.12-.23-.28v-1.24h.48v-.46h-.48V130h-.52v.65h-.39v.46h.39v1.37A.55.55,0,0,0,111.9,133Zm1.12-2.83a.32.32,0,1,0-.32-.32A.32.32,0,0,0,113,130.21Zm-.26,2.77h.52V130.6h-.52ZM115,133a1.25,1.25,0,1,0-1.22-1.25A1.2,1.2,0,0,0,115,133Zm0-.46a.8.8,0,0,1,0-1.58.8.8,0,0,1,0,1.58Zm3.35.4h.52v-1.67a.69.69,0,0,0-.77-.77,1.1,1.1,0,0,0-.83.39v-.33h-.52V133h.52v-1.66a.77.77,0,0,1,.61-.32c.29,0,.47.13.47.49Zm2.64,0h.52v-1.57c0-.64-.46-.87-1-.87a1.43,1.43,0,0,0-1,.39l.21.36a1,1,0,0,1,.71-.3c.32,0,.55.16.55.44v.35a1,1,0,0,0-.77-.3.76.76,0,0,0-.82.77.78.78,0,0,0,.82.79,1,1,0,0,0,.77-.32Zm0-.54a.7.7,0,0,1-.56.24c-.29,0-.51-.16-.51-.42a.46.46,0,0,1,.51-.43.71.71,0,0,1,.56.25Zm1.19.54h.51V129.7h-.51Zm3.24,0H126v-2.77h1v-.51h-2.56v.51h1Zm1.38-1.19a1.19,1.19,0,0,0,1.24,1.25,1.39,1.39,0,0,0,1-.35l-.24-.33a1,1,0,0,1-.67.26.72.72,0,0,1-.76-.66h1.84v-.12a1.18,1.18,0,0,0-1.17-1.3A1.2,1.2,0,0,0,126.82,131.79ZM128,131a.63.63,0,0,1,.66.63h-1.33A.65.65,0,0,1,128,131Zm4.59,2h.51v-1.72c0-.48-.24-.72-.68-.72a1,1,0,0,0-.81.44.61.61,0,0,0-.65-.44,1,1,0,0,0-.77.39v-.33h-.51V133h.51v-1.66a.72.72,0,0,1,.55-.32c.28,0,.39.17.39.43V133h.52v-1.66a.7.7,0,0,1,.55-.32c.28,0,.39.17.39.43Zm1.7.91v-1.24a.92.92,0,0,0,.76.39c.62,0,1.06-.47,1.06-1.25s-.44-1.25-1.06-1.25a.94.94,0,0,0-.76.39v-.33h-.52v3.29Zm1.28-2.1a.7.7,0,0,1-.67.79.79.79,0,0,1-.61-.32v-.94a.79.79,0,0,1,.61-.32A.7.7,0,0,1,135.6,131.79Zm1.06,1.19h.51V129.7h-.51Zm2.64,0h.51v-1.57c0-.64-.46-.87-1-.87a1.43,1.43,0,0,0-1,.39l.22.36a1,1,0,0,1,.7-.3c.33,0,.56.16.56.44v.35a1,1,0,0,0-.77-.3.77.77,0,0,0-.83.77.79.79,0,0,0,.83.79,1,1,0,0,0,.77-.32Zm0-.54a.7.7,0,0,1-.57.24c-.29,0-.51-.16-.51-.42a.46.46,0,0,1,.51-.43.71.71,0,0,1,.57.25Zm1.89.6a.66.66,0,0,0,.49-.15l-.12-.39a.35.35,0,0,1-.23.08c-.15,0-.23-.12-.23-.28v-1.24h.48v-.46h-.48V130h-.52v.65h-.39v.46h.39v1.37A.55.55,0,0,0,141.19,133Zm.72-1.25a1.19,1.19,0,0,0,1.24,1.25,1.35,1.35,0,0,0,1-.35l-.23-.33a1,1,0,0,1-.68.26.72.72,0,0,1-.75-.66h1.83v-.12a1.18,1.18,0,0,0-1.17-1.3A1.2,1.2,0,0,0,141.91,131.79Zm1.2-.82a.64.64,0,0,1,.67.63h-1.34A.66.66,0,0,1,143.11,131Z"/><path class="cls-19" d="M158.32,130.46l-1.17-.94v.71h-3.51v.47h3.51v.7Zm-4.68,1.88,1.17-.94v.7h3.51v.47h-3.51v.7Z"/><path class="cls-18" d="M162,133h1.22a1.64,1.64,0,1,0,0-3.28H162Zm.58-.51v-2.26h.64a1.06,1.06,0,0,1,1.13,1.13,1.08,1.08,0,0,1-1.13,1.13Zm2.88,1-.08.46a1.36,1.36,0,0,0,.29,0,.78.78,0,0,0,.81-.53l1.15-2.81H167l-.69,1.78-.69-1.78h-.55l1,2.41-.12.27a.32.32,0,0,1-.34.21A.58.58,0,0,1,165.41,133.45Zm4.1-.47H170v-1.67a.68.68,0,0,0-.76-.77,1.12,1.12,0,0,0-.84.39v-.33h-.52V133h.52v-1.66A.8.8,0,0,1,169,131a.43.43,0,0,1,.48.49Zm2.64,0h.51v-1.57c0-.64-.46-.87-1-.87a1.41,1.41,0,0,0-1,.39l.21.36a1,1,0,0,1,.7-.3c.33,0,.56.16.56.44v.35a1,1,0,0,0-.77-.3.77.77,0,0,0-.83.77.79.79,0,0,0,.83.79,1,1,0,0,0,.77-.32Zm0-.54a.7.7,0,0,1-.57.24c-.29,0-.51-.16-.51-.42a.46.46,0,0,1,.51-.43.71.71,0,0,1,.57.25Zm4.1.54h.51v-1.72c0-.48-.24-.72-.68-.72a1,1,0,0,0-.81.44.62.62,0,0,0-.65-.44,1,1,0,0,0-.77.39v-.33h-.52V133h.52v-1.66a.72.72,0,0,1,.55-.32c.28,0,.39.17.39.43V133h.52v-1.66a.7.7,0,0,1,.55-.32c.27,0,.39.17.39.43Zm1.44-2.77a.32.32,0,0,0,0-.64.32.32,0,0,0,0,.64Zm-.26,2.77H178V130.6h-.52Zm1-1.19A1.2,1.2,0,0,0,179.7,133a1.09,1.09,0,0,0,.91-.42l-.34-.32a.64.64,0,0,1-.55.28.79.79,0,0,1,0-1.58.64.64,0,0,1,.55.28l.34-.31a1.07,1.07,0,0,0-.91-.43A1.2,1.2,0,0,0,178.47,131.79ZM183,133a.7.7,0,0,0,.49-.15l-.13-.39a.35.35,0,0,1-.23.08c-.14,0-.22-.12-.22-.28v-1.24h.48v-.46H183V130h-.52v.65H182v.46h.39v1.37A.55.55,0,0,0,183,133Zm.71-1.25A1.19,1.19,0,0,0,185,133a1.39,1.39,0,0,0,1-.35l-.24-.33a1,1,0,0,1-.67.26.72.72,0,0,1-.76-.66h1.84v-.12a1.18,1.18,0,0,0-1.17-1.3A1.2,1.2,0,0,0,183.75,131.79ZM185,131a.63.63,0,0,1,.66.63h-1.33A.65.65,0,0,1,185,131Zm3,2h.58l-.88-1.22.83-1.16h-.58l-.57.81-.56-.81h-.58l.82,1.16-.87,1.22h.57l.62-.88Zm1.65.06a.68.68,0,0,0,.49-.15l-.12-.39a.37.37,0,0,1-.23.08c-.15,0-.23-.12-.23-.28v-1.24H190v-.46h-.48V130H189v.65h-.39v.46H189v1.37A.55.55,0,0,0,189.59,133Z"/><path class="cls-18" d="M203.05,131.65a.19.19,0,0,0-.33.14v.38h-.39l-1.51-2a.25.25,0,0,0-.21-.1h-.79a.26.26,0,1,0,0,.51h.66l1.5,2a.28.28,0,0,0,.21.1h.53v.39a.2.2,0,0,0,.34.14l.65-.65a.18.18,0,0,0,0-.27Zm-.72-1h.39V131a.2.2,0,0,0,.33.14l.65-.65a.18.18,0,0,0,0-.27l-.65-.65a.2.2,0,0,0-.34.14v.39h-.52a.25.25,0,0,0-.21.1l-.33.43.32.44Zm-1.85,1.55h-.66a.27.27,0,0,0-.27.26.26.26,0,0,0,.27.26h.79a.28.28,0,0,0,.21-.1l.33-.44-.33-.43Z"/><path class="cls-18" d="M209.51,133h.66l-.8-1.29a.92.92,0,0,0,.78-1,1,1,0,0,0-1.08-1h-1.44V133h.58v-1.22h.57Zm.05-2.25a.52.52,0,0,1-.56.52h-.79v-1H209A.52.52,0,0,1,209.56,130.73Zm2.5,2.25h.52v-1.57c0-.64-.46-.87-1-.87a1.43,1.43,0,0,0-1,.39l.21.36a1,1,0,0,1,.71-.3c.33,0,.55.16.55.44v.35a1,1,0,0,0-.76-.3.77.77,0,0,0-.83.77.79.79,0,0,0,.83.79,1,1,0,0,0,.76-.32Zm0-.54a.7.7,0,0,1-.56.24c-.29,0-.51-.16-.51-.42a.46.46,0,0,1,.51-.43.71.71,0,0,1,.56.25Zm2.79.54h.52v-1.67a.69.69,0,0,0-.77-.77,1.1,1.1,0,0,0-.83.39v-.33h-.52V133h.52v-1.66a.77.77,0,0,1,.61-.32c.29,0,.47.13.47.49Zm2.86,0h.52V129.7h-.52v1.23a.94.94,0,0,0-.76-.39,1.11,1.11,0,0,0-1.06,1.25c0,.79.45,1.25,1.06,1.25a1,1,0,0,0,.76-.38Zm0-.71a.8.8,0,0,1-.61.31.8.8,0,0,1,0-1.58.8.8,0,0,1,.61.32ZM220,133a1.25,1.25,0,1,0-1.22-1.25A1.2,1.2,0,0,0,220,133Zm0-.46a.8.8,0,0,1,0-1.58.8.8,0,0,1,0,1.58Zm4.66.4h.52v-1.72a.63.63,0,0,0-.69-.72,1,1,0,0,0-.8.44.63.63,0,0,0-.65-.44,1,1,0,0,0-.77.39v-.33h-.52V133h.52v-1.66a.68.68,0,0,1,.54-.32c.28,0,.39.17.39.43V133h.52v-1.66a.7.7,0,0,1,.55-.32c.28,0,.39.17.39.43Zm1.44-2.77a.32.32,0,0,0,0-.64.32.32,0,0,0,0,.64Zm-.25,2.77h.51V130.6h-.51Zm1.07,0h1.89v-.45h-1.21l1.19-1.55v-.38h-1.87v.46h1.18l-1.18,1.53Zm2.31-1.19a1.19,1.19,0,0,0,1.24,1.25,1.35,1.35,0,0,0,1-.35l-.23-.33a1,1,0,0,1-.68.26.72.72,0,0,1-.75-.66h1.83v-.12a1.18,1.18,0,0,0-1.17-1.3A1.2,1.2,0,0,0,229.2,131.79Zm1.2-.82a.64.64,0,0,1,.67.63h-1.34A.66.66,0,0,1,230.4,131Zm2.94,2h.52v-.32a1,1,0,0,0,.76.38c.61,0,1.06-.46,1.06-1.25a1.11,1.11,0,0,0-1.06-1.25.94.94,0,0,0-.76.39V129.7h-.52Zm.52-.71v-.94a.77.77,0,0,1,.61-.33.8.8,0,0,1,0,1.58A.78.78,0,0,1,233.86,132.27Zm2.34.71h.52V129.7h-.52Zm2.26.06a1.25,1.25,0,1,0-1.22-1.25A1.2,1.2,0,0,0,238.46,133Zm0-.46a.8.8,0,0,1,0-1.58.8.8,0,0,1,0,1.58Zm1.6-.79a1.2,1.2,0,0,0,1.23,1.25,1.09,1.09,0,0,0,.91-.42l-.34-.32a.64.64,0,0,1-.54.28.79.79,0,0,1,0-1.58.64.64,0,0,1,.54.28l.34-.31a1.07,1.07,0,0,0-.91-.43A1.2,1.2,0,0,0,240.06,131.79Zm4.17,1.19h.65l-1-1.3,1-1.08h-.64l-1.05,1.15V129.7h-.51V133h.51v-.64l.33-.34Zm.76-.31a1.45,1.45,0,0,0,1,.37c.64,0,1-.32,1-.74s-.51-.68-.92-.77-.52-.12-.52-.31.17-.26.44-.26a1,1,0,0,1,.71.28l.21-.36a1.35,1.35,0,0,0-.92-.34c-.6,0-.94.34-.94.73s.49.64.9.73.54.13.54.34-.16.29-.47.29a1.2,1.2,0,0,1-.8-.33Z"/><path class="cls-18" d="M260.41,129.29a.28.28,0,0,0-.15,0,2.08,2.08,0,0,1-.86.23c-.48,0-.75-.27-1.3-.27a2.79,2.79,0,0,0-1.09.27h0a.27.27,0,0,0-.53,0v3.83a.13.13,0,0,0,.13.13h.26a.13.13,0,0,0,.14-.13v-.93a2.54,2.54,0,0,1,1.05-.26c.59,0,1,.26,1.58.26a2.38,2.38,0,0,0,.89-.19.26.26,0,0,0,.17-.23v-2.49A.27.27,0,0,0,260.41,129.29Zm-.24,1.17a2.12,2.12,0,0,1-.66.18v.66a2.11,2.11,0,0,0,.66-.14v.67a1.5,1.5,0,0,1-.53.1h-.13v-.62h-.11a2.2,2.2,0,0,1-.55-.08v.55a3.13,3.13,0,0,0-.66-.11v-.62h-.09a2.09,2.09,0,0,0-.57.09v.57c-.17,0-.34.1-.52.17v-.52l.2-.09.32-.13v-.67a4.07,4.07,0,0,0-.52.18v-.52l.2-.09.32-.12v.55a2.15,2.15,0,0,1,.57-.08h.09v-.56a1.85,1.85,0,0,1,.44.1l.22.07v.54a1.58,1.58,0,0,0,.55.11h.11v-.56a2.15,2.15,0,0,0,.66-.15Zm-2-.07v.66a2.57,2.57,0,0,1,.44.11l.22.07v-.69A2.92,2.92,0,0,0,258.19,130.39Z"/><path class="cls-18" d="M265.34,133h.58v-2.77h1v-.51h-2.56v.51h1Zm1.38-1.19A1.19,1.19,0,0,0,268,133a1.39,1.39,0,0,0,1-.35l-.24-.33a1,1,0,0,1-.67.26.72.72,0,0,1-.76-.66h1.83v-.12a1.18,1.18,0,0,0-1.17-1.3A1.2,1.2,0,0,0,266.72,131.79Zm1.2-.82a.64.64,0,0,1,.67.63h-1.34A.66.66,0,0,1,267.92,131Zm1.68,2h.52v-1.62a.8.8,0,0,1,.61-.31h.16v-.51a1,1,0,0,0-.77.4v-.35h-.52Zm4.62,0h.52v-1.72a.63.63,0,0,0-.69-.72,1,1,0,0,0-.8.44.63.63,0,0,0-.65-.44,1,1,0,0,0-.78.39v-.33h-.51V133h.51v-1.66a.72.72,0,0,1,.55-.32c.28,0,.39.17.39.43V133h.52v-1.66a.7.7,0,0,1,.55-.32c.28,0,.39.17.39.43Zm1.44-2.77a.32.32,0,0,0,0-.64.32.32,0,1,0,0,.64Zm-.25,2.77h.51V130.6h-.51Zm2.79,0h.51v-1.67a.68.68,0,0,0-.76-.77,1.12,1.12,0,0,0-.84.39v-.33h-.52V133h.52v-1.66a.79.79,0,0,1,.61-.32.43.43,0,0,1,.48.49Zm2.63,0h.52v-1.57c0-.64-.46-.87-1-.87a1.43,1.43,0,0,0-1,.39l.22.36a1,1,0,0,1,.7-.3c.33,0,.55.16.55.44v.35a1,1,0,0,0-.76-.3.77.77,0,0,0-.83.77.79.79,0,0,0,.83.79,1,1,0,0,0,.76-.32Zm0-.54a.67.67,0,0,1-.56.24c-.29,0-.51-.16-.51-.42a.46.46,0,0,1,.51-.43.68.68,0,0,1,.56.25Zm1.9.6a.66.66,0,0,0,.49-.15l-.12-.39a.35.35,0,0,1-.23.08c-.15,0-.23-.12-.23-.28v-1.24h.48v-.46h-.48V130h-.52v.65h-.39v.46h.39v1.37A.55.55,0,0,0,282.73,133Zm1.12-2.83a.32.32,0,1,0-.32-.32A.32.32,0,0,0,283.85,130.21Zm-.26,2.77h.52V130.6h-.52Zm2.26.06a1.25,1.25,0,1,0-1.22-1.25A1.2,1.2,0,0,0,285.85,133Zm0-.46a.8.8,0,0,1,0-1.58.8.8,0,0,1,0,1.58Zm3.35.4h.52v-1.67a.69.69,0,0,0-.77-.77,1.14,1.14,0,0,0-.84.39v-.33h-.51V133h.51v-1.66a.8.8,0,0,1,.61-.32c.3,0,.48.13.48.49Zm2.45,0h.52V129.7h-.52Zm2.26.06a1.25,1.25,0,1,0-1.22-1.25A1.2,1.2,0,0,0,293.91,133Zm0-.46a.8.8,0,0,1,0-1.58.8.8,0,0,1,0,1.58Zm1.72,1a1.32,1.32,0,0,0,1,.35c.59,0,1.22-.23,1.22-1.08V130.6h-.51v.33a.94.94,0,0,0-.76-.39,1.08,1.08,0,0,0-1.06,1.22c0,.79.45,1.22,1.06,1.22a.94.94,0,0,0,.76-.39v.29a.63.63,0,0,1-.71.64.92.92,0,0,1-.75-.3Zm1.7-1.38a.8.8,0,0,1-.61.32.77.77,0,0,1,0-1.53.8.8,0,0,1,.61.32Zm1.44-2a.32.32,0,0,0,0-.64.32.32,0,0,0,0,.64Zm-.26,2.77H299V130.6h-.52Zm1-1.19a1.2,1.2,0,0,0,1.23,1.25,1.07,1.07,0,0,0,.91-.42l-.34-.32a.64.64,0,0,1-.54.28.79.79,0,0,1,0-1.58.64.64,0,0,1,.54.28l.34-.31a1.05,1.05,0,0,0-.91-.43A1.2,1.2,0,0,0,299.55,131.79Z"/><rect class="cls-4" x="96.24" y="140.71" width="383.72" height="240.35" rx="1.05"/><path class="cls-20" d="M109.42,153.58,107.84,156l-1.58-2.37Z"/><path class="cls-14" d="M114.2,156.17h.41v-3.28h-.41Zm2.76,0h.37V154.5a.67.67,0,0,0-.75-.76,1.17,1.17,0,0,0-.85.4v-.34h-.37v2.37h.37v-1.73a.89.89,0,0,1,.7-.37c.32,0,.53.13.53.55Zm1.71.06a.58.58,0,0,0,.44-.15l-.11-.28a.31.31,0,0,1-.25.1c-.16,0-.24-.13-.24-.3v-1.48H119v-.32h-.48v-.65h-.37v.65h-.39v.32h.39v1.55A.49.49,0,0,0,118.67,156.23Zm.85-.06h.36v-1.68a.88.88,0,0,1,.65-.38l.15,0v-.38a1,1,0,0,0-.8.43v-.38h-.36Zm2.66.06A1.25,1.25,0,1,0,121,155,1.17,1.17,0,0,0,122.18,156.23Zm0-.33A.93.93,0,1,1,123,155,.83.83,0,0,1,122.18,155.9Zm3.06.27h1.49a.86.86,0,0,0,1-.88.81.81,0,0,0-.64-.81.75.75,0,0,0,.58-.75.83.83,0,0,0-.92-.84h-1.46Zm.41-1.86v-1.06h1a.52.52,0,0,1,.57.54.51.51,0,0,1-.57.52Zm0,1.5v-1.13h1a.56.56,0,0,1,.61.56.55.55,0,0,1-.61.57Zm2.67.36h.37v-3.28h-.37Zm2.14.06a1.25,1.25,0,1,0-1.18-1.25A1.17,1.17,0,0,0,130.46,156.23Zm0-.33a.92.92,0,1,1,.79-.92A.83.83,0,0,1,130.46,155.9Zm1.64-.92a1.18,1.18,0,0,0,1.19,1.25,1,1,0,0,0,.87-.41l-.25-.23a.73.73,0,0,1-.61.31.83.83,0,0,1-.82-.92.82.82,0,0,1,.82-.91.7.7,0,0,1,.61.31l.25-.23a1,1,0,0,0-.87-.41A1.17,1.17,0,0,0,132.1,155Zm4.19,1.19h.47l-1-1.3,1-1.07h-.47L135,155.06v-2.17h-.37v3.28H135v-.68l.4-.39Z"/><rect class="cls-21" x="142.63" y="150.9" width="0.35" height="7.38"/><path class="cls-14" d="M148.39,155.69a1.4,1.4,0,0,0,1.17.54c.72,0,1.16-.4,1.16-.94a.82.82,0,0,0-.76-.81.8.8,0,0,0,.71-.76c0-.56-.48-.88-1.11-.88a1.39,1.39,0,0,0-1.12.51l.22.25a1.11,1.11,0,0,1,.87-.39c.4,0,.73.19.73.56s-.35.54-.76.54h-.34v.38h.34c.48,0,.82.17.82.58s-.29.62-.77.62a1.15,1.15,0,0,1-.92-.44Zm7.37-1.16a1.63,1.63,0,1,0-1.62,1.7A1.63,1.63,0,0,0,155,156l.31.34.29-.24-.31-.34A1.74,1.74,0,0,0,155.76,154.53Zm-1.62,1.34a1.34,1.34,0,1,1,1.2-1.34,1.43,1.43,0,0,1-.3.92l-.46-.5-.29.24.47.51A1.15,1.15,0,0,1,154.14,155.87Zm3.85.3h.37V153.8H158v1.74a.91.91,0,0,1-.7.36c-.32,0-.53-.12-.53-.54V153.8h-.37v1.67a.67.67,0,0,0,.76.76,1.17,1.17,0,0,0,.84-.39Zm1-1.19a1.18,1.18,0,0,0,1.21,1.25,1.29,1.29,0,0,0,.94-.36l-.17-.24a1.07,1.07,0,0,1-.74.3.84.84,0,0,1-.85-.83h1.92V155a1.15,1.15,0,0,0-1.14-1.27A1.18,1.18,0,0,0,159,155Zm1.17-.94a.77.77,0,0,1,.78.79h-1.56A.79.79,0,0,1,160.13,154Zm1.53,1.82a1.28,1.28,0,0,0,1,.37c.62,0,.94-.32.94-.72s-.48-.64-.89-.74-.58-.14-.58-.37.2-.36.52-.36a.89.89,0,0,1,.71.3l.17-.26a1.19,1.19,0,0,0-.88-.34c-.56,0-.88.31-.88.68s.45.6.86.69.61.17.61.43-.2.39-.56.39a1.1,1.1,0,0,1-.79-.34Zm3.1.37a.59.59,0,0,0,.44-.15l-.11-.28a.34.34,0,0,1-.25.1c-.16,0-.24-.13-.24-.3v-1.48h.48v-.32h-.48v-.65h-.37v.65h-.39v.32h.39v1.55A.49.49,0,0,0,164.76,156.23Zm1-2.83a.26.26,0,0,0,.26-.25.26.26,0,0,0-.26-.25.25.25,0,0,0-.24.25A.25.25,0,0,0,165.78,153.4Zm-.18,2.77H166V153.8h-.37Zm2.15.06a1.25,1.25,0,1,0-1.18-1.25A1.17,1.17,0,0,0,167.75,156.23Zm0-.33a.92.92,0,0,1,0-1.83.93.93,0,0,1,0,1.83Zm3.38.27h.36V154.5a.67.67,0,0,0-.75-.76,1.17,1.17,0,0,0-.85.4v-.34h-.37v2.37h.37v-1.73a.89.89,0,0,1,.7-.37c.32,0,.54.13.54.55Zm.9-.31a1.27,1.27,0,0,0,.95.37c.62,0,.94-.32.94-.72s-.48-.64-.89-.74-.58-.14-.58-.37.2-.36.52-.36a.89.89,0,0,1,.71.3l.18-.26a1.23,1.23,0,0,0-.89-.34c-.56,0-.88.31-.88.68s.46.6.86.69.61.17.61.43-.2.39-.56.39a1.06,1.06,0,0,1-.78-.34Z"/><rect class="cls-4" x="104.68" y="166.71" width="366.85" height="35.49" rx="1.05"/><path d="M111.25,179.36h.57v-3.28h-.5l-.95,1,.34.35.54-.56Zm1.18-.29a.34.34,0,1,0,.34-.34A.35.35,0,0,0,112.43,179.07Z"/><rect class="cls-16" x="116.27" y="173.39" width="9.84" height="9.14" rx="1.05"/><path d="M120,179.36h.54l-1.11-2.81h-.61l-1.11,2.81h.54l.21-.54h1.33ZM119.1,177l.52,1.42h-1.05Zm1.72,2.39h.49v-1.05h.74a.88.88,0,1,0,0-1.76h-1.23Zm1.64-1.93a.44.44,0,0,1-.48.45h-.67V177H122A.44.44,0,0,1,122.46,177.43Zm1.43,1.93h.5v-2.81H124l-.81.82.28.3.46-.48Z"/><path d="M113.19,194.47h.45l.93-3.28h-.45l-.73,2.74-.75-2.74h-.34l-.75,2.74-.73-2.74h-.45l.93,3.28h.45l.72-2.64Zm1.49-1.19a1.17,1.17,0,0,0,1.21,1.25,1.29,1.29,0,0,0,.94-.36l-.17-.24a1.07,1.07,0,0,1-.74.3.84.84,0,0,1-.85-.82H117v-.1a1.15,1.15,0,0,0-1.14-1.27A1.18,1.18,0,0,0,114.68,193.28Zm1.16-.94a.78.78,0,0,1,.79.79h-1.56A.79.79,0,0,1,115.84,192.34Zm1.75,2.13H118v-3.28h-.37Zm1-1.19a1.18,1.18,0,0,0,1.19,1.25,1,1,0,0,0,.87-.41l-.24-.23a.73.73,0,0,1-.61.31.92.92,0,0,1,0-1.83.7.7,0,0,1,.61.31l.24-.23a1,1,0,0,0-.87-.41A1.17,1.17,0,0,0,118.55,193.28Zm3.62,1.25a1.25,1.25,0,1,0-1.18-1.25A1.17,1.17,0,0,0,122.17,194.53Zm0-.33a.92.92,0,0,1,0-1.83.93.93,0,0,1,0,1.83Zm4.64.27h.37v-1.71c0-.48-.23-.72-.66-.72a1,1,0,0,0-.8.44.61.61,0,0,0-.64-.44,1,1,0,0,0-.77.4v-.34h-.37v2.37h.37v-1.73a.82.82,0,0,1,.63-.37c.31,0,.43.19.43.49v1.61h.37v-1.74a.84.84,0,0,1,.63-.36c.31,0,.44.19.44.49Zm1-1.19a1.18,1.18,0,0,0,1.21,1.25,1.29,1.29,0,0,0,.94-.36l-.17-.24a1.07,1.07,0,0,1-.74.3.84.84,0,0,1-.85-.82h1.92v-.1A1.15,1.15,0,0,0,129,192,1.18,1.18,0,0,0,127.78,193.28Zm1.16-.94a.78.78,0,0,1,.79.79h-1.56A.79.79,0,0,1,128.94,192.34Zm3.62,2.19a.59.59,0,0,0,.44-.15l-.11-.28a.34.34,0,0,1-.25.1c-.16,0-.24-.13-.24-.3v-1.48h.48v-.32h-.48v-.65H132v.65h-.39v.32H132V194A.49.49,0,0,0,132.56,194.53Zm1.88,0a1.25,1.25,0,1,0-1.18-1.25A1.17,1.17,0,0,0,134.44,194.53Zm0-.33a.92.92,0,1,1,.79-.92A.83.83,0,0,1,134.44,194.2Zm5.91.27h.37v-1.71c0-.48-.23-.72-.66-.72a1,1,0,0,0-.8.44.6.6,0,0,0-.64-.44,1,1,0,0,0-.76.4v-.34h-.37v2.37h.37v-1.73a.79.79,0,0,1,.62-.37c.31,0,.44.19.44.49v1.61h.37v-1.74a.81.81,0,0,1,.63-.36c.3,0,.43.19.43.49Zm1,.6-.06.33a1.17,1.17,0,0,0,.27,0,.73.73,0,0,0,.7-.48l1.19-2.86h-.41l-.78,2-.8-2h-.39l1,2.4-.16.36a.34.34,0,0,1-.35.25A.65.65,0,0,1,141.39,195.07Zm3.54-.91a1.28,1.28,0,0,0,1,.37c.62,0,.94-.32.94-.72s-.48-.64-.89-.73-.58-.15-.58-.38.2-.36.52-.36a.92.92,0,0,1,.71.3l.17-.26a1.19,1.19,0,0,0-.88-.34c-.56,0-.88.31-.88.68s.45.6.86.7.61.16.61.42-.2.39-.56.39a1.1,1.1,0,0,1-.79-.34Zm4.1.31h.37V192.1H149v1.74a.88.88,0,0,1-.7.36c-.32,0-.53-.12-.53-.54V192.1h-.37v1.67a.67.67,0,0,0,.75.76,1.14,1.14,0,0,0,.85-.39Zm1.11,0h.36v-1.68a.88.88,0,0,1,.65-.38l.15,0v-.38a1,1,0,0,0-.8.43v-.38h-.36Zm2.25,0h.41l1-2.37h-.41l-.78,2-.8-2h-.39Zm1.64-1.19a1.18,1.18,0,0,0,1.21,1.25,1.33,1.33,0,0,0,.95-.36l-.18-.24a1,1,0,0,1-.73.3.85.85,0,0,1-.86-.82h1.93v-.1A1.16,1.16,0,0,0,155.2,192,1.19,1.19,0,0,0,154,193.28Zm1.17-.94a.77.77,0,0,1,.78.79h-1.56A.79.79,0,0,1,155.2,192.34Zm1.67,2.73-.06.33a1.17,1.17,0,0,0,.27,0,.71.71,0,0,0,.7-.48L159,192.1h-.4l-.79,2-.79-2h-.4l1,2.4-.15.36a.36.36,0,0,1-.36.25A.65.65,0,0,1,156.87,195.07Zm2.53-1.52h.3l.08-2.36h-.46Zm-.12.7a.27.27,0,0,0,.54,0,.27.27,0,0,0-.54,0Z"/><rect class="cls-4" x="104.68" y="207.83" width="366.85" height="104.01" rx="1.05"/><path d="M110.55,220.48h2.37V220h-1.45c.88-.67,1.43-1.21,1.43-1.81a1.06,1.06,0,0,0-1.19-1,1.56,1.56,0,0,0-1.21.52l.34.38a1.11,1.11,0,0,1,.88-.39c.3,0,.6.15.6.5s-.5.9-1.77,1.86Zm2.93-.29a.35.35,0,1,0,.35-.35A.35.35,0,0,0,113.48,220.19Z"/><rect class="cls-16" x="117.33" y="214.5" width="10.89" height="9.14" rx="1.05"/><path d="M121,220.48h.54l-1.1-2.82h-.62l-1.1,2.82h.54l.2-.54h1.34Zm-.87-2.4.53,1.42h-1.06Zm1.72,2.4h.49v-1h.75a.89.89,0,1,0,0-1.77h-1.24Zm1.65-1.94a.44.44,0,0,1-.48.45h-.68v-.89H123A.44.44,0,0,1,123.52,218.54Zm.83,1.94h2V220h-1.24c.75-.57,1.23-1,1.23-1.55a.92.92,0,0,0-1-.87,1.34,1.34,0,0,0-1,.45l.29.33a.94.94,0,0,1,.76-.34.45.45,0,0,1,.51.43c0,.4-.43.77-1.52,1.6Z"/><path d="M461.68,219.32a.19.19,0,0,0-.33.14v.39H461l-1.51-2a.28.28,0,0,0-.21-.1h-.79a.26.26,0,1,0,0,.51h.66l1.5,2a.28.28,0,0,0,.21.1h.54v.39a.2.2,0,0,0,.33.14l.65-.65a.18.18,0,0,0,0-.27Zm-.73-1h.4v.39a.19.19,0,0,0,.33.14l.65-.65a.2.2,0,0,0,0-.27l-.65-.65a.21.21,0,0,0-.35.14v.39h-.52a.28.28,0,0,0-.21.1l-.33.44.32.43Zm-1.85,1.56h-.66a.26.26,0,1,0,0,.51h.79a.28.28,0,0,0,.21-.1l.33-.44-.32-.43Z"/><path d="M113,235.59h.41V232.3H113v1.42h-1.92V232.3h-.41v3.29h.41v-1.51H113Zm2.2,0A1.25,1.25,0,1,0,114,234.4,1.17,1.17,0,0,0,115.21,235.64Zm0-.33a.92.92,0,1,1,.79-.91A.82.82,0,0,1,115.21,235.31Zm3.83.28h.37l.76-2.38h-.38l-.58,1.89-.63-1.89h-.31l-.63,1.89-.58-1.89h-.38l.75,2.38h.37l.62-1.91Zm2.93,0h.37v-2.06h.48v-.32h-.48V233c0-.3.13-.47.37-.47a.48.48,0,0,1,.22.05l.09-.27a.66.66,0,0,0-.36-.08.68.68,0,0,0-.69.77v.18h-.39v.32H122Zm1.29,0h.37V233.9a.88.88,0,0,1,.64-.38l.15,0v-.38a1,1,0,0,0-.79.43v-.38h-.37Zm1.49-1.19a1.17,1.17,0,0,0,1.21,1.24,1.25,1.25,0,0,0,.94-.36l-.18-.24a1,1,0,0,1-.73.3.83.83,0,0,1-.85-.82h1.92v-.1a1.15,1.15,0,0,0-1.14-1.27A1.19,1.19,0,0,0,124.75,234.4Zm1.16-.94a.78.78,0,0,1,.79.79h-1.56A.79.79,0,0,1,125.91,233.46Zm3.83,3v-3.28h-.37v.35a1,1,0,0,0-.79-.41c-.63,0-1.06.47-1.06,1.25s.43,1.24,1.06,1.24a1,1,0,0,0,.79-.41v1.26Zm-.37-1.56a.84.84,0,0,1-.7.38.8.8,0,0,1-.77-.91c0-.53.29-.92.77-.92a.84.84,0,0,1,.7.38Zm2.72.66h.36v-2.38h-.36V235a.92.92,0,0,1-.71.35c-.32,0-.53-.12-.53-.54v-1.56h-.37v1.68a.67.67,0,0,0,.76.75,1.18,1.18,0,0,0,.85-.39Zm1-1.19a1.17,1.17,0,0,0,1.21,1.24,1.29,1.29,0,0,0,1-.36L135,235a1,1,0,0,1-.73.3.84.84,0,0,1-.86-.82h1.93v-.1a1.16,1.16,0,0,0-1.15-1.27A1.2,1.2,0,0,0,133.05,234.4Zm1.17-.94a.76.76,0,0,1,.78.79h-1.56A.79.79,0,0,1,134.22,233.46Zm3.35,2.13h.37v-1.67a.68.68,0,0,0-.76-.77,1.21,1.21,0,0,0-.85.4v-.34H136v2.38h.37v-1.74a.94.94,0,0,1,.71-.37c.32,0,.53.13.53.55Zm1.7,0a.62.62,0,0,0,.45-.15l-.11-.27a.38.38,0,0,1-.25.09c-.17,0-.24-.12-.24-.3v-1.48h.48v-.32h-.48v-.65h-.37v.65h-.4v.32h.4v1.56C138.75,235.44,138.92,235.64,139.27,235.64Zm.85,0h.37V232.3h-.37Zm1,.59-.06.34.27,0a.71.71,0,0,0,.7-.48l1.19-2.86h-.4l-.79,1.95-.79-1.95h-.4l1,2.4-.15.36a.35.35,0,0,1-.36.25A.45.45,0,0,1,141.15,236.18Zm5.48-.59H147V232.3h-.36v1.27a1,1,0,0,0-.81-.42c-.62,0-1,.49-1,1.25s.43,1.24,1,1.24a1,1,0,0,0,.81-.41Zm0-.65a.89.89,0,0,1-.72.37c-.47,0-.76-.38-.76-.91s.29-.92.76-.92a.92.92,0,0,1,.72.38Zm2.14.7a1.25,1.25,0,1,0-1.17-1.24A1.17,1.17,0,0,0,148.77,235.64Zm0-.33a.92.92,0,1,1,.79-.91A.82.82,0,0,1,148.77,235.31Zm3,.87-.06.34.27,0a.71.71,0,0,0,.7-.48l1.19-2.86h-.4l-.79,1.95-.79-1.95h-.4l1,2.4-.16.36a.33.33,0,0,1-.35.25A.52.52,0,0,1,151.74,236.18Zm3.53-.54a1.25,1.25,0,1,0-1.18-1.24A1.16,1.16,0,0,0,155.27,235.64Zm0-.33a.93.93,0,1,1,.78-.91A.82.82,0,0,1,155.27,235.31Zm3.38.28H159v-2.38h-.37V235a.92.92,0,0,1-.71.35c-.32,0-.53-.12-.53-.54v-1.56H157v1.68a.67.67,0,0,0,.76.75,1.14,1.14,0,0,0,.85-.39Zm3,0a.58.58,0,0,0,.44-.15l-.1-.27a.38.38,0,0,1-.25.09c-.17,0-.25-.12-.25-.3v-1.48H162v-.32h-.49v-.65h-.36v.65h-.4v.32h.4v1.56C161.1,235.44,161.27,235.64,161.62,235.64Zm2.33,0h.37V234c0-.57-.42-.8-.92-.8a1.27,1.27,0,0,0-1,.39l.18.26a.92.92,0,0,1,.72-.33c.35,0,.6.18.6.5v.43a1,1,0,0,0-.78-.32.78.78,0,0,0-.84.78.79.79,0,0,0,.84.78,1,1,0,0,0,.78-.33Zm0-.51a.78.78,0,0,1-.65.3.52.52,0,1,1,0-1,.78.78,0,0,1,.65.3Zm2.73.51h.47l-1.05-1.3,1.05-1.08h-.47l-1.25,1.26V232.3h-.37v3.29h.37v-.68l.39-.39Zm.66-1.19a1.17,1.17,0,0,0,1.21,1.24,1.28,1.28,0,0,0,.94-.36l-.18-.24a1,1,0,0,1-.73.3.84.84,0,0,1-.86-.82h1.93v-.1a1.16,1.16,0,0,0-1.14-1.27A1.19,1.19,0,0,0,167.34,234.4Zm1.16-.94a.76.76,0,0,1,.78.79h-1.56A.79.79,0,0,1,168.5,233.46Zm2.81,1.81a1.24,1.24,0,0,0,1,.37c.61,0,.93-.32.93-.71s-.48-.65-.89-.74-.58-.15-.58-.38.2-.36.53-.36a1,1,0,0,1,.71.3l.17-.26a1.21,1.21,0,0,0-.88-.34c-.57,0-.89.32-.89.68s.46.6.86.7.61.16.61.42-.19.39-.56.39a1.09,1.09,0,0,1-.78-.33Zm4.09.32h.37v-2.38h-.37V235a.89.89,0,0,1-.7.35c-.32,0-.53-.12-.53-.54v-1.56h-.37v1.68a.67.67,0,0,0,.76.75,1.14,1.14,0,0,0,.84-.39Zm1.11,0h.37V233.9a.88.88,0,0,1,.64-.38l.15,0v-.38a1,1,0,0,0-.79.43v-.38h-.37Zm2.26,0h.4l1-2.38h-.4l-.79,1.95-.79-1.95h-.4Zm1.64-1.19a1.17,1.17,0,0,0,1.21,1.24,1.25,1.25,0,0,0,.94-.36l-.17-.24a1.07,1.07,0,0,1-.74.3.83.83,0,0,1-.85-.82h1.92v-.1a1.15,1.15,0,0,0-1.14-1.27A1.19,1.19,0,0,0,180.41,234.4Zm1.16-.94a.78.78,0,0,1,.79.79H180.8A.79.79,0,0,1,181.57,233.46Zm1.67,2.72-.06.34.28,0a.71.71,0,0,0,.69-.48l1.19-2.86h-.4l-.79,1.95-.79-1.95H183l1,2.4-.16.36a.33.33,0,0,1-.35.25A.52.52,0,0,1,183.24,236.18Zm2.28-.91a1.24,1.24,0,0,0,1,.37c.62,0,.94-.32.94-.71s-.48-.65-.89-.74-.58-.15-.58-.38.2-.36.52-.36a.92.92,0,0,1,.71.3l.17-.26a1.19,1.19,0,0,0-.88-.34c-.56,0-.88.32-.88.68s.45.6.86.7.61.16.61.42-.2.39-.56.39a1.09,1.09,0,0,1-.79-.33Zm2.72-1a.54.54,0,0,0,.19.4l.3-.13a.34.34,0,0,1-.13-.24c0-.22.19-.35.41-.5a1,1,0,0,0,.55-.79c0-.43-.37-.76-1-.76a1.3,1.3,0,0,0-1.07.5l.25.26a.91.91,0,0,1,.78-.4c.39,0,.58.21.58.46s-.2.39-.41.53S188.24,234,188.24,234.28Zm0,1.08a.27.27,0,1,0,.54,0,.27.27,0,1,0-.54,0Z"/><rect class="cls-16" x="110.3" y="244.55" width="4.57" height="9.14" rx="1.05"/><path d="M112.52,250.52H113v-2.81h-.43l-.81.82.29.29.46-.47Z"/><rect class="cls-4" x="116.27" y="243.32" width="349.63" height="11.6" rx="1.05"/><path d="M119.47,250.7h1.12a1.65,1.65,0,1,0,0-3.29h-1.12Zm.41-.37v-2.55h.71a1.28,1.28,0,0,1,0,2.55Zm4.5.37h.37v-1.64c0-.57-.41-.8-.92-.8a1.27,1.27,0,0,0-1,.39l.18.26a.92.92,0,0,1,.72-.33c.35,0,.6.18.6.5v.43a1,1,0,0,0-.78-.33.79.79,0,1,0,0,1.57,1,1,0,0,0,.78-.33Zm0-.51a.78.78,0,0,1-.65.3.52.52,0,1,1,0-1,.78.78,0,0,1,.65.3Zm1.3-2.27a.25.25,0,1,0,0-.5.25.25,0,0,0,0,.5Zm-.19,2.78h.37v-2.38h-.37Zm1.11,0H127v-3.29h-.37Zm1,.59-.06.34.27,0a.71.71,0,0,0,.7-.48l1.19-2.86h-.4l-.79,2-.79-2h-.4l1,2.4-.15.36a.35.35,0,0,1-.36.25A.45.45,0,0,1,127.63,251.29Z"/><rect class="cls-16" x="110.3" y="257.55" width="5.62" height="9.14" rx="1.05"/><path d="M111.92,263.52h2v-.43h-1.24c.75-.57,1.23-1,1.23-1.56a.91.91,0,0,0-1-.86,1.34,1.34,0,0,0-1,.45l.29.32a1,1,0,0,1,.75-.34.45.45,0,0,1,.51.43c0,.41-.42.78-1.51,1.6Z"/><rect class="cls-4" x="117.33" y="256.32" width="348.58" height="11.6" rx="1.05"/><path d="M123,263.7h.44l.94-3.28H124l-.73,2.73-.75-2.73h-.34l-.75,2.73-.73-2.73h-.45l.93,3.28h.45l.72-2.65Zm1.49-1.19a1.18,1.18,0,0,0,1.21,1.25,1.26,1.26,0,0,0,.94-.37l-.18-.24a1,1,0,0,1-.73.3.82.82,0,0,1-.85-.82h1.92v-.09a1.15,1.15,0,0,0-1.14-1.28A1.19,1.19,0,0,0,124.52,262.51Zm1.16-.94a.76.76,0,0,1,.78.79h-1.55A.78.78,0,0,1,125.68,261.57Zm1.61.94a1.18,1.18,0,0,0,1.21,1.25,1.26,1.26,0,0,0,.94-.37l-.17-.24a1.07,1.07,0,0,1-.74.3.83.83,0,0,1-.85-.82h1.92v-.09a1.15,1.15,0,0,0-1.14-1.28A1.19,1.19,0,0,0,127.29,262.51Zm1.16-.94a.77.77,0,0,1,.79.79h-1.56A.79.79,0,0,1,128.45,261.57Zm3.37,2.13h.47l-1.06-1.3,1.05-1.08h-.46l-1.25,1.26v-2.16h-.37v3.28h.37V263l.39-.39Zm.91,0h.36v-3.28h-.36Zm1,.59-.06.34a1.18,1.18,0,0,0,.27,0,.72.72,0,0,0,.7-.48l1.19-2.86h-.41l-.78,1.95-.8-1.95h-.39l1,2.4-.16.36a.33.33,0,0,1-.35.25A.45.45,0,0,1,133.76,264.29Z"/><rect class="cls-16" x="110.3" y="270.55" width="5.27" height="9.14" rx="1.05"/><path d="M111.81,276.12a1.31,1.31,0,0,0,1.06.45c.65,0,1.06-.34,1.06-.82a.71.71,0,0,0-.66-.68.69.69,0,0,0,.62-.64c0-.48-.41-.76-1-.76a1.29,1.29,0,0,0-1,.44l.25.31a1,1,0,0,1,.72-.31c.32,0,.57.13.57.39s-.25.37-.57.37h-.33v.44h.33c.4,0,.62.12.62.39s-.22.43-.59.43a1,1,0,0,1-.78-.34Z"/><rect class="cls-4" x="116.98" y="269.32" width="348.93" height="11.6" rx="1.05"/><path d="M123,276.7h.4v-3.28h-.58l-1,2.5-1-2.5h-.59v3.28h.41V274l1.11,2.73h.17L123,274Zm2.19.06a1.25,1.25,0,1,0-1.17-1.25A1.17,1.17,0,0,0,125.17,276.76Zm0-.33a.93.93,0,1,1,.79-.92A.84.84,0,0,1,125.17,276.43Zm3.38.27h.37V275a.67.67,0,0,0-.75-.77,1.17,1.17,0,0,0-.85.41v-.35H127v2.38h.37V275a.92.92,0,0,1,.7-.37c.32,0,.53.14.53.55Zm1.71.06a.58.58,0,0,0,.44-.16l-.11-.27a.34.34,0,0,1-.25.1c-.16,0-.24-.13-.24-.31v-1.47h.48v-.33h-.48v-.65h-.37v.65h-.39v.33h.39v1.55A.49.49,0,0,0,130.26,276.76Zm2.45-.06h.37V275a.67.67,0,0,0-.75-.76,1.2,1.2,0,0,0-.86.41v-1.25h-.36v3.28h.36V275a1,1,0,0,1,.71-.37c.32,0,.53.13.53.54Zm1.11,0h.37v-3.28h-.37Zm1,.59-.06.34a1.18,1.18,0,0,0,.27,0,.7.7,0,0,0,.7-.48l1.19-2.86h-.4l-.79,1.95-.79-1.95h-.4l1,2.4-.15.36a.34.34,0,0,1-.36.25A.48.48,0,0,1,134.85,277.29Z"/><rect class="cls-16" x="110.3" y="283.37" width="5.62" height="9.14" rx="1.05"/><path d="M113.34,289.35h.49v-.64h.38v-.43h-.38v-1.74h-.67L112,288.31v.4h1.34Zm0-2.37v1.3h-.86Z"/><rect class="cls-4" x="118.73" y="282.32" width="347.17" height="11.24" rx="1.05"/><path d="M122.18,289.35h.41V288l1.29-1.89h-.48l-1,1.52-1-1.52h-.47l1.29,1.89Zm1.35-1.19a1.18,1.18,0,0,0,1.21,1.25,1.26,1.26,0,0,0,.94-.37l-.17-.24a1.07,1.07,0,0,1-.74.3.83.83,0,0,1-.85-.82h1.92v-.09a1.15,1.15,0,0,0-1.14-1.28A1.19,1.19,0,0,0,123.53,288.16Zm1.16-.94a.78.78,0,0,1,.79.79h-1.56A.79.79,0,0,1,124.69,287.22Zm3.23,2.13h.37v-1.64c0-.57-.42-.8-.92-.8a1.24,1.24,0,0,0-1,.4l.18.25a1,1,0,0,1,.72-.33c.35,0,.6.18.6.5v.43a1,1,0,0,0-.78-.32.77.77,0,0,0-.83.78.79.79,0,0,0,.83.79,1,1,0,0,0,.78-.33Zm0-.5a.8.8,0,0,1-.65.29.52.52,0,1,1,0-1,.78.78,0,0,1,.65.3Zm1.11.5h.37v-1.68a.85.85,0,0,1,.65-.38h.14v-.38a1,1,0,0,0-.79.44V287H129Zm1.63,0H131v-3.28h-.37Zm1,.59-.06.34a1.18,1.18,0,0,0,.27,0,.72.72,0,0,0,.7-.48l1.19-2.86h-.41l-.78,1.95-.79-1.95h-.4l1,2.4-.16.36a.33.33,0,0,1-.35.25A.45.45,0,0,1,131.69,289.94Z"/><rect class="cls-16" x="110.3" y="296.02" width="5.62" height="9.14" rx="1.05"/><path d="M111.94,301.61a1.29,1.29,0,0,0,1,.44,1,1,0,0,0,1.07-.95.87.87,0,0,0-.9-.91,1,1,0,0,0-.64.24v-.81h1.35v-.43H112v1.57l.35.1a.86.86,0,0,1,.62-.25.5.5,0,0,1,.56.51.52.52,0,0,1-.58.49,1,1,0,0,1-.76-.33Z"/><rect class="cls-4" x="118.73" y="294.97" width="347.17" height="11.24" rx="1.05"/><path d="M123.55,302h.39v-3.28h-.41v2.59l-1.89-2.59h-.41V302h.4v-2.65Zm1-1.19a1.18,1.18,0,0,0,1.21,1.25,1.27,1.27,0,0,0,.94-.37l-.18-.24a1,1,0,0,1-.73.3.82.82,0,0,1-.85-.82h1.92v-.09a1.15,1.15,0,0,0-1.14-1.28A1.19,1.19,0,0,0,124.56,300.81Zm1.16-.94a.77.77,0,0,1,.78.79H125A.79.79,0,0,1,125.72,299.87ZM128.1,302h.4l1-2.38h-.4l-.79,1.95-.79-1.95h-.4Zm1.64-1.19a1.18,1.18,0,0,0,1.21,1.25,1.26,1.26,0,0,0,.94-.37l-.17-.24a1.05,1.05,0,0,1-.74.3.83.83,0,0,1-.85-.82h1.92v-.09a1.15,1.15,0,0,0-1.14-1.28A1.19,1.19,0,0,0,129.74,300.81Zm1.17-.94a.77.77,0,0,1,.78.79h-1.56A.79.79,0,0,1,130.91,299.87Zm1.74,2.13H133v-1.68a.85.85,0,0,1,.64-.38h.15v-.38a1,1,0,0,0-.79.44v-.39h-.37Z"/><path class="cls-22" d="M470.47,311.84H105.73a1.06,1.06,0,0,1-1-1.06V208.88a1,1,0,0,1,1-1H470.47a1.05,1.05,0,0,1,1.06,1v101.9A1.06,1.06,0,0,1,470.47,311.84ZM105.73,208.53a.35.35,0,0,0-.35.35v101.9a.35.35,0,0,0,.35.35H470.47a.35.35,0,0,0,.36-.35V208.88a.36.36,0,0,0-.36-.35Z"/><rect class="cls-4" x="104.68" y="317.46" width="366.85" height="55.17" rx="1.05"/><path d="M110.42,329.64a1.53,1.53,0,0,0,1.24.53c.76,0,1.23-.4,1.23-1a.82.82,0,0,0-.76-.79.8.8,0,0,0,.71-.76c0-.55-.47-.88-1.18-.88a1.51,1.51,0,0,0-1.2.52l.3.35a1.16,1.16,0,0,1,.84-.36c.37,0,.67.16.67.46s-.29.44-.68.44h-.37v.52h.37c.47,0,.73.14.73.46s-.25.51-.68.51a1.24,1.24,0,0,1-.91-.4Zm3,.18a.35.35,0,0,0,.69,0,.35.35,0,1,0-.69,0Z"/><rect class="cls-16" x="117.33" y="324.14" width="12.65" height="9.14" rx="1.05"/><path d="M121,330.11h.54l-1.1-2.81h-.62l-1.1,2.81h.54l.2-.54h1.34Zm-.87-2.4.53,1.43h-1.06Zm1.72,2.4h.49v-1.05h.75a.87.87,0,0,0,.92-.88.86.86,0,0,0-.92-.88h-1.24Zm1.65-1.93a.44.44,0,0,1-.48.44h-.68v-.89H123A.44.44,0,0,1,123.52,328.18Zm1.43,1.93h.49V327.3H125l-.81.81.29.3.46-.47Zm1-1.4c0,.78.33,1.45,1.16,1.45a1,1,0,0,0,1-.94.88.88,0,0,0-.94-.91,1,1,0,0,0-.76.39v-.08c0-.49.27-.93.74-.93a.75.75,0,0,1,.58.25l.23-.37a1.11,1.11,0,0,0-.81-.32C126.34,327.25,125.91,327.9,125.91,328.71Zm1.7.52a.52.52,0,0,1-.56.49.64.64,0,0,1-.63-.66.76.76,0,0,1,.61-.33C127.34,328.73,127.61,328.89,127.61,329.23Z"/><path class="cls-17" d="M459.11,328.7h-.47v1.64h2.81v.71l1.18-.94-1.18-.94v.7h-2.34Z"/><path d="M458.88,328.24a.94.94,0,1,1,.94-.94A.95.95,0,0,1,458.88,328.24Zm0-1.18a.24.24,0,0,0-.24.24.23.23,0,0,0,.24.23.23.23,0,0,0,.23-.23A.23.23,0,0,0,458.88,327.06Z"/><path d="M113,345.22h.41v-3.28H113v1.41h-1.92v-1.41h-.41v3.28h.41v-1.51H113Zm2.2.06A1.25,1.25,0,1,0,114,344,1.17,1.17,0,0,0,115.21,345.28Zm0-.33A.93.93,0,1,1,116,344,.83.83,0,0,1,115.21,345Zm3.83.27h.37l.76-2.38h-.38l-.58,1.9-.63-1.9h-.31l-.63,1.9-.58-1.9h-.38l.75,2.38h.37l.62-1.91Zm4.55,0H124v-3.28h-.37v1.26a1,1,0,0,0-.8-.42,1.1,1.1,0,0,0-1.06,1.25c0,.78.44,1.25,1.06,1.25a1,1,0,0,0,.8-.42Zm0-.65a.88.88,0,0,1-.71.38c-.48,0-.77-.39-.77-.92s.29-.92.77-.92a.89.89,0,0,1,.71.39Zm2.15.71a1.25,1.25,0,1,0-1.18-1.25A1.17,1.17,0,0,0,125.74,345.28Zm0-.33a.93.93,0,1,1,.78-.92A.82.82,0,0,1,125.74,345Zm1.64-.92a1.18,1.18,0,0,0,1.21,1.25,1.29,1.29,0,0,0,.94-.37l-.18-.24a1,1,0,0,1-.73.3.84.84,0,0,1-.86-.82h1.93v-.09a1.16,1.16,0,0,0-1.14-1.28A1.19,1.19,0,0,0,127.38,344Zm1.16-.94a.77.77,0,0,1,.78.79h-1.56A.79.79,0,0,1,128.54,343.09Zm1.54,1.81a1.25,1.25,0,0,0,1,.38c.61,0,.93-.32.93-.72s-.48-.64-.89-.74-.58-.15-.58-.38.2-.36.53-.36a1,1,0,0,1,.71.3l.17-.25a1.21,1.21,0,0,0-.88-.35c-.57,0-.89.32-.89.69s.46.6.86.69.61.16.61.42-.19.4-.56.4a1.09,1.09,0,0,1-.78-.34Zm4.36.38a.62.62,0,0,0,.44-.15l-.11-.28a.34.34,0,0,1-.25.1c-.16,0-.24-.13-.24-.31v-1.47h.48v-.33h-.48v-.65h-.37v.65h-.39v.33h.39v1.55A.49.49,0,0,0,134.44,345.28Zm2.33-.06h.37v-1.63c0-.58-.42-.81-.92-.81a1.24,1.24,0,0,0-.95.4l.17.25a1,1,0,0,1,.73-.33c.35,0,.6.19.6.51V344a1,1,0,0,0-.79-.32.78.78,0,0,0-.83.78.79.79,0,0,0,.83.79,1.06,1.06,0,0,0,.79-.33Zm0-.5a.8.8,0,0,1-.65.29.53.53,0,0,1-.59-.51.54.54,0,0,1,.59-.53.78.78,0,0,1,.65.3Zm2.73.5H140l-1.06-1.3,1.06-1.08h-.47l-1.25,1.27v-2.17h-.37v3.28h.37v-.68l.39-.39Zm1.09-2.78a.25.25,0,1,0,0-.49.25.25,0,1,0,0,.49Zm-.18,2.78h.37v-2.38h-.37Zm2.71,0h.36v-1.67a.67.67,0,0,0-.75-.77,1.17,1.17,0,0,0-.85.41v-.35h-.37v2.38h.37v-1.74a.92.92,0,0,1,.7-.37.48.48,0,0,1,.54.55Zm1.1.61a1.22,1.22,0,0,0,1,.35c.58,0,1.13-.24,1.13-1v-2.31h-.37v.36a1,1,0,0,0-.8-.42,1.1,1.1,0,0,0-1.06,1.24,1.08,1.08,0,0,0,1.06,1.23,1,1,0,0,0,.8-.42v.33a.68.68,0,0,1-.76.72.92.92,0,0,1-.78-.33Zm1.72-1.29a.89.89,0,0,1-.71.38c-.48,0-.76-.38-.76-.9s.28-.91.76-.91a.87.87,0,0,1,.71.39Zm3,.74a.66.66,0,0,0,.44-.15l-.11-.28a.38.38,0,0,1-.25.1c-.16,0-.24-.13-.24-.31v-1.47h.48v-.33h-.48v-.65h-.37v.65H148v.33h.39v1.55A.49.49,0,0,0,148.92,345.28Zm2.45-.06h.37v-1.68a.67.67,0,0,0-.76-.76,1.17,1.17,0,0,0-.85.41v-1.25h-.37v3.28h.37v-1.74a.94.94,0,0,1,.7-.37.47.47,0,0,1,.54.54Zm1.29-2.78a.25.25,0,1,0-.25-.25A.25.25,0,0,0,152.66,342.44Zm-.18,2.78h.36v-2.38h-.36Zm.89-.32a1.25,1.25,0,0,0,1,.38c.62,0,.94-.32.94-.72s-.48-.64-.89-.74-.58-.15-.58-.38.2-.36.52-.36a.92.92,0,0,1,.71.3l.17-.25a1.2,1.2,0,0,0-.88-.35c-.56,0-.88.32-.88.69s.45.6.86.69.61.16.61.42-.2.4-.56.4a1.06,1.06,0,0,1-.78-.34Zm3.56,0a1.25,1.25,0,0,0,1,.38c.61,0,.93-.32.93-.72s-.47-.64-.89-.74-.58-.15-.58-.38.2-.36.53-.36a1,1,0,0,1,.71.3l.17-.25a1.21,1.21,0,0,0-.88-.35c-.57,0-.89.32-.89.69s.46.6.86.69.61.16.61.42-.19.4-.56.4a1.09,1.09,0,0,1-.78-.34Zm4.1.32h.36v-2.38H161v1.75a.93.93,0,0,1-.71.36c-.32,0-.53-.12-.53-.54v-1.57h-.37v1.68a.67.67,0,0,0,.76.76,1.19,1.19,0,0,0,.85-.4Zm1.1,0h.37v-1.68a.85.85,0,0,1,.64-.38h.15v-.38a1,1,0,0,0-.79.44v-.39h-.37Zm2.26,0h.4l1-2.38h-.4l-.79,2-.79-2h-.4ZM166,344a1.18,1.18,0,0,0,1.21,1.25,1.26,1.26,0,0,0,.94-.37l-.17-.24a1.07,1.07,0,0,1-.74.3.83.83,0,0,1-.85-.82h1.92v-.09a1.15,1.15,0,0,0-1.14-1.28A1.19,1.19,0,0,0,166,344Zm1.17-.94a.77.77,0,0,1,.78.79h-1.56A.79.79,0,0,1,167.2,343.09Zm1.67,2.72-.06.34a1.12,1.12,0,0,0,.27,0,.7.7,0,0,0,.7-.48l1.19-2.86h-.41l-.78,2-.8-2h-.4l1,2.4-.16.36a.33.33,0,0,1-.35.25A.45.45,0,0,1,168.87,345.81Zm6.62-.59h.37V343.5c0-.48-.24-.72-.67-.72a1,1,0,0,0-.8.45.6.6,0,0,0-.63-.45,1,1,0,0,0-.77.41v-.35h-.37v2.38H173v-1.74a.83.83,0,0,1,.62-.37c.31,0,.44.2.44.5v1.61h.37v-1.74a.82.82,0,0,1,.63-.37c.3,0,.44.2.44.5Zm2.59,0h.37v-1.63c0-.58-.42-.81-.92-.81a1.22,1.22,0,0,0-.95.4l.17.25a1,1,0,0,1,.73-.33.53.53,0,0,1,.6.51V344a1,1,0,0,0-.79-.32.78.78,0,0,0-.83.78.79.79,0,0,0,.83.79,1.06,1.06,0,0,0,.79-.33Zm0-.5a.83.83,0,0,1-.66.29.53.53,0,0,1-.58-.51.53.53,0,0,1,.58-.53.81.81,0,0,1,.66.3Zm2.72.5h.48l-1.06-1.3,1.05-1.08h-.47l-1.24,1.27v-2.17h-.37v3.28h.37v-.68l.39-.39Zm.66-1.19a1.18,1.18,0,0,0,1.21,1.25,1.3,1.3,0,0,0,1-.37l-.18-.24a1.05,1.05,0,0,1-.74.3.83.83,0,0,1-.85-.82h1.92v-.09a1.15,1.15,0,0,0-1.14-1.28A1.19,1.19,0,0,0,181.46,344Zm1.17-.94a.77.77,0,0,1,.78.79h-1.56A.79.79,0,0,1,182.63,343.09Zm2.93,2.72-.05.34a1.12,1.12,0,0,0,.27,0,.68.68,0,0,0,.69-.48l1.2-2.86h-.41l-.79,2-.79-2h-.4l1,2.4-.16.36a.33.33,0,0,1-.35.25A.52.52,0,0,1,185.56,345.81Zm3.53-.53a1.25,1.25,0,1,0-1.18-1.25A1.17,1.17,0,0,0,189.09,345.28Zm0-.33a.93.93,0,0,1,0-1.84.93.93,0,0,1,0,1.84Zm3.38.27h.37v-2.38h-.37v1.75a.91.91,0,0,1-.7.36c-.32,0-.54-.12-.54-.54v-1.57h-.36v1.68a.67.67,0,0,0,.75.76,1.15,1.15,0,0,0,.85-.4Zm2.48,0h.37v-2.05h.48v-.33h-.48v-.18c0-.3.13-.47.37-.47a.37.37,0,0,1,.21.06L196,342a.66.66,0,0,0-.36-.08c-.41,0-.68.28-.68.77v.18h-.4v.33h.4ZM196.1,344a1.18,1.18,0,0,0,1.21,1.25,1.26,1.26,0,0,0,.94-.37l-.17-.24a1.07,1.07,0,0,1-.74.3.83.83,0,0,1-.85-.82h1.92v-.09a1.15,1.15,0,0,0-1.14-1.28A1.19,1.19,0,0,0,196.1,344Zm1.16-.94a.78.78,0,0,1,.79.79h-1.56A.79.79,0,0,1,197.26,343.09Zm1.61.94a1.18,1.18,0,0,0,1.21,1.25,1.26,1.26,0,0,0,.94-.37l-.17-.24a1.05,1.05,0,0,1-.74.3.83.83,0,0,1-.85-.82h1.92v-.09a1.15,1.15,0,0,0-1.14-1.28A1.19,1.19,0,0,0,198.87,344Zm1.17-.94a.77.77,0,0,1,.78.79h-1.56A.79.79,0,0,1,200,343.09Zm1.74,2.13h.37v-3.28h-.37Zm1.54-1.31a.51.51,0,0,0,.19.4l.3-.13a.33.33,0,0,1-.13-.24c0-.22.19-.34.41-.49a1,1,0,0,0,.55-.8c0-.42-.37-.76-1-.76a1.33,1.33,0,0,0-1.07.5l.25.27a.89.89,0,0,1,.78-.41c.39,0,.58.21.58.46s-.2.39-.41.54S203.32,343.58,203.32,343.91Zm0,1.09a.27.27,0,1,0,.27-.27A.27.27,0,0,0,203.35,345Z"/><rect class="cls-4" x="110.48" y="353.13" width="355.25" height="13.7" rx="0.88"/><path class="cls-21" d="M464.85,367H111.35a1,1,0,0,1-1-1.05V354a1,1,0,0,1,1-1.05h353.5a1.06,1.06,0,0,1,1.06,1.05V366A1.06,1.06,0,0,1,464.85,367Zm-353.5-13.7a.71.71,0,0,0-.7.7V366a.7.7,0,0,0,.7.7h353.5a.7.7,0,0,0,.7-.7V354a.7.7,0,0,0-.7-.7Z"/><path class="cls-23" d="M113.36,360.1a1.63,1.63,0,1,0,1.63-1.7A1.6,1.6,0,0,0,113.36,360.1Zm2.84,0a1.22,1.22,0,0,1-1.21,1.33,1.34,1.34,0,0,1,0-2.67A1.22,1.22,0,0,1,116.2,360.1Zm1.41,2.54v-1.26a1,1,0,0,0,.8.41c.63,0,1.06-.48,1.06-1.25s-.43-1.24-1.06-1.24a1,1,0,0,0-.8.41v-.35h-.37v3.28Zm1.47-2.1c0,.53-.28.92-.76.92a.88.88,0,0,1-.71-.38V360a.88.88,0,0,1,.71-.38C118.8,359.63,119.08,360,119.08,360.54Zm.85,0a1.18,1.18,0,0,0,1.21,1.25,1.25,1.25,0,0,0,.94-.36l-.17-.24a1.07,1.07,0,0,1-.74.3.84.84,0,0,1-.85-.82h1.92v-.1a1.15,1.15,0,0,0-1.14-1.27A1.18,1.18,0,0,0,119.93,360.54Zm1.17-.94a.78.78,0,0,1,.78.8h-1.56A.8.8,0,0,1,121.1,359.6Zm3.34,2.13h.37v-1.66a.68.68,0,0,0-.76-.77,1.2,1.2,0,0,0-.84.4v-.34h-.37v2.37h.37V360a.92.92,0,0,1,.7-.37c.32,0,.53.13.53.55Zm2.24-1.19a1.18,1.18,0,0,0,1.21,1.25,1.25,1.25,0,0,0,.94-.36l-.17-.24a1.07,1.07,0,0,1-.74.3.84.84,0,0,1-.85-.82H129v-.1a1.15,1.15,0,0,0-1.14-1.27A1.18,1.18,0,0,0,126.68,360.54Zm1.17-.94a.78.78,0,0,1,.78.8h-1.56A.8.8,0,0,1,127.85,359.6Zm3.34,2.13h.37v-1.66a.68.68,0,0,0-.76-.77,1.2,1.2,0,0,0-.84.4v-.34h-.37v2.37H130V360a.92.92,0,0,1,.7-.37c.32,0,.53.13.53.55Zm2.83,0h.37v-3.28H134v1.27a1,1,0,0,0-.8-.42c-.63,0-1.06.49-1.06,1.25s.44,1.24,1.06,1.24a1,1,0,0,0,.8-.41Zm0-.64a.87.87,0,0,1-.71.37.8.8,0,0,1-.77-.91c0-.53.29-.92.77-.92a.9.9,0,0,1,.71.38Zm3,.7a.59.59,0,0,0,.44-.15l-.11-.27a.38.38,0,0,1-.25.09c-.16,0-.24-.12-.24-.3v-1.48h.48v-.32h-.48v-.65h-.37v.65h-.39v.32h.39v1.56A.49.49,0,0,0,137,361.79Zm.7-1.25a1.18,1.18,0,0,0,1.21,1.25,1.29,1.29,0,0,0,1-.36l-.18-.24a1,1,0,0,1-.73.3.85.85,0,0,1-.86-.82H140v-.1a1.16,1.16,0,0,0-1.14-1.27A1.19,1.19,0,0,0,137.7,360.54Zm1.17-.94a.77.77,0,0,1,.78.8h-1.56A.8.8,0,0,1,138.87,359.6Zm3.13,2.13h.42l-.91-1.22.86-1.15h-.43l-.66.9-.66-.9h-.42l.86,1.15-.91,1.22h.42l.71-1Zm1.45.06a.59.59,0,0,0,.44-.15l-.11-.27a.36.36,0,0,1-.25.09c-.16,0-.24-.12-.24-.3v-1.48h.48v-.32h-.48v-.65h-.37v.65h-.39v.32h.39v1.56A.49.49,0,0,0,143.45,361.79Zm2.22-.06H146v-2.05h.48v-.32H146v-.18c0-.3.13-.47.37-.47a.46.46,0,0,1,.21.05l.09-.27a.66.66,0,0,0-.36-.09c-.41,0-.68.28-.68.78v.18h-.4v.32h.4Zm1.47-2.77a.25.25,0,0,0,0-.5.25.25,0,0,0,0,.5Zm-.18,2.77h.36v-2.37H147Zm1-1.19a1.18,1.18,0,0,0,1.21,1.25,1.29,1.29,0,0,0,1-.36l-.18-.24a1,1,0,0,1-.73.3.85.85,0,0,1-.86-.82h1.93v-.1a1.16,1.16,0,0,0-1.15-1.27A1.18,1.18,0,0,0,147.92,360.54Zm1.17-.94a.77.77,0,0,1,.78.8h-1.56A.8.8,0,0,1,149.09,359.6Zm1.74,2.13h.37v-3.28h-.37Zm2.83,0H154v-3.28h-.37v1.27a1,1,0,0,0-.8-.42c-.63,0-1.06.49-1.06,1.25s.44,1.24,1.06,1.24a1,1,0,0,0,.8-.41Zm0-.64a.87.87,0,0,1-.71.37.8.8,0,0,1-.77-.91c0-.53.29-.92.77-.92a.9.9,0,0,1,.71.38Z"/><rect class="cls-21" x="494.02" y="74.65" width="94.17" height="0.35"/><path d="M499.09,69.09a1.52,1.52,0,0,0,1.35-.74L500,68.1a1,1,0,0,1-.86.47,1.19,1.19,0,0,1,0-2.37,1,1,0,0,1,.86.48l.49-.25a1.52,1.52,0,0,0-1.35-.74,1.7,1.7,0,0,0,0,3.4Zm2.87,0a1.25,1.25,0,1,0-1.22-1.25A1.19,1.19,0,0,0,502,69.09Zm0-.46a.8.8,0,0,1,0-1.58.8.8,0,0,1,0,1.58Zm3.35.4h.51V67.35a.68.68,0,0,0-.76-.76,1.12,1.12,0,0,0-.84.39v-.33h-.52V69h.52V67.37a.8.8,0,0,1,.61-.32c.29,0,.48.12.48.49Zm3-2.77a.33.33,0,0,0,.32-.32.32.32,0,0,0-.32-.32.32.32,0,0,0-.32.32A.32.32,0,0,0,508.27,66.26ZM506.62,69h.51V67.1h.49v-.45h-.49v-.13c0-.27.13-.4.33-.4a.41.41,0,0,1,.21,0l.11-.38a.83.83,0,0,0-.41-.09.73.73,0,0,0-.75.82v.13h-.4v.45h.4ZM508,69h.52V66.65H508Zm1.16.61a1.36,1.36,0,0,0,1,.35c.58,0,1.22-.23,1.22-1.09V66.65h-.52V67a.94.94,0,0,0-.76-.39c-.61,0-1.05.45-1.05,1.22A1.07,1.07,0,0,0,510.1,69a1,1,0,0,0,.76-.39v.28a.62.62,0,0,1-.7.65.91.91,0,0,1-.75-.31Zm1.69-1.39a.76.76,0,0,1-.61.32.77.77,0,0,1,0-1.52.76.76,0,0,1,.61.32Zm2.79.78h.52V66.65h-.52v1.67a.79.79,0,0,1-.61.31c-.29,0-.47-.11-.47-.48v-1.5h-.52v1.68a.68.68,0,0,0,.76.76,1.13,1.13,0,0,0,.84-.38Zm1.19,0h.52V67.41a.8.8,0,0,1,.6-.32l.17,0V66.6a1,1,0,0,0-.77.4v-.35h-.52Zm1.56-1.19a1.19,1.19,0,0,0,1.24,1.25,1.39,1.39,0,0,0,1-.35l-.24-.34a1,1,0,0,1-.67.26.72.72,0,0,1-.76-.65h1.83v-.12a1.18,1.18,0,0,0-1.17-1.3A1.2,1.2,0,0,0,516.4,67.84Zm1.2-.82a.63.63,0,0,1,.67.62h-1.34A.65.65,0,0,1,517.6,67Z"/><rect class="cls-22" x="494.02" y="74.3" width="28.81" height="0.7"/><path class="cls-14" d="M527.18,69h2.25v-.51h-1.67v-.91h1.64V67.1h-1.64v-.85h1.67v-.5h-2.25ZM530,69h.51V67.41a.82.82,0,0,1,.61-.32l.16,0V66.6a1,1,0,0,0-.77.4v-.35H530Zm1.7,0h.52V67.41a.8.8,0,0,1,.61-.32l.16,0V66.6a1,1,0,0,0-.77.4v-.35h-.52Zm2.78.06a1.25,1.25,0,1,0-1.22-1.25A1.19,1.19,0,0,0,534.49,69.09Zm0-.46a.8.8,0,1,1,.69-.79A.72.72,0,0,1,534.49,68.63Zm1.75.4h.51V67.41a.84.84,0,0,1,.61-.32l.17,0V66.6a1,1,0,0,0-.78.4v-.35h-.51Zm1.49-.31a1.47,1.47,0,0,0,1,.37c.64,0,1-.32,1-.74s-.51-.68-.92-.77-.51-.13-.51-.31.17-.26.44-.26a1,1,0,0,1,.7.28l.22-.36a1.33,1.33,0,0,0-.93-.34c-.6,0-.93.34-.93.73s.49.63.89.72.54.14.54.35-.15.29-.46.29a1.21,1.21,0,0,1-.81-.34ZM542.14,70l.32-.25a4,4,0,0,1,0-3.86l-.32-.24a3.57,3.57,0,0,0,0,4.35Zm.61-2.62c0,.83.39,1.7,1.32,1.7s1.31-.87,1.31-1.7-.39-1.69-1.31-1.69S542.75,66.56,542.75,67.39Zm2,0c0,.62-.19,1.18-.72,1.18s-.73-.56-.73-1.18.19-1.18.73-1.18S544.79,66.76,544.79,67.39Zm1.38.44a3.73,3.73,0,0,1-.51,1.93L546,70a3.53,3.53,0,0,0,0-4.35l-.32.24A3.76,3.76,0,0,1,546.17,67.83Z"/><path class="cls-14" d="M561.85,69h.58V65.75h-.58Zm2.86,0h.52V67.35a.69.69,0,0,0-.77-.76,1.1,1.1,0,0,0-.83.39v-.33h-.52V69h.52V67.37a.77.77,0,0,1,.61-.32c.29,0,.47.12.47.49ZM566,69h.52V67.1H567v-.45h-.48v-.13c0-.27.13-.4.33-.4a.38.38,0,0,1,.21,0l.11-.38a.86.86,0,0,0-.41-.09.74.74,0,0,0-.76.82v.13h-.39v.45H566Zm2.47.06a1.25,1.25,0,1,0-1.22-1.25A1.19,1.19,0,0,0,568.49,69.09Zm0-.46a.8.8,0,1,1,.69-.79A.72.72,0,0,1,568.49,68.63Z"/><rect class="cls-21" x="488.39" y="74.65" width="105.42" height="0.35"/><rect class="cls-4" x="96.24" y="386.68" width="383.72" height="198.53" rx="1.05"/><path class="cls-20" d="M109.42,399.55l-1.58,2.38-1.58-2.38Z"/><path class="cls-14" d="M114.2,402.14h.41v-1.49h1.7v-.37h-1.7v-1h1.74v-.37H114.2Zm3.73.06a1.25,1.25,0,1,0-1.18-1.25A1.17,1.17,0,0,0,117.93,402.2Zm0-.33a.92.92,0,0,1,0-1.83.93.93,0,0,1,0,1.83Zm2.81.33a1.25,1.25,0,0,0,0-2.49,1.25,1.25,0,0,0,0,2.49Zm0-.33a.92.92,0,1,1,.79-.92A.83.83,0,0,1,120.74,401.87Zm3.5.27h.37v-3.28h-.37v1.27a1,1,0,0,0-.8-.42c-.63,0-1.06.49-1.06,1.25s.44,1.24,1.06,1.24a1,1,0,0,0,.8-.41Zm0-.64a.9.9,0,0,1-.71.37.8.8,0,0,1-.77-.91c0-.53.29-.92.77-.92a.88.88,0,0,1,.71.38Zm2.39.64h1.5a.85.85,0,0,0,1-.88.82.82,0,0,0-.64-.81.74.74,0,0,0,.57-.75.83.83,0,0,0-.92-.84h-1.46Zm.41-1.86v-1h1a.52.52,0,0,1,.57.53.51.51,0,0,1-.57.52Zm0,1.5v-1.13h1a.55.55,0,0,1,.61.56.54.54,0,0,1-.61.57Zm2.67.36h.37v-3.28h-.37Zm2.14.06a1.25,1.25,0,1,0-1.17-1.25A1.17,1.17,0,0,0,131.85,402.2Zm0-.33a.92.92,0,0,1,0-1.83.92.92,0,0,1,0,1.83Zm1.64-.92a1.18,1.18,0,0,0,1.19,1.25,1,1,0,0,0,.87-.41l-.25-.23a.71.71,0,0,1-.6.31.92.92,0,0,1,0-1.83.69.69,0,0,1,.6.31l.25-.23a1,1,0,0,0-.87-.41A1.17,1.17,0,0,0,133.49,401Zm4.19,1.19h.48l-1.06-1.3,1.05-1.07h-.47L136.44,401v-2.17h-.37v3.28h.37v-.67l.39-.39Z"/><rect class="cls-21" x="144.03" y="396.87" width="0.35" height="7.38"/><path class="cls-14" d="M150.53,402.14h.41v-3.28h-.36l-.82.85.25.25.52-.56Zm5.57-1.63a1.63,1.63,0,1,0-1.63,1.69,1.62,1.62,0,0,0,.89-.24l.32.33.28-.24-.31-.33A1.74,1.74,0,0,0,156.1,400.51Zm-1.63,1.33a1.34,1.34,0,0,1,0-2.67,1.22,1.22,0,0,1,1.21,1.34,1.42,1.42,0,0,1-.3.91l-.47-.5-.28.24.47.51A1.19,1.19,0,0,1,154.47,401.84Zm3.86.3h.36v-2.37h-.36v1.74a.93.93,0,0,1-.71.36c-.32,0-.53-.12-.53-.54v-1.56h-.37v1.67a.67.67,0,0,0,.76.76,1.18,1.18,0,0,0,.85-.39Zm1-1.19a1.18,1.18,0,0,0,1.21,1.25,1.33,1.33,0,0,0,.95-.36l-.18-.24a1,1,0,0,1-.73.3.84.84,0,0,1-.86-.82h1.93V401a1.16,1.16,0,0,0-1.15-1.27A1.19,1.19,0,0,0,159.29,401Zm1.17-.94a.77.77,0,0,1,.78.8h-1.56A.8.8,0,0,1,160.46,400Zm1.54,1.82a1.28,1.28,0,0,0,1,.37c.61,0,.93-.32.93-.72s-.48-.64-.89-.73-.58-.15-.58-.38.2-.36.53-.36a.92.92,0,0,1,.7.3l.18-.26a1.21,1.21,0,0,0-.88-.34c-.57,0-.89.31-.89.68s.46.6.86.7.61.16.61.42-.2.39-.56.39a1.05,1.05,0,0,1-.78-.34Zm3.09.37a.58.58,0,0,0,.44-.15l-.1-.28a.35.35,0,0,1-.26.1c-.16,0-.24-.12-.24-.3v-1.48h.49v-.32h-.49v-.65h-.37v.65h-.39v.32h.39v1.56A.49.49,0,0,0,165.09,402.2Zm1-2.83a.25.25,0,0,0,0-.5.25.25,0,0,0,0,.5Zm-.18,2.77h.37v-2.37h-.37Zm2.14.06A1.25,1.25,0,1,0,166.9,401,1.17,1.17,0,0,0,168.08,402.2Zm0-.33a.92.92,0,1,1,.79-.92A.83.83,0,0,1,168.08,401.87Zm3.38.27h.37v-1.67a.67.67,0,0,0-.76-.76,1.18,1.18,0,0,0-.84.4v-.34h-.37v2.37h.37v-1.73a.88.88,0,0,1,.7-.37c.32,0,.53.13.53.55Z"/><rect class="cls-4" x="104.68" y="412.69" width="366.85" height="164.1" rx="1.05"/><path d="M112,425.34h.58v-.75H113v-.51h-.44v-2h-.79l-1.35,2.08v.46H112Zm0-2.77v1.51h-1Zm1.41,2.47a.35.35,0,1,0,.34-.34A.35.35,0,0,0,113.41,425Z"/><rect class="cls-16" x="117.33" y="419.36" width="10.89" height="9.14" rx="1.05"/><path d="M121,425.34h.54l-1.1-2.82h-.62l-1.1,2.82h.54l.2-.55h1.34Zm-.87-2.4.53,1.42h-1.06Zm1.72,2.4h.49v-1.06h.75a.88.88,0,1,0,0-1.76h-1.24Zm1.65-1.94a.44.44,0,0,1-.48.45h-.68V423H123A.44.44,0,0,1,123.52,423.4Zm.72,1.53a1.31,1.31,0,0,0,1.06.45c.65,0,1.06-.34,1.06-.81a.71.71,0,0,0-.65-.69.68.68,0,0,0,.61-.64c0-.47-.41-.76-1-.76a1.29,1.29,0,0,0-1,.44l.25.31a1,1,0,0,1,.72-.31c.32,0,.57.14.57.4s-.25.37-.57.37h-.33v.45h.33c.4,0,.62.12.62.4s-.22.43-.59.43a1,1,0,0,1-.78-.35Z"/><path class="cls-17" d="M446.82,423.93h-.48v1.64h2.82v.7l1.17-.93-1.17-.94v.7h-2.34Z"/><path d="M446.58,423.46a.94.94,0,1,1,.94-.94A.94.94,0,0,1,446.58,423.46Zm0-1.17a.24.24,0,1,0,.23.23A.23.23,0,0,0,446.58,422.29Z"/><path d="M461.68,424.18a.19.19,0,0,0-.33.14v.39H461l-1.51-2a.28.28,0,0,0-.21-.1h-.79a.26.26,0,1,0,0,.51h.66l1.5,2a.28.28,0,0,0,.21.1h.54v.39a.2.2,0,0,0,.33.14l.65-.65a.18.18,0,0,0,0-.27Zm-.73-1h.4v.39a.19.19,0,0,0,.33.14l.65-.65a.2.2,0,0,0,0-.27l-.65-.65a.21.21,0,0,0-.35.14v.39h-.52a.28.28,0,0,0-.21.1l-.33.43.32.44Zm-1.85,1.56h-.66a.26.26,0,1,0,0,.51h.79a.28.28,0,0,0,.21-.1l.33-.44-.32-.43Z"/><path class="cls-14" d="M495.21,85.89h.41V83h1v-.37h-2.48V83h1Zm1.51.6-.05.33a1.1,1.1,0,0,0,.27,0,.71.71,0,0,0,.69-.48l1.19-2.86h-.4l-.79,2-.79-2h-.39l1,2.4-.16.36a.34.34,0,0,1-.35.25A.78.78,0,0,1,496.72,86.49Zm2.86.31V85.53a1,1,0,0,0,.8.42c.63,0,1.06-.48,1.06-1.25s-.43-1.24-1.06-1.24a1,1,0,0,0-.8.41v-.35h-.37V86.8Zm1.47-2.1c0,.53-.29.92-.76.92a.88.88,0,0,1-.71-.38V84.17a.88.88,0,0,1,.71-.38C500.76,83.79,501.05,84.18,501.05,84.7Zm.85,0A1.17,1.17,0,0,0,503.11,86a1.32,1.32,0,0,0,.94-.36l-.18-.24a1,1,0,0,1-.73.3.83.83,0,0,1-.85-.82h1.92v-.1a1.15,1.15,0,0,0-1.14-1.27A1.18,1.18,0,0,0,501.9,84.7Zm1.16-.94a.78.78,0,0,1,.79.8h-1.56A.79.79,0,0,1,503.06,83.76Z"/><rect class="cls-4" x="494.19" y="89.58" width="93.82" height="13.7" rx="0.88"/><path class="cls-21" d="M587.14,103.46H495.07a1,1,0,0,1-1.05-1v-12a1,1,0,0,1,1.05-1h92.07a1,1,0,0,1,1.05,1v12A1,1,0,0,1,587.14,103.46Zm-92.07-13.7a.7.7,0,0,0-.7.7v12a.7.7,0,0,0,.7.7h92.07a.7.7,0,0,0,.7-.7v-12a.7.7,0,0,0-.7-.7Z"/><path d="M500,98.19h.4V94.91h-.58l-1,2.5-1-2.5h-.59v3.28h.41V95.46l1.11,2.73h.17L500,95.46Zm2.76,0h.37V95.82h-.37v1.74a.92.92,0,0,1-.71.36c-.32,0-.53-.12-.53-.54V95.82h-.37v1.67a.67.67,0,0,0,.76.76,1.18,1.18,0,0,0,.85-.39Zm1.1,0h.37V94.91h-.37Zm1.71.06a.58.58,0,0,0,.44-.15l-.1-.28a.35.35,0,0,1-.26.1c-.16,0-.24-.13-.24-.3V96.14h.49v-.32h-.49v-.65h-.37v.65h-.39v.32h.39V97.7A.49.49,0,0,0,505.59,98.25Zm1-2.83a.25.25,0,0,0,.25-.25.25.25,0,1,0-.5,0A.25.25,0,0,0,506.62,95.42Zm-.18,2.77h.36V95.82h-.36Zm1.47.91V97.83a1,1,0,0,0,.8.42c.63,0,1.06-.48,1.06-1.25s-.43-1.24-1.06-1.24a1,1,0,0,0-.8.41v-.35h-.37V99.1Zm1.47-2.1c0,.53-.28.92-.76.92a.9.9,0,0,1-.71-.38V96.47a.88.88,0,0,1,.71-.38C509.1,96.09,509.38,96.48,509.38,97Zm1,1.19h.37V94.91h-.37Zm1-1.19a1.18,1.18,0,0,0,1.21,1.25,1.33,1.33,0,0,0,1-.36l-.18-.24a1,1,0,0,1-.73.3.84.84,0,0,1-.86-.83h1.93V97a1.16,1.16,0,0,0-1.15-1.27A1.19,1.19,0,0,0,511.33,97Zm1.17-.94a.77.77,0,0,1,.78.79h-1.56A.79.79,0,0,1,512.5,96.06Zm2.87.94a1.18,1.18,0,0,0,1.19,1.25,1,1,0,0,0,.87-.41l-.25-.23a.7.7,0,0,1-.6.31.92.92,0,0,1,0-1.83.68.68,0,0,1,.6.31l.25-.23a1,1,0,0,0-.87-.41A1.17,1.17,0,0,0,515.37,97Zm4.19,1.19h.37V96.51a.67.67,0,0,0-.76-.75,1.15,1.15,0,0,0-.85.4V94.91H518v3.28h.37V96.46a.89.89,0,0,1,.7-.37c.32,0,.54.12.54.54Zm2.14.06A1.25,1.25,0,1,0,520.52,97,1.17,1.17,0,0,0,521.7,98.25Zm0-.33a.92.92,0,1,1,.79-.92A.83.83,0,0,1,521.7,97.92Zm2-2.5a.25.25,0,0,0,.25-.25.25.25,0,0,0-.25-.25.25.25,0,0,0-.25.25A.26.26,0,0,0,523.66,95.42Zm-.18,2.77h.37V95.82h-.37Zm1-1.19a1.18,1.18,0,0,0,1.19,1.25,1,1,0,0,0,.87-.41l-.25-.23a.7.7,0,0,1-.6.31.92.92,0,0,1,0-1.83.68.68,0,0,1,.6.31l.25-.23a1,1,0,0,0-.87-.41A1.17,1.17,0,0,0,524.44,97Zm2.44,0a1.18,1.18,0,0,0,1.21,1.25,1.29,1.29,0,0,0,.94-.36l-.17-.24a1.07,1.07,0,0,1-.74.3.84.84,0,0,1-.85-.83h1.92V97a1.15,1.15,0,0,0-1.14-1.27A1.18,1.18,0,0,0,526.88,97Zm1.17-.94a.77.77,0,0,1,.78.79h-1.56A.79.79,0,0,1,528.05,96.06Z"/><path class="cls-17" d="M583.81,95.57l.33.33-1.57,1.57L581,95.9l.33-.33,1.24,1.24Z"/><path class="cls-14" d="M494.4,117.17h1.93v-.37h-1.52v-2.91h-.41Zm3.91,0h.37v-1.64c0-.57-.42-.8-.92-.8a1.24,1.24,0,0,0-.95.4l.17.25a1,1,0,0,1,.73-.33c.35,0,.6.18.6.5V116a1,1,0,0,0-.79-.32.78.78,0,0,0-.83.78.79.79,0,0,0,.83.79,1.06,1.06,0,0,0,.79-.33Zm0-.5a.8.8,0,0,1-.65.29.52.52,0,1,1,0-1,.78.78,0,0,1,.65.3Zm1.11.5h.37v-.36a1,1,0,0,0,.8.42c.62,0,1.06-.48,1.06-1.25a1.11,1.11,0,0,0-1.06-1.25,1,1,0,0,0-.8.42v-1.26h-.37Zm.37-.65v-1.07a.89.89,0,0,1,.71-.39c.48,0,.77.4.77.92s-.29.92-.77.92A.88.88,0,0,1,499.79,116.52Zm2.32-.54a1.18,1.18,0,0,0,1.21,1.25,1.3,1.3,0,0,0,.95-.37l-.18-.24a1,1,0,0,1-.73.3.83.83,0,0,1-.86-.82h1.93V116a1.16,1.16,0,0,0-1.15-1.28A1.2,1.2,0,0,0,502.11,116Zm1.17-.94a.77.77,0,0,1,.78.79H502.5A.79.79,0,0,1,503.28,115Zm1.74,2.13h.37v-3.28H505Z"/><rect class="cls-4" x="494.19" y="120.86" width="93.82" height="13.7" rx="0.88"/><path class="cls-21" d="M587.14,134.74H495.07a1.06,1.06,0,0,1-1.05-1.06V121.74a1.05,1.05,0,0,1,1.05-1.06h92.07a1.05,1.05,0,0,1,1.05,1.06v11.94A1.06,1.06,0,0,1,587.14,134.74ZM495.07,121a.7.7,0,0,0-.7.71v11.94a.7.7,0,0,0,.7.71h92.07a.71.71,0,0,0,.7-.71V121.74a.71.71,0,0,0-.7-.71Z"/><path d="M499.57,129.47H500l-1.32-3.29h-.51l-1.32,3.29h.45l.3-.73h1.66Zm-1.12-2.92.7,1.82h-1.42Zm2,2.92h.41v-1.31h.91a1,1,0,1,0,0-2h-1.32Zm1.92-2.3a.61.61,0,0,1-.65.63h-.86v-1.25h.86A.6.6,0,0,1,502.37,127.17Zm.85,2.3h2.25v-.37h-1.61c.92-.72,1.6-1.33,1.6-2a1,1,0,0,0-1.1-1,1.43,1.43,0,0,0-1.15.51l.26.26a1.1,1.1,0,0,1,.89-.41.61.61,0,0,1,.68.6c0,.57-.64,1.11-1.82,2Z"/><path class="cls-14" d="M494.2,148a1.64,1.64,0,0,0,1.26.52c.89,0,1.21-.49,1.21-1,0-.69-.61-.86-1.14-1s-.8-.21-.8-.54.28-.53.68-.53a1.25,1.25,0,0,1,.94.4l.25-.3a1.53,1.53,0,0,0-1.17-.46c-.64,0-1.12.37-1.12.91s.58.79,1.11.93.83.23.83.62-.19.57-.77.57a1.38,1.38,0,0,1-1-.47Zm2.93-.73a1.18,1.18,0,0,0,1.21,1.25,1.29,1.29,0,0,0,.94-.36l-.17-.24a1.05,1.05,0,0,1-.74.3.84.84,0,0,1-.85-.83h1.92v-.09A1.15,1.15,0,0,0,498.3,146,1.18,1.18,0,0,0,497.13,147.25Zm1.17-.94a.77.77,0,0,1,.78.79h-1.56A.79.79,0,0,1,498.3,146.31Zm1.74,2.13h.37v-3.28H500Zm1-1.19a1.18,1.18,0,0,0,1.21,1.25,1.31,1.31,0,0,0,.94-.36l-.18-.24a1,1,0,0,1-.73.3.83.83,0,0,1-.85-.83h1.92v-.09a1.15,1.15,0,0,0-1.14-1.27A1.18,1.18,0,0,0,501,147.25Zm1.16-.94a.78.78,0,0,1,.79.79H501.4A.79.79,0,0,1,502.17,146.31Zm1.61.94A1.18,1.18,0,0,0,505,148.5a1,1,0,0,0,.87-.41l-.25-.23a.73.73,0,0,1-.61.31.83.83,0,0,1-.81-.92.82.82,0,0,1,.81-.91.7.7,0,0,1,.61.31l.25-.23A1,1,0,0,0,505,146,1.17,1.17,0,0,0,503.78,147.25ZM507,148.5a.58.58,0,0,0,.44-.15l-.1-.28a.34.34,0,0,1-.25.1c-.17,0-.24-.13-.24-.3v-1.48h.48v-.33h-.48v-.64h-.37v.64H506v.33h.4v1.55C506.43,148.3,506.6,148.5,507,148.5Zm3.16,0a1.25,1.25,0,1,0-1.18-1.25A1.17,1.17,0,0,0,510.11,148.5Zm0-.33a.92.92,0,0,1,0-1.83.93.93,0,0,1,0,1.83Zm2.14,1.18v-1.27a1,1,0,0,0,.8.42c.63,0,1.06-.48,1.06-1.25s-.43-1.24-1.06-1.24a1,1,0,0,0-.8.41v-.36h-.37v3.29Zm1.47-2.1c0,.53-.28.92-.76.92a.9.9,0,0,1-.71-.38v-1.08a.9.9,0,0,1,.71-.37C513.44,146.34,513.72,146.72,513.72,147.25Zm1.59,1.25a.58.58,0,0,0,.44-.15l-.11-.28a.34.34,0,0,1-.25.1c-.16,0-.24-.13-.24-.3v-1.48h.48v-.33h-.48v-.64h-.37v.64h-.39v.33h.39v1.55A.49.49,0,0,0,515.31,148.5Zm1-2.83a.26.26,0,0,0,.25-.25.25.25,0,0,0-.25-.25.25.25,0,0,0-.25.25A.25.25,0,0,0,516.34,145.67Zm-.19,2.77h.37v-2.38h-.37Zm2.15.06a1.25,1.25,0,1,0-1.18-1.25A1.17,1.17,0,0,0,518.3,148.5Zm0-.33a.92.92,0,1,1,.79-.92A.83.83,0,0,1,518.3,148.17Zm3.38.27h.37v-1.67a.67.67,0,0,0-.76-.76,1.17,1.17,0,0,0-.85.4v-.35h-.37v2.38h.37V146.7a.93.93,0,0,1,.71-.36c.32,0,.53.13.53.55Zm.9-.31a1.28,1.28,0,0,0,1,.37c.61,0,.93-.32.93-.72s-.48-.64-.89-.74-.58-.14-.58-.37.2-.36.53-.36a.88.88,0,0,1,.7.3l.18-.26a1.21,1.21,0,0,0-.88-.34c-.57,0-.89.31-.89.68s.46.6.86.69.61.17.61.43-.2.39-.56.39a1.07,1.07,0,0,1-.78-.34Z"/><rect class="cls-4" x="494.19" y="152.13" width="93.82" height="13.7" rx="0.88"/><path class="cls-21" d="M587.14,166H495.07a1,1,0,0,1-1.05-1V153a1.06,1.06,0,0,1,1.05-1.06h92.07a1.06,1.06,0,0,1,1.05,1.06v12A1,1,0,0,1,587.14,166Zm-92.07-13.7a.7.7,0,0,0-.7.7v12a.7.7,0,0,0,.7.7h92.07a.71.71,0,0,0,.7-.7V153a.7.7,0,0,0-.7-.7Z"/><path d="M497,160.28a1.67,1.67,0,0,0,1.27.52c.88,0,1.2-.49,1.2-1,0-.68-.61-.85-1.14-1s-.8-.22-.8-.55.28-.52.68-.52a1.29,1.29,0,0,1,.95.4l.24-.3a1.53,1.53,0,0,0-1.17-.46c-.64,0-1.12.37-1.12.91s.58.79,1.11.93.83.23.83.62-.19.56-.77.56a1.37,1.37,0,0,1-1-.46Zm2.93-.73a1.18,1.18,0,0,0,1.21,1.25,1.3,1.3,0,0,0,1-.37l-.18-.24a1,1,0,0,1-.73.3.84.84,0,0,1-.86-.82h1.92v-.09a1.16,1.16,0,0,0-1.14-1.28A1.19,1.19,0,0,0,499.94,159.55Zm1.17-.94a.77.77,0,0,1,.78.79h-1.56A.79.79,0,0,1,501.11,158.61Zm1.74,2.13h.37v-3.28h-.37Zm1-1.19A1.18,1.18,0,0,0,505,160.8a1.26,1.26,0,0,0,.94-.37l-.17-.24a1,1,0,0,1-.74.3.83.83,0,0,1-.85-.82h1.92v-.09A1.16,1.16,0,0,0,505,158.3,1.19,1.19,0,0,0,503.82,159.55Zm1.16-.94a.78.78,0,0,1,.79.79h-1.56A.79.79,0,0,1,505,158.61Zm1.61.94a1.18,1.18,0,0,0,1.19,1.25,1,1,0,0,0,.87-.41l-.25-.23a.72.72,0,0,1-.6.31.93.93,0,0,1,0-1.84.72.72,0,0,1,.6.31l.25-.22a1,1,0,0,0-.87-.42A1.18,1.18,0,0,0,506.59,159.55Zm3.17,1.25a.67.67,0,0,0,.45-.15l-.11-.28a.38.38,0,0,1-.25.1c-.16,0-.24-.13-.24-.31v-1.47h.48v-.33h-.48v-.65h-.37v.65h-.39v.33h.39v1.55C509.24,160.6,509.42,160.8,509.76,160.8Zm3.16,0a1.25,1.25,0,1,0-1.18-1.25A1.17,1.17,0,0,0,512.92,160.8Zm0-.33a.93.93,0,1,1,.79-.92A.83.83,0,0,1,512.92,160.47Zm3.38.27h.37v-1.67a.68.68,0,0,0-.76-.77,1.17,1.17,0,0,0-.85.41v-.35h-.37v2.38h.37V159a.94.94,0,0,1,.7-.37c.32,0,.54.14.54.56Zm1-1.19a1.18,1.18,0,0,0,1.21,1.25,1.29,1.29,0,0,0,.94-.37l-.18-.24a1,1,0,0,1-.73.3.82.82,0,0,1-.85-.82h1.92v-.09a1.16,1.16,0,0,0-1.14-1.28A1.19,1.19,0,0,0,517.27,159.55Zm1.16-.94a.78.78,0,0,1,.79.79h-1.56A.79.79,0,0,1,518.43,158.61Z"/><path class="cls-17" d="M583.81,158.11l.33.34L582.57,160,581,158.45l.33-.34,1.24,1.24Z"/><path class="cls-14" d="M495.94,179.77a1.46,1.46,0,0,0,1.26-.65l-.34-.19a1.12,1.12,0,0,1-.92.48,1.34,1.34,0,0,1,0-2.67,1.14,1.14,0,0,1,.92.48l.34-.19a1.47,1.47,0,0,0-1.26-.65,1.7,1.7,0,0,0,0,3.39Zm3.38-.06h.37V178a.67.67,0,0,0-.76-.76,1.21,1.21,0,0,0-.85.4v-1.25h-.37v3.28h.37V178a.94.94,0,0,1,.7-.37c.32,0,.54.12.54.54Zm2.14.06a1.25,1.25,0,1,0-1.17-1.25A1.17,1.17,0,0,0,501.46,179.77Zm0-.33a.92.92,0,0,1,0-1.83.92.92,0,0,1,0,1.83Zm2-2.5a.25.25,0,1,0-.24-.25A.25.25,0,0,0,503.42,176.94Zm-.18,2.77h.37v-2.37h-.37Zm1-1.19a1.18,1.18,0,0,0,1.18,1.25,1,1,0,0,0,.87-.41l-.24-.23a.7.7,0,0,1-.61.31.92.92,0,0,1,0-1.83.7.7,0,0,1,.61.31l.24-.23a1,1,0,0,0-.87-.41A1.17,1.17,0,0,0,504.21,178.52Zm2.43,0a1.18,1.18,0,0,0,1.21,1.25,1.29,1.29,0,0,0,.95-.36l-.18-.24a1,1,0,0,1-.73.3.85.85,0,0,1-.86-.82H509v-.1a1.15,1.15,0,0,0-1.14-1.27A1.19,1.19,0,0,0,506.64,178.52Zm1.17-.94a.77.77,0,0,1,.78.8H507A.8.8,0,0,1,507.81,177.58Zm3,2.13h.37V178a.88.88,0,0,1,.65-.38l.14,0v-.38a1,1,0,0,0-.79.43v-.38h-.37Zm3.11,0h.37v-1.63c0-.57-.42-.8-.92-.8a1.27,1.27,0,0,0-1,.39l.17.26a.93.93,0,0,1,.73-.33c.34,0,.6.18.6.5v.43a1,1,0,0,0-.79-.33.79.79,0,1,0,0,1.57,1,1,0,0,0,.79-.33Zm0-.5a.78.78,0,0,1-.65.3.52.52,0,1,1,0-1,.78.78,0,0,1,.65.3Zm2.71.5H517v-1.66a.68.68,0,0,0-.76-.77,1.18,1.18,0,0,0-.84.4v-.34H515v2.37h.37V178a.92.92,0,0,1,.7-.37c.32,0,.53.13.53.55Zm2.83,0h.37v-3.28h-.37v1.27a1,1,0,0,0-.8-.42,1.11,1.11,0,0,0-1.06,1.25c0,.77.44,1.24,1.06,1.24a1,1,0,0,0,.8-.41Zm0-.64a.87.87,0,0,1-.71.37c-.48,0-.76-.38-.76-.91s.28-.92.76-.92a.9.9,0,0,1,.71.38Zm2.15.7a1.25,1.25,0,1,0-1.18-1.25A1.17,1.17,0,0,0,521.62,179.77Zm0-.33a.92.92,0,0,1,0-1.83.93.93,0,0,1,0,1.83Zm4.64.27h.37V178c0-.48-.23-.72-.66-.72a1,1,0,0,0-.8.44.62.62,0,0,0-.64-.44,1,1,0,0,0-.77.4v-.34h-.37v2.37h.37V178a.85.85,0,0,1,.63-.37c.31,0,.43.19.43.49v1.61h.37V178a.87.87,0,0,1,.63-.36c.31,0,.44.19.44.49Zm1.29-2.77a.25.25,0,0,0,0-.5.25.25,0,0,0,0,.5Zm-.18,2.77h.37v-2.37h-.37Zm1,0h1.81v-.32h-1.34l1.32-1.77v-.28h-1.79v.32h1.31l-1.31,1.77Zm3.92,0h.37v-1.63c0-.57-.42-.8-.92-.8a1.25,1.25,0,0,0-1,.39l.17.26a.93.93,0,0,1,.73-.33c.34,0,.6.18.6.5v.43a1,1,0,0,0-.79-.33.79.79,0,1,0,0,1.57,1,1,0,0,0,.79-.33Zm0-.5a.8.8,0,0,1-.66.3.52.52,0,1,1,0-1,.8.8,0,0,1,.66.3Zm1.71.56a.59.59,0,0,0,.44-.15l-.11-.27a.38.38,0,0,1-.25.09c-.16,0-.24-.12-.24-.3v-1.48h.48v-.32h-.48v-.65h-.37v.65h-.39v.32h.39v1.56A.49.49,0,0,0,534,179.77Zm1-2.83a.25.25,0,1,0,0-.5.25.25,0,0,0,0,.5Zm-.18,2.77h.37v-2.37h-.37Zm2.14.06a1.25,1.25,0,1,0-1.17-1.25A1.17,1.17,0,0,0,537,179.77Zm0-.33a.92.92,0,0,1,0-1.83.92.92,0,0,1,0,1.83Zm3.38.27h.37v-1.66a.67.67,0,0,0-.75-.77,1.21,1.21,0,0,0-.85.4v-.34h-.37v2.37h.37V178a.94.94,0,0,1,.7-.37c.32,0,.53.13.53.55Z"/><rect class="cls-4" x="494.19" y="183.4" width="93.82" height="13.7" rx="0.88"/><path class="cls-21" d="M587.14,197.28H495.07a1,1,0,0,1-1.05-1.05V184.28a1,1,0,0,1,1.05-1.05h92.07a1,1,0,0,1,1.05,1.05v11.95A1,1,0,0,1,587.14,197.28Zm-92.07-13.7a.7.7,0,0,0-.7.7v11.95a.7.7,0,0,0,.7.7h92.07a.7.7,0,0,0,.7-.7V184.28a.71.71,0,0,0-.7-.7Z"/><path d="M499.11,192h.48l-.88-1.33a.92.92,0,0,0,.85-1,1,1,0,0,0-1-1h-1.32V192h.41v-1.3h.66Zm0-2.29a.62.62,0,0,1-.66.63h-.86V189.1h.86A.61.61,0,0,1,499.14,189.72Zm2.44,2.29H502v-1.63c0-.58-.42-.8-.92-.8a1.27,1.27,0,0,0-.95.39l.17.26a.93.93,0,0,1,.73-.33c.34,0,.6.18.6.5v.43a1,1,0,0,0-.79-.33.78.78,0,0,0-.83.79.79.79,0,0,0,.83.78,1,1,0,0,0,.79-.33Zm0-.5a.78.78,0,0,1-.65.3.52.52,0,1,1,0-1,.8.8,0,0,1,.65.29Zm2.71.5h.37v-1.66a.68.68,0,0,0-.76-.77,1.14,1.14,0,0,0-.84.4v-.34h-.37V192h.37v-1.73a.89.89,0,0,1,.7-.37c.32,0,.53.13.53.55Zm2.83,0h.37v-3.28h-.37V190a1,1,0,0,0-.8-.42c-.63,0-1.06.49-1.06,1.25s.44,1.24,1.06,1.24a1,1,0,0,0,.8-.41Zm0-.64a.87.87,0,0,1-.71.37.8.8,0,0,1-.77-.91c0-.53.29-.92.77-.92a.88.88,0,0,1,.71.38Zm2.14.7a1.25,1.25,0,1,0-1.17-1.25A1.17,1.17,0,0,0,509.26,192.07Zm0-.33a.92.92,0,0,1,0-1.83.92.92,0,0,1,0,1.83Zm4.65.27h.37V190.3c0-.48-.23-.72-.67-.72a1,1,0,0,0-.79.44.61.61,0,0,0-.64-.44,1,1,0,0,0-.77.4v-.34H511V192h.37v-1.73a.81.81,0,0,1,.63-.37c.31,0,.44.19.44.49V192h.36v-1.74a.84.84,0,0,1,.63-.36c.31,0,.44.19.44.49Zm1.11,0h.37v-3.28H515Zm1,.6-.06.33a1.17,1.17,0,0,0,.27,0,.72.72,0,0,0,.7-.48l1.19-2.86h-.41l-.78,2-.79-2h-.4l1,2.4-.16.36a.34.34,0,0,1-.35.25A.65.65,0,0,1,516.05,192.61Zm3.85-.6h.37v-2h.48v-.32h-.48v-.18c0-.3.14-.47.38-.47a.46.46,0,0,1,.21,0l.09-.27a.66.66,0,0,0-.36-.09.68.68,0,0,0-.69.78v.18h-.39V190h.39Zm1.29,0h.37v-3.28h-.37Zm1.29-2.77a.25.25,0,0,0,0-.5.25.25,0,0,0,0,.5ZM522.3,192h.37v-2.37h-.37Zm1.47.91v-1.27a1,1,0,0,0,.8.42c.63,0,1.06-.48,1.06-1.25s-.43-1.24-1.06-1.24a1,1,0,0,0-.8.41v-.35h-.37v3.28Zm1.48-2.1c0,.53-.29.92-.77.92a.88.88,0,0,1-.71-.38v-1.07a.88.88,0,0,1,.71-.38A.8.8,0,0,1,525.25,190.82Zm.61,1.29h.29l1.16-3.48H527Zm1.82-.1h.37v-1.68a.88.88,0,0,1,.65-.38l.15,0v-.38a1,1,0,0,0-.8.43v-.38h-.37Zm2.67.06a1.25,1.25,0,1,0-1.18-1.25A1.17,1.17,0,0,0,530.35,192.07Zm0-.33a.92.92,0,0,1,0-1.83.93.93,0,0,1,0,1.83Zm2.37.33a.62.62,0,0,0,.45-.15l-.11-.28a.34.34,0,0,1-.25.1c-.16,0-.25-.13-.25-.3V190h.49v-.32h-.49V189h-.36v.65h-.4V190h.4v1.56C532.2,191.87,532.37,192.07,532.72,192.07Zm2.34-.06h.36v-1.63c0-.58-.41-.8-.92-.8a1.23,1.23,0,0,0-.94.39l.17.26a.93.93,0,0,1,.73-.33c.34,0,.6.18.6.5v.43a1,1,0,0,0-.79-.33.77.77,0,0,0-.83.79.78.78,0,0,0,.83.78,1,1,0,0,0,.79-.33Zm0-.5a.81.81,0,0,1-.66.3.52.52,0,1,1,0-1,.83.83,0,0,1,.66.29Zm1.7.56a.62.62,0,0,0,.45-.15l-.11-.28a.34.34,0,0,1-.25.1c-.16,0-.24-.13-.24-.3V190h.48v-.32h-.48V189h-.37v.65h-.4V190h.4v1.56A.48.48,0,0,0,536.76,192.07Zm.71-1.25a1.18,1.18,0,0,0,1.21,1.25,1.33,1.33,0,0,0,1-.36l-.18-.24a1,1,0,0,1-.73.3.84.84,0,0,1-.86-.82h1.93v-.1a1.16,1.16,0,0,0-1.15-1.27A1.19,1.19,0,0,0,537.47,190.82Zm1.17-.94a.77.77,0,0,1,.78.8h-1.56A.8.8,0,0,1,538.64,189.88Zm4.49,2.13h.37v-1.63c0-.58-.41-.8-.91-.8a1.29,1.29,0,0,0-1,.39l.18.26a.93.93,0,0,1,.73-.33c.34,0,.59.18.59.5v.43a1,1,0,0,0-.78-.33.78.78,0,0,0-.83.79.79.79,0,0,0,.83.78,1,1,0,0,0,.78-.33Zm0-.5a.78.78,0,0,1-.65.3.52.52,0,1,1,0-1,.8.8,0,0,1,.65.29Zm1.11.5h.37v-3.28h-.37Zm1.11,0h.37v-3.28h-.37Z"/><path class="cls-17" d="M583.81,189.39l.33.33-1.57,1.57L581,189.72l.33-.33,1.24,1.24Z"/><rect class="cls-16" x="494.02" y="208.53" width="94.17" height="14.06" rx="1.05"/><path class="cls-17" d="M524.59,215.56h-.7V218h4.21v1l1.76-1.41-1.76-1.4v1.05h-3.51Z"/><path d="M524.24,214.85a1.41,1.41,0,1,1,1.4-1.4A1.41,1.41,0,0,1,524.24,214.85Zm0-2.1a.7.7,0,1,0,.7.7A.7.7,0,0,0,524.24,212.75Z"/><path d="M532.42,217.14h1.22a1.64,1.64,0,1,0,0-3.28h-1.22Zm.57-.51v-2.27h.65a1.06,1.06,0,0,1,1.12,1.14,1.07,1.07,0,0,1-1.12,1.13Zm3.16-2.26a.32.32,0,0,0,0-.64.32.32,0,0,0,0,.64Zm-.25,2.77h.51v-2.38h-.51Zm1-.31a1.43,1.43,0,0,0,1,.37c.63,0,1-.32,1-.74s-.5-.68-.92-.77-.51-.13-.51-.31.17-.26.44-.26a1,1,0,0,1,.7.28l.22-.36a1.38,1.38,0,0,0-.93-.34c-.6,0-.93.34-.93.73s.49.64.9.72.54.14.54.35-.16.29-.47.29a1.21,1.21,0,0,1-.81-.34Zm3,1.21v-1.23a.94.94,0,0,0,.76.39c.62,0,1.06-.47,1.06-1.25s-.44-1.25-1.06-1.25a.94.94,0,0,0-.76.39v-.33h-.52V218ZM541.2,216a.7.7,0,0,1-.67.79.79.79,0,0,1-.61-.32v-.94a.76.76,0,0,1,.61-.32A.7.7,0,0,1,541.2,216Zm1.06,1.19h.51v-3.28h-.51Zm2.63,0h.52v-1.58c0-.64-.46-.86-1-.86a1.43,1.43,0,0,0-1,.39l.22.36a.92.92,0,0,1,.7-.3c.33,0,.55.16.55.44v.35a1,1,0,0,0-.76-.3.76.76,0,0,0-.83.77.79.79,0,0,0,.83.79,1,1,0,0,0,.76-.32Zm0-.54a.68.68,0,0,1-.56.24c-.29,0-.51-.16-.51-.42a.46.46,0,0,1,.51-.43.69.69,0,0,1,.56.25Zm1.17,1-.08.47a1.36,1.36,0,0,0,.29,0,.78.78,0,0,0,.81-.53l1.15-2.81h-.56l-.69,1.78-.69-1.78h-.55l1,2.41-.12.27c-.06.16-.17.2-.34.2A.41.41,0,0,1,546.06,217.6Zm3.76-.46h.51v-3.28h-.51Zm2.26.06a1.25,1.25,0,1,0-1.22-1.25A1.19,1.19,0,0,0,552.08,217.2Zm0-.46a.8.8,0,0,1,0-1.58.8.8,0,0,1,0,1.58Zm1.72,1a1.36,1.36,0,0,0,1,.35c.58,0,1.22-.23,1.22-1.09v-2.25h-.52v.33a.94.94,0,0,0-.76-.39,1.23,1.23,0,0,0,0,2.44.94.94,0,0,0,.76-.39V217a.62.62,0,0,1-.7.65.89.89,0,0,1-.75-.31Zm1.69-1.38a.79.79,0,0,1-.61.32.68.68,0,0,1-.67-.77.67.67,0,0,1,.67-.76.76.76,0,0,1,.61.32Zm1.44-2a.32.32,0,0,0,0-.64.32.32,0,0,0,0,.64Zm-.25,2.77h.52v-2.38h-.52Zm1-1.19A1.19,1.19,0,0,0,559,217.2a1.07,1.07,0,0,0,.91-.43l-.34-.31a.66.66,0,0,1-.55.28.79.79,0,0,1,0-1.58.63.63,0,0,1,.55.28l.34-.31a1.07,1.07,0,0,0-.91-.43A1.19,1.19,0,0,0,557.72,216Z"/></g></g></svg>