<svg width="434" height="201" viewBox="0 0 434 201" fill="none" xmlns="http://www.w3.org/2000/svg">
<path d="M39.2575 142.201L27.3613 122.246L22.8821 122.606L17.9335 114.306L21.2329 111.966L20.5775 110.867C18.4801 107.348 17.7394 104.064 18.3554 101.015C18.9714 97.9654 20.512 95.2587 22.9774 92.8949C23.5278 92.3184 24.1367 91.7567 24.8042 91.2097C25.4497 90.6262 26.2162 89.9954 27.1035 89.3174L34.2394 88.7889L41.6183 95.4173C40.0199 96.5689 38.7915 97.5496 37.9331 98.3594C37.0528 99.1326 36.3885 99.8514 35.9403 100.516C35.8007 100.699 35.7267 100.991 35.7183 101.393C35.7465 101.774 35.8039 102.162 35.8906 102.557L41.1711 102.166L46.1197 110.467L41.7314 113.605L54.7746 135.484L46.3606 141.618L39.2575 142.201ZM38.1391 110.829L33.846 103.627L29.4577 106.765L28.5073 105.171C27.5023 103.485 27.4297 101.988 28.2896 100.681C28.7378 100.016 29.3838 99.3084 30.2274 98.5571C31.0491 97.7691 32.1236 96.9051 33.4507 95.9649L27.0242 90.1843C26.3716 90.6727 25.7408 91.1978 25.1319 91.7595C24.5596 92.2993 24.0056 92.8283 23.47 93.3463C21.1513 95.6227 19.6695 98.2198 19.0246 101.138C18.4163 104.033 19.1172 107.167 21.1272 110.539L22.0776 112.133L18.7782 114.473L23.0713 121.674L26.3707 119.335L39.4467 141.269L46.8268 135.9L33.7508 113.966L38.1391 110.829Z" fill="#000033"/>
<path d="M71.4348 123.91L56.6126 91.9828L60.4252 89.86L55.4185 89.7148L50.8371 79.8464L60.1541 74.5331L67.3065 74.7407L71.8879 84.6091L67.9281 86.8708L72.7917 87.0119L87.5869 118.881L78.5602 124.059L71.4348 123.91ZM51.6602 80.0993L55.7026 88.8067L63.9124 84.1486L59.87 75.4412L51.6602 80.0993ZM57.4356 92.2358L71.7188 123.002L79.6384 118.479L65.3553 87.7124L57.4356 92.2358Z" fill="#000033"/>
<path d="M101.999 112.103C102.621 111.947 103.237 111.771 103.846 111.575C104.455 111.378 105.044 111.188 105.612 111.005C106.912 110.586 108.097 110.159 109.167 109.724C110.25 109.329 111.164 108.967 111.91 108.637C112.262 108.478 112.587 108.306 112.886 108.12C113.238 107.962 113.571 107.81 113.882 107.664C111.734 107.954 109.655 108.042 107.646 107.928C105.664 107.76 103.794 107.243 102.034 106.376C100.303 105.455 98.6973 104.023 97.2184 102.079C95.78 100.122 94.5237 97.4789 93.4494 94.1493C92.1263 90.0481 91.6742 86.5625 92.0932 83.6926C92.4991 80.782 93.446 78.4366 94.934 76.6564C96.4494 74.8225 98.1961 73.4968 100.174 72.6794C100.404 72.5602 100.642 72.4613 100.885 72.3827C101.129 72.3041 101.352 72.232 101.555 72.1665C102.895 71.7342 104.118 71.5638 105.223 71.6555C106.316 71.7065 107.197 71.9376 107.868 72.3489L107.99 70.2249L116.22 66.7625L123.294 67.8428L133.493 99.4543C134.515 102.622 134.805 105.397 134.364 107.781C133.922 110.165 132.586 112.345 130.354 114.32C128.135 116.336 124.877 118.329 120.581 120.298C119.957 120.589 119.124 120.925 118.082 121.306C117.08 121.674 116.112 122.009 115.178 122.31L108.104 121.23L101.999 112.103ZM108.552 70.7161L108.515 74.5613C107.811 73.3536 106.887 72.643 105.742 72.4296C104.625 72.1624 103.335 72.2646 101.874 72.7363C101.67 72.8018 101.427 72.8804 101.143 72.9721C100.899 73.0507 100.662 73.1496 100.431 73.2688C98.5347 74.0601 96.8627 75.3392 95.4154 77.1063C93.9956 78.8197 93.0899 81.0846 92.6984 83.9008C92.3344 86.6634 92.7877 90.014 94.0585 93.9528C95.29 97.7697 96.7199 100.604 98.3481 102.454C100.017 104.292 101.787 105.402 103.659 105.784C105.531 106.167 107.401 106.057 109.269 105.454C109.472 105.389 109.695 105.317 109.939 105.238C110.182 105.159 110.399 105.067 110.589 104.961C113.38 103.746 115.322 101.842 116.413 99.2488L117.336 102.112C117.847 103.695 117.652 105.036 116.751 106.134C115.85 107.231 114.322 108.262 112.167 109.226C110.527 109.98 108.509 110.743 106.114 111.516C105.586 111.686 105.058 111.856 104.53 112.027C104.002 112.197 103.488 112.34 102.988 112.457L108.395 120.463C109.085 120.241 109.911 119.952 110.873 119.597C111.834 119.242 112.627 118.919 113.25 118.628C117.384 116.711 120.533 114.799 122.697 112.89C124.861 110.982 126.156 108.882 126.583 106.593C127.05 104.29 126.793 101.616 125.81 98.5705L115.827 67.629L108.552 70.7161ZM112.915 88.4071C113.491 90.1938 113.496 91.7388 112.931 93.0421C112.365 94.3455 111.506 95.2277 110.355 95.6889C110.233 95.7282 110.118 95.7878 110.009 95.8677C109.887 95.907 109.765 95.9463 109.644 95.9856C108.222 96.4441 106.962 96.2903 105.863 95.524C104.764 94.7578 103.802 93.0956 102.977 90.5375C102.295 88.426 101.974 86.7362 102.014 85.4683C102.08 84.1466 102.401 83.1242 102.974 82.4012C103.535 81.6375 104.249 81.0709 105.116 80.7015L105.542 80.5639C106.76 80.1709 107.833 80.2285 108.759 80.7367C109.672 81.2043 110.382 81.6699 110.891 82.1335L112.915 88.4071ZM110.714 83.6701C110.227 83.8273 109.859 84.1475 109.612 84.6309C109.405 85.1012 109.363 85.8766 109.488 86.9573C109.64 87.9842 110.03 89.4722 110.659 91.4213C110.974 92.3958 111.31 93.2289 111.667 93.9205C112.853 92.731 113.065 90.9588 112.306 88.6036L110.714 83.6701Z" fill="#000033"/>
<path d="M149.342 96.5125L141.508 48.5075L151.66 45.943L158.492 48.0704L159.925 56.8503C160.872 56.5659 161.789 56.3516 162.673 56.2072C165.663 55.7193 168.523 56.0306 171.255 57.1411C174.022 58.2027 176.411 60.1257 178.422 62.9102C180.468 65.6457 181.866 69.3085 182.615 73.8984C183.604 79.9622 183.163 84.8112 181.292 88.4453C179.456 92.0305 176.608 94.311 172.747 95.287C172.62 95.3076 172.473 95.3317 172.304 95.3591C172.185 95.4219 172.041 95.467 171.873 95.4945C170.525 95.7144 169.14 95.7027 167.717 95.4594C166.343 95.2513 165.235 94.9564 164.395 94.5748L163.461 96.8022L156.174 98.6399L149.342 96.5125ZM157.737 90.7329C158.423 91.2263 159.354 91.766 160.53 92.3522C161.749 92.9315 163.2 93.0837 164.885 92.8088C165.011 92.7882 165.137 92.7676 165.264 92.747C165.425 92.6774 165.59 92.6289 165.759 92.6014C169.494 91.646 172.223 89.4282 173.946 85.9479C175.705 82.4186 176.106 77.7273 175.151 71.874C174.265 66.4419 172.605 62.4977 170.172 60.0414C167.782 57.5783 164.776 56.6422 161.154 57.2332C160.986 57.2607 160.775 57.2951 160.523 57.3363C160.312 57.3707 160.105 57.4261 159.901 57.5025C157.992 57.9871 156.597 58.8416 155.716 60.0662C154.835 61.2907 154.28 62.3971 154.052 63.3854L153.853 63.3531L151.142 46.7409L142.233 48.9729L149.871 95.7777L156.221 94.1579L157.737 90.7329ZM161.997 85.0447C160.691 85.2577 159.64 85.0402 158.842 84.3922C158.087 83.7373 157.465 83.1039 156.976 82.492L155.574 73.9016C155.272 72.0488 155.488 70.4572 156.222 69.127C156.998 67.7899 158.028 66.9516 159.313 66.6123L159.818 66.5298C161.587 66.2412 162.949 66.7754 163.906 68.1324C164.855 69.4473 165.553 71.4733 166 74.2104C166.543 77.5371 166.439 80.083 165.69 81.8481C164.976 83.5642 163.892 84.6057 162.439 84.9725L161.997 85.0447ZM164.213 83.1267C164.91 82.3645 165.355 81.2542 165.55 79.7959C165.786 78.3307 165.726 76.5032 165.368 74.3135C165.251 73.5977 165.114 72.8852 164.955 72.1762C164.796 71.4672 164.619 70.9125 164.424 70.512C163.623 70.9021 163.123 71.5458 162.923 72.4429C162.766 73.3332 162.804 74.4942 163.038 75.926L164.213 83.1267Z" fill="#000033"/>
<path d="M199.771 89.0193L198.853 53.8954L209.128 52.6663L210.748 53.3922C211.994 52.0792 213.468 51.3364 215.171 51.1638L216.003 51.1421C216.728 51.1231 217.412 51.1693 218.055 51.2805C218.697 51.3491 219.318 51.4395 219.919 51.5519L226.4 54.5835L227.904 65.5559C225.922 64.8395 224.248 64.4991 222.883 64.5348C222.67 64.5404 222.435 64.5465 222.179 64.5532C221.966 64.5588 221.753 64.5857 221.541 64.6339C220.52 64.746 219.592 65.1544 218.756 65.8591C217.921 66.5639 217.262 67.4561 216.778 68.5358C216.335 69.5717 216.129 70.6441 216.158 71.7531L216.656 90.8186L206.253 92.051L199.771 89.0193ZM209.036 68.7382C209.004 67.5013 209.251 66.3211 209.776 65.1977C210.3 64.0316 211.022 63.0737 211.942 62.3241C212.86 61.5318 213.872 61.0785 214.979 60.9642C215.234 60.9149 215.489 60.8869 215.745 60.8802C216.001 60.8735 216.236 60.8673 216.449 60.8618C217.217 60.8417 217.923 60.9086 218.567 61.0625C219.253 61.1726 219.94 61.3467 220.629 61.5847L219.294 52.1444C218.908 52.0691 218.437 51.9961 217.88 51.9253C217.322 51.8118 216.702 51.764 216.019 51.7819L215.252 51.802C213.762 51.969 212.394 52.6876 211.147 53.958C209.941 55.1846 209.171 56.7413 208.836 58.628L208.644 58.633L208.507 53.3868L199.508 54.4544L200.394 88.3628L209.521 87.2919L209.036 68.7382Z" fill="#000033"/>
<path d="M262.418 92.3696C261.904 92.7425 261.118 93.0638 260.058 93.3336C259.041 93.6081 257.955 93.7248 256.8 93.6838C256.584 93.7029 256.348 93.6984 256.094 93.6705C255.839 93.6425 255.606 93.6168 255.394 93.5935C253.697 93.4071 251.984 92.9827 250.254 92.3204C248.562 91.7051 247.027 90.8282 245.65 89.6896C244.268 88.5934 243.195 87.2306 242.429 85.6012C241.711 83.9341 241.471 82.0191 241.709 79.8561L244.569 53.8368L255.036 54.0859L260.454 57.5144L258.126 78.6988C258.361 78.5101 258.566 78.4038 258.74 78.3801C258.961 78.3185 259.173 78.1487 259.375 77.8704L261.907 54.8411L272.311 55.0833L278.323 58.9634L274.477 93.9527L264.589 93.7028L262.418 92.3696ZM262.48 55.4836L259.998 78.0676C259.485 78.8268 258.84 79.4212 258.063 79.8509C257.333 80.2429 256.368 80.4372 255.166 80.4339L254.848 80.3989C253.957 80.301 253.206 79.9179 252.592 79.2496C252.021 78.5859 251.815 77.5331 251.974 76.0911L254.323 54.7158L245.142 54.4793L242.345 79.926C242.023 82.8524 242.596 85.0615 244.063 86.5534C245.53 88.0453 247.451 88.9218 249.826 89.1828L251.035 89.3157C253.094 89.3274 254.903 88.8824 256.461 87.9806C258.067 87.0411 259.126 85.8053 259.637 84.2734L259.821 84.358L259.283 89.2565L267.891 89.4301L271.598 55.7132L262.48 55.4836Z" fill="#000033"/>
<path d="M323.856 104.383C322.394 104.573 320.962 104.484 319.559 104.116C318.279 103.78 317.152 103.286 316.176 102.633C315.19 102.022 314.451 101.475 313.96 100.993C311.57 102.704 308.578 103.265 304.984 102.675C304.643 102.629 304.307 102.563 303.977 102.477C303.647 102.39 303.316 102.304 302.986 102.217C300.428 101.546 298.194 100.475 296.286 99.0038C294.368 97.5742 292.981 95.7988 292.126 93.6778C291.323 91.5263 291.267 89.1299 291.96 86.4886C292.707 83.6409 294.087 81.5767 296.099 80.296C298.152 79.0262 300.968 78.0445 304.547 77.3511L301.666 75.4705L296.287 70.7514C298.26 67.4315 300.641 65.1667 303.429 63.9571C306.257 62.7583 309.195 62.4041 312.243 62.8947C312.625 62.9509 313.002 63.0277 313.373 63.1251C313.755 63.1813 314.112 63.2526 314.442 63.3393C317.413 64.1187 319.97 65.385 322.113 67.138C324.266 68.8497 325.8 70.9062 326.714 73.3073C327.639 75.6672 327.749 78.1885 327.046 80.871L323.96 92.6331L327.25 95.4808L323.856 104.383ZM320.852 91.6192C319.742 91.8134 318.94 91.8455 318.445 91.7156C317.496 91.4666 317.183 90.723 317.508 89.4849L321.048 75.9895C322.715 69.6339 320.35 65.617 313.954 63.939C313.665 63.8632 313.376 63.7875 313.087 63.7117C312.798 63.6359 312.483 63.5753 312.142 63.53C309.219 63.0719 306.421 63.3966 303.748 64.5041C301.076 65.6116 298.863 67.6558 297.111 70.6367L303.444 74.746C304.266 73.4619 305.182 72.4893 306.194 71.8283C307.247 71.1782 308.3 70.9471 309.353 71.1352C309.477 71.1677 309.601 71.2002 309.725 71.2327C309.859 71.2239 309.968 71.2303 310.05 71.252C311 71.501 311.662 71.9174 312.038 72.5013C312.415 73.0852 312.5 73.7692 312.294 74.5533C312.067 75.42 311.614 76.0512 310.937 76.447C310.271 76.8015 309.403 77.0812 308.335 77.2862L305.208 77.8555C301.641 78.5076 298.815 79.4426 296.731 80.6604C294.699 81.8477 293.315 83.8446 292.579 86.651C291.129 92.1812 293.003 95.6283 298.203 96.9924C298.451 97.0574 298.699 97.1223 298.946 97.1873C299.194 97.2522 299.447 97.2965 299.705 97.3202C301.73 97.6748 303.567 97.6495 305.217 97.2442C306.867 96.839 308.253 96.0116 309.375 94.762C309.437 95.7044 309.877 96.5478 310.696 97.292C311.516 98.0363 312.565 98.5762 313.844 98.9118C315.206 99.269 316.577 99.3418 317.955 99.1301L320.852 91.6192ZM303.322 90.5939C302.621 90.4098 302.092 90.0725 301.735 89.582C301.39 89.0502 301.314 88.4129 301.509 87.67C301.974 85.8954 303.229 84.8129 305.272 84.4226L306.673 84.1283C307.326 83.991 307.954 83.8689 308.555 83.762C309.209 83.6247 309.723 83.4288 310.099 83.1744L308.978 87.4459C308.436 88.6712 307.67 89.573 306.681 90.1515C305.702 90.6886 304.727 90.874 303.756 90.7075L303.322 90.5939Z" fill="#000033"/>
<path d="M338.259 108.214L351.581 75.7013L361.48 78.7198L362.669 80.0371C364.339 79.338 365.987 79.2528 367.615 79.7815L368.385 80.0969C369.056 80.3719 369.664 80.69 370.207 81.0511C370.767 81.3727 371.299 81.706 371.803 82.0509L376.512 87.4386L373.464 98.0857C371.939 96.6309 370.545 95.6447 369.281 95.127C369.084 95.0461 368.867 94.9571 368.63 94.86C368.432 94.7792 368.227 94.718 368.013 94.6766C367.033 94.3673 366.019 94.3667 364.971 94.6749C363.922 94.983 362.959 95.5335 362.081 96.3264C361.258 97.096 360.637 97.994 360.216 99.0205L352.985 116.668L342.968 113.601L338.259 108.214ZM354.915 93.3902C355.384 92.2453 356.086 91.2647 357.02 90.4485C357.97 89.5928 359.016 89.0073 360.16 88.6921C361.32 88.3373 362.429 88.3308 363.488 88.6724C363.741 88.73 363.986 88.8074 364.223 88.9044C364.46 89.0015 364.677 89.0905 364.874 89.1713C365.585 89.4625 366.204 89.8084 366.732 90.209C367.315 90.5863 367.874 91.0228 368.408 91.5185L370.993 82.3413C370.67 82.1167 370.268 81.8598 369.787 81.5705C369.322 81.2418 368.774 80.948 368.142 80.6891L367.432 80.3979C366.001 79.9502 364.459 80.0561 362.806 80.7157C361.208 81.352 359.875 82.466 358.808 84.0575L358.631 83.9847L360.62 79.1286L351.955 76.4769L339.094 107.864L347.878 110.564L354.915 93.3902Z" fill="#000033"/>
<path d="M370.896 128.368C373.332 127.897 375.67 127.296 377.91 126.565C380.129 125.871 382.025 125.139 383.598 124.37L389.81 92.2169L400.199 97.0017L404.155 102.964L402.561 109.724C403.744 108.435 404.829 107.188 405.816 105.984C406.84 104.8 407.949 103.469 409.143 101.99L418.778 106.416L422.735 112.378C418.273 117.835 413.841 122.597 409.44 126.662C405.039 130.728 400.388 134.158 395.487 136.953C390.565 139.784 385.12 142.07 379.152 143.809L375.195 137.847L370.896 128.368ZM375.53 137.006C381.302 135.351 386.57 133.161 391.333 130.435C396.118 127.672 400.65 124.321 404.929 120.382C409.208 116.443 413.456 111.871 417.674 106.667L409.268 102.8C406.853 105.891 404.424 108.751 401.978 111.382C399.555 113.975 397.057 116.354 394.486 118.518L399.404 97.3572L390.3 93.1626L384.145 124.831C382.55 125.638 380.614 126.396 378.337 127.105C376.076 127.873 373.902 128.445 371.816 128.822L375.53 137.006Z" fill="#000033"/>
<path d="M291.595 142.057L307.951 134.049L299.943 150.405L299.693 150.914L300.23 151.098L317.457 157L300.23 162.903L299.693 163.086L299.943 163.595L307.951 179.951L291.595 171.943L291.086 171.693L290.903 172.23L285 189.457L279.098 172.23L278.914 171.693L278.405 171.943L262.049 179.951L270.057 163.595L270.307 163.086L269.77 162.903L252.543 157L269.77 151.098L270.307 150.914L270.057 150.405L262.049 134.049L278.405 142.057L278.914 142.307L279.098 141.77L285 124.543L290.903 141.77L291.086 142.307L291.595 142.057Z" fill="#11AA00" stroke="#000033"/>
<mask id="path-11-inside-1_75_29072" fill="white">
<path fill-rule="evenodd" clip-rule="evenodd" d="M397.556 8C389.904 3.58172 380.118 6.20373 375.7 13.8564L363 35.8534C358.582 43.5061 361.204 53.2915 368.856 57.7098L390.853 70.4098C398.506 74.8281 408.292 72.206 412.71 64.5534L425.41 42.5564C429.828 34.9037 427.206 25.1182 419.553 20.7L397.556 8ZM412.025 34.4299L389.43 21.3845L376.384 43.9799L398.98 57.0253L412.025 34.4299Z"/>
</mask>
<path fill-rule="evenodd" clip-rule="evenodd" d="M397.556 8C389.904 3.58172 380.118 6.20373 375.7 13.8564L363 35.8534C358.582 43.5061 361.204 53.2915 368.856 57.7098L390.853 70.4098C398.506 74.8281 408.292 72.206 412.71 64.5534L425.41 42.5564C429.828 34.9037 427.206 25.1182 419.553 20.7L397.556 8ZM412.025 34.4299L389.43 21.3845L376.384 43.9799L398.98 57.0253L412.025 34.4299Z" fill="#0066FF"/>
<path d="M389.43 21.3845L389.93 20.5185L389.064 20.0185L388.564 20.8845L389.43 21.3845ZM412.025 34.4299L412.891 34.9299L413.391 34.0639L412.525 33.5639L412.025 34.4299ZM376.384 43.9799L375.518 43.4799L375.018 44.3459L375.884 44.8459L376.384 43.9799ZM398.98 57.0253L398.48 57.8913L399.346 58.3913L399.846 57.5253L398.98 57.0253ZM376.566 14.3564C380.708 7.18203 389.882 4.72389 397.056 8.86603L398.056 7.13397C389.925 2.43955 379.528 5.22544 374.834 13.3564L376.566 14.3564ZM363.866 36.3534L376.566 14.3564L374.834 13.3564L362.134 35.3534L363.866 36.3534ZM369.356 56.8438C362.182 52.7017 359.724 43.5278 363.866 36.3534L362.134 35.3534C357.44 43.4844 360.225 53.8814 368.356 58.5758L369.356 56.8438ZM391.353 69.5438L369.356 56.8438L368.356 58.5758L390.353 71.2758L391.353 69.5438ZM411.844 64.0534C407.702 71.2277 398.528 73.6859 391.353 69.5438L390.353 71.2758C398.484 75.9702 408.881 73.1843 413.576 65.0534L411.844 64.0534ZM424.544 42.0564L411.844 64.0534L413.576 65.0534L426.276 43.0564L424.544 42.0564ZM419.053 21.566C426.228 25.7081 428.686 34.882 424.544 42.0564L426.276 43.0564C430.97 34.9254 428.184 24.5284 420.053 19.8339L419.053 21.566ZM397.056 8.86603L419.053 21.566L420.053 19.8339L398.056 7.13397L397.056 8.86603ZM388.93 22.2505L411.525 35.296L412.525 33.5639L389.93 20.5185L388.93 22.2505ZM377.25 44.4799L390.296 21.8845L388.564 20.8845L375.518 43.4799L377.25 44.4799ZM399.48 56.1593L376.884 43.1138L375.884 44.8459L398.48 57.8913L399.48 56.1593ZM411.159 33.9299L398.114 56.5253L399.846 57.5253L412.891 34.9299L411.159 33.9299Z" fill="#000033" mask="url(#path-11-inside-1_75_29072)"/>
<mask id="path-13-inside-2_75_29072" fill="white">
<path fill-rule="evenodd" clip-rule="evenodd" d="M75 52C88.8071 52 100 40.8071 100 27C100 13.1929 88.8071 2 75 2C61.1929 2 50 13.1929 50 27C50 40.8071 61.1929 52 75 52ZM75.2475 45.5644C85.637 45.5644 94.0594 37.142 94.0594 26.7525C94.0594 16.363 85.637 7.94059 75.2475 7.94059C64.858 7.94059 56.4356 16.363 56.4356 26.7525C56.4356 37.142 64.858 45.5644 75.2475 45.5644Z"/>
</mask>
<path fill-rule="evenodd" clip-rule="evenodd" d="M75 52C88.8071 52 100 40.8071 100 27C100 13.1929 88.8071 2 75 2C61.1929 2 50 13.1929 50 27C50 40.8071 61.1929 52 75 52ZM75.2475 45.5644C85.637 45.5644 94.0594 37.142 94.0594 26.7525C94.0594 16.363 85.637 7.94059 75.2475 7.94059C64.858 7.94059 56.4356 16.363 56.4356 26.7525C56.4356 37.142 64.858 45.5644 75.2475 45.5644Z" fill="#FF0066"/>
<path d="M99 27C99 40.2548 88.2548 51 75 51V53C89.3594 53 101 41.3594 101 27H99ZM75 3C88.2548 3 99 13.7452 99 27H101C101 12.6406 89.3594 1 75 1V3ZM51 27C51 13.7452 61.7452 3 75 3V1C60.6406 1 49 12.6406 49 27H51ZM75 51C61.7452 51 51 40.2548 51 27H49C49 41.3594 60.6406 53 75 53V51ZM93.0594 26.7525C93.0594 36.5897 85.0848 44.5644 75.2475 44.5644V46.5644C86.1893 46.5644 95.0594 37.6943 95.0594 26.7525H93.0594ZM75.2475 8.94059C85.0848 8.94059 93.0594 16.9152 93.0594 26.7525H95.0594C95.0594 15.8107 86.1893 6.94059 75.2475 6.94059V8.94059ZM57.4356 26.7525C57.4356 16.9152 65.4103 8.94059 75.2475 8.94059V6.94059C64.3057 6.94059 55.4356 15.8107 55.4356 26.7525H57.4356ZM75.2475 44.5644C65.4103 44.5644 57.4356 36.5897 57.4356 26.7525H55.4356C55.4356 37.6943 64.3057 46.5644 75.2475 46.5644V44.5644Z" fill="#000033" mask="url(#path-13-inside-2_75_29072)"/>
<path d="M24.7598 173.882L36.1224 162.52L38.8182 165.215L27.7935 176.24L26.9399 177.094H28.147H43.5V180.906H27.7661H26.559L27.4125 181.76L38.8182 193.166L36.1224 195.861L24.7598 184.499L23.9062 183.645V184.852V200.5H20.0938V185.147V183.94L19.2402 184.793L8.17233 195.861L5.47647 193.166L16.8822 181.76L17.7357 180.906H16.5286H0.5V177.094H16.1476H17.3548L16.5012 176.24L5.47647 165.215L8.17233 162.52L19.2402 173.587L20.0938 174.441V173.234V157.5H23.9062V173.529V174.736L24.7598 173.882Z" fill="#FF9D00" stroke="#000033"/>
</svg>
