<svg id="Layer_1" data-name="Layer 1" xmlns="http://www.w3.org/2000/svg" viewBox="0 0 1000 300"><defs><style>.cls-1,.cls-23{font-size:50px;}.cls-1,.cls-23,.cls-3{fill:#f06;}.cls-1,.cls-23,.cls-3,.cls-33{font-family:Futura-Bold, Futura;font-weight:700;}.cls-1{letter-spacing:-0.06em;}.cls-2{letter-spacing:0em;}.cls-3,.cls-8{font-size:21px;}.cls-4{letter-spacing:0.02em;}.cls-5{letter-spacing:0em;}.cls-6{letter-spacing:-0.01em;}.cls-7{letter-spacing:0.01em;}.cls-8{fill:#60606d;font-family:Futura-Medium, Futura;font-weight:500;}.cls-9{letter-spacing:-0.02em;}.cls-10{letter-spacing:0.01em;}.cls-11{letter-spacing:-0.01em;}.cls-12{letter-spacing:0em;}.cls-13{letter-spacing:0.02em;}.cls-14{letter-spacing:0.01em;}.cls-15{letter-spacing:0.02em;}.cls-16{letter-spacing:0.01em;}.cls-17{letter-spacing:0.01em;}.cls-18{letter-spacing:-0.01em;}.cls-19{letter-spacing:-0.02em;}.cls-20{letter-spacing:-0.02em;}.cls-21{letter-spacing:-0.01em;}.cls-22{letter-spacing:0.01em;}.cls-24{letter-spacing:-0.02em;}.cls-25{letter-spacing:0.02em;}.cls-26{letter-spacing:-0.02em;}.cls-27{letter-spacing:-0.02em;}.cls-28{letter-spacing:0em;}.cls-29{letter-spacing:0em;}.cls-30{letter-spacing:-0.01em;}.cls-31{letter-spacing:0.01em;}.cls-32{letter-spacing:-0.12em;}.cls-33{font-size:24px;fill:#003;}.cls-34{letter-spacing:-0.04em;}.cls-35{letter-spacing:-0.03em;}.cls-36{letter-spacing:-0.03em;}.cls-37{letter-spacing:0.01em;}</style></defs><text class="cls-1" transform="translate(311.07 138.76)">4<tspan class="cls-2" x="30.85" y="0">1%</tspan></text><text class="cls-3" transform="translate(272.32 183.76)">Co<tspan class="cls-4" x="28.71" y="0">m</tspan><tspan x="49.92" y="0">pa</tspan><tspan class="cls-5" x="79.36" y="0">r</tspan><tspan x="89.14" y="0">ison </tspan><tspan class="cls-6" x="142.02" y="0">R</tspan><tspan x="156.66" y="0">a</tspan><tspan class="cls-7" x="171.38" y="0">t</tspan><tspan x="179.42" y="0">e</tspan></text><text class="cls-8" transform="translate(281.16 217.76)">Users n<tspan class="cls-9" x="70.02" y="0">o</tspan><tspan x="82.25" y="0">w in</tspan><tspan class="cls-10" x="121.72" y="0">t</tspan><tspan x="127.65" y="0">e</tspan><tspan class="cls-11" x="139.27" y="0">r</tspan><tspan class="cls-12" x="146.98" y="0">act</tspan><tspan x="-8.42" y="25.2">wi</tspan><tspan class="cls-13" x="13.06" y="25.2">t</tspan><tspan x="19.23" y="25.2">h </tspan><tspan class="cls-13" x="37.22" y="25.2">t</tspan><tspan x="43.38" y="25.2">he co</tspan><tspan class="cls-14" x="95.63" y="25.2">m</tspan><tspan x="112.5" y="25.2">pa</tspan><tspan class="cls-15" x="137.68" y="25.2">r</tspan><tspan x="145.85" y="25.2">ison</tspan><tspan class="cls-16" x="18.47" y="50.4">t</tspan><tspan x="24.36" y="50.4">ool f</tspan><tspan class="cls-11" x="67.55" y="50.4">r</tspan><tspan x="75.26" y="50.4">e</tspan><tspan class="cls-17" x="86.88" y="50.4">q</tspan><tspan x="99.7" y="50.4">uent</tspan><tspan class="cls-10" x="140.02" y="50.4">l</tspan><tspan class="cls-12" x="145.44" y="50.4">y</tspan></text><text class="cls-8" transform="translate(33.92 217.76)">I<tspan class="cls-14" x="6.19" y="0">m</tspan><tspan x="23.06" y="0">p</tspan><tspan class="cls-18" x="35.65" y="0">r</tspan><tspan class="cls-19" x="43.32" y="0">o</tspan><tspan x="55.52" y="0">ving page</tspan><tspan x="-21.67" y="25.2">speed helps </tspan><tspan class="cls-13" x="97.7" y="25.2">t</tspan><tspan x="103.87" y="25.2">he user</tspan><tspan x="4.34" y="50.4">as </tspan><tspan class="cls-20" x="31.94" y="50.4">w</tspan><tspan x="47.87" y="50.4">ell as SEO</tspan></text><text class="cls-3" transform="translate(42.29 183.76)"><tspan class="cls-21">P</tspan><tspan x="13.99" y="0">a</tspan><tspan class="cls-22" x="28.71" y="0">g</tspan><tspan x="43.6" y="0">e Speed</tspan></text><text class="cls-23" transform="translate(43.04 139.76)">-53%</text><text class="cls-8" transform="translate(542.23 217.76)">I<tspan class="cls-14" x="6.19" y="0">m</tspan><tspan x="23.06" y="0">p</tspan><tspan class="cls-18" x="35.65" y="0">r</tspan><tspan class="cls-19" x="43.32" y="0">o</tspan><tspan class="cls-24" x="55.52" y="0">v</tspan><tspan x="65.72" y="0">ed </tspan><tspan class="cls-11" x="96.41" y="0">r</tspan><tspan class="cls-24" x="104.12" y="0">ev</tspan><tspan x="125.57" y="0">enue</tspan><tspan x="-8.08" y="25.2">and st</tspan><tspan class="cls-11" x="49.36" y="25.2">r</tspan><tspan x="57.07" y="25.2">eamlined </tspan><tspan class="cls-25" x="150.55" y="25.2">t</tspan><tspan x="156.72" y="25.2">he</tspan><tspan x="27.1" y="50.4">user jou</tspan><tspan class="cls-15" x="102.31" y="50.4">r</tspan><tspan x="110.48" y="50.4">n</tspan><tspan class="cls-24" x="122" y="50.4">e</tspan><tspan x="133.25" y="50.4">y</tspan></text><text class="cls-3" transform="translate(536.79 184.26)">Co<tspan class="cls-26" x="28.71" y="0">n</tspan><tspan class="cls-27" x="42.27" y="0">v</tspan><tspan class="cls-12" x="55.46" y="0">e</tspan><tspan class="cls-28" x="69.05" y="0">r</tspan><tspan x="78.77" y="0">sion </tspan><tspan class="cls-21" x="131.65" y="0">R</tspan><tspan class="cls-29" x="146.28" y="0">a</tspan><tspan class="cls-7" x="161.01" y="0">t</tspan><tspan x="169.05" y="0">e</tspan></text><text class="cls-23" transform="translate(568.79 138.76)">+4%</text><text class="cls-8" transform="translate(803.22 217.76)">Users <tspan class="cls-14" x="58.51" y="0">f</tspan><tspan x="65" y="0">ound mo</tspan><tspan class="cls-30" x="148.89" y="0">r</tspan><tspan x="156.6" y="0">e</tspan><tspan class="cls-24" x="2.6" y="25.2">v</tspan><tspan x="12.79" y="25.2">alue on </tspan><tspan class="cls-13" x="90.77" y="25.2">t</tspan><tspan x="96.94" y="25.2">he n</tspan><tspan class="cls-20" x="138.06" y="25.2">e</tspan><tspan class="cls-12" x="149.36" y="25.2">w</tspan><tspan class="cls-10" x="42.92" y="50.4">t</tspan><tspan x="48.85" y="50.4">e</tspan><tspan class="cls-14" x="60.47" y="50.4">m</tspan><tspan x="77.33" y="50.4">pla</tspan><tspan class="cls-10" x="107.75" y="50.4">t</tspan><tspan x="113.67" y="50.4">e</tspan></text><text class="cls-3" transform="translate(817.78 184.26)">Bounce <tspan class="cls-21" x="88.24" y="0">R</tspan><tspan x="102.88" y="0">a</tspan><tspan class="cls-31" x="117.6" y="0">t</tspan><tspan class="cls-29" x="125.64" y="0">e</tspan></text><text class="cls-23" transform="translate(823.9 138.76)">-<tspan class="cls-32" x="14.35" y="0">1</tspan><tspan x="42.35" y="0">1%</tspan></text><text class="cls-33" transform="translate(16.36 46.82)"><tspan class="cls-34">K</tspan><tspan class="cls-35" x="18.12" y="0">e</tspan><tspan x="33" y="0">y Success </tspan><tspan class="cls-36" x="160.87" y="0">M</tspan><tspan class="cls-37" x="185.06" y="0">e</tspan><tspan x="200.76" y="0">t</tspan><tspan class="cls-5" x="209.71" y="0">r</tspan><tspan x="220.89" y="0">ics</tspan></text></svg>