<?xml version="1.0" encoding="utf-8"?>
<!-- Generator: Adobe Illustrator 24.0.3, SVG Export Plug-In . SVG Version: 6.00 Build 0)  -->
<svg version="1.1" id="Layer_1" xmlns="http://www.w3.org/2000/svg" xmlns:xlink="http://www.w3.org/1999/xlink" x="0px" y="0px"
	 viewBox="0 0 141 252" style="enable-background:new 0 0 141 252;" xml:space="preserve">
<style type="text/css">
	.st0{fill:#303030;}
	.st1{fill:#FFFFFF;}
	.st2{clip-path:url(#SVGID_2_);}
	.st3{fill:#F0F9FF;}
	.st4{fill:#1C6FD1;}
	.st5{font-family:'OpenSans-Bold';}
	.st6{font-size:3.56px;}
	.st7{font-size:4.46px;}
	.st8{fill:#93B4D8;}
	.st9{fill:#617682;}
	.st10{font-family:'OpenSans';}
	.st11{fill:#FF6200;}
	.st12{clip-path:url(#SVGID_4_);}
	.st13{fill:#F47575;}
	.st14{fill:#A2DFFA;}
	.st15{clip-path:url(#SVGID_6_);}
	.st16{fill:#FFBC6B;}
	.st17{clip-path:url(#SVGID_8_);}
	.st18{clip-path:url(#SVGID_10_);}
	.st19{fill:#002E47;}
	.st20{fill:#A3B9C3;}
	.st21{font-size:3.12px;}
	.st22{clip-path:url(#SVGID_12_);}
	.st23{font-size:4.48px;}
	.st24{fill:#044D80;}
	.st25{fill:#363A41;}
	.st26{font-size:3.58px;}
	.st27{font-size:3.14px;}
	.st28{fill:#21AC21;}
	.st29{fill:#607480;}
	.st30{fill:#D9F4FC;}
</style>
<title>compare-mock-1</title>
<path class="st0" d="M4.26,27.83L4.26,27.83L4.26,27.83V35l0,0l0,0c-1.22,0-2.2-0.98-2.2-2.2l0,0V30
	C2.08,28.8,3.06,27.83,4.26,27.83z"/>
<path class="st0" d="M4.26,41.56L4.26,41.56L4.26,41.56v13.73l0,0l0,0c-1.22,0-2.2-0.98-2.2-2.2l0,0v-9.33
	C2.06,42.54,3.04,41.56,4.26,41.56C4.26,41.56,4.26,41.56,4.26,41.56z"/>
<path class="st0" d="M95.64,46L95.64,46c1.22,0,2.2,0.98,2.2,2.2v17.52c0,1.22-0.98,2.2-2.2,2.2l0,0l0,0V46L95.64,46z"/>
<path class="st0" d="M4.26,58.86L4.26,58.86L4.26,58.86v13.72l0,0l0,0c-1.22,0-2.2-0.98-2.2-2.2v-9.33c0-1.22,0.98-2.2,2.2-2.2
	c0,0,0,0,0,0V58.86z"/>
<path class="st0" d="M82.75,1.8h-65.6C9.27,1.8,2.89,8.18,2.89,16.06c0,0,0,0.01,0,0.01v163.56c-0.01,7.88,6.37,14.26,14.25,14.27
	c0,0,0.01,0,0.01,0h65.6c7.87-0.01,14.25-6.4,14.25-14.27V16.07C97,8.2,90.62,1.81,82.75,1.8z M92.9,179.63
	c-0.01,5.6-4.55,10.14-10.15,10.15h-65.6c-5.6-0.01-10.14-4.55-10.15-10.15V16.07c0.01-5.6,4.55-10.14,10.15-10.15h65.6
	c5.6,0.01,10.14,4.55,10.15,10.15V179.63z"/>
<path d="M94,14.78v166.13c0,5.5-4.46,9.96-9.96,9.96H15.87c-5.5,0-9.96-4.46-9.96-9.96V14.78c0-5.5,4.46-9.96,9.96-9.96h68.17
	C89.54,4.82,94,9.28,94,14.78z"/>
<path class="st1" d="M17.15,188.68c-4.98-0.03-8.99-4.07-9-9.05V16.07c0.03-4.96,4.04-8.97,9-9h8.45c0.87-0.01,1.59,0.67,1.64,1.53
	v1c0.05,2.23,1.88,4.01,4.11,4h37.16c2.23,0.01,4.06-1.77,4.11-4v-1c0.02-0.9,0.76-1.62,1.66-1.6c0.01,0,0.01,0,0.02,0h8.45
	c4.98,0.03,8.99,4.07,9,9.05v163.58c-0.01,4.98-4.02,9.02-9,9.05L17.15,188.68z"/>
<circle class="st0" cx="60.38" cy="9.76" r="1.65"/>
<path class="st0" d="M54.89,10.59H45c-0.45-0.01-0.82-0.38-0.82-0.83l0,0c0-0.45,0.37-0.82,0.82-0.82l0,0h9.88
	c0.45,0,0.82,0.37,0.82,0.82l0,0C55.7,10.21,55.34,10.58,54.89,10.59z"/>
<g>
	<defs>
		<path id="SVGID_1_" d="M17.15,188.68c-4.98-0.03-8.99-4.07-9-9.05V16.07c0.03-4.96,4.04-8.97,9-9h8.45
			c0.87-0.01,1.59,0.67,1.64,1.53v1c0.05,2.23,1.88,4.01,4.11,4h37.16c2.23,0.01,4.06-1.77,4.11-4v-1c0.02-0.9,0.76-1.62,1.66-1.6
			c0.01,0,0.01,0,0.02,0h8.45c4.98,0.03,8.99,4.07,9,9.05v163.58c-0.01,4.98-4.02,9.02-9,9.05L17.15,188.68z"/>
	</defs>
	<clipPath id="SVGID_2_">
		<use xlink:href="#SVGID_1_"  style="overflow:visible;"/>
	</clipPath>
	<g class="st2">
		<rect x="8.13" y="111.27" class="st3" width="83.55" height="15.37"/>
		<path class="st4" d="M15.7,244.29h68.18c2.71,0,4.9,2.19,4.9,4.9v0c0,2.71-2.19,4.9-4.9,4.9H15.7c-2.71,0-4.9-2.19-4.9-4.9v0
			C10.8,246.48,12.99,244.29,15.7,244.29z"/>
		<text transform="matrix(1 0 0 1 42.88 250.57)" class="st1 st5 st6">SHARE</text>
		<text transform="matrix(1 0 0 1 10.8 120.89)" class="st4 st5 st7">Starting Price</text>
		<rect x="8.13" y="111.04" class="st8" width="83.55" height="0.22"/>
		<path class="st4" d="M86.5,120.4c-0.06,0-0.11-0.02-0.16-0.06l-2-2c-0.08-0.09-0.07-0.23,0.03-0.31c0.08-0.07,0.2-0.07,0.28,0
			l1.85,1.84l1.85-1.87c0.09-0.08,0.23-0.07,0.31,0.03c0.07,0.08,0.07,0.2,0,0.28l-2,2C86.62,120.36,86.56,120.39,86.5,120.4z"/>
		<rect x="8.13" y="126.86" class="st3" width="83.55" height="15.37"/>
		<text transform="matrix(1 0 0 1 10.8 136.49)" class="st4 st5 st7">Ideal User</text>
		<rect x="8.13" y="126.64" class="st8" width="83.55" height="0.22"/>
		<path class="st4" d="M86.5,136c-0.06,0-0.12-0.03-0.16-0.07l-2-2c-0.09-0.08-0.09-0.22-0.01-0.31c0,0,0.01-0.01,0.01-0.01
			c0.09-0.08,0.22-0.08,0.31,0l1.85,1.85l1.85-1.85c0.09-0.08,0.22-0.08,0.31,0c0.09,0.08,0.09,0.22,0.01,0.31
			c0,0-0.01,0.01-0.01,0.01l-2,2C86.62,135.98,86.56,136,86.5,136z"/>
		<rect x="8.13" y="142.46" class="st3" width="83.55" height="15.37"/>
		<text transform="matrix(1 0 0 1 10.8 152.09)" class="st4 st5 st7">Screenshots</text>
		<rect x="8.13" y="142.24" class="st8" width="83.55" height="0.22"/>
		<path class="st4" d="M86.5,151.6c-0.06-0.01-0.12-0.03-0.16-0.07l-2-2c-0.09-0.08-0.09-0.22-0.01-0.31c0,0,0.01-0.01,0.01-0.01
			c0.08-0.09,0.21-0.09,0.3-0.01c0,0,0.01,0.01,0.01,0.01l1.85,1.85l1.85-1.85c0.08-0.09,0.21-0.09,0.3-0.01
			c0,0,0.01,0.01,0.01,0.01c0.09,0.08,0.09,0.22,0.01,0.31c0,0-0.01,0.01-0.01,0.01l-2,2C86.62,151.57,86.56,151.6,86.5,151.6z"/>
		<rect x="8.13" y="158.06" class="st3" width="83.55" height="15.37"/>
		<text transform="matrix(1 0 0 1 10.8 167.68)" class="st4 st5 st7">Features</text>
		<rect x="8.13" y="157.83" class="st8" width="83.55" height="0.22"/>
		<path class="st4" d="M86.5,167.19c-0.06,0-0.11-0.02-0.16-0.06l-2-2c-0.08-0.09-0.07-0.23,0.03-0.31c0.08-0.07,0.2-0.07,0.28,0
			l1.85,1.85l1.85-1.85c0.09-0.08,0.23-0.07,0.31,0.03c0.07,0.08,0.07,0.2,0,0.28l-2,2C86.62,167.17,86.56,167.19,86.5,167.19z"/>
		<rect x="8.13" y="173.65" class="st3" width="83.55" height="15.37"/>
		<text transform="matrix(1 0 0 1 10.8 183.28)" class="st4 st5 st7">Reviews</text>
		<rect x="8.13" y="173.43" class="st8" width="83.55" height="0.22"/>
		<path class="st4" d="M86.5,182.79c-0.06,0-0.12-0.03-0.16-0.07l-2-2c-0.09-0.08-0.09-0.22-0.01-0.31c0,0,0.01-0.01,0.01-0.01
			c0.09-0.08,0.22-0.08,0.31,0l1.85,1.85l1.85-1.85c0.09-0.08,0.22-0.08,0.31,0c0.09,0.08,0.09,0.22,0.01,0.31
			c0,0-0.01,0.01-0.01,0.01l-2,2C86.62,182.77,86.56,182.79,86.5,182.79z"/>
		<rect x="8.13" y="189.25" class="st3" width="83.55" height="15.37"/>
		<text transform="matrix(1 0 0 1 10.8 198.88)" class="st4 st5 st7">Awards</text>
		<rect x="8.13" y="189.03" class="st8" width="83.55" height="0.22"/>
		<path class="st4" d="M86.5,198.39c-0.06-0.01-0.12-0.03-0.16-0.07l-2-2c-0.09-0.08-0.09-0.22-0.01-0.31c0,0,0.01-0.01,0.01-0.01
			c0.08-0.09,0.21-0.09,0.3-0.01c0,0,0.01,0.01,0.01,0.01l1.85,1.85l1.85-1.85c0.08-0.09,0.21-0.09,0.3-0.01
			c0,0,0.01,0.01,0.01,0.01c0.09,0.08,0.09,0.22,0.01,0.31c0,0-0.01,0.01-0.01,0.01l-2,2C86.62,198.36,86.56,198.39,86.5,198.39z"/>
		<rect x="8.13" y="204.85" class="st3" width="83.55" height="15.37"/>
		<text transform="matrix(1 0 0 1 10.8 214.47)" class="st4 st5 st7">Specifications &amp; Support</text>
		<rect x="8.13" y="204.63" class="st8" width="83.55" height="0.22"/>
		<path class="st4" d="M86.5,214c-0.06,0-0.11-0.02-0.16-0.06l-2-2c-0.08-0.09-0.07-0.23,0.03-0.31c0.08-0.07,0.2-0.07,0.28,0
			l1.85,1.85l1.85-1.85c0.09-0.08,0.23-0.07,0.31,0.03c0.07,0.08,0.07,0.2,0,0.28l-2,2C86.62,213.98,86.56,214,86.5,214z"/>
		<rect x="8.13" y="220.44" class="st3" width="83.55" height="15.37"/>
		<text transform="matrix(1 0 0 1 10.8 230.07)" class="st4 st5 st7">Company Details</text>
		<rect x="8.13" y="220.22" class="st8" width="83.55" height="0.22"/>
		<rect x="8.13" y="235.82" class="st8" width="83.55" height="0.22"/>
		<path class="st4" d="M86.5,229.58c-0.06,0-0.12-0.03-0.16-0.07l-2-2c-0.09-0.08-0.09-0.22-0.01-0.31c0,0,0.01-0.01,0.01-0.01
			c0.09-0.08,0.22-0.08,0.31,0L86.5,229l1.85-1.85c0.09-0.08,0.22-0.08,0.31,0c0.09,0.08,0.09,0.22,0.01,0.31
			c0,0-0.01,0.01-0.01,0.01l-2,2C86.63,229.53,86.57,229.57,86.5,229.58z"/>
		<text transform="matrix(1 0 0 1 28.63 44.38)" class="st4 st5 st7">QuickBooks Enterprise</text>
		<text transform="matrix(1 0 0 1 28.63 51.73)" class="st9 st10 st6">by Intuit</text>
		<path class="st11" d="M15.7,56.15h68.41c2.71,0,4.9,2.19,4.9,4.9l0,0c0,2.71-2.19,4.9-4.9,4.9H15.7c-2.71,0-4.9-2.19-4.9-4.9l0,0
			C10.8,58.34,12.99,56.15,15.7,56.15z"/>
		<text transform="matrix(1 0 0 1 33.72 62.87)" class="st1 st5 st6">VISIT WEBSITE</text>
		<rect x="10.92" y="71.24" class="st8" width="77.98" height="0.11"/>
		<g id="Logo_1">
			<g>
				<defs>
					<rect id="SVGID_3_" x="12.47" y="39.22" width="13.37" height="13.37"/>
				</defs>
				<clipPath id="SVGID_4_">
					<use xlink:href="#SVGID_3_"  style="overflow:visible;"/>
				</clipPath>
				<g class="st12">
					<rect x="12.47" y="39.22" class="st3" width="13.37" height="13.37"/>
					<polygon class="st13" points="18.53,49.54 16.22,52.58 20.84,52.58 25.46,52.58 23.15,49.54 20.84,46.5 					"/>
					<polygon class="st14" points="14.35,50.19 12.53,52.58 16.17,52.58 19.81,52.58 17.99,50.19 16.17,47.79 					"/>
					<g>
						<defs>
							<rect id="SVGID_5_" x="12.47" y="39.22" width="13.37" height="13.37"/>
						</defs>
						<clipPath id="SVGID_6_">
							<use xlink:href="#SVGID_5_"  style="overflow:visible;"/>
						</clipPath>
						<g class="st15">
							<path class="st16" d="M18.62,43.13c0.01,1.05-0.85,1.91-1.9,1.92c-1.05,0.01-1.91-0.85-1.92-1.9
								c-0.01-1.05,0.85-1.91,1.9-1.92c0,0,0.01,0,0.01,0C17.76,41.23,18.61,42.08,18.62,43.13"/>
						</g>
					</g>
				</g>
			</g>
		</g>
		<path class="st8" d="M26,52.7H12.36V39.1H26V52.7z M12.63,52.47h13.1V39.33H12.59L12.63,52.47z"/>
		<circle class="st4" cx="13.37" cy="40.11" r="2.67"/>
		<path class="st1" d="M14.75,41.15c0.1,0.09,0.1,0.24,0.01,0.34c0,0-0.01,0.01-0.01,0.01c-0.05,0.04-0.11,0.07-0.17,0.07
			c-0.06,0-0.12-0.03-0.17-0.07l-1-1l-1,1c-0.05,0.04-0.11,0.07-0.17,0.07c-0.09,0.02-0.18-0.01-0.24-0.07
			c-0.1-0.09-0.1-0.24-0.01-0.34c0,0,0.01-0.01,0.01-0.01l1-1l-1-1c-0.1-0.09-0.1-0.24-0.01-0.34c0,0,0.01-0.01,0.01-0.01
			c0.1-0.09,0.24-0.09,0.34,0l1,1.05l1-1.05c0.1-0.09,0.24-0.09,0.34,0c0.1,0.09,0.1,0.24,0.01,0.34c0,0-0.01,0.01-0.01,0.01l-1,1
			L14.75,41.15z"/>
		<text transform="matrix(1 0 0 1 28.63 83.93)" class="st4 st5 st7">NetSuite</text>
		<text transform="matrix(1 0 0 1 28.63 91.28)" class="st9 st10 st6">by NetSuite</text>
		<path class="st11" d="M15.7,95.7h68.41c2.71,0,4.9,2.19,4.9,4.9l0,0c0,2.71-2.19,4.9-4.9,4.9H15.7c-2.71,0-4.9-2.19-4.9-4.9l0,0
			C10.8,97.89,12.99,95.7,15.7,95.7z"/>
		<text transform="matrix(1 0 0 1 33.72 102.42)" class="st1 st5 st6">VISIT WEBSITE</text>
		<g id="Logo_1-2">
			<g>
				<defs>
					<rect id="SVGID_7_" x="12.47" y="78.76" width="13.37" height="13.37"/>
				</defs>
				<clipPath id="SVGID_8_">
					<use xlink:href="#SVGID_7_"  style="overflow:visible;"/>
				</clipPath>
				<g class="st17">
					<rect x="12.47" y="78.76" class="st3" width="13.37" height="13.37"/>
					<polygon class="st13" points="18.53,89.09 16.22,92.13 20.84,92.13 25.46,92.13 23.15,89.09 20.84,86.05 					"/>
					<polygon class="st14" points="14.35,89.73 12.53,92.13 16.17,92.13 19.81,92.13 17.99,89.73 16.17,87.33 					"/>
					<g>
						<defs>
							<rect id="SVGID_9_" x="12.47" y="78.76" width="13.37" height="13.37"/>
						</defs>
						<clipPath id="SVGID_10_">
							<use xlink:href="#SVGID_9_"  style="overflow:visible;"/>
						</clipPath>
						<g class="st18">
							<path class="st16" d="M18.62,82.68c0.01,1.05-0.85,1.91-1.9,1.92c-1.05,0.01-1.91-0.85-1.92-1.9
								c-0.01-1.05,0.85-1.91,1.9-1.92c0,0,0.01,0,0.01,0C17.76,80.78,18.61,81.63,18.62,82.68"/>
						</g>
					</g>
				</g>
			</g>
		</g>
		<path class="st8" d="M26,92.24H12.36V78.65H26V92.24z M12.59,92h13.14V78.88H12.59V92z"/>
		<circle class="st4" cx="13.37" cy="79.66" r="2.67"/>
		<path class="st1" d="M14.75,80.7c0.1,0.09,0.1,0.24,0.01,0.34c0,0-0.01,0.01-0.01,0.01c-0.05,0.04-0.11,0.07-0.17,0.07
			c-0.06,0-0.12-0.03-0.17-0.07l-1-1l-1,1c-0.05,0.04-0.11,0.07-0.17,0.07c-0.06,0-0.12-0.03-0.17-0.07
			c-0.1-0.09-0.1-0.24-0.01-0.34c0,0,0.01-0.01,0.01-0.01l1-1l-1-1c-0.09-0.09-0.1-0.23-0.02-0.32c0-0.01,0.01-0.01,0.02-0.02
			c0.1-0.09,0.24-0.09,0.34,0l1,1l1-1c0.1-0.09,0.24-0.09,0.34,0c0.09,0.09,0.1,0.23,0.02,0.32c0,0.01-0.01,0.01-0.02,0.02l-1,1
			L14.75,80.7z"/>
		<rect x="8.19" y="16.32" class="st3" width="83.55" height="15.37"/>
		<text transform="matrix(1 0 0 1 10.86 25.95)" class="st4 st5 st7">Compared Products</text>
		<rect x="8.19" y="16.1" class="st8" width="83.55" height="0.22"/>
		<path class="st4" d="M88.56,25.46c-0.06,0-0.11-0.02-0.15-0.07l-1.85-1.84l-1.85,1.84c-0.08,0.09-0.22,0.09-0.31,0.01
			c0,0-0.01-0.01-0.01-0.01c-0.08-0.09-0.08-0.22,0-0.31l2-2c0.09-0.08,0.23-0.08,0.32,0l2,2c0.09,0.08,0.09,0.21,0.01,0.3
			c0,0-0.01,0.01-0.01,0.01C88.67,25.43,88.62,25.46,88.56,25.46z"/>
		<rect x="8.19" y="31.7" class="st8" width="83.55" height="0.22"/>
		<rect x="8.13" y="-33.1" class="st19" width="83.55" height="49.32"/>
		<text transform="matrix(1 0 0 1 30.02 0.59)" class="st1 st5 st7">FINANCIAL FORCE</text>
		<text transform="matrix(1 0 0 1 31.26 8.73)" class="st1 st5 st7">ACCOUNTING</text>
		<text transform="matrix(1 0 0 1 23.29 0.11)" class="st20 st10 st21">vs</text>
		<path class="st20" d="M24.6,1.85L24.6,1.85c-0.15-0.01-0.3-0.04-0.45-0.08c-0.06,0-0.11-0.05-0.11-0.11s0.05-0.11,0.11-0.11
			c0.01,0,0.03,0,0.04,0.01l0.42,0.07c0.06,0,0.1,0.04,0.1,0.1c0,0.01,0,0.01,0,0.02C24.71,1.81,24.66,1.86,24.6,1.85
			C24.6,1.85,24.6,1.85,24.6,1.85z M25.04,1.85c-0.06,0-0.1-0.05-0.11-0.1c0-0.07,0-0.12,0.1-0.12l0.42-0.07
			c0.06-0.02,0.12,0,0.14,0.06c0.02,0.06,0,0.12-0.06,0.14c-0.01,0-0.02,0.01-0.03,0.01c-0.15,0.04-0.3,0.07-0.46,0.08H25.04z
			 M23.75,1.63H23.7c-0.14-0.06-0.27-0.13-0.4-0.21c-0.04-0.04-0.05-0.11,0-0.16c0,0,0,0,0,0c0.04-0.04,0.11-0.04,0.15,0
			c0.12,0.08,0.24,0.14,0.37,0.2c0.06,0.03,0.08,0.09,0.06,0.15C23.85,1.64,23.79,1.65,23.75,1.63z M25.89,1.63
			c-0.04,0-0.08-0.02-0.1-0.06c-0.03-0.05,0-0.12,0.05-0.15c0,0,0.01,0,0.01,0c0.13-0.06,0.25-0.13,0.37-0.2
			c0.04-0.04,0.11-0.05,0.16,0c0,0,0,0,0,0c0.04,0.04,0.05,0.1,0.01,0.14c0,0-0.01,0.01-0.01,0.01c-0.12,0.09-0.26,0.16-0.4,0.22
			L25.89,1.63z M23,1.15c-0.02,0.01-0.05,0.01-0.07,0c-0.12-0.1-0.22-0.21-0.32-0.33c-0.04-0.05-0.04-0.11,0-0.16
			c0.04-0.04,0.11-0.05,0.16,0c0,0,0,0,0,0c0.09,0.11,0.19,0.21,0.29,0.31c0.04,0.05,0.04,0.11,0,0.16
			C23.04,1.14,23.02,1.15,23,1.15z M26.62,1.15c-0.03,0.01-0.05,0.01-0.08,0c-0.04-0.04-0.04-0.11,0-0.15
			c0.11-0.09,0.2-0.2,0.29-0.31c0.04-0.04,0.11-0.05,0.16,0c0,0,0,0,0,0c0.04,0.04,0.05,0.1,0.01,0.14c0,0-0.01,0.01-0.01,0.01
			c-0.1,0.12-0.2,0.23-0.31,0.34c-0.02-0.01-0.04-0.02-0.05-0.03H26.62z M22.47,0.46c-0.04,0-0.08-0.02-0.1-0.06
			C22.3,0.27,22.24,0.14,22.19,0c-0.02-0.06,0.01-0.12,0.06-0.14c0.06-0.02,0.13,0.01,0.15,0.07c0.04,0.14,0.1,0.27,0.17,0.39
			c0.03,0.05,0.01,0.12-0.05,0.15c0,0,0,0,0,0L22.47,0.46z M27.17,0.46h-0.05c-0.05-0.03-0.08-0.09-0.05-0.15c0,0,0,0,0,0
			c0.07-0.12,0.13-0.25,0.17-0.39c0.02-0.05,0.08-0.08,0.14-0.07c0.06,0.02,0.09,0.09,0.07,0.15c-0.05,0.14-0.11,0.28-0.18,0.42
			C27.24,0.45,27.21,0.46,27.17,0.46z M22.17-0.37c-0.05,0-0.1-0.04-0.11-0.09c-0.01-0.15-0.01-0.31,0-0.46
			C22.07-0.96,22.1-0.99,22.14-1l0,0c0.06,0,0.11,0.05,0.11,0.11c0,0,0,0,0,0c-0.01,0.14-0.01,0.28,0,0.42
			c0.01,0.06-0.03,0.12-0.09,0.13c0,0,0,0,0,0L22.17-0.37z M27.45-0.37L27.45-0.37c-0.06-0.01-0.1-0.07-0.09-0.13c0,0,0,0,0,0
			c0.01-0.14,0.01-0.28,0-0.42c0.02-0.05,0.07-0.09,0.13-0.08c0.06,0,0.11,0.05,0.11,0.11c0,0,0,0,0,0l0,0
			c0.01,0.15,0.01,0.31,0,0.46c-0.03,0.05-0.09,0.07-0.14,0.05L27.45-0.37z M22.17-1.24L22.17-1.24c-0.06-0.01-0.1-0.07-0.09-0.13
			c0,0,0,0,0,0c0.02-0.15,0.06-0.3,0.11-0.45c0.03-0.05,0.08-0.08,0.14-0.07c0.06,0.02,0.09,0.09,0.07,0.15
			c-0.04,0.13-0.08,0.27-0.1,0.41c-0.02,0.05-0.07,0.08-0.12,0.08L22.17-1.24z M27.44-1.24c-0.05,0-0.1-0.04-0.11-0.09
			c-0.02-0.14-0.05-0.28-0.1-0.41c-0.02-0.06,0.01-0.12,0.07-0.14c0,0,0,0,0,0c0.06-0.02,0.12,0.01,0.14,0.07c0,0,0,0,0,0
			c0.05,0.14,0.09,0.29,0.11,0.44c0.01,0.06-0.03,0.12-0.09,0.13c0,0,0,0,0,0L27.44-1.24z M22.44-2.05h-0.05
			c-0.04-0.04-0.04-0.11,0-0.15c0.07-0.13,0.15-0.26,0.25-0.38c0.04-0.04,0.1-0.05,0.14-0.01c0,0,0.01,0.01,0.01,0.01
			c0.04,0.04,0.05,0.1,0.01,0.14c0,0-0.01,0.01-0.01,0.01c-0.08,0.12-0.16,0.23-0.23,0.36c-0.03,0.01-0.07,0.01-0.1-0.01L22.44-2.05
			z M27.15-2.05c-0.04,0-0.08-0.02-0.1-0.06c-0.07-0.12-0.15-0.24-0.23-0.35c-0.04-0.05-0.04-0.11,0-0.16
			c0.05-0.04,0.11-0.04,0.16,0c0.09,0.12,0.18,0.25,0.25,0.39c0.04,0.04,0.04,0.11,0,0.15L27.15-2.05z M23-2.78
			c-0.03,0.01-0.05,0.01-0.08,0c-0.04-0.04-0.05-0.11,0-0.16c0,0,0,0,0,0c0.11-0.11,0.23-0.2,0.36-0.29
			c0.04-0.04,0.1-0.05,0.14-0.01c0,0,0.01,0.01,0.01,0.01c0.04,0.04,0.05,0.1,0.01,0.14c0,0-0.01,0.01-0.01,0.01
			C23.31-3,23.2-2.91,23.1-2.82C23.08-2.79,23.04-2.77,23-2.78z M26.62-2.78c-0.02,0.01-0.05,0.01-0.07,0
			c-0.11-0.09-0.22-0.18-0.34-0.26c-0.04-0.04-0.04-0.11,0-0.15c0.04-0.04,0.1-0.05,0.14-0.01c0,0,0.01,0.01,0.01,0.01
			C26.48-3.14,26.59-3.07,26.7-3c0.04,0.04,0.05,0.1,0.01,0.14c0,0-0.01,0.01-0.01,0.01C26.69-2.82,26.66-2.79,26.62-2.78
			L26.62-2.78z M23.74-3.25c-0.05,0-0.09-0.03-0.1-0.07c-0.02-0.06,0-0.12,0.05-0.15c0.14-0.06,0.29-0.11,0.44-0.15
			c0.06-0.01,0.12,0.02,0.13,0.08c0.02,0.06-0.01,0.12-0.07,0.14c0,0-0.01,0-0.01,0c-0.14,0.03-0.27,0.08-0.4,0.14L23.74-3.25z
			 M25.88-3.25L25.88-3.25c-0.13-0.05-0.26-0.1-0.4-0.13c-0.06-0.01-0.1-0.07-0.08-0.13c0,0,0-0.01,0-0.01
			c0.01-0.05,0.06-0.09,0.11-0.08c0.01,0,0.01,0,0.02,0c0.15,0.04,0.3,0.09,0.44,0.15c0.05,0.02,0.08,0.08,0.06,0.14
			c-0.03,0.05-0.1,0.07-0.15,0.04L25.88-3.25z M24.59-3.46c-0.05,0.01-0.1-0.03-0.11-0.09c0,0,0-0.01,0-0.01
			c-0.01-0.06,0.04-0.11,0.1-0.12c0,0,0,0,0,0c0.15-0.02,0.31-0.02,0.46,0c0.06,0,0.1,0.04,0.1,0.1c0,0.01,0,0.01,0,0.02
			c-0.01,0.06-0.06,0.11-0.12,0.1c0,0,0,0,0,0C24.88-3.47,24.74-3.47,24.59-3.46L24.59-3.46z"/>
	</g>
</g>
<path class="st0" d="M45.42,82.93L45.42,82.93L45.42,82.93v7.13l0,0l0,0c-1.22,0-2.2-0.98-2.2-2.2v-2.73
	C43.22,83.91,44.2,82.93,45.42,82.93z"/>
<path class="st0" d="M45.42,96.66L45.42,96.66L45.42,96.66v13.72l0,0l0,0c-1.22,0-2.2-0.98-2.2-2.2v-9.32
	C43.22,97.64,44.2,96.66,45.42,96.66z"/>
<path class="st0" d="M136.8,101.06L136.8,101.06c1.22,0,2.2,0.98,2.2,2.2v17.57c0,1.22-0.98,2.2-2.2,2.2l0,0l0,0v-22V101.06z"/>
<path class="st0" d="M45.42,114L45.42,114L45.42,114v13.72l0,0l0,0c-1.22,0-2.2-0.98-2.2-2.2v-9.33
	C43.23,114.98,44.21,114,45.42,114z"/>
<path class="st0" d="M123.91,56.9H58.32c-7.88,0-14.27,6.39-14.27,14.27v163.56c0,7.88,6.39,14.27,14.27,14.27h0h65.59
	c7.88,0,14.27-6.39,14.27-14.27V71.17C138.18,63.29,131.79,56.9,123.91,56.9z M134.06,234.73c-0.01,5.6-4.55,10.14-10.15,10.15
	H58.32c-5.61-0.01-10.15-4.54-10.16-10.15V71.17c0-5.61,4.55-10.16,10.16-10.17h65.59c5.6,0.01,10.14,4.55,10.15,10.15V234.73z"/>
<path d="M135.16,69.88v166.13c0,5.5-4.46,9.96-9.96,9.96H57.03c-5.5,0-9.96-4.46-9.96-9.96V69.88c0-5.5,4.46-9.96,9.96-9.96h68.17
	C130.7,59.92,135.16,64.38,135.16,69.88z"/>
<path class="st1" d="M58.32,243.78c-5,0-9.05-4.05-9.06-9.05V71.17c0.01-5,4.06-9.05,9.06-9.05h8.44c0.88,0,1.61,0.7,1.64,1.58v1
	c0.05,2.23,1.89,4.01,4.12,4h37.11c2.23,0.01,4.06-1.77,4.11-4v-1c0.03-0.88,0.76-1.58,1.64-1.58h8.45c5-0.06,9.11,3.95,9.17,8.95
	c0,0.03,0,0.07,0,0.1v163.56c-0.01,5-4.05,9.04-9.05,9.05H58.32z"/>
<circle class="st0" cx="101.55" cy="64.86" r="1.65"/>
<path class="st0" d="M96.05,65.69h-9.88c-0.45-0.01-0.82-0.38-0.82-0.83l0,0c0-0.45,0.37-0.82,0.82-0.82h9.88
	c0.45,0,0.82,0.37,0.82,0.82l0,0c0.01,0.45-0.36,0.82-0.81,0.83C96.06,65.69,96.05,65.69,96.05,65.69z"/>
<g>
	<defs>
		<path id="SVGID_11_" d="M58.32,243.78c-5,0-9.05-4.05-9.06-9.05V71.17c0.01-5,4.06-9.05,9.06-9.05h8.44c0.88,0,1.61,0.7,1.64,1.58
			v1c0.05,2.23,1.89,4.01,4.12,4h37.11c2.23,0.01,4.06-1.77,4.11-4v-1c0.03-0.88,0.76-1.58,1.64-1.58h8.45
			c5-0.06,9.11,3.95,9.17,8.95c0,0.03,0,0.07,0,0.1v163.56c-0.01,5-4.05,9.04-9.05,9.05H58.32z"/>
	</defs>
	<clipPath id="SVGID_12_">
		<use xlink:href="#SVGID_11_"  style="overflow:visible;"/>
	</clipPath>
	<g class="st22">
		<rect x="49.14" y="236.03" class="st19" width="83.78" height="91.84"/>
		<rect x="49.02" y="112.89" class="st3" width="84" height="15.46"/>
		<text transform="matrix(1 0 0 1 51.71 122.57)" class="st4 st5 st23">Company Details</text>
		<rect x="49.02" y="112.67" class="st8" width="84" height="0.22"/>
		<rect x="49.02" y="128.35" class="st8" width="84" height="0.22"/>
		<rect x="49.02" y="193.69" class="st8" width="84" height="0.22"/>
		<path class="st4" d="M129.83,122.08c-0.06,0-0.12-0.02-0.16-0.07l-1.86-1.86L126,122c-0.08,0.09-0.22,0.09-0.31,0.01
			c0,0-0.01-0.01-0.01-0.01c-0.09-0.08-0.09-0.21-0.01-0.3c0,0,0.01-0.01,0.01-0.01l2-2c0.08-0.09,0.21-0.09,0.3-0.01
			c0,0,0.01,0.01,0.01,0.01l2,2c0.09,0.08,0.09,0.21,0.01,0.3c0,0-0.01,0.01-0.01,0.01C129.95,122.05,129.89,122.08,129.83,122.08z"
			/>
		<path class="st24" d="M53.73,184.12c-1.1,0-2,0.9-2,2s0.9,2,2,2s2-0.9,2-2S54.83,184.12,53.73,184.12z M53.73,187.75
			c-0.89,0.01-1.62-0.72-1.63-1.61c-0.01-0.89,0.72-1.62,1.61-1.63c0.89-0.01,1.62,0.72,1.63,1.61c0,0,0,0.01,0,0.01
			c0.01,0.89-0.71,1.61-1.6,1.62C53.74,187.75,53.73,187.75,53.73,187.75z M53.73,185.13L53.73,185.13c-0.08,0-0.14,0.06-0.14,0.14
			v0.95c0,0.07,0.04,0.14,0.1,0.18l0.83,0.5c0.08,0.02,0.16-0.02,0.19-0.1c0.02-0.05,0-0.11-0.04-0.15l-0.78-0.46v-0.92
			c0-0.08-0.06-0.15-0.15-0.15c-0.02,0-0.04,0-0.06,0.01H53.73z"/>
		<rect x="51.71" y="157.53" class="st8" width="78.4" height="0.11"/>
		<text transform="matrix(1 0 0 1 51.71 137.35)" class="st25 st5 st26">QuickBooks Enterprise</text>
		<text transform="matrix(1 0 0 1 51.71 144.51)" class="st9 st10 st26">by Intuit</text>
		<text transform="matrix(1 0 0 1 58.54 151.68)" class="st25 st10 st26">United States</text>
		<path class="st24" d="M53.73,177c-0.86-0.01-1.56,0.69-1.57,1.55c0,0,0,0.01,0,0.01c0.2,1.02,0.69,1.96,1.4,2.72
			c0.09,0.09,0.23,0.1,0.32,0.02c0.01,0,0.01-0.01,0.02-0.02c0.71-0.76,1.2-1.7,1.4-2.72c0-0.86-0.7-1.56-1.56-1.56
			C53.74,177,53.73,177,53.73,177z M53.73,179.12c-0.31,0-0.56-0.25-0.56-0.56s0.25-0.56,0.56-0.56c0.31,0,0.56,0.25,0.56,0.56l0,0
			c0.02,0.31-0.22,0.57-0.53,0.59c-0.01,0-0.02,0-0.03,0V179.12z"/>
		<path class="st24" d="M53.73,148.13c-0.87,0-1.57,0.7-1.57,1.57l0,0c0.21,1.02,0.69,1.95,1.4,2.71c0.08,0.09,0.22,0.11,0.31,0.03
			c0.01-0.01,0.02-0.02,0.03-0.03c0.71-0.76,1.19-1.69,1.4-2.71C55.3,148.83,54.6,148.13,53.73,148.13
			C53.73,148.13,53.73,148.13,53.73,148.13z M53.73,150.26c-0.31,0-0.56-0.25-0.56-0.56s0.25-0.56,0.56-0.56
			c0.31,0,0.56,0.25,0.56,0.56l0,0C54.29,150.01,54.04,150.26,53.73,150.26L53.73,150.26z"/>
		<text transform="matrix(1 0 0 1 51.71 166.47)" class="st25 st5 st26">NetSuite</text>
		<text transform="matrix(1 0 0 1 51.71 173.63)" class="st9 st10 st26">by NetSuite</text>
		<text transform="matrix(1 0 0 1 58.32 180.8)" class="st25 st10 st26">United States</text>
		<text transform="matrix(1 0 0 1 58.32 188.19)" class="st25 st10 st26">Founded in 1998</text>
		<path class="st4" d="M56.47,202.43h68.66c2.69,0,4.87,2.18,4.87,4.87v0.12c0,2.69-2.18,4.87-4.87,4.87H56.47
			c-2.69,0-4.87-2.18-4.87-4.87v-0.12C51.6,204.61,53.78,202.43,56.47,202.43z"/>
		<text transform="matrix(1 0 0 1 83.85 208.74)" class="st1 st5 st26">SHARE</text>
		<text transform="matrix(1 0 0 1 51.56 46.05)" class="st25 st5 st27">SUPPORT</text>
		<text transform="matrix(1 0 0 1 59.68 53.3)" class="st25 st10 st26">24/7 Live Rep</text>
		<text transform="matrix(1 0 0 1 59.68 67.42)" class="st25 st10 st26">Business Hours</text>
		<circle class="st28" cx="54.24" cy="65.87" r="2.69"/>
		<path class="st1" d="M54,67.36c-0.06,0-0.12-0.02-0.16-0.06l-1-1.06c-0.1-0.07-0.13-0.21-0.06-0.31c0.07-0.1,0.21-0.13,0.31-0.06
			c0.02,0.02,0.04,0.04,0.06,0.06L54,66.82l1.74-2.06c0.08-0.1,0.21-0.11,0.31-0.04c0.1,0.08,0.11,0.21,0.04,0.31
			c-0.01,0.01-0.01,0.01-0.02,0.02l-1.89,2.24c-0.05,0.04-0.11,0.07-0.17,0.07H54z"/>
		<text transform="matrix(1 0 0 1 59.68 60.3)" class="st25 st10 st26">Online</text>
		<circle class="st28" cx="54.24" cy="58.75" r="2.69"/>
		<path class="st1" d="M54,60.24c-0.06,0-0.12-0.02-0.16-0.07l-1-1.05c-0.08-0.09-0.07-0.23,0.03-0.31c0.08-0.07,0.2-0.07,0.28,0
			L54,59.69l1.74-2c0.06-0.11,0.2-0.14,0.3-0.08s0.14,0.2,0.08,0.3c-0.01,0.02-0.03,0.04-0.05,0.06l-1.89,2.24
			c-0.04,0.05-0.1,0.08-0.17,0.08L54,60.24z"/>
		<circle class="st28" cx="54.24" cy="51.64" r="2.69"/>
		<path class="st1" d="M54,53.14c-0.06,0-0.12-0.03-0.16-0.07L52.8,52c-0.08-0.08-0.08-0.21,0-0.3c0,0,0,0,0,0
			c0.08-0.09,0.21-0.09,0.3-0.01c0,0,0.01,0.01,0.01,0.01l0.85,0.88l1.74-2.05c0.08-0.09,0.21-0.09,0.3-0.01
			c0,0,0.01,0.01,0.01,0.01c0.09,0.09,0.09,0.22,0,0.31l-1.89,2.24c-0.04,0.05-0.11,0.08-0.17,0.08L54,53.14z"/>
		<text transform="matrix(1 0 0 1 51.56 76.72)" class="st25 st5 st27">TRAINING</text>
		<text transform="matrix(1 0 0 1 59.68 83.97)" class="st25 st10 st26">In Person</text>
		<text transform="matrix(1 0 0 1 59.68 91.15)" class="st29 st10 st26">Live Online</text>
		<text transform="matrix(1 0 0 1 59.68 105.66)" class="st25 st10 st26">Webinars</text>
		<circle class="st28" cx="54.24" cy="104.11" r="2.69"/>
		<path class="st1" d="M54,105.6c-0.06,0-0.12-0.03-0.16-0.07l-1-1c-0.08-0.09-0.07-0.23,0.03-0.31c0.08-0.07,0.2-0.07,0.28,0
			L54,105.1l1.74-2c0.08-0.09,0.21-0.09,0.3-0.01c0,0,0.01,0.01,0.01,0.01c0.09,0.09,0.09,0.22,0,0.31l-1.89,2.24
			c-0.04,0.05-0.1,0.08-0.17,0.08L54,105.6z"/>
		<text transform="matrix(1 0 0 1 59.68 98.43)" class="st29 st10 st26">Documentation</text>
		<circle class="st28" cx="54.24" cy="82.19" r="2.69"/>
		<path class="st1" d="M54,83.69c-0.06,0-0.12-0.03-0.16-0.07l-1-1.06c-0.1-0.07-0.13-0.21-0.06-0.31c0.07-0.1,0.21-0.13,0.31-0.06
			c0.02,0.02,0.04,0.04,0.06,0.06L54,83.14l1.74-2c0.08-0.09,0.21-0.09,0.3-0.01c0,0,0.01,0.01,0.01,0.01
			c0.09,0.09,0.09,0.22,0,0.31l-1.89,2.24c-0.04,0.05-0.11,0.08-0.17,0.08L54,83.69z"/>
		<circle class="st20" cx="54.24" cy="96.8" r="2.69"/>
		<path class="st1" d="M53.12,98.15c-0.06-0.01-0.12-0.03-0.16-0.07c-0.08-0.09-0.08-0.23,0-0.32l2.24-2.24
			c0.09-0.08,0.23-0.08,0.32,0c0.09,0.08,0.09,0.22,0.01,0.31c0,0-0.01,0.01-0.01,0.01l-2.24,2.24
			C53.24,98.12,53.18,98.15,53.12,98.15z"/>
		<path class="st1" d="M55.36,98.15c-0.06-0.01-0.12-0.03-0.16-0.07L53,95.84c-0.07-0.1-0.05-0.25,0.06-0.32
			c0.08-0.05,0.18-0.05,0.26,0l2.24,2.24c0.09,0.08,0.09,0.22,0.01,0.31c0,0-0.01,0.01-0.01,0.01
			C55.51,98.13,55.43,98.16,55.36,98.15z"/>
		<circle class="st20" cx="54.24" cy="89.5" r="2.69"/>
		<path class="st1" d="M53.12,90.84c-0.06,0-0.11-0.02-0.16-0.06c-0.08-0.09-0.08-0.23,0-0.32l2.24-2.24
			c0.07-0.1,0.22-0.13,0.32-0.06s0.13,0.22,0.06,0.32c-0.02,0.02-0.04,0.04-0.06,0.06l-2.24,2.24
			C53.24,90.82,53.18,90.84,53.12,90.84z"/>
		<path class="st1" d="M55.36,90.84c-0.06,0-0.11-0.02-0.16-0.06L53,88.54c-0.08-0.09-0.08-0.23,0-0.32
			c0.08-0.09,0.22-0.09,0.31-0.01c0,0,0.01,0.01,0.01,0.01l2.24,2.24c0.09,0.08,0.09,0.22,0.01,0.31c0,0-0.01,0.01-0.01,0.01
			C55.51,90.83,55.43,90.85,55.36,90.84z"/>
	</g>
</g>
<g>
	<circle class="st30" cx="56.86" cy="222.77" r="4.93"/>
	<path class="st4" d="M57.25,223.11h0.56l0.22-0.9h-0.79v-0.45c0-0.23,0-0.45,0.45-0.45h0.34v-0.76c-0.07-0.01-0.35-0.03-0.64-0.03
		c-0.61,0-1.04,0.37-1.04,1.06v0.63h-0.67v0.9h0.67v1.91h0.9V223.11z"/>
</g>
<g>
	<circle class="st30" cx="74.44" cy="222.77" r="4.93"/>
	<path class="st4" d="M73.06,221.02c0,0.28-0.22,0.5-0.5,0.5c-0.28,0-0.5-0.22-0.5-0.5c0-0.28,0.22-0.5,0.5-0.5
		C72.84,220.52,73.06,220.74,73.06,221.02z M73.08,221.89h-1v3.13h1V221.89z M74.66,221.89h-0.99v3.13h0.98v-1.64
		c0-0.91,1.19-1,1.19,0v1.64h0.99v-1.98c0-1.54-1.76-1.48-2.18-0.73L74.66,221.89z"/>
</g>
<g>
	<circle class="st30" cx="91.41" cy="222.77" r="4.93"/>
	<path class="st4" d="M94.18,221.05c-0.21,0.09-0.43,0.15-0.65,0.18c0.24-0.14,0.41-0.37,0.5-0.63c-0.22,0.13-0.47,0.23-0.72,0.28
		c-0.43-0.46-1.15-0.48-1.6-0.05c-0.3,0.28-0.42,0.69-0.33,1.09c-0.91-0.05-1.76-0.48-2.34-1.19c-0.1,0.17-0.15,0.37-0.15,0.57
		c0,0.39,0.2,0.74,0.51,0.95c-0.18-0.01-0.36-0.05-0.51-0.14v0.01c0,0.54,0.38,1.01,0.91,1.11c-0.17,0.05-0.34,0.05-0.51,0.02
		c0.15,0.46,0.57,0.78,1.06,0.79c-0.48,0.37-1.08,0.54-1.68,0.47c0.52,0.33,1.12,0.51,1.74,0.51c2.09,0,3.23-1.73,3.23-3.23
		c0-0.05,0-0.1,0-0.15C93.84,221.48,94.03,221.28,94.18,221.05L94.18,221.05z"/>
</g>
<g>
	<circle class="st30" cx="108.46" cy="222.77" r="4.93"/>
	<path class="st4" d="M110.94,222.41c-0.2-0.36-0.66-0.49-1.02-0.29c-0.38-0.23-0.79-0.37-1.21-0.4l0.16-0.73l0.75,0.16
		c0.03,0.08,0.07,0.15,0.13,0.2c0.19,0.17,0.49,0.16,0.66-0.03s0.16-0.49-0.03-0.66c-0.19-0.17-0.49-0.16-0.66,0.03l-0.75-0.16
		c0,0,0,0,0,0c-0.25-0.05-0.5,0.11-0.56,0.36l-0.18,0.83c-0.44,0.02-0.87,0.15-1.25,0.38c-0.33-0.18-0.73-0.09-0.96,0.21
		c-0.25,0.33-0.18,0.8,0.15,1.05c0,0.01,0,0.03,0,0.04c0,0.92,1.02,1.63,2.27,1.63c1.25,0,2.29-0.71,2.29-1.64c0-0.01,0-0.02,0-0.03
		c0.18-0.14,0.29-0.36,0.28-0.6v0C111.03,222.63,110.99,222.51,110.94,222.41z M107.28,223.05c0-0.19,0.16-0.35,0.35-0.35
		c0.19,0,0.35,0.16,0.35,0.35c0,0.19-0.16,0.35-0.35,0.35C107.43,223.4,107.28,223.24,107.28,223.05z M109.36,223.97
		c-0.16,0.19-0.58,0.27-0.91,0.27s-0.65-0.09-0.91-0.28c-0.03-0.04-0.03-0.1,0.01-0.14c0.04-0.03,0.09-0.03,0.13,0
		c0.22,0.16,0.5,0.23,0.76,0.23c0.27,0,0.55-0.06,0.77-0.22c0.04-0.04,0.11-0.04,0.15,0c0.01,0.01,0.02,0.03,0.03,0.05
		C109.39,223.91,109.38,223.95,109.36,223.97z M109.26,223.4c-0.19,0-0.35-0.16-0.35-0.35c0-0.19,0.16-0.35,0.35-0.35
		c0.19,0,0.35,0.16,0.35,0.35C109.62,223.24,109.46,223.4,109.26,223.4z"/>
</g>
<g>
	<circle class="st30" cx="125.52" cy="222.77" r="4.93"/>
	<path class="st4" d="M127.27,221.01h-3.5c-0.24,0-0.44,0.2-0.44,0.44l0,0v2.63c0,0.24,0.2,0.44,0.44,0.44c0,0,0,0,0,0h3.5
		c0.24,0,0.44-0.2,0.44-0.44l0,0v-2.63C127.71,221.21,127.51,221.01,127.27,221.01C127.27,221.01,127.27,221.01,127.27,221.01z
		 M127.27,221.89l-1.75,1.12l-1.75-1.09v-0.44l1.75,1.1l1.75-1.1V221.89z"/>
</g>
</svg>
