<svg id="Layer_1" data-name="Layer 1" xmlns="http://www.w3.org/2000/svg" viewBox="0 0 1000 300"><defs><style>.cls-1{font-size:50px;}.cls-1,.cls-2{fill:#ff9d00;}.cls-1,.cls-2,.cls-35{font-family:Futura-Bold, Futura;font-weight:700;}.cls-2,.cls-8{font-size:21px;}.cls-3{letter-spacing:0.01em;}.cls-4{letter-spacing:0.01em;}.cls-5{letter-spacing:0.02em;}.cls-6{letter-spacing:0.01em;}.cls-7{letter-spacing:0.01em;}.cls-8{fill:#60606d;font-family:Futura-Medium, Futura;font-weight:500;}.cls-9{letter-spacing:-0.02em;}.cls-10{letter-spacing:-0.01em;}.cls-11{letter-spacing:0.01em;}.cls-12{letter-spacing:0.01em;}.cls-13{letter-spacing:0.02em;}.cls-14{letter-spacing:0.01em;}.cls-15{letter-spacing:0.02em;}.cls-16{letter-spacing:0.01em;}.cls-17{letter-spacing:0em;}.cls-18{letter-spacing:0.03em;}.cls-19{letter-spacing:0.01em;}.cls-20{letter-spacing:-0.04em;}.cls-21{letter-spacing:0.01em;}.cls-22{letter-spacing:-0.02em;}.cls-23{letter-spacing:-0.02em;}.cls-24{letter-spacing:-0.02em;}.cls-25{letter-spacing:0em;}.cls-26{letter-spacing:0em;}.cls-27{letter-spacing:-0.01em;}.cls-28{letter-spacing:0em;}.cls-29{letter-spacing:0.01em;}.cls-30{letter-spacing:-0.02em;}.cls-31{letter-spacing:0.03em;}.cls-32{letter-spacing:0.01em;}.cls-33{letter-spacing:-0.02em;}.cls-34{letter-spacing:0.01em;}.cls-35{font-size:24px;fill:#003;}.cls-36{letter-spacing:-0.04em;}.cls-37{letter-spacing:-0.03em;}.cls-38{letter-spacing:-0.03em;}.cls-39{letter-spacing:0.01em;}.cls-40{letter-spacing:0em;}</style></defs><text class="cls-1" transform="translate(302.33 138.76)">-20%</text><text class="cls-2" transform="translate(260.17 183.76)"><tspan class="cls-3">T</tspan><tspan x="11.53" y="0">ime </tspan><tspan class="cls-4" x="59.49" y="0">t</tspan><tspan x="67.51" y="0">o Co</tspan><tspan class="cls-5" x="118.06" y="0">m</tspan><tspan x="139.27" y="0">pl</tspan><tspan class="cls-6" x="160.4" y="0">e</tspan><tspan class="cls-7" x="174.13" y="0">t</tspan><tspan x="182.26" y="0">ion</tspan></text><text class="cls-8" transform="translate(279.38 217.76)">Users <tspan class="cls-9" x="58.51" y="0">w</tspan><tspan x="74.44" y="0">e</tspan><tspan class="cls-10" x="86.06" y="0">r</tspan><tspan x="93.77" y="0">e able </tspan><tspan class="cls-11" x="160.38" y="0">t</tspan><tspan x="166.27" y="0">o</tspan><tspan class="cls-10" x="-10.73" y="25.2">r</tspan><tspan x="-3.01" y="25.2">ead and unders</tspan><tspan class="cls-12" x="146.99" y="25.2">t</tspan><tspan x="152.92" y="25.2">and</tspan><tspan class="cls-13" x="-13.59" y="50.4">t</tspan><tspan x="-7.42" y="50.4">he co</tspan><tspan class="cls-14" x="44.82" y="50.4">m</tspan><tspan x="61.69" y="50.4">pa</tspan><tspan class="cls-15" x="86.87" y="50.4">r</tspan><tspan x="95.04" y="50.4">ison </tspan><tspan class="cls-15" x="139.41" y="50.4">f</tspan><tspan x="145.96" y="50.4">as</tspan><tspan class="cls-16" x="167.08" y="50.4">t</tspan><tspan class="cls-17" x="173" y="50.4">er</tspan></text><text class="cls-8" transform="translate(26.1 217.76)">Users successful<tspan class="cls-12" x="150.06" y="0">l</tspan><tspan class="cls-17" x="155.47" y="0">y</tspan><tspan class="cls-18" x="15.66" y="25.2">c</tspan><tspan x="26.21" y="25.2">hose </tspan><tspan class="cls-13" x="76.97" y="25.2">t</tspan><tspan x="83.13" y="25.2">he best</tspan><tspan x="-19.14" y="50.4">o</tspan><tspan class="cls-12" x="-6.52" y="50.4">p</tspan><tspan x="6.26" y="50.4">tion </tspan><tspan class="cls-14" x="47.85" y="50.4">f</tspan><tspan x="54.34" y="50.4">or </tspan><tspan class="cls-13" x="81.3" y="50.4">t</tspan><tspan x="87.46" y="50.4">heir needs</tspan></text><text class="cls-2" transform="translate(45.56 183.76)">Co<tspan class="cls-5" x="28.71" y="0">m</tspan><tspan x="49.92" y="0">pl</tspan><tspan class="cls-6" x="71.04" y="0">e</tspan><tspan class="cls-19" x="84.78" y="0">t</tspan><tspan x="92.9" y="0">ion</tspan></text><text class="cls-1" transform="translate(34.22 139.76)"><tspan class="cls-20">1</tspan><tspan x="32" y="0">00%</tspan></text><text class="cls-8" transform="translate(541.89 217.76)"><tspan class="cls-21">N</tspan><tspan x="17.96" y="0">eut</tspan><tspan class="cls-10" x="46.77" y="0">r</tspan><tspan x="54.48" y="0">al i</tspan><tspan class="cls-14" x="84.01" y="0">m</tspan><tspan x="100.88" y="0">pact on</tspan><tspan x="-18.34" y="25.2">co</tspan><tspan class="cls-9" x="4.29" y="25.2">n</tspan><tspan class="cls-22" x="15.48" y="25.2">v</tspan><tspan x="25.68" y="25.2">ersion </tspan><tspan class="cls-10" x="89.52" y="25.2">r</tspan><tspan x="97.23" y="25.2">a</tspan><tspan class="cls-12" x="109.82" y="25.2">t</tspan><tspan x="115.75" y="25.2">e, plans</tspan><tspan class="cls-14" x="-14.02" y="50.4">f</tspan><tspan x="-7.53" y="50.4">or o</tspan><tspan class="cls-12" x="32.05" y="50.4">p</tspan><tspan x="44.82" y="50.4">timization la</tspan><tspan class="cls-12" x="161.05" y="50.4">t</tspan><tspan class="cls-17" x="166.98" y="50.4">er</tspan></text><text class="cls-2" transform="translate(536.79 184.26)">Co<tspan class="cls-23" x="28.71" y="0">n</tspan><tspan class="cls-24" x="42.27" y="0">v</tspan><tspan class="cls-25" x="55.46" y="0">e</tspan><tspan class="cls-26" x="69.05" y="0">r</tspan><tspan x="78.77" y="0">sion </tspan><tspan class="cls-27" x="131.65" y="0">R</tspan><tspan class="cls-28" x="146.28" y="0">a</tspan><tspan class="cls-29" x="161.01" y="0">t</tspan><tspan x="169.05" y="0">e</tspan></text><text class="cls-1" transform="translate(568.79 138.76)">+0%</text><text class="cls-8" transform="translate(812.81 217.76)">Inc<tspan class="cls-10" x="27.72" y="0">r</tspan><tspan x="35.43" y="0">eased da</tspan><tspan class="cls-12" x="124.03" y="0">t</tspan><tspan x="129.96" y="0">a </tspan><tspan x="-12.56" y="25.2">displ</tspan><tspan class="cls-12" x="31.6" y="25.2">a</tspan><tspan class="cls-30" x="44.38" y="25.2">y</tspan><tspan x="55.45" y="25.2">ed wi</tspan><tspan class="cls-13" x="107.63" y="25.2">t</tspan><tspan x="113.79" y="25.2">hout </tspan><tspan x="-29.02" y="50.4">ha</tspan><tspan class="cls-15" x="-4.92" y="50.4">r</tspan><tspan x="3.26" y="50.4">ming pe</tspan><tspan class="cls-31" x="79.87" y="50.4">r</tspan><tspan class="cls-14" x="88.42" y="50.4">f</tspan><tspan x="94.92" y="50.4">o</tspan><tspan class="cls-15" x="107.54" y="50.4">r</tspan><tspan x="115.71" y="50.4">mance</tspan></text><text class="cls-2" transform="translate(829.83 184.26)"><tspan class="cls-32">N</tspan><tspan class="cls-33" x="19.38" y="0">e</tspan><tspan x="32.47" y="0">w Da</tspan><tspan class="cls-34" x="92.36" y="0">t</tspan><tspan x="100.4" y="0">a</tspan></text><text class="cls-1" transform="translate(812.07 138.76)">+<tspan class="cls-20" x="34" y="0">1</tspan><tspan x="66" y="0">0%</tspan></text><text class="cls-35" transform="translate(16.36 46.82)"><tspan class="cls-36">K</tspan><tspan class="cls-37" x="18.12" y="0">e</tspan><tspan x="33" y="0">y Success </tspan><tspan class="cls-38" x="160.87" y="0">M</tspan><tspan class="cls-39" x="185.06" y="0">e</tspan><tspan x="200.76" y="0">t</tspan><tspan class="cls-40" x="209.71" y="0">r</tspan><tspan x="220.89" y="0">ics</tspan></text></svg>