<svg id="Layer_1" data-name="Layer 1" xmlns="http://www.w3.org/2000/svg" viewBox="0 0 1000 300">
  <defs>
    <style>
      .cls-1 {
        fill: #06f;
      }

      .cls-2 {
        fill: #60606d;
      }

      .cls-3 {
        fill: #003;
      }
    </style>
  </defs>
  <g>
    <path class="cls-1" d="M337.5,109.36H324.45l-.65,4.15,1.65-.17c.5,0,1-.08,1.55-.08a14,14,0,0,1,5.3,1,12.81,12.81,0,0,1,4.2,2.75,12.66,12.66,0,0,1,2.75,4.2,14,14,0,0,1,1,5.35,12.85,12.85,0,0,1-1.13,5.5,11.64,11.64,0,0,1-3.17,4.18,14.37,14.37,0,0,1-5,2.65,22.06,22.06,0,0,1-6.55.92,25,25,0,0,1-6.48-.82,20.9,20.9,0,0,1-5.77-2.53l1.45-9.2a20.08,20.08,0,0,0,5.1,3.28,12.44,12.44,0,0,0,4.95,1.12A6.72,6.72,0,0,0,328.4,130a5.27,5.27,0,0,0,1.75-4,5.35,5.35,0,0,0-2.35-4.52,10.16,10.16,0,0,0-6.15-1.73,17.18,17.18,0,0,0-3.5.38,17,17,0,0,0-3.55,1.17l3.15-20.25H337.5Z"/>
    <path class="cls-1" d="M344.5,119.86a26.83,26.83,0,0,1,1.17-8.17,19.22,19.22,0,0,1,3.3-6.28,15,15,0,0,1,5-4,14.79,14.79,0,0,1,18,4,19.18,19.18,0,0,1,3.27,6.28,28.91,28.91,0,0,1,0,16.35,19.38,19.38,0,0,1-3.27,6.3,14.43,14.43,0,0,1-5.05,4,15.43,15.43,0,0,1-12.93,0,14.89,14.89,0,0,1-5-4,19.43,19.43,0,0,1-3.3-6.3A26.89,26.89,0,0,1,344.5,119.86Zm9.7,0a21.19,21.19,0,0,0,.45,4.55,13.54,13.54,0,0,0,1.27,3.55,6.86,6.86,0,0,0,2,2.33,4.35,4.35,0,0,0,2.6.82,4.42,4.42,0,0,0,2.58-.82,6.52,6.52,0,0,0,2-2.33,13.92,13.92,0,0,0,1.25-3.55,23.08,23.08,0,0,0,0-9.07,13.52,13.52,0,0,0-1.25-3.55,6.5,6.5,0,0,0-2-2.3,4.43,4.43,0,0,0-2.58-.83,4.36,4.36,0,0,0-2.6.83,6.84,6.84,0,0,0-2,2.3,13.16,13.16,0,0,0-1.27,3.55A21.31,21.31,0,0,0,354.2,119.86Z"/>
    <path class="cls-1" d="M379.4,109.71a9.18,9.18,0,0,1,.77-3.8,8,8,0,0,1,2.18-2.85,10.23,10.23,0,0,1,3.32-1.77,13.74,13.74,0,0,1,4.28-.63,11.58,11.58,0,0,1,4,.68,9.85,9.85,0,0,1,3.2,1.87,8.37,8.37,0,0,1,2.1,2.88,8.89,8.89,0,0,1,.75,3.67,9.3,9.3,0,0,1-.78,3.88,8.55,8.55,0,0,1-2.15,3,9.2,9.2,0,0,1-3.3,1.87,12.93,12.93,0,0,1-4.22.65,10.52,10.52,0,0,1-7.4-2.52A8.89,8.89,0,0,1,379.4,109.71Zm6.05.1a4.27,4.27,0,0,0,1.2,3,4,4,0,0,0,3.05,1.3,3.75,3.75,0,0,0,1.62-.35,4.42,4.42,0,0,0,1.35-.92,4.28,4.28,0,0,0,.93-1.35,4,4,0,0,0,.35-1.63,4.06,4.06,0,0,0-.35-1.67,4.18,4.18,0,0,0-1-1.35,4.57,4.57,0,0,0-1.38-.9,4,4,0,0,0-1.57-.33,4.17,4.17,0,0,0-3,1.23A4,4,0,0,0,385.45,109.81Zm25.85-8.75h4.85l-21.85,37.7h-4.9Zm-5.7,28.75a9,9,0,0,1,.77-3.77,8.33,8.33,0,0,1,2.15-2.85,9.52,9.52,0,0,1,3.33-1.8,13.91,13.91,0,0,1,4.3-.63,11.87,11.87,0,0,1,4.1.68,9.24,9.24,0,0,1,3.17,1.9,8.76,8.76,0,0,1,2.83,6.52,9.52,9.52,0,0,1-.75,3.83,8.37,8.37,0,0,1-2.13,2.95,9.56,9.56,0,0,1-3.3,1.9,12.8,12.8,0,0,1-4.27.67,12.56,12.56,0,0,1-4.18-.65,9.1,9.1,0,0,1-3.22-1.87,8.3,8.3,0,0,1-2.08-3A10.11,10.11,0,0,1,405.6,129.81Zm6.1.1a4.21,4.21,0,0,0,1.22,3.05,4.25,4.25,0,0,0,6.93-4.67,4.18,4.18,0,0,0-1-1.35,4.39,4.39,0,0,0-1.38-.9,4,4,0,0,0-1.57-.33,4.24,4.24,0,0,0-2.95,1.2A3.9,3.9,0,0,0,411.7,129.91Z"/>
  </g>
  <g>
    <path class="cls-1" d="M303.9,183.76h-4.11V167.93h6.55a5.6,5.6,0,0,1,4.08,1.38,6.09,6.09,0,0,1,0,7.82,5.6,5.6,0,0,1-4.08,1.38H303.9Zm0-8.56h1.37c1.51,0,2.27-.66,2.27-2s-.76-2-2.27-2H303.9Z"/>
    <path class="cls-1" d="M312.93,178.28a5.09,5.09,0,0,1,.49-2.23,5.44,5.44,0,0,1,1.34-1.81,6.5,6.5,0,0,1,2.05-1.21,7.45,7.45,0,0,1,2.59-.44A7.37,7.37,0,0,1,322,173a6.35,6.35,0,0,1,2.06,1.2,5.48,5.48,0,0,1,1.36,1.83,5.56,5.56,0,0,1,.48,2.34,5.48,5.48,0,0,1-.49,2.34,5.58,5.58,0,0,1-1.36,1.83,6,6,0,0,1-2.07,1.18,7.85,7.85,0,0,1-2.61.42,7.51,7.51,0,0,1-2.56-.42,5.88,5.88,0,0,1-2-1.2,5.38,5.38,0,0,1-1.33-1.85A5.74,5.74,0,0,1,312.93,178.28Zm4,0a2.48,2.48,0,0,0,.19,1,2.88,2.88,0,0,0,.53.79,2.22,2.22,0,0,0,.78.52,2.5,2.5,0,0,0,1.91,0,2.18,2.18,0,0,0,.77-.52,2.67,2.67,0,0,0,.53-.79,2.43,2.43,0,0,0,0-1.93,2.67,2.67,0,0,0-.53-.79,2.18,2.18,0,0,0-.77-.52,2.5,2.5,0,0,0-1.91,0,2.22,2.22,0,0,0-.78.52,2.83,2.83,0,0,0-.53.78A2.29,2.29,0,0,0,317,178.32Z"/>
    <path class="cls-1" d="M330.45,173l2.58,5.67,2.69-5.67h2.39l2.69,5.84,2.71-5.84h4.22l-5.63,10.77h-2.54l-2.69-5.9-2.56,5.9h-2.58L326.21,173Z"/>
    <path class="cls-1" d="M352,179c0,1.64.77,2.45,2.31,2.45a2.06,2.06,0,0,0,1.87-1h3.68c-.75,2.46-2.6,3.69-5.57,3.69a7.17,7.17,0,0,1-2.5-.41,5.64,5.64,0,0,1-1.94-1.16,5.2,5.2,0,0,1-1.25-1.81,6.08,6.08,0,0,1-.44-2.35,6.66,6.66,0,0,1,.42-2.43,5,5,0,0,1,1.2-1.83,5.08,5.08,0,0,1,1.88-1.17,7.13,7.13,0,0,1,2.48-.41,7.05,7.05,0,0,1,2.46.41,5,5,0,0,1,1.85,1.19,5.13,5.13,0,0,1,1.15,1.9,7.42,7.42,0,0,1,.4,2.53v.4Zm4.45-2.21a2.25,2.25,0,0,0-.77-1.28,2.21,2.21,0,0,0-1.43-.48,2.16,2.16,0,0,0-1.44.46,2.06,2.06,0,0,0-.7,1.3Z"/>
    <path class="cls-1" d="M362.12,173h3.8v1.76a4.39,4.39,0,0,1,1.49-1.48,4,4,0,0,1,2.06-.51h.32a2.1,2.1,0,0,1,.41,0v3.63a3.62,3.62,0,0,0-1.64-.37,2.45,2.45,0,0,0-2,.78,3.5,3.5,0,0,0-.66,2.3v4.62h-3.8Z"/>
    <path class="cls-1" d="M383.49,167.93v8.61c0,.46,0,.93.06,1.42a3.87,3.87,0,0,0,.31,1.31,2.17,2.17,0,0,0,.83.95,2.89,2.89,0,0,0,1.6.37,2.82,2.82,0,0,0,1.58-.37,2.24,2.24,0,0,0,.83-.95A3.88,3.88,0,0,0,389,178c0-.49.05-1,.05-1.42v-8.61h4.09v9.18q0,3.69-1.69,5.39c-1.12,1.14-2.86,1.7-5.19,1.7s-4.08-.56-5.21-1.7-1.7-2.93-1.7-5.39v-9.18Z"/>
    <path class="cls-1" d="M403.28,175.76a4.49,4.49,0,0,0-2.06-.54,1.53,1.53,0,0,0-.85.21.64.64,0,0,0-.33.56.87.87,0,0,0,0,.31.58.58,0,0,0,.24.22,2,2,0,0,0,.52.19l.91.21a4.39,4.39,0,0,1,2.36,1.12,2.9,2.9,0,0,1,.77,2.07,3.64,3.64,0,0,1-.38,1.7,3.58,3.58,0,0,1-1.05,1.27,5,5,0,0,1-1.61.8,7.22,7.22,0,0,1-2.08.28,8.43,8.43,0,0,1-4.31-1.24l1.39-2.68a5.46,5.46,0,0,0,3,1.09,1.51,1.51,0,0,0,.86-.23.69.69,0,0,0,.34-.59,1.13,1.13,0,0,0-.05-.35.63.63,0,0,0-.22-.25,1.59,1.59,0,0,0-.5-.21c-.21-.06-.5-.13-.85-.2a4.88,4.88,0,0,1-2.46-1.06,2.63,2.63,0,0,1-.71-1.94,3.74,3.74,0,0,1,.34-1.63,3.37,3.37,0,0,1,1-1.23,4.6,4.6,0,0,1,1.53-.78,6.77,6.77,0,0,1,2-.27,9.06,9.06,0,0,1,3.47.69Z"/>
    <path class="cls-1" d="M410.25,179c0,1.64.77,2.45,2.31,2.45a2.07,2.07,0,0,0,1.87-1h3.67c-.74,2.46-2.6,3.69-5.56,3.69a7.13,7.13,0,0,1-2.5-.41,5.59,5.59,0,0,1-2-1.16,5.31,5.31,0,0,1-1.24-1.81,5.9,5.9,0,0,1-.45-2.35,6.66,6.66,0,0,1,.42-2.43,5,5,0,0,1,1.2-1.83A5.25,5.25,0,0,1,409.9,173a7.18,7.18,0,0,1,2.49-.41,7.05,7.05,0,0,1,2.46.41,4.92,4.92,0,0,1,1.84,1.19,5.15,5.15,0,0,1,1.16,1.9,7.42,7.42,0,0,1,.4,2.53v.4Zm4.45-2.21a2.32,2.32,0,0,0-.78-1.28,2.19,2.19,0,0,0-1.43-.48,2.15,2.15,0,0,0-1.43.46,2.11,2.11,0,0,0-.71,1.3Z"/>
    <path class="cls-1" d="M420.41,173h3.8v1.76a4.57,4.57,0,0,1,1.49-1.48,4.06,4.06,0,0,1,2.06-.51h.33a2.17,2.17,0,0,1,.41,0v3.63a3.65,3.65,0,0,0-1.64-.37,2.47,2.47,0,0,0-2,.78,3.5,3.5,0,0,0-.66,2.3v4.62h-3.8Z"/>
    <path class="cls-1" d="M437.27,175.76a4.46,4.46,0,0,0-2.06-.54,1.52,1.52,0,0,0-.84.21.64.64,0,0,0-.33.56.87.87,0,0,0,0,.31.61.61,0,0,0,.23.22,2.24,2.24,0,0,0,.53.19l.91.21a4.32,4.32,0,0,1,2.35,1.12,2.86,2.86,0,0,1,.78,2.07,3.76,3.76,0,0,1-.38,1.7,3.58,3.58,0,0,1-1.05,1.27,5.16,5.16,0,0,1-1.61.8,7.27,7.27,0,0,1-2.08.28,8.43,8.43,0,0,1-4.31-1.24l1.39-2.68a5.46,5.46,0,0,0,3,1.09,1.51,1.51,0,0,0,.86-.23.69.69,0,0,0,.34-.59,1.13,1.13,0,0,0-.05-.35.63.63,0,0,0-.22-.25,1.7,1.7,0,0,0-.5-.21c-.21-.06-.5-.13-.85-.2a4.92,4.92,0,0,1-2.47-1.06,2.66,2.66,0,0,1-.7-1.94,3.74,3.74,0,0,1,.34-1.63,3.37,3.37,0,0,1,1-1.23,4.6,4.6,0,0,1,1.53-.78,6.77,6.77,0,0,1,2-.27,9,9,0,0,1,3.46.69Z"/>
  </g>
  <g>
    <path class="cls-2" d="M257.88,204.18v13.58h-2.39V204.18h-3.64v-2.25h9.66v2.25Z"/>
    <path class="cls-2" d="M271.43,213.31h-7.15a3,3,0,0,0,.8,2,2.66,2.66,0,0,0,3.24.31,5.92,5.92,0,0,0,1.26-1.52l1.95,1.09a8.33,8.33,0,0,1-1,1.32,5.28,5.28,0,0,1-1.07.9,4.59,4.59,0,0,1-1.25.52,5.94,5.94,0,0,1-1.44.16,4.72,4.72,0,0,1-3.59-1.43,5.42,5.42,0,0,1-1.35-3.84,5.48,5.48,0,0,1,1.31-3.83,5,5,0,0,1,7,0,5.52,5.52,0,0,1,1.27,3.87Zm-2.37-1.88a2.21,2.21,0,0,0-2.32-1.85,2.26,2.26,0,0,0-.79.13,2.09,2.09,0,0,0-.67.37,2.06,2.06,0,0,0-.52.58,2.33,2.33,0,0,0-.33.77Z"/>
    <path class="cls-2" d="M281.32,207.78h2.31v10h-2.31v-1a4.43,4.43,0,0,1-6.49-.17,5.53,5.53,0,0,1-1.35-3.81,5.35,5.35,0,0,1,1.35-3.74,4.33,4.33,0,0,1,6.49-.07Zm-5.48,5a3.51,3.51,0,0,0,.77,2.34,2.52,2.52,0,0,0,2,.91,2.62,2.62,0,0,0,2.07-.88,3.8,3.8,0,0,0,0-4.64,2.61,2.61,0,0,0-2.05-.89,2.57,2.57,0,0,0-2,.9A3.36,3.36,0,0,0,275.84,212.74Z"/>
    <path class="cls-2" d="M286.55,207.78h2.3v.92a4.76,4.76,0,0,1,1.14-.94,2.67,2.67,0,0,1,1.26-.26,3.06,3.06,0,0,1,2.68,1.48,3.45,3.45,0,0,1,2.94-1.48q3.38,0,3.38,4.09v6.17h-2.32v-5.54a4.28,4.28,0,0,0-.35-2,1.25,1.25,0,0,0-1.18-.61,1.51,1.51,0,0,0-1.39.72,4.65,4.65,0,0,0-.43,2.31v5.15h-2.32v-5.51c0-1.78-.51-2.67-1.54-2.67a1.54,1.54,0,0,0-1.42.73,4.5,4.5,0,0,0-.45,2.3v5.15h-2.3Z"/>
    <path class="cls-2" d="M309,209.48l-1.91,1c-.3-.61-.67-.92-1.11-.92a.79.79,0,0,0-.55.21.7.7,0,0,0-.22.54c0,.38.44.76,1.33,1.14a7.91,7.91,0,0,1,2.47,1.45,2.49,2.49,0,0,1,.64,1.8,3.16,3.16,0,0,1-1.07,2.42,3.83,3.83,0,0,1-6.06-1.53l2-.91a3.85,3.85,0,0,0,.63.91,1.41,1.41,0,0,0,1,.39c.78,0,1.17-.36,1.17-1.07,0-.41-.3-.79-.9-1.15l-.7-.33-.71-.34a4.26,4.26,0,0,1-1.41-1,2.4,2.4,0,0,1-.53-1.61,2.83,2.83,0,0,1,.9-2.15,3.09,3.09,0,0,1,2.21-.85A3,3,0,0,1,309,209.48Z"/>
    <path class="cls-2" d="M319.41,207.78l2.62,5.7,2.82-6.62,2.84,6.62,2.58-5.7h2.58l-5.23,10.73-2.77-6.43L322,218.51l-5.22-10.73Z"/>
    <path class="cls-2" d="M334.41,200.44h2.31v8.17a4,4,0,0,1,2.72-1.11,3.5,3.5,0,0,1,2.7,1.1,4.42,4.42,0,0,1,.86,3v6.12h-2.3v-5.9a2.78,2.78,0,0,0-.43-1.74,1.63,1.63,0,0,0-1.37-.54,1.89,1.89,0,0,0-1.7.75,5.12,5.12,0,0,0-.48,2.6v4.83h-2.31Z"/>
    <path class="cls-2" d="M345.46,212.7A5,5,0,0,1,347,209a5.46,5.46,0,0,1,7.57,0,5.34,5.34,0,0,1,0,7.51,5.27,5.27,0,0,1-3.82,1.51,5.08,5.08,0,0,1-3.77-1.54A5.16,5.16,0,0,1,345.46,212.7Zm2.35,0a3.38,3.38,0,0,0,.8,2.37,3.12,3.12,0,0,0,4.33,0,3.76,3.76,0,0,0,0-4.66,3.08,3.08,0,0,0-4.31,0A3.25,3.25,0,0,0,347.81,212.74Z"/>
    <path class="cls-2" d="M364.68,203.62a1.51,1.51,0,0,1,3,0,1.46,1.46,0,0,1-.44,1.07,1.44,1.44,0,0,1-1.06.44,1.5,1.5,0,0,1-1.51-1.52Zm2.66,4.16v10H365v-10Z"/>
    <path class="cls-2" d="M370.26,207.78h2.32v.92a3.76,3.76,0,0,1,2.72-1.2,3.45,3.45,0,0,1,2.72,1.1,4.47,4.47,0,0,1,.84,3v6.12h-2.31v-5.57a3.72,3.72,0,0,0-.41-2.05,1.68,1.68,0,0,0-1.46-.57,1.77,1.77,0,0,0-1.63.76,5.16,5.16,0,0,0-.47,2.61v4.82h-2.32Z"/>
    <path class="cls-2" d="M384.15,209.93v7.83h-2.3v-7.83h-1v-2.15h1v-3.66h2.3v3.66H386v2.15Z"/>
    <path class="cls-2" d="M396.8,213.31h-7.16a3,3,0,0,0,.8,2,2.43,2.43,0,0,0,1.81.72,2.4,2.4,0,0,0,1.43-.41,5.72,5.72,0,0,0,1.26-1.52l1.95,1.09a8.31,8.31,0,0,1-.95,1.32,5.61,5.61,0,0,1-1.08.9,4.53,4.53,0,0,1-1.24.52,6.08,6.08,0,0,1-1.45.16,4.74,4.74,0,0,1-3.59-1.43,5.42,5.42,0,0,1-1.35-3.84,5.53,5.53,0,0,1,1.31-3.83,5,5,0,0,1,7,0,5.57,5.57,0,0,1,1.27,3.87Zm-2.37-1.88a2.22,2.22,0,0,0-2.33-1.85,2.3,2.3,0,0,0-.79.13,2.2,2.2,0,0,0-.67.37,2.42,2.42,0,0,0-.52.58,2.84,2.84,0,0,0-.33.77Z"/>
    <path class="cls-2" d="M399.32,207.78h2.31v.89a4.24,4.24,0,0,1,1.12-.91,2.51,2.51,0,0,1,1.19-.26,3.78,3.78,0,0,1,1.91.59l-1.06,2.12a2.15,2.15,0,0,0-1.28-.48c-1.25,0-1.88,1-1.88,2.85v5.18h-2.31Z"/>
    <path class="cls-2" d="M414.39,207.78h2.32v10h-2.32v-1a4.43,4.43,0,0,1-6.49-.17,5.57,5.57,0,0,1-1.34-3.81A5.39,5.39,0,0,1,407.9,209a4.34,4.34,0,0,1,3.37-1.5,4.25,4.25,0,0,1,3.12,1.43Zm-5.47,5a3.46,3.46,0,0,0,.77,2.34,2.5,2.5,0,0,0,2,.91,2.65,2.65,0,0,0,2.07-.88,3.8,3.8,0,0,0,0-4.64,2.63,2.63,0,0,0-2.05-.89,2.54,2.54,0,0,0-2,.9A3.31,3.31,0,0,0,408.92,212.74Z"/>
    <path class="cls-2" d="M427.39,208.21v3.06A5.5,5.5,0,0,0,426,210a2.72,2.72,0,0,0-1.45-.37,2.84,2.84,0,0,0-2.16.91,3.22,3.22,0,0,0-.86,2.29,3.29,3.29,0,0,0,.83,2.31,2.79,2.79,0,0,0,2.14.9,2.91,2.91,0,0,0,1.47-.36,5.67,5.67,0,0,0,1.44-1.35v3a6,6,0,0,1-2.81.73,5.37,5.37,0,0,1-3.87-1.5,5,5,0,0,1-1.56-3.74,5.06,5.06,0,0,1,1.58-3.77,5.32,5.32,0,0,1,3.88-1.54A5.67,5.67,0,0,1,427.39,208.21Z"/>
    <path class="cls-2" d="M432,209.93v7.83H429.7v-7.83h-1v-2.15h1v-3.66H432v3.66h1.79v2.15Z"/>
    <path class="cls-2" d="M443.1,207.78l2.62,5.7,2.82-6.62,2.84,6.62,2.58-5.7h2.59l-5.23,10.73-2.78-6.43-2.81,6.43-5.22-10.73Z"/>
    <path class="cls-2" d="M457.76,203.62a1.5,1.5,0,0,1,1.49-1.48,1.5,1.5,0,0,1,1.51,1.49,1.46,1.46,0,0,1-.44,1.07,1.44,1.44,0,0,1-1.06.44,1.46,1.46,0,0,1-1.06-.44A1.43,1.43,0,0,1,457.76,203.62Zm2.65,4.16v10H458.1v-10Z"/>
    <path class="cls-2" d="M465.71,209.93v7.83h-2.3v-7.83h-1v-2.15h1v-3.66h2.3v3.66h1.8v2.15Z"/>
    <path class="cls-2" d="M469.5,200.44h2.3v8.17a4,4,0,0,1,2.72-1.11,3.53,3.53,0,0,1,2.71,1.1,4.47,4.47,0,0,1,.86,3v6.12h-2.31v-5.9a2.85,2.85,0,0,0-.42-1.74,1.65,1.65,0,0,0-1.37-.54,1.86,1.86,0,0,0-1.7.75,5,5,0,0,0-.49,2.6v4.83h-2.3Z"/>
    <path class="cls-2" d="M256.13,234.68l-1.9,1c-.3-.61-.68-.92-1.12-.92a.76.76,0,0,0-.54.21.71.71,0,0,0-.23.54c0,.38.44.76,1.33,1.14a7.79,7.79,0,0,1,2.47,1.45,2.49,2.49,0,0,1,.64,1.8,3.16,3.16,0,0,1-1.07,2.42,3.83,3.83,0,0,1-6.06-1.53l2-.91a4.18,4.18,0,0,0,.63.91,1.41,1.41,0,0,0,1,.39c.78,0,1.17-.36,1.17-1.07,0-.41-.3-.79-.9-1.15l-.7-.33-.71-.34a4.26,4.26,0,0,1-1.41-1,2.4,2.4,0,0,1-.52-1.61,2.84,2.84,0,0,1,.89-2.15,3.12,3.12,0,0,1,2.21-.85A3,3,0,0,1,256.13,234.68Z"/>
    <path class="cls-2" d="M258.85,225.64h2.31v8.17a4,4,0,0,1,2.72-1.11,3.47,3.47,0,0,1,2.7,1.1,4.42,4.42,0,0,1,.86,3V243h-2.3v-5.9a2.78,2.78,0,0,0-.43-1.74,1.63,1.63,0,0,0-1.37-.54,1.89,1.89,0,0,0-1.7.75,5.14,5.14,0,0,0-.48,2.6V243h-2.31Z"/>
    <path class="cls-2" d="M277.73,233h2.32v10h-2.32v-1a4.43,4.43,0,0,1-6.49-.17,5.55,5.55,0,0,1-1.35-3.81,5.35,5.35,0,0,1,1.35-3.74,4.33,4.33,0,0,1,6.49-.07Zm-5.48,5a3.49,3.49,0,0,0,.77,2.34,2.55,2.55,0,0,0,2,.91,2.62,2.62,0,0,0,2.07-.88,3.8,3.8,0,0,0,0-4.64,2.61,2.61,0,0,0-2.05-.89,2.57,2.57,0,0,0-2,.9A3.36,3.36,0,0,0,272.25,237.94Z"/>
    <path class="cls-2" d="M283,233h2.31v.89a4.24,4.24,0,0,1,1.12-.91,2.61,2.61,0,0,1,1.19-.26,3.78,3.78,0,0,1,1.91.59l-1.06,2.12a2.15,2.15,0,0,0-1.28-.48c-1.26,0-1.88.95-1.88,2.86V243H283Z"/>
    <path class="cls-2" d="M290.78,228.82a1.51,1.51,0,0,1,3,0,1.46,1.46,0,0,1-.44,1.07,1.44,1.44,0,0,1-1.06.44,1.5,1.5,0,0,1-1.51-1.52Zm2.66,4.16v10h-2.31V233Z"/>
    <path class="cls-2" d="M296.36,233h2.32v.92a3.76,3.76,0,0,1,2.73-1.2,3.41,3.41,0,0,1,2.71,1.1,4.47,4.47,0,0,1,.84,3V243h-2.31v-5.58a3.71,3.71,0,0,0-.41-2,1.68,1.68,0,0,0-1.46-.57,1.77,1.77,0,0,0-1.63.76,5.16,5.16,0,0,0-.47,2.61V243h-2.32Z"/>
    <path class="cls-2" d="M317.53,242.73c0,.47,0,.89,0,1.24a7.29,7.29,0,0,1-.13.95,4.18,4.18,0,0,1-1,1.94,4.7,4.7,0,0,1-3.73,1.56,5,5,0,0,1-3.29-1.08,4.41,4.41,0,0,1-1.54-3.06h2.32a2.64,2.64,0,0,0,.44,1.13,2.47,2.47,0,0,0,2.09.94c1.69,0,2.54-1,2.54-3.11v-1.39a4.35,4.35,0,0,1-3.17,1.4,4.22,4.22,0,0,1-3.34-1.48A5.43,5.43,0,0,1,307.4,238a5.79,5.79,0,0,1,1.22-3.71,4.25,4.25,0,0,1,3.47-1.62,4.05,4.05,0,0,1,3.14,1.4V233h2.3ZM315.32,238a3.37,3.37,0,0,0-.78-2.33,2.6,2.6,0,0,0-2-.89,2.52,2.52,0,0,0-2.07,1,3.56,3.56,0,0,0-.69,2.26,3.52,3.52,0,0,0,.69,2.24,2.5,2.5,0,0,0,2.07.95,2.53,2.53,0,0,0,2.09-1A3.47,3.47,0,0,0,315.32,238Z"/>
    <path class="cls-2" d="M329.32,235.13V243H327v-7.83h-.82V233H327v-3.86a4.12,4.12,0,0,1,.66-2.66,3.19,3.19,0,0,1,2.62-1.09,4.5,4.5,0,0,1,1.55.36v2.35l-.24-.12a3,3,0,0,0-1.23-.38.84.84,0,0,0-.83.44,4.35,4.35,0,0,0-.21,1.66V233h2.51v2.15Z"/>
    <path class="cls-2" d="M335.47,233v5.73c0,1.65.65,2.48,2,2.48s2-.83,2-2.48V233h2.3v5.78a6.67,6.67,0,0,1-.29,2.07,3.53,3.53,0,0,1-1,1.4,4.83,4.83,0,0,1-5.94,0,3.56,3.56,0,0,1-1-1.4,5.69,5.69,0,0,1-.29-2.07V233Z"/>
    <path class="cls-2" d="M346.91,225.64V243H344.6V225.64Z"/>
    <path class="cls-2" d="M352.14,225.64V243h-2.31V225.64Z"/>
    <path class="cls-2" d="M358.4,241.11,353.91,233h2.67l3.06,5.74,2.85-5.74h2.6l-8,15.42H354.5Z"/>
    <path class="cls-2" d="M372.79,228.82a1.51,1.51,0,0,1,3,0,1.46,1.46,0,0,1-.44,1.07,1.44,1.44,0,0,1-1.06.44,1.5,1.5,0,0,1-1.51-1.52Zm2.66,4.16v10h-2.31V233Z"/>
    <path class="cls-2" d="M378.37,233h2.32v.92a3.78,3.78,0,0,1,2.73-1.2,3.41,3.41,0,0,1,2.71,1.1,4.47,4.47,0,0,1,.84,3V243h-2.31v-5.58a3.71,3.71,0,0,0-.41-2,1.68,1.68,0,0,0-1.46-.57,1.77,1.77,0,0,0-1.63.76,5.27,5.27,0,0,0-.47,2.61V243h-2.32Z"/>
    <path class="cls-2" d="M397.66,233.41v3.06a5.68,5.68,0,0,0-1.42-1.32,2.71,2.71,0,0,0-1.44-.37,2.86,2.86,0,0,0-2.17.91,3.22,3.22,0,0,0-.86,2.29,3.29,3.29,0,0,0,.83,2.31,2.82,2.82,0,0,0,2.15.9,2.9,2.9,0,0,0,1.46-.36,5.85,5.85,0,0,0,1.45-1.35v3a6,6,0,0,1-2.81.73,5.37,5.37,0,0,1-3.88-1.5,5,5,0,0,1-1.56-3.74,5.06,5.06,0,0,1,1.58-3.77,5.35,5.35,0,0,1,3.88-1.54A5.84,5.84,0,0,1,397.66,233.41Z"/>
    <path class="cls-2" d="M399.42,237.9a5,5,0,0,1,1.55-3.68,5.46,5.46,0,0,1,7.57,0,5.11,5.11,0,0,1,1.54,3.75,5.05,5.05,0,0,1-1.55,3.76,5.29,5.29,0,0,1-3.83,1.51,5.06,5.06,0,0,1-3.76-1.54A5.17,5.17,0,0,1,399.42,237.9Zm2.36,0a3.38,3.38,0,0,0,.8,2.37,3.12,3.12,0,0,0,4.33,0,3.76,3.76,0,0,0,0-4.66,2.82,2.82,0,0,0-2.17-.88,2.78,2.78,0,0,0-2.14.88A3.21,3.21,0,0,0,401.78,237.94Z"/>
    <path class="cls-2" d="M412.52,233h2.3v.89A4.26,4.26,0,0,1,416,233a2.61,2.61,0,0,1,1.19-.26,3.8,3.8,0,0,1,1.91.59L418,235.41a2.17,2.17,0,0,0-1.28-.48c-1.26,0-1.89.95-1.89,2.86V243h-2.3Z"/>
    <path class="cls-2" d="M423,248.4h-2.31V233H423v1.08a4.26,4.26,0,0,1,3.09-1.36,4.33,4.33,0,0,1,3.4,1.52,5.47,5.47,0,0,1,1.35,3.8,5.39,5.39,0,0,1-1.34,3.74,4.38,4.38,0,0,1-6.5.09ZM428.48,238a3.44,3.44,0,0,0-.78-2.34,2.5,2.5,0,0,0-2-.91,2.64,2.64,0,0,0-2.06.88,3.38,3.38,0,0,0-.79,2.32,3.45,3.45,0,0,0,.79,2.32,2.61,2.61,0,0,0,2.05.89,2.51,2.51,0,0,0,2-.9A3.3,3.3,0,0,0,428.48,238Z"/>
    <path class="cls-2" d="M432.81,237.9a5,5,0,0,1,1.55-3.68,5.45,5.45,0,0,1,7.56,0,5.07,5.07,0,0,1,1.54,3.75,5,5,0,0,1-1.55,3.76,5.25,5.25,0,0,1-3.82,1.51,5,5,0,0,1-3.76-1.54A5.13,5.13,0,0,1,432.81,237.9Zm2.36,0a3.34,3.34,0,0,0,.8,2.37,3.1,3.1,0,0,0,4.32,0,3.76,3.76,0,0,0,0-4.66,3.07,3.07,0,0,0-4.3,0A3.21,3.21,0,0,0,435.17,237.94Z"/>
    <path class="cls-2" d="M445.9,233h2.31v.89a4.1,4.1,0,0,1,1.13-.91,2.58,2.58,0,0,1,1.19-.26,3.8,3.8,0,0,1,1.91.59l-1.06,2.12a2.2,2.2,0,0,0-1.28-.48c-1.26,0-1.89.95-1.89,2.86V243H445.9Z"/>
    <path class="cls-2" d="M461,233h2.31v10H461v-1a4.43,4.43,0,0,1-6.49-.17,5.55,5.55,0,0,1-1.35-3.81,5.35,5.35,0,0,1,1.35-3.74,4.33,4.33,0,0,1,6.49-.07Zm-5.48,5a3.49,3.49,0,0,0,.77,2.34,2.55,2.55,0,0,0,2,.91,2.65,2.65,0,0,0,2.07-.88,3.8,3.8,0,0,0,0-4.64,2.63,2.63,0,0,0-2.05-.89,2.55,2.55,0,0,0-2,.9A3.31,3.31,0,0,0,455.5,237.94Z"/>
    <path class="cls-2" d="M468.58,235.13V243h-2.3v-7.83h-1V233h1v-3.66h2.3V233h1.8v2.15Z"/>
    <path class="cls-2" d="M481.23,238.51h-7.16a3,3,0,0,0,.8,2,2.43,2.43,0,0,0,1.81.72,2.4,2.4,0,0,0,1.43-.41,5.72,5.72,0,0,0,1.26-1.52l1.95,1.09a8.31,8.31,0,0,1-.95,1.32,5.61,5.61,0,0,1-1.08.9,4.53,4.53,0,0,1-1.24.52,6.08,6.08,0,0,1-1.45.16,4.71,4.71,0,0,1-3.59-1.44,5.38,5.38,0,0,1-1.35-3.83,5.57,5.57,0,0,1,1.31-3.84,5,5,0,0,1,7,0,5.57,5.57,0,0,1,1.27,3.87Zm-2.37-1.88a2.22,2.22,0,0,0-2.33-1.85,2.3,2.3,0,0,0-.79.13,2.2,2.2,0,0,0-.67.37,2.42,2.42,0,0,0-.52.58,2.84,2.84,0,0,0-.33.77Z"/>
    <path class="cls-2" d="M247.2,260.33v7.83h-2.3v-7.83h-1v-2.15h1v-3.66h2.3v3.66H249v2.15Z"/>
    <path class="cls-2" d="M251,250.85h2.3V259A4,4,0,0,1,256,257.9a3.53,3.53,0,0,1,2.71,1.1,4.47,4.47,0,0,1,.86,3v6.12h-2.31v-5.9a2.85,2.85,0,0,0-.42-1.74,1.65,1.65,0,0,0-1.37-.54,1.86,1.86,0,0,0-1.7.75,5,5,0,0,0-.49,2.6v4.83H251Z"/>
    <path class="cls-2" d="M271.6,263.71h-7.16a3,3,0,0,0,.8,2,2.43,2.43,0,0,0,1.81.72,2.4,2.4,0,0,0,1.43-.41,5.72,5.72,0,0,0,1.26-1.52l1.95,1.09a8.31,8.31,0,0,1-.95,1.32,5.61,5.61,0,0,1-1.08.9,4.53,4.53,0,0,1-1.24.52,6.08,6.08,0,0,1-1.45.16,4.74,4.74,0,0,1-3.59-1.43,5.42,5.42,0,0,1-1.35-3.84,5.53,5.53,0,0,1,1.31-3.83,5,5,0,0,1,7-.05,5.57,5.57,0,0,1,1.27,3.87Zm-2.37-1.88A2.22,2.22,0,0,0,266.9,260a2.3,2.3,0,0,0-.79.13,2.31,2.31,0,0,0-1.19.95,2.84,2.84,0,0,0-.33.77Z"/>
    <path class="cls-2" d="M279.92,259.88l-1.9,1c-.31-.61-.68-.92-1.12-.92a.79.79,0,0,0-.55.21.7.7,0,0,0-.22.54c0,.38.44.76,1.33,1.14a7.79,7.79,0,0,1,2.47,1.45,2.49,2.49,0,0,1,.64,1.8,3.16,3.16,0,0,1-1.07,2.42,3.83,3.83,0,0,1-6.06-1.53l2-.91a3.85,3.85,0,0,0,.63.91,1.41,1.41,0,0,0,1,.39c.78,0,1.17-.35,1.17-1.07q0-.61-.9-1.14l-.7-.34-.71-.34a4.26,4.26,0,0,1-1.41-1,2.4,2.4,0,0,1-.52-1.61,2.84,2.84,0,0,1,.89-2.15,3.11,3.11,0,0,1,2.21-.85A3,3,0,0,1,279.92,259.88Z"/>
    <path class="cls-2" d="M291.74,263.71h-7.16a3,3,0,0,0,.8,2,2.43,2.43,0,0,0,1.81.72,2.4,2.4,0,0,0,1.43-.41,5.72,5.72,0,0,0,1.26-1.52l1.95,1.09a7.75,7.75,0,0,1-1,1.32,5.28,5.28,0,0,1-1.07.9,4.53,4.53,0,0,1-1.24.52,6.08,6.08,0,0,1-1.45.16,4.72,4.72,0,0,1-3.59-1.43,5.42,5.42,0,0,1-1.35-3.84,5.53,5.53,0,0,1,1.31-3.83,5,5,0,0,1,7-.05,5.53,5.53,0,0,1,1.28,3.87Zm-2.37-1.88A2.22,2.22,0,0,0,287,260a2.3,2.3,0,0,0-1.46.5,2.23,2.23,0,0,0-.52.58,2.84,2.84,0,0,0-.33.77Z"/>
    <path class="cls-2" d="M303.12,260.33v7.83h-2.31v-7.83h-1v-2.15h1v-3.66h2.31v3.66h1.79v2.15Z"/>
    <path class="cls-2" d="M306.15,263.1a5,5,0,0,1,1.55-3.68,5.46,5.46,0,0,1,7.57,0,5.11,5.11,0,0,1,1.54,3.75,5.05,5.05,0,0,1-1.55,3.76,5.29,5.29,0,0,1-3.83,1.51,5.06,5.06,0,0,1-3.76-1.54A5.17,5.17,0,0,1,306.15,263.1Zm2.36,0a3.38,3.38,0,0,0,.8,2.37,3.12,3.12,0,0,0,4.33,0,3.76,3.76,0,0,0,0-4.66,2.85,2.85,0,0,0-2.17-.88,2.82,2.82,0,0,0-2.14.88A3.21,3.21,0,0,0,308.51,263.14Z"/>
    <path class="cls-2" d="M318.78,263.1a5,5,0,0,1,1.54-3.68,5.46,5.46,0,0,1,7.57,0,5.34,5.34,0,0,1,0,7.51,5.27,5.27,0,0,1-3.82,1.51,5.07,5.07,0,0,1-3.77-1.54A5.16,5.16,0,0,1,318.78,263.1Zm2.35,0a3.38,3.38,0,0,0,.8,2.37,3.12,3.12,0,0,0,4.33,0,3.76,3.76,0,0,0,0-4.66,3.08,3.08,0,0,0-4.31,0A3.25,3.25,0,0,0,321.13,263.14Z"/>
    <path class="cls-2" d="M334.18,250.85v17.31h-2.31V250.85Z"/>
    <path class="cls-2" d="M342.9,259.88l-1.9,1c-.31-.61-.68-.92-1.12-.92a.79.79,0,0,0-.55.21.7.7,0,0,0-.22.54c0,.38.44.76,1.33,1.14a7.79,7.79,0,0,1,2.47,1.45,2.49,2.49,0,0,1,.64,1.8,3.16,3.16,0,0,1-1.07,2.42,3.83,3.83,0,0,1-6.06-1.53l2-.91a3.85,3.85,0,0,0,.63.91,1.41,1.41,0,0,0,1,.39c.78,0,1.17-.35,1.17-1.07q0-.61-.9-1.14l-.7-.34-.71-.34a4.26,4.26,0,0,1-1.41-1,2.4,2.4,0,0,1-.52-1.61,2.84,2.84,0,0,1,.89-2.15,3.11,3.11,0,0,1,2.21-.85A3,3,0,0,1,342.9,259.88Z"/>
    <path class="cls-2" d="M351.75,254a1.51,1.51,0,0,1,3,0,1.46,1.46,0,0,1-.44,1.07,1.44,1.44,0,0,1-1.06.44,1.5,1.5,0,0,1-1.51-1.52Zm2.66,4.16v10H352.1v-10Z"/>
    <path class="cls-2" d="M357.33,258.18h2.32v.92a3.76,3.76,0,0,1,2.73-1.2,3.44,3.44,0,0,1,2.71,1.1,4.47,4.47,0,0,1,.84,3v6.12h-2.31v-5.57a3.72,3.72,0,0,0-.41-2,1.68,1.68,0,0,0-1.46-.57,1.77,1.77,0,0,0-1.63.76,5.16,5.16,0,0,0-.47,2.61v4.82h-2.32Z"/>
    <path class="cls-2" d="M377.7,260.33v7.83h-2.3v-7.83h-1v-2.15h1v-3.66h2.3v3.66h1.8v2.15Z"/>
    <path class="cls-2" d="M381.49,250.85h2.3V259a4,4,0,0,1,2.72-1.11,3.53,3.53,0,0,1,2.71,1.1,4.47,4.47,0,0,1,.86,3v6.12h-2.31v-5.9a2.85,2.85,0,0,0-.42-1.74A1.65,1.65,0,0,0,386,260a1.88,1.88,0,0,0-1.7.75,5.12,5.12,0,0,0-.49,2.6v4.83h-2.3Z"/>
    <path class="cls-2" d="M402.1,263.71h-7.16a3,3,0,0,0,.8,2,2.44,2.44,0,0,0,1.82.72A2.36,2.36,0,0,0,399,266a5.72,5.72,0,0,0,1.26-1.52l1.95,1.09a8.31,8.31,0,0,1-.95,1.32,5.61,5.61,0,0,1-1.08.9,4.53,4.53,0,0,1-1.24.52,6,6,0,0,1-1.45.16,4.74,4.74,0,0,1-3.59-1.43,5.42,5.42,0,0,1-1.35-3.84,5.53,5.53,0,0,1,1.31-3.83,5,5,0,0,1,7-.05,5.57,5.57,0,0,1,1.27,3.87Zm-2.37-1.88A2.22,2.22,0,0,0,397.4,260a2.3,2.3,0,0,0-.79.13,2.31,2.31,0,0,0-1.19.95,2.84,2.84,0,0,0-.33.77Z"/>
    <path class="cls-2" d="M404.27,254a1.51,1.51,0,0,1,3,0,1.46,1.46,0,0,1-.44,1.07,1.44,1.44,0,0,1-1.06.44,1.5,1.5,0,0,1-1.51-1.52Zm2.66,4.16v10h-2.31v-10Z"/>
    <path class="cls-2" d="M409.85,258.18h2.31v.89a4.1,4.1,0,0,1,1.13-.91,2.45,2.45,0,0,1,1.18-.26,3.78,3.78,0,0,1,1.91.59l-1.05,2.12a2.2,2.2,0,0,0-1.29-.48c-1.25,0-1.88,1-1.88,2.86v5.17h-2.31Z"/>
    <path class="cls-2" d="M426.49,273.6h-2.3V258.18h2.3v1.08a4.26,4.26,0,0,1,3.1-1.36,4.32,4.32,0,0,1,3.39,1.52,5.43,5.43,0,0,1,1.36,3.8A5.35,5.35,0,0,1,433,267a4.38,4.38,0,0,1-6.5.09ZM432,263.23a3.48,3.48,0,0,0-.78-2.34,2.55,2.55,0,0,0-2-.91,2.65,2.65,0,0,0-2.06.88,3.33,3.33,0,0,0-.79,2.32,3.4,3.4,0,0,0,.79,2.32,2.6,2.6,0,0,0,2.05.89,2.51,2.51,0,0,0,2-.9A3.3,3.3,0,0,0,432,263.23Z"/>
    <path class="cls-2" d="M436.78,258.18h2.3v.89a4.26,4.26,0,0,1,1.13-.91,2.49,2.49,0,0,1,1.19-.26,3.8,3.8,0,0,1,1.91.59l-1.06,2.12a2.17,2.17,0,0,0-1.28-.48c-1.26,0-1.89,1-1.89,2.86v5.17h-2.3Z"/>
    <path class="cls-2" d="M444,263.1a5,5,0,0,1,1.55-3.68,5.46,5.46,0,0,1,7.57,0,5.34,5.34,0,0,1,0,7.51,5.27,5.27,0,0,1-3.82,1.51,5.07,5.07,0,0,1-3.77-1.54A5.17,5.17,0,0,1,444,263.1Zm2.36,0a3.38,3.38,0,0,0,.8,2.37,3.12,3.12,0,0,0,4.33,0,3.76,3.76,0,0,0,0-4.66,3.08,3.08,0,0,0-4.31,0A3.25,3.25,0,0,0,446.33,263.14Z"/>
    <path class="cls-2" d="M464.84,258.61v3.06a5.67,5.67,0,0,0-1.41-1.32A2.72,2.72,0,0,0,462,260a2.86,2.86,0,0,0-2.16.91,3.18,3.18,0,0,0-.86,2.29,3.24,3.24,0,0,0,.83,2.31,2.79,2.79,0,0,0,2.14.9,3,3,0,0,0,1.47-.36,5.67,5.67,0,0,0,1.44-1.35v3a6,6,0,0,1-2.81.73,5.37,5.37,0,0,1-3.87-1.5,5.28,5.28,0,0,1,0-7.51,5.31,5.31,0,0,1,3.87-1.54A5.68,5.68,0,0,1,464.84,258.61Z"/>
    <path class="cls-2" d="M476.17,263.71H469a3,3,0,0,0,.79,2,2.46,2.46,0,0,0,1.82.72,2.36,2.36,0,0,0,1.42-.41,5.91,5.91,0,0,0,1.27-1.52l1.94,1.09a7.73,7.73,0,0,1-.95,1.32,5.07,5.07,0,0,1-1.08.9,4.4,4.4,0,0,1-1.24.52,5.94,5.94,0,0,1-1.44.16A4.72,4.72,0,0,1,468,267a5.42,5.42,0,0,1-1.35-3.84,5.48,5.48,0,0,1,1.31-3.83,5,5,0,0,1,7-.05,5.52,5.52,0,0,1,1.27,3.87Zm-2.37-1.88a2.21,2.21,0,0,0-2.32-1.85,2.26,2.26,0,0,0-.79.13,2.49,2.49,0,0,0-.68.37,2.2,2.2,0,0,0-.51.58,2.33,2.33,0,0,0-.33.77Z"/>
    <path class="cls-2" d="M484.5,259.88l-1.91,1c-.3-.61-.67-.92-1.12-.92a.76.76,0,0,0-.54.21.71.71,0,0,0-.23.54c0,.38.45.76,1.34,1.14a8,8,0,0,1,2.47,1.45,2.53,2.53,0,0,1,.63,1.8,3.15,3.15,0,0,1-1.06,2.42A3.83,3.83,0,0,1,478,266l2-.91a4.25,4.25,0,0,0,.62.91,1.44,1.44,0,0,0,1,.39c.78,0,1.17-.35,1.17-1.07,0-.41-.31-.79-.91-1.14l-.69-.34-.71-.34a4.44,4.44,0,0,1-1.42-1,2.4,2.4,0,0,1-.52-1.61,2.87,2.87,0,0,1,.89-2.15,3.13,3.13,0,0,1,2.22-.85A3,3,0,0,1,484.5,259.88Z"/>
    <path class="cls-2" d="M493,259.88l-1.91,1c-.3-.61-.67-.92-1.12-.92a.76.76,0,0,0-.54.21.7.7,0,0,0-.22.54c0,.38.44.76,1.33,1.14a7.91,7.91,0,0,1,2.47,1.45,2.54,2.54,0,0,1,.64,1.8,3.16,3.16,0,0,1-1.07,2.42,3.83,3.83,0,0,1-6.06-1.53l2-.91a4.25,4.25,0,0,0,.62.91,1.44,1.44,0,0,0,1,.39c.78,0,1.17-.35,1.17-1.07,0-.41-.3-.79-.91-1.14l-.69-.34-.71-.34a4.44,4.44,0,0,1-1.42-1,2.45,2.45,0,0,1-.52-1.61,2.87,2.87,0,0,1,.89-2.15,3.13,3.13,0,0,1,2.22-.85A3,3,0,0,1,493,259.88Z"/>
  </g>
  <g>
    <g>
      <path class="cls-2" d="M555.78,204.43h-5.52v3.8h5.32v2.25h-5.32V218h-2.39V202.18h7.91Z"/>
      <path class="cls-2" d="M567.06,213.56H559.9a3,3,0,0,0,.8,2,2.43,2.43,0,0,0,1.81.72,2.4,2.4,0,0,0,1.43-.41,5.72,5.72,0,0,0,1.26-1.52l1.95,1.09a8.31,8.31,0,0,1-.95,1.32,5.61,5.61,0,0,1-1.08.9,4.53,4.53,0,0,1-1.24.52,6.08,6.08,0,0,1-1.45.16,4.74,4.74,0,0,1-3.59-1.43,5.42,5.42,0,0,1-1.35-3.84,5.53,5.53,0,0,1,1.31-3.83,5,5,0,0,1,7,0,5.53,5.53,0,0,1,1.28,3.87Zm-2.37-1.88a2.22,2.22,0,0,0-2.33-1.85,2.3,2.3,0,0,0-.79.13,2.09,2.09,0,0,0-.67.37,2.42,2.42,0,0,0-.52.58,2.84,2.84,0,0,0-.33.77Z"/>
      <path class="cls-2" d="M570.51,208l2.62,5.7,2.82-6.62,2.84,6.62,2.58-5.7H584l-5.23,10.73L576,212.33l-2.81,6.43L567.92,208Z"/>
      <path class="cls-2" d="M594.29,213.56h-7.16a3.08,3.08,0,0,0,.8,2,2.46,2.46,0,0,0,1.82.72,2.36,2.36,0,0,0,1.42-.41,5.91,5.91,0,0,0,1.27-1.52l1.94,1.09a8.31,8.31,0,0,1-1,1.32,5.33,5.33,0,0,1-1.08.9,4.4,4.4,0,0,1-1.24.52,5.94,5.94,0,0,1-1.44.16,4.72,4.72,0,0,1-3.59-1.43,5.43,5.43,0,0,1-1.36-3.84A5.49,5.49,0,0,1,586,209.2a5,5,0,0,1,7,0A5.52,5.52,0,0,1,594.3,213Zm-2.37-1.88a2.21,2.21,0,0,0-2.33-1.85,2.3,2.3,0,0,0-.79.13,2.24,2.24,0,0,0-1.18.95,2.33,2.33,0,0,0-.33.77Z"/>
      <path class="cls-2" d="M596.81,208h2.31v.89a4.1,4.1,0,0,1,1.13-.91,2.46,2.46,0,0,1,1.19-.26,3.8,3.8,0,0,1,1.91.59l-1.06,2.12A2.2,2.2,0,0,0,601,210q-1.89,0-1.89,2.85V218h-2.31Z"/>
      <path class="cls-2" d="M614,202.18V218h-2.39V202.18Z"/>
      <path class="cls-2" d="M622.15,204.43V218h-2.39V204.43h-3.64v-2.25h9.66v2.25Z"/>
      <path class="cls-2" d="M639.76,209.73l-1.91,1c-.3-.61-.67-.92-1.12-.92a.76.76,0,0,0-.54.21.71.71,0,0,0-.23.54c0,.38.45.76,1.34,1.14a8,8,0,0,1,2.47,1.45,2.53,2.53,0,0,1,.63,1.8,3.15,3.15,0,0,1-1.06,2.42,3.67,3.67,0,0,1-2.51.92,3.62,3.62,0,0,1-3.55-2.45l2-.91a4.25,4.25,0,0,0,.62.91,1.44,1.44,0,0,0,1,.39c.77,0,1.16-.36,1.16-1.07,0-.41-.3-.79-.9-1.15l-.69-.33-.71-.34a4.44,4.44,0,0,1-1.42-1,2.4,2.4,0,0,1-.52-1.61,2.86,2.86,0,0,1,.89-2.15,3.13,3.13,0,0,1,2.22-.85A3,3,0,0,1,639.76,209.73Z"/>
      <path class="cls-2" d="M644.78,208v5.73c0,1.65.65,2.48,2,2.48s2-.83,2-2.48V208H651v5.78a6.37,6.37,0,0,1-.3,2.07,3.43,3.43,0,0,1-1,1.41,4.86,4.86,0,0,1-5.93,0,3.59,3.59,0,0,1-1-1.41,5.73,5.73,0,0,1-.29-2.07V208Z"/>
      <path class="cls-2" d="M656.22,223.45h-2.3V208h2.3v1.08a4.38,4.38,0,0,1,6.49.16,5.94,5.94,0,0,1,0,7.54,4.39,4.39,0,0,1-6.51.09Zm5.49-10.37a3.44,3.44,0,0,0-.78-2.34,2.52,2.52,0,0,0-2-.91,2.63,2.63,0,0,0-2.06.88,3.33,3.33,0,0,0-.79,2.32,3.4,3.4,0,0,0,.79,2.32,2.6,2.6,0,0,0,2,.89,2.51,2.51,0,0,0,2-.9A3.3,3.3,0,0,0,661.71,213.08Z"/>
      <path class="cls-2" d="M668.82,223.45h-2.31V208h2.31v1.08a4.38,4.38,0,0,1,6.49.16,5.47,5.47,0,0,1,1.35,3.8,5.39,5.39,0,0,1-1.34,3.74,4.38,4.38,0,0,1-6.5.09Zm5.48-10.37a3.44,3.44,0,0,0-.78-2.34,2.5,2.5,0,0,0-2-.91,2.64,2.64,0,0,0-2.06.88,3.38,3.38,0,0,0-.79,2.32,3.45,3.45,0,0,0,.79,2.32,2.61,2.61,0,0,0,2,.89,2.51,2.51,0,0,0,2-.9A3.26,3.26,0,0,0,674.3,213.08Z"/>
      <path class="cls-2" d="M678.63,213a5,5,0,0,1,1.55-3.68,5.15,5.15,0,0,1,3.77-1.52,5.23,5.23,0,0,1,3.8,1.53,5.08,5.08,0,0,1,1.53,3.75,5,5,0,0,1-1.55,3.76,5.25,5.25,0,0,1-3.82,1.51,5,5,0,0,1-3.76-1.54A5.13,5.13,0,0,1,678.63,213Zm2.36,0a3.34,3.34,0,0,0,.8,2.37,2.8,2.8,0,0,0,2.16.88,2.85,2.85,0,0,0,2.17-.87,3.79,3.79,0,0,0,0-4.66,2.82,2.82,0,0,0-2.17-.88,2.78,2.78,0,0,0-2.14.88A3.21,3.21,0,0,0,681,213Z"/>
      <path class="cls-2" d="M691.72,208H694v.89a4.26,4.26,0,0,1,1.13-.91,2.46,2.46,0,0,1,1.19-.26,3.8,3.8,0,0,1,1.91.59l-1.06,2.12a2.2,2.2,0,0,0-1.28-.48q-1.89,0-1.89,2.85V218h-2.31Z"/>
      <path class="cls-2" d="M702.72,210.18V218h-2.31v-7.83h-1V208h1v-3.66h2.31V208h1.79v2.15Z"/>
      <path class="cls-2" d="M550.9,235.38v7.83h-2.31v-7.83h-1v-2.15h1v-3.66h2.31v3.66h1.8v2.15Z"/>
      <path class="cls-2" d="M553.92,229.07a1.5,1.5,0,0,1,1.49-1.48,1.5,1.5,0,0,1,1.51,1.49,1.46,1.46,0,0,1-.44,1.07,1.44,1.44,0,0,1-1.06.44,1.46,1.46,0,0,1-1.06-.44A1.43,1.43,0,0,1,553.92,229.07Zm2.65,4.16v10h-2.31v-10Z"/>
      <path class="cls-2" d="M567.27,233.66v3.06a5.68,5.68,0,0,0-1.42-1.32,2.71,2.71,0,0,0-1.44-.37,2.86,2.86,0,0,0-2.17.91,3.22,3.22,0,0,0-.86,2.29,3.29,3.29,0,0,0,.83,2.31,2.81,2.81,0,0,0,2.14.9,2.91,2.91,0,0,0,1.47-.36,5.85,5.85,0,0,0,1.45-1.35v3a6,6,0,0,1-2.81.73,5.37,5.37,0,0,1-3.88-1.5,5,5,0,0,1-1.56-3.74,5.06,5.06,0,0,1,1.58-3.77,5.33,5.33,0,0,1,3.88-1.54A5.84,5.84,0,0,1,567.27,233.66Z"/>
      <path class="cls-2" d="M572.35,225.89v10.57l3.25-3.23h3.1l-4.34,4.19,4.66,5.79h-3l-3.3-4.21-.37.37v3.84H570V225.89Z"/>
      <path class="cls-2" d="M589.26,238.76H582.1a3.08,3.08,0,0,0,.8,2,2.46,2.46,0,0,0,1.82.72,2.36,2.36,0,0,0,1.42-.41,5.91,5.91,0,0,0,1.27-1.52l1.94,1.09a8.31,8.31,0,0,1-1,1.32,5.33,5.33,0,0,1-1.08.9,4.4,4.4,0,0,1-1.24.52,5.94,5.94,0,0,1-1.44.16,4.69,4.69,0,0,1-3.59-1.44,5.38,5.38,0,0,1-1.36-3.83,5.53,5.53,0,0,1,1.32-3.84,5,5,0,0,1,7,0,5.52,5.52,0,0,1,1.27,3.87Zm-2.37-1.88a2.22,2.22,0,0,0-2.33-1.85,2.24,2.24,0,0,0-.78.13,2.14,2.14,0,0,0-.68.37,2.2,2.2,0,0,0-.51.58,2.33,2.33,0,0,0-.33.77Z"/>
      <path class="cls-2" d="M594.35,235.38v7.83H592v-7.83h-1v-2.15h1v-3.66h2.31v3.66h1.79v2.15Z"/>
      <path class="cls-2" d="M603.51,234.93l-1.9,1c-.3-.61-.68-.92-1.12-.92a.76.76,0,0,0-.54.21.68.68,0,0,0-.23.54c0,.38.44.76,1.33,1.14a7.79,7.79,0,0,1,2.47,1.45,2.49,2.49,0,0,1,.64,1.8,3.16,3.16,0,0,1-1.07,2.42,3.83,3.83,0,0,1-6.06-1.53l2-.91a4.18,4.18,0,0,0,.63.91,1.41,1.41,0,0,0,1,.39c.78,0,1.17-.36,1.17-1.07,0-.41-.3-.79-.9-1.15l-.7-.33-.71-.34a4.26,4.26,0,0,1-1.41-1,2.4,2.4,0,0,1-.52-1.61,2.84,2.84,0,0,1,.89-2.15,3.11,3.11,0,0,1,2.21-.85A3,3,0,0,1,603.51,234.93Z"/>
      <path class="cls-2" d="M612.71,233.23H615v.89a4.1,4.1,0,0,1,1.13-.91,2.58,2.58,0,0,1,1.19-.26,3.74,3.74,0,0,1,1.9.59l-1,2.12a2.2,2.2,0,0,0-1.28-.48c-1.26,0-1.89.95-1.89,2.86v5.17h-2.31Z"/>
      <path class="cls-2" d="M629.52,238.76h-7.16a3,3,0,0,0,.8,2,2.44,2.44,0,0,0,1.82.72,2.36,2.36,0,0,0,1.42-.41,5.72,5.72,0,0,0,1.26-1.52l2,1.09a8.31,8.31,0,0,1-1,1.32,5.61,5.61,0,0,1-1.08.9,4.53,4.53,0,0,1-1.24.52,6.08,6.08,0,0,1-1.45.16,4.71,4.71,0,0,1-3.59-1.44,5.38,5.38,0,0,1-1.35-3.83,5.57,5.57,0,0,1,1.31-3.84,5,5,0,0,1,7,0,5.57,5.57,0,0,1,1.27,3.87Zm-2.37-1.88a2.22,2.22,0,0,0-2.33-1.85,2.3,2.3,0,0,0-.79.13,2.2,2.2,0,0,0-.67.37,2.42,2.42,0,0,0-.52.58,2.84,2.84,0,0,0-.33.77Z"/>
      <path class="cls-2" d="M634.35,225.89v17.32H632V225.89Z"/>
      <path class="cls-2" d="M644.63,233.23H647v10h-2.32v-1a4.43,4.43,0,0,1-6.49-.17,5.59,5.59,0,0,1-1.34-3.81,5.39,5.39,0,0,1,1.34-3.74,4.34,4.34,0,0,1,3.36-1.5,4.25,4.25,0,0,1,3.13,1.43Zm-5.47,5a3.44,3.44,0,0,0,.77,2.34,2.53,2.53,0,0,0,2,.91,2.65,2.65,0,0,0,2.07-.88,3.8,3.8,0,0,0,0-4.64,2.63,2.63,0,0,0-2-.89,2.54,2.54,0,0,0-2,.9A3.31,3.31,0,0,0,639.16,238.19Z"/>
      <path class="cls-2" d="M652.24,235.38v7.83h-2.31v-7.83h-1v-2.15h1v-3.66h2.31v3.66H654v2.15Z"/>
      <path class="cls-2" d="M664.88,238.76h-7.15a3,3,0,0,0,.8,2,2.66,2.66,0,0,0,3.24.31,5.72,5.72,0,0,0,1.26-1.52l2,1.09a7.75,7.75,0,0,1-1,1.32,5.28,5.28,0,0,1-1.07.9,4.66,4.66,0,0,1-1.24.52,6.08,6.08,0,0,1-1.45.16,4.69,4.69,0,0,1-3.59-1.44,5.38,5.38,0,0,1-1.35-3.83,5.52,5.52,0,0,1,1.31-3.84,4.53,4.53,0,0,1,3.51-1.44,4.48,4.48,0,0,1,3.48,1.4,5.52,5.52,0,0,1,1.27,3.87Zm-2.36-1.88a2.22,2.22,0,0,0-2.33-1.85,2.26,2.26,0,0,0-.79.13,2.09,2.09,0,0,0-.67.37,2.06,2.06,0,0,0-.52.58,2.56,2.56,0,0,0-.33.77Z"/>
      <path class="cls-2" d="M674.77,225.89h2.32v17.32h-2.32v-1a4.3,4.3,0,0,1-3.09,1.33,4.37,4.37,0,0,1-3.4-1.5,5.55,5.55,0,0,1-1.35-3.81,5.36,5.36,0,0,1,1.35-3.73,4.32,4.32,0,0,1,6.49-.08Zm-5.48,12.3a3.49,3.49,0,0,0,.77,2.34,2.55,2.55,0,0,0,2,.91,2.62,2.62,0,0,0,2.07-.88,3.8,3.8,0,0,0,0-4.64,2.61,2.61,0,0,0-2-.89,2.57,2.57,0,0,0-2,.9A3.36,3.36,0,0,0,669.29,238.19Z"/>
      <path class="cls-2" d="M688.86,235.38v7.83h-2.31v-7.83h-1v-2.15h1v-3.66h2.31v3.66h1.79v2.15Z"/>
      <path class="cls-2" d="M691.89,238.15a5,5,0,0,1,1.55-3.68,5.46,5.46,0,0,1,7.57,0,5.11,5.11,0,0,1,1.54,3.75A5.05,5.05,0,0,1,701,242a5.29,5.29,0,0,1-3.83,1.51,5.06,5.06,0,0,1-3.76-1.54A5.17,5.17,0,0,1,691.89,238.15Zm2.36,0a3.38,3.38,0,0,0,.8,2.37,3.12,3.12,0,0,0,4.33,0,3.76,3.76,0,0,0,0-4.66,2.82,2.82,0,0,0-2.17-.88,2.78,2.78,0,0,0-2.14.88A3.21,3.21,0,0,0,694.25,238.19Z"/>
      <path class="cls-2" d="M558.63,258.43H561v10h-2.32v-1a4.43,4.43,0,0,1-6.49-.17,5.57,5.57,0,0,1-1.34-3.81,5.39,5.39,0,0,1,1.34-3.74,4.34,4.34,0,0,1,3.37-1.5,4.22,4.22,0,0,1,3.12,1.44Zm-5.47,5a3.46,3.46,0,0,0,.77,2.34,2.5,2.5,0,0,0,2,.91,2.65,2.65,0,0,0,2.07-.88,3.8,3.8,0,0,0,0-4.64,2.63,2.63,0,0,0-2-.89,2.54,2.54,0,0,0-2,.9A3.31,3.31,0,0,0,553.16,263.39Z"/>
      <path class="cls-2" d="M571.63,258.86v3.06a5.5,5.5,0,0,0-1.41-1.32,2.72,2.72,0,0,0-1.45-.37,2.88,2.88,0,0,0-2.16.91,3.22,3.22,0,0,0-.86,2.29,3.29,3.29,0,0,0,.83,2.31,2.79,2.79,0,0,0,2.14.9,2.91,2.91,0,0,0,1.47-.36,5.67,5.67,0,0,0,1.44-1.35v3a6,6,0,0,1-2.8.73,5.37,5.37,0,0,1-3.88-1.5,5,5,0,0,1-1.56-3.74,5.06,5.06,0,0,1,1.58-3.77,5.32,5.32,0,0,1,3.88-1.54A5.67,5.67,0,0,1,571.63,258.86Z"/>
      <path class="cls-2" d="M581.64,258.86v3.06a5.67,5.67,0,0,0-1.41-1.32,2.72,2.72,0,0,0-1.45-.37,2.86,2.86,0,0,0-2.16.91,3.18,3.18,0,0,0-.86,2.29,3.24,3.24,0,0,0,.83,2.31,2.79,2.79,0,0,0,2.14.9,3,3,0,0,0,1.47-.36,5.67,5.67,0,0,0,1.44-1.35v3a6,6,0,0,1-2.81.73,5.37,5.37,0,0,1-3.87-1.5,5.28,5.28,0,0,1,0-7.51,5.31,5.31,0,0,1,3.87-1.54A5.68,5.68,0,0,1,581.64,258.86Z"/>
      <path class="cls-2" d="M583.41,263.35a4.93,4.93,0,0,1,1.55-3.68,5.45,5.45,0,0,1,7.56,0,5.34,5.34,0,0,1,0,7.51,5.27,5.27,0,0,1-3.82,1.51,5.08,5.08,0,0,1-3.77-1.54A5.16,5.16,0,0,1,583.41,263.35Zm2.35,0a3.38,3.38,0,0,0,.8,2.37,3.12,3.12,0,0,0,4.33,0,3.76,3.76,0,0,0,0-4.66,3.08,3.08,0,0,0-4.31,0A3.25,3.25,0,0,0,585.76,263.39Z"/>
      <path class="cls-2" d="M598.81,258.43v5.73c0,1.65.65,2.48,2,2.48s2-.83,2-2.48v-5.73H605v5.78a6.37,6.37,0,0,1-.3,2.07,3.5,3.5,0,0,1-1,1.41,4.87,4.87,0,0,1-5.94,0,3.56,3.56,0,0,1-1-1.41,5.73,5.73,0,0,1-.29-2.07v-5.78Z"/>
      <path class="cls-2" d="M607.94,258.43h2.32v.92a3.8,3.8,0,0,1,2.73-1.2,3.46,3.46,0,0,1,2.72,1.1,4.47,4.47,0,0,1,.84,3v6.12h-2.32v-5.57a3.72,3.72,0,0,0-.41-2,1.67,1.67,0,0,0-1.46-.57,1.78,1.78,0,0,0-1.63.76,5.27,5.27,0,0,0-.47,2.61v4.82h-2.32Z"/>
      <path class="cls-2" d="M621.84,260.58v7.83h-2.31v-7.83h-1v-2.15h1v-3.66h2.31v3.66h1.79v2.15Z"/>
      <path class="cls-2" d="M639.45,258.86v3.06A5.5,5.5,0,0,0,638,260.6a2.72,2.72,0,0,0-1.45-.37,2.86,2.86,0,0,0-2.16.91,3.22,3.22,0,0,0-.86,2.29,3.29,3.29,0,0,0,.83,2.31,2.79,2.79,0,0,0,2.14.9,2.94,2.94,0,0,0,1.47-.36,5.67,5.67,0,0,0,1.44-1.35v3a6,6,0,0,1-2.81.73,5.37,5.37,0,0,1-3.87-1.5,5,5,0,0,1-1.56-3.74,5.06,5.06,0,0,1,1.58-3.77,5.32,5.32,0,0,1,3.88-1.54A5.67,5.67,0,0,1,639.45,258.86Z"/>
      <path class="cls-2" d="M641.69,258.43H644v.89a4.45,4.45,0,0,1,1.12-.91,2.51,2.51,0,0,1,1.19-.26,3.78,3.78,0,0,1,1.91.59l-1.05,2.12a2.2,2.2,0,0,0-1.29-.48c-1.26,0-1.88,1-1.88,2.86v5.17h-2.31Z"/>
      <path class="cls-2" d="M658.5,264h-7.16a3,3,0,0,0,.8,2,2.66,2.66,0,0,0,3.24.31,5.72,5.72,0,0,0,1.26-1.52l2,1.09a7.75,7.75,0,0,1-1,1.32,5.28,5.28,0,0,1-1.07.9,4.66,4.66,0,0,1-1.24.52,6.08,6.08,0,0,1-1.45.16,4.72,4.72,0,0,1-3.59-1.43,5.42,5.42,0,0,1-1.35-3.84,5.53,5.53,0,0,1,1.31-3.83,5,5,0,0,1,7-.05,5.53,5.53,0,0,1,1.28,3.87Zm-2.37-1.88a2.22,2.22,0,0,0-2.33-1.85,2.3,2.3,0,0,0-1.46.5,2.23,2.23,0,0,0-.52.58,2.84,2.84,0,0,0-.33.77Z"/>
      <path class="cls-2" d="M668.38,258.43h2.32v10h-2.32v-1a4.43,4.43,0,0,1-6.49-.17,5.53,5.53,0,0,1-1.34-3.81,5.35,5.35,0,0,1,1.34-3.74,4.34,4.34,0,0,1,3.36-1.5,4.23,4.23,0,0,1,3.13,1.44Zm-5.48,5a3.51,3.51,0,0,0,.77,2.34,2.52,2.52,0,0,0,2,.91,2.62,2.62,0,0,0,2.07-.88,3.8,3.8,0,0,0,0-4.64,2.61,2.61,0,0,0-2.05-.89,2.57,2.57,0,0,0-2,.9A3.36,3.36,0,0,0,662.9,263.39Z"/>
      <path class="cls-2" d="M676,260.58v7.83h-2.31v-7.83h-1v-2.15h1v-3.66H676v3.66h1.79v2.15Z"/>
      <path class="cls-2" d="M679,254.27a1.51,1.51,0,0,1,3,0,1.46,1.46,0,0,1-.44,1.07,1.44,1.44,0,0,1-1.06.44,1.5,1.5,0,0,1-1.51-1.52Zm2.66,4.16v10h-2.31v-10Z"/>
      <path class="cls-2" d="M684.11,263.35a5,5,0,0,1,1.55-3.68,5.46,5.46,0,0,1,7.57,0,5.1,5.1,0,0,1,1.53,3.75,5,5,0,0,1-1.55,3.76,5.25,5.25,0,0,1-3.82,1.51,5,5,0,0,1-3.76-1.54A5.17,5.17,0,0,1,684.11,263.35Zm2.36,0a3.34,3.34,0,0,0,.8,2.37,2.8,2.8,0,0,0,2.16.88,2.85,2.85,0,0,0,2.17-.87,3.76,3.76,0,0,0,0-4.66,2.85,2.85,0,0,0-2.17-.88,2.82,2.82,0,0,0-2.14.88A3.21,3.21,0,0,0,686.47,263.39Z"/>
      <path class="cls-2" d="M697.2,258.43h2.32v.92a3.8,3.8,0,0,1,2.73-1.2,3.46,3.46,0,0,1,2.72,1.1,4.47,4.47,0,0,1,.84,3v6.12h-2.32v-5.57a3.72,3.72,0,0,0-.41-2,1.67,1.67,0,0,0-1.46-.57A1.78,1.78,0,0,0,700,261a5.27,5.27,0,0,0-.47,2.61v4.82H697.2Z"/>
    </g>
    <g>
      <path class="cls-1" d="M552.88,172.23a5.37,5.37,0,0,0-1.35-.81,3.67,3.67,0,0,0-1.3-.26,2.13,2.13,0,0,0-1.3.38,1.16,1.16,0,0,0-.5,1,1,1,0,0,0,.25.69,2.23,2.23,0,0,0,.66.47,6.1,6.1,0,0,0,.92.35l1,.31a6.31,6.31,0,0,1,3,1.8,4.46,4.46,0,0,1,.94,2.93,5.75,5.75,0,0,1-.41,2.2,4.74,4.74,0,0,1-1.2,1.69,5.51,5.51,0,0,1-1.93,1.1,8.32,8.32,0,0,1-2.6.38,9.53,9.53,0,0,1-5.56-1.78l1.76-3.32a7.28,7.28,0,0,0,1.83,1.22,4.34,4.34,0,0,0,1.79.4,2.17,2.17,0,0,0,1.5-.46,1.4,1.4,0,0,0,.49-1,1.32,1.32,0,0,0-.13-.62,1.27,1.27,0,0,0-.42-.49,3.76,3.76,0,0,0-.76-.41l-1.15-.42c-.53-.16-1-.35-1.56-.55a4.82,4.82,0,0,1-1.37-.81,3.71,3.71,0,0,1-1-1.27,4.42,4.42,0,0,1-.37-1.94,5.63,5.63,0,0,1,.39-2.14,4.68,4.68,0,0,1,2.81-2.69,6.34,6.34,0,0,1,2.28-.38,10.33,10.33,0,0,1,2.46.32,11.21,11.21,0,0,1,2.46,1Z"/>
      <path class="cls-1" d="M561.19,173.24v6.07a1.94,1.94,0,1,0,3.87,0v-6.07h3.8V180a3.86,3.86,0,0,1-1.44,3.28,9,9,0,0,1-8.59,0,3.86,3.86,0,0,1-1.44-3.28v-6.8Z"/>
      <path class="cls-1" d="M575.24,189.39h-3.8V173.24h3.8v1.2a4,4,0,0,1,3.32-1.54,5,5,0,0,1,2.15.46,5.36,5.36,0,0,1,2.88,3,6.2,6.2,0,0,1,.41,2.25,6,6,0,0,1-.41,2.22,5.71,5.71,0,0,1-1.13,1.81,5.39,5.39,0,0,1-1.72,1.22,5.22,5.22,0,0,1-2.14.44,4.48,4.48,0,0,1-3.36-1.39ZM580,178.66a2.56,2.56,0,0,0-.18-1,2.29,2.29,0,0,0-.51-.78,2.52,2.52,0,0,0-.79-.54,2.45,2.45,0,0,0-1-.2,2.29,2.29,0,0,0-.94.19,2.43,2.43,0,0,0-.77.52,2.64,2.64,0,0,0-.52.79,2.23,2.23,0,0,0-.2,1,2.41,2.41,0,0,0,.71,1.71,2.64,2.64,0,0,0,.79.52,2.22,2.22,0,0,0,1,.2,2.3,2.3,0,0,0,.95-.19,2.38,2.38,0,0,0,.77-.52,2.8,2.8,0,0,0,.52-.78A2.24,2.24,0,0,0,580,178.66Z"/>
      <path class="cls-1" d="M590,189.39h-3.8V173.24H590v1.2a4,4,0,0,1,3.32-1.54,5,5,0,0,1,2.15.46,5.36,5.36,0,0,1,2.88,3,6.2,6.2,0,0,1,.41,2.25,6,6,0,0,1-.41,2.22,5.71,5.71,0,0,1-1.13,1.81,5.39,5.39,0,0,1-1.72,1.22,5.22,5.22,0,0,1-2.14.44A4.48,4.48,0,0,1,590,183Zm4.79-10.73a2.56,2.56,0,0,0-.18-1,2.29,2.29,0,0,0-.51-.78,2.52,2.52,0,0,0-.79-.54,2.45,2.45,0,0,0-1-.2,2.29,2.29,0,0,0-.94.19,2.43,2.43,0,0,0-.77.52,2.85,2.85,0,0,0-.52.79,2.23,2.23,0,0,0-.2,1,2.41,2.41,0,0,0,.71,1.71,2.64,2.64,0,0,0,.79.52,2.23,2.23,0,0,0,1,.2,2.29,2.29,0,0,0,.94-.19,2.38,2.38,0,0,0,.77-.52,2.8,2.8,0,0,0,.52-.78A2.24,2.24,0,0,0,594.75,178.66Z"/>
      <path class="cls-1" d="M600.46,178.53a5.09,5.09,0,0,1,.49-2.23,5.44,5.44,0,0,1,1.34-1.81,6.5,6.5,0,0,1,2.05-1.21,7.87,7.87,0,0,1,5.16,0,6.46,6.46,0,0,1,2.06,1.2,5.48,5.48,0,0,1,1.36,1.83,5.56,5.56,0,0,1,.48,2.34,5.63,5.63,0,0,1-.49,2.34,5.72,5.72,0,0,1-1.36,1.83,6,6,0,0,1-2.07,1.18,7.85,7.85,0,0,1-2.61.42,7.51,7.51,0,0,1-2.56-.42,5.88,5.88,0,0,1-2-1.2,5.38,5.38,0,0,1-1.33-1.85A5.74,5.74,0,0,1,600.46,178.53Zm4,0a2.48,2.48,0,0,0,.2,1,2.88,2.88,0,0,0,.53.79,2.22,2.22,0,0,0,.78.52,2.34,2.34,0,0,0,.95.19,2.42,2.42,0,0,0,1-.19,2.18,2.18,0,0,0,.77-.52,2.88,2.88,0,0,0,.53-.79,2.43,2.43,0,0,0,0-1.93,2.88,2.88,0,0,0-.53-.79,2.18,2.18,0,0,0-.77-.52,2.42,2.42,0,0,0-1-.19,2.34,2.34,0,0,0-.95.19,2.22,2.22,0,0,0-.78.52,2.83,2.83,0,0,0-.53.78A2.3,2.3,0,0,0,604.47,178.57Z"/>
      <path class="cls-1" d="M615.58,173.24h3.8V175a4.51,4.51,0,0,1,1.5-1.48,4,4,0,0,1,2-.51h.33a2.17,2.17,0,0,1,.41,0v3.63a3.65,3.65,0,0,0-1.64-.37,2.45,2.45,0,0,0-2,.78,3.45,3.45,0,0,0-.67,2.3V184h-3.8Z"/>
      <path class="cls-1" d="M630,176.41V184h-3.8v-7.6H625v-3.17h1.26V170H630v3.23h2.16v3.17Z"/>
      <path class="cls-1" d="M647.1,171.67V184H643V171.67h-3.38v-3.49h10.87v3.49Z"/>
      <path class="cls-1" d="M652,169.1a2.12,2.12,0,0,1,.16-.83,2.3,2.3,0,0,1,.47-.68,2.15,2.15,0,0,1,.68-.46,2.11,2.11,0,0,1,1.66,0,2.27,2.27,0,0,1,.68.46,2.1,2.1,0,0,1,.46.68,2,2,0,0,1,.17.83,1.93,1.93,0,0,1-.17.83,2.14,2.14,0,0,1-.46.69,2.47,2.47,0,0,1-.68.46,2.11,2.11,0,0,1-1.66,0,2.2,2.2,0,0,1-1.15-1.15A2.08,2.08,0,0,1,652,169.1Zm4.05,4.14V184h-3.8V173.24Z"/>
      <path class="cls-1" d="M666.8,176.73a3.51,3.51,0,0,0-2-.68,2.8,2.8,0,0,0-1,.19,2.59,2.59,0,0,0-.83.54,2.35,2.35,0,0,0-.56.82,2.74,2.74,0,0,0-.2,1.06,2.71,2.71,0,0,0,.2,1,2.57,2.57,0,0,0,.55.82,2.32,2.32,0,0,0,.83.53,2.7,2.7,0,0,0,1,.19,3.14,3.14,0,0,0,2-.73v3.23a6.68,6.68,0,0,1-2.67.61,6.16,6.16,0,0,1-2.23-.4,5.84,5.84,0,0,1-1.87-1.14,5.66,5.66,0,0,1-1.29-1.79,5.47,5.47,0,0,1-.49-2.32,5.79,5.79,0,0,1,.47-2.34,5.35,5.35,0,0,1,1.26-1.83,5.7,5.7,0,0,1,1.9-1.2,6.55,6.55,0,0,1,2.36-.43,5.67,5.67,0,0,1,2.56.59Z"/>
      <path class="cls-1" d="M673.29,166.58v10.54l4-3.88h5.21l-5.4,5L682.8,184h-5.33l-4.18-4.39V184h-3.8V166.58Z"/>
      <path class="cls-1" d="M686.92,179.27c0,1.64.77,2.45,2.31,2.45a2.07,2.07,0,0,0,1.87-1h3.67q-1.11,3.69-5.56,3.69a7.13,7.13,0,0,1-2.5-.41,5.45,5.45,0,0,1-1.94-1.16,5.2,5.2,0,0,1-1.25-1.81,5.9,5.9,0,0,1-.44-2.35,6.66,6.66,0,0,1,.42-2.43,5,5,0,0,1,1.19-1.83,5.25,5.25,0,0,1,1.88-1.17,7.22,7.22,0,0,1,2.49-.41,7.05,7.05,0,0,1,2.46.41,5,5,0,0,1,1.85,1.19,5.26,5.26,0,0,1,1.15,1.9,7.42,7.42,0,0,1,.4,2.53v.4Zm4.45-2.21a2.27,2.27,0,0,0-.78-1.28,2.41,2.41,0,0,0-2.86,0,2.11,2.11,0,0,0-.71,1.3Z"/>
      <path class="cls-1" d="M701.47,176.41V184h-3.8v-7.6h-1.26v-3.17h1.26V170h3.8v3.23h2.16v3.17Z"/>
      <path class="cls-1" d="M712.31,176a4.49,4.49,0,0,0-2.06-.54,1.53,1.53,0,0,0-.85.21.64.64,0,0,0-.33.56.87.87,0,0,0,0,.31.65.65,0,0,0,.24.22,2,2,0,0,0,.52.19l.91.21a4.39,4.39,0,0,1,2.36,1.12,2.9,2.9,0,0,1,.77,2.07,3.66,3.66,0,0,1-1.42,3,5.11,5.11,0,0,1-1.62.8,7.17,7.17,0,0,1-2.08.28,8.43,8.43,0,0,1-4.31-1.24l1.39-2.68a5.46,5.46,0,0,0,3,1.09,1.56,1.56,0,0,0,.87-.23.7.7,0,0,0,.33-.59,1.13,1.13,0,0,0-.05-.35.63.63,0,0,0-.22-.25,1.59,1.59,0,0,0-.5-.21c-.21-.06-.5-.13-.85-.2a4.88,4.88,0,0,1-2.46-1.06,2.63,2.63,0,0,1-.71-1.94,3.74,3.74,0,0,1,.34-1.63,3.4,3.4,0,0,1,1-1.23,4.55,4.55,0,0,1,1.52-.78,6.77,6.77,0,0,1,2-.27,9.06,9.06,0,0,1,3.47.69Z"/>
    </g>
    <g>
      <path class="cls-1" d="M562,122.86h14.35v7.55H562Z"/>
      <path class="cls-1" d="M604.39,124.76h4.55v7.5h-4.55V140h-9.1v-7.75h-18.2V126l14.4-23.65h12.9Zm-9.1,0V109.91l-8.65,14.85Z"/>
      <path class="cls-1" d="M611.39,121.11a26.83,26.83,0,0,1,1.17-8.17,19.05,19.05,0,0,1,3.31-6.28,14.81,14.81,0,0,1,5-4,14.79,14.79,0,0,1,18,4,19.18,19.18,0,0,1,3.27,6.28,28.91,28.91,0,0,1,0,16.35,19.38,19.38,0,0,1-3.27,6.3,14.43,14.43,0,0,1-5,4,14.7,14.7,0,0,1-18-4,19.26,19.26,0,0,1-3.31-6.3A26.89,26.89,0,0,1,611.39,121.11Zm9.7,0a21.19,21.19,0,0,0,.45,4.55,13.19,13.19,0,0,0,1.27,3.55,7,7,0,0,0,2,2.33,4.48,4.48,0,0,0,5.17,0,6.45,6.45,0,0,0,2-2.33,13.92,13.92,0,0,0,1.25-3.55,23.08,23.08,0,0,0,0-9.07,13.52,13.52,0,0,0-1.25-3.55,6.42,6.42,0,0,0-2-2.3,4.44,4.44,0,0,0-5.17,0,7,7,0,0,0-2,2.3,12.83,12.83,0,0,0-1.27,3.55A21.31,21.31,0,0,0,621.09,121.11Z"/>
      <path class="cls-1" d="M646.29,111a9.18,9.18,0,0,1,.77-3.8,8,8,0,0,1,2.18-2.85,10.23,10.23,0,0,1,3.32-1.77,13.74,13.74,0,0,1,4.28-.63,11.58,11.58,0,0,1,4,.68,9.85,9.85,0,0,1,3.2,1.87,8.37,8.37,0,0,1,2.1,2.88,8.89,8.89,0,0,1,.75,3.67,9.3,9.3,0,0,1-.78,3.88,8.55,8.55,0,0,1-2.15,3,9.2,9.2,0,0,1-3.3,1.87,12.93,12.93,0,0,1-4.22.65,10.52,10.52,0,0,1-7.4-2.52A8.89,8.89,0,0,1,646.29,111Zm6.05.1a4.27,4.27,0,0,0,1.2,3,4,4,0,0,0,3.05,1.3,3.75,3.75,0,0,0,1.62-.35,4.42,4.42,0,0,0,1.35-.92,4.28,4.28,0,0,0,.93-1.35,4,4,0,0,0,.35-1.63,4.06,4.06,0,0,0-.35-1.67,4.18,4.18,0,0,0-1-1.35,4.57,4.57,0,0,0-1.38-.9,4,4,0,0,0-1.57-.33,4.17,4.17,0,0,0-3,1.23A4,4,0,0,0,652.34,111.06Zm25.85-8.75H683L661.19,140h-4.9Zm-5.7,28.75a9,9,0,0,1,.77-3.77,8.33,8.33,0,0,1,2.15-2.85,9.52,9.52,0,0,1,3.33-1.8A13.91,13.91,0,0,1,683,122a11.87,11.87,0,0,1,4.1.68,9.24,9.24,0,0,1,3.17,1.9,8.76,8.76,0,0,1,2.83,6.52,9.52,9.52,0,0,1-.75,3.83,8.37,8.37,0,0,1-2.13,2.95,9.56,9.56,0,0,1-3.3,1.9,12.8,12.8,0,0,1-4.27.67,12.56,12.56,0,0,1-4.18-.65,9.1,9.1,0,0,1-3.22-1.87,8.3,8.3,0,0,1-2.08-3A10.11,10.11,0,0,1,672.49,131.06Zm6.1.1a4.21,4.21,0,0,0,1.22,3.05,4.25,4.25,0,0,0,6.93-4.67,4.18,4.18,0,0,0-1-1.35,4.39,4.39,0,0,0-1.38-.9,4,4,0,0,0-1.57-.33,4.24,4.24,0,0,0-3,1.2A3.9,3.9,0,0,0,678.59,131.16Z"/>
    </g>
  </g>
  <g>
    <g>
      <path class="cls-2" d="M42.87,214.67H36.1l-1.77,3.84H31.76l7.83-16.82,7.56,16.82H44.54Zm-1-2.25L39.55,207l-2.46,5.38Z"/>
      <path class="cls-2" d="M57.56,210.68v7.83H55.24v-7.83h-.82v-2.15h.82v-3.86A4.17,4.17,0,0,1,55.9,202a3.21,3.21,0,0,1,2.62-1.08,4.5,4.5,0,0,1,1.55.36v2.35l-.24-.12a3,3,0,0,0-1.23-.38.85.85,0,0,0-.83.44,4.35,4.35,0,0,0-.21,1.66v3.3h2.51v2.15Z"/>
      <path class="cls-2" d="M61.5,204.37A1.5,1.5,0,0,1,63,202.89a1.44,1.44,0,0,1,1.07.44,1.42,1.42,0,0,1,.44,1,1.46,1.46,0,0,1-.44,1.07,1.44,1.44,0,0,1-1.06.44,1.46,1.46,0,0,1-1.06-.44A1.43,1.43,0,0,1,61.5,204.37Zm2.65,4.16v10H61.84v-10Z"/>
      <path class="cls-2" d="M69.46,210.68v7.83H67.15v-7.83h-.82v-2.15h.82v-3.86A4.18,4.18,0,0,1,67.8,202a3.23,3.23,0,0,1,2.63-1.08,4.45,4.45,0,0,1,1.54.36v2.35l-.23-.12a3,3,0,0,0-1.23-.38.84.84,0,0,0-.83.44,4.11,4.11,0,0,0-.22,1.66v3.3H72v2.15Z"/>
      <path class="cls-2" d="M76.45,210.68v7.83H74.14v-7.83h-1v-2.15h1v-3.66h2.31v3.66h1.79v2.15Z"/>
      <path class="cls-2" d="M80.23,201.19h2.31v8.17a4,4,0,0,1,2.71-1.11,3.53,3.53,0,0,1,2.71,1.1,4.42,4.42,0,0,1,.86,3v6.12H86.51v-5.9a2.85,2.85,0,0,0-.42-1.74,1.63,1.63,0,0,0-1.37-.54,1.88,1.88,0,0,0-1.7.75,5.12,5.12,0,0,0-.48,2.6v4.83H80.23Z"/>
      <path class="cls-2" d="M97.75,213.45a5,5,0,0,1,1.55-3.68,5.46,5.46,0,0,1,7.57,0,5.34,5.34,0,0,1,0,7.51A5.29,5.29,0,0,1,103,218.8a5.06,5.06,0,0,1-3.76-1.54A5.17,5.17,0,0,1,97.75,213.45Zm2.36,0a3.38,3.38,0,0,0,.8,2.37,3.12,3.12,0,0,0,4.33,0,3.76,3.76,0,0,0,0-4.66,3.08,3.08,0,0,0-4.31,0A3.21,3.21,0,0,0,100.11,213.49Z"/>
      <path class="cls-2" d="M113.24,210.68v7.83h-2.32v-7.83h-.82v-2.15h.82v-3.86a4.17,4.17,0,0,1,.66-2.67,3.21,3.21,0,0,1,2.62-1.08,4.5,4.5,0,0,1,1.55.36v2.35l-.24-.12a3,3,0,0,0-1.23-.38.85.85,0,0,0-.83.44,4.35,4.35,0,0,0-.21,1.66v3.3h2.51v2.15Z"/>
      <path class="cls-2" d="M130.92,208.53h2.32v10h-2.32v-1a4.43,4.43,0,0,1-6.49-.17,5.57,5.57,0,0,1-1.34-3.81,5.39,5.39,0,0,1,1.34-3.74,4.34,4.34,0,0,1,3.37-1.5,4.25,4.25,0,0,1,3.12,1.43Zm-5.47,5a3.51,3.51,0,0,0,.77,2.34,2.5,2.5,0,0,0,2,.91,2.65,2.65,0,0,0,2.07-.88,3.8,3.8,0,0,0,0-4.64,2.63,2.63,0,0,0-2.05-.89,2.54,2.54,0,0,0-2,.9A3.31,3.31,0,0,0,125.45,213.49Z"/>
      <path class="cls-2" d="M138.46,201.19v17.32h-2.31V201.19Z"/>
      <path class="cls-2" d="M143.69,201.19v17.32h-2.31V201.19Z"/>
      <path class="cls-2" d="M153,218.51l3.33-17,5.44,12.31,5.63-12.31,3,17h-2.45L166.39,209l-4.68,10.28L157.15,209l-1.7,9.56Z"/>
      <path class="cls-2" d="M185.42,203.53v2.83a6.65,6.65,0,0,0-4.28-1.73,5.44,5.44,0,0,0-4.11,1.75,5.89,5.89,0,0,0-1.69,4.27,5.73,5.73,0,0,0,1.69,4.2,5.55,5.55,0,0,0,4.12,1.71,5,5,0,0,0,2.14-.41,5.71,5.71,0,0,0,1-.55,11.6,11.6,0,0,0,1.11-.84v2.88a8.62,8.62,0,0,1-4.3,1.16,8,8,0,0,1-5.8-2.37,7.85,7.85,0,0,1-2.39-5.76,8.11,8.11,0,0,1,2-5.39,8,8,0,0,1,6.37-2.91A8.09,8.09,0,0,1,185.42,203.53Z"/>
      <path class="cls-2" d="M27.66,233.73v5.73c0,1.65.66,2.48,2,2.48s2-.83,2-2.48v-5.73h2.31v5.78a6.37,6.37,0,0,1-.3,2.07,3.34,3.34,0,0,1-1,1.4,4.34,4.34,0,0,1-3,1,4.33,4.33,0,0,1-3-1,3.49,3.49,0,0,1-1-1.4,5.73,5.73,0,0,1-.28-2.07v-5.78Z"/>
      <path class="cls-2" d="M42.6,235.43l-1.9,1c-.31-.61-.68-.92-1.12-.92a.79.79,0,0,0-.55.21.7.7,0,0,0-.22.54c0,.38.44.76,1.33,1.14a7.79,7.79,0,0,1,2.47,1.45,2.49,2.49,0,0,1,.64,1.8,3.16,3.16,0,0,1-1.07,2.42,3.83,3.83,0,0,1-6.06-1.53l2-.91a3.85,3.85,0,0,0,.63.91,1.41,1.41,0,0,0,1,.39c.78,0,1.17-.36,1.17-1.07,0-.41-.3-.79-.9-1.15l-.7-.33-.71-.34a4.26,4.26,0,0,1-1.41-1,2.4,2.4,0,0,1-.52-1.61,2.84,2.84,0,0,1,.89-2.15,3.11,3.11,0,0,1,2.21-.85A3,3,0,0,1,42.6,235.43Z"/>
      <path class="cls-2" d="M54.42,239.26H47.26a3,3,0,0,0,.8,2,2.66,2.66,0,0,0,3.24.31A5.72,5.72,0,0,0,52.56,240l1.95,1.09a7.75,7.75,0,0,1-1,1.32,5.28,5.28,0,0,1-1.07.9,4.66,4.66,0,0,1-1.24.52,6.08,6.08,0,0,1-1.45.16,4.69,4.69,0,0,1-3.59-1.44,5.38,5.38,0,0,1-1.35-3.83,5.57,5.57,0,0,1,1.31-3.84,4.53,4.53,0,0,1,3.51-1.44,4.48,4.48,0,0,1,3.48,1.4,5.53,5.53,0,0,1,1.28,3.87Zm-2.37-1.88a2.22,2.22,0,0,0-2.33-1.85,2.3,2.3,0,0,0-.79.13,2.09,2.09,0,0,0-.67.37,2.23,2.23,0,0,0-.52.58,2.84,2.84,0,0,0-.33.77Z"/>
      <path class="cls-2" d="M56.94,233.73h2.31v.89a4.09,4.09,0,0,1,1.12-.91,2.61,2.61,0,0,1,1.19-.26,3.78,3.78,0,0,1,1.91.59l-1.06,2.12a2.15,2.15,0,0,0-1.28-.48c-1.26,0-1.88.95-1.88,2.86v5.17H56.94Z"/>
      <path class="cls-2" d="M70.6,235.43l-1.91,1c-.3-.61-.67-.92-1.12-.92a.76.76,0,0,0-.54.21.71.71,0,0,0-.23.54c0,.38.45.76,1.33,1.14a8,8,0,0,1,2.48,1.45,2.53,2.53,0,0,1,.63,1.8,3.15,3.15,0,0,1-1.06,2.42,3.67,3.67,0,0,1-2.51.92,3.62,3.62,0,0,1-3.55-2.45l2-.91a4.57,4.57,0,0,0,.63.91,1.43,1.43,0,0,0,1,.39c.78,0,1.17-.36,1.17-1.07,0-.41-.3-.79-.9-1.15l-.7-.33-.7-.34a4.32,4.32,0,0,1-1.42-1,2.4,2.4,0,0,1-.52-1.61,2.87,2.87,0,0,1,.89-2.15,3.13,3.13,0,0,1,2.22-.85A3,3,0,0,1,70.6,235.43Z"/>
      <path class="cls-2" d="M79.45,229.57a1.5,1.5,0,0,1,1.49-1.48,1.44,1.44,0,0,1,1.07.44,1.42,1.42,0,0,1,.44,1.05,1.46,1.46,0,0,1-.44,1.07,1.44,1.44,0,0,1-1.06.44,1.46,1.46,0,0,1-1.06-.44A1.43,1.43,0,0,1,79.45,229.57Zm2.65,4.16v10H79.79v-10Z"/>
      <path class="cls-2" d="M85,233.73h2.32v.92a3.8,3.8,0,0,1,2.73-1.2,3.43,3.43,0,0,1,2.72,1.1,4.47,4.47,0,0,1,.84,3v6.12H91.31v-5.58a3.71,3.71,0,0,0-.41-2,1.67,1.67,0,0,0-1.46-.57,1.78,1.78,0,0,0-1.63.76,5.27,5.27,0,0,0-.47,2.61v4.82H85Z"/>
      <path class="cls-2" d="M98.92,235.88v7.83H96.61v-7.83h-1v-2.15h1v-3.66h2.31v3.66h1.79v2.15Z"/>
      <path class="cls-2" d="M111.56,239.26H104.4a3,3,0,0,0,.8,2,2.44,2.44,0,0,0,1.82.72,2.36,2.36,0,0,0,1.42-.41A5.72,5.72,0,0,0,109.7,240l2,1.09a8.31,8.31,0,0,1-1,1.32,5.61,5.61,0,0,1-1.08.9,4.4,4.4,0,0,1-1.24.52,5.94,5.94,0,0,1-1.44.16,4.69,4.69,0,0,1-3.59-1.44,5.34,5.34,0,0,1-1.36-3.83,5.53,5.53,0,0,1,1.32-3.84,5,5,0,0,1,7,0,5.52,5.52,0,0,1,1.27,3.87Zm-2.37-1.88a2.22,2.22,0,0,0-2.33-1.85,2.3,2.3,0,0,0-.79.13,2.2,2.2,0,0,0-.67.37,2.42,2.42,0,0,0-.52.58,2.55,2.55,0,0,0-.32.77Z"/>
      <path class="cls-2" d="M114.08,233.73h2.31v.89a4.1,4.1,0,0,1,1.13-.91,2.58,2.58,0,0,1,1.19-.26,3.74,3.74,0,0,1,1.9.59l-1,2.12a2.2,2.2,0,0,0-1.28-.48c-1.26,0-1.89.95-1.89,2.86v5.17h-2.31Z"/>
      <path class="cls-2" d="M129.16,233.73h2.31v10h-2.31v-1a4.43,4.43,0,0,1-6.49-.17,5.55,5.55,0,0,1-1.35-3.81,5.35,5.35,0,0,1,1.35-3.74,4.33,4.33,0,0,1,6.49-.07Zm-5.48,5a3.49,3.49,0,0,0,.77,2.34,2.55,2.55,0,0,0,2,.91,2.65,2.65,0,0,0,2.07-.88,3.8,3.8,0,0,0,0-4.64,2.63,2.63,0,0,0-2-.89,2.55,2.55,0,0,0-2,.9A3.31,3.31,0,0,0,123.68,238.69Z"/>
      <path class="cls-2" d="M142.16,234.16v3.06a5.68,5.68,0,0,0-1.42-1.32,2.71,2.71,0,0,0-1.44-.37,2.86,2.86,0,0,0-2.17.91,3.22,3.22,0,0,0-.86,2.29,3.29,3.29,0,0,0,.83,2.31,2.82,2.82,0,0,0,2.15.9,2.9,2.9,0,0,0,1.46-.36,5.85,5.85,0,0,0,1.45-1.35v3a6,6,0,0,1-2.81.73,5.37,5.37,0,0,1-3.88-1.5,5,5,0,0,1-1.56-3.74,5.06,5.06,0,0,1,1.58-3.77,5.35,5.35,0,0,1,3.88-1.54A5.84,5.84,0,0,1,142.16,234.16Z"/>
      <path class="cls-2" d="M146.77,235.88v7.83h-2.31v-7.83h-1v-2.15h1v-3.66h2.31v3.66h1.8v2.15Z"/>
      <path class="cls-2" d="M157.87,233.73l2.61,5.7,2.82-6.62,2.84,6.62,2.59-5.7h2.58l-5.23,10.73L163.3,238l-2.81,6.43-5.22-10.73Z"/>
      <path class="cls-2" d="M172.52,229.57a1.5,1.5,0,0,1,2.56-1,1.38,1.38,0,0,1,.44,1.05,1.5,1.5,0,0,1-1.49,1.51,1.5,1.5,0,0,1-1.51-1.52Zm2.66,4.16v10h-2.31v-10Z"/>
      <path class="cls-2" d="M180.48,235.88v7.83h-2.31v-7.83h-1v-2.15h1v-3.66h2.31v3.66h1.79v2.15Z"/>
      <path class="cls-2" d="M184.26,226.39h2.31v8.17a4,4,0,0,1,2.72-1.11,3.47,3.47,0,0,1,2.7,1.1,4.42,4.42,0,0,1,.86,3v6.12h-2.3v-5.9a2.85,2.85,0,0,0-.43-1.74,1.63,1.63,0,0,0-1.37-.54,1.89,1.89,0,0,0-1.7.75,5.14,5.14,0,0,0-.48,2.6v4.83h-2.31Z"/>
      <path class="cls-2" d="M40.44,260.63l-1.9,1c-.3-.61-.68-.92-1.12-.92a.76.76,0,0,0-.54.21.71.71,0,0,0-.23.54c0,.38.44.76,1.33,1.14a8,8,0,0,1,2.48,1.45,2.53,2.53,0,0,1,.63,1.8A3.12,3.12,0,0,1,40,268.28,3.83,3.83,0,0,1,34,266.75l2-.91a4.57,4.57,0,0,0,.63.91,1.41,1.41,0,0,0,1,.39c.78,0,1.17-.35,1.17-1.07q0-.61-.9-1.14l-.7-.34-.71-.34a4.26,4.26,0,0,1-1.41-1,2.4,2.4,0,0,1-.52-1.61,2.84,2.84,0,0,1,.89-2.15,3.12,3.12,0,0,1,2.21-.85A3,3,0,0,1,40.44,260.63Z"/>
      <path class="cls-2" d="M43.16,251.6h2.31v8.16a4,4,0,0,1,2.72-1.11,3.5,3.5,0,0,1,2.7,1.1,4.42,4.42,0,0,1,.86,3v6.12h-2.3V263a2.78,2.78,0,0,0-.43-1.74,1.63,1.63,0,0,0-1.37-.54,1.89,1.89,0,0,0-1.7.75,5.14,5.14,0,0,0-.48,2.6v4.83H43.16Z"/>
      <path class="cls-2" d="M62,258.93h2.32v10H62v-1a4.43,4.43,0,0,1-6.49-.17,5.53,5.53,0,0,1-1.34-3.81,5.35,5.35,0,0,1,1.34-3.74,4.32,4.32,0,0,1,3.36-1.5A4.25,4.25,0,0,1,62,260.09Zm-5.48,5a3.51,3.51,0,0,0,.77,2.34,2.52,2.52,0,0,0,2,.91,2.62,2.62,0,0,0,2.07-.88,3.8,3.8,0,0,0,0-4.64,2.61,2.61,0,0,0-2-.89,2.57,2.57,0,0,0-2,.9A3.36,3.36,0,0,0,56.56,263.89Z"/>
      <path class="cls-2" d="M67.27,258.93h2.31v.89a4.45,4.45,0,0,1,1.12-.91,2.51,2.51,0,0,1,1.19-.26,3.78,3.78,0,0,1,1.91.59l-1.06,2.12a2.15,2.15,0,0,0-1.28-.48c-1.25,0-1.88,1-1.88,2.86v5.17H67.27Z"/>
      <path class="cls-2" d="M75.09,254.77a1.51,1.51,0,0,1,3,0,1.46,1.46,0,0,1-.44,1.07,1.44,1.44,0,0,1-1.06.44,1.5,1.5,0,0,1-1.51-1.52Zm2.66,4.16v10H75.44v-10Z"/>
      <path class="cls-2" d="M80.67,258.93H83v.92a3.76,3.76,0,0,1,2.73-1.2,3.44,3.44,0,0,1,2.71,1.1,4.47,4.47,0,0,1,.84,3v6.12H87v-5.57a3.72,3.72,0,0,0-.41-2,1.68,1.68,0,0,0-1.46-.57,1.77,1.77,0,0,0-1.63.76,5.27,5.27,0,0,0-.47,2.61v4.82H80.67Z"/>
      <path class="cls-2" d="M101.84,268.68c0,.47,0,.88,0,1.24a7.29,7.29,0,0,1-.13.95,4.18,4.18,0,0,1-1,1.94A4.7,4.7,0,0,1,97,274.37a5,5,0,0,1-3.29-1.08,4.36,4.36,0,0,1-1.53-3.06h2.31a2.74,2.74,0,0,0,.44,1.14,2.49,2.49,0,0,0,2.09.93c1.69,0,2.54-1,2.54-3.11V267.8a4.33,4.33,0,0,1-3.17,1.4A4.22,4.22,0,0,1,93,267.72,5.43,5.43,0,0,1,91.71,264a5.79,5.79,0,0,1,1.22-3.71,4.25,4.25,0,0,1,3.47-1.62,4.05,4.05,0,0,1,3.14,1.4v-1.12h2.3Zm-2.21-4.74a3.37,3.37,0,0,0-.78-2.33,2.6,2.6,0,0,0-2-.89,2.47,2.47,0,0,0-2.07,1,4,4,0,0,0,0,4.49,2.5,2.5,0,0,0,2.07.95,2.53,2.53,0,0,0,2.09-1A3.45,3.45,0,0,0,99.63,263.94Z"/>
      <path class="cls-2" d="M111.24,258.93h2.3v.92a4.76,4.76,0,0,1,1.14-.94,2.67,2.67,0,0,1,1.26-.26,3.06,3.06,0,0,1,2.68,1.48,3.45,3.45,0,0,1,2.94-1.48q3.38,0,3.38,4.09v6.17h-2.32v-5.54a4.28,4.28,0,0,0-.35-2,1.25,1.25,0,0,0-1.18-.61,1.51,1.51,0,0,0-1.39.72,4.65,4.65,0,0,0-.43,2.31v5.15H117V263.4c0-1.78-.51-2.67-1.54-2.67a1.54,1.54,0,0,0-1.42.73,4.52,4.52,0,0,0-.45,2.3v5.15h-2.3Z"/>
      <path class="cls-2" d="M127.38,263.85a4.93,4.93,0,0,1,1.55-3.68,5.45,5.45,0,0,1,7.56,0,5.34,5.34,0,0,1,0,7.51,5.27,5.27,0,0,1-3.82,1.51,5.08,5.08,0,0,1-3.77-1.54A5.16,5.16,0,0,1,127.38,263.85Zm2.36,0a3.34,3.34,0,0,0,.8,2.37,3.1,3.1,0,0,0,4.32,0,3.76,3.76,0,0,0,0-4.66,2.83,2.83,0,0,0-2.16-.88,2.8,2.8,0,0,0-2.14.88A3.21,3.21,0,0,0,129.74,263.89Z"/>
      <path class="cls-2" d="M140.47,258.93h2.32v.92a3.78,3.78,0,0,1,2.73-1.2,3.44,3.44,0,0,1,2.71,1.1,4.47,4.47,0,0,1,.84,3v6.12h-2.31v-5.57a3.72,3.72,0,0,0-.41-2,1.68,1.68,0,0,0-1.46-.57,1.77,1.77,0,0,0-1.63.76,5.27,5.27,0,0,0-.47,2.61v4.82h-2.32Z"/>
      <path class="cls-2" d="M154.37,261.08v7.83h-2.31v-7.83h-1v-2.15h1v-3.66h2.31v3.66h1.79v2.15Z"/>
      <path class="cls-2" d="M158.15,251.6h2.31v8.16a4,4,0,0,1,2.71-1.11,3.53,3.53,0,0,1,2.71,1.1,4.42,4.42,0,0,1,.86,3v6.12h-2.31V263a2.85,2.85,0,0,0-.42-1.74,1.63,1.63,0,0,0-1.37-.54,1.88,1.88,0,0,0-1.7.75,5.14,5.14,0,0,0-.48,2.6v4.83h-2.31Z"/>
      <path class="cls-2" d="M172,251.6v17.31h-2.31V251.6Z"/>
      <path class="cls-2" d="M178.23,267.06l-4.49-8.13h2.67l3.06,5.74,2.85-5.74h2.6l-8,15.42h-2.63Z"/>
    </g>
    <g>
      <path class="cls-1" d="M51.74,182.26H45.86l-1,2.75H40.52l6-15.83H51l6,15.83H52.68Zm-1.09-3.13-1.85-5.27L47,179.13Z"/>
      <path class="cls-1" d="M66.52,177.73a3.51,3.51,0,0,0-2-.68,2.8,2.8,0,0,0-1,.19,2.59,2.59,0,0,0-.83.54,2.49,2.49,0,0,0-.56.82,2.74,2.74,0,0,0-.2,1.06,2.71,2.71,0,0,0,.2,1,2.75,2.75,0,0,0,.55.82,2.32,2.32,0,0,0,.83.53,2.7,2.7,0,0,0,1,.19,3.12,3.12,0,0,0,2-.73v3.23a6.63,6.63,0,0,1-2.66.61,6.22,6.22,0,0,1-2.24-.4,5.84,5.84,0,0,1-1.87-1.14A5.66,5.66,0,0,1,58.46,182,5.47,5.47,0,0,1,58,179.7a5.79,5.79,0,0,1,.47-2.34,5.35,5.35,0,0,1,1.26-1.83,5.7,5.7,0,0,1,1.9-1.2A6.55,6.55,0,0,1,64,173.9a5.67,5.67,0,0,1,2.56.59Z"/>
      <path class="cls-1" d="M72.93,177.41V185H69.12v-7.6H67.87v-3.17h1.25V171h3.81v3.23h2.16v3.17Z"/>
      <path class="cls-1" d="M76.56,170.1a2.12,2.12,0,0,1,.17-.83,2.1,2.1,0,0,1,.46-.68,2.15,2.15,0,0,1,.68-.46,2.12,2.12,0,0,1,.83-.17,2.09,2.09,0,0,1,.83.17,2.15,2.15,0,0,1,.68.46,2.3,2.3,0,0,1,.47.68,2.12,2.12,0,0,1,.16.83,2.08,2.08,0,0,1-.16.83,2.2,2.2,0,0,1-1.15,1.15,2.09,2.09,0,0,1-.83.17,2.12,2.12,0,0,1-.83-.17,2.33,2.33,0,0,1-.68-.46,2.14,2.14,0,0,1-.46-.69A2.09,2.09,0,0,1,76.56,170.1Zm4,4.14V185h-3.8V174.24Z"/>
      <path class="cls-1" d="M86.41,174.24,89,179.76l2.6-5.52h4.25L90.21,185H87.67l-5.55-10.77Z"/>
      <path class="cls-1" d="M100,180.27c0,1.64.77,2.45,2.31,2.45a2.07,2.07,0,0,0,1.87-1h3.67c-.74,2.46-2.6,3.69-5.56,3.69a7.13,7.13,0,0,1-2.5-.41,5.59,5.59,0,0,1-2-1.16A5.48,5.48,0,0,1,96.63,182a6.08,6.08,0,0,1-.44-2.35,6.66,6.66,0,0,1,.42-2.43,5,5,0,0,1,1.2-1.83,5.25,5.25,0,0,1,1.88-1.17,7.18,7.18,0,0,1,2.49-.41,7.05,7.05,0,0,1,2.46.41,4.92,4.92,0,0,1,1.84,1.19,5.15,5.15,0,0,1,1.16,1.9,7.67,7.67,0,0,1,.4,2.53v.4Zm4.45-2.21a2.32,2.32,0,0,0-.78-1.28,2.19,2.19,0,0,0-1.43-.48,2.15,2.15,0,0,0-1.43.46,2.07,2.07,0,0,0-.71,1.3Z"/>
      <path class="cls-1" d="M121.81,169.18v8.61c0,.46,0,.93.06,1.42a3.87,3.87,0,0,0,.31,1.31,2.17,2.17,0,0,0,.83.95,2.89,2.89,0,0,0,1.6.37,2.82,2.82,0,0,0,1.58-.37,2.24,2.24,0,0,0,.83-.95,3.88,3.88,0,0,0,.33-1.31c0-.49.05-1,.05-1.42v-8.61h4.09v9.18q0,3.69-1.69,5.39c-1.12,1.14-2.86,1.7-5.19,1.7s-4.08-.56-5.21-1.7-1.7-2.93-1.7-5.39v-9.18Z"/>
      <path class="cls-1" d="M141.6,177a4.53,4.53,0,0,0-2.06-.54,1.53,1.53,0,0,0-.85.21.64.64,0,0,0-.33.56.87.87,0,0,0,0,.31.7.7,0,0,0,.23.22,2.24,2.24,0,0,0,.53.19l.91.21a4.39,4.39,0,0,1,2.36,1.12,2.9,2.9,0,0,1,.77,2.07,3.64,3.64,0,0,1-.38,1.7,3.58,3.58,0,0,1-1.05,1.27,5,5,0,0,1-1.61.8,7.22,7.22,0,0,1-2.08.28,8.43,8.43,0,0,1-4.31-1.24l1.39-2.68a5.46,5.46,0,0,0,3,1.09,1.51,1.51,0,0,0,.86-.23.69.69,0,0,0,.34-.59,1.13,1.13,0,0,0,0-.35.63.63,0,0,0-.22-.25,1.7,1.7,0,0,0-.5-.21c-.21-.06-.5-.13-.85-.2a4.88,4.88,0,0,1-2.46-1.06,2.63,2.63,0,0,1-.71-1.94,3.74,3.74,0,0,1,.34-1.63,3.37,3.37,0,0,1,1-1.23,4.6,4.6,0,0,1,1.53-.78,6.77,6.77,0,0,1,2-.27,9.06,9.06,0,0,1,3.47.69Z"/>
      <path class="cls-1" d="M148.57,180.27c0,1.64.77,2.45,2.31,2.45a2.07,2.07,0,0,0,1.87-1h3.67c-.74,2.46-2.6,3.69-5.56,3.69a7.13,7.13,0,0,1-2.5-.41,5.59,5.59,0,0,1-2-1.16,5.31,5.31,0,0,1-1.24-1.81,5.9,5.9,0,0,1-.45-2.35,6.66,6.66,0,0,1,.42-2.43,5,5,0,0,1,1.2-1.83,5.25,5.25,0,0,1,1.88-1.17,7.22,7.22,0,0,1,2.49-.41,7.05,7.05,0,0,1,2.46.41,4.92,4.92,0,0,1,1.84,1.19,5.15,5.15,0,0,1,1.16,1.9,7.42,7.42,0,0,1,.4,2.53v.4Zm4.45-2.21a2.32,2.32,0,0,0-.78-1.28,2.19,2.19,0,0,0-1.43-.48,2.15,2.15,0,0,0-1.43.46,2.07,2.07,0,0,0-.71,1.3Z"/>
      <path class="cls-1" d="M158.73,174.24h3.8V176a4.48,4.48,0,0,1,1.49-1.48,4.06,4.06,0,0,1,2.06-.51h.33a2.17,2.17,0,0,1,.41,0v3.63a3.65,3.65,0,0,0-1.64-.37,2.47,2.47,0,0,0-2,.78,3.5,3.5,0,0,0-.66,2.3V185h-3.8Z"/>
      <path class="cls-1" d="M175.59,177a4.46,4.46,0,0,0-2.05-.54,1.53,1.53,0,0,0-.85.21.64.64,0,0,0-.33.56.87.87,0,0,0,0,.31.61.61,0,0,0,.23.22,2.24,2.24,0,0,0,.53.19l.91.21a4.32,4.32,0,0,1,2.35,1.12,2.86,2.86,0,0,1,.78,2.07,3.76,3.76,0,0,1-.38,1.7,3.58,3.58,0,0,1-1.05,1.27,5.06,5.06,0,0,1-1.61.8,7.22,7.22,0,0,1-2.08.28,8.43,8.43,0,0,1-4.31-1.24l1.39-2.68a5.46,5.46,0,0,0,3,1.09,1.51,1.51,0,0,0,.86-.23.69.69,0,0,0,.34-.59,1.13,1.13,0,0,0,0-.35.63.63,0,0,0-.22-.25,1.7,1.7,0,0,0-.5-.21c-.21-.06-.5-.13-.85-.2a4.92,4.92,0,0,1-2.47-1.06,2.62,2.62,0,0,1-.7-1.94,3.74,3.74,0,0,1,.34-1.63,3.37,3.37,0,0,1,1-1.23,4.6,4.6,0,0,1,1.53-.78,6.77,6.77,0,0,1,2-.27,9.1,9.1,0,0,1,3.47.69Z"/>
    </g>
    <g>
      <path class="cls-1" d="M81.54,139.51H51.19l9.35-9.7c2.46-2.56,4.4-4.74,5.79-6.52a34,34,0,0,0,3.13-4.53,12.09,12.09,0,0,0,1.28-3,9.8,9.8,0,0,0,.25-2,5.2,5.2,0,0,0-.28-1.65,4.15,4.15,0,0,0-.83-1.42,4,4,0,0,0-1.32-1,4.14,4.14,0,0,0-1.82-.38,3.94,3.94,0,0,0-3.13,1.3,4.79,4.79,0,0,0-1.12,3.25,13.78,13.78,0,0,0,.14,1.6H51.94a16,16,0,0,1,1.07-6,13.67,13.67,0,0,1,3-4.65,13.28,13.28,0,0,1,4.62-3,15.93,15.93,0,0,1,5.88-1,16.66,16.66,0,0,1,5.82,1,14,14,0,0,1,4.63,2.8A13,13,0,0,1,80,108.89a13.12,13.12,0,0,1,1.09,5.37A12.57,12.57,0,0,1,79.81,120a19.91,19.91,0,0,1-4.23,5.37l-6.25,5.85H81.54Z"/>
      <path class="cls-1" d="M84.79,120.61A26.83,26.83,0,0,1,86,112.44a18.85,18.85,0,0,1,3.3-6.28,14.94,14.94,0,0,1,5-4,14.81,14.81,0,0,1,18,4,19.37,19.37,0,0,1,3.27,6.28,29.15,29.15,0,0,1,0,16.35,19.58,19.58,0,0,1-3.27,6.3,15,15,0,0,1-18,4,14.79,14.79,0,0,1-5-4,19.05,19.05,0,0,1-3.3-6.3A26.89,26.89,0,0,1,84.79,120.61Zm9.69,0a21.19,21.19,0,0,0,.45,4.55,13.19,13.19,0,0,0,1.28,3.55,7,7,0,0,0,2,2.33,4.5,4.5,0,0,0,5.18,0,6.52,6.52,0,0,0,2-2.33,13.19,13.19,0,0,0,1.25-3.55,22.58,22.58,0,0,0,0-9.07,12.83,12.83,0,0,0-1.25-3.55,6.5,6.5,0,0,0-2-2.3,4.46,4.46,0,0,0-5.18,0,6.93,6.93,0,0,0-2,2.3,12.83,12.83,0,0,0-1.28,3.55A21.31,21.31,0,0,0,94.48,120.61Z"/>
      <path class="cls-1" d="M119.68,110.46a9,9,0,0,1,.78-3.8,8,8,0,0,1,2.17-2.85A10.39,10.39,0,0,1,126,102a13.67,13.67,0,0,1,4.27-.63,11.54,11.54,0,0,1,4,.68,9.75,9.75,0,0,1,3.2,1.87,8.37,8.37,0,0,1,2.1,2.88,8.89,8.89,0,0,1,.75,3.67,9.3,9.3,0,0,1-.77,3.88,8.68,8.68,0,0,1-2.15,3,9.37,9.37,0,0,1-3.3,1.87,12.94,12.94,0,0,1-4.23.65,10.54,10.54,0,0,1-7.4-2.52A8.89,8.89,0,0,1,119.68,110.46Zm6,.1a4.27,4.27,0,0,0,1.2,3,4,4,0,0,0,3,1.3,3.83,3.83,0,0,0,1.63-.35,4.55,4.55,0,0,0,1.35-.92,4.42,4.42,0,0,0,.92-1.35,3.83,3.83,0,0,0,.35-1.63,3.91,3.91,0,0,0-.35-1.67,4.18,4.18,0,0,0-.95-1.35,4.52,4.52,0,0,0-1.37-.9,4,4,0,0,0-1.58-.33,4.14,4.14,0,0,0-3,1.23A4,4,0,0,0,125.73,110.56Zm25.85-8.75h4.85l-21.85,37.7h-4.9Zm-5.7,28.75a8.83,8.83,0,0,1,.78-3.77,8.2,8.2,0,0,1,2.15-2.85,9.47,9.47,0,0,1,3.32-1.8,14,14,0,0,1,4.3-.63,11.87,11.87,0,0,1,4.1.68,9.2,9.2,0,0,1,3.18,1.9,8.8,8.8,0,0,1,2.82,6.52,9.52,9.52,0,0,1-.75,3.83,8.34,8.34,0,0,1-2.12,2.95,9.75,9.75,0,0,1-3.3,1.9,12.86,12.86,0,0,1-4.28.67,12.5,12.5,0,0,1-4.17-.65,9.15,9.15,0,0,1-3.23-1.87,8.16,8.16,0,0,1-2.07-3A9.93,9.93,0,0,1,145.88,130.56Zm6.1.1a4.18,4.18,0,0,0,1.23,3.05,4.26,4.26,0,0,0,7.27-3,3.88,3.88,0,0,0-.35-1.67,4.18,4.18,0,0,0-.95-1.35,4.35,4.35,0,0,0-1.37-.9,4,4,0,0,0-1.58-.33,4.24,4.24,0,0,0-2.95,1.2A3.94,3.94,0,0,0,152,130.66Z"/>
    </g>
  </g>
  <g>
    <path class="cls-2" d="M798.19,202.78v2.83a6.67,6.67,0,0,0-4.29-1.73,5.44,5.44,0,0,0-4.11,1.75,5.92,5.92,0,0,0-1.68,4.27,5.76,5.76,0,0,0,1.68,4.2,5.55,5.55,0,0,0,4.12,1.71,5,5,0,0,0,2.14-.41,5.71,5.71,0,0,0,1-.55,13,13,0,0,0,1.12-.84v2.88a8.69,8.69,0,0,1-4.31,1.16,8,8,0,0,1-5.8-2.37,7.84,7.84,0,0,1-2.38-5.76,8.06,8.06,0,0,1,2-5.39,7.94,7.94,0,0,1,6.36-2.91A8.15,8.15,0,0,1,798.19,202.78Z"/>
    <path class="cls-2" d="M800.29,212.7a4.93,4.93,0,0,1,1.55-3.68,5.14,5.14,0,0,1,3.77-1.52A5.21,5.21,0,0,1,809.4,209a5.34,5.34,0,0,1,0,7.51,5.27,5.27,0,0,1-3.82,1.51,5.08,5.08,0,0,1-3.77-1.54A5.16,5.16,0,0,1,800.29,212.7Zm2.36,0a3.34,3.34,0,0,0,.8,2.37,3.1,3.1,0,0,0,4.32,0,3.76,3.76,0,0,0,0-4.66,2.83,2.83,0,0,0-2.16-.88,2.8,2.8,0,0,0-2.14.88A3.21,3.21,0,0,0,802.65,212.74Z"/>
    <path class="cls-2" d="M813.38,207.78h2.32v.92a3.78,3.78,0,0,1,2.73-1.2,3.44,3.44,0,0,1,2.71,1.1,4.47,4.47,0,0,1,.84,3v6.12h-2.31v-5.57a3.72,3.72,0,0,0-.41-2.05,1.68,1.68,0,0,0-1.46-.57,1.78,1.78,0,0,0-1.63.76,5.27,5.27,0,0,0-.47,2.61v4.82h-2.32Z"/>
    <path class="cls-2" d="M827.28,209.93v7.83H825v-7.83h-1v-2.15h1v-3.66h2.31v3.66h1.79v2.15Z"/>
    <path class="cls-2" d="M830.29,203.62a1.5,1.5,0,0,1,2.56-1,1.38,1.38,0,0,1,.44,1,1.5,1.5,0,0,1-1.49,1.51,1.5,1.5,0,0,1-1.51-1.52Zm2.66,4.16v10h-2.31v-10Z"/>
    <path class="cls-2" d="M835.87,207.78h2.32v.92a3.76,3.76,0,0,1,2.72-1.2,3.45,3.45,0,0,1,2.72,1.1,4.47,4.47,0,0,1,.84,3v6.12h-2.32v-5.57a3.64,3.64,0,0,0-.41-2.05,1.65,1.65,0,0,0-1.45-.57,1.77,1.77,0,0,0-1.63.76,5.16,5.16,0,0,0-.47,2.61v4.82h-2.32Z"/>
    <path class="cls-2" d="M849.69,207.78v5.73c0,1.65.65,2.48,2,2.48s2-.83,2-2.48v-5.73h2.3v5.78a6.38,6.38,0,0,1-.29,2.07,3.53,3.53,0,0,1-1,1.41,4.4,4.4,0,0,1-3,1,4.35,4.35,0,0,1-3-1,3.59,3.59,0,0,1-1-1.41,5.73,5.73,0,0,1-.29-2.07v-5.78Z"/>
    <path class="cls-2" d="M867.92,213.31h-7.16a3.08,3.08,0,0,0,.8,2,2.46,2.46,0,0,0,1.82.72,2.36,2.36,0,0,0,1.42-.41,5.91,5.91,0,0,0,1.27-1.52l1.94,1.09a7.73,7.73,0,0,1-1,1.32,5.07,5.07,0,0,1-1.08.9,4.4,4.4,0,0,1-1.24.52,5.94,5.94,0,0,1-1.44.16,4.72,4.72,0,0,1-3.59-1.43,5.42,5.42,0,0,1-1.35-3.84,5.48,5.48,0,0,1,1.31-3.83,5,5,0,0,1,7,0,5.52,5.52,0,0,1,1.27,3.87Zm-2.37-1.88a2.21,2.21,0,0,0-2.32-1.85,2.36,2.36,0,0,0-1.47.5,2.2,2.2,0,0,0-.51.58,2.33,2.33,0,0,0-.33.77Z"/>
    <path class="cls-2" d="M877.81,200.44h2.31v17.32h-2.31v-1a4.3,4.3,0,0,1-3.09,1.33,4.37,4.37,0,0,1-3.4-1.5,5.53,5.53,0,0,1-1.35-3.81,5.35,5.35,0,0,1,1.35-3.73,4.32,4.32,0,0,1,6.49-.08Zm-5.48,12.3a3.51,3.51,0,0,0,.77,2.34,2.52,2.52,0,0,0,2,.91,2.65,2.65,0,0,0,2.07-.88,3.8,3.8,0,0,0,0-4.64,2.63,2.63,0,0,0-2-.89,2.55,2.55,0,0,0-2,.9A3.31,3.31,0,0,0,872.33,212.74Z"/>
    <path class="cls-2" d="M896.88,200.44h2.32v17.32h-2.32v-1a4.3,4.3,0,0,1-3.09,1.33,4.39,4.39,0,0,1-3.4-1.5,5.53,5.53,0,0,1-1.35-3.81,5.35,5.35,0,0,1,1.35-3.73,4.32,4.32,0,0,1,6.49-.08Zm-5.48,12.3a3.51,3.51,0,0,0,.77,2.34,2.52,2.52,0,0,0,2,.91,2.62,2.62,0,0,0,2.07-.88,3.8,3.8,0,0,0,0-4.64,2.61,2.61,0,0,0-2.05-.89,2.57,2.57,0,0,0-2,.9A3.36,3.36,0,0,0,891.4,212.74Z"/>
    <path class="cls-2" d="M911.2,213.31h-7.15a3,3,0,0,0,.8,2,2.66,2.66,0,0,0,3.24.31,5.72,5.72,0,0,0,1.26-1.52l1.95,1.09a7.75,7.75,0,0,1-1,1.32,5.28,5.28,0,0,1-1.07.9,4.66,4.66,0,0,1-1.24.52,6.08,6.08,0,0,1-1.45.16,4.72,4.72,0,0,1-3.59-1.43,5.42,5.42,0,0,1-1.35-3.84A5.48,5.48,0,0,1,903,209a5,5,0,0,1,7,0,5.52,5.52,0,0,1,1.27,3.87Zm-2.37-1.88a2.21,2.21,0,0,0-2.32-1.85,2.26,2.26,0,0,0-.79.13,2.09,2.09,0,0,0-.67.37,2.06,2.06,0,0,0-.52.58,2.56,2.56,0,0,0-.33.77Z"/>
    <path class="cls-2" d="M916,200.44v17.32h-2.3V200.44Z"/>
    <path class="cls-2" d="M918.61,203.62a1.5,1.5,0,0,1,1.49-1.48,1.5,1.5,0,0,1,1.51,1.49,1.46,1.46,0,0,1-.44,1.07,1.44,1.44,0,0,1-1.06.44,1.46,1.46,0,0,1-1.06-.44A1.43,1.43,0,0,1,918.61,203.62Zm2.65,4.16v10H919v-10Z"/>
    <path class="cls-2" d="M925.43,207.78l2.58,5.6,2.57-5.6h2.6L928,218.45l-5.15-10.67Z"/>
    <path class="cls-2" d="M943.47,213.31h-7.15a3,3,0,0,0,.8,2,2.66,2.66,0,0,0,3.24.31,6.13,6.13,0,0,0,1.26-1.52l1.94,1.09a7.73,7.73,0,0,1-.95,1.32,5.28,5.28,0,0,1-1.07.9,4.59,4.59,0,0,1-1.25.52,5.94,5.94,0,0,1-1.44.16,4.72,4.72,0,0,1-3.59-1.43,5.42,5.42,0,0,1-1.35-3.84,5.48,5.48,0,0,1,1.31-3.83,5,5,0,0,1,7,0,5.52,5.52,0,0,1,1.27,3.87Zm-2.37-1.88a2.21,2.21,0,0,0-2.32-1.85,2.36,2.36,0,0,0-1.47.5,2.2,2.2,0,0,0-.51.58,2.33,2.33,0,0,0-.33.77Z"/>
    <path class="cls-2" d="M946,207.78h2.3v.89a4.26,4.26,0,0,1,1.13-.91,2.49,2.49,0,0,1,1.19-.26,3.8,3.8,0,0,1,1.91.59l-1.06,2.12a2.17,2.17,0,0,0-1.28-.48q-1.89,0-1.89,2.85v5.18H946Z"/>
    <path class="cls-2" d="M957.92,215.91l-4.49-8.13h2.68l3,5.74,2.85-5.74h2.61l-8,15.42H954Z"/>
    <path class="cls-2" d="M972.19,212.7a5,5,0,0,1,1.55-3.68,5.46,5.46,0,0,1,7.57,0,5.34,5.34,0,0,1,0,7.51,5.29,5.29,0,0,1-3.83,1.51,5.06,5.06,0,0,1-3.76-1.54A5.17,5.17,0,0,1,972.19,212.7Zm2.36,0a3.38,3.38,0,0,0,.8,2.37,3.12,3.12,0,0,0,4.33,0,3.76,3.76,0,0,0,0-4.66,3.08,3.08,0,0,0-4.31,0A3.25,3.25,0,0,0,974.55,212.74Z"/>
    <path class="cls-2" d="M987.68,209.93v7.83h-2.32v-7.83h-.82v-2.15h.82v-3.86a4.17,4.17,0,0,1,.66-2.67,3.21,3.21,0,0,1,2.62-1.08,4.5,4.5,0,0,1,1.55.36v2.35l-.24-.12a3,3,0,0,0-1.23-.38.85.85,0,0,0-.83.44,4.35,4.35,0,0,0-.21,1.66v3.3h2.51v2.15Z"/>
    <path class="cls-2" d="M819.94,225.64V243h-2.3V225.64Z"/>
    <path class="cls-2" d="M822.39,237.9a5,5,0,0,1,1.55-3.68,5.46,5.46,0,0,1,7.57,0,5.34,5.34,0,0,1,0,7.51,5.27,5.27,0,0,1-3.82,1.51,5.07,5.07,0,0,1-3.77-1.54A5.17,5.17,0,0,1,822.39,237.9Zm2.36,0a3.38,3.38,0,0,0,.8,2.37,3.12,3.12,0,0,0,4.33,0,3.76,3.76,0,0,0,0-4.66,3.08,3.08,0,0,0-4.31,0A3.25,3.25,0,0,0,824.75,237.94Z"/>
    <path class="cls-2" d="M835.49,233h2.32v.92a3.76,3.76,0,0,1,2.72-1.2,3.41,3.41,0,0,1,2.72,1.1,4.47,4.47,0,0,1,.84,3V243h-2.31v-5.58a3.71,3.71,0,0,0-.41-2,1.68,1.68,0,0,0-1.46-.57,1.77,1.77,0,0,0-1.63.76,5.16,5.16,0,0,0-.47,2.61V243h-2.32Z"/>
    <path class="cls-2" d="M856.66,242.73c0,.47,0,.89,0,1.24a9.53,9.53,0,0,1-.13.95,4.28,4.28,0,0,1-1,1.94,4.7,4.7,0,0,1-3.73,1.56,5,5,0,0,1-3.29-1.08,4.41,4.41,0,0,1-1.54-3.06h2.32a2.64,2.64,0,0,0,.44,1.13,2.47,2.47,0,0,0,2.09.94c1.69,0,2.54-1,2.54-3.11v-1.39a4.35,4.35,0,0,1-3.17,1.4,4.22,4.22,0,0,1-3.34-1.48,5.43,5.43,0,0,1-1.32-3.74,5.79,5.79,0,0,1,1.22-3.71,4.25,4.25,0,0,1,3.47-1.62,4.05,4.05,0,0,1,3.14,1.4V233h2.3ZM854.45,238a3.37,3.37,0,0,0-.78-2.33,2.6,2.6,0,0,0-2-.89,2.49,2.49,0,0,0-2.07,1,3.56,3.56,0,0,0-.69,2.26,3.52,3.52,0,0,0,.69,2.24,2.5,2.5,0,0,0,2.07.95,2.53,2.53,0,0,0,2.09-1A3.47,3.47,0,0,0,854.45,238Z"/>
    <path class="cls-2" d="M866.06,233h2.3v.89a4.26,4.26,0,0,1,1.13-.91,2.61,2.61,0,0,1,1.19-.26,3.8,3.8,0,0,1,1.91.59l-1.06,2.12a2.17,2.17,0,0,0-1.28-.48c-1.26,0-1.89.95-1.89,2.86V243h-2.3Z"/>
    <path class="cls-2" d="M882.86,238.51h-7.15a3,3,0,0,0,.79,2,2.46,2.46,0,0,0,1.82.72,2.42,2.42,0,0,0,1.43-.41,5.92,5.92,0,0,0,1.26-1.52l2,1.09a8.33,8.33,0,0,1-1,1.32,5.07,5.07,0,0,1-1.08.9,4.4,4.4,0,0,1-1.24.52,5.94,5.94,0,0,1-1.44.16,4.69,4.69,0,0,1-3.59-1.44,5.38,5.38,0,0,1-1.36-3.83,5.53,5.53,0,0,1,1.32-3.84,5,5,0,0,1,7,0,5.52,5.52,0,0,1,1.27,3.87Zm-2.37-1.88a2.21,2.21,0,0,0-2.32-1.85,2.26,2.26,0,0,0-.79.13,2.09,2.09,0,0,0-.67.37,2.06,2.06,0,0,0-.52.58,2.33,2.33,0,0,0-.33.77Z"/>
    <path class="cls-2" d="M892.75,248.4v-6.55a4.37,4.37,0,0,1-6.49-.09,5.35,5.35,0,0,1-1.35-3.74,5.52,5.52,0,0,1,1.35-3.8,4.35,4.35,0,0,1,3.39-1.52,4.26,4.26,0,0,1,3.1,1.36V233h2.31V248.4Zm-5.48-10.48a3.47,3.47,0,0,0,.78,2.35,2.49,2.49,0,0,0,2,.92,2.63,2.63,0,0,0,2.06-.88,3.78,3.78,0,0,0,0-4.64,2.63,2.63,0,0,0-2.05-.89,2.55,2.55,0,0,0-2,.9A3.35,3.35,0,0,0,887.27,237.92Z"/>
    <path class="cls-2" d="M900.52,233v5.73c0,1.65.65,2.48,2,2.48s2-.83,2-2.48V233h2.3v5.78a6.67,6.67,0,0,1-.29,2.07,3.53,3.53,0,0,1-1,1.4,4.83,4.83,0,0,1-5.94,0,3.56,3.56,0,0,1-1-1.4,5.69,5.69,0,0,1-.29-2.07V233Z"/>
    <path class="cls-2" d="M918.75,238.51h-7.16a3.08,3.08,0,0,0,.8,2,2.46,2.46,0,0,0,1.82.72,2.36,2.36,0,0,0,1.42-.41,5.72,5.72,0,0,0,1.26-1.52l2,1.09a8.31,8.31,0,0,1-1,1.32,5.33,5.33,0,0,1-1.08.9,4.4,4.4,0,0,1-1.24.52,5.94,5.94,0,0,1-1.44.16,4.69,4.69,0,0,1-3.59-1.44,5.34,5.34,0,0,1-1.36-3.83,5.53,5.53,0,0,1,1.32-3.84,5,5,0,0,1,7,0,5.52,5.52,0,0,1,1.27,3.87Zm-2.37-1.88a2.39,2.39,0,0,0-3.11-1.72,2.14,2.14,0,0,0-.68.37,2.2,2.2,0,0,0-.51.58,2.33,2.33,0,0,0-.33.77Z"/>
    <path class="cls-2" d="M927.08,234.68l-1.91,1c-.3-.61-.67-.92-1.12-.92a.76.76,0,0,0-.54.21.71.71,0,0,0-.23.54c0,.38.45.76,1.34,1.14a8,8,0,0,1,2.47,1.45,2.53,2.53,0,0,1,.63,1.8,3.15,3.15,0,0,1-1.06,2.42,3.67,3.67,0,0,1-2.51.92,3.62,3.62,0,0,1-3.55-2.45l2-.91a4.25,4.25,0,0,0,.62.91,1.44,1.44,0,0,0,1,.39c.77,0,1.17-.36,1.17-1.07,0-.41-.31-.79-.91-1.15l-.69-.33-.71-.34a4.44,4.44,0,0,1-1.42-1,2.4,2.4,0,0,1-.52-1.61,2.87,2.87,0,0,1,.89-2.15,3.13,3.13,0,0,1,2.22-.85A3,3,0,0,1,927.08,234.68Z"/>
    <path class="cls-2" d="M932.17,235.13V243h-2.3v-7.83h-1V233h1v-3.66h2.3V233H934v2.15Z"/>
    <path class="cls-2" d="M944.82,238.51h-7.16a3,3,0,0,0,.8,2,2.43,2.43,0,0,0,1.81.72,2.4,2.4,0,0,0,1.43-.41,5.72,5.72,0,0,0,1.26-1.52l1.95,1.09a8.31,8.31,0,0,1-.95,1.32,5.61,5.61,0,0,1-1.08.9,4.53,4.53,0,0,1-1.24.52,6.08,6.08,0,0,1-1.45.16,4.71,4.71,0,0,1-3.59-1.44,5.38,5.38,0,0,1-1.35-3.83,5.57,5.57,0,0,1,1.31-3.84,4.53,4.53,0,0,1,3.51-1.44,4.48,4.48,0,0,1,3.48,1.4,5.53,5.53,0,0,1,1.28,3.87Zm-2.37-1.88a2.22,2.22,0,0,0-2.33-1.85,2.3,2.3,0,0,0-.79.13,2.09,2.09,0,0,0-.67.37,2.42,2.42,0,0,0-.52.58,2.84,2.84,0,0,0-.33.77Z"/>
    <path class="cls-2" d="M954.7,225.64H957V243H954.7v-1a4.3,4.3,0,0,1-3.08,1.33,4.39,4.39,0,0,1-3.41-1.5,5.54,5.54,0,0,1-1.34-3.81,5.36,5.36,0,0,1,1.34-3.73,4.32,4.32,0,0,1,6.49-.08Zm-5.47,12.3a3.49,3.49,0,0,0,.76,2.34,2.55,2.55,0,0,0,2,.91,2.62,2.62,0,0,0,2.07-.88,3.76,3.76,0,0,0,0-4.64,2.6,2.6,0,0,0-2-.89,2.53,2.53,0,0,0-2,.9A3.31,3.31,0,0,0,949.23,237.94Z"/>
    <path class="cls-2" d="M818,258.18h2.32v10H818v-1a4.43,4.43,0,0,1-6.49-.17,5.57,5.57,0,0,1-1.34-3.81,5.39,5.39,0,0,1,1.34-3.74,4.34,4.34,0,0,1,3.36-1.5,4.23,4.23,0,0,1,3.13,1.44Zm-5.47,5a3.44,3.44,0,0,0,.77,2.34,2.5,2.5,0,0,0,2,.91,2.65,2.65,0,0,0,2.08-.88,3.8,3.8,0,0,0,0-4.64,2.63,2.63,0,0,0-2-.89,2.54,2.54,0,0,0-2,.9A3.31,3.31,0,0,0,812.57,263.14Z"/>
    <path class="cls-2" d="M831,258.61v3.06a5.5,5.5,0,0,0-1.41-1.32,2.72,2.72,0,0,0-1.45-.37,2.86,2.86,0,0,0-2.16.91,3.22,3.22,0,0,0-.86,2.29,3.29,3.29,0,0,0,.83,2.31,2.79,2.79,0,0,0,2.14.9,2.94,2.94,0,0,0,1.47-.36,5.67,5.67,0,0,0,1.44-1.35v3a6,6,0,0,1-2.81.73,5.37,5.37,0,0,1-3.87-1.5,5,5,0,0,1-1.56-3.74,5.06,5.06,0,0,1,1.58-3.77,5.31,5.31,0,0,1,3.87-1.54A5.68,5.68,0,0,1,831,258.61Z"/>
    <path class="cls-2" d="M841.05,258.61v3.06a5.67,5.67,0,0,0-1.41-1.32,2.74,2.74,0,0,0-1.45-.37,2.86,2.86,0,0,0-2.16.91,3.18,3.18,0,0,0-.86,2.29,3.24,3.24,0,0,0,.83,2.31,2.79,2.79,0,0,0,2.14.9,3,3,0,0,0,1.47-.36,5.67,5.67,0,0,0,1.44-1.35v3a6,6,0,0,1-2.81.73,5.37,5.37,0,0,1-3.87-1.5,5.28,5.28,0,0,1,0-7.51,5.31,5.31,0,0,1,3.87-1.54A5.68,5.68,0,0,1,841.05,258.61Z"/>
    <path class="cls-2" d="M842.82,263.1a5,5,0,0,1,1.54-3.68,5.46,5.46,0,0,1,7.57,0,5.34,5.34,0,0,1,0,7.51,5.27,5.27,0,0,1-3.82,1.51,5.07,5.07,0,0,1-3.77-1.54A5.16,5.16,0,0,1,842.82,263.1Zm2.35,0a3.38,3.38,0,0,0,.8,2.37,3.12,3.12,0,0,0,4.33,0,3.76,3.76,0,0,0,0-4.66,3.08,3.08,0,0,0-4.31,0A3.25,3.25,0,0,0,845.17,263.14Z"/>
    <path class="cls-2" d="M858.22,258.18v5.73c0,1.65.65,2.48,2,2.48s2-.83,2-2.48v-5.73h2.31V264a6.37,6.37,0,0,1-.3,2.07,3.5,3.5,0,0,1-1,1.41,4.87,4.87,0,0,1-5.94,0,3.46,3.46,0,0,1-1-1.41,5.69,5.69,0,0,1-.29-2.07v-5.78Z"/>
    <path class="cls-2" d="M867.35,258.18h2.32v.92a3.8,3.8,0,0,1,2.73-1.2,3.46,3.46,0,0,1,2.72,1.1,4.47,4.47,0,0,1,.84,3v6.12h-2.32v-5.57a3.72,3.72,0,0,0-.41-2,1.67,1.67,0,0,0-1.46-.57,1.78,1.78,0,0,0-1.63.76,5.27,5.27,0,0,0-.47,2.61v4.82h-2.32Z"/>
    <path class="cls-2" d="M881.25,260.33v7.83h-2.31v-7.83h-1v-2.15h1v-3.66h2.31v3.66H883v2.15Z"/>
    <path class="cls-2" d="M893.48,260.33v7.83h-2.32v-7.83h-.82v-2.15h.82v-3.86a4.17,4.17,0,0,1,.66-2.67,3.21,3.21,0,0,1,2.62-1.08,4.5,4.5,0,0,1,1.55.36v2.36l-.23-.13a3,3,0,0,0-1.23-.38.84.84,0,0,0-.83.44,4.11,4.11,0,0,0-.22,1.66v3.3H896v2.15Z"/>
    <path class="cls-2" d="M906.74,263.71h-7.16a3,3,0,0,0,.8,2,2.44,2.44,0,0,0,1.82.72,2.36,2.36,0,0,0,1.42-.41,5.72,5.72,0,0,0,1.26-1.52l2,1.09a8.31,8.31,0,0,1-1,1.32,5.61,5.61,0,0,1-1.08.9,4.53,4.53,0,0,1-1.24.52,6,6,0,0,1-1.45.16,4.7,4.7,0,0,1-3.58-1.43,5.38,5.38,0,0,1-1.36-3.84,5.53,5.53,0,0,1,1.31-3.83,5,5,0,0,1,7-.05,5.57,5.57,0,0,1,1.27,3.87Zm-2.37-1.88A2.22,2.22,0,0,0,902,260a2.3,2.3,0,0,0-.79.13,2.31,2.31,0,0,0-1.19.95,2.84,2.84,0,0,0-.33.77Z"/>
    <path class="cls-2" d="M916.62,258.18h2.32v10h-2.32v-1a4.43,4.43,0,0,1-6.49-.17,5.57,5.57,0,0,1-1.34-3.81,5.39,5.39,0,0,1,1.34-3.74,4.34,4.34,0,0,1,3.37-1.5,4.22,4.22,0,0,1,3.12,1.44Zm-5.47,5a3.44,3.44,0,0,0,.77,2.34,2.5,2.5,0,0,0,2,.91,2.65,2.65,0,0,0,2.07-.88,3.8,3.8,0,0,0,0-4.64,2.63,2.63,0,0,0-2.05-.89,2.54,2.54,0,0,0-2,.9A3.31,3.31,0,0,0,911.15,263.14Z"/>
    <path class="cls-2" d="M924.23,260.33v7.83h-2.31v-7.83h-1v-2.15h1v-3.66h2.31v3.66H926v2.15Z"/>
    <path class="cls-2" d="M929.9,258.18v5.73c0,1.65.65,2.48,2,2.48s2-.83,2-2.48v-5.73h2.31V264a6.37,6.37,0,0,1-.3,2.07,3.43,3.43,0,0,1-1,1.41,4.86,4.86,0,0,1-5.93,0,3.59,3.59,0,0,1-1-1.41,5.69,5.69,0,0,1-.29-2.07v-5.78Z"/>
    <path class="cls-2" d="M939,258.18h2.31v.89a4.09,4.09,0,0,1,1.12-.91,2.51,2.51,0,0,1,1.19-.26,3.78,3.78,0,0,1,1.91.59l-1.06,2.12a2.15,2.15,0,0,0-1.28-.48c-1.26,0-1.88,1-1.88,2.86v5.17H939Z"/>
    <path class="cls-2" d="M955.84,263.71h-7.15a3,3,0,0,0,.8,2,2.66,2.66,0,0,0,3.24.31,5.72,5.72,0,0,0,1.26-1.52l2,1.09a7.75,7.75,0,0,1-1,1.32,5.28,5.28,0,0,1-1.07.9,4.66,4.66,0,0,1-1.24.52,6.08,6.08,0,0,1-1.45.16,4.72,4.72,0,0,1-3.59-1.43,5.42,5.42,0,0,1-1.35-3.84,5.48,5.48,0,0,1,1.31-3.83,5,5,0,0,1,7-.05,5.53,5.53,0,0,1,1.28,3.87Zm-2.36-1.88a2.22,2.22,0,0,0-2.33-1.85,2.26,2.26,0,0,0-.79.13,2.3,2.3,0,0,0-.67.37,2.06,2.06,0,0,0-.52.58,2.84,2.84,0,0,0-.33.77Z"/>
    <path class="cls-2" d="M964.17,259.88l-1.91,1c-.3-.61-.67-.92-1.12-.92a.76.76,0,0,0-.54.21.7.7,0,0,0-.22.54c0,.38.44.76,1.33,1.14a7.91,7.91,0,0,1,2.47,1.45,2.54,2.54,0,0,1,.64,1.8,3.16,3.16,0,0,1-1.07,2.42,3.83,3.83,0,0,1-6.06-1.53l2-.91a4.25,4.25,0,0,0,.62.91,1.44,1.44,0,0,0,1,.39c.78,0,1.17-.35,1.17-1.07,0-.41-.3-.79-.91-1.14l-.69-.34-.71-.34a4.26,4.26,0,0,1-1.41-1,2.4,2.4,0,0,1-.53-1.61,2.85,2.85,0,0,1,.9-2.15,3.09,3.09,0,0,1,2.21-.85A3,3,0,0,1,964.17,259.88Z"/>
  </g>
  <g>
    <path class="cls-1" d="M803.31,184.26,806,168.43h4.07l3.17,8.44,3.15-8.44h4.08l2.69,15.83h-4.1l-1.36-9.11L814,184.26h-1.64l-3.55-9.11-1.36,9.11Z"/>
    <path class="cls-1" d="M833.15,173.49H837v10.77h-3.82v-1.19a4,4,0,0,1-3.29,1.53A5.21,5.21,0,0,1,826,183a5.55,5.55,0,0,1-1.14-1.83,6.08,6.08,0,0,1-.41-2.28,6,6,0,0,1,.4-2.2,5.53,5.53,0,0,1,1.11-1.82,5.24,5.24,0,0,1,1.7-1.22,5.07,5.07,0,0,1,2.18-.46,4.37,4.37,0,0,1,3.34,1.41Zm-4.78,5.36a2.58,2.58,0,0,0,.18,1,2.64,2.64,0,0,0,.52.79,2.22,2.22,0,0,0,.78.52,2.55,2.55,0,0,0,1.93,0,2.18,2.18,0,0,0,.77-.52,2.63,2.63,0,0,0,.53-.78,2.3,2.3,0,0,0,.2-.94,2.39,2.39,0,0,0-.2-1,2.67,2.67,0,0,0-.53-.79,2.33,2.33,0,0,0-.77-.52,2.49,2.49,0,0,0-2.71.52,2.68,2.68,0,0,0-.52.77A2.42,2.42,0,0,0,828.37,178.85Z"/>
    <path class="cls-1" d="M839.7,169.35a2.12,2.12,0,0,1,.17-.83,2.27,2.27,0,0,1,.46-.68,2.31,2.31,0,0,1,.69-.46,2.09,2.09,0,0,1,.83-.17,2.12,2.12,0,0,1,.83.17,2.4,2.4,0,0,1,.68.46,2.27,2.27,0,0,1,.46.68,2.12,2.12,0,0,1,.17.83,2.09,2.09,0,0,1-.17.83,2.31,2.31,0,0,1-.46.69,2.63,2.63,0,0,1-.68.46,2.12,2.12,0,0,1-.83.17,2.09,2.09,0,0,1-.83-.17,2.52,2.52,0,0,1-.69-.46,2.31,2.31,0,0,1-.46-.69A2.09,2.09,0,0,1,839.7,169.35Zm4.06,4.14v16.15H840V173.49Z"/>
    <path class="cls-1" d="M845.94,178.78a5.22,5.22,0,0,1,.48-2.23,5.47,5.47,0,0,1,1.35-1.81,6.39,6.39,0,0,1,2.05-1.21,7.87,7.87,0,0,1,5.16,0,6.46,6.46,0,0,1,2.06,1.2,5.32,5.32,0,0,1,1.35,1.83,5.42,5.42,0,0,1,.49,2.34,5.49,5.49,0,0,1-.5,2.34,5.69,5.69,0,0,1-1.35,1.83,6,6,0,0,1-2.07,1.18,7.89,7.89,0,0,1-2.61.42,7.61,7.61,0,0,1-2.57-.42,5.83,5.83,0,0,1-2-1.2,5.54,5.54,0,0,1-1.34-1.85A5.89,5.89,0,0,1,845.94,178.78Zm4,0a2.48,2.48,0,0,0,.2,1,2.88,2.88,0,0,0,.53.79,2.18,2.18,0,0,0,.77.52,2.38,2.38,0,0,0,1,.19,2.42,2.42,0,0,0,1-.19,2.28,2.28,0,0,0,.77-.52,2.88,2.88,0,0,0,.53-.79,2.43,2.43,0,0,0,0-1.93,2.88,2.88,0,0,0-.53-.79,2.28,2.28,0,0,0-.77-.52,2.42,2.42,0,0,0-1-.19,2.38,2.38,0,0,0-1,.19,2.18,2.18,0,0,0-.77.52,2.83,2.83,0,0,0-.53.78A2.3,2.3,0,0,0,850,178.82Z"/>
    <path class="cls-1" d="M861.06,173.49h3.8v1.76a4.57,4.57,0,0,1,1.49-1.48,4.06,4.06,0,0,1,2.06-.51h.33a2.17,2.17,0,0,1,.41,0v3.63a3.65,3.65,0,0,0-1.64-.37,2.47,2.47,0,0,0-2,.78,3.5,3.5,0,0,0-.66,2.3v4.62h-3.8Z"/>
    <path class="cls-1" d="M887.39,171.92h-4.95v2.64H887v3.49h-4.51v6.21h-4.12V168.43h9.07Z"/>
    <path class="cls-1" d="M892.77,179.52c0,1.64.77,2.45,2.31,2.45a2.06,2.06,0,0,0,1.87-1h3.67q-1.11,3.69-5.56,3.69a7.17,7.17,0,0,1-2.5-.41,5.54,5.54,0,0,1-1.94-1.16,5.2,5.2,0,0,1-1.25-1.81,5.9,5.9,0,0,1-.44-2.35,6.66,6.66,0,0,1,.42-2.43,5.14,5.14,0,0,1,1.19-1.83,5.25,5.25,0,0,1,1.88-1.17,7.22,7.22,0,0,1,2.49-.41,7.05,7.05,0,0,1,2.46.41,5,5,0,0,1,1.85,1.19,5.13,5.13,0,0,1,1.15,1.9,7.42,7.42,0,0,1,.4,2.53v.4Zm4.45-2.21a2.25,2.25,0,0,0-.77-1.28,2.21,2.21,0,0,0-1.43-.48,2.16,2.16,0,0,0-1.44.46,2.06,2.06,0,0,0-.7,1.3Z"/>
    <path class="cls-1" d="M911.25,173.49h3.82v10.77h-3.82v-1.19a4,4,0,0,1-3.3,1.53,5.31,5.31,0,0,1-2.16-.43,5.21,5.21,0,0,1-1.72-1.21,5.74,5.74,0,0,1-1.15-1.83,6.28,6.28,0,0,1-.41-2.28,6.22,6.22,0,0,1,.4-2.2,5.73,5.73,0,0,1,1.12-1.82,5.24,5.24,0,0,1,1.7-1.22,5,5,0,0,1,2.18-.46,4.37,4.37,0,0,1,3.34,1.41Zm-4.79,5.36a2.58,2.58,0,0,0,.19,1,2.64,2.64,0,0,0,.52.79,2.18,2.18,0,0,0,.77.52,2.45,2.45,0,0,0,1,.19,2.42,2.42,0,0,0,1-.19,2.18,2.18,0,0,0,.77-.52,2.83,2.83,0,0,0,.53-.78,2.3,2.3,0,0,0,.2-.94,2.39,2.39,0,0,0-.2-1,2.88,2.88,0,0,0-.53-.79,2.33,2.33,0,0,0-.77-.52,2.42,2.42,0,0,0-1-.19,2.45,2.45,0,0,0-1,.19,2.33,2.33,0,0,0-.77.52,2.68,2.68,0,0,0-.52.77A2.43,2.43,0,0,0,906.46,178.85Z"/>
    <path class="cls-1" d="M921.9,176.66v7.6h-3.8v-7.6h-1.26v-3.17h1.26v-3.23h3.8v3.23h2.16v3.17Z"/>
    <path class="cls-1" d="M929.29,173.49v6.07a1.93,1.93,0,1,0,3.86,0v-6.07H937v6.8a3.88,3.88,0,0,1-1.44,3.28,9,9,0,0,1-8.59,0,3.86,3.86,0,0,1-1.44-3.28v-6.8Z"/>
    <path class="cls-1" d="M939.54,173.49h3.8v1.76a4.39,4.39,0,0,1,1.49-1.48,4,4,0,0,1,2.06-.51h.32a2.1,2.1,0,0,1,.41,0v3.63a3.62,3.62,0,0,0-1.64-.37,2.45,2.45,0,0,0-2,.78,3.5,3.5,0,0,0-.66,2.3v4.62h-3.8Z"/>
    <path class="cls-1" d="M952.87,179.52c0,1.64.77,2.45,2.31,2.45a2.06,2.06,0,0,0,1.87-1h3.68c-.75,2.46-2.6,3.69-5.57,3.69a7.17,7.17,0,0,1-2.5-.41,5.64,5.64,0,0,1-1.94-1.16,5.2,5.2,0,0,1-1.25-1.81,6.08,6.08,0,0,1-.44-2.35,6.66,6.66,0,0,1,.42-2.43,5,5,0,0,1,1.2-1.83,5.08,5.08,0,0,1,1.88-1.17,7.13,7.13,0,0,1,2.48-.41,7.05,7.05,0,0,1,2.46.41,5,5,0,0,1,1.85,1.19,5.13,5.13,0,0,1,1.15,1.9,7.42,7.42,0,0,1,.4,2.53v.4Zm4.45-2.21a2.25,2.25,0,0,0-.77-1.28,2.21,2.21,0,0,0-1.43-.48,2.16,2.16,0,0,0-1.44.46,2.06,2.06,0,0,0-.7,1.3Z"/>
    <path class="cls-1" d="M970.18,176.26a4.49,4.49,0,0,0-2.06-.54,1.53,1.53,0,0,0-.85.21.64.64,0,0,0-.33.56.87.87,0,0,0,0,.31.61.61,0,0,0,.23.22,2.24,2.24,0,0,0,.53.19l.91.21a4.39,4.39,0,0,1,2.36,1.12,2.9,2.9,0,0,1,.77,2.07,3.64,3.64,0,0,1-.38,1.7,3.58,3.58,0,0,1-1,1.27,5,5,0,0,1-1.61.8,7.22,7.22,0,0,1-2.08.28,8.43,8.43,0,0,1-4.31-1.24l1.39-2.68a5.46,5.46,0,0,0,3,1.09,1.51,1.51,0,0,0,.86-.23A.69.69,0,0,0,968,181a1.13,1.13,0,0,0-.05-.35.63.63,0,0,0-.22-.25,1.7,1.7,0,0,0-.5-.21c-.21-.06-.5-.13-.85-.2a4.84,4.84,0,0,1-2.46-1.06,2.63,2.63,0,0,1-.71-1.94,3.74,3.74,0,0,1,.34-1.63,3.37,3.37,0,0,1,1-1.23,4.6,4.6,0,0,1,1.53-.78,6.77,6.77,0,0,1,2-.27,9.06,9.06,0,0,1,3.47.69Z"/>
  </g>
  <g>
    <path class="cls-1" d="M857,116.71h10.2v-10.2h6.4v10.2h10.15v6.4H873.6v10.2h-6.4v-10.2H857Z"/>
    <path class="cls-1" d="M915.4,109.36h-13l-.65,4.15,1.65-.17a15.45,15.45,0,0,1,1.55-.08,14.08,14.08,0,0,1,5.3,1,12.29,12.29,0,0,1,6.95,6.95,14.19,14.19,0,0,1,1,5.35,13,13,0,0,1-1.13,5.5,11.88,11.88,0,0,1-3.17,4.18,14.46,14.46,0,0,1-5,2.65,22.08,22.08,0,0,1-6.56.92,24.89,24.89,0,0,1-6.47-.82,21,21,0,0,1-5.78-2.53l1.46-9.2a19.74,19.74,0,0,0,5.1,3.28,12.43,12.43,0,0,0,4.94,1.12,6.71,6.71,0,0,0,4.75-1.62,5.27,5.27,0,0,0,1.75-4,5.36,5.36,0,0,0-2.34-4.52,10.17,10.17,0,0,0-6.16-1.73,17.26,17.26,0,0,0-3.5.38,16.88,16.88,0,0,0-3.54,1.17l3.15-20.25H915.4Z"/>
  </g>
  <g>
    <path class="cls-3" d="M23,36.19l5.74-7.46h5.81L27.33,37.3l7.85,9.52h-6.1L23,39v7.84h-4.7V28.73H23Z"/>
    <path class="cls-3" d="M39.88,41.4c0,1.87.88,2.81,2.64,2.81a2.37,2.37,0,0,0,2.14-1.15h4.2q-1.28,4.21-6.36,4.22a8.45,8.45,0,0,1-2.86-.47,6.35,6.35,0,0,1-2.22-1.33A6.1,6.1,0,0,1,36,43.42a7,7,0,0,1-.5-2.69A7.56,7.56,0,0,1,36,38a5.76,5.76,0,0,1,1.37-2.1,6.13,6.13,0,0,1,2.15-1.34,8.14,8.14,0,0,1,2.84-.46,8,8,0,0,1,2.81.46,5.64,5.64,0,0,1,3.43,3.53A8.72,8.72,0,0,1,49,40.94v.46ZM45,38.88a2.54,2.54,0,0,0-.89-1.46,2.73,2.73,0,0,0-3.27,0A2.36,2.36,0,0,0,40,38.88Z"/>
    <path class="cls-3" d="M55.31,45.14l-6-10.63h5l3.29,6.31,3.19-6.31h5L56,53H51.11Z"/>
    <path class="cls-3" d="M85.87,33.36a5.86,5.86,0,0,0-1.54-.92,4.08,4.08,0,0,0-1.49-.3,2.42,2.42,0,0,0-1.49.43,1.35,1.35,0,0,0-.57,1.13,1.09,1.09,0,0,0,.29.79,2.41,2.41,0,0,0,.75.54,6.53,6.53,0,0,0,1.06.39l1.16.36a7.26,7.26,0,0,1,3.37,2.06,5.05,5.05,0,0,1,1.07,3.34A6.36,6.36,0,0,1,88,43.7a5.21,5.21,0,0,1-1.36,1.94,6.33,6.33,0,0,1-2.21,1.24,9.09,9.09,0,0,1-3,.45,10.94,10.94,0,0,1-6.36-2l2-3.79a8.34,8.34,0,0,0,2.09,1.39,5.09,5.09,0,0,0,2,.45A2.41,2.41,0,0,0,83,42.82a1.63,1.63,0,0,0,.57-1.2,1.55,1.55,0,0,0-.15-.71,1.37,1.37,0,0,0-.48-.55,3.5,3.5,0,0,0-.87-.47c-.36-.15-.8-.31-1.31-.48s-1.2-.41-1.79-.64a5.78,5.78,0,0,1-1.56-.92,4.46,4.46,0,0,1-1.1-1.45,5.17,5.17,0,0,1-.42-2.22,6.54,6.54,0,0,1,.44-2.44,5.39,5.39,0,0,1,1.25-1.87,5.46,5.46,0,0,1,2-1.21,7.35,7.35,0,0,1,2.6-.44,11.34,11.34,0,0,1,2.81.38,12,12,0,0,1,2.81,1.09Z"/>
    <path class="cls-3" d="M95.37,34.51v6.94a2.21,2.21,0,1,0,4.42,0V34.51h4.34v7.78A4.41,4.41,0,0,1,102.49,46a8.09,8.09,0,0,1-4.91,1.25A8.07,8.07,0,0,1,92.67,46,4.39,4.39,0,0,1,91,42.29V34.51Z"/>
    <path class="cls-3" d="M116.37,38.5a4,4,0,0,0-2.28-.77,3.15,3.15,0,0,0-1.16.21,2.89,2.89,0,0,0-1,.62,2.76,2.76,0,0,0-.64.93,3.14,3.14,0,0,0-.23,1.21,3,3,0,0,0,.85,2.13,2.77,2.77,0,0,0,1,.61,3.3,3.3,0,0,0,1.18.22,3.58,3.58,0,0,0,2.28-.84v3.69a7.59,7.59,0,0,1-3.05.7,7,7,0,0,1-2.55-.46,6.43,6.43,0,0,1-2.14-1.31,6.23,6.23,0,0,1-1.48-2,6.31,6.31,0,0,1-.55-2.65,6.63,6.63,0,0,1,.53-2.67A6.29,6.29,0,0,1,108.57,36a6.47,6.47,0,0,1,2.17-1.37,7.31,7.31,0,0,1,2.7-.49,6.44,6.44,0,0,1,2.93.67Z"/>
    <path class="cls-3" d="M128.13,38.5a4,4,0,0,0-2.28-.77,3.11,3.11,0,0,0-1.16.21,2.89,2.89,0,0,0-1,.62,2.62,2.62,0,0,0-.64.93,3.14,3.14,0,0,0-.23,1.21,3,3,0,0,0,.85,2.13,2.77,2.77,0,0,0,1,.61,3.3,3.3,0,0,0,1.18.22,3.6,3.6,0,0,0,2.28-.84v3.69a7.59,7.59,0,0,1-3,.7,7,7,0,0,1-2.55-.46,6.33,6.33,0,0,1-2.14-1.31,6.23,6.23,0,0,1-1.48-2,6.16,6.16,0,0,1-.55-2.65,6.63,6.63,0,0,1,.53-2.67A6.29,6.29,0,0,1,120.33,36a6.47,6.47,0,0,1,2.17-1.37,7.31,7.31,0,0,1,2.7-.49,6.44,6.44,0,0,1,2.93.67Z"/>
    <path class="cls-3" d="M134.51,41.4c0,1.87.88,2.81,2.64,2.81a2.37,2.37,0,0,0,2.14-1.15h4.2q-1.28,4.21-6.36,4.22a8.45,8.45,0,0,1-2.86-.47,6.35,6.35,0,0,1-2.22-1.33,6.1,6.1,0,0,1-1.43-2.06,7,7,0,0,1-.5-2.69A7.56,7.56,0,0,1,130.6,38a5.76,5.76,0,0,1,1.37-2.1,6.13,6.13,0,0,1,2.15-1.34,8.14,8.14,0,0,1,2.84-.46,8,8,0,0,1,2.81.46,5.64,5.64,0,0,1,3.43,3.53,8.72,8.72,0,0,1,.46,2.89v.46Zm5.09-2.52a2.54,2.54,0,0,0-.89-1.46,2.73,2.73,0,0,0-3.27,0,2.36,2.36,0,0,0-.81,1.49Z"/>
    <path class="cls-3" d="M154.29,37.68a5,5,0,0,0-2.35-.62,1.8,1.8,0,0,0-1,.24.74.74,0,0,0-.37.64.85.85,0,0,0,.06.35.6.6,0,0,0,.27.25,2,2,0,0,0,.6.22l1,.24a5,5,0,0,1,2.69,1.28,3.3,3.3,0,0,1,.89,2.37,4.23,4.23,0,0,1-.44,1.94A3.92,3.92,0,0,1,154.5,46a5.57,5.57,0,0,1-1.84.92,8.51,8.51,0,0,1-2.38.32,9.62,9.62,0,0,1-4.92-1.42l1.58-3.07A6.22,6.22,0,0,0,150.4,44a1.72,1.72,0,0,0,1-.26.79.79,0,0,0,.39-.68,1.07,1.07,0,0,0-.06-.39.67.67,0,0,0-.25-.29,1.94,1.94,0,0,0-.57-.24c-.25-.07-.57-.15-1-.23a5.55,5.55,0,0,1-2.82-1.21,3,3,0,0,1-.8-2.22,4.3,4.3,0,0,1,.38-1.86,3.85,3.85,0,0,1,1.1-1.4,5.11,5.11,0,0,1,1.74-.89,7.69,7.69,0,0,1,2.27-.31,10.25,10.25,0,0,1,4,.79Z"/>
    <path class="cls-3" d="M166.5,37.68a5,5,0,0,0-2.35-.62,1.76,1.76,0,0,0-1,.24.72.72,0,0,0-.37.64.85.85,0,0,0,.06.35.63.63,0,0,0,.26.25,2.24,2.24,0,0,0,.6.22l1.05.24a5,5,0,0,1,2.68,1.28,3.26,3.26,0,0,1,.89,2.37,4.23,4.23,0,0,1-.43,1.94,4.12,4.12,0,0,1-1.2,1.45,5.63,5.63,0,0,1-1.85.92,8.44,8.44,0,0,1-2.37.32,9.57,9.57,0,0,1-4.92-1.42l1.58-3.07A6.22,6.22,0,0,0,162.62,44a1.74,1.74,0,0,0,1-.26.78.78,0,0,0,.38-.68,1.07,1.07,0,0,0-.06-.39.61.61,0,0,0-.25-.29,1.87,1.87,0,0,0-.56-.24c-.25-.07-.57-.15-1-.23a5.47,5.47,0,0,1-2.82-1.21,3,3,0,0,1-.81-2.22,4.3,4.3,0,0,1,.39-1.86,3.75,3.75,0,0,1,1.1-1.4,5.11,5.11,0,0,1,1.74-.89,7.69,7.69,0,0,1,2.27-.31,10.25,10.25,0,0,1,4,.79Z"/>
    <path class="cls-3" d="M178.31,46.82l3.07-18.09H186l3.62,9.65,3.6-9.65h4.66L201,46.82h-4.68l-1.56-10.41-4.27,10.41h-1.87l-4.06-10.41L183,46.82Z"/>
    <path class="cls-3" d="M206.82,41.4c0,1.87.88,2.81,2.64,2.81a2.37,2.37,0,0,0,2.14-1.15h4.2q-1.28,4.21-6.36,4.22a8.45,8.45,0,0,1-2.86-.47,6.35,6.35,0,0,1-2.22-1.33,5.94,5.94,0,0,1-1.42-2.06,6.83,6.83,0,0,1-.51-2.69,7.56,7.56,0,0,1,.48-2.77,5.76,5.76,0,0,1,1.37-2.1,6.13,6.13,0,0,1,2.15-1.34,8.14,8.14,0,0,1,2.84-.46,8,8,0,0,1,2.81.46,5.64,5.64,0,0,1,3.43,3.53,8.72,8.72,0,0,1,.46,2.89v.46Zm5.09-2.52a2.54,2.54,0,0,0-.89-1.46,2.73,2.73,0,0,0-3.27,0,2.36,2.36,0,0,0-.81,1.49Z"/>
    <path class="cls-3" d="M223.46,38.14v8.68h-4.35V38.14h-1.44V34.51h1.44V30.82h4.35v3.69h2.47v3.63Z"/>
    <path class="cls-3" d="M227.56,34.51h4.34v2a5,5,0,0,1,1.71-1.69,4.48,4.48,0,0,1,2.35-.59h.37a2.09,2.09,0,0,1,.47,0v4.15a4.11,4.11,0,0,0-1.87-.43,2.79,2.79,0,0,0-2.27.9,3.94,3.94,0,0,0-.76,2.62v5.28h-4.34Z"/>
    <path class="cls-3" d="M238.46,29.78a2.29,2.29,0,0,1,.19-.94,2.32,2.32,0,0,1,.52-.78,2.49,2.49,0,0,1,.79-.53,2.29,2.29,0,0,1,.94-.19,2.41,2.41,0,0,1,1.73.72,2.5,2.5,0,0,1,.53.78,2.45,2.45,0,0,1,0,1.89,2.5,2.5,0,0,1-.53.78,2.41,2.41,0,0,1-1.73.72A2.29,2.29,0,0,1,240,32a2.49,2.49,0,0,1-.79-.53,2.46,2.46,0,0,1-.71-1.73Zm4.63,4.73V46.82h-4.35V34.51Z"/>
    <path class="cls-3" d="M255.35,38.5a4,4,0,0,0-2.28-.77,3.15,3.15,0,0,0-1.16.21,2.89,2.89,0,0,0-.95.62,2.76,2.76,0,0,0-.64.93,3.14,3.14,0,0,0-.23,1.21,3,3,0,0,0,.23,1.19,2.88,2.88,0,0,0,.63.94,2.73,2.73,0,0,0,.94.61,3.3,3.3,0,0,0,1.18.22,3.58,3.58,0,0,0,2.28-.84v3.69a7.59,7.59,0,0,1-3,.7,7,7,0,0,1-2.55-.46,6.43,6.43,0,0,1-2.14-1.31,6.23,6.23,0,0,1-1.48-2,6.31,6.31,0,0,1-.55-2.65,6.63,6.63,0,0,1,.53-2.67A6.29,6.29,0,0,1,247.55,36a6.47,6.47,0,0,1,2.17-1.37,7.31,7.31,0,0,1,2.7-.49,6.41,6.41,0,0,1,2.93.67Z"/>
    <path class="cls-3" d="M266,37.68a5,5,0,0,0-2.35-.62,1.76,1.76,0,0,0-1,.24.72.72,0,0,0-.37.64.85.85,0,0,0,.06.35.57.57,0,0,0,.26.25,2.24,2.24,0,0,0,.6.22l1,.24a5,5,0,0,1,2.69,1.28,3.26,3.26,0,0,1,.89,2.37,4.23,4.23,0,0,1-.43,1.94A4.12,4.12,0,0,1,266.2,46a5.63,5.63,0,0,1-1.85.92,8.46,8.46,0,0,1-2.38.32,9.62,9.62,0,0,1-4.92-1.42l1.59-3.07A6.2,6.2,0,0,0,262.09,44a1.78,1.78,0,0,0,1-.26.81.81,0,0,0,.38-.68,1.07,1.07,0,0,0-.06-.39.61.61,0,0,0-.25-.29,2,2,0,0,0-.56-.24c-.25-.07-.58-.15-1-.23a5.55,5.55,0,0,1-2.83-1.21,3,3,0,0,1-.8-2.22,4.3,4.3,0,0,1,.39-1.86,3.75,3.75,0,0,1,1.1-1.4,5.11,5.11,0,0,1,1.74-.89,7.65,7.65,0,0,1,2.27-.31,10.25,10.25,0,0,1,4,.79Z"/>
  </g>
</svg>
